<svg xmlns="http://www.w3.org/2000/svg" xmlns:xlink="http://www.w3.org/1999/xlink" contentStyleType="text/css" data-diagram-type="ACTIVITY" height="511px" preserveAspectRatio="none" style="width:1282px;height:511px;background:#FFFFFF;" version="1.1" viewBox="0 0 1282 511" width="1282px" zoomAndPan="magnify"><?plantuml 1.2026.3?><defs/><g><g class="title" data-source-line="1"><text fill="#000000" font-family="sans-serif" font-size="14" font-weight="700" lengthAdjust="spacing" textLength="428.5996" x="425.8079" y="32.9951">Promote Engagement Work to the Enterprise Baseline</text></g><rect fill="none" height="20.9531" style="stroke:none;stroke-width:1;" width="1235.2153" x="20" y="55.042"/><ellipse cx="282.1807" cy="90.9951" fill="#222222" rx="10" ry="10" style="stroke:#222222;stroke-width:1;"/><rect fill="#F1F1F1" height="33.9688" rx="12.5" ry="12.5" style="stroke:#181818;stroke-width:0.5;" width="265.5781" x="149.3916" y="120.9951"/><text fill="#000000" font-family="sans-serif" font-size="12" lengthAdjust="spacing" textLength="245.5781" x="159.3916" y="142.1338">Select entities &amp; connections to promote</text><rect fill="#F1F1F1" height="33.9688" rx="12.5" ry="12.5" style="stroke:#181818;stroke-width:0.5;" width="234.6875" x="26" y="380.8701"/><text fill="#000000" font-family="sans-serif" font-size="12" lengthAdjust="spacing" textLength="214.6875" x="36" y="402.0088">Submit branch for review (open PR)</text><line style="stroke:#000000;stroke-width:1.5;" x1="20" x2="20" y1="55.042" y2="490.8389"/><rect fill="#F1F1F1" height="33.9688" rx="12.5" ry="12.5" style="stroke:#181818;stroke-width:0.5;" width="404.6855" x="485.8506" y="174.9639"/><text fill="#000000" font-family="sans-serif" font-size="12" lengthAdjust="spacing" textLength="384.6855" x="495.8506" y="196.1025">Detect &amp; resolve name/id conflicts (accept / enterprise / merge)</text><rect fill="#F1F1F1" height="33.9688" rx="12.5" ry="12.5" style="stroke:#181818;stroke-width:0.5;" width="248.7734" x="424.9697" y="326.9014"/><text fill="#000000" font-family="sans-serif" font-size="12" lengthAdjust="spacing" textLength="228.7734" x="434.9697" y="348.04">Promote to enterprise working branch</text><rect fill="#F1F1F1" height="33.9688" rx="12.5" ry="12.5" style="stroke:#181818;stroke-width:0.5;" width="266.5742" x="693.7432" y="326.9014"/><text fill="#000000" font-family="sans-serif" font-size="12" lengthAdjust="spacing" textLength="246.5742" x="703.7432" y="348.04">Block promotion with per-violation errors</text><ellipse cx="688.1934" cy="479.8389" fill="none" rx="11" ry="11" style="stroke:#222222;stroke-width:1;"/><ellipse cx="688.1934" cy="479.8389" fill="#222222" rx="6" ry="6" style="stroke:#222222;stroke-width:1;"/><line style="stroke:#000000;stroke-width:1.5;" x1="418.9697" x2="418.9697" y1="55.042" y2="490.8389"/><rect fill="#F1F1F1" height="33.9688" rx="12.5" ry="12.5" style="stroke:#181818;stroke-width:0.5;" width="279.0371" x="970.3174" y="228.9326"/><text fill="#000000" font-family="sans-serif" font-size="12" lengthAdjust="spacing" textLength="259.0371" x="980.3174" y="250.0713">Check engagement schemata &#8839; enterprise</text><polygon fill="#F1F1F1" points="1006.7673,282.9014,1212.9045,282.9014,1224.9045,294.9014,1212.9045,306.9014,1006.7673,306.9014,994.7673,294.9014,1006.7673,282.9014" style="stroke:#181818;stroke-width:0.5;"/><text fill="#000000" font-family="sans-serif" font-size="11" lengthAdjust="spacing" textLength="206.1372" x="1006.7673" y="298.7095">Engagement schemata &#8839; enterprise?</text><text fill="#000000" font-family="sans-serif" font-size="11" lengthAdjust="spacing" textLength="19.0083" x="975.759" y="292.3071">yes</text><text fill="#000000" font-family="sans-serif" font-size="11" lengthAdjust="spacing" textLength="13.7017" x="1224.9045" y="292.3071">no</text><polygon fill="#F1F1F1" points="1109.8359,424.8389,1121.8359,436.8389,1109.8359,448.8389,1097.8359,436.8389,1109.8359,424.8389" style="stroke:#181818;stroke-width:0.5;"/><line style="stroke:#000000;stroke-width:1.5;" x1="964.3174" x2="964.3174" y1="55.042" y2="490.8389"/><line style="stroke:#000000;stroke-width:1.5;" x1="1253.3545" x2="1253.3545" y1="55.042" y2="490.8389"/><line style="stroke:#181818;stroke-width:1;" x1="282.1807" x2="282.1807" y1="100.9951" y2="120.9951"/><polygon fill="#181818" points="278.1807,110.9951,282.1807,120.9951,286.1807,110.9951,282.1807,114.9951" style="stroke:#181818;stroke-width:1;"/><line style="stroke:#181818;stroke-width:1;" x1="1109.8359" x2="1109.8359" y1="262.9014" y2="282.9014"/><polygon fill="#181818" points="1105.8359,272.9014,1109.8359,282.9014,1113.8359,272.9014,1109.8359,276.9014" style="stroke:#181818;stroke-width:1;"/><line style="stroke:#181818;stroke-width:1;" x1="282.1807" x2="282.1807" y1="154.9639" y2="159.9639"/><line style="stroke:#181818;stroke-width:1;" x1="282.1807" x2="688.1934" y1="159.9639" y2="159.9639"/><line style="stroke:#181818;stroke-width:1;" x1="688.1934" x2="688.1934" y1="159.9639" y2="174.9639"/><polygon fill="#181818" points="684.1934,164.9639,688.1934,174.9639,692.1934,164.9639,688.1934,168.9639" style="stroke:#181818;stroke-width:1;"/><line style="stroke:#181818;stroke-width:1;" x1="688.1934" x2="688.1934" y1="208.9326" y2="213.9326"/><line style="stroke:#181818;stroke-width:1;" x1="688.1934" x2="1109.8359" y1="213.9326" y2="213.9326"/><line style="stroke:#181818;stroke-width:1;" x1="1109.8359" x2="1109.8359" y1="213.9326" y2="228.9326"/><polygon fill="#181818" points="1105.8359,218.9326,1109.8359,228.9326,1113.8359,218.9326,1109.8359,222.9326" style="stroke:#181818;stroke-width:1;"/><line style="stroke:#181818;stroke-width:1;" x1="549.3564" x2="549.3564" y1="360.8701" y2="365.8701"/><line style="stroke:#181818;stroke-width:1;" x1="549.3564" x2="143.3438" y1="365.8701" y2="365.8701"/><line style="stroke:#181818;stroke-width:1;" x1="143.3438" x2="143.3438" y1="365.8701" y2="380.8701"/><polygon fill="#181818" points="139.3438,370.8701,143.3438,380.8701,147.3438,370.8701,143.3438,374.8701" style="stroke:#181818;stroke-width:1;"/><line style="stroke:#181818;stroke-width:1;" x1="994.7673" x2="549.3564" y1="294.9014" y2="294.9014"/><line style="stroke:#181818;stroke-width:1;" x1="549.3564" x2="549.3564" y1="294.9014" y2="326.9014"/><polygon fill="#181818" points="545.3564,316.9014,549.3564,326.9014,553.3564,316.9014,549.3564,320.9014" style="stroke:#181818;stroke-width:1;"/><line style="stroke:#181818;stroke-width:1;" x1="1224.9045" x2="1236.9045" y1="294.9014" y2="294.9014"/><line style="stroke:#181818;stroke-width:1;" x1="1236.9045" x2="1236.9045" y1="294.9014" y2="312.9014"/><line style="stroke:#181818;stroke-width:1;" x1="1236.9045" x2="827.0303" y1="312.9014" y2="312.9014"/><line style="stroke:#181818;stroke-width:1;" x1="827.0303" x2="827.0303" y1="312.9014" y2="326.9014"/><polygon fill="#181818" points="823.0303,316.9014,827.0303,326.9014,831.0303,316.9014,827.0303,320.9014" style="stroke:#181818;stroke-width:1;"/><line style="stroke:#181818;stroke-width:1;" x1="143.3438" x2="143.3438" y1="414.8389" y2="436.8389"/><line style="stroke:#181818;stroke-width:1;" x1="143.3438" x2="1097.8359" y1="436.8389" y2="436.8389"/><polygon fill="#181818" points="1087.8359,432.8389,1097.8359,436.8389,1087.8359,440.8389,1091.8359,436.8389" style="stroke:#181818;stroke-width:1;"/><line style="stroke:#181818;stroke-width:1;" x1="827.0303" x2="827.0303" y1="360.8701" y2="418.8389"/><line style="stroke:#181818;stroke-width:1;" x1="827.0303" x2="1139.8359" y1="418.8389" y2="418.8389"/><line style="stroke:#181818;stroke-width:1;" x1="1139.8359" x2="1139.8359" y1="418.8389" y2="436.8389"/><line style="stroke:#181818;stroke-width:1;" x1="1139.8359" x2="1121.8359" y1="436.8389" y2="436.8389"/><polygon fill="#181818" points="1131.8359,432.8389,1121.8359,436.8389,1131.8359,440.8389,1127.8359,436.8389" style="stroke:#181818;stroke-width:1;"/><line style="stroke:#181818;stroke-width:1;" x1="1109.8359" x2="1109.8359" y1="448.8389" y2="453.8389"/><line style="stroke:#181818;stroke-width:1;" x1="1109.8359" x2="688.1934" y1="453.8389" y2="453.8389"/><line style="stroke:#181818;stroke-width:1;" x1="688.1934" x2="688.1934" y1="453.8389" y2="468.8389"/><polygon fill="#181818" points="684.1934,458.8389,688.1934,468.8389,692.1934,458.8389,688.1934,462.8389" style="stroke:#181818;stroke-width:1;"/><text fill="#000000" font-family="sans-serif" font-size="18" lengthAdjust="spacing" textLength="154.7314" x="142.1191" y="71.75">Author / AI Agent</text><text fill="#000000" font-family="sans-serif" font-size="18" lengthAdjust="spacing" textLength="194.3174" x="594.4849" y="71.75">Architecture Backend</text><text fill="#000000" font-family="sans-serif" font-size="18" lengthAdjust="spacing" textLength="65.6016" x="1076.0352" y="71.75">Verifier</text><?plantuml-src XP6zRW8n48HxFyLMqL54z514a53GeI0bjJ5pTojyzcczW2BHHyfZvaco5_934PHsTlVpp5XP8sWbkSiAMgJ6D-YGb9wpx4WpQJl82kc52sZk2o8dE7UQxRNDGcEQBMdMsCt95VMYpatMY0XAfh4o2jrGo2cPn3cLWTgV7vmQHKBBQgEz3FImGzgUtEG1WsQ7WfBZ0PHyXp5l1r0TEMYXoeU0Niq0VlsDgOCq61dv2S8rGunstoBiREqdNGajEg-UtjzUBywdZckg5l_ktOs6NX9LBoYZgnc-MxMy5mwFLYodXZRYKsYdV_OuMUyt7UlN3jKs5XmOHwfoR--k7YqWej6gbAyRcCTiiSzTM_DqP6sfXzmUE4V_AK4aIp5OsdBjx0Dp_m40?></g></svg>