<svg xmlns="http://www.w3.org/2000/svg" xmlns:xlink="http://www.w3.org/1999/xlink" contentStyleType="text/css" data-diagram-type="DESCRIPTION" height="638px" preserveAspectRatio="none" style="width:1100px;height:638px;background:#FAFAFA;" version="1.1" viewBox="0 0 1100 638" width="1100px" zoomAndPan="magnify"><title>Application Component Map</title><defs/><g><rect fill="#FAFAFA" height="638" style="stroke:none;stroke-width:1;" width="1100" x="0" y="0"/><text fill="#000000" font-family="sans-serif" font-size="14" font-weight="bold" lengthAdjust="spacing" textLength="222.6875" x="431.7813" y="22.9951">Application Component Map</text><!--cluster Interfaces--><g class="cluster" data-entity="Interfaces" data-source-line="7" data-uid="ent0002" id="cluster_Interfaces"><rect fill="#E8F8FF" height="216" rx="2" ry="2" style="stroke:#0078A0;stroke-width:1;" width="544" x="125.25" y="44.2969"/><text fill="#000000" font-family="sans-serif" font-size="12" font-weight="bold" lengthAdjust="spacing" textLength="68.5137" x="362.9932" y="57.4355">Interfaces</text></g><!--cluster Components--><g class="cluster" data-entity="Components" data-source-line="14" data-uid="ent0007" id="cluster_Components"><rect fill="#E8F8FF" height="216" rx="2" ry="2" style="stroke:#0078A0;stroke-width:1;" width="1014" x="80.25" y="292.2969"/><text fill="#000000" font-family="sans-serif" font-size="12" font-weight="bold" lengthAdjust="spacing" textLength="84.4922" x="545.0039" y="305.4355">Components</text></g><!--cluster Data--><g class="cluster" data-entity="Data" data-source-line="27" data-uid="ent0018" id="cluster_Data"><rect fill="#E8F8FF" height="92" rx="2" ry="2" style="stroke:#0078A0;stroke-width:1;" width="416" x="676.25" y="540.2969"/><text fill="#000000" font-family="sans-serif" font-size="12" font-weight="bold" lengthAdjust="spacing" textLength="31.8926" x="868.3037" y="553.4355">Data</text></g><!--entity AIF_KxvYB--><g class="entity" data-entity="AIF_KxvYB" data-source-line="8" data-uid="ent0003" id="entity_AIF_KxvYB"><rect fill="#CCF2FF" height="44" rx="2" ry="2" style="stroke:#0078A0;stroke-width:0.5;" width="123.957" x="337.25" y="76.2969"/><path d="M351.45,97.3219 L356.85,97.3219 L356.85,99.2719 L351.45,99.2719" fill="#252327"/><ellipse cx="361.65" cy="98.2969" fill="none" rx="5.1" ry="5.1" style="stroke:#252327;stroke-width:1.95;"/><text fill="#000000" font-family="sans-serif" font-size="12" lengthAdjust="spacing" textLength="76.1426" x="375.0645" y="107.4668">CLI Interface</text></g><!--entity AIF_wuleEe--><g class="entity" data-entity="AIF_wuleEe" data-source-line="9" data-uid="ent0004" id="entity_AIF_wuleEe"><rect fill="#CCF2FF" height="44" rx="2" ry="2" style="stroke:#0078A0;stroke-width:0.5;" width="131.3223" x="521.75" y="76.2969"/><path d="M535.95,97.3219 L541.35,97.3219 L541.35,99.2719 L535.95,99.2719" fill="#252327"/><ellipse cx="546.15" cy="98.2969" fill="none" rx="5.1" ry="5.1" style="stroke:#252327;stroke-width:1.95;"/><text fill="#000000" font-family="sans-serif" font-size="12" lengthAdjust="spacing" textLength="83.5078" x="559.5645" y="107.4668">MCP Interface</text></g><!--entity AIF_XjbNQh--><g class="entity" data-entity="AIF_XjbNQh" data-source-line="10" data-uid="ent0005" id="entity_AIF_XjbNQh"><rect fill="#CCF2FF" height="44" rx="2" ry="2" style="stroke:#0078A0;stroke-width:0.5;" width="136.2207" x="141.25" y="76.2969"/><path d="M155.45,97.3219 L160.85,97.3219 L160.85,99.2719 L155.45,99.2719" fill="#252327"/><ellipse cx="165.65" cy="98.2969" fill="none" rx="5.1" ry="5.1" style="stroke:#252327;stroke-width:1.95;"/><text fill="#000000" font-family="sans-serif" font-size="12" lengthAdjust="spacing" textLength="88.4063" x="179.0645" y="107.4668">REST Interface</text></g><!--entity AIF_Ua50xU--><g class="entity" data-entity="AIF_Ua50xU" data-source-line="11" data-uid="ent0006" id="entity_AIF_Ua50xU"><rect fill="#CCF2FF" height="44" rx="2" ry="2" style="stroke:#0078A0;stroke-width:0.5;" width="132.2188" x="143.25" y="200.2969"/><path d="M157.45,221.3219 L162.85,221.3219 L162.85,223.2719 L157.45,223.2719" fill="#252327"/><ellipse cx="167.65" cy="222.2969" fill="none" rx="5.1" ry="5.1" style="stroke:#252327;stroke-width:1.95;"/><text fill="#000000" font-family="sans-serif" font-size="12" lengthAdjust="spacing" textLength="84.4043" x="181.0645" y="231.4668">Web Interface</text></g><!--entity APP_kjC6ex--><g class="entity" data-entity="APP_kjC6ex" data-source-line="15" data-uid="ent0008" id="entity_APP_kjC6ex"><rect fill="#CCF2FF" height="44" rx="2" ry="2" style="stroke:#0078A0;stroke-width:0.5;" width="95.5801" x="758.25" y="324.2969"/><path d="M774.25,340.5969 L785.35,340.5969 L785.35,351.9969 L774.25,351.9969" fill="#252327"/><path d="M771.7,341.7219 L774.25,341.7219 L774.25,343.6719 L771.7,343.6719" fill="#252327"/><path d="M771.7,345.3219 L774.25,345.3219 L774.25,347.2719 L771.7,347.2719" fill="#252327"/><path d="M771.7,348.9219 L774.25,348.9219 L774.25,350.8719 L771.7,350.8719" fill="#252327"/><path d="M785.35,341.7219 L787.45,341.7219 L787.45,343.6719 L785.35,343.6719" fill="#252327"/><path d="M785.35,345.3219 L787.45,345.3219 L787.45,347.2719 L785.35,347.2719" fill="#252327"/><path d="M785.35,348.9219 L787.45,348.9219 L787.45,350.8719 L785.35,350.8719" fill="#252327"/><text fill="#000000" font-family="sans-serif" font-size="12" lengthAdjust="spacing" textLength="47.7656" x="796.0645" y="355.4668">CLI Tool</text></g><!--entity APP_SCKD2U--><g class="entity" data-entity="APP_SCKD2U" data-source-line="16" data-uid="ent0009" id="entity_APP_SCKD2U"><rect fill="#CCF2FF" height="44" rx="2" ry="2" style="stroke:#0078A0;stroke-width:0.5;" width="163.7773" x="914.25" y="324.2969"/><path d="M930.25,340.5969 L941.35,340.5969 L941.35,351.9969 L930.25,351.9969" fill="#252327"/><path d="M927.7,341.7219 L930.25,341.7219 L930.25,343.6719 L927.7,343.6719" fill="#252327"/><path d="M927.7,345.3219 L930.25,345.3219 L930.25,347.2719 L927.7,347.2719" fill="#252327"/><path d="M927.7,348.9219 L930.25,348.9219 L930.25,350.8719 L927.7,350.8719" fill="#252327"/><path d="M941.35,341.7219 L943.45,341.7219 L943.45,343.6719 L941.35,343.6719" fill="#252327"/><path d="M941.35,345.3219 L943.45,345.3219 L943.45,347.2719 L941.35,347.2719" fill="#252327"/><path d="M941.35,348.9219 L943.45,348.9219 L943.45,350.8719 L941.35,350.8719" fill="#252327"/><text fill="#000000" font-family="sans-serif" font-size="12" lengthAdjust="spacing" textLength="115.9629" x="952.0645" y="355.4668">Diagram Scaffolder</text></g><!--entity APP_YOOEbL--><g class="entity" data-entity="APP_YOOEbL" data-source-line="17" data-uid="ent0010" id="entity_APP_YOOEbL"><rect fill="#CCF2FF" height="44" rx="2" ry="2" style="stroke:#0078A0;stroke-width:0.5;" width="161.9785" x="318.25" y="324.2969"/><path d="M334.25,340.5969 L345.35,340.5969 L345.35,351.9969 L334.25,351.9969" fill="#252327"/><path d="M331.7,341.7219 L334.25,341.7219 L334.25,343.6719 L331.7,343.6719" fill="#252327"/><path d="M331.7,345.3219 L334.25,345.3219 L334.25,347.2719 L331.7,347.2719" fill="#252327"/><path d="M331.7,348.9219 L334.25,348.9219 L334.25,350.8719 L331.7,350.8719" fill="#252327"/><path d="M345.35,341.7219 L347.45,341.7219 L347.45,343.6719 L345.35,343.6719" fill="#252327"/><path d="M345.35,345.3219 L347.45,345.3219 L347.45,347.2719 L345.35,347.2719" fill="#252327"/><path d="M345.35,348.9219 L347.45,348.9219 L347.45,350.8719 L345.35,350.8719" fill="#252327"/><text fill="#000000" font-family="sans-serif" font-size="12" lengthAdjust="spacing" textLength="114.1641" x="356.0645" y="355.4668">Frontmatter Parser</text></g><!--entity APP_lmO0mp--><g class="entity" data-entity="APP_lmO0mp" data-source-line="18" data-uid="ent0011" id="entity_APP_lmO0mp"><rect fill="#CCF2FF" height="44" rx="2" ry="2" style="stroke:#0078A0;stroke-width:0.5;" width="161.3691" x="96.75" y="324.2969"/><path d="M112.75,340.5969 L123.85,340.5969 L123.85,351.9969 L112.75,351.9969" fill="#252327"/><path d="M110.2,341.7219 L112.75,341.7219 L112.75,343.6719 L110.2,343.6719" fill="#252327"/><path d="M110.2,345.3219 L112.75,345.3219 L112.75,347.2719 L110.2,347.2719" fill="#252327"/><path d="M110.2,348.9219 L112.75,348.9219 L112.75,350.8719 L110.2,350.8719" fill="#252327"/><path d="M123.85,341.7219 L125.95,341.7219 L125.95,343.6719 L123.85,343.6719" fill="#252327"/><path d="M123.85,345.3219 L125.95,345.3219 L125.95,347.2719 L123.85,347.2719" fill="#252327"/><path d="M123.85,348.9219 L125.95,348.9219 L125.95,350.8719 L123.85,350.8719" fill="#252327"/><text fill="#000000" font-family="sans-serif" font-size="12" lengthAdjust="spacing" textLength="113.5547" x="134.5645" y="355.4668">GUI Authoring Tool</text></g><!--entity APP_kRZYOA--><g class="entity" data-entity="APP_kRZYOA" data-source-line="19" data-uid="ent0012" id="entity_APP_kRZYOA"><rect fill="#CCF2FF" height="44" rx="2" ry="2" style="stroke:#0078A0;stroke-width:0.5;" width="156.793" x="540.75" y="324.2969"/><path d="M556.75,340.5969 L567.85,340.5969 L567.85,351.9969 L556.75,351.9969" fill="#252327"/><path d="M554.2,341.7219 L556.75,341.7219 L556.75,343.6719 L554.2,343.6719" fill="#252327"/><path d="M554.2,345.3219 L556.75,345.3219 L556.75,347.2719 L554.2,347.2719" fill="#252327"/><path d="M554.2,348.9219 L556.75,348.9219 L556.75,350.8719 L554.2,350.8719" fill="#252327"/><path d="M567.85,341.7219 L569.95,341.7219 L569.95,343.6719 L567.85,343.6719" fill="#252327"/><path d="M567.85,345.3219 L569.95,345.3219 L569.95,347.2719 L567.85,347.2719" fill="#252327"/><path d="M567.85,348.9219 L569.95,348.9219 L569.95,350.8719 L567.85,350.8719" fill="#252327"/><text fill="#000000" font-family="sans-serif" font-size="12" lengthAdjust="spacing" textLength="108.9785" x="578.5645" y="355.4668">MCP Model Server</text></g><!--entity APP_ca3vm7--><g class="entity" data-entity="APP_ca3vm7" data-source-line="20" data-uid="ent0013" id="entity_APP_ca3vm7"><rect fill="#CCF2FF" height="44" rx="2" ry="2" style="stroke:#0078A0;stroke-width:0.5;" width="131.3926" x="288.75" y="448.2969"/><path d="M304.75,464.5969 L315.85,464.5969 L315.85,475.9969 L304.75,475.9969" fill="#252327"/><path d="M302.2,465.7219 L304.75,465.7219 L304.75,467.6719 L302.2,467.6719" fill="#252327"/><path d="M302.2,469.3219 L304.75,469.3219 L304.75,471.2719 L302.2,471.2719" fill="#252327"/><path d="M302.2,472.9219 L304.75,472.9219 L304.75,474.8719 L302.2,474.8719" fill="#252327"/><path d="M315.85,465.7219 L317.95,465.7219 L317.95,467.6719 L315.85,467.6719" fill="#252327"/><path d="M315.85,469.3219 L317.95,469.3219 L317.95,471.2719 L315.85,471.2719" fill="#252327"/><path d="M315.85,472.9219 L317.95,472.9219 L317.95,474.8719 L315.85,474.8719" fill="#252327"/><text fill="#000000" font-family="sans-serif" font-size="12" lengthAdjust="spacing" textLength="83.5781" x="326.5645" y="479.4668">Model Verifier</text></g><!--entity APP_tIMxjr--><g class="entity" data-entity="APP_tIMxjr" data-source-line="21" data-uid="ent0014" id="entity_APP_tIMxjr"><rect fill="#CCF2FF" height="44" rx="2" ry="2" style="stroke:#0078A0;stroke-width:0.5;" width="154.2852" x="676.25" y="448.2969"/><path d="M692.25,464.5969 L703.35,464.5969 L703.35,475.9969 L692.25,475.9969" fill="#252327"/><path d="M689.7,465.7219 L692.25,465.7219 L692.25,467.6719 L689.7,467.6719" fill="#252327"/><path d="M689.7,469.3219 L692.25,469.3219 L692.25,471.2719 L689.7,471.2719" fill="#252327"/><path d="M689.7,472.9219 L692.25,472.9219 L692.25,474.8719 L689.7,474.8719" fill="#252327"/><path d="M703.35,465.7219 L705.45,465.7219 L705.45,467.6719 L703.35,467.6719" fill="#252327"/><path d="M703.35,469.3219 L705.45,469.3219 L705.45,471.2719 L703.35,471.2719" fill="#252327"/><path d="M703.35,472.9219 L705.45,472.9219 L705.45,474.8719 L703.35,474.8719" fill="#252327"/><text fill="#000000" font-family="sans-serif" font-size="12" lengthAdjust="spacing" textLength="106.4707" x="714.0645" y="479.4668">Promotion Engine</text></g><!--entity APP_v9LvfK--><g class="entity" data-entity="APP_v9LvfK" data-source-line="22" data-uid="ent0015" id="entity_APP_v9LvfK"><rect fill="#CCF2FF" height="44" rx="2" ry="2" style="stroke:#0078A0;stroke-width:0.5;" width="129.2246" x="99.75" y="448.2969"/><path d="M115.75,464.5969 L126.85,464.5969 L126.85,475.9969 L115.75,475.9969" fill="#252327"/><path d="M113.2,465.7219 L115.75,465.7219 L115.75,467.6719 L113.2,467.6719" fill="#252327"/><path d="M113.2,469.3219 L115.75,469.3219 L115.75,471.2719 L113.2,471.2719" fill="#252327"/><path d="M113.2,472.9219 L115.75,472.9219 L115.75,474.8719 L113.2,474.8719" fill="#252327"/><path d="M126.85,465.7219 L128.95,465.7219 L128.95,467.6719 L126.85,467.6719" fill="#252327"/><path d="M126.85,469.3219 L128.95,469.3219 L128.95,471.2719 L126.85,471.2719" fill="#252327"/><path d="M126.85,472.9219 L128.95,472.9219 L128.95,474.8719 L126.85,474.8719" fill="#252327"/><text fill="#000000" font-family="sans-serif" font-size="12" lengthAdjust="spacing" textLength="81.4102" x="137.5645" y="479.4668">Query Engine</text></g><!--entity APP_JOmFWy--><g class="entity" data-entity="APP_JOmFWy" data-source-line="23" data-uid="ent0016" id="entity_APP_JOmFWy"><rect fill="#CCF2FF" height="44" rx="2" ry="2" style="stroke:#0078A0;stroke-width:0.5;" width="136.3613" x="480.25" y="448.2969"/><path d="M496.25,464.5969 L507.35,464.5969 L507.35,475.9969 L496.25,475.9969" fill="#252327"/><path d="M493.7,465.7219 L496.25,465.7219 L496.25,467.6719 L493.7,467.6719" fill="#252327"/><path d="M493.7,469.3219 L496.25,469.3219 L496.25,471.2719 L493.7,471.2719" fill="#252327"/><path d="M493.7,472.9219 L496.25,472.9219 L496.25,474.8719 L493.7,474.8719" fill="#252327"/><path d="M507.35,465.7219 L509.45,465.7219 L509.45,467.6719 L507.35,467.6719" fill="#252327"/><path d="M507.35,469.3219 L509.45,469.3219 L509.45,471.2719 L507.35,471.2719" fill="#252327"/><path d="M507.35,472.9219 L509.45,472.9219 L509.45,474.8719 L507.35,474.8719" fill="#252327"/><text fill="#000000" font-family="sans-serif" font-size="12" lengthAdjust="spacing" textLength="88.5469" x="518.0645" y="479.4668">SQLite Indexer</text></g><!--entity APP_w51oVF--><g class="entity" data-entity="APP_w51oVF" data-source-line="24" data-uid="ent0017" id="entity_APP_w51oVF"><rect fill="#CCF2FF" height="44" rx="2" ry="2" style="stroke:#0078A0;stroke-width:0.5;" width="173.0762" x="890.75" y="448.2969"/><path d="M906.75,464.5969 L917.85,464.5969 L917.85,475.9969 L906.75,475.9969" fill="#252327"/><path d="M904.2,465.7219 L906.75,465.7219 L906.75,467.6719 L904.2,467.6719" fill="#252327"/><path d="M904.2,469.3219 L906.75,469.3219 L906.75,471.2719 L904.2,471.2719" fill="#252327"/><path d="M904.2,472.9219 L906.75,472.9219 L906.75,474.8719 L904.2,474.8719" fill="#252327"/><path d="M917.85,465.7219 L919.95,465.7219 L919.95,467.6719 L917.85,467.6719" fill="#252327"/><path d="M917.85,469.3219 L919.95,469.3219 L919.95,471.2719 L917.85,471.2719" fill="#252327"/><path d="M917.85,472.9219 L919.95,472.9219 L919.95,474.8719 L917.85,474.8719" fill="#252327"/><text fill="#000000" font-family="sans-serif" font-size="12" lengthAdjust="spacing" textLength="125.2617" x="928.5645" y="479.4668">Workspace Initializer</text></g><!--entity DOB_3rilik--><g class="entity" data-entity="DOB_3rilik" data-source-line="28" data-uid="ent0019" id="entity_DOB_3rilik"><rect fill="#CCF2FF" height="44" rx="2" ry="2" style="stroke:#0078A0;stroke-width:0.5;" width="124.0449" x="692.25" y="572.2969"/><path d="M706.75,587.9969 L721.75,587.9969 L721.75,589.9469 L706.75,589.9469" fill="#252327"/><path d="M706.75,598.6469 L721.75,598.6469 L721.75,600.5969 L706.75,600.5969" fill="#252327"/><path d="M706.75,589.9469 L706.75,598.6469 L708.7,598.6469 L708.7,589.9469" fill="#252327"/><path d="M719.8,589.9469 L719.8,598.6469 L721.75,598.6469 L721.75,589.9469" fill="#252327"/><path d="M706.75,589.7219 L721.75,589.7219 L721.75,591.6719 L706.75,591.6719" fill="#252327"/><text fill="#000000" font-family="sans-serif" font-size="12" lengthAdjust="spacing" textLength="76.2305" x="730.0645" y="603.4668">SQLite Index</text></g><!--entity DOB_I9qEoI--><g class="entity" data-entity="DOB_I9qEoI" data-source-line="29" data-uid="ent0020" id="entity_DOB_I9qEoI"><rect fill="#CCF2FF" height="44" rx="2" ry="2" style="stroke:#0078A0;stroke-width:0.5;" width="199.3027" x="876.75" y="572.2969"/><path d="M891.25,587.9969 L906.25,587.9969 L906.25,589.9469 L891.25,589.9469" fill="#252327"/><path d="M891.25,598.6469 L906.25,598.6469 L906.25,600.5969 L891.25,600.5969" fill="#252327"/><path d="M891.25,589.9469 L891.25,598.6469 L893.2,598.6469 L893.2,589.9469" fill="#252327"/><path d="M904.3,589.9469 L904.3,598.6469 L906.25,598.6469 L906.25,589.9469" fill="#252327"/><path d="M891.25,589.7219 L906.25,589.7219 L906.25,591.6719 L891.25,591.6719" fill="#252327"/><text fill="#000000" font-family="sans-serif" font-size="12" lengthAdjust="spacing" textLength="151.4883" x="914.5645" y="603.4668">Workspace Configuration</text></g><!--link AIF_KxvYB to AIF_wuleEe--><!--link AIF_wuleEe to AIF_XjbNQh--><!--link AIF_XjbNQh to AIF_Ua50xU--><!--link AIF_Ua50xU to AIF_XjbNQh--><g class="link" data-entity-1="AIF_Ua50xU" data-entity-2="AIF_XjbNQh" data-source-line="60" data-uid="lnk47" id="link_AIF_Ua50xU_AIF_XjbNQh"><path d="M209.25,200.1269 C209.25,177.6969 209.25,143.2069 209.25,120.6869" fill="none" id="AIF_Ua50xU-AIF_XjbNQh" style="stroke:#181818;stroke-width:1;"/></g><!--link APP_kjC6ex to APP_SCKD2U--><!--link APP_SCKD2U to APP_YOOEbL--><!--link APP_YOOEbL to APP_lmO0mp--><!--link APP_lmO0mp to APP_kRZYOA--><!--link APP_kRZYOA to APP_ca3vm7--><!--link APP_ca3vm7 to APP_tIMxjr--><!--link APP_tIMxjr to APP_v9LvfK--><!--link APP_v9LvfK to APP_JOmFWy--><!--link APP_JOmFWy to APP_w51oVF--><!--link DOB_3rilik to DOB_I9qEoI--><!--link APP_kjC6ex to DOB_I9qEoI--><g class="link" data-entity-1="APP_kjC6ex" data-entity-2="DOB_I9qEoI" data-source-line="49" data-uid="lnk34" id="link_APP_kjC6ex_DOB_I9qEoI"><path d="M854.53,354.2969 C871.34,354.2969 886.08,354.2969 886.08,354.2969 C886.08,354.2969 886.08,506.7369 886.08,566.1469" fill="none" id="APP_kjC6ex-to-DOB_I9qEoI" style="stroke:#181818;stroke-width:1;"/><polygon fill="#181818" points="886.08,572.1469,890.08,563.1469,886.08,567.1469,882.08,563.1469,886.08,572.1469" style="stroke:#181818;stroke-width:1;"/><text fill="#000000" font-family="sans-serif" font-size="12" lengthAdjust="spacing" textLength="120.4043" x="765.08" y="444.5855">&#171;archimate-access&#187;</text></g><!--link APP_ca3vm7 to APP_YOOEbL--><g class="link" data-entity-1="APP_ca3vm7" data-entity-2="APP_YOOEbL" data-source-line="50" data-uid="lnk35" id="link_APP_ca3vm7_APP_YOOEbL"><path d="M343.62,448.1269 C343.62,425.6969 343.62,397.2069 343.62,374.6869" fill="none" id="APP_ca3vm7-to-APP_YOOEbL" style="stroke:#181818;stroke-width:1;"/><polygon fill="#181818" points="343.62,368.6869,339.62,377.6869,343.62,373.6869,347.62,377.6869,343.62,368.6869" style="stroke:#181818;stroke-width:1;"/><text fill="#000000" font-family="sans-serif" font-size="12" lengthAdjust="spacing" textLength="124.1953" x="218.62" y="405.5455">&#171;archimate-serving&#187;</text></g><!--link APP_ca3vm7 to APP_lmO0mp--><g class="link" data-entity-1="APP_ca3vm7" data-entity-2="APP_lmO0mp" data-source-line="51" data-uid="lnk36" id="link_APP_ca3vm7_APP_lmO0mp"><path d="M303.5,448.2069 C303.5,414.5469 303.5,354.2969 303.5,354.2969 C303.5,354.2969 288.66,354.2969 263.92,354.2969" fill="none" id="APP_ca3vm7-to-APP_lmO0mp" style="stroke:#181818;stroke-width:1;"/><polygon fill="#181818" points="257.92,354.2969,266.92,358.2969,262.92,354.2969,266.92,350.2969,257.92,354.2969" style="stroke:#181818;stroke-width:1;"/><text fill="#000000" font-family="sans-serif" font-size="12" lengthAdjust="spacing" textLength="124.1953" x="178.5" y="390.5955">&#171;archimate-serving&#187;</text></g><!--link APP_v9LvfK to APP_lmO0mp--><g class="link" data-entity-1="APP_v9LvfK" data-entity-2="APP_lmO0mp" data-source-line="52" data-uid="lnk37" id="link_APP_v9LvfK_APP_lmO0mp"><path d="M132,448.1269 C132,425.6969 132,397.2069 132,374.6869" fill="none" id="APP_v9LvfK-to-APP_lmO0mp" style="stroke:#181818;stroke-width:1;"/><polygon fill="#181818" points="132,368.6869,128,377.6869,132,373.6869,136,377.6869,132,368.6869" style="stroke:#181818;stroke-width:1;"/><text fill="#000000" font-family="sans-serif" font-size="12" lengthAdjust="spacing" textLength="124.1953" x="7" y="405.5455">&#171;archimate-serving&#187;</text></g><!--reverse link AIF_Ua50xU to APP_lmO0mp--><g class="link" data-entity-1="AIF_Ua50xU" data-entity-2="APP_lmO0mp" data-source-line="53" data-uid="lnk39" id="link_AIF_Ua50xU_APP_lmO0mp"><path d="M200.5,250.4669 C200.5,272.8969 200.5,301.3869 200.5,323.9069" fill="none" id="AIF_Ua50xU-backto-APP_lmO0mp" style="stroke:#181818;stroke-width:1;"/><polygon fill="#181818" points="200.5,244.4669,196.5,253.4669,200.5,249.4669,204.5,253.4669,200.5,244.4669" style="stroke:#181818;stroke-width:1;"/><text fill="#000000" font-family="sans-serif" font-size="12" lengthAdjust="spacing" textLength="124.1953" x="75.5" y="281.3255">&#171;archimate-serving&#187;</text></g><!--reverse link AIF_wuleEe to APP_kRZYOA--><g class="link" data-entity-1="AIF_wuleEe" data-entity-2="APP_kRZYOA" data-source-line="54" data-uid="lnk41" id="link_AIF_wuleEe_APP_kRZYOA"><path d="M596.75,126.3069 C596.75,173.2469 596.75,276.7669 596.75,323.9769" fill="none" id="AIF_wuleEe-backto-APP_kRZYOA" style="stroke:#181818;stroke-width:1;"/><polygon fill="#181818" points="596.75,120.3069,592.75,129.3069,596.75,125.3069,600.75,129.3069,596.75,120.3069" style="stroke:#181818;stroke-width:1;"/><text fill="#000000" font-family="sans-serif" font-size="12" lengthAdjust="spacing" textLength="124.1953" x="471.75" y="219.2855">&#171;archimate-serving&#187;</text></g><!--link APP_kRZYOA to DOB_I9qEoI--><g class="link" data-entity-1="APP_kRZYOA" data-entity-2="DOB_I9qEoI" data-source-line="55" data-uid="lnk42" id="link_APP_kRZYOA_DOB_I9qEoI"><path d="M692.38,368.7769 C692.38,378.7569 692.38,388.2969 692.38,388.2969 C692.38,388.2969 881.42,388.2969 881.42,388.2969 C881.42,388.2969 881.42,513.1069 881.42,566.2469" fill="none" id="APP_kRZYOA-to-DOB_I9qEoI" style="stroke:#181818;stroke-width:1;"/><polygon fill="#181818" points="881.42,572.2469,885.42,563.2469,881.42,567.2469,877.42,563.2469,881.42,572.2469" style="stroke:#181818;stroke-width:1;"/><text fill="#000000" font-family="sans-serif" font-size="12" lengthAdjust="spacing" textLength="120.4043" x="748.11" y="385.4355">&#171;archimate-access&#187;</text></g><!--link APP_tIMxjr to DOB_3rilik--><g class="link" data-entity-1="APP_tIMxjr" data-entity-2="DOB_3rilik" data-source-line="56" data-uid="lnk43" id="link_APP_tIMxjr_DOB_3rilik"><path d="M754.25,492.4669 C754.25,514.8969 754.25,543.3869 754.25,565.9069" fill="none" id="APP_tIMxjr-to-DOB_3rilik" style="stroke:#181818;stroke-width:1;"/><polygon fill="#181818" points="754.25,571.9069,758.25,562.9069,754.25,566.9069,750.25,562.9069,754.25,571.9069" style="stroke:#181818;stroke-width:1;"/><text fill="#000000" font-family="sans-serif" font-size="12" lengthAdjust="spacing" textLength="120.4043" x="633.25" y="529.3255">&#171;archimate-access&#187;</text></g><!--link APP_v9LvfK to DOB_3rilik--><g class="link" data-entity-1="APP_v9LvfK" data-entity-2="DOB_3rilik" data-source-line="57" data-uid="lnk44" id="link_APP_v9LvfK_DOB_3rilik"><path d="M164.25,492.3869 C164.25,529.9669 164.25,602.2969 164.25,602.2969 C164.25,602.2969 534.74,602.2969 686.22,602.2969" fill="none" id="APP_v9LvfK-to-DOB_3rilik" style="stroke:#181818;stroke-width:1;"/><polygon fill="#181818" points="692.22,602.2969,683.22,598.2969,687.22,602.2969,683.22,606.2969,692.22,602.2969" style="stroke:#181818;stroke-width:1;"/><text fill="#000000" font-family="sans-serif" font-size="12" lengthAdjust="spacing" textLength="120.4043" x="252.28" y="599.4355">&#171;archimate-access&#187;</text></g><!--link APP_JOmFWy to DOB_3rilik--><g class="link" data-entity-1="APP_JOmFWy" data-entity-2="DOB_3rilik" data-source-line="58" data-uid="lnk45" id="link_APP_JOmFWy_DOB_3rilik"><path d="M548.25,492.3069 C548.25,526.1969 548.25,587.2969 548.25,587.2969 C548.25,587.2969 625.51,587.2969 686.16,587.2969" fill="none" id="APP_JOmFWy-to-DOB_3rilik" style="stroke:#181818;stroke-width:1;"/><polygon fill="#181818" points="692.16,587.2969,683.16,583.2969,687.16,587.2969,683.16,591.2969,692.16,587.2969" style="stroke:#181818;stroke-width:1;"/><text fill="#000000" font-family="sans-serif" font-size="12" lengthAdjust="spacing" textLength="120.4043" x="451.71" y="584.4355">&#171;archimate-access&#187;</text></g><!--link APP_w51oVF to DOB_I9qEoI--><g class="link" data-entity-1="APP_w51oVF" data-entity-2="DOB_I9qEoI" data-source-line="59" data-uid="lnk46" id="link_APP_w51oVF_DOB_I9qEoI"><path d="M977.25,492.4669 C977.25,514.8969 977.25,543.3869 977.25,565.9069" fill="none" id="APP_w51oVF-to-DOB_I9qEoI" style="stroke:#181818;stroke-width:1;"/><polygon fill="#181818" points="977.25,571.9069,981.25,562.9069,977.25,566.9069,973.25,562.9069,977.25,571.9069" style="stroke:#181818;stroke-width:1;"/><text fill="#000000" font-family="sans-serif" font-size="12" lengthAdjust="spacing" textLength="120.4043" x="856.25" y="529.3255">&#171;archimate-access&#187;</text></g><!--SRC=[fLPRJzim67tFh_3Gf3sbWo4sWLYbqWlAQ9T2AOnDK-KcRkhMiJF7wMM8_pwdk74A0PBvxLDoZe_zNOxz3bEF93u2jTh74UJU58TG83iMY2CcrX6AQr4I4iiIB0A2WJ4JWeN0nnnv0ZCgVs1146X44S4UJ3-19WiZHX4Le0SZoqgHa0OIjETGkUu4UYZU0wUdESuvPqc4QL2lWtiBW1pbz7ssgr6EaArq7tkGeAy7jQE7EcXs7P3zUIAHVPSQC0ODfpEwM2tkpWpaUir-5RbbGb0R6UXTjGVNLGH_pCRVBwS6WhTeN4Ll28_sLqFhOQVcMJSOrpnRwLdDhnaZJrRFm6fx_VveFcj-HYi3gHQ60OSX67XmCc74H_njqK7pelLfQ23QuOmA2PNP1dt8upAYTwxR7dSDHC-73cWaOiguB539z9BGtGyZ0z5qd7hCHmGC45-KEUVywkUTsp2HtCZT88udk8oW1myNuHS3mJvd8TkuP9i6cAAt9ONJMysuWUHbWlYwjDpYkBkON1Z83IwxM21f6pvQbKdfDpVitAuD16yPdyUHD2AfYGM61FyjexiyEc0tdITcrO82_fTDfKHtF9C_Nqn6kgw6FMwavPwD3ZacU5vvQNti9gCJ72HyizsNL9pZFstcfCVz06pRJgURsGIkMI9EG1nn17s020fJemPBBAQOWa0TFKuPLdPZ0llN5Fi-ehyv3gR2pbzkEYn4gHj9XuKeTOzeptwEqiwgmqAKia8T5gAKT-cm4ANiHeU5AEKHEYn4gR7MOI5AJQCE2r5gX7HOY58Dhrlk6IhN9scRoBwYZw-yUASMFbjIkvv3WnFPTFhn23tvm8lhzPqKI4Ak1hi4UQSjDXDMn53rU8snJKrvnhR8IPHoifPxbRCjUSPHVLw6Kobbstx8aLJ1NY5jSr29jEsMIgJ7Fgfo9frVUyS6_W40]--></g></svg>