<svg xmlns="http://www.w3.org/2000/svg" xmlns:xlink="http://www.w3.org/1999/xlink" contentStyleType="text/css" data-diagram-type="DESCRIPTION" height="876px" preserveAspectRatio="none" style="width:742px;height:876px;background:#FAFAFA;" version="1.1" viewBox="0 0 742 876" width="742px" zoomAndPan="magnify"><title>Application Domain &#8212; Components, Interfaces &amp; Data Objects</title><defs/><g><rect fill="#FAFAFA" height="876" style="stroke:none;stroke-width:1;" width="742" x="0" y="0"/><text fill="#000000" font-family="sans-serif" font-size="14" font-weight="bold" lengthAdjust="spacing" textLength="490.2393" x="118.8804" y="22.9951">Application Domain &#8212; Components, Interfaces &amp; Data Objects</text><!--cluster Interfaces--><g class="cluster" data-entity="Interfaces" data-source-line="8" data-uid="ent0002" id="cluster_Interfaces"><rect fill="#E8F8FF" height="314" rx="2" ry="2" style="stroke:#0078A0;stroke-width:1;" width="168" x="7" y="62.2969"/><text fill="#000000" font-family="sans-serif" font-size="12" font-weight="bold" lengthAdjust="spacing" textLength="68.5137" x="56.7432" y="75.4355">Interfaces</text></g><!--cluster Application Components--><g class="cluster" data-entity="Application Components" data-source-line="14" data-uid="ent0006" id="cluster_Application Components"><rect fill="#E8F8FF" height="342" rx="2" ry="2" style="stroke:#0078A0;stroke-width:1;" width="513" x="223" y="44.2969"/><text fill="#000000" font-family="sans-serif" font-size="12" font-weight="bold" lengthAdjust="spacing" textLength="165.2109" x="396.8945" y="57.4355">Application Components</text></g><!--cluster Data Objects--><g class="cluster" data-entity="Data Objects" data-source-line="25" data-uid="ent0015" id="cluster_Data Objects"><rect fill="#E8F8FF" height="460" rx="2" ry="2" style="stroke:#0078A0;stroke-width:1;" width="148" x="586" y="410.2969"/><text fill="#000000" font-family="sans-serif" font-size="12" font-weight="bold" lengthAdjust="spacing" textLength="87.1055" x="616.4473" y="423.4355">Data Objects</text></g><!--entity AIF_wuleEe--><g class="entity" data-entity="AIF_wuleEe" data-source-line="9" data-uid="ent0003" id="entity_AIF_wuleEe"><rect fill="#CCF2FF" height="44" rx="2" ry="2" style="stroke:#0078A0;stroke-width:0.5;" width="131.3223" x="25.5" y="94.2969"/><path d="M39.7,115.3219 L45.1,115.3219 L45.1,117.2719 L39.7,117.2719" fill="#252327"/><ellipse cx="49.9" cy="116.2969" fill="none" rx="5.1" ry="5.1" style="stroke:#252327;stroke-width:1.95;"/><text fill="#000000" font-family="sans-serif" font-size="12" lengthAdjust="spacing" textLength="83.5078" x="63.3145" y="125.4668">MCP Interface</text></g><!--entity AIF_KxvYB--><g class="entity" data-entity="AIF_KxvYB" data-source-line="10" data-uid="ent0004" id="entity_AIF_KxvYB"><rect fill="#CCF2FF" height="44" rx="2" ry="2" style="stroke:#0078A0;stroke-width:0.5;" width="123.957" x="29" y="198.2969"/><path d="M43.2,219.3219 L48.6,219.3219 L48.6,221.2719 L43.2,221.2719" fill="#252327"/><ellipse cx="53.4" cy="220.2969" fill="none" rx="5.1" ry="5.1" style="stroke:#252327;stroke-width:1.95;"/><text fill="#000000" font-family="sans-serif" font-size="12" lengthAdjust="spacing" textLength="76.1426" x="66.8145" y="229.4668">CLI Interface</text></g><!--entity AIF_XjbNQh--><g class="entity" data-entity="AIF_XjbNQh" data-source-line="11" data-uid="ent0005" id="entity_AIF_XjbNQh"><rect fill="#CCF2FF" height="57.9688" rx="2" ry="2" style="stroke:#0078A0;stroke-width:0.5;" width="136.2207" x="23" y="302.2969"/><path d="M37.2,323.3219 L42.6,323.3219 L42.6,325.2719 L37.2,325.2719" fill="#252327"/><ellipse cx="47.4" cy="324.2969" fill="none" rx="5.1" ry="5.1" style="stroke:#252327;stroke-width:1.95;"/><text fill="#000000" font-family="sans-serif" font-size="12" lengthAdjust="spacing" textLength="88.4063" x="60.8145" y="333.4668">REST Interface</text><text fill="#000000" font-family="sans-serif" font-size="12" lengthAdjust="spacing" textLength="45.8203" x="33" y="347.4355">(future)</text></g><!--entity APP_kRZYOA--><g class="entity" data-entity="APP_kRZYOA" data-source-line="15" data-uid="ent0007" id="entity_APP_kRZYOA"><rect fill="#CCF2FF" height="57.9688" rx="2" ry="2" style="stroke:#0078A0;stroke-width:0.5;" width="113.627" x="239" y="83.2969"/><path d="M255,99.5969 L266.1,99.5969 L266.1,110.9969 L255,110.9969" fill="#252327"/><path d="M252.45,100.7219 L255,100.7219 L255,102.6719 L252.45,102.6719" fill="#252327"/><path d="M252.45,104.3219 L255,104.3219 L255,106.2719 L252.45,106.2719" fill="#252327"/><path d="M252.45,107.9219 L255,107.9219 L255,109.8719 L252.45,109.8719" fill="#252327"/><path d="M266.1,100.7219 L268.2,100.7219 L268.2,102.6719 L266.1,102.6719" fill="#252327"/><path d="M266.1,104.3219 L268.2,104.3219 L268.2,106.2719 L266.1,106.2719" fill="#252327"/><path d="M266.1,107.9219 L268.2,107.9219 L268.2,109.8719 L266.1,109.8719" fill="#252327"/><text fill="#000000" font-family="sans-serif" font-size="12" lengthAdjust="spacing" textLength="65.8125" x="276.8145" y="114.4668">MCP Model</text><text fill="#000000" font-family="sans-serif" font-size="12" lengthAdjust="spacing" textLength="39.3516" x="249" y="128.4355">Server</text></g><!--entity APP_kjC6ex--><g class="entity" data-entity="APP_kjC6ex" data-source-line="16" data-uid="ent0008" id="entity_APP_kjC6ex"><rect fill="#CCF2FF" height="44" rx="2" ry="2" style="stroke:#0078A0;stroke-width:0.5;" width="95.5801" x="248" y="201.2969"/><path d="M264,217.5969 L275.1,217.5969 L275.1,228.9969 L264,228.9969" fill="#252327"/><path d="M261.45,218.7219 L264,218.7219 L264,220.6719 L261.45,220.6719" fill="#252327"/><path d="M261.45,222.3219 L264,222.3219 L264,224.2719 L261.45,224.2719" fill="#252327"/><path d="M261.45,225.9219 L264,225.9219 L264,227.8719 L261.45,227.8719" fill="#252327"/><path d="M275.1,218.7219 L277.2,218.7219 L277.2,220.6719 L275.1,220.6719" fill="#252327"/><path d="M275.1,222.3219 L277.2,222.3219 L277.2,224.2719 L275.1,224.2719" fill="#252327"/><path d="M275.1,225.9219 L277.2,225.9219 L277.2,227.8719 L275.1,227.8719" fill="#252327"/><text fill="#000000" font-family="sans-serif" font-size="12" lengthAdjust="spacing" textLength="47.7656" x="285.8145" y="232.4668">CLI Tool</text></g><!--entity APP_ca3vm7--><g class="entity" data-entity="APP_ca3vm7" data-source-line="17" data-uid="ent0009" id="entity_APP_ca3vm7"><rect fill="#CCF2FF" height="57.9688" rx="2" ry="2" style="stroke:#0078A0;stroke-width:0.5;" width="83.8438" x="434.5" y="76.2969"/><path d="M450.5,92.5969 L461.6,92.5969 L461.6,103.9969 L450.5,103.9969" fill="#252327"/><path d="M447.95,93.7219 L450.5,93.7219 L450.5,95.6719 L447.95,95.6719" fill="#252327"/><path d="M447.95,97.3219 L450.5,97.3219 L450.5,99.2719 L447.95,99.2719" fill="#252327"/><path d="M447.95,100.9219 L450.5,100.9219 L450.5,102.8719 L447.95,102.8719" fill="#252327"/><path d="M461.6,93.7219 L463.7,93.7219 L463.7,95.6719 L461.6,95.6719" fill="#252327"/><path d="M461.6,97.3219 L463.7,97.3219 L463.7,99.2719 L461.6,99.2719" fill="#252327"/><path d="M461.6,100.9219 L463.7,100.9219 L463.7,102.8719 L461.6,102.8719" fill="#252327"/><text fill="#000000" font-family="sans-serif" font-size="12" lengthAdjust="spacing" textLength="36.0293" x="472.3145" y="107.4668">Model</text><text fill="#000000" font-family="sans-serif" font-size="12" lengthAdjust="spacing" textLength="43.7344" x="444.5" y="121.4355">Verifier</text></g><!--entity APP_yNhgdh--><g class="entity" data-entity="APP_yNhgdh" data-source-line="18" data-uid="ent0010" id="entity_APP_yNhgdh"><rect fill="#CCF2FF" height="57.9688" rx="2" ry="2" style="stroke:#0078A0;stroke-width:0.5;" width="83.8438" x="618" y="76.2969"/><path d="M634,92.5969 L645.1,92.5969 L645.1,103.9969 L634,103.9969" fill="#252327"/><path d="M631.45,93.7219 L634,93.7219 L634,95.6719 L631.45,95.6719" fill="#252327"/><path d="M631.45,97.3219 L634,97.3219 L634,99.2719 L631.45,99.2719" fill="#252327"/><path d="M631.45,100.9219 L634,100.9219 L634,102.8719 L631.45,102.8719" fill="#252327"/><path d="M645.1,93.7219 L647.2,93.7219 L647.2,95.6719 L645.1,95.6719" fill="#252327"/><path d="M645.1,97.3219 L647.2,97.3219 L647.2,99.2719 L645.1,99.2719" fill="#252327"/><path d="M645.1,100.9219 L647.2,100.9219 L647.2,102.8719 L645.1,102.8719" fill="#252327"/><text fill="#000000" font-family="sans-serif" font-size="12" lengthAdjust="spacing" textLength="36.0293" x="655.8145" y="107.4668">Model</text><text fill="#000000" font-family="sans-serif" font-size="12" lengthAdjust="spacing" textLength="49.6641" x="628" y="121.4355">Registry</text></g><!--entity APP_YOOEbL--><g class="entity" data-entity="APP_YOOEbL" data-source-line="19" data-uid="ent0011" id="entity_APP_YOOEbL"><rect fill="#CCF2FF" height="57.9688" rx="2" ry="2" style="stroke:#0078A0;stroke-width:0.5;" width="120.0723" x="600" y="194.2969"/><path d="M616,210.5969 L627.1,210.5969 L627.1,221.9969 L616,221.9969" fill="#252327"/><path d="M613.45,211.7219 L616,211.7219 L616,213.6719 L613.45,213.6719" fill="#252327"/><path d="M613.45,215.3219 L616,215.3219 L616,217.2719 L613.45,217.2719" fill="#252327"/><path d="M613.45,218.9219 L616,218.9219 L616,220.8719 L613.45,220.8719" fill="#252327"/><path d="M627.1,211.7219 L629.2,211.7219 L629.2,213.6719 L627.1,213.6719" fill="#252327"/><path d="M627.1,215.3219 L629.2,215.3219 L629.2,217.2719 L627.1,217.2719" fill="#252327"/><path d="M627.1,218.9219 L629.2,218.9219 L629.2,220.8719 L627.1,220.8719" fill="#252327"/><text fill="#000000" font-family="sans-serif" font-size="12" lengthAdjust="spacing" textLength="72.2578" x="637.8145" y="225.4668">Frontmatter</text><text fill="#000000" font-family="sans-serif" font-size="12" lengthAdjust="spacing" textLength="38.0918" x="610" y="239.4355">Parser</text></g><!--entity APP_JOmFWy--><g class="entity" data-entity="APP_JOmFWy" data-source-line="20" data-uid="ent0012" id="entity_APP_JOmFWy"><rect fill="#CCF2FF" height="57.9688" rx="2" ry="2" style="stroke:#0078A0;stroke-width:0.5;" width="86.9844" x="433" y="194.2969"/><path d="M449,210.5969 L460.1,210.5969 L460.1,221.9969 L449,221.9969" fill="#252327"/><path d="M446.45,211.7219 L449,211.7219 L449,213.6719 L446.45,213.6719" fill="#252327"/><path d="M446.45,215.3219 L449,215.3219 L449,217.2719 L446.45,217.2719" fill="#252327"/><path d="M446.45,218.9219 L449,218.9219 L449,220.8719 L446.45,220.8719" fill="#252327"/><path d="M460.1,211.7219 L462.2,211.7219 L462.2,213.6719 L460.1,213.6719" fill="#252327"/><path d="M460.1,215.3219 L462.2,215.3219 L462.2,217.2719 L460.1,217.2719" fill="#252327"/><path d="M460.1,218.9219 L462.2,218.9219 L462.2,220.8719 L460.1,220.8719" fill="#252327"/><text fill="#000000" font-family="sans-serif" font-size="12" lengthAdjust="spacing" textLength="39.1699" x="470.8145" y="225.4668">SQLite</text><text fill="#000000" font-family="sans-serif" font-size="12" lengthAdjust="spacing" textLength="45.5625" x="443" y="239.4355">Indexer</text></g><!--entity APP_v9LvfK--><g class="entity" data-entity="APP_v9LvfK" data-source-line="21" data-uid="ent0013" id="entity_APP_v9LvfK"><rect fill="#CCF2FF" height="57.9688" rx="2" ry="2" style="stroke:#0078A0;stroke-width:0.5;" width="84.2832" x="434.5" y="312.2969"/><path d="M450.5,328.5969 L461.6,328.5969 L461.6,339.9969 L450.5,339.9969" fill="#252327"/><path d="M447.95,329.7219 L450.5,329.7219 L450.5,331.6719 L447.95,331.6719" fill="#252327"/><path d="M447.95,333.3219 L450.5,333.3219 L450.5,335.2719 L447.95,335.2719" fill="#252327"/><path d="M447.95,336.9219 L450.5,336.9219 L450.5,338.8719 L447.95,338.8719" fill="#252327"/><path d="M461.6,329.7219 L463.7,329.7219 L463.7,331.6719 L461.6,331.6719" fill="#252327"/><path d="M461.6,333.3219 L463.7,333.3219 L463.7,335.2719 L461.6,335.2719" fill="#252327"/><path d="M461.6,336.9219 L463.7,336.9219 L463.7,338.8719 L461.6,338.8719" fill="#252327"/><text fill="#000000" font-family="sans-serif" font-size="12" lengthAdjust="spacing" textLength="36.4688" x="472.3145" y="343.4668">Query</text><text fill="#000000" font-family="sans-serif" font-size="12" lengthAdjust="spacing" textLength="41.127" x="444.5" y="357.4355">Engine</text></g><!--entity APP_rgulJL--><g class="entity" data-entity="APP_rgulJL" data-source-line="22" data-uid="ent0014" id="entity_APP_rgulJL"><rect fill="#CCF2FF" height="57.9688" rx="2" ry="2" style="stroke:#0078A0;stroke-width:0.5;" width="84.3945" x="254" y="312.2969"/><path d="M270,328.5969 L281.1,328.5969 L281.1,339.9969 L270,339.9969" fill="#252327"/><path d="M267.45,329.7219 L270,329.7219 L270,331.6719 L267.45,331.6719" fill="#252327"/><path d="M267.45,333.3219 L270,333.3219 L270,335.2719 L267.45,335.2719" fill="#252327"/><path d="M267.45,336.9219 L270,336.9219 L270,338.8719 L267.45,338.8719" fill="#252327"/><path d="M281.1,329.7219 L283.2,329.7219 L283.2,331.6719 L281.1,331.6719" fill="#252327"/><path d="M281.1,333.3219 L283.2,333.3219 L283.2,335.2719 L281.1,335.2719" fill="#252327"/><path d="M281.1,336.9219 L283.2,336.9219 L283.2,338.8719 L281.1,338.8719" fill="#252327"/><text fill="#000000" font-family="sans-serif" font-size="12" lengthAdjust="spacing" textLength="36.5801" x="291.8145" y="343.4668">Macro</text><text fill="#000000" font-family="sans-serif" font-size="12" lengthAdjust="spacing" textLength="60.9375" x="264" y="357.4355">Generator</text></g><!--entity DOB_ij5CH7--><g class="entity" data-entity="DOB_ij5CH7" data-source-line="26" data-uid="ent0016" id="entity_DOB_ij5CH7"><rect fill="#CCF2FF" height="57.9688" rx="2" ry="2" style="stroke:#0078A0;stroke-width:0.5;" width="82.8477" x="618.5" y="442.2969"/><path d="M633,457.9969 L648,457.9969 L648,459.9469 L633,459.9469" fill="#252327"/><path d="M633,468.6469 L648,468.6469 L648,470.5969 L633,470.5969" fill="#252327"/><path d="M633,459.9469 L633,468.6469 L634.95,468.6469 L634.95,459.9469" fill="#252327"/><path d="M646.05,459.9469 L646.05,468.6469 L648,468.6469 L648,459.9469" fill="#252327"/><path d="M633,459.7219 L648,459.7219 L648,461.6719 L633,461.6719" fill="#252327"/><text fill="#000000" font-family="sans-serif" font-size="12" lengthAdjust="spacing" textLength="35.0332" x="656.3145" y="473.4668">Entity</text><text fill="#000000" font-family="sans-serif" font-size="12" lengthAdjust="spacing" textLength="56.8242" x="628.5" y="487.4355">Metadata</text></g><!--entity DOB_L3VfsH--><g class="entity" data-entity="DOB_L3VfsH" data-source-line="27" data-uid="ent0017" id="entity_DOB_L3VfsH"><rect fill="#CCF2FF" height="57.9688" rx="2" ry="2" style="stroke:#0078A0;stroke-width:0.5;" width="115.7129" x="602" y="560.2969"/><path d="M616.5,575.9969 L631.5,575.9969 L631.5,577.9469 L616.5,577.9469" fill="#252327"/><path d="M616.5,586.6469 L631.5,586.6469 L631.5,588.5969 L616.5,588.5969" fill="#252327"/><path d="M616.5,577.9469 L616.5,586.6469 L618.45,586.6469 L618.45,577.9469" fill="#252327"/><path d="M629.55,577.9469 L629.55,586.6469 L631.5,586.6469 L631.5,577.9469" fill="#252327"/><path d="M616.5,577.7219 L631.5,577.7219 L631.5,579.6719 L616.5,579.6719" fill="#252327"/><text fill="#000000" font-family="sans-serif" font-size="12" lengthAdjust="spacing" textLength="67.8984" x="639.8145" y="591.4668">Connection</text><text fill="#000000" font-family="sans-serif" font-size="12" lengthAdjust="spacing" textLength="56.8242" x="612" y="605.4355">Metadata</text></g><!--entity DOB_3rilik--><g class="entity" data-entity="DOB_3rilik" data-source-line="28" data-uid="ent0018" id="entity_DOB_3rilik"><rect fill="#CCF2FF" height="57.9688" rx="2" ry="2" style="stroke:#0078A0;stroke-width:0.5;" width="86.9844" x="616.5" y="678.2969"/><path d="M631,693.9969 L646,693.9969 L646,695.9469 L631,695.9469" fill="#252327"/><path d="M631,704.6469 L646,704.6469 L646,706.5969 L631,706.5969" fill="#252327"/><path d="M631,695.9469 L631,704.6469 L632.95,704.6469 L632.95,695.9469" fill="#252327"/><path d="M644.05,695.9469 L644.05,704.6469 L646,704.6469 L646,695.9469" fill="#252327"/><path d="M631,695.7219 L646,695.7219 L646,697.6719 L631,697.6719" fill="#252327"/><text fill="#000000" font-family="sans-serif" font-size="12" lengthAdjust="spacing" textLength="39.1699" x="654.3145" y="709.4668">SQLite</text><text fill="#000000" font-family="sans-serif" font-size="12" lengthAdjust="spacing" textLength="33.2461" x="626.5" y="723.4355">Index</text></g><!--entity DOB_H8UwKV--><g class="entity" data-entity="DOB_H8UwKV" data-source-line="29" data-uid="ent0019" id="entity_DOB_H8UwKV"><rect fill="#CCF2FF" height="57.9688" rx="2" ry="2" style="stroke:#0078A0;stroke-width:0.5;" width="103.8711" x="608" y="796.2969"/><path d="M622.5,811.9969 L637.5,811.9969 L637.5,813.9469 L622.5,813.9469" fill="#252327"/><path d="M622.5,822.6469 L637.5,822.6469 L637.5,824.5969 L622.5,824.5969" fill="#252327"/><path d="M622.5,813.9469 L622.5,822.6469 L624.45,822.6469 L624.45,813.9469" fill="#252327"/><path d="M635.55,813.9469 L635.55,822.6469 L637.5,822.6469 L637.5,813.9469" fill="#252327"/><path d="M622.5,813.7219 L637.5,813.7219 L637.5,815.6719 L622.5,815.6719" fill="#252327"/><text fill="#000000" font-family="sans-serif" font-size="12" lengthAdjust="spacing" textLength="56.0566" x="645.8145" y="827.4668">PlantUML</text><text fill="#000000" font-family="sans-serif" font-size="12" lengthAdjust="spacing" textLength="82.3535" x="618" y="841.4355">Macro Library</text></g><!--link AIF_wuleEe to APP_kRZYOA--><g class="link" data-entity-1="AIF_wuleEe" data-entity-2="APP_kRZYOA" data-source-line="33" data-uid="lnk20" id="link_AIF_wuleEe_APP_kRZYOA"><path d="M156.71,116.2969 C183.18,116.2969 207.42,116.2969 232.94,116.2969" fill="none" id="AIF_wuleEe-to-APP_kRZYOA" style="stroke:#181818;stroke-width:1;"/><polygon fill="#181818" points="238.94,116.2969,229.94,112.2969,233.94,116.2969,229.94,120.2969,238.94,116.2969" style="stroke:#181818;stroke-width:1;"/></g><!--link AIF_KxvYB to APP_kjC6ex--><g class="link" data-entity-1="AIF_KxvYB" data-entity-2="APP_kjC6ex" data-source-line="34" data-uid="lnk21" id="link_AIF_KxvYB_APP_kjC6ex"><path d="M153.06,221.7969 C183.47,221.7969 213.52,221.7969 241.82,221.7969" fill="none" id="AIF_KxvYB-to-APP_kjC6ex" style="stroke:#181818;stroke-width:1;"/><polygon fill="#181818" points="247.82,221.7969,238.82,217.7969,242.82,221.7969,238.82,225.7969,247.82,221.7969" style="stroke:#181818;stroke-width:1;"/></g><!--link APP_kRZYOA to APP_ca3vm7--><g class="link" data-entity-1="APP_kRZYOA" data-entity-2="APP_ca3vm7" data-source-line="37" data-uid="lnk22" id="link_APP_kRZYOA_APP_ca3vm7"><path d="M353.11,100.2969 C379.45,100.2969 404.16,100.2969 428.35,100.2969" fill="none" id="APP_kRZYOA-to-APP_ca3vm7" style="stroke:#181818;stroke-width:1;"/><polygon fill="#181818" points="434.35,100.2969,425.35,96.2969,429.35,100.2969,425.35,104.2969,434.35,100.2969" style="stroke:#181818;stroke-width:1;"/></g><!--link APP_kRZYOA to APP_v9LvfK--><g class="link" data-entity-1="APP_kRZYOA" data-entity-2="APP_v9LvfK" data-source-line="38" data-uid="lnk23" id="link_APP_kRZYOA_APP_v9LvfK"><path d="M350,141.4269 C350,201.0869 350,331.6269 350,331.6269 C350,331.6269 391.58,331.6269 428.38,331.6269" fill="none" id="APP_kRZYOA-to-APP_v9LvfK" style="stroke:#181818;stroke-width:1;"/><polygon fill="#181818" points="434.38,331.6269,425.38,327.6269,429.38,331.6269,425.38,335.6269,434.38,331.6269" style="stroke:#181818;stroke-width:1;"/></g><!--link APP_kjC6ex to APP_ca3vm7--><g class="link" data-entity-1="APP_kjC6ex" data-entity-2="APP_ca3vm7" data-source-line="39" data-uid="lnk24" id="link_APP_kjC6ex_APP_ca3vm7"><path d="M344.22,215.9669 C368.56,215.9669 393,215.9669 393,215.9669 C393,215.9669 393,117.2969 393,117.2969 C393,117.2969 407.55,117.2969 428.26,117.2969" fill="none" id="APP_kjC6ex-to-APP_ca3vm7" style="stroke:#181818;stroke-width:1;"/><polygon fill="#181818" points="434.26,117.2969,425.26,113.2969,429.26,117.2969,425.26,121.2969,434.26,117.2969" style="stroke:#181818;stroke-width:1;"/></g><!--link APP_kjC6ex to APP_v9LvfK--><g class="link" data-entity-1="APP_kjC6ex" data-entity-2="APP_v9LvfK" data-source-line="40" data-uid="lnk25" id="link_APP_kjC6ex_APP_v9LvfK"><path d="M344.26,230.6269 C345.99,230.6269 347,230.6269 347,230.6269 C347,230.6269 347,350.9669 347,350.9669 C347,350.9669 390.64,350.9669 428.46,350.9669" fill="none" id="APP_kjC6ex-to-APP_v9LvfK" style="stroke:#181818;stroke-width:1;"/><polygon fill="#181818" points="434.46,350.9669,425.46,346.9669,429.46,350.9669,425.46,354.9669,434.46,350.9669" style="stroke:#181818;stroke-width:1;"/></g><!--link APP_ca3vm7 to APP_YOOEbL--><g class="link" data-entity-1="APP_ca3vm7" data-entity-2="APP_YOOEbL" data-source-line="41" data-uid="lnk26" id="link_APP_ca3vm7_APP_YOOEbL"><path d="M518.79,114.9669 C557.57,114.9669 609,114.9669 609,114.9669 C609,114.9669 609,156.1769 609,188.2669" fill="none" id="APP_ca3vm7-to-APP_YOOEbL" style="stroke:#181818;stroke-width:1;"/><polygon fill="#181818" points="609,194.2669,613,185.2669,609,189.2669,605,185.2669,609,194.2669" style="stroke:#181818;stroke-width:1;"/></g><!--link APP_ca3vm7 to APP_yNhgdh--><g class="link" data-entity-1="APP_ca3vm7" data-entity-2="APP_yNhgdh" data-source-line="42" data-uid="lnk27" id="link_APP_ca3vm7_APP_yNhgdh"><path d="M518.6,95.6269 C548.33,95.6269 582.02,95.6269 611.78,95.6269" fill="none" id="APP_ca3vm7-to-APP_yNhgdh" style="stroke:#181818;stroke-width:1;"/><polygon fill="#181818" points="617.78,95.6269,608.78,91.6269,612.78,95.6269,608.78,99.6269,617.78,95.6269" style="stroke:#181818;stroke-width:1;"/></g><!--link APP_JOmFWy to APP_YOOEbL--><g class="link" data-entity-1="APP_JOmFWy" data-entity-2="APP_YOOEbL" data-source-line="43" data-uid="lnk28" id="link_APP_JOmFWy_APP_YOOEbL"><path d="M520.45,208.7969 C544.2,208.7969 567.88,208.7969 593.76,208.7969" fill="none" id="APP_JOmFWy-to-APP_YOOEbL" style="stroke:#181818;stroke-width:1;"/><polygon fill="#181818" points="599.76,208.7969,590.76,204.7969,594.76,208.7969,590.76,212.7969,599.76,208.7969" style="stroke:#181818;stroke-width:1;"/></g><!--link APP_JOmFWy to DOB_3rilik--><g class="link" data-entity-1="APP_JOmFWy" data-entity-2="DOB_3rilik" data-source-line="46" data-uid="lnk29" id="link_APP_JOmFWy_DOB_3rilik"><path d="M520.35,237.7969 C534.68,237.7969 547,237.7969 547,237.7969 C547,237.7969 547,697.6269 547,697.6269 C547,697.6269 578.51,697.6269 610.31,697.6269" fill="none" id="APP_JOmFWy-to-DOB_3rilik" style="stroke:#181818;stroke-width:1;"/><polygon fill="#181818" points="616.31,697.6269,607.31,693.6269,611.31,697.6269,607.31,701.6269,616.31,697.6269" style="stroke:#181818;stroke-width:1;"/><text fill="#000000" font-family="sans-serif" font-size="12" lengthAdjust="spacing" textLength="89.1035" x="457" y="501.1855">&#171;access&#187; write</text></g><!--link APP_JOmFWy to DOB_ij5CH7--><g class="link" data-entity-1="APP_JOmFWy" data-entity-2="DOB_ij5CH7" data-source-line="47" data-uid="lnk30" id="link_APP_JOmFWy_DOB_ij5CH7"><path d="M520.12,223.2969 C546.08,223.2969 574,223.2969 574,223.2969 C574,223.2969 574,471.2969 574,471.2969 C574,471.2969 590.35,471.2969 612.26,471.2969" fill="none" id="APP_JOmFWy-to-DOB_ij5CH7" style="stroke:#181818;stroke-width:1;"/><polygon fill="#181818" points="618.26,471.2969,609.26,467.2969,613.26,471.2969,609.26,475.2969,618.26,471.2969" style="stroke:#181818;stroke-width:1;"/><text fill="#000000" font-family="sans-serif" font-size="12" lengthAdjust="spacing" textLength="89.1035" x="575" y="354.6255">&#171;access&#187; write</text></g><!--link APP_JOmFWy to DOB_L3VfsH--><g class="link" data-entity-1="APP_JOmFWy" data-entity-2="DOB_L3VfsH" data-source-line="48" data-uid="lnk31" id="link_APP_JOmFWy_DOB_L3VfsH"><path d="M477,252.5069 C477,265.2369 477,277.2969 477,277.2969 C477,277.2969 611,277.2969 611,277.2969 C611,277.2969 611,476.7669 611,554.2269" fill="none" id="APP_JOmFWy-to-DOB_L3VfsH" style="stroke:#181818;stroke-width:1;"/><polygon fill="#181818" points="611,560.2269,615,551.2269,611,555.2269,607,551.2269,611,560.2269" style="stroke:#181818;stroke-width:1;"/><text fill="#000000" font-family="sans-serif" font-size="12" lengthAdjust="spacing" textLength="89.1035" x="521" y="336.5055">&#171;access&#187; write</text></g><!--link APP_v9LvfK to DOB_3rilik--><g class="link" data-entity-1="APP_v9LvfK" data-entity-2="DOB_3rilik" data-source-line="49" data-uid="lnk32" id="link_APP_v9LvfK_DOB_3rilik"><path d="M477,370.4669 C477,458.7269 477,716.9669 477,716.9669 C477,716.9669 556.03,716.9669 610.17,716.9669" fill="none" id="APP_v9LvfK-to-DOB_3rilik" style="stroke:#181818;stroke-width:1;"/><polygon fill="#181818" points="616.17,716.9669,607.17,712.9669,611.17,716.9669,607.17,720.9669,616.17,716.9669" style="stroke:#181818;stroke-width:1;"/><text fill="#000000" font-family="sans-serif" font-size="12" lengthAdjust="spacing" textLength="86.2207" x="390" y="625.4355">&#171;access&#187; read</text></g><!--link APP_rgulJL to DOB_H8UwKV--><g class="link" data-entity-1="APP_rgulJL" data-entity-2="DOB_H8UwKV" data-source-line="50" data-uid="lnk33" id="link_APP_rgulJL_DOB_H8UwKV"><path d="M296,370.4869 C296,475.1269 296,825.2969 296,825.2969 C296,825.2969 501.2,825.2969 601.85,825.2969" fill="none" id="APP_rgulJL-to-DOB_H8UwKV" style="stroke:#181818;stroke-width:1;"/><polygon fill="#181818" points="607.85,825.2969,598.85,821.2969,602.85,825.2969,598.85,829.2969,607.85,825.2969" style="stroke:#181818;stroke-width:1;"/><text fill="#000000" font-family="sans-serif" font-size="12" lengthAdjust="spacing" textLength="89.1035" x="206" y="765.9555">&#171;access&#187; write</text></g><!--SRC=[fLRRRjf047ttLsoYgXUfK5LHchQYI8HB89XmIsYfaD1Y3sR9UjTQhxaeYjIdVa3LByoNT2qZhw5EWVhLU-QScJqpipuXpAA13IYVVpV6mfeH5ql8-H84SBdsmCzxWKkDatISGzVUR0CnA4mbaXm9uimaiea0InBE34CIIG6LF8yI2uUVK8Mxc33qzECtAdFNumoOzD-Y1bEwKso1ZrwY2fOOjITpnU8RHaY6cQDuJZNg51KA2TehmGEFCATOH0y6GecGmeiuvt4Y86Pwy2rCuSlx_FbZ4RNA7Pt9ZaJyNMbW7vKQjV4oe52537fbit6CNdEr65vcaEjL-xTQRyHUJmCP27YpN_dRV7BJdHcFMsuaRTLUPdKcPlhBcHQtWOvO7yG2n8vC7BN9kTCPt_U-3zkb39gXExUSqmEavkKFiCfINbJQ00IPaaEAi_3Pmht8hjW3X_XIhFShhczcZZtBe5WJd4a5LSqrOXqi_4Fg7BRRrOcPGRNVDObKlTvWDgmEKRnkkxMlwmoAtG34UiIgp24CzkijFfcBQJEBazWIVCIkW870aXzGed02UctkJ7DowVxN38S4KVnMUbMc7W5r7osGs5QGa5j3ewGgxSincP-NwnT7qvSvOz5hir_2F1jC_VhH4bijz1ptcI2Kt1_DtQ6OoRkMgP8FRKGccGWSZMEQIltZtR8v29rxfHSvUlhvIozWfEPgeSmoz0k5ShbYSYN6Rua-Y1QOOjKyDdYWAcOM0T_GqN7CPWMbd6nQMXEdncoV968YK7ooMG4f9vkLfATsDsQhdl2M4asEiAN-8_pTQEqb-gnCY43AWALGFP06ZlhsG73KWS-1epluPne2i6te6OwnKMEa4Vy1]--></g></svg>