<svg xmlns="http://www.w3.org/2000/svg" xmlns:xlink="http://www.w3.org/1999/xlink" contentStyleType="text/css" data-diagram-type="DESCRIPTION" height="1124px" preserveAspectRatio="none" style="width:1579px;height:1124px;background:#FAFAFA;" version="1.1" viewBox="0 0 1579 1124" width="1579px" zoomAndPan="magnify"><?plantuml 1.2026.3?><defs/><g><rect fill="#FAFAFA" height="1124" style="stroke:none;stroke-width:1;" width="1579" x="0" y="0"/><g class="title" data-source-line="70"><text fill="#000000" font-family="'Helvetica Neue, Helvetica, Arial, sans-serif'" font-size="14" font-weight="700" lengthAdjust="spacing" textLength="278.7559" x="646.6621" y="22.9951">Why Assurance &#8212; Motivation Chain</text></g><!--cluster Drivers--><g class="cluster" data-qualified-name="Drivers" data-source-line="72" id="ent0002"><rect fill="#F7EEF9" height="90" rx="2" ry="2" style="stroke:#7B3F9A;stroke-width:1;" width="1245" x="320.08" y="44.2969"/><text fill="#000000" font-family="'Helvetica Neue, Helvetica, Arial, sans-serif'" font-size="12" font-weight="700" lengthAdjust="spacing" textLength="49.0137" x="918.0732" y="57.4355">Drivers</text></g><!--cluster Assessments--><g class="cluster" data-qualified-name="Assessments" data-source-line="80" id="ent0008"><rect fill="#F7EEF9" height="334" rx="2" ry="2" style="stroke:#7B3F9A;stroke-width:1;" width="502" x="356.08" y="166.2969"/><text fill="#000000" font-family="'Helvetica Neue, Helvetica, Arial, sans-serif'" font-size="12" font-weight="700" lengthAdjust="spacing" textLength="88.0605" x="563.0497" y="179.4355">Assessments</text></g><!--cluster Goals--><g class="cluster" data-qualified-name="Goals" data-source-line="89" id="ent0015"><rect fill="#F7EEF9" height="212" rx="2" ry="2" style="stroke:#7B3F9A;stroke-width:1;" width="810" x="18.08" y="532.2969"/><text fill="#000000" font-family="'Helvetica Neue, Helvetica, Arial, sans-serif'" font-size="12" font-weight="700" lengthAdjust="spacing" textLength="37.4473" x="404.3564" y="545.4355">Goals</text></g><!--cluster Outcomes--><g class="cluster" data-qualified-name="Outcomes" data-source-line="98" id="ent0022"><rect fill="#F7EEF9" height="334" rx="2" ry="2" style="stroke:#7B3F9A;stroke-width:1;" width="484" x="116.08" y="776.2969"/><text fill="#000000" font-family="'Helvetica Neue, Helvetica, Arial, sans-serif'" font-size="12" font-weight="700" lengthAdjust="spacing" textLength="67.623" x="324.2685" y="789.4355">Outcomes</text></g><!--entity DRV_AcMaI1--><g class="entity" data-qualified-name="Drivers.DRV_AcMaI1" data-source-line="73" id="ent0003"><rect fill="#EDD6F0" height="42.1538" rx="2" ry="2" style="stroke:#7B3F9A;stroke-width:0.5;" width="333.0835" x="336.58" y="76.2969"/><ellipse cx="357.6569" cy="97.3738" fill="none" rx="6.3692" ry="6.3692" style="stroke:#252327;stroke-width:1.8;"/><ellipse cx="357.6569" cy="97.3738" fill="none" rx="2.3538" ry="2.3538" style="stroke:#252327;stroke-width:1.8;"/><path d="M356.7569,89.4815 L356.7569,93.6353 L358.5569,93.6353 L358.5569,89.4815" fill="#252327"/><path d="M356.7569,101.1123 L356.7569,105.2661 L358.5569,105.2661 L358.5569,101.1123" fill="#252327"/><path d="M349.7646,96.4738 L353.9185,96.4738 L353.9185,98.2738 L349.7646,98.2738" fill="#252327"/><path d="M361.3954,96.4738 L365.5492,96.4738 L365.5492,98.2738 L361.3954,98.2738" fill="#252327"/><path d="M351.4815,92.4723 L352.7554,91.1984 L355.6631,94.1061 L354.3892,95.38" fill="#252327"/><path d="M359.6508,100.6415 L360.9246,99.3676 L363.8323,102.2753 L362.5585,103.5492" fill="#252327"/><path d="M362.5585,91.1984 L363.8323,92.4723 L360.9246,95.38 L359.6508,94.1061" fill="#252327"/><path d="M354.3892,99.3676 L355.6631,100.6415 L352.7554,103.5492 L351.4815,102.2753" fill="#252327"/><text fill="#000000" font-family="'Helvetica Neue, Helvetica, Arial, sans-serif'" font-size="12" lengthAdjust="spacing" textLength="287.1152" x="372.5483" y="105.6206">Expanding Software &amp; AI Assurance Obligations</text></g><!--entity DRV_52_qYT--><g class="entity" data-qualified-name="Drivers.DRV_52_qYT" data-source-line="74" id="ent0004"><rect fill="#EDD6F0" height="42.1538" rx="2" ry="2" style="stroke:#7B3F9A;stroke-width:0.5;" width="377.5679" x="730.08" y="76.2969"/><ellipse cx="751.1569" cy="97.3738" fill="none" rx="6.3692" ry="6.3692" style="stroke:#252327;stroke-width:1.8;"/><ellipse cx="751.1569" cy="97.3738" fill="none" rx="2.3538" ry="2.3538" style="stroke:#252327;stroke-width:1.8;"/><path d="M750.2569,89.4815 L750.2569,93.6353 L752.0569,93.6353 L752.0569,89.4815" fill="#252327"/><path d="M750.2569,101.1123 L750.2569,105.2661 L752.0569,105.2661 L752.0569,101.1123" fill="#252327"/><path d="M743.2646,96.4738 L747.4185,96.4738 L747.4185,98.2738 L743.2646,98.2738" fill="#252327"/><path d="M754.8954,96.4738 L759.0492,96.4738 L759.0492,98.2738 L754.8954,98.2738" fill="#252327"/><path d="M744.9815,92.4723 L746.2554,91.1984 L749.1631,94.1061 L747.8892,95.38" fill="#252327"/><path d="M753.1508,100.6415 L754.4246,99.3676 L757.3323,102.2753 L756.0585,103.5492" fill="#252327"/><path d="M756.0585,91.1984 L757.3323,92.4723 L754.4246,95.38 L753.1508,94.1061" fill="#252327"/><path d="M747.8892,99.3676 L749.1631,100.6415 L746.2554,103.5492 L744.9815,102.2753" fill="#252327"/><text fill="#000000" font-family="'Helvetica Neue, Helvetica, Arial, sans-serif'" font-size="12" lengthAdjust="spacing" textLength="331.5996" x="766.0483" y="105.6206">Safety, Security &amp; GRC Capability Gap for Small Teams</text></g><!--entity DRV_GR9prv--><g class="entity" data-qualified-name="Drivers.DRV_GR9prv" data-source-line="75" id="ent0005"><rect fill="#EDD6F0" height="42.1538" rx="2" ry="2" style="stroke:#7B3F9A;stroke-width:0.5;" width="381.3999" x="1168.58" y="76.2969"/><ellipse cx="1189.6569" cy="97.3738" fill="none" rx="6.3692" ry="6.3692" style="stroke:#252327;stroke-width:1.8;"/><ellipse cx="1189.6569" cy="97.3738" fill="none" rx="2.3538" ry="2.3538" style="stroke:#252327;stroke-width:1.8;"/><path d="M1188.7569,89.4815 L1188.7569,93.6353 L1190.5569,93.6353 L1190.5569,89.4815" fill="#252327"/><path d="M1188.7569,101.1123 L1188.7569,105.2661 L1190.5569,105.2661 L1190.5569,101.1123" fill="#252327"/><path d="M1181.7646,96.4738 L1185.9185,96.4738 L1185.9185,98.2738 L1181.7646,98.2738" fill="#252327"/><path d="M1193.3954,96.4738 L1197.5492,96.4738 L1197.5492,98.2738 L1193.3954,98.2738" fill="#252327"/><path d="M1183.4815,92.4723 L1184.7554,91.1984 L1187.6631,94.1061 L1186.3892,95.38" fill="#252327"/><path d="M1191.6508,100.6415 L1192.9246,99.3676 L1195.8323,102.2753 L1194.5585,103.5492" fill="#252327"/><path d="M1194.5585,91.1984 L1195.8323,92.4723 L1192.9246,95.38 L1191.6508,94.1061" fill="#252327"/><path d="M1186.3892,99.3676 L1187.6631,100.6415 L1184.7554,103.5492 L1183.4815,102.2753" fill="#252327"/><text fill="#000000" font-family="'Helvetica Neue, Helvetica, Arial, sans-serif'" font-size="12" lengthAdjust="spacing" textLength="335.4316" x="1204.5483" y="105.6206">AI-Assisted Development as Dominant Production Mode</text></g><!--entity ASS_pZWwv1--><g class="entity" data-qualified-name="Assessments.ASS_pZWwv1" data-source-line="81" id="ent0009"><rect fill="#EDD6F0" height="42.1538" rx="2" ry="2" style="stroke:#7B3F9A;stroke-width:0.5;" width="418.0445" x="372.08" y="198.2969"/><path d="M385.5415,212.4507 L400.7723,212.4507 A1.3846,1.3846 0 0 1 402.1569,213.8353 L402.1569,222.143 A1.3846,1.3846 0 0 1 400.7723,223.5276 L390.3877,223.5276 L387.6185,227.6815 L389.0031,223.5276 L385.5415,223.5276 A1.3846,1.3846 0 0 1 384.1569,222.143 L384.1569,213.8353 A1.3846,1.3846 0 0 1 385.5415,212.4507" fill="#252327" style="stroke:none;stroke-width:0.5;"/><text fill="#000000" font-family="'Helvetica Neue, Helvetica, Arial, sans-serif'" font-size="12" lengthAdjust="spacing" textLength="372.0762" x="408.0483" y="227.6206">Assurance Disconnected From Architecture Loses Traceability</text></g><!--entity ASS_6cIRhr--><g class="entity" data-qualified-name="Assessments.ASS_6cIRhr" data-source-line="82" id="ent0010"><rect fill="#EDD6F0" height="42.1538" rx="2" ry="2" style="stroke:#7B3F9A;stroke-width:0.5;" width="469.6421" x="372.08" y="320.2969"/><path d="M385.5415,334.4507 L400.7723,334.4507 A1.3846,1.3846 0 0 1 402.1569,335.8353 L402.1569,344.143 A1.3846,1.3846 0 0 1 400.7723,345.5276 L390.3877,345.5276 L387.6185,349.6815 L389.0031,345.5276 L385.5415,345.5276 A1.3846,1.3846 0 0 1 384.1569,344.143 L384.1569,335.8353 A1.3846,1.3846 0 0 1 385.5415,334.4507" fill="#252327" style="stroke:none;stroke-width:0.5;"/><text fill="#000000" font-family="'Helvetica Neue, Helvetica, Arial, sans-serif'" font-size="12" lengthAdjust="spacing" textLength="423.6738" x="408.0483" y="349.6206">Affected Teams Need Traceable &amp; Tamper-Evident Assurance Records</text></g><!--entity ASS_Cu2Joe--><g class="entity" data-qualified-name="Assessments.ASS_Cu2Joe" data-source-line="83" id="ent0011"><rect fill="#EDD6F0" height="42.1538" rx="2" ry="2" style="stroke:#7B3F9A;stroke-width:0.5;" width="436.3726" x="397.08" y="442.2969"/><path d="M410.5415,456.4507 L425.7723,456.4507 A1.3846,1.3846 0 0 1 427.1569,457.8353 L427.1569,466.143 A1.3846,1.3846 0 0 1 425.7723,467.5276 L415.3877,467.5276 L412.6185,471.6815 L414.0031,467.5276 L410.5415,467.5276 A1.3846,1.3846 0 0 1 409.1569,466.143 L409.1569,457.8353 A1.3846,1.3846 0 0 1 410.5415,456.4507" fill="#252327" style="stroke:none;stroke-width:0.5;"/><text fill="#000000" font-family="'Helvetica Neue, Helvetica, Arial, sans-serif'" font-size="12" lengthAdjust="spacing" textLength="390.4043" x="433.0483" y="471.6206">Assurance Cannot Keep Pace with Agentic Development Velocity</text></g><!--entity GOL_AoatzG--><g class="entity" data-qualified-name="Goals.GOL_AoatzG" data-source-line="90" id="ent0016"><rect fill="#EDD6F0" height="42.1538" rx="2" ry="2" style="stroke:#7B3F9A;stroke-width:0.5;" width="394.4956" x="418.08" y="564.2969"/><ellipse cx="439.1569" cy="585.3738" fill="none" rx="6.6462" ry="6.6462" style="stroke:#252327;stroke-width:1.8;"/><ellipse cx="439.1569" cy="585.3738" fill="none" rx="4.0154" ry="4.0154" style="stroke:#252327;stroke-width:1.8;"/><ellipse cx="439.1569" cy="585.3738" fill="#252327" rx="1.8" ry="1.8" style="stroke:none;stroke-width:1.8;"/><text fill="#000000" font-family="'Helvetica Neue, Helvetica, Arial, sans-serif'" font-size="12" lengthAdjust="spacing" textLength="348.5273" x="454.0483" y="593.6206">Provide First-Class Assurance over the Architecture Model</text></g><!--entity GOL_kE3Tte--><g class="entity" data-qualified-name="Goals.GOL_kE3Tte" data-source-line="91" id="ent0017"><rect fill="#EDD6F0" height="42.1538" rx="2" ry="2" style="stroke:#7B3F9A;stroke-width:0.5;" width="323.9019" x="34.08" y="564.2969"/><ellipse cx="55.1569" cy="585.3738" fill="none" rx="6.6462" ry="6.6462" style="stroke:#252327;stroke-width:1.8;"/><ellipse cx="55.1569" cy="585.3738" fill="none" rx="4.0154" ry="4.0154" style="stroke:#252327;stroke-width:1.8;"/><ellipse cx="55.1569" cy="585.3738" fill="#252327" rx="1.8" ry="1.8" style="stroke:none;stroke-width:1.8;"/><text fill="#000000" font-family="'Helvetica Neue, Helvetica, Arial, sans-serif'" font-size="12" lengthAdjust="spacing" textLength="277.9336" x="70.0483" y="593.6206">Lower the Barrier to Rigorous Assurance Work</text></g><!--entity GOL_FCfDuc--><g class="entity" data-qualified-name="Goals.GOL_FCfDuc" data-source-line="92" id="ent0018"><rect fill="#EDD6F0" height="42.1538" rx="2" ry="2" style="stroke:#7B3F9A;stroke-width:0.5;" width="427.7652" x="34.08" y="686.2969"/><ellipse cx="55.1569" cy="707.3738" fill="none" rx="6.6462" ry="6.6462" style="stroke:#252327;stroke-width:1.8;"/><ellipse cx="55.1569" cy="707.3738" fill="none" rx="4.0154" ry="4.0154" style="stroke:#252327;stroke-width:1.8;"/><ellipse cx="55.1569" cy="707.3738" fill="#252327" rx="1.8" ry="1.8" style="stroke:none;stroke-width:1.8;"/><text fill="#000000" font-family="'Helvetica Neue, Helvetica, Arial, sans-serif'" font-size="12" lengthAdjust="spacing" textLength="381.7969" x="70.0483" y="715.6206">Achieve Unity of Effort Across Autonomous, Agentic SDLC Work</text></g><!--entity OUT__FOogJ--><g class="entity" data-qualified-name="Outcomes.OUT__FOogJ" data-source-line="99" id="ent0023"><rect fill="#EDD6F0" height="42.1538" rx="2" ry="2" style="stroke:#7B3F9A;stroke-width:0.5;" width="452.4917" x="132.08" y="808.2969"/><ellipse cx="152.3262" cy="830.2046" fill="none" rx="5.9538" ry="5.9538" style="stroke:#252327;stroke-width:1.8;"/><ellipse cx="152.3262" cy="830.2046" fill="none" rx="3.0462" ry="3.0462" style="stroke:#252327;stroke-width:1.8;"/><path d="M156.1754,827.8923 L155.1231,826.4246 L159.4154,823.3784 L160.4677,824.8461" fill="#252327"/><path d="M156.2031,828.3353 L159.6646,828.3353 L159.6646,830.1353 L156.2031,830.1353" fill="#252327"/><ellipse cx="152.3262" cy="830.2046" fill="#252327" rx="1.2462" ry="1.2462" style="stroke:none;stroke-width:1.8;"/><text fill="#000000" font-family="'Helvetica Neue, Helvetica, Arial, sans-serif'" font-size="12" lengthAdjust="spacing" textLength="406.5234" x="168.0483" y="837.6206">Assurance Findings Traceable End-to-End to the Architecture Model</text></g><!--entity OUT_Vhhne7--><g class="entity" data-qualified-name="Outcomes.OUT_Vhhne7" data-source-line="100" id="ent0024"><rect fill="#EDD6F0" height="42.1538" rx="2" ry="2" style="stroke:#7B3F9A;stroke-width:0.5;" width="309.9331" x="254.08" y="930.2969"/><ellipse cx="274.3262" cy="952.2046" fill="none" rx="5.9538" ry="5.9538" style="stroke:#252327;stroke-width:1.8;"/><ellipse cx="274.3262" cy="952.2046" fill="none" rx="3.0462" ry="3.0462" style="stroke:#252327;stroke-width:1.8;"/><path d="M278.1754,949.8923 L277.1231,948.4246 L281.4154,945.3784 L282.4677,946.8461" fill="#252327"/><path d="M278.2031,950.3353 L281.6646,950.3353 L281.6646,952.1353 L278.2031,952.1353" fill="#252327"/><ellipse cx="274.3262" cy="952.2046" fill="#252327" rx="1.2462" ry="1.2462" style="stroke:none;stroke-width:1.8;"/><text fill="#000000" font-family="'Helvetica Neue, Helvetica, Arial, sans-serif'" font-size="12" lengthAdjust="spacing" textLength="263.9648" x="290.0483" y="959.6206">Assurance Analysis Surfaces Modeling Gaps</text></g><!--entity OUT_CiC0ku--><g class="entity" data-qualified-name="Outcomes.OUT_CiC0ku" data-source-line="101" id="ent0025"><rect fill="#EDD6F0" height="42.1538" rx="2" ry="2" style="stroke:#7B3F9A;stroke-width:0.5;" width="349.5015" x="234.08" y="1052.2969"/><ellipse cx="254.3262" cy="1074.2046" fill="none" rx="5.9538" ry="5.9538" style="stroke:#252327;stroke-width:1.8;"/><ellipse cx="254.3262" cy="1074.2046" fill="none" rx="3.0462" ry="3.0462" style="stroke:#252327;stroke-width:1.8;"/><path d="M258.1754,1071.8923 L257.1231,1070.4246 L261.4154,1067.3784 L262.4677,1068.8461" fill="#252327"/><path d="M258.2031,1072.3353 L261.6646,1072.3353 L261.6646,1074.1353 L258.2031,1074.1353" fill="#252327"/><ellipse cx="254.3262" cy="1074.2046" fill="#252327" rx="1.2462" ry="1.2462" style="stroke:none;stroke-width:1.8;"/><text fill="#000000" font-family="'Helvetica Neue, Helvetica, Arial, sans-serif'" font-size="12" lengthAdjust="spacing" textLength="303.5332" x="270.0483" y="1081.6206">Assurance Friction &amp; Guidance Overhead Reduced</text></g><!--link DRV_AcMaI1 to DRV_52_qYT--><!--link DRV_52_qYT to DRV_GR9prv--><!--link ASS_pZWwv1 to ASS_6cIRhr--><!--link ASS_6cIRhr to ASS_Cu2Joe--><!--link DRV_GR9prv to ASS_pZWwv1--><!--link GOL_AoatzG to GOL_kE3Tte--><!--link GOL_kE3Tte to GOL_FCfDuc--><!--link GOL_kE3Tte to GOL_FCfDuc--><g class="link" data-entity-1="ent0017" data-entity-2="ent0018" data-link-type="dependency" data-source-line="115" id="lnk36"><path d="M250.08,606.5469 C250.08,628.9369 250.08,657.9869 250.08,680.2869" fill="none" id="GOL_kE3Tte-to-GOL_FCfDuc" style="stroke:#181818;stroke-width:1;stroke-dasharray:7,7;"/><polygon fill="#181818" points="250.08,686.2869,254.08,677.2869,250.08,681.2869,246.08,677.2869,250.08,686.2869" style="stroke:#181818;stroke-width:1;"/></g><!--link ASS_Cu2Joe to GOL_AoatzG--><!--link OUT__FOogJ to OUT_Vhhne7--><!--link OUT_Vhhne7 to OUT_CiC0ku--><!--link GOL_FCfDuc to OUT__FOogJ--><!--link DRV_AcMaI1 to ASS_6cIRhr--><g class="link" data-entity-1="ent0003" data-entity-2="ent0010" data-link-type="dependency" data-source-line="108" id="lnk29"><path d="M367.41,118.5269 C367.41,177.8869 367.41,341.2969 367.41,341.2969 C367.41,341.2969 363.03,341.2969 365.99,341.2969" fill="none" id="DRV_AcMaI1-to-ASS_6cIRhr" style="stroke:#181818;stroke-width:1;stroke-dasharray:7,7;"/><polygon fill="#181818" points="371.99,341.2969,362.99,337.2969,366.99,341.2969,362.99,345.2969,371.99,341.2969" style="stroke:#181818;stroke-width:1;"/></g><!--link DRV_GR9prv to ASS_Cu2Joe--><g class="link" data-entity-1="ent0005" data-entity-2="ent0011" data-link-type="dependency" data-source-line="109" id="lnk30"><path d="M1422.58,118.4169 C1422.58,197.3269 1422.58,470.2969 1422.58,470.2969 C1422.58,470.2969 1078.49,470.2969 839.34,470.2969" fill="none" id="DRV_GR9prv-to-ASS_Cu2Joe" style="stroke:#181818;stroke-width:1;stroke-dasharray:7,7;"/><polygon fill="#181818" points="833.34,470.2969,842.34,474.2969,838.34,470.2969,842.34,466.2969,833.34,470.2969" style="stroke:#181818;stroke-width:1;"/></g><!--link DRV_52_qYT to ASS_Cu2Joe--><g class="link" data-entity-1="ent0004" data-entity-2="ent0011" data-link-type="dependency" data-source-line="110" id="lnk31"><path d="M975.08,118.4169 C975.08,195.3669 975.08,456.2969 975.08,456.2969 C975.08,456.2969 914.91,456.2969 839.32,456.2969" fill="none" id="DRV_52_qYT-to-ASS_Cu2Joe" style="stroke:#181818;stroke-width:1;stroke-dasharray:7,7;"/><polygon fill="#181818" points="833.32,456.2969,842.32,460.2969,838.32,456.2969,842.32,452.2969,833.32,456.2969" style="stroke:#181818;stroke-width:1;"/></g><!--link ASS_Cu2Joe to GOL_kE3Tte--><g class="link" data-entity-1="ent0011" data-entity-2="ent0017" data-link-type="association" data-source-line="111" id="lnk32"><path d="M407.58,484.3669 C407.58,516.8069 407.58,575.2969 407.58,575.2969 C407.58,575.2969 386.8,575.2969 358.26,575.2969" fill="none" id="ASS_Cu2Joe-GOL_kE3Tte" style="stroke:#181818;stroke-width:1;"/></g><!--link DRV_52_qYT to ASS_pZWwv1--><g class="link" data-entity-1="ent0004" data-entity-2="ent0009" data-link-type="dependency" data-source-line="112" id="lnk33"><path d="M760.08,118.5469 C760.08,140.9369 760.08,169.9869 760.08,192.2869" fill="none" id="DRV_52_qYT-to-ASS_pZWwv1" style="stroke:#181818;stroke-width:1;stroke-dasharray:7,7;"/><polygon fill="#181818" points="760.08,198.2869,764.08,189.2869,760.08,193.2869,756.08,189.2869,760.08,198.2869" style="stroke:#181818;stroke-width:1;"/></g><!--link DRV_AcMaI1 to ASS_pZWwv1--><g class="link" data-entity-1="ent0003" data-entity-2="ent0009" data-link-type="dependency" data-source-line="113" id="lnk34"><path d="M520.83,118.5469 C520.83,140.9369 520.83,169.9869 520.83,192.2869" fill="none" id="DRV_AcMaI1-to-ASS_pZWwv1" style="stroke:#181818;stroke-width:1;stroke-dasharray:7,7;"/><polygon fill="#181818" points="520.83,198.2869,524.83,189.2869,520.83,193.2869,516.83,189.2869,520.83,198.2869" style="stroke:#181818;stroke-width:1;"/></g><!--link ASS_pZWwv1 to GOL_AoatzG--><g class="link" data-entity-1="ent0009" data-entity-2="ent0016" data-link-type="association" data-source-line="114" id="lnk35"><path d="M371.85,219.2969 C366.05,219.2969 362.75,219.2969 362.75,219.2969 C362.75,219.2969 362.75,585.2969 362.75,585.2969 C362.75,585.2969 385.72,585.2969 417.81,585.2969" fill="none" id="ASS_pZWwv1-GOL_AoatzG" style="stroke:#181818;stroke-width:1;"/></g><!--reverse link GOL_AoatzG to OUT_Vhhne7--><g class="link" data-entity-1="ent0016" data-entity-2="ent0024" data-link-type="extension" data-source-line="116" id="lnk38"><path d="M698.08,624.5569 C698.08,702.6669 698.08,951.2969 698.08,951.2969 C698.08,951.2969 632.71,951.2969 564.16,951.2969" fill="none" id="GOL_AoatzG-backto-OUT_Vhhne7" style="stroke:#181818;stroke-width:1;stroke-dasharray:7,7;"/><polygon fill="none" points="698.08,606.5569,692.08,624.5569,704.08,624.5569,698.08,606.5569" style="stroke:#181818;stroke-width:1;"/></g><!--reverse link GOL_AoatzG to OUT__FOogJ--><g class="link" data-entity-1="ent0016" data-entity-2="ent0023" data-link-type="extension" data-source-line="117" id="lnk40"><path d="M523.08,624.5269 C523.08,670.7869 523.08,762.2369 523.08,808.2969" fill="none" id="GOL_AoatzG-backto-OUT__FOogJ" style="stroke:#181818;stroke-width:1;stroke-dasharray:7,7;"/><polygon fill="none" points="523.08,606.5269,517.08,624.5269,529.08,624.5269,523.08,606.5269" style="stroke:#181818;stroke-width:1;"/></g><!--reverse link GOL_kE3Tte to OUT_CiC0ku--><g class="link" data-entity-1="ent0017" data-entity-2="ent0025" data-link-type="extension" data-source-line="118" id="lnk42"><path d="M16,585.2969 C16,585.2969 16.08,1073.2969 16.08,1073.2969 C16.08,1073.2969 129.04,1073.2969 233.84,1073.2969" fill="none" id="GOL_kE3Tte-backto-OUT_CiC0ku" style="stroke:#181818;stroke-width:1;stroke-dasharray:7,7;"/><polygon fill="none" points="34,585.2969,16,579.2969,16,591.2969,34,585.2969" style="stroke:#181818;stroke-width:1;"/></g><?plantuml-src xLTjRzis4FwUNt5GX-rBf5YINv8XDk3uBUdSfeZJ5Dim68n4MuHbKQKeksbNO3zYlt2_P4TPiEXOTX4d-p2WI21J9E_kkRk7nrF0V0g9f89o-H3JewDangAO2387dqv86ie-Z-HRCgTWND9mGINp2BobAJs6zVinj0KZuJ4a94hCX0esCSeLZTXd2hQZBIO1yVcIHLEOa32XsehWQUHxN4HKG5MRloVUR9ejTdZ81RpgjzMV3Zra4LNk01SouDf2n7sQq1Zg5TqGYMPgydHZadgIHDEGdf-_uP8jY6Gy6g3P6B6sMl3b2E1Y2qcZr-kVgHKkV2hosSQ5spzh7tqjrqwIX2R9d4PobzPUjrllLvwcrHTiGSLBQfno4hwaFfvAZy_fWIg3xxpzpjl_8M-JM319uGSYl83DYQJZ8evmdYocy6aUHadJ2AICVpuvMIwNrjArk9YUE9LAvGHt6B1WT7d1FpMD2bJ0hkE_qJgFYGp0Rnfl7Ai6Rc3Rn0ORiXtgRr4ltaqSNTP3qm4NNznBbD0NJVkkgWkRzcS3OCB2i6cyScgEwpGCF7k2psZJY7X4ZPFMkKBMAd5lbT3dkUOnuOKKF9m-DS1xo7v4qwXQzJMm3CSQrIEOvfBvCcWQjkKghBlqsLRZ87thq3SijmQEvLOMhbMf1BXSkLEl6B_Dy6q9sHMheKjbxtl5b5vGie6IMYYfos_QojG-blgsBTUgLQ5gLUj3zG3rEgnRjJhKh7frg1wWNlVgEBEgLUMcMnzcJr0JGzjH2crRQSoUaCtiToBRbu5OYMV8LaeLZ65cIg7QgoQ3dO78N5b1o_pBj0upfpDRPMfsyLsLc_-AxQSlodR7EdlXq-CQUwi4bElR5ScyqBvOC1jMDOUhoaOMKFUv0TZIwLZEyqe8qj0-HHgVkOh63jBujA5eNiDYRTLnw5hEAJA-uNxhe3lge3kr06MBW-wK7lHz7YcM79pL8ybZa1pkkPGSEogcBb9iI721IRJu8NY0TfAasCfu5FxvwsyecXRe18JXplNT2qOtkqmI0_OqDzhsywrxw4lYaP0syL1_RK7lKqmYNxLm8pwHIo8e_0ZjAmtGzNt8ffcHpEQwEI49T6_knctl3RcodsHpH2ROuHt3Y7ef4lu1BGvkEj0XCRbdePeOa1Wcs3ECvYGCuPQIUQdjcZF--EljasothqnqZM7Nx4ENBcZ8uwpjK1hvd4K4n-y4zzCiHPW9dvPP7joSnMA1lKmH0Z1_nuRSfz4VWaq3QUe8Ys7fhboRdkNskYCwADD5GxNf_JghNPPuF8fG6WFH5yZBjXAME94Y1uOSvU5M48_cEL4eDjfTZ4HxD1h7ltrOBkod8vbCLhQpvE97YHgkp8MAWhTa7bDXzXRuZOCfAO3VKFoiy9DTSEhUrKqWdX6O3eaYBk4NYXyLxn0FB1cMa_OK9PYtGPax77bx8jD9dTUS8aUAC1NPn--coDGH5yEoJRckWYnbc_9Kw3GQu4ry487K5RuH8JmKAXVGPoAHPYT4ZxMeSTNVoe1kiaYTdb1Ppxy_C323w-6upOdyF7Y2xI5VvkelY11CZJdSi2b7LtGK7xYORPkRzTnRIPzWheqhc6Tu7wbQn2VGcs0nGX9wWYklKyaZFaVJnsjUZBh3pWxp_Swactf8WyBrhIAWmIo6fRjoRGKd7XD12x1EXEjL8t4G5_8cPCU1wRFi_aYquzkBV5Do4tzKedRJelYCn5XTlxyTZ_lNVFhwK2JjY8GFMDjXb8e9OabMbjJbXXTAKchnBWWYsZZOTy5MzmJUO2dpL_Sb7eM04Xyh5TuYr2yrss6ToYn5KXHUFqwaXguObctATHNiADkKH_Re9-Yiohwwp_NRor9xhPPUahHgewzgjIY_qqfMTO8MnCmvlaCqhryxGEMhUZ7TOhnsU2mKqmwC5a8hZQq_MxgObeJonLM8zSNSaty1?></g></svg>