<svg xmlns="http://www.w3.org/2000/svg" xmlns:xlink="http://www.w3.org/1999/xlink" contentStyleType="text/css" data-diagram-type="DESCRIPTION" height="1060px" preserveAspectRatio="none" style="width:1432px;height:1060px;background:#FAFAFA;" version="1.1" viewBox="0 0 1432 1060" width="1432px" zoomAndPan="magnify"><?plantuml 1.2026.3?><defs/><g><rect fill="#FAFAFA" height="1060" style="stroke:none;stroke-width:1;" width="1432" x="0" y="0"/><g class="title" data-source-line="87"><text fill="#000000" font-family="'Helvetica Neue, Helvetica, Arial, sans-serif'" font-size="14" font-weight="700" lengthAdjust="spacing" textLength="246.3945" x="589.3027" y="22.9951">From Write to Consistent State</text></g><!--cluster GRP_WRITE--><g class="cluster" data-qualified-name="GRP_WRITE" data-source-line="89" id="ent0002"><rect fill="#EDE8E1" height="106" rx="2" ry="2" style="stroke:#8C7E6A;stroke-width:1;" width="766" x="7" y="44.2969"/><text fill="#000000" font-family="'Helvetica Neue, Helvetica, Arial, sans-serif'" font-size="12" font-weight="700" lengthAdjust="spacing" textLength="103.9922" x="338.0039" y="57.4355">Write Requests</text></g><!--cluster GRP_CHANGE--><g class="cluster" data-qualified-name="GRP_CHANGE" data-source-line="97" id="ent0008"><rect fill="#EDE8E1" height="106" rx="2" ry="2" style="stroke:#8C7E6A;stroke-width:1;" width="608" x="810" y="443.2969"/><text fill="#000000" font-family="'Helvetica Neue, Helvetica, Arial, sans-serif'" font-size="12" font-weight="700" lengthAdjust="spacing" textLength="100.4766" x="1063.7617" y="456.4355">Change Events</text></g><!--cluster PRC_wqtZ0P--><g class="cluster" data-qualified-name="PRC_wqtZ0P" data-source-line="105" id="ent0013"><rect fill="#E0D8CC" height="758" rx="2" ry="2" style="stroke:#8C7E6A;stroke-width:1;" width="570" x="200" y="190.2969"/><path d="M379.2701,197.9738 L387.9932,197.9738 L387.9932,196.1738 L394.224,203.3738 L387.9932,210.5738 L387.9932,208.7738 L379.2701,208.7738" fill="#252327" style="stroke:none;stroke-width:1;"/><text fill="#000000" font-family="'Helvetica Neue, Helvetica, Arial, sans-serif'" font-size="12" font-weight="700" lengthAdjust="spacing" textLength="192.3281" x="402.0017" y="211.6206">Coordinate Repository State</text></g><!--cluster FNC_dxb6ru--><g class="cluster" data-qualified-name="PRC_wqtZ0P.FNC_dxb6ru" data-source-line="109" id="ent0017"><rect fill="#E0D8CC" height="115" rx="2" ry="2" style="stroke:#8C7E6A;stroke-width:1;" width="482" x="248" y="589.2969"/><path d="M422.4277,607.4969 L422.4277,598.7738 L429.4893,595.5892 L436.5508,598.7738 L436.5508,607.4969 L429.4893,604.0353" fill="#252327" style="stroke:none;stroke-width:1;"/><text fill="#000000" font-family="'Helvetica Neue, Helvetica, Arial, sans-serif'" font-size="12" font-weight="700" lengthAdjust="spacing" textLength="114.8438" x="444.7439" y="610.6206">Index Repository</text></g><!--entity EVT_tTktu8--><g class="entity" data-qualified-name="GRP_WRITE.EVT_tTktu8" data-source-line="90" id="ent0003"><rect fill="#E0D8CC" height="42.1538" rx="2" ry="2" style="stroke:#8C7E6A;stroke-width:0.5;" width="194.1636" x="275" y="84.2969"/><path d="M289.2923,99.8353 L297.0462,99.8353 A5.2615,5.2615 0 0 1 297.0462,110.9123 L289.2923,110.9123 L292.2,105.3738" fill="#252327" style="stroke:none;stroke-width:0.5;"/><text fill="#000000" font-family="'Helvetica Neue, Helvetica, Arial, sans-serif'" font-size="12" lengthAdjust="spacing" textLength="148.1953" x="310.9683" y="113.6206">Artifact Write Requested</text></g><!--entity EVT_diAYsj--><g class="entity" data-qualified-name="GRP_WRITE.EVT_diAYsj" data-source-line="91" id="ent0004"><rect fill="#E0D8CC" height="42.1538" rx="2" ry="2" style="stroke:#8C7E6A;stroke-width:0.5;" width="176.2222" x="529" y="84.2969"/><path d="M543.2923,99.8353 L551.0462,99.8353 A5.2615,5.2615 0 0 1 551.0462,110.9123 L543.2923,110.9123 L546.2,105.3738" fill="#252327" style="stroke:none;stroke-width:0.5;"/><text fill="#000000" font-family="'Helvetica Neue, Helvetica, Arial, sans-serif'" font-size="12" lengthAdjust="spacing" textLength="130.2539" x="564.9683" y="113.6206">Bulk Write Requested</text></g><!--entity EVT_m_E9P1--><g class="entity" data-qualified-name="GRP_WRITE.EVT_m_E9P1" data-source-line="92" id="ent0005"><rect fill="#E0D8CC" height="42.1538" rx="2" ry="2" style="stroke:#8C7E6A;stroke-width:0.5;" width="183.4292" x="31.5" y="84.2969"/><path d="M45.7923,99.8353 L53.5462,99.8353 A5.2615,5.2615 0 0 1 53.5462,110.9123 L45.7923,110.9123 L48.7,105.3738" fill="#252327" style="stroke:none;stroke-width:0.5;"/><text fill="#000000" font-family="'Helvetica Neue, Helvetica, Arial, sans-serif'" font-size="12" lengthAdjust="spacing" textLength="137.4609" x="67.4683" y="113.6206">Bulk Delete Requested</text></g><!--entity EVT_hDF1Qz--><g class="entity" data-qualified-name="GRP_CHANGE.EVT_hDF1Qz" data-source-line="98" id="ent0009"><rect fill="#E0D8CC" height="42.1538" rx="2" ry="2" style="stroke:#8C7E6A;stroke-width:0.5;" width="158.3453" x="878" y="483.2969"/><path d="M892.2923,498.8353 L900.0462,498.8353 A5.2615,5.2615 0 0 1 900.0462,509.9123 L892.2923,509.9123 L895.2,504.3738" fill="#252327" style="stroke:none;stroke-width:0.5;"/><text fill="#000000" font-family="'Helvetica Neue, Helvetica, Arial, sans-serif'" font-size="12" lengthAdjust="spacing" textLength="112.377" x="913.9683" y="512.6206">Artifacts Promoted</text></g><!--entity EVT_UCrh3V--><g class="entity" data-qualified-name="GRP_CHANGE.EVT_UCrh3V" data-source-line="99" id="ent0010"><rect fill="#E0D8CC" height="42.1538" rx="2" ry="2" style="stroke:#8C7E6A;stroke-width:0.5;" width="296.7085" x="1096.5" y="483.2969"/><path d="M1110.7923,498.8353 L1118.5462,498.8353 A5.2615,5.2615 0 0 1 1118.5462,509.9123 L1110.7923,509.9123 L1113.7,504.3738" fill="#252327" style="stroke:none;stroke-width:0.5;"/><text fill="#000000" font-family="'Helvetica Neue, Helvetica, Arial, sans-serif'" font-size="12" lengthAdjust="spacing" textLength="250.7402" x="1132.4683" y="512.6206">Architecture Repository Change Detected</text></g><!--entity FNC_YD31f3--><g class="entity" data-qualified-name="PRC_wqtZ0P.FNC_YD31f3" data-source-line="106" id="ent0014"><rect fill="#E0D8CC" height="42.1538" rx="2" ry="2" style="stroke:#8C7E6A;stroke-width:0.5;" width="206.5269" x="268.5" y="239.2969"/><path d="M282.5154,265.4969 L282.5154,256.7738 L289.5769,253.5892 L296.6385,256.7738 L296.6385,265.4969 L289.5769,262.0353" fill="#252327" style="stroke:none;stroke-width:0.5;"/><text fill="#000000" font-family="'Helvetica Neue, Helvetica, Arial, sans-serif'" font-size="12" lengthAdjust="spacing" textLength="160.5586" x="304.4683" y="268.6206">Enqueue Write Commands</text></g><!--entity PRC_gtgYvQ--><g class="entity" data-qualified-name="PRC_wqtZ0P.PRC_gtgYvQ" data-source-line="107" id="ent0015"><rect fill="#E0D8CC" height="42.1538" rx="2" ry="2" style="stroke:#8C7E6A;stroke-width:0.5;" width="233.9019" x="249" y="361.2969"/><path d="M262.6,376.9738 L271.3231,376.9738 L271.3231,375.1738 L277.5538,382.3738 L271.3231,389.5738 L271.3231,387.7738 L262.6,387.7738" fill="#252327" style="stroke:none;stroke-width:0.5;"/><text fill="#000000" font-family="'Helvetica Neue, Helvetica, Arial, sans-serif'" font-size="12" lengthAdjust="spacing" textLength="187.9336" x="284.9683" y="390.6206">Execute Staged Bulk Operation</text></g><!--entity EVT_BKj6NZ--><g class="entity" data-qualified-name="PRC_wqtZ0P.EVT_BKj6NZ" data-source-line="108" id="ent0016"><rect fill="#E0D8CC" height="42.1538" rx="2" ry="2" style="stroke:#8C7E6A;stroke-width:0.5;" width="227.0816" x="245.5" y="483.2969"/><path d="M259.7923,498.8353 L267.5462,498.8353 A5.2615,5.2615 0 0 1 267.5462,509.9123 L259.7923,509.9123 L262.7,504.3738" fill="#252327" style="stroke:none;stroke-width:0.5;"/><text fill="#000000" font-family="'Helvetica Neue, Helvetica, Arial, sans-serif'" font-size="12" lengthAdjust="spacing" textLength="181.1133" x="281.4683" y="512.6206">Staged Repository Committed</text></g><!--entity EVT_b6XB2D--><g class="entity" data-qualified-name="PRC_wqtZ0P.EVT_b6XB2D" data-source-line="114" id="ent0021"><rect fill="#E0D8CC" height="42.1538" rx="2" ry="2" style="stroke:#8C7E6A;stroke-width:0.5;" width="162.3765" x="240" y="760.2969"/><path d="M254.2923,775.8353 L262.0462,775.8353 A5.2615,5.2615 0 0 1 262.0462,786.9123 L254.2923,786.9123 L257.2,781.3738" fill="#252327" style="stroke:none;stroke-width:0.5;"/><text fill="#000000" font-family="'Helvetica Neue, Helvetica, Arial, sans-serif'" font-size="12" lengthAdjust="spacing" textLength="116.4082" x="275.9683" y="789.6206">Repository Indexed</text></g><!--entity FNC_3ZsfnT--><g class="entity" data-qualified-name="PRC_wqtZ0P.FNC_3ZsfnT" data-source-line="115" id="ent0022"><rect fill="#E0D8CC" height="42.1538" rx="2" ry="2" style="stroke:#8C7E6A;stroke-width:0.5;" width="193.4722" x="232.5" y="882.2969"/><path d="M246.5154,908.4969 L246.5154,899.7738 L253.5769,896.5892 L260.6385,899.7738 L260.6385,908.4969 L253.5769,905.0353" fill="#252327" style="stroke:none;stroke-width:0.5;"/><text fill="#000000" font-family="'Helvetica Neue, Helvetica, Arial, sans-serif'" font-size="12" lengthAdjust="spacing" textLength="147.5039" x="268.4683" y="911.6206">Broadcast Model Update</text></g><!--entity FNC_b3mOTJ--><g class="entity" data-qualified-name="PRC_wqtZ0P.FNC_dxb6ru.FNC_b3mOTJ" data-source-line="110" id="ent0018"><rect fill="#E0D8CC" height="42.1538" rx="2" ry="2" style="stroke:#8C7E6A;stroke-width:0.5;" width="188.4273" x="316" y="638.2969"/><path d="M330.0154,664.4969 L330.0154,655.7738 L337.0769,652.5892 L344.1385,655.7738 L344.1385,664.4969 L337.0769,661.0353" fill="#252327" style="stroke:none;stroke-width:0.5;"/><text fill="#000000" font-family="'Helvetica Neue, Helvetica, Arial, sans-serif'" font-size="12" lengthAdjust="spacing" textLength="142.459" x="351.9683" y="667.6206">Build Connection Graph</text></g><!--entity FNC_nJYA2--><g class="entity" data-qualified-name="PRC_wqtZ0P.FNC_dxb6ru.FNC_nJYA2" data-source-line="111" id="ent0019"><rect fill="#E0D8CC" height="42.1538" rx="2" ry="2" style="stroke:#8C7E6A;stroke-width:0.5;" width="141.5054" x="564" y="638.2969"/><path d="M578.0154,664.4969 L578.0154,655.7738 L585.0769,652.5892 L592.1385,655.7738 L592.1385,664.4969 L585.0769,661.0353" fill="#252327" style="stroke:none;stroke-width:0.5;"/><text fill="#000000" font-family="'Helvetica Neue, Helvetica, Arial, sans-serif'" font-size="12" lengthAdjust="spacing" textLength="95.5371" x="599.9683" y="667.6206">Alias Resolution</text></g><!--entity APP_lmO0mp--><g class="entity" data-qualified-name="APP_lmO0mp" data-source-line="123" id="ent0028"><rect fill="#CCF2FF" height="42.1538" rx="2" ry="2" style="stroke:#0078A0;stroke-width:0.5;" width="159.523" x="155" y="1004.2969"/><path d="M170.5385,1020.1123 L180.7846,1020.1123 L180.7846,1030.6353 L170.5385,1030.6353" fill="#252327" style="stroke:none;stroke-width:0.5;"/><path d="M168.1846,1021.1507 L170.5385,1021.1507 L170.5385,1022.9507 L168.1846,1022.9507" fill="#252327"/><path d="M168.1846,1024.4738 L170.5385,1024.4738 L170.5385,1026.2738 L168.1846,1026.2738" fill="#252327"/><path d="M168.1846,1027.7969 L170.5385,1027.7969 L170.5385,1029.5969 L168.1846,1029.5969" fill="#252327"/><path d="M180.7846,1021.1507 L182.7231,1021.1507 L182.7231,1022.9507 L180.7846,1022.9507" fill="#252327"/><path d="M180.7846,1024.4738 L182.7231,1024.4738 L182.7231,1026.2738 L180.7846,1026.2738" fill="#252327"/><path d="M180.7846,1027.7969 L182.7231,1027.7969 L182.7231,1029.5969 L180.7846,1029.5969" fill="#252327"/><text fill="#000000" font-family="'Helvetica Neue, Helvetica, Arial, sans-serif'" font-size="12" lengthAdjust="spacing" textLength="113.5547" x="190.9683" y="1033.6206">GUI Authoring Tool</text></g><!--link EVT_tTktu8 to EVT_diAYsj--><!--link EVT_diAYsj to EVT_m_E9P1--><!--link EVT_hDF1Qz to EVT_UCrh3V--><!--link GRP_WRITE to GRP_CHANGE--><!--link FNC_b3mOTJ to FNC_nJYA2--><!--link FNC_YD31f3 to PRC_gtgYvQ--><!--link FNC_YD31f3 to PRC_gtgYvQ--><g class="link" data-entity-1="ent0014" data-entity-2="ent0015" data-link-type="dependency" data-source-line="132" id="lnk34"><path d="M406.5,281.5469 C406.5,303.9369 406.5,332.9869 406.5,355.2869" fill="none" id="FNC_YD31f3-to-PRC_gtgYvQ" style="stroke:#181818;stroke-width:1;"/><polygon fill="#181818" points="406.5,361.2869,410.5,352.2869,406.5,356.2869,402.5,352.2869,406.5,361.2869" style="stroke:#181818;stroke-width:1;"/></g><!--link PRC_gtgYvQ to EVT_BKj6NZ--><!--link PRC_gtgYvQ to EVT_BKj6NZ--><g class="link" data-entity-1="ent0015" data-entity-2="ent0016" data-link-type="dependency" data-source-line="133" id="lnk35"><path d="M398,403.5469 C398,425.9369 398,454.9869 398,477.2869" fill="none" id="PRC_gtgYvQ-to-EVT_BKj6NZ" style="stroke:#181818;stroke-width:1;"/><polygon fill="#181818" points="398,483.2869,402,474.2869,398,478.2869,394,474.2869,398,483.2869" style="stroke:#181818;stroke-width:1;"/></g><!--link EVT_BKj6NZ to FNC_dxb6ru--><!--link EVT_BKj6NZ to FNC_dxb6ru--><g class="link" data-entity-1="ent0016" data-entity-2="ent0017" data-link-type="dependency" data-source-line="134" id="lnk36"><path d="M276.67,525.5269 C276.67,536.1394 276.67,549.8063 276.67,564.337 C276.67,571.6024 276.67,579.0838 276.67,586.5073 C276.67,587.4353 276.67,582.3623 276.67,583.2879" fill="none" id="EVT_BKj6NZ-to-FNC_dxb6ru" style="stroke:#181818;stroke-width:1;"/><polygon fill="#181818" points="276.67,589.2879,280.67,580.2879,276.67,584.2879,272.67,580.2879,276.67,589.2879" style="stroke:#181818;stroke-width:1;"/></g><!--link FNC_dxb6ru to EVT_b6XB2D--><!--link FNC_dxb6ru to EVT_b6XB2D--><g class="link" data-entity-1="ent0017" data-entity-2="ent0021" data-link-type="dependency" data-source-line="141" id="lnk39"><path d="M250.25,704.5538 C250.25,707.2691 250.25,710.0291 250.25,712.8101 C250.25,718.3721 250.25,724.0184 250.25,729.5602 C250.25,740.6438 250.25,745.3094 250.25,754.0469" fill="none" id="FNC_dxb6ru-to-EVT_b6XB2D" style="stroke:#181818;stroke-width:1;"/><polygon fill="#181818" points="250.25,760.0469,254.25,751.0469,250.25,755.0469,246.25,751.0469,250.25,760.0469" style="stroke:#181818;stroke-width:1;"/></g><!--link EVT_b6XB2D to FNC_3ZsfnT--><!--link EVT_b6XB2D to FNC_3ZsfnT--><g class="link" data-entity-1="ent0021" data-entity-2="ent0022" data-link-type="dependency" data-source-line="142" id="lnk40"><path d="M348,802.5469 C348,824.9369 348,853.9869 348,876.2869" fill="none" id="EVT_b6XB2D-to-FNC_3ZsfnT" style="stroke:#181818;stroke-width:1;"/><polygon fill="#181818" points="348,882.2869,352,873.2869,348,877.2869,344,873.2869,348,882.2869" style="stroke:#181818;stroke-width:1;"/></g><!--link GRP_WRITE to PRC_wqtZ0P--><!--link PRC_wqtZ0P to APP_lmO0mp--><!--link EVT_tTktu8 to FNC_YD31f3--><g class="link" data-entity-1="ent0003" data-entity-2="ent0014" data-link-type="dependency" data-source-line="129" id="lnk31"><path d="M372,126.5269 C372,156.0369 372,203.1869 372,232.8269" fill="none" id="EVT_tTktu8-to-FNC_YD31f3" style="stroke:#181818;stroke-width:1;"/><polygon fill="#181818" points="372,238.8269,376,229.8269,372,233.8269,368,229.8269,372,238.8269" style="stroke:#181818;stroke-width:1;"/></g><!--link EVT_diAYsj to FNC_YD31f3--><g class="link" data-entity-1="ent0004" data-entity-2="ent0014" data-link-type="dependency" data-source-line="130" id="lnk32"><path d="M552.33,126.5269 C552.33,168.9769 552.33,260.2969 552.33,260.2969 C552.33,260.2969 521.78,260.2969 481.59,260.2969" fill="none" id="EVT_diAYsj-to-FNC_YD31f3" style="stroke:#181818;stroke-width:1;"/><polygon fill="#181818" points="475.59,260.2969,484.59,264.2969,480.59,260.2969,484.59,256.2969,475.59,260.2969" style="stroke:#181818;stroke-width:1;"/></g><!--link EVT_m_E9P1 to FNC_YD31f3--><g class="link" data-entity-1="ent0005" data-entity-2="ent0014" data-link-type="dependency" data-source-line="131" id="lnk33"><path d="M208,126.5469 C208,166.5969 208,249.2969 208,249.2969 C208,249.2969 229.59,249.2969 262.14,249.2969" fill="none" id="EVT_m_E9P1-to-FNC_YD31f3" style="stroke:#181818;stroke-width:1;"/><polygon fill="#181818" points="268.14,249.2969,259.14,245.2969,263.14,249.2969,259.14,253.2969,268.14,249.2969" style="stroke:#181818;stroke-width:1;"/></g><!--link EVT_hDF1Qz to FNC_dxb6ru--><g class="link" data-entity-1="ent0009" data-entity-2="ent0017" data-link-type="dependency" data-source-line="137" id="lnk37"><path d="M957,525.5969 C957,542.4969 957,563.2969 957,563.2969 C957,563.2969 256.33,563.2969 256.33,563.2969 C256.33,563.2969 256.33,568.9275 256.33,577.4614 C256.33,579.5949 256.33,581.9098 256.33,584.3636 C256.33,585.5905 256.33,586.8521 256.33,588.143 C256.33,588.4658 256.33,582.7904 256.33,583.1167" fill="none" id="EVT_hDF1Qz-to-FNC_dxb6ru" style="stroke:#181818;stroke-width:1;"/><polygon fill="#181818" points="256.33,589.1167,260.33,580.1167,256.33,584.1167,252.33,580.1167,256.33,589.1167" style="stroke:#181818;stroke-width:1;"/></g><!--link EVT_UCrh3V to FNC_dxb6ru--><g class="link" data-entity-1="ent0010" data-entity-2="ent0017" data-link-type="dependency" data-source-line="138" id="lnk38"><path d="M1245,525.3469 C1245,553.8769 1245,601.2969 1245,601.2969 C1245,601.2969 1007.8325,601.2969 770.665,601.2969 C763.2535,601.2969 755.842,601.2969 748.4378,601.2969 C744.7357,601.2969 741.0353,601.2969 737.3377,601.2969 C735.4889,601.2969 739.6408,601.2969 737.7935,601.2969" fill="none" id="EVT_UCrh3V-to-FNC_dxb6ru" style="stroke:#181818;stroke-width:1;"/><polygon fill="#181818" points="731.7935,601.2969,740.7935,605.2969,736.7935,601.2969,740.7935,597.2969,731.7935,601.2969" style="stroke:#181818;stroke-width:1;"/></g><!--link FNC_3ZsfnT to APP_lmO0mp--><g class="link" data-entity-1="ent0022" data-entity-2="ent0028" data-link-type="dependency" data-source-line="143" id="lnk41"><path d="M273.75,924.5469 C273.75,946.9369 273.75,975.9869 273.75,998.2869" fill="none" id="FNC_3ZsfnT-to-APP_lmO0mp" style="stroke:#181818;stroke-width:1;"/><polygon fill="#181818" points="273.75,1004.2869,277.75,995.2869,273.75,999.2869,269.75,995.2869,273.75,1004.2869" style="stroke:#181818;stroke-width:1;"/></g><?plantuml-src xLXRKziu57xFhpZhxiosCubnd2ixm4okGBU5D0rqwSvEHh6LM4MHN5jEA5t--qgsWvt4IN6NXtrW80FIkNtdedEaECJ6u0liOIw-kRXGy6y9Sv67vc3ZAGgew7CcBj0SWtQ6wG8BOY6um04kmkEw22sF85e47p6_v6EFJBLiHH_9FOQocIBw3hBvah0PJ17rSOhYyO3P5lSOzg2QsfyWwtOM4ZkSSWzUzLlg9msT4eQLEy0zuV0KWN4R-zY5kf4sXDYjscmQXLyaLYaBGqp78u_CPj8NDdizzVYy288NWQ89fcz0RK2fT2BtrcI6655oZmJXR8UGhl-pJsfyvUOG_8YzHIvyBT_d5jc7hrJQ8pD-XwVYfmI7PERaaBGixFix0x7brZcRqW0p2-yNIQKSMmAn6SL7Hnq-dtDsAWlAbQ4yEO7l1O3sPetrkhrchwmetBEn5-ysEurUlLLuoDQCN9VAqn7wR_6vonbcOfU1JgTlzlkR1WoZqMmPkmpWnHw5FQFRx7Jo8Pu6p59mdrEdwt6Lp9zKwRpqfvV-zDAVNlhJ_xG_-Qv718PVaMSvP8u47cT65OxynGpkvfJvnveZXFlxmS5okTIN5PrximFJC8m3oQ71Wk1bczyTQmOOKAxBN-tao4N20VjOUr-5gcuw3RswQEZri-gz1Z0bb1vhhyoQMJ4RccoL7h_5nngJPhM3bAYfLmmfVLXpodh3M9JbyapjIHthAhQ46deblz2XtiWbL2xhrKTyrLWgt7o2M8mmhrYCyOTYAZCd6PaEo_kPCblHor1rQdeTLVGcg4_89Z_DCqcZfbukFINVkx2kJiupmJNrGv3nQbpNzEexXRTCQz83cUP5NQ_8dKFT_0zeupFvR63hihBAZaHsRUfDMjLhKDFDKlntKPBfbnLQVp9WmLtPhc72XP3DsoQgcyZO5Wg228gXhrhwfz0doTNXp2Vo1YDBvQEGpXKAZyq7j8XhYBy6s1U-1Xdj7lbmEXoCFmtFHxsmHQN4ZpQhyRjl8OgFothjuKHUUWIP8al0cXLiApEhrYorzwv7Op6w5K4pZ_9sG6-VeDWchHl_Isx5NKpn3pJFnxt3WPfu2Nue_INlYpPcVtjgd9VM4IIBJBvOtyDQVZgE_0T3JvdUcvxEMUlYz2VpuyD0LWpFTjFfziiVxlEfbJGXkGDFHT3bFX7S-mQnBrsiQ9cshZgUKxcEGnKPpWnLp2T3bLJc9byIbBM07csVyZNm7Ix7B658h44F3uu2d0nh2Namx8oNNyLdOx0lxglEjsQcnsHX1JWkO9LKnEmmmQahXZJHl-YCRxgLyhIosq2M6xqxR0LIimG-mtPKqvSkzi9hGQOZCp6xMNp8a-TOTph3qWyYidFR_kDB_U9ppZ2TCnlVfIna1yY-czIz8Cn1FlNjW51RDKWMDL0uzP3hP1kPLEQNexUvJRGeaGg6sESqMCL-MpbxUzCoGzs9gQsAJZC-v4bKAaDXG3FpCwd_sJQxEVFJzZYoBUGBU2yVZXIkN3i-ADi-LZxxKpOgGAgc4nVb4vULrkimMMoohPLJijXaIqeZDXhNIOQsH-UJHPQss8M7dHqby-wz5h7JgtDe1VBHhTxDCEASgcZjUWd9qBK6Wp6TNnfpDxFR9O6BEb4XrPGscDAQVeixZnSDE51tbSB6epwPQyLKpegWQM-oMAFHzYJMQDJza3LDJgeXapLDJYfY9u0LEQcAY5N6fHlUfi2AXbLuXtijtsqkuAXb5s76rRKCgKEfxbT47QbCAz44sxQImHfDj4n0KG-Kum4cZwVD9IvMt-5aHMmbdfJoJgihSbBR2UlggvCqBQcWYEzV?></g></svg>