<svg xmlns="http://www.w3.org/2000/svg" xmlns:xlink="http://www.w3.org/1999/xlink" contentStyleType="text/css" data-diagram-type="DESCRIPTION" height="523px" preserveAspectRatio="none" style="width:1358px;height:523px;background:#FAFAFA;" version="1.1" viewBox="0 0 1358 523" width="1358px" zoomAndPan="magnify"><?plantuml 1.2026.3?><defs/><g><rect fill="#FAFAFA" height="523" style="stroke:none;stroke-width:1;" width="1358" x="0" y="0"/><g class="title" data-source-line="105"><text fill="#000000" font-family="'Helvetica Neue, Helvetica, Arial, sans-serif'" font-size="14" font-weight="700" lengthAdjust="spacing" textLength="246.5176" x="552.2412" y="22.9951">Execute Staged Bulk Operation</text></g><!--cluster Common--><g class="cluster" data-qualified-name="Common" data-source-line="107" id="ent0002"><rect fill="#EDE8E1" height="334" rx="2" ry="2" style="stroke:#8C7E6A;stroke-width:1;" width="798" x="21" y="44.2969"/><text fill="#000000" font-family="'Helvetica Neue, Helvetica, Arial, sans-serif'" font-size="12" font-weight="700" lengthAdjust="spacing" textLength="58.8457" x="390.5771" y="57.4355">Common</text></g><!--cluster Application--><g class="cluster" data-qualified-name="Application" data-source-line="117" id="ent0010"><rect fill="#E8F8FF" height="90" rx="2" ry="2" style="stroke:#0078A0;stroke-width:1;" width="1337" x="7" y="410.2969"/><text fill="#000000" font-family="'Helvetica Neue, Helvetica, Arial, sans-serif'" font-size="12" font-weight="700" lengthAdjust="spacing" textLength="76.541" x="637.2295" y="423.4355">Application</text></g><!--entity EVT_BKj6NZ--><g class="entity" data-qualified-name="Common.EVT_BKj6NZ" data-source-line="108" id="ent0003"><rect fill="#E0D8CC" height="42.1538" rx="2" ry="2" style="stroke:#8C7E6A;stroke-width:0.5;" width="227.0816" x="37.5" y="76.2969"/><path d="M51.7923,91.8353 L59.5462,91.8353 A5.2615,5.2615 0 0 1 59.5462,102.9123 L51.7923,102.9123 L54.7,97.3738" fill="#252327" style="stroke:none;stroke-width:0.5;"/><text fill="#000000" font-family="'Helvetica Neue, Helvetica, Arial, sans-serif'" font-size="12" lengthAdjust="spacing" textLength="181.1133" x="73.4683" y="105.6206">Staged Repository Committed</text></g><!--entity FNC_6PI0kV--><g class="entity" data-qualified-name="Common.FNC_6PI0kV" data-source-line="109" id="ent0004"><rect fill="#E0D8CC" height="42.1538" rx="2" ry="2" style="stroke:#8C7E6A;stroke-width:0.5;" width="195.4234" x="324.5" y="76.2969"/><path d="M338.5154,102.4969 L338.5154,93.7738 L345.5769,90.5892 L352.6385,93.7738 L352.6385,102.4969 L345.5769,99.0353" fill="#252327" style="stroke:none;stroke-width:0.5;"/><text fill="#000000" font-family="'Helvetica Neue, Helvetica, Arial, sans-serif'" font-size="12" lengthAdjust="spacing" textLength="149.4551" x="360.4683" y="105.6206">Verify Staged Repository</text></g><!--entity FNC_DrKMhV--><g class="entity" data-qualified-name="Common.FNC_DrKMhV" data-source-line="110" id="ent0005"><rect fill="#E0D8CC" height="42.1538" rx="2" ry="2" style="stroke:#8C7E6A;stroke-width:0.5;" width="239.0288" x="564.5" y="198.2969"/><path d="M578.5154,224.4969 L578.5154,215.7738 L585.5769,212.5892 L592.6385,215.7738 L592.6385,224.4969 L585.5769,221.0353" fill="#252327" style="stroke:none;stroke-width:0.5;"/><text fill="#000000" font-family="'Helvetica Neue, Helvetica, Arial, sans-serif'" font-size="12" lengthAdjust="spacing" textLength="193.0605" x="600.4683" y="227.6206">Resolve Operation Idempotency</text></g><!--entity FNC_g3H3mK--><g class="entity" data-qualified-name="Common.FNC_g3H3mK" data-source-line="111" id="ent0006"><rect fill="#E0D8CC" height="42.1538" rx="2" ry="2" style="stroke:#8C7E6A;stroke-width:0.5;" width="215.1578" x="289.5" y="198.2969"/><path d="M303.5154,224.4969 L303.5154,215.7738 L310.5769,212.5892 L317.6385,215.7738 L317.6385,224.4969 L310.5769,221.0353" fill="#252327" style="stroke:none;stroke-width:0.5;"/><text fill="#000000" font-family="'Helvetica Neue, Helvetica, Arial, sans-serif'" font-size="12" lengthAdjust="spacing" textLength="169.1895" x="325.4683" y="227.6206">Apply Operations to Staging</text></g><!--entity FNC_hbgFU3--><g class="entity" data-qualified-name="Common.FNC_hbgFU3" data-source-line="112" id="ent0007"><rect fill="#E0D8CC" height="42.1538" rx="2" ry="2" style="stroke:#8C7E6A;stroke-width:0.5;" width="203.9312" x="305" y="320.2969"/><path d="M319.0154,346.4969 L319.0154,337.7738 L326.0769,334.5892 L333.1385,337.7738 L333.1385,346.4969 L326.0769,343.0353" fill="#252327" style="stroke:none;stroke-width:0.5;"/><text fill="#000000" font-family="'Helvetica Neue, Helvetica, Arial, sans-serif'" font-size="12" lengthAdjust="spacing" textLength="157.9629" x="340.9683" y="349.6206">Create Staging Repository</text></g><!--entity FNC_tRAV0x--><g class="entity" data-qualified-name="Common.FNC_tRAV0x" data-source-line="113" id="ent0008"><rect fill="#E0D8CC" height="42.1538" rx="2" ry="2" style="stroke:#8C7E6A;stroke-width:0.5;" width="207.3765" x="37.5" y="320.2969"/><path d="M51.5154,346.4969 L51.5154,337.7738 L58.5769,334.5892 L65.6385,337.7738 L65.6385,346.4969 L58.5769,343.0353" fill="#252327" style="stroke:none;stroke-width:0.5;"/><text fill="#000000" font-family="'Helvetica Neue, Helvetica, Arial, sans-serif'" font-size="12" lengthAdjust="spacing" textLength="161.4082" x="73.4683" y="349.6206">Commit Staged Repository</text></g><!--entity PRC_gtgYvQ--><g class="entity" data-qualified-name="Common.PRC_gtgYvQ" data-source-line="114" id="ent0009"><rect fill="#E0D8CC" height="42.1538" rx="2" ry="2" style="stroke:#8C7E6A;stroke-width:0.5;" width="233.9019" x="569" y="320.2969"/><path d="M582.6,335.9738 L591.3231,335.9738 L591.3231,334.1738 L597.5538,341.3738 L591.3231,348.5738 L591.3231,346.7738 L582.6,346.7738" fill="#252327" style="stroke:none;stroke-width:0.5;"/><text fill="#000000" font-family="'Helvetica Neue, Helvetica, Arial, sans-serif'" font-size="12" lengthAdjust="spacing" textLength="187.9336" x="604.9683" y="349.6206">Execute Staged Bulk Operation</text></g><!--entity APP_5n_KQJ--><g class="entity" data-qualified-name="Application.APP_5n_KQJ" data-source-line="118" id="ent0011"><rect fill="#CCF2FF" height="42.1538" rx="2" ry="2" style="stroke:#0078A0;stroke-width:0.5;" width="159.189" x="685.5" y="442.2969"/><path d="M701.0385,458.1123 L711.2846,458.1123 L711.2846,468.6353 L701.0385,468.6353" fill="#252327" style="stroke:none;stroke-width:0.5;"/><path d="M698.6846,459.1507 L701.0385,459.1507 L701.0385,460.9507 L698.6846,460.9507" fill="#252327"/><path d="M698.6846,462.4738 L701.0385,462.4738 L701.0385,464.2738 L698.6846,464.2738" fill="#252327"/><path d="M698.6846,465.7969 L701.0385,465.7969 L701.0385,467.5969 L698.6846,467.5969" fill="#252327"/><path d="M711.2846,459.1507 L713.2231,459.1507 L713.2231,460.9507 L711.2846,460.9507" fill="#252327"/><path d="M711.2846,462.4738 L713.2231,462.4738 L713.2231,464.2738 L711.2846,464.2738" fill="#252327"/><path d="M711.2846,465.7969 L713.2231,465.7969 L713.2231,467.5969 L711.2846,467.5969" fill="#252327"/><text fill="#000000" font-family="'Helvetica Neue, Helvetica, Arial, sans-serif'" font-size="12" lengthAdjust="spacing" textLength="113.2207" x="721.4683" y="471.6206">Bulk Write Handler</text></g><!--entity APP_HOOYAQ--><g class="entity" data-qualified-name="Application.APP_HOOYAQ" data-source-line="119" id="ent0012"><rect fill="#CCF2FF" height="42.1538" rx="2" ry="2" style="stroke:#0078A0;stroke-width:0.5;" width="211.1031" x="904.5" y="442.2969"/><path d="M920.0385,458.1123 L930.2846,458.1123 L930.2846,468.6353 L920.0385,468.6353" fill="#252327" style="stroke:none;stroke-width:0.5;"/><path d="M917.6846,459.1507 L920.0385,459.1507 L920.0385,460.9507 L917.6846,460.9507" fill="#252327"/><path d="M917.6846,462.4738 L920.0385,462.4738 L920.0385,464.2738 L917.6846,464.2738" fill="#252327"/><path d="M917.6846,465.7969 L920.0385,465.7969 L920.0385,467.5969 L917.6846,467.5969" fill="#252327"/><path d="M930.2846,459.1507 L932.2231,459.1507 L932.2231,460.9507 L930.2846,460.9507" fill="#252327"/><path d="M930.2846,462.4738 L932.2231,462.4738 L932.2231,464.2738 L930.2846,464.2738" fill="#252327"/><path d="M930.2846,465.7969 L932.2231,465.7969 L932.2231,467.5969 L930.2846,467.5969" fill="#252327"/><text fill="#000000" font-family="'Helvetica Neue, Helvetica, Arial, sans-serif'" font-size="12" lengthAdjust="spacing" textLength="165.1348" x="940.4683" y="471.6206">Batch Transaction Manager</text></g><!--entity APP_PDJI8F--><g class="entity" data-qualified-name="Application.APP_PDJI8F" data-source-line="120" id="ent0013"><rect fill="#CCF2FF" height="42.1538" rx="2" ry="2" style="stroke:#0078A0;stroke-width:0.5;" width="159.1656" x="239.5" y="442.2969"/><path d="M255.0385,458.1123 L265.2846,458.1123 L265.2846,468.6353 L255.0385,468.6353" fill="#252327" style="stroke:none;stroke-width:0.5;"/><path d="M252.6846,459.1507 L255.0385,459.1507 L255.0385,460.9507 L252.6846,460.9507" fill="#252327"/><path d="M252.6846,462.4738 L255.0385,462.4738 L255.0385,464.2738 L252.6846,464.2738" fill="#252327"/><path d="M252.6846,465.7969 L255.0385,465.7969 L255.0385,467.5969 L252.6846,467.5969" fill="#252327"/><path d="M265.2846,459.1507 L267.2231,459.1507 L267.2231,460.9507 L265.2846,460.9507" fill="#252327"/><path d="M265.2846,462.4738 L267.2231,462.4738 L267.2231,464.2738 L265.2846,464.2738" fill="#252327"/><path d="M265.2846,465.7969 L267.2231,465.7969 L267.2231,467.5969 L265.2846,467.5969" fill="#252327"/><text fill="#000000" font-family="'Helvetica Neue, Helvetica, Arial, sans-serif'" font-size="12" lengthAdjust="spacing" textLength="113.1973" x="275.4683" y="471.6206">Operation Registry</text></g><!--entity APP_WK_78v--><g class="entity" data-qualified-name="Application.APP_WK_78v" data-source-line="121" id="ent0014"><rect fill="#CCF2FF" height="42.1538" rx="2" ry="2" style="stroke:#0078A0;stroke-width:0.5;" width="166.396" x="459" y="442.2969"/><path d="M474.5385,458.1123 L484.7846,458.1123 L484.7846,468.6353 L474.5385,468.6353" fill="#252327" style="stroke:none;stroke-width:0.5;"/><path d="M472.1846,459.1507 L474.5385,459.1507 L474.5385,460.9507 L472.1846,460.9507" fill="#252327"/><path d="M472.1846,462.4738 L474.5385,462.4738 L474.5385,464.2738 L472.1846,464.2738" fill="#252327"/><path d="M472.1846,465.7969 L474.5385,465.7969 L474.5385,467.5969 L472.1846,467.5969" fill="#252327"/><path d="M484.7846,459.1507 L486.7231,459.1507 L486.7231,460.9507 L484.7846,460.9507" fill="#252327"/><path d="M484.7846,462.4738 L486.7231,462.4738 L486.7231,464.2738 L484.7846,464.2738" fill="#252327"/><path d="M484.7846,465.7969 L486.7231,465.7969 L486.7231,467.5969 L484.7846,467.5969" fill="#252327"/><text fill="#000000" font-family="'Helvetica Neue, Helvetica, Arial, sans-serif'" font-size="12" lengthAdjust="spacing" textLength="120.4277" x="494.9683" y="471.6206">Bulk Delete Handler</text></g><!--entity DOB_hExrX3--><g class="entity" data-qualified-name="Application.DOB_hExrX3" data-source-line="122" id="ent0015"><rect fill="#CCF2FF" height="42.1538" rx="2" ry="2" style="stroke:#0078A0;stroke-width:0.5;" width="151.7124" x="1176" y="442.2969"/><path d="M1190.1538,457.5584 L1204,457.5584 L1204,459.3584 L1190.1538,459.3584" fill="#252327"/><path d="M1190.1538,467.3892 L1204,467.3892 L1204,469.1892 L1190.1538,469.1892" fill="#252327"/><path d="M1190.1538,459.3584 L1190.1538,467.3892 L1191.9538,467.3892 L1191.9538,459.3584" fill="#252327"/><path d="M1202.2,459.3584 L1202.2,467.3892 L1204,467.3892 L1204,459.3584" fill="#252327"/><path d="M1190.1538,459.1507 L1204,459.1507 L1204,460.9507 L1190.1538,460.9507" fill="#252327"/><text fill="#000000" font-family="'Helvetica Neue, Helvetica, Arial, sans-serif'" font-size="12" lengthAdjust="spacing" textLength="105.7441" x="1211.9683" y="471.6206">Operation Record</text></g><!--entity DOB_hhYsiw--><g class="entity" data-qualified-name="Application.DOB_hhYsiw" data-source-line="123" id="ent0016"><rect fill="#CCF2FF" height="42.1538" rx="2" ry="2" style="stroke:#0078A0;stroke-width:0.5;" width="156.4234" x="23" y="442.2969"/><path d="M37.1538,457.5584 L51,457.5584 L51,459.3584 L37.1538,459.3584" fill="#252327"/><path d="M37.1538,467.3892 L51,467.3892 L51,469.1892 L37.1538,469.1892" fill="#252327"/><path d="M37.1538,459.3584 L37.1538,467.3892 L38.9538,467.3892 L38.9538,459.3584" fill="#252327"/><path d="M49.2,459.3584 L49.2,467.3892 L51,467.3892 L51,459.3584" fill="#252327"/><path d="M37.1538,459.1507 L51,459.1507 L51,460.9507 L37.1538,460.9507" fill="#252327"/><text fill="#000000" font-family="'Helvetica Neue, Helvetica, Arial, sans-serif'" font-size="12" lengthAdjust="spacing" textLength="110.4551" x="58.9683" y="471.6206">Staged Repository</text></g><!--link EVT_BKj6NZ to FNC_6PI0kV--><!--link FNC_6PI0kV to FNC_DrKMhV--><!--link FNC_DrKMhV to FNC_g3H3mK--><!--link FNC_g3H3mK to FNC_hbgFU3--><!--link FNC_hbgFU3 to FNC_g3H3mK--><g class="link" data-entity-1="ent0007" data-entity-2="ent0006" data-link-type="dependency" data-source-line="142" id="lnk29"><path d="M438,320.0469 C438,297.6569 438,268.6069 438,246.3069" fill="none" id="FNC_hbgFU3-to-FNC_g3H3mK" style="stroke:#181818;stroke-width:1;"/><polygon fill="#181818" points="438,240.3069,434,249.3069,438,245.3069,442,249.3069,438,240.3069" style="stroke:#181818;stroke-width:1;"/></g><!--link FNC_hbgFU3 to FNC_tRAV0x--><!--link FNC_tRAV0x to PRC_gtgYvQ--><!--link APP_5n_KQJ to APP_HOOYAQ--><!--link APP_HOOYAQ to APP_PDJI8F--><!--link APP_PDJI8F to APP_WK_78v--><!--link APP_WK_78v to DOB_hExrX3--><!--link DOB_hExrX3 to DOB_hhYsiw--><!--link FNC_DrKMhV to FNC_hbgFU3--><g class="link" data-entity-1="ent0005" data-entity-2="ent0007" data-link-type="dependency" data-source-line="141" id="lnk28"><path d="M564.19,209.2969 C550.88,209.2969 542,209.2969 542,209.2969 C542,209.2969 542,341.2969 542,341.2969 C542,341.2969 534.15,341.2969 515.32,341.2969" fill="none" id="FNC_DrKMhV-to-FNC_hbgFU3" style="stroke:#181818;stroke-width:1;"/><polygon fill="#181818" points="509.32,341.2969,518.32,345.2969,514.32,341.2969,518.32,337.2969,509.32,341.2969" style="stroke:#181818;stroke-width:1;"/></g><!--link FNC_g3H3mK to FNC_6PI0kV--><g class="link" data-entity-1="ent0006" data-entity-2="ent0004" data-link-type="dependency" data-source-line="143" id="lnk30"><path d="M414.5,198.0469 C414.5,175.6569 414.5,146.6069 414.5,124.3069" fill="none" id="FNC_g3H3mK-to-FNC_6PI0kV" style="stroke:#181818;stroke-width:1;"/><polygon fill="#181818" points="414.5,118.3069,410.5,127.3069,414.5,123.3069,418.5,127.3069,414.5,118.3069" style="stroke:#181818;stroke-width:1;"/></g><!--link FNC_6PI0kV to FNC_tRAV0x--><g class="link" data-entity-1="ent0004" data-entity-2="ent0008" data-link-type="dependency" data-source-line="144" id="lnk31"><path d="M324.48,104.2969 C298.25,104.2969 277,104.2969 277,104.2969 C277,104.2969 277,334.2969 277,334.2969 C277,334.2969 269.38,334.2969 250.77,334.2969" fill="none" id="FNC_6PI0kV-to-FNC_tRAV0x" style="stroke:#181818;stroke-width:1;"/><polygon fill="#181818" points="244.77,334.2969,253.77,338.2969,249.77,334.2969,253.77,330.2969,244.77,334.2969" style="stroke:#181818;stroke-width:1;"/></g><!--link FNC_tRAV0x to EVT_BKj6NZ--><g class="link" data-entity-1="ent0008" data-entity-2="ent0003" data-link-type="dependency" data-source-line="145" id="lnk32"><path d="M141,320.0669 C141,273.8069 141,170.3569 141,124.2969" fill="none" id="FNC_tRAV0x-to-EVT_BKj6NZ" style="stroke:#181818;stroke-width:1;"/><polygon fill="#181818" points="141,118.2969,137,127.2969,141,123.2969,145,127.2969,141,118.2969" style="stroke:#181818;stroke-width:1;"/></g><!--link FNC_DrKMhV to DOB_hExrX3--><g class="link" data-entity-1="ent0005" data-entity-2="ent0015" data-link-type="dependency" data-source-line="146" id="lnk33"><path d="M803.71,219.2969 C977.03,219.2969 1277.33,219.2969 1277.33,219.2969 C1277.33,219.2969 1277.33,376.7069 1277.33,436.0669" fill="none" id="FNC_DrKMhV-to-DOB_hExrX3" style="stroke:#181818;stroke-width:1;"/><polygon fill="#181818" points="1277.33,442.0669,1281.33,433.0669,1277.33,437.0669,1273.33,433.0669,1277.33,442.0669" style="stroke:#181818;stroke-width:1;"/></g><!--link FNC_hbgFU3 to DOB_hhYsiw--><g class="link" data-entity-1="ent0007" data-entity-2="ent0016" data-link-type="dependency" data-source-line="147" id="lnk34"><path d="M336.17,362.5469 C336.17,377.2969 336.17,394.2969 336.17,394.2969 C336.17,394.2969 108.25,394.2969 108.25,394.2969 C108.25,394.2969 108.25,415.9269 108.25,436.2169" fill="none" id="FNC_hbgFU3-to-DOB_hhYsiw" style="stroke:#181818;stroke-width:1;"/><polygon fill="#181818" points="108.25,442.2169,112.25,433.2169,108.25,437.2169,104.25,433.2169,108.25,442.2169" style="stroke:#181818;stroke-width:1;"/></g><!--reverse link PRC_gtgYvQ to APP_5n_KQJ--><g class="link" data-entity-1="ent0009" data-entity-2="ent0011" data-link-type="dependency" data-source-line="148" id="lnk36"><path d="M744.25,368.5469 C744.25,390.9369 744.25,419.9869 744.25,442.2869" fill="none" id="PRC_gtgYvQ-backto-APP_5n_KQJ" style="stroke:#181818;stroke-width:1;"/><polygon fill="#181818" points="744.25,362.5469,740.25,371.5469,744.25,367.5469,748.25,371.5469,744.25,362.5469" style="stroke:#181818;stroke-width:1;"/></g><!--reverse link PRC_gtgYvQ to APP_WK_78v--><g class="link" data-entity-1="ent0009" data-entity-2="ent0014" data-link-type="dependency" data-source-line="149" id="lnk38"><path d="M602.6,368.5469 C602.6,390.9369 602.6,419.9869 602.6,442.2869" fill="none" id="PRC_gtgYvQ-backto-APP_WK_78v" style="stroke:#181818;stroke-width:1;"/><polygon fill="#181818" points="602.6,362.5469,598.6,371.5469,602.6,367.5469,606.6,371.5469,602.6,362.5469" style="stroke:#181818;stroke-width:1;"/></g><!--reverse link PRC_gtgYvQ to APP_HOOYAQ--><g class="link" data-entity-1="ent0009" data-entity-2="ent0012" data-link-type="dependency" data-source-line="150" id="lnk40"><path d="M809.43,341.2969 C902.15,341.2969 1010,341.2969 1010,341.2969 C1010,341.2969 1010,407.0969 1010,442.0469" fill="none" id="PRC_gtgYvQ-backto-APP_HOOYAQ" style="stroke:#181818;stroke-width:1;"/><polygon fill="#181818" points="803.43,341.2969,812.43,345.2969,808.43,341.2969,812.43,337.2969,803.43,341.2969" style="stroke:#181818;stroke-width:1;"/></g><!--reverse link PRC_gtgYvQ to APP_PDJI8F--><g class="link" data-entity-1="ent0009" data-entity-2="ent0013" data-link-type="dependency" data-source-line="151" id="lnk42"><path d="M591.4,368.3769 C591.4,388.6669 591.4,410.2969 591.4,410.2969 C591.4,410.2969 367.33,410.2969 367.33,410.2969 C367.33,410.2969 367.33,427.2969 367.33,442.0469" fill="none" id="PRC_gtgYvQ-backto-APP_PDJI8F" style="stroke:#181818;stroke-width:1;"/><polygon fill="#181818" points="591.4,362.3769,587.4,371.3769,591.4,367.3769,595.4,371.3769,591.4,362.3769" style="stroke:#181818;stroke-width:1;"/></g><?plantuml-src xLXjKziu4FwUNx7dtipTpM1ZEwzq83CX90UblAKjlTxDJKROYgtYI1vRIO1U__kj4gTsm0vnoKS6c2ZQb-VHxcebuJENGYnfH8My3scb4jyo7fA8ZC6b8p89P5zmUKx65BHZ6aofP0w1SpgXE_3Z-mvq8aQ27OW9Z_MOHcoavJlwm1ueM7P66Fl45JF6FHYH8AOPIIGct7L4n6a4jSpy3N5klRcmAm8HmPj-H_ragGUCKxKS497qHKR0XKjZ6aB3p08HVgicMsRb5-IAjZ2WmV1Zn3mFryAztqUH6E-053iGa1iQ_05g0dIzZNChDWDA0lP091EymCWm_bjdDVmKbZ3yGADfANwTE1OEMyTFrzVO3D_JaVmfmm7p_1AMZaFZk30GJvPrmaV1X7A7hZV9f9mwad0leFlxdJ0Ci8OLop-ngaACPxiDtoe0XuyBhTVgj_fz9H6HIwDarZIRhOvP-PxllYl6umqy7_LQFUknvrQtsMjqYZoJbFZG4UDGSCfb4K2tsxVBKdU994DnynLdjkcMJjVmx9b7hMwtN2164-weA6pJPnW9LO8_wR8YHOW51pT2IYm_bodFoB3YlxRRrtRxscvVs-rhkzrYkut3Y4aAlvB8yTcOI3hCJHRinrCFxiO1ZmyqNyhmxUxkR3OpPbL3HDwkRPhcBcfeC6LqTYZk3ZGJJB0Q-AkrzqCYVN0FjBCQr0pRRngrQTDe7DSUD80H2u83xOrTjwjsKyC67ubRUg1nXDLsCwQsKJNHUg_kMqRJd5huzLZDeOzL5q-CcaQrlD6UqInbP5b6xGU_Mc8rdzp0B65OrYpX-AoPoamx9zEPNREb_5ODquIgqJ9zoyJXWfUQNBkQkHKQxFs4MTsmp6bzZeX6r-hhSv5hbhUQGosI-pp1ed3FkydM0cr1pQyR3OBHLX67kHh-jP2N5TY6fM-olOguBXlLbkZQnXweo6EaQ-yLNol0c0Fkgcd3gEBCdc6_W6tI0hT6je6vjdnaTcqRhQ1crB5WR3tvdEgOVMm8ZOq9LoIJ0ONU7NKcIFo391vruN0ItC95IADvgwrKVhHqq1OdiGO5Pt96S_znVNsB7HBG0ykeVsylaGOq536J8he7vOz9ILtbV7cyaHXwrn-7XwTV6-T_5_jVriGAnBMwGjy_HLB-CwSTGlJFkyF6vObvUrqIOa1ZWTVtD5Pmub8yboHUemfmZgBJCxyiZhfUtQSeiNg5g7LXuFDHlEfnTNnQ4gKRKP8KWNfAF1Sn_yRhVwgMnPXdUTEao47dshmhXaXsrmh2sbfMCEcj154k1nWiwNsPNga7NWOcSwDLHiKNt09gkNUL5Q9pPf_d3UEOS3UWaG8gkf0YryxbvR3EXwTNxru4IwJZmqTyhyLaqKZF2CTGRO9-V77nfNFr4lHqfmoenx0ftMy0UtdqxgJLVt6iZsX0ImNxy-cmsPeMusPkAOMBnBVtlAEjlWCGuEZYSEZtxgA_gkK1ShTFFeB_9MOpLTk_uHDHXyv42ZqWzs8Ytm8ULvIuW64PuxfZc37fCmvUKk2nigYa_HVqVtpckfJ_6wc7g9xjc-amLolfUkamLolfMkamLolfE-amLojf7UdmYLPcwwSxwubMfkpJOQvMKgNfC5ShgQbq-4GhKnZfC5zhaLoLswxWVF7Vg7WbodgxA6Q992VcYIGdiuaa9xOeoHpKMGQkc76KPbQLPP6LBbQJpSKaHDcZF2sZbYTRPYTFjip9Ozd_?></g></svg>