<svg xmlns="http://www.w3.org/2000/svg" xmlns:xlink="http://www.w3.org/1999/xlink" contentStyleType="text/css" data-diagram-type="DESCRIPTION" height="611px" preserveAspectRatio="none" style="width:1408px;height:611px;background:#FAFAFA;" version="1.1" viewBox="0 0 1408 611" width="1408px" zoomAndPan="magnify"><?plantuml 1.2026.3?><defs/><g><rect fill="#FAFAFA" height="611" style="stroke:none;stroke-width:1;" width="1408" x="0" y="0"/><g class="title" data-source-line="78"><text fill="#000000" font-family="'Helvetica Neue, Helvetica, Arial, sans-serif'" font-size="14" font-weight="700" lengthAdjust="spacing" textLength="457.8027" x="471.5986" y="22.9951">Reverse Architecture &amp; Architecture Conformance Review</text></g><!--cluster Services--><g class="cluster" data-qualified-name="Services" data-source-line="80" id="ent0002"><rect fill="#EDE8E1" height="90" rx="2" ry="2" style="stroke:#8C7E6A;stroke-width:1;" width="772" x="7" y="44.2969"/><text fill="#000000" font-family="'Helvetica Neue, Helvetica, Arial, sans-serif'" font-size="12" font-weight="700" lengthAdjust="spacing" textLength="57.0293" x="364.4854" y="57.4355">Services</text></g><!--cluster Processes--><g class="cluster" data-qualified-name="Processes" data-source-line="88" id="ent0008"><rect fill="#EDE8E1" height="439" rx="2" ry="2" style="stroke:#8C7E6A;stroke-width:1;" width="1314" x="80" y="158.2969"/><text fill="#000000" font-family="'Helvetica Neue, Helvetica, Arial, sans-serif'" font-size="12" font-weight="700" lengthAdjust="spacing" textLength="67.7754" x="703.1123" y="171.4355">Processes</text></g><!--cluster PRC_CYgU64--><g class="cluster" data-qualified-name="Processes.PRC_CYgU64" data-source-line="89" id="ent0009"><rect fill="#E0D8CC" height="115" rx="2" ry="2" style="stroke:#8C7E6A;stroke-width:1;" width="880" x="112" y="206.2969"/><path d="M470.9264,213.9738 L479.6495,213.9738 L479.6495,212.1738 L485.8802,219.3738 L479.6495,226.5738 L479.6495,224.7738 L470.9264,224.7738" fill="#252327" style="stroke:none;stroke-width:1;"/><text fill="#000000" font-family="'Helvetica Neue, Helvetica, Arial, sans-serif'" font-size="12" font-weight="700" lengthAdjust="spacing" textLength="143.0156" x="493.658" y="227.6206">Reverse Architecture</text></g><!--cluster PRC_vlE_5j--><g class="cluster" data-qualified-name="Processes.PRC_vlE_5j" data-source-line="96" id="ent0015"><rect fill="#E0D8CC" height="359" rx="2" ry="2" style="stroke:#8C7E6A;stroke-width:1;" width="330" x="1032" y="206.2969"/><path d="M1072.151,213.9738 L1080.8741,213.9738 L1080.8741,212.1738 L1087.1049,219.3738 L1080.8741,226.5738 L1080.8741,224.7738 L1072.151,224.7738" fill="#252327" style="stroke:none;stroke-width:1;"/><text fill="#000000" font-family="'Helvetica Neue, Helvetica, Arial, sans-serif'" font-size="12" font-weight="700" lengthAdjust="spacing" textLength="230.5664" x="1094.8826" y="227.6206">Architecture Conformance Review</text></g><!--entity SRV_GsUtNL--><g class="entity" data-qualified-name="Services.SRV_GsUtNL" data-source-line="81" id="ent0003"><rect fill="#E0D8CC" height="42.1538" rx="2" ry="2" style="stroke:#8C7E6A;stroke-width:0.5;" width="192.9331" x="23.5" y="76.2969"/><path d="M37.9308,91.9738 L47.9,91.9738 A3.8769,3.8769 0 0 1 47.9,102.7738 L37.9308,102.7738 A3.8769,3.8769 0 0 1 37.9308,91.9738" fill="#252327" style="stroke:none;stroke-width:0.5;"/><text fill="#000000" font-family="'Helvetica Neue, Helvetica, Arial, sans-serif'" font-size="12" lengthAdjust="spacing" textLength="146.9648" x="59.4683" y="105.6206">Model Authoring Service</text></g><!--entity SRV_Ij6Kl6--><g class="entity" data-qualified-name="Services.SRV_Ij6Kl6" data-source-line="82" id="ent0004"><rect fill="#E0D8CC" height="42.1538" rx="2" ry="2" style="stroke:#8C7E6A;stroke-width:0.5;" width="162.4878" x="277" y="76.2969"/><path d="M291.4308,91.9738 L301.4,91.9738 A3.8769,3.8769 0 0 1 301.4,102.7738 L291.4308,102.7738 A3.8769,3.8769 0 0 1 291.4308,91.9738" fill="#252327" style="stroke:none;stroke-width:0.5;"/><text fill="#000000" font-family="'Helvetica Neue, Helvetica, Arial, sans-serif'" font-size="12" lengthAdjust="spacing" textLength="116.5195" x="312.9683" y="105.6206">Verification Service</text></g><!--entity SRV_Qr8St8--><g class="entity" data-qualified-name="Services.SRV_Qr8St8" data-source-line="83" id="ent0005"><rect fill="#E0D8CC" height="42.1538" rx="2" ry="2" style="stroke:#8C7E6A;stroke-width:0.5;" width="263.691" x="499" y="76.2969"/><path d="M513.4308,91.9738 L523.4,91.9738 A3.8769,3.8769 0 0 1 523.4,102.7738 L513.4308,102.7738 A3.8769,3.8769 0 0 1 513.4308,91.9738" fill="#252327" style="stroke:none;stroke-width:0.5;"/><text fill="#000000" font-family="'Helvetica Neue, Helvetica, Arial, sans-serif'" font-size="12" lengthAdjust="spacing" textLength="217.7227" x="534.9683" y="105.6206">Discovery, Querying &amp; Stats Service</text></g><!--entity FNC_erPw5B--><g class="entity" data-qualified-name="Processes.PRC_CYgU64.FNC_erPw5B" data-source-line="90" id="ent0010"><rect fill="#E0D8CC" height="42.1538" rx="2" ry="2" style="stroke:#8C7E6A;stroke-width:0.5;" width="199.7242" x="180" y="255.2969"/><path d="M194.0154,281.4969 L194.0154,272.7738 L201.0769,269.5892 L208.1385,272.7738 L208.1385,281.4969 L201.0769,278.0353" fill="#252327" style="stroke:none;stroke-width:0.5;"/><text fill="#000000" font-family="'Helvetica Neue, Helvetica, Arial, sans-serif'" font-size="12" lengthAdjust="spacing" textLength="153.7559" x="215.9683" y="284.6206">Explore System Structure</text></g><!--entity FNC_oRz6Qe--><g class="entity" data-qualified-name="Processes.PRC_CYgU64.FNC_oRz6Qe" data-source-line="91" id="ent0011"><rect fill="#E0D8CC" height="42.1538" rx="2" ry="2" style="stroke:#8C7E6A;stroke-width:0.5;" width="284.4038" x="440" y="255.2969"/><path d="M454.0154,281.4969 L454.0154,272.7738 L461.0769,269.5892 L468.1385,272.7738 L468.1385,281.4969 L461.0769,278.0353" fill="#252327" style="stroke:none;stroke-width:0.5;"/><text fill="#000000" font-family="'Helvetica Neue, Helvetica, Arial, sans-serif'" font-size="12" lengthAdjust="spacing" textLength="238.4355" x="475.9683" y="284.6206">Map Elements to Architecture Concepts</text></g><!--entity FNC_SXt2mM--><g class="entity" data-qualified-name="Processes.PRC_CYgU64.FNC_SXt2mM" data-source-line="92" id="ent0012"><rect fill="#E0D8CC" height="42.1538" rx="2" ry="2" style="stroke:#8C7E6A;stroke-width:0.5;" width="184.0328" x="784" y="255.2969"/><path d="M798.0154,281.4969 L798.0154,272.7738 L805.0769,269.5892 L812.1385,272.7738 L812.1385,281.4969 L805.0769,278.0353" fill="#252327" style="stroke:none;stroke-width:0.5;"/><text fill="#000000" font-family="'Helvetica Neue, Helvetica, Arial, sans-serif'" font-size="12" lengthAdjust="spacing" textLength="138.0645" x="819.9683" y="284.6206">Check Model Coverage</text></g><!--entity FNC_ns4pWw--><g class="entity" data-qualified-name="Processes.PRC_vlE_5j.FNC_ns4pWw" data-source-line="97" id="ent0016"><rect fill="#E0D8CC" height="42.1538" rx="2" ry="2" style="stroke:#8C7E6A;stroke-width:0.5;" width="221.4449" x="1100.5" y="255.2969"/><path d="M1114.5154,281.4969 L1114.5154,272.7738 L1121.5769,269.5892 L1128.6385,272.7738 L1128.6385,281.4969 L1121.5769,278.0353" fill="#252327" style="stroke:none;stroke-width:0.5;"/><text fill="#000000" font-family="'Helvetica Neue, Helvetica, Arial, sans-serif'" font-size="12" lengthAdjust="spacing" textLength="175.4766" x="1136.4683" y="284.6206">Extract Architecture Baseline</text></g><!--entity FNC_tFTeOT--><g class="entity" data-qualified-name="Processes.PRC_vlE_5j.FNC_tFTeOT" data-source-line="98" id="ent0017"><rect fill="#E0D8CC" height="42.1538" rx="2" ry="2" style="stroke:#8C7E6A;stroke-width:0.5;" width="274.4019" x="1064" y="377.2969"/><path d="M1078.0154,403.4969 L1078.0154,394.7738 L1085.0769,391.5892 L1092.1385,394.7738 L1092.1385,403.4969 L1085.0769,400.0353" fill="#252327" style="stroke:none;stroke-width:0.5;"/><text fill="#000000" font-family="'Helvetica Neue, Helvetica, Arial, sans-serif'" font-size="12" lengthAdjust="spacing" textLength="228.4336" x="1099.9683" y="406.6206">Assess Implementation Against Model</text></g><!--entity FNC_omV6nu--><g class="entity" data-qualified-name="Processes.PRC_vlE_5j.FNC_omV6nu" data-source-line="99" id="ent0018"><rect fill="#E0D8CC" height="42.1538" rx="2" ry="2" style="stroke:#8C7E6A;stroke-width:0.5;" width="231.5581" x="1085" y="499.2969"/><path d="M1099.0154,525.4969 L1099.0154,516.7738 L1106.0769,513.5892 L1113.1385,516.7738 L1113.1385,525.4969 L1106.0769,522.0353" fill="#252327" style="stroke:none;stroke-width:0.5;"/><text fill="#000000" font-family="'Helvetica Neue, Helvetica, Arial, sans-serif'" font-size="12" lengthAdjust="spacing" textLength="185.5898" x="1120.9683" y="528.6206">Report Architecture Deviations</text></g><!--link SRV_GsUtNL to SRV_Ij6Kl6--><!--link SRV_Ij6Kl6 to SRV_Qr8St8--><!--link FNC_erPw5B to FNC_oRz6Qe--><!--link FNC_oRz6Qe to FNC_SXt2mM--><!--link FNC_ns4pWw to FNC_tFTeOT--><!--link FNC_ns4pWw to FNC_tFTeOT--><g class="link" data-entity-1="ent0016" data-entity-2="ent0017" data-link-type="dependency" data-source-line="114" id="lnk25"><path d="M1247.83,297.5469 C1247.83,319.9369 1247.83,348.9869 1247.83,371.2869" fill="none" id="FNC_ns4pWw-to-FNC_tFTeOT" style="stroke:#181818;stroke-width:1;"/><polygon fill="#181818" points="1247.83,377.2869,1251.83,368.2869,1247.83,372.2869,1243.83,368.2869,1247.83,377.2869" style="stroke:#181818;stroke-width:1;"/></g><!--link FNC_tFTeOT to FNC_omV6nu--><!--link FNC_tFTeOT to FNC_omV6nu--><g class="link" data-entity-1="ent0017" data-entity-2="ent0018" data-link-type="dependency" data-source-line="115" id="lnk26"><path d="M1239.67,419.5469 C1239.67,441.9369 1239.67,470.9869 1239.67,493.2869" fill="none" id="FNC_tFTeOT-to-FNC_omV6nu" style="stroke:#181818;stroke-width:1;"/><polygon fill="#181818" points="1239.67,499.2869,1243.67,490.2869,1239.67,494.2869,1235.67,490.2869,1239.67,499.2869" style="stroke:#181818;stroke-width:1;"/></g><!--link PRC_CYgU64 to PRC_vlE_5j--><!--link SRV_GsUtNL to PRC_CYgU64--><!--link SRV_GsUtNL to PRC_CYgU64--><g class="link" data-entity-1="ent0003" data-entity-2="ent0009" data-link-type="dependency" data-source-line="110" id="lnk23"><path d="M150.5,118.5369 C150.5,130.3894 150.5,146.1756 150.5,163.188 C150.5,171.6941 150.5,180.5068 150.5,189.2876 C150.5,193.678 150.5,198.0604 150.5,202.3925 C150.5,203.4755 150.5,198.5554 150.5,199.6315" fill="none" id="SRV_GsUtNL-to-PRC_CYgU64" style="stroke:#181818;stroke-width:1;"/><polygon fill="#181818" points="150.5,205.6315,154.5,196.6315,150.5,200.6315,146.5,196.6315,150.5,205.6315" style="stroke:#181818;stroke-width:1;"/></g><!--link SRV_Qr8St8 to PRC_vlE_5j--><g class="link" data-entity-1="ent0005" data-entity-2="ent0015" data-link-type="dependency" data-source-line="111" id="lnk24"><path d="M763.23,97.2969 C882.72,97.2969 1040,97.2969 1040,97.2969 C1040,97.2969 1040,139.2944 1040,182.6044 C1040,188.0181 1040,193.4524 1040,198.8277 C1040,200.1715 1040,201.5117 1040,202.8469 C1040,203.5145 1040,204.1809 1040,204.8458 C1040,205.1783 1040,199.5105 1040,199.8423" fill="none" id="SRV_Qr8St8-to-PRC_vlE_5j" style="stroke:#181818;stroke-width:1;"/><polygon fill="#181818" points="1040,205.8423,1044,196.8423,1040,200.8423,1036,196.8423,1040,205.8423" style="stroke:#181818;stroke-width:1;"/></g><?plantuml-src xLTjJof75FxEhpZTszpRcy0AoujSWoI8U3LLgw2sJTEGSJd0NcTdjZC3gBV-zvu1P1TSQB5-D438d3dlBy_C38CUWZQeK9g723CPVHU8Y2aMGW_xRCJDaHJcd8K8pZ7oCPh0Pt2E8yp2Ofs5XWeOpu9cGkSqgg3lf2lg18y81I-ngOUi9oU1642VSOs97IL7ekTB9L11AK6_PVxTOBhPb5mg-73Ki9-awpmGQCC1gSnG9ZQ4xA7622hvf24cxYonci_yGBwIBBIHTwzKC1XGB6BmKr_9C0j6Pe6pM-IVmH8WbwiJRKccZOm7Zym4KgmHSjs_DqbrhwCj13kenblvrz1Q-i4c_tAv3JBTK-oRLmcsWy5m2qdVHwtN9k95M2UYpqSeVDmiaYWv-eQ90STQhId3K8glr50HfR9UX-yPW8FL7ciTjggjWjsHgeTgJgqsTrkLHkOfNND_97mR_5gT-SDgixcTpaX9cvgtLAbj4_duIfN3Tm1v1v1t07a7aDS2Y8vKO11-PCeV1Y4ps7qE6sfwF83xa0kzxmoDYVPsTYQJYJifkb8DThnyFhz370wC0vmSoFjz9mzvA5JewzHh4JD3wEqxPvxx1Ge5T_Ucx9PEgr1q2xpi5i1pY-EAMoJA5zTxT03w0UVxpWUlx1MzNOSmJSaxt7U45EZir6lML3t5stb2typP2fJSmf0yk_7SAY-vPIYxNcx-FyuLtE8nCVqFX-VbUYE7YwutTNZNzHWv3FOtPQJVhbizBhwavuZ-d_qtCgB9Wrjf3CrXBx1zHxsHoPZ0S3kyOrGQwVoWy0pjZHJ2n-LbKug-L26ZyRRy54ucisXVS3gpV6W7rinoWhVsCe_VjSyuxXVSybCTpkXuuD0OqQ5XSH_ckgtgU4gOXaxxfljLNvlpq-tqtzYZaGxCwNXiKdxohV8phsod_33GlgHqFcJXSaH_De2Fq37Cw8ssBbMrOwfaAuuASd_GnQ27uazbSJktx5EyIEMRwtjQgjB5RCosBzDyFfSYJUiQgpS6HmhjejtiDdyVN5TAK_Lh3Jp3rPA5rdr4C8VGUQ2xKKX9LAE5bGIiavcZysONrSMaVB2raJCMGOjZY88gH4EoslK-HaQdMvJjnyebRcsnEKJ_RjxbJTihRB0cfCvlnWlFfWRY25-KUyMLU9dAkT3vj5sv_mKDKYi_vgrk-TkhAcyKyysoqGEcqTufqtCbT2dwTRArfOOT1mqdOJJhWHagD0Oi4DhCYfHkpnnTuIzNMzjhOqJNuUN03Yc3Kxlh-YoygOZHehYpI5EBct0gNgOtpBDEsmQ9ALtbZSjeiUGJd0XwfkGuUw3t09MV83gJXbZqcX2vX5uhEhydxy4S_3HGmupjqyTd4RiDU602dCwW6I94prX5AsPWH4X3v32Jl777bhC9MrbmdCyl-6Q0c4q4DECZn-8tnbvAPyFYAgNnh-dzDhFoC8cBaasaFNPZXVLvEox3ZFKV?></g></svg>