<svg xmlns="http://www.w3.org/2000/svg" xmlns:xlink="http://www.w3.org/1999/xlink" contentStyleType="text/css" data-diagram-type="DESCRIPTION" height="392px" preserveAspectRatio="none" style="width:2763px;height:392px;background:#FAFAFA;" version="1.1" viewBox="0 0 2763 392" width="2763px" zoomAndPan="magnify"><?plantuml 1.2026.3?><defs/><g><rect fill="#FAFAFA" height="392" style="stroke:none;stroke-width:1;" width="2763" x="0" y="0"/><g class="title" data-source-line="60"><text fill="#000000" font-family="'Helvetica Neue, Helvetica, Arial, sans-serif'" font-size="14" font-weight="700" lengthAdjust="spacing" textLength="255.9922" x="1250.0039" y="22.9951">The Forces Shaping This System</text></g><!--cluster Stakeholders--><g class="cluster" data-qualified-name="Stakeholders" data-source-line="62" id="ent0002"><rect fill="#F7EEF9" height="90" rx="2" ry="2" style="stroke:#7B3F9A;stroke-width:1;" width="992" x="1082" y="44.2969"/><text fill="#000000" font-family="'Helvetica Neue, Helvetica, Arial, sans-serif'" font-size="12" font-weight="700" lengthAdjust="spacing" textLength="89.2852" x="1533.3574" y="57.4355">Stakeholders</text></g><!--cluster Drivers--><g class="cluster" data-qualified-name="Drivers" data-source-line="74" id="ent0012"><rect fill="#F7EEF9" height="90" rx="2" ry="2" style="stroke:#7B3F9A;stroke-width:1;" width="1121" x="922" y="166.2969"/><text fill="#000000" font-family="'Helvetica Neue, Helvetica, Arial, sans-serif'" font-size="12" font-weight="700" lengthAdjust="spacing" textLength="49.0137" x="1457.9932" y="179.4355">Drivers</text></g><!--cluster Assessments--><g class="cluster" data-qualified-name="Assessments" data-source-line="82" id="ent0018"><rect fill="#F7EEF9" height="90" rx="2" ry="2" style="stroke:#7B3F9A;stroke-width:1;" width="2742" x="7" y="288.2969"/><text fill="#000000" font-family="'Helvetica Neue, Helvetica, Arial, sans-serif'" font-size="12" font-weight="700" lengthAdjust="spacing" textLength="88.0605" x="1333.9697" y="301.4355">Assessments</text></g><!--entity STK_aB3dE1--><g class="entity" data-qualified-name="Stakeholders.STK_aB3dE1" data-source-line="63" id="ent0003"><rect fill="#EDD6F0" height="42.1538" rx="2" ry="2" style="stroke:#7B3F9A;stroke-width:0.5;" width="100.0386" x="1098" y="76.2969"/><path d="M1112.2923,91.9738 L1122.4,91.9738 L1126,97.3738 L1122.4,102.7738 L1112.2923,102.7738 L1115.7538,97.3738" fill="#252327" style="stroke:none;stroke-width:0.5;"/><text fill="#000000" font-family="'Helvetica Neue, Helvetica, Arial, sans-serif'" font-size="12" lengthAdjust="spacing" textLength="54.0703" x="1133.9683" y="105.6206">Architect</text></g><!--entity STK_K9xTq2--><g class="entity" data-qualified-name="Stakeholders.STK_K9xTq2" data-source-line="64" id="ent0004"><rect fill="#EDD6F0" height="42.1538" rx="2" ry="2" style="stroke:#7B3F9A;stroke-width:0.5;" width="107.6851" x="1258" y="76.2969"/><path d="M1272.2923,91.9738 L1282.4,91.9738 L1286,97.3738 L1282.4,102.7738 L1272.2923,102.7738 L1275.7538,97.3738" fill="#252327" style="stroke:none;stroke-width:0.5;"/><text fill="#000000" font-family="'Helvetica Neue, Helvetica, Arial, sans-serif'" font-size="12" lengthAdjust="spacing" textLength="61.7168" x="1293.9683" y="105.6206">Developer</text></g><!--entity STK_4oprPM--><g class="entity" data-qualified-name="Stakeholders.STK_4oprPM" data-source-line="65" id="ent0005"><rect fill="#EDD6F0" height="42.1538" rx="2" ry="2" style="stroke:#7B3F9A;stroke-width:0.5;" width="150.2652" x="1426" y="76.2969"/><path d="M1440.2923,91.9738 L1450.4,91.9738 L1454,97.3738 L1450.4,102.7738 L1440.2923,102.7738 L1443.7538,97.3738" fill="#252327" style="stroke:none;stroke-width:0.5;"/><text fill="#000000" font-family="'Helvetica Neue, Helvetica, Arial, sans-serif'" font-size="12" lengthAdjust="spacing" textLength="104.2969" x="1461.9683" y="105.6206">DevOps Engineer</text></g><!--entity STK_Zp8Lm4--><g class="entity" data-qualified-name="Stakeholders.STK_Zp8Lm4" data-source-line="66" id="ent0006"><rect fill="#EDD6F0" height="42.1538" rx="2" ry="2" style="stroke:#7B3F9A;stroke-width:0.5;" width="135.0015" x="1636.5" y="76.2969"/><path d="M1650.7923,91.9738 L1660.9,91.9738 L1664.5,97.3738 L1660.9,102.7738 L1650.7923,102.7738 L1654.2538,97.3738" fill="#252327" style="stroke:none;stroke-width:0.5;"/><text fill="#000000" font-family="'Helvetica Neue, Helvetica, Arial, sans-serif'" font-size="12" lengthAdjust="spacing" textLength="89.0332" x="1672.4683" y="105.6206">Product Owner</text></g><!--entity STK_Rr9Ss9--><g class="entity" data-qualified-name="Stakeholders.STK_Rr9Ss9" data-source-line="67" id="ent0007"><rect fill="#EDD6F0" height="42.1538" rx="2" ry="2" style="stroke:#7B3F9A;stroke-width:0.5;" width="226.1206" x="1832" y="76.2969"/><path d="M1846.2923,91.9738 L1856.4,91.9738 L1860,97.3738 L1856.4,102.7738 L1846.2923,102.7738 L1849.7538,97.3738" fill="#252327" style="stroke:none;stroke-width:0.5;"/><text fill="#000000" font-family="'Helvetica Neue, Helvetica, Arial, sans-serif'" font-size="12" lengthAdjust="spacing" textLength="180.1523" x="1867.9683" y="105.6206">Upper Technical Management</text></g><!--entity DRV_GR9prv--><g class="entity" data-qualified-name="Drivers.DRV_GR9prv" data-source-line="75" id="ent0013"><rect fill="#EDD6F0" height="42.1538" rx="2" ry="2" style="stroke:#7B3F9A;stroke-width:0.5;" width="381.3999" x="937.5" y="198.2969"/><ellipse cx="958.5769" cy="219.3738" fill="none" rx="6.3692" ry="6.3692" style="stroke:#252327;stroke-width:1.8;"/><ellipse cx="958.5769" cy="219.3738" fill="none" rx="2.3538" ry="2.3538" style="stroke:#252327;stroke-width:1.8;"/><path d="M957.6769,211.4815 L957.6769,215.6353 L959.4769,215.6353 L959.4769,211.4815" fill="#252327"/><path d="M957.6769,223.1123 L957.6769,227.2661 L959.4769,227.2661 L959.4769,223.1123" fill="#252327"/><path d="M950.6846,218.4738 L954.8385,218.4738 L954.8385,220.2738 L950.6846,220.2738" fill="#252327"/><path d="M962.3154,218.4738 L966.4692,218.4738 L966.4692,220.2738 L962.3154,220.2738" fill="#252327"/><path d="M952.4015,214.4723 L953.6754,213.1984 L956.5831,216.1061 L955.3092,217.38" fill="#252327"/><path d="M960.5708,222.6415 L961.8446,221.3676 L964.7523,224.2753 L963.4785,225.5492" fill="#252327"/><path d="M963.4785,213.1984 L964.7523,214.4723 L961.8446,217.38 L960.5708,216.1061" fill="#252327"/><path d="M955.3092,221.3676 L956.5831,222.6415 L953.6754,225.5492 L952.4015,224.2753" fill="#252327"/><text fill="#000000" font-family="'Helvetica Neue, Helvetica, Arial, sans-serif'" font-size="12" lengthAdjust="spacing" textLength="335.4316" x="973.4683" y="227.6206">AI-Assisted Development as Dominant Production Mode</text></g><!--entity DRV_Rt6Yu2--><g class="entity" data-qualified-name="Drivers.DRV_Rt6Yu2" data-source-line="76" id="ent0014"><rect fill="#EDD6F0" height="42.1538" rx="2" ry="2" style="stroke:#7B3F9A;stroke-width:0.5;" width="300.7925" x="1725.5" y="198.2969"/><ellipse cx="1746.5769" cy="219.3738" fill="none" rx="6.3692" ry="6.3692" style="stroke:#252327;stroke-width:1.8;"/><ellipse cx="1746.5769" cy="219.3738" fill="none" rx="2.3538" ry="2.3538" style="stroke:#252327;stroke-width:1.8;"/><path d="M1745.6769,211.4815 L1745.6769,215.6353 L1747.4769,215.6353 L1747.4769,211.4815" fill="#252327"/><path d="M1745.6769,223.1123 L1745.6769,227.2661 L1747.4769,227.2661 L1747.4769,223.1123" fill="#252327"/><path d="M1738.6846,218.4738 L1742.8385,218.4738 L1742.8385,220.2738 L1738.6846,220.2738" fill="#252327"/><path d="M1750.3154,218.4738 L1754.4692,218.4738 L1754.4692,220.2738 L1750.3154,220.2738" fill="#252327"/><path d="M1740.4015,214.4723 L1741.6754,213.1984 L1744.5831,216.1061 L1743.3092,217.38" fill="#252327"/><path d="M1748.5708,222.6415 L1749.8446,221.3676 L1752.7523,224.2753 L1751.4785,225.5492" fill="#252327"/><path d="M1751.4785,213.1984 L1752.7523,214.4723 L1749.8446,217.38 L1748.5708,216.1061" fill="#252327"/><path d="M1743.3092,221.3676 L1744.5831,222.6415 L1741.6754,225.5492 L1740.4015,224.2753" fill="#252327"/><text fill="#000000" font-family="'Helvetica Neue, Helvetica, Arial, sans-serif'" font-size="12" lengthAdjust="spacing" textLength="254.8242" x="1761.4683" y="227.6206">Increasing Autonomy of Teams &amp; Systems</text></g><!--entity DRV_Ui5Op3--><g class="entity" data-qualified-name="Drivers.DRV_Ui5Op3" data-source-line="77" id="ent0015"><rect fill="#EDD6F0" height="42.1538" rx="2" ry="2" style="stroke:#7B3F9A;stroke-width:0.5;" width="286.812" x="1378.5" y="198.2969"/><ellipse cx="1399.5769" cy="219.3738" fill="none" rx="6.3692" ry="6.3692" style="stroke:#252327;stroke-width:1.8;"/><ellipse cx="1399.5769" cy="219.3738" fill="none" rx="2.3538" ry="2.3538" style="stroke:#252327;stroke-width:1.8;"/><path d="M1398.6769,211.4815 L1398.6769,215.6353 L1400.4769,215.6353 L1400.4769,211.4815" fill="#252327"/><path d="M1398.6769,223.1123 L1398.6769,227.2661 L1400.4769,227.2661 L1400.4769,223.1123" fill="#252327"/><path d="M1391.6846,218.4738 L1395.8385,218.4738 L1395.8385,220.2738 L1391.6846,220.2738" fill="#252327"/><path d="M1403.3154,218.4738 L1407.4692,218.4738 L1407.4692,220.2738 L1403.3154,220.2738" fill="#252327"/><path d="M1393.4015,214.4723 L1394.6754,213.1984 L1397.5831,216.1061 L1396.3092,217.38" fill="#252327"/><path d="M1401.5708,222.6415 L1402.8446,221.3676 L1405.7523,224.2753 L1404.4785,225.5492" fill="#252327"/><path d="M1404.4785,213.1984 L1405.7523,214.4723 L1402.8446,217.38 L1401.5708,216.1061" fill="#252327"/><path d="M1396.3092,221.3676 L1397.5831,222.6415 L1394.6754,225.5492 L1393.4015,224.2753" fill="#252327"/><text fill="#000000" font-family="'Helvetica Neue, Helvetica, Arial, sans-serif'" font-size="12" lengthAdjust="spacing" textLength="240.8438" x="1414.4683" y="227.6206">Rising Complexity and Interdependence</text></g><!--entity ASS_CK90bp--><g class="entity" data-qualified-name="Assessments.ASS_CK90bp" data-source-line="83" id="ent0019"><rect fill="#EDD6F0" height="42.1538" rx="2" ry="2" style="stroke:#7B3F9A;stroke-width:0.5;" width="376.4429" x="1213" y="320.2969"/><path d="M1226.4615,334.4507 L1241.6923,334.4507 A1.3846,1.3846 0 0 1 1243.0769,335.8353 L1243.0769,344.143 A1.3846,1.3846 0 0 1 1241.6923,345.5276 L1231.3077,345.5276 L1228.5385,349.6815 L1229.9231,345.5276 L1226.4615,345.5276 A1.3846,1.3846 0 0 1 1225.0769,344.143 L1225.0769,335.8353 A1.3846,1.3846 0 0 1 1226.4615,334.4507" fill="#252327" style="stroke:none;stroke-width:0.5;"/><text fill="#000000" font-family="'Helvetica Neue, Helvetica, Arial, sans-serif'" font-size="12" lengthAdjust="spacing" textLength="330.4746" x="1248.9683" y="349.6206">Autonomy at Agentic Velocity Threatens Unity of Effort</text></g><!--entity ASS_EI3FpR--><g class="entity" data-qualified-name="Assessments.ASS_EI3FpR" data-source-line="84" id="ent0020"><rect fill="#EDD6F0" height="42.1538" rx="2" ry="2" style="stroke:#7B3F9A;stroke-width:0.5;" width="539.5913" x="23" y="320.2969"/><path d="M36.4615,334.4507 L51.6923,334.4507 A1.3846,1.3846 0 0 1 53.0769,335.8353 L53.0769,344.143 A1.3846,1.3846 0 0 1 51.6923,345.5276 L41.3077,345.5276 L38.5385,349.6815 L39.9231,345.5276 L36.4615,345.5276 A1.3846,1.3846 0 0 1 35.0769,344.143 L35.0769,335.8353 A1.3846,1.3846 0 0 1 36.4615,334.4507" fill="#252327" style="stroke:none;stroke-width:0.5;"/><text fill="#000000" font-family="'Helvetica Neue, Helvetica, Arial, sans-serif'" font-size="12" lengthAdjust="spacing" textLength="493.623" x="58.9683" y="349.6206">AI Code Generation Volume Outpaces Architectural Planning and Review Capacity</text></g><!--entity ASS_s68vVo--><g class="entity" data-qualified-name="Assessments.ASS_s68vVo" data-source-line="85" id="ent0021"><rect fill="#EDD6F0" height="42.1538" rx="2" ry="2" style="stroke:#7B3F9A;stroke-width:0.5;" width="529.7007" x="623" y="320.2969"/><path d="M636.4615,334.4507 L651.6923,334.4507 A1.3846,1.3846 0 0 1 653.0769,335.8353 L653.0769,344.143 A1.3846,1.3846 0 0 1 651.6923,345.5276 L641.3077,345.5276 L638.5385,349.6815 L639.9231,345.5276 L636.4615,345.5276 A1.3846,1.3846 0 0 1 635.0769,344.143 L635.0769,335.8353 A1.3846,1.3846 0 0 1 636.4615,334.4507" fill="#252327" style="stroke:none;stroke-width:0.5;"/><text fill="#000000" font-family="'Helvetica Neue, Helvetica, Arial, sans-serif'" font-size="12" lengthAdjust="spacing" textLength="483.7324" x="658.9683" y="349.6206">LLM-Based Agents Cannot Effectively Use Unstructured Architectural Knowledge</text></g><!--entity ASS_a6vxyj--><g class="entity" data-qualified-name="Assessments.ASS_a6vxyj" data-source-line="86" id="ent0022"><rect fill="#EDD6F0" height="42.1538" rx="2" ry="2" style="stroke:#7B3F9A;stroke-width:0.5;" width="502.2671" x="2231" y="320.2969"/><path d="M2244.4615,334.4507 L2259.6923,334.4507 A1.3846,1.3846 0 0 1 2261.0769,335.8353 L2261.0769,344.143 A1.3846,1.3846 0 0 1 2259.6923,345.5276 L2249.3077,345.5276 L2246.5385,349.6815 L2247.9231,345.5276 L2244.4615,345.5276 A1.3846,1.3846 0 0 1 2243.0769,344.143 L2243.0769,335.8353 A1.3846,1.3846 0 0 1 2244.4615,334.4507" fill="#252327" style="stroke:none;stroke-width:0.5;"/><text fill="#000000" font-family="'Helvetica Neue, Helvetica, Arial, sans-serif'" font-size="12" lengthAdjust="spacing" textLength="456.2988" x="2266.9683" y="349.6206">Centralized Governance Cannot Scale to Concurrent Development Contexts</text></g><!--entity ASS_9YWsDh--><g class="entity" data-qualified-name="Assessments.ASS_9YWsDh" data-source-line="87" id="ent0023"><rect fill="#EDD6F0" height="42.1538" rx="2" ry="2" style="stroke:#7B3F9A;stroke-width:0.5;" width="522.1421" x="1649" y="320.2969"/><path d="M1662.4615,334.4507 L1677.6923,334.4507 A1.3846,1.3846 0 0 1 1679.0769,335.8353 L1679.0769,344.143 A1.3846,1.3846 0 0 1 1677.6923,345.5276 L1667.3077,345.5276 L1664.5385,349.6815 L1665.9231,345.5276 L1662.4615,345.5276 A1.3846,1.3846 0 0 1 1661.0769,344.143 L1661.0769,335.8353 A1.3846,1.3846 0 0 1 1662.4615,334.4507" fill="#252327" style="stroke:none;stroke-width:0.5;"/><text fill="#000000" font-family="'Helvetica Neue, Helvetica, Arial, sans-serif'" font-size="12" lengthAdjust="spacing" textLength="476.1738" x="1684.9683" y="349.6206">Implicit System Interdependencies Are Unmaintainable Without Explicit Models</text></g><!--link STK_aB3dE1 to STK_K9xTq2--><!--link STK_K9xTq2 to STK_4oprPM--><!--link STK_4oprPM to STK_Zp8Lm4--><!--link STK_Zp8Lm4 to STK_Rr9Ss9--><!--link DRV_GR9prv to DRV_Rt6Yu2--><!--link DRV_Rt6Yu2 to DRV_Ui5Op3--><!--link ASS_CK90bp to ASS_EI3FpR--><!--link ASS_EI3FpR to ASS_s68vVo--><!--link ASS_s68vVo to ASS_a6vxyj--><!--link ASS_a6vxyj to ASS_9YWsDh--><!--link STK_Rr9Ss9 to DRV_GR9prv--><!--link DRV_Ui5Op3 to ASS_CK90bp--><!--link DRV_Ui5Op3 to ASS_CK90bp--><g class="link" data-entity-1="ent0015" data-entity-2="ent0019" data-link-type="dependency" data-source-line="107" id="lnk39"><path d="M1483.75,240.5469 C1483.75,262.9369 1483.75,291.9869 1483.75,314.2869" fill="none" id="DRV_Ui5Op3-to-ASS_CK90bp" style="stroke:#181818;stroke-width:1;stroke-dasharray:7,7;"/><polygon fill="#181818" points="1483.75,320.2869,1487.75,311.2869,1483.75,315.2869,1479.75,311.2869,1483.75,320.2869" style="stroke:#181818;stroke-width:1;"/><text fill="#000000" font-family="'Helvetica Neue, Helvetica, Arial, sans-serif'" font-size="12" lengthAdjust="spacing" textLength="69.7559" x="1413.75" y="277.5555">&#171;influence&#187;</text></g><!--link STK_aB3dE1 to DRV_GR9prv--><g class="link" data-entity-1="ent0003" data-entity-2="ent0013" data-link-type="association" data-source-line="97" id="lnk30"><path d="M1148,118.5469 C1148,140.9369 1148,175.9869 1148,198.2869" fill="none" id="STK_aB3dE1-DRV_GR9prv" style="stroke:#181818;stroke-width:1;"/></g><!--link STK_K9xTq2 to DRV_GR9prv--><g class="link" data-entity-1="ent0004" data-entity-2="ent0013" data-link-type="association" data-source-line="98" id="lnk31"><path d="M1273.12,118.5469 C1273.12,140.9369 1273.12,175.9869 1273.12,198.2869" fill="none" id="STK_K9xTq2-DRV_GR9prv" style="stroke:#181818;stroke-width:1;"/></g><!--link STK_4oprPM to DRV_Ui5Op3--><g class="link" data-entity-1="ent0005" data-entity-2="ent0015" data-link-type="association" data-source-line="99" id="lnk32"><path d="M1476,118.5469 C1476,140.9369 1476,175.9869 1476,198.2869" fill="none" id="STK_4oprPM-DRV_Ui5Op3" style="stroke:#181818;stroke-width:1;"/></g><!--link STK_4oprPM to DRV_Rt6Yu2--><g class="link" data-entity-1="ent0005" data-entity-2="ent0014" data-link-type="association" data-source-line="100" id="lnk33"><path d="M1526,118.6269 C1526,136.2269 1526,158.2969 1526,158.2969 C1526,158.2969 1748.5,158.2969 1748.5,158.2969 C1748.5,158.2969 1748.5,180.3669 1748.5,197.9669" fill="none" id="STK_4oprPM-DRV_Rt6Yu2" style="stroke:#181818;stroke-width:1;"/></g><!--link STK_Zp8Lm4 to DRV_Rt6Yu2--><g class="link" data-entity-1="ent0006" data-entity-2="ent0014" data-link-type="association" data-source-line="101" id="lnk34"><path d="M1760,118.5469 C1760,140.9369 1760,175.9869 1760,198.2869" fill="none" id="STK_Zp8Lm4-DRV_Rt6Yu2" style="stroke:#181818;stroke-width:1;"/></g><!--link STK_Rr9Ss9 to DRV_Rt6Yu2--><g class="link" data-entity-1="ent0007" data-entity-2="ent0014" data-link-type="association" data-source-line="102" id="lnk35"><path d="M1961.67,118.5469 C1961.67,140.9369 1961.67,175.9869 1961.67,198.2869" fill="none" id="STK_Rr9Ss9-DRV_Rt6Yu2" style="stroke:#181818;stroke-width:1;"/></g><!--link STK_Rr9Ss9 to ASS_a6vxyj--><g class="link" data-entity-1="ent0007" data-entity-2="ent0022" data-link-type="association" data-source-line="103" id="lnk36"><path d="M2058.16,97.2969 C2253.34,97.2969 2632.6,97.2969 2632.6,97.2969 C2632.6,97.2969 2632.6,260.7069 2632.6,320.0669" fill="none" id="STK_Rr9Ss9-ASS_a6vxyj" style="stroke:#181818;stroke-width:1;"/></g><!--link DRV_GR9prv to ASS_CK90bp--><g class="link" data-entity-1="ent0013" data-entity-2="ent0019" data-link-type="dependency" data-source-line="105" id="lnk37"><path d="M1265.75,240.5469 C1265.75,262.9369 1265.75,291.9869 1265.75,314.2869" fill="none" id="DRV_GR9prv-to-ASS_CK90bp" style="stroke:#181818;stroke-width:1;stroke-dasharray:7,7;"/><polygon fill="#181818" points="1265.75,320.2869,1269.75,311.2869,1265.75,315.2869,1261.75,311.2869,1265.75,320.2869" style="stroke:#181818;stroke-width:1;"/><text fill="#000000" font-family="'Helvetica Neue, Helvetica, Arial, sans-serif'" font-size="12" lengthAdjust="spacing" textLength="69.7559" x="1195.75" y="277.5555">&#171;influence&#187;</text></g><!--link DRV_Rt6Yu2 to ASS_CK90bp--><g class="link" data-entity-1="ent0014" data-entity-2="ent0019" data-link-type="dependency" data-source-line="106" id="lnk38"><path d="M1876,240.3069 C1876,265.4769 1876,304.2969 1876,304.2969 C1876,304.2969 1536.38,304.2969 1536.38,304.2969 C1536.38,304.2969 1536.38,305.8969 1536.38,314.2069" fill="none" id="DRV_Rt6Yu2-to-ASS_CK90bp" style="stroke:#181818;stroke-width:1;stroke-dasharray:7,7;"/><polygon fill="#181818" points="1536.38,320.2069,1540.38,311.2069,1536.38,315.2069,1532.38,311.2069,1536.38,320.2069" style="stroke:#181818;stroke-width:1;"/><text fill="#000000" font-family="'Helvetica Neue, Helvetica, Arial, sans-serif'" font-size="12" lengthAdjust="spacing" textLength="69.7559" x="1660.23" y="301.4355">&#171;influence&#187;</text></g><!--link DRV_GR9prv to ASS_EI3FpR--><g class="link" data-entity-1="ent0013" data-entity-2="ent0020" data-link-type="dependency" data-source-line="108" id="lnk40"><path d="M937.46,219.2969 C666.68,219.2969 203,219.2969 203,219.2969 C203,219.2969 203,279.0969 203,314.0469" fill="none" id="DRV_GR9prv-to-ASS_EI3FpR" style="stroke:#181818;stroke-width:1;stroke-dasharray:7,7;"/><polygon fill="#181818" points="203,320.0469,207,311.0469,203,315.0469,199,311.0469,203,320.0469" style="stroke:#181818;stroke-width:1;"/><text fill="#000000" font-family="'Helvetica Neue, Helvetica, Arial, sans-serif'" font-size="12" lengthAdjust="spacing" textLength="69.7559" x="449.86" y="216.4355">&#171;influence&#187;</text></g><!--link DRV_GR9prv to ASS_s68vVo--><g class="link" data-entity-1="ent0013" data-entity-2="ent0021" data-link-type="dependency" data-source-line="109" id="lnk41"><path d="M1009.33,240.5469 C1009.33,262.9369 1009.33,291.9869 1009.33,314.2869" fill="none" id="DRV_GR9prv-to-ASS_s68vVo" style="stroke:#181818;stroke-width:1;stroke-dasharray:7,7;"/><polygon fill="#181818" points="1009.33,320.2869,1013.33,311.2869,1009.33,315.2869,1005.33,311.2869,1009.33,320.2869" style="stroke:#181818;stroke-width:1;"/><text fill="#000000" font-family="'Helvetica Neue, Helvetica, Arial, sans-serif'" font-size="12" lengthAdjust="spacing" textLength="69.7559" x="939.33" y="277.5555">&#171;influence&#187;</text></g><!--link DRV_GR9prv to ASS_a6vxyj--><g class="link" data-entity-1="ent0013" data-entity-2="ent0022" data-link-type="dependency" data-source-line="110" id="lnk42"><path d="M1292.12,240.3869 C1292.12,248.6969 1292.12,256.2969 1292.12,256.2969 C1292.12,256.2969 2431.8,256.2969 2431.8,256.2969 C2431.8,256.2969 2431.8,289.1169 2431.8,314.2869" fill="none" id="DRV_GR9prv-to-ASS_a6vxyj" style="stroke:#181818;stroke-width:1;stroke-dasharray:7,7;"/><polygon fill="#181818" points="2431.8,320.2869,2435.8,311.2869,2431.8,315.2869,2427.8,311.2869,2431.8,320.2869" style="stroke:#181818;stroke-width:1;"/><text fill="#000000" font-family="'Helvetica Neue, Helvetica, Arial, sans-serif'" font-size="12" lengthAdjust="spacing" textLength="69.7559" x="1816" y="253.4355">&#171;influence&#187;</text></g><!--link DRV_Rt6Yu2 to ASS_a6vxyj--><g class="link" data-entity-1="ent0014" data-entity-2="ent0022" data-link-type="dependency" data-source-line="111" id="lnk43"><path d="M2026.55,219.2969 C2220.28,219.2969 2532.2,219.2969 2532.2,219.2969 C2532.2,219.2969 2532.2,279.0969 2532.2,314.0469" fill="none" id="DRV_Rt6Yu2-to-ASS_a6vxyj" style="stroke:#181818;stroke-width:1;stroke-dasharray:7,7;"/><polygon fill="#181818" points="2532.2,320.0469,2536.2,311.0469,2532.2,315.0469,2528.2,311.0469,2532.2,320.0469" style="stroke:#181818;stroke-width:1;"/><text fill="#000000" font-family="'Helvetica Neue, Helvetica, Arial, sans-serif'" font-size="12" lengthAdjust="spacing" textLength="69.7559" x="2259.75" y="216.4355">&#171;influence&#187;</text></g><!--link DRV_Ui5Op3 to ASS_9YWsDh--><g class="link" data-entity-1="ent0015" data-entity-2="ent0023" data-link-type="dependency" data-source-line="112" id="lnk44"><path d="M1657.25,240.5469 C1657.25,262.9369 1657.25,291.9869 1657.25,314.2869" fill="none" id="DRV_Ui5Op3-to-ASS_9YWsDh" style="stroke:#181818;stroke-width:1;stroke-dasharray:7,7;"/><polygon fill="#181818" points="1657.25,320.2869,1661.25,311.2869,1657.25,315.2869,1653.25,311.2869,1657.25,320.2869" style="stroke:#181818;stroke-width:1;"/><text fill="#000000" font-family="'Helvetica Neue, Helvetica, Arial, sans-serif'" font-size="12" lengthAdjust="spacing" textLength="69.7559" x="1587.25" y="277.5555">&#171;influence&#187;</text></g><?plantuml-src xLTRRzf857xdLnovgtqg3iRWX2eWaGIIAAIf84dLNQsYYJtWsPWPxynmQzN_lcUCWqqmD6IhVQe0CvSpvtpdFWvPG45fAgdGYvYMIkg9yPX8CeQ03iaaqbt1zKSofc1Tq6XADVC9VAGJ-XvMy_VGben4xq4HhigAIZQqYXaDs5SAJZMtgK8IY1dZ8nYIID7SZXGJ7lX2SYgXbbj_9FxJADay5P6GyAxRDfyyz8XnQjG18NKeSXjS15JH6BnANX3XJsRnQ6sH-fhmKKIFZw-5PbEYcU3dA3P6hAqMV2i1d6mWEUnqkWsp8sH0PRfwUE9s6-tIzsBkH2cgr9XolOrhv-pCwrRsunf8DgNoPt9KcZpHK4J1czc6lsBjLwpzJx6cOiaqXT-8z4Cs9fe-PBh3iPgEO3wEk6fQeTRnXuE3sMncprnRoD51jLAf72251LD6PoTYthGgK077mw_LEew93Y5eMjTLkmvkw3Z40GSI2lEPUjcyZACBBofNmSM9Uu4dyfjbvxwMFrnslbe0GnP5JUjTjLvrguSMveiKJxHfSS6fTT0wDiXQ1UejdV3VLFEPz2CAFYuVMU0laZ_Pj6gsjmAMu5YXUW6pF6E13fkMOxi6wpP-Zdtu9duhqn_QRXsgjbkPkdQb4k9svTvCqNxhvjiuv5Jim_ofPBxpcE4BvcneJatDgOiVoahOlZprOrckNQz1pQvvFVC0C-rvTjs3kktLUkO1PhgJHyEkrOoQhjTBdc0MUaxLC7GSmp5vGhAoMuc4BW6nF9uWMp8rC7g9A8Dg9vi4TW8YKMK9BT4luTfBb4va5R7P5k-v4l6Jyjcr7TJG2T5hFSU58ynRs_YWSO4xnlXmzEhyr286BU1HQ2smAJ5Jsx2cbqgQQSo8sv12LqYVAXY4n5HvN68uMM1x79TAgr88rY3JKrcmeq7apXmNs-cRyab4csZfxotieaYXyOnXkbvl2GAvlNeW9sxGSVRdV4QdD18nbLivNpNcj_zKtyJv9bRGuIFikJlurqGiFrtlp_-J5C74rt0pupku_n4VzSQr_RdVnMWJkAL-oF4U4y4ruMH4JKFQAgel6mFLm7QM-GFAV-8zAg3yByb6eIxd3PeD2wbIisJ3GgfKlMnOI9KYoqVgMTA1tXIao-Qr7f-NvRPI3FCXU8wef7UZPSx4c762uzHVA0QkyR9b9A_k8eQkV_zmtc_4ShgNv4lkIqgKIShsH0iknWiGGtGS6IluFSrHLIIihxqla-fUmlei4NGgnd54vqmlWF008U0jEQ0nvMXslr2nErQ_YLqCZKpB3KVbC6N3GggKMzwTxTLzwKqkpQvRwsvzjYZHq1xXBlFX7fth6zLlGpIyfbp17JTpj7fdECHxjG6mTdT58xG7WuVJgqRbCTuVn2KQ7Dz5pYdcUQ8Jt8jeWkyTDnCT4rEML-Ln8Z5LFqM4S-Cduvm-DNq4JWbI8ifjs3gNRZVkxusjrxikdn25KP-OHw4SpeKsXZ0z11DX0NUAeeMmyqmCFaEwXlQAYrb4Wn7T1arvHzDxiJUqKrn0_lXQ5S2vm6Z49FJfCy21eJHDxrHmVoAbITPyukAoflDbC1M18jvqllXxRr2Nc3WC_P3cvOlKOOahZRN6X76DF_A8Z3ypV5MRe57dwM5JFgAjq1fVFgkp47CjYxcDBCgvF1iMKgNMpuQ5LAavic4XLOgib9NaZ0nVTNavNmIpH7z9bCkbjLQpTZpVNJOsdXlAMZdPt4YhKRwvR6mywx5Z8sUWVFspxLPE5VY0xcHy64rC3MsryZNm5PIffLv1-K9wwlfNKARkVmLb6WAlq6W7vGkDbh6pGVal?></g></svg>