<svg xmlns="http://www.w3.org/2000/svg" xmlns:xlink="http://www.w3.org/1999/xlink" contentStyleType="text/css" data-diagram-type="DESCRIPTION" height="1099px" preserveAspectRatio="none" style="width:1375px;height:1099px;background:#FAFAFA;" version="1.1" viewBox="0 0 1375 1099" width="1375px" zoomAndPan="magnify"><?plantuml 1.2026.3?><defs/><g><rect fill="#FAFAFA" height="1099" style="stroke:none;stroke-width:1;" width="1375" x="0" y="0"/><g class="title" data-source-line="87"><text fill="#000000" font-family="'Helvetica Neue, Helvetica, Arial, sans-serif'" font-size="14" font-weight="700" lengthAdjust="spacing" textLength="140.1436" x="613.9282" y="22.9951">Promote Artifacts</text></g><!--cluster Services--><g class="cluster" data-qualified-name="Services" data-source-line="89" id="ent0002"><rect fill="#EDE8E1" height="90" rx="2" ry="2" style="stroke:#8C7E6A;stroke-width:1;" width="256" x="441" y="44.2969"/><text fill="#000000" font-family="'Helvetica Neue, Helvetica, Arial, sans-serif'" font-size="12" font-weight="700" lengthAdjust="spacing" textLength="57.0293" x="540.4854" y="57.4355">Services</text></g><!--cluster Process--><g class="cluster" data-qualified-name="Process" data-source-line="93" id="ent0004"><rect fill="#EDE8E1" height="927" rx="2" ry="2" style="stroke:#8C7E6A;stroke-width:1;" width="602" x="7" y="158.2969"/><text fill="#000000" font-family="'Helvetica Neue, Helvetica, Arial, sans-serif'" font-size="12" font-weight="700" lengthAdjust="spacing" textLength="52.4941" x="281.7529" y="171.4355">Process</text></g><!--cluster PRC_0Rz5Ex--><g class="cluster" data-qualified-name="Process.PRC_0Rz5Ex" data-source-line="94" id="ent0005"><rect fill="#E0D8CC" height="847" rx="2" ry="2" style="stroke:#8C7E6A;stroke-width:1;" width="538" x="39" y="206.2969"/><path d="M238.3727,213.9738 L247.0958,213.9738 L247.0958,212.1738 L253.3265,219.3738 L247.0958,226.5738 L247.0958,224.7738 L238.3727,224.7738" fill="#252327" style="stroke:none;stroke-width:1;"/><text fill="#000000" font-family="'Helvetica Neue, Helvetica, Arial, sans-serif'" font-size="12" font-weight="700" lengthAdjust="spacing" textLength="120.123" x="261.1043" y="227.6206">Promote Artifacts</text></g><!--cluster Events--><g class="cluster" data-qualified-name="Events" data-source-line="113" id="ent0021"><rect fill="#EDE8E1" height="90" rx="2" ry="2" style="stroke:#8C7E6A;stroke-width:1;" width="728" x="633" y="467.2969"/><text fill="#000000" font-family="'Helvetica Neue, Helvetica, Arial, sans-serif'" font-size="12" font-weight="700" lengthAdjust="spacing" textLength="45.5801" x="974.21" y="480.4355">Events</text></g><!--entity SRV_Uv9Wx9--><g class="entity" data-qualified-name="Services.SRV_Uv9Wx9" data-source-line="90" id="ent0003"><rect fill="#E0D8CC" height="42.1538" rx="2" ry="2" style="stroke:#8C7E6A;stroke-width:0.5;" width="223.8238" x="457" y="76.2969"/><path d="M471.4308,91.9738 L481.4,91.9738 A3.8769,3.8769 0 0 1 481.4,102.7738 L471.4308,102.7738 A3.8769,3.8769 0 0 1 471.4308,91.9738" fill="#252327" style="stroke:none;stroke-width:0.5;"/><text fill="#000000" font-family="'Helvetica Neue, Helvetica, Arial, sans-serif'" font-size="12" lengthAdjust="spacing" textLength="177.8555" x="492.9683" y="105.6206">Repository Promotion Service</text></g><!--entity FNC_Z2rrfP--><g class="entity" data-qualified-name="Process.PRC_0Rz5Ex.FNC_Z2rrfP" data-source-line="95" id="ent0006"><rect fill="#E0D8CC" height="42.1538" rx="2" ry="2" style="stroke:#8C7E6A;stroke-width:0.5;" width="222.7749" x="285.5" y="255.2969"/><path d="M299.5154,281.4969 L299.5154,272.7738 L306.5769,269.5892 L313.6385,272.7738 L313.6385,281.4969 L306.5769,278.0353" fill="#252327" style="stroke:none;stroke-width:0.5;"/><text fill="#000000" font-family="'Helvetica Neue, Helvetica, Arial, sans-serif'" font-size="12" lengthAdjust="spacing" textLength="176.8066" x="321.4683" y="284.6206">Select Artifacts for Promotion</text></g><!--entity FNC_ndMgDn--><g class="entity" data-qualified-name="Process.PRC_0Rz5Ex.FNC_ndMgDn" data-source-line="96" id="ent0007"><rect fill="#E0D8CC" height="42.1538" rx="2" ry="2" style="stroke:#8C7E6A;stroke-width:0.5;" width="206.9136" x="337.5" y="377.2969"/><path d="M351.5154,403.4969 L351.5154,394.7738 L358.5769,391.5892 L365.6385,394.7738 L365.6385,403.4969 L358.5769,400.0353" fill="#252327" style="stroke:none;stroke-width:0.5;"/><text fill="#000000" font-family="'Helvetica Neue, Helvetica, Arial, sans-serif'" font-size="12" lengthAdjust="spacing" textLength="160.9453" x="373.4683" y="406.6206">Detect Promotion Conflicts</text></g><!--entity FNC_A0dOFm--><g class="entity" data-qualified-name="Process.PRC_0Rz5Ex.FNC_A0dOFm" data-source-line="97" id="ent0008"><rect fill="#E0D8CC" height="42.1538" rx="2" ry="2" style="stroke:#8C7E6A;stroke-width:0.5;" width="214.0328" x="63" y="377.2969"/><path d="M77.0154,403.4969 L77.0154,394.7738 L84.0769,391.5892 L91.1385,394.7738 L91.1385,403.4969 L84.0769,400.0353" fill="#252327" style="stroke:none;stroke-width:0.5;"/><text fill="#000000" font-family="'Helvetica Neue, Helvetica, Arial, sans-serif'" font-size="12" lengthAdjust="spacing" textLength="168.0645" x="98.9683" y="406.6206">Resolve Promotion Conflicts</text></g><!--entity FNC_54UnNB--><g class="entity" data-qualified-name="Process.PRC_0Rz5Ex.FNC_54UnNB" data-source-line="98" id="ent0009"><rect fill="#E0D8CC" height="42.1538" rx="2" ry="2" style="stroke:#8C7E6A;stroke-width:0.5;" width="219.7163" x="194" y="499.2969"/><path d="M208.0154,525.4969 L208.0154,516.7738 L215.0769,513.5892 L222.1385,516.7738 L222.1385,525.4969 L215.0769,522.0353" fill="#252327" style="stroke:none;stroke-width:0.5;"/><text fill="#000000" font-family="'Helvetica Neue, Helvetica, Arial, sans-serif'" font-size="12" lengthAdjust="spacing" textLength="173.748" x="229.9683" y="528.6206">Validate Promotion Selection</text></g><!--entity FNC_A_wFZl--><g class="entity" data-qualified-name="Process.PRC_0Rz5Ex.FNC_A_wFZl" data-source-line="99" id="ent0010"><rect fill="#E0D8CC" height="42.1538" rx="2" ry="2" style="stroke:#8C7E6A;stroke-width:0.5;" width="155.0171" x="226.5" y="621.2969"/><path d="M240.5154,647.4969 L240.5154,638.7738 L247.5769,635.5892 L254.6385,638.7738 L254.6385,647.4969 L247.5769,644.0353" fill="#252327" style="stroke:none;stroke-width:0.5;"/><text fill="#000000" font-family="'Helvetica Neue, Helvetica, Arial, sans-serif'" font-size="12" lengthAdjust="spacing" textLength="109.0488" x="262.4683" y="650.6206">Run Quality Gates</text></g><!--entity FNC_6xjXsw--><g class="entity" data-qualified-name="Process.PRC_0Rz5Ex.FNC_6xjXsw" data-source-line="100" id="ent0011"><rect fill="#E0D8CC" height="42.1538" rx="2" ry="2" style="stroke:#8C7E6A;stroke-width:0.5;" width="159.6695" x="224" y="743.2969"/><path d="M238.0154,769.4969 L238.0154,760.7738 L245.0769,757.5892 L252.1385,760.7738 L252.1385,769.4969 L245.0769,766.0353" fill="#252327" style="stroke:none;stroke-width:0.5;"/><text fill="#000000" font-family="'Helvetica Neue, Helvetica, Arial, sans-serif'" font-size="12" lengthAdjust="spacing" textLength="113.7012" x="259.9683" y="772.6206">Execute Promotion</text></g><!--entity FNC_wahMSm--><g class="entity" data-qualified-name="Process.PRC_0Rz5Ex.FNC_wahMSm" data-source-line="101" id="ent0012"><rect fill="#E0D8CC" height="42.1538" rx="2" ry="2" style="stroke:#8C7E6A;stroke-width:0.5;" width="268.6304" x="169.5" y="865.2969"/><path d="M183.5154,891.4969 L183.5154,882.7738 L190.5769,879.5892 L197.6385,882.7738 L197.6385,891.4969 L190.5769,888.0353" fill="#252327" style="stroke:none;stroke-width:0.5;"/><text fill="#000000" font-family="'Helvetica Neue, Helvetica, Arial, sans-serif'" font-size="12" lengthAdjust="spacing" textLength="222.6621" x="205.4683" y="894.6206">Replace Promoted Entities with GRFs</text></g><!--entity FNC_NGjUCa--><g class="entity" data-qualified-name="Process.PRC_0Rz5Ex.FNC_NGjUCa" data-source-line="102" id="ent0013"><rect fill="#E0D8CC" height="42.1538" rx="2" ry="2" style="stroke:#8C7E6A;stroke-width:0.5;" width="120.9976" x="243.5" y="987.2969"/><path d="M257.5154,1013.4969 L257.5154,1004.7738 L264.5769,1001.5892 L271.6385,1004.7738 L271.6385,1013.4969 L264.5769,1010.0353" fill="#252327" style="stroke:none;stroke-width:0.5;"/><text fill="#000000" font-family="'Helvetica Neue, Helvetica, Arial, sans-serif'" font-size="12" lengthAdjust="spacing" textLength="75.0293" x="279.4683" y="1016.6206">Verify Model</text></g><!--entity EVT_Dm0CyE--><g class="entity" data-qualified-name="Events.EVT_Dm0CyE" data-source-line="114" id="ent0022"><rect fill="#E0D8CC" height="42.1538" rx="2" ry="2" style="stroke:#8C7E6A;stroke-width:0.5;" width="195.1128" x="931.5" y="499.2969"/><path d="M945.7923,514.8353 L953.5462,514.8353 A5.2615,5.2615 0 0 1 953.5462,525.9123 L945.7923,525.9123 L948.7,520.3738" fill="#252327" style="stroke:none;stroke-width:0.5;"/><text fill="#000000" font-family="'Helvetica Neue, Helvetica, Arial, sans-serif'" font-size="12" lengthAdjust="spacing" textLength="149.1445" x="967.4683" y="528.6206">Promotion Plan Prepared</text></g><!--entity EVT_fWpwu5--><g class="entity" data-qualified-name="Events.EVT_fWpwu5" data-source-line="115" id="ent0023"><rect fill="#E0D8CC" height="42.1538" rx="2" ry="2" style="stroke:#8C7E6A;stroke-width:0.5;" width="221.9136" x="649" y="499.2969"/><path d="M663.2923,514.8353 L671.0462,514.8353 A5.2615,5.2615 0 0 1 671.0462,525.9123 L663.2923,525.9123 L666.2,520.3738" fill="#252327" style="stroke:none;stroke-width:0.5;"/><text fill="#000000" font-family="'Helvetica Neue, Helvetica, Arial, sans-serif'" font-size="12" lengthAdjust="spacing" textLength="175.9453" x="684.9683" y="528.6206">Promotion Conflicts Detected</text></g><!--entity EVT_hDF1Qz--><g class="entity" data-qualified-name="Events.EVT_hDF1Qz" data-source-line="116" id="ent0024"><rect fill="#E0D8CC" height="42.1538" rx="2" ry="2" style="stroke:#8C7E6A;stroke-width:0.5;" width="158.3453" x="1187" y="499.2969"/><path d="M1201.2923,514.8353 L1209.0462,514.8353 A5.2615,5.2615 0 0 1 1209.0462,525.9123 L1201.2923,525.9123 L1204.2,520.3738" fill="#252327" style="stroke:none;stroke-width:0.5;"/><text fill="#000000" font-family="'Helvetica Neue, Helvetica, Arial, sans-serif'" font-size="12" lengthAdjust="spacing" textLength="112.377" x="1222.9683" y="528.6206">Artifacts Promoted</text></g><!--link FNC_Z2rrfP to FNC_ndMgDn--><!--link FNC_Z2rrfP to FNC_ndMgDn--><g class="link" data-entity-1="ent0006" data-entity-2="ent0007" data-link-type="dependency" data-source-line="129" id="lnk30"><path d="M451.5,297.5469 C451.5,319.9369 451.5,348.9869 451.5,371.2869" fill="none" id="FNC_Z2rrfP-to-FNC_ndMgDn" style="stroke:#181818;stroke-width:1;"/><polygon fill="#181818" points="451.5,377.2869,455.5,368.2869,451.5,372.2869,447.5,368.2869,451.5,377.2869" style="stroke:#181818;stroke-width:1;"/></g><!--link FNC_ndMgDn to FNC_A0dOFm--><!--link FNC_A0dOFm to FNC_54UnNB--><!--link FNC_A0dOFm to FNC_54UnNB--><g class="link" data-entity-1="ent0008" data-entity-2="ent0009" data-link-type="dependency" data-source-line="134" id="lnk35"><path d="M235.5,419.5469 C235.5,441.9369 235.5,470.9869 235.5,493.2869" fill="none" id="FNC_A0dOFm-to-FNC_54UnNB" style="stroke:#181818;stroke-width:1;"/><polygon fill="#181818" points="235.5,499.2869,239.5,490.2869,235.5,494.2869,231.5,490.2869,235.5,499.2869" style="stroke:#181818;stroke-width:1;"/></g><!--link FNC_54UnNB to FNC_A_wFZl--><!--link FNC_54UnNB to FNC_A_wFZl--><g class="link" data-entity-1="ent0009" data-entity-2="ent0010" data-link-type="dependency" data-source-line="135" id="lnk36"><path d="M329.83,541.5469 C329.83,563.9369 329.83,592.9869 329.83,615.2869" fill="none" id="FNC_54UnNB-to-FNC_A_wFZl" style="stroke:#181818;stroke-width:1;"/><polygon fill="#181818" points="329.83,621.2869,333.83,612.2869,329.83,616.2869,325.83,612.2869,329.83,621.2869" style="stroke:#181818;stroke-width:1;"/></g><!--link FNC_A_wFZl to FNC_6xjXsw--><!--link FNC_A_wFZl to FNC_6xjXsw--><g class="link" data-entity-1="ent0010" data-entity-2="ent0011" data-link-type="dependency" data-source-line="136" id="lnk37"><path d="M329.83,663.5469 C329.83,685.9369 329.83,714.9869 329.83,737.2869" fill="none" id="FNC_A_wFZl-to-FNC_6xjXsw" style="stroke:#181818;stroke-width:1;"/><polygon fill="#181818" points="329.83,743.2869,333.83,734.2869,329.83,738.2869,325.83,734.2869,329.83,743.2869" style="stroke:#181818;stroke-width:1;"/></g><!--link FNC_6xjXsw to FNC_wahMSm--><!--link FNC_6xjXsw to FNC_wahMSm--><g class="link" data-entity-1="ent0011" data-entity-2="ent0012" data-link-type="dependency" data-source-line="137" id="lnk38"><path d="M330.67,785.5469 C330.67,807.9369 330.67,836.9869 330.67,859.2869" fill="none" id="FNC_6xjXsw-to-FNC_wahMSm" style="stroke:#181818;stroke-width:1;"/><polygon fill="#181818" points="330.67,865.2869,334.67,856.2869,330.67,860.2869,326.67,856.2869,330.67,865.2869" style="stroke:#181818;stroke-width:1;"/></g><!--link FNC_wahMSm to FNC_NGjUCa--><!--link FNC_wahMSm to FNC_NGjUCa--><g class="link" data-entity-1="ent0012" data-entity-2="ent0013" data-link-type="dependency" data-source-line="139" id="lnk40"><path d="M324.17,907.5469 C324.17,929.9369 324.17,958.9869 324.17,981.2869" fill="none" id="FNC_wahMSm-to-FNC_NGjUCa" style="stroke:#181818;stroke-width:1;"/><polygon fill="#181818" points="324.17,987.2869,328.17,978.2869,324.17,982.2869,320.17,978.2869,324.17,987.2869" style="stroke:#181818;stroke-width:1;"/></g><!--link EVT_Dm0CyE to EVT_fWpwu5--><!--link EVT_fWpwu5 to EVT_hDF1Qz--><!--link SRV_Uv9Wx9 to PRC_0Rz5Ex--><!--link PRC_0Rz5Ex to SRV_Uv9Wx9--><g class="link" data-entity-1="ent0005" data-entity-2="ent0003" data-link-type="extension" data-source-line="126" id="lnk29"><path d="M556.25,205.6315 C556.25,204.5554 556.25,203.4755 556.25,202.3925 C556.25,198.0604 556.25,193.678 556.25,189.2876 C556.25,180.5068 556.25,171.6941 556.25,163.188 C556.25,146.1756 556.25,148.3894 556.25,136.5369" fill="none" id="PRC_0Rz5Ex-to-SRV_Uv9Wx9" style="stroke:#181818;stroke-width:1;stroke-dasharray:7,7;"/><polygon fill="none" points="556.25,118.5369,550.25,136.5369,562.25,136.5369,556.25,118.5369" style="stroke:#181818;stroke-width:1;"/></g><!--link PRC_0Rz5Ex to EVT_Dm0CyE--><!--link FNC_ndMgDn to EVT_Dm0CyE--><g class="link" data-entity-1="ent0007" data-entity-2="ent0022" data-link-type="dependency" data-source-line="130" id="lnk31"><path d="M544.51,391.2969 C705.22,391.2969 996.5,391.2969 996.5,391.2969 C996.5,391.2969 996.5,456.7269 996.5,493.2869" fill="none" id="FNC_ndMgDn-to-EVT_Dm0CyE" style="stroke:#181818;stroke-width:1;"/><polygon fill="#181818" points="996.5,499.2869,1000.5,490.2869,996.5,494.2869,992.5,490.2869,996.5,499.2869" style="stroke:#181818;stroke-width:1;"/></g><!--link FNC_ndMgDn to EVT_fWpwu5--><g class="link" data-entity-1="ent0007" data-entity-2="ent0023" data-link-type="dependency" data-source-line="131" id="lnk32"><path d="M544.57,405.2969 C601.09,405.2969 659.67,405.2969 659.67,405.2969 C659.67,405.2969 659.67,460.0069 659.67,493.2069" fill="none" id="FNC_ndMgDn-to-EVT_fWpwu5" style="stroke:#181818;stroke-width:1;"/><polygon fill="#181818" points="659.67,499.2069,663.67,490.2069,659.67,494.2069,655.67,490.2069,659.67,499.2069" style="stroke:#181818;stroke-width:1;"/></g><!--link EVT_Dm0CyE to FNC_54UnNB--><g class="link" data-entity-1="ent0022" data-entity-2="ent0009" data-link-type="dependency" data-source-line="132" id="lnk33"><path d="M1029,541.6269 C1029,559.2269 1029,581.2969 1029,581.2969 C1029,581.2969 399,581.2969 399,581.2969 C399,581.2969 399,565.2269 399,547.6269" fill="none" id="EVT_Dm0CyE-to-FNC_54UnNB" style="stroke:#181818;stroke-width:1;"/><polygon fill="#181818" points="399,541.6269,395,550.6269,399,546.6269,403,550.6269,399,541.6269" style="stroke:#181818;stroke-width:1;"/></g><!--link EVT_fWpwu5 to FNC_A0dOFm--><g class="link" data-entity-1="ent0023" data-entity-2="ent0008" data-link-type="dependency" data-source-line="133" id="lnk34"><path d="M670.33,499.2869 C670.33,477.4069 670.33,446.2969 670.33,446.2969 C670.33,446.2969 256.25,446.2969 256.25,446.2969 C256.25,446.2969 256.25,438.3469 256.25,425.4869" fill="none" id="EVT_fWpwu5-to-FNC_A0dOFm" style="stroke:#181818;stroke-width:1;"/><polygon fill="#181818" points="256.25,419.4869,252.25,428.4869,256.25,424.4869,260.25,428.4869,256.25,419.4869" style="stroke:#181818;stroke-width:1;"/></g><!--link FNC_6xjXsw to EVT_hDF1Qz--><g class="link" data-entity-1="ent0011" data-entity-2="ent0024" data-link-type="dependency" data-source-line="138" id="lnk39"><path d="M384.36,764.2969 C615.57,764.2969 1266,764.2969 1266,764.2969 C1266,764.2969 1266,606.8869 1266,547.5269" fill="none" id="FNC_6xjXsw-to-EVT_hDF1Qz" style="stroke:#181818;stroke-width:1;"/><polygon fill="#181818" points="1266,541.5269,1262,550.5269,1266,546.5269,1270,550.5269,1266,541.5269" style="stroke:#181818;stroke-width:1;"/></g><?plantuml-src xLTRJ-Cu57xFhpYRMMbtf2OqwOM2sagb5nXfO9bsO5QpMbKcSPeChfsrtHkp_FTrshGED6KemyC-eBOWsyVVkVYSpyTXv6CG4dFCv2B6XY5k8neZZiRWum1DYEmnAY_G68DvXiaKoyX3S84dk02RSG5QF4Aa009HOGdCey3C1nf4TnWSDxCeGkIpMKH7420YS6Q5imdrFSOfvb3EpDyWxtQqN6mpmZYywxMIJzPq4b6Sk0ECov1b5YZpiS0nL8jPHOZU9fErel6BibNjXJucmyyy6esKBtJqUy3Pk02I5O2W6qpUGp81bjLKSm_sz34YqHsI4QCxDjdslq_j6bx5UsmSO3xToxwM4CoBdhBFifxOC_o80_cYZVre5Ewnq_Em43i3iUNM1ngG2QOUVdfBviYn9n4T4LoljzbupEYfIgXOXRBPXEy6mCdZ7EjskhMkawmmxcEUpjRQXzrgoxZFHyPJJELEm6Adrcxl1nXCg9T4ypKnOywIMBycf4YoqiClX0pV6EcDaTuOwOsH_ZUC968UIGo_8kw5qHX9F5p64UfYEeBvc53HC4Cfu-E3WzbiPizADkEZ0xTOB1ue2HEc4PwTi7d3B48HdAhwcirwZ6G8ViCyBzaEbCEANKKbkmR9RoccVhKpjKPSsx7AToP0417ICD-v5RVa7fgA8ZcxnGsJCehDWsOzqTNCiNLzHAzahciVWUFOXzSLk_mniTSX5UM1QvUcLRkaPevizoUiJG__rOojGjbsGcNPjMlNIDckGCLshVJ_r7BiqfaI-Wc3qzHwjMHmbmOVsYvI1eERIOT3Eqc8hNbBpJ_RVibYHJjmmwHK9EH7IOset30C6Kc2uL9H4rF-jRYC0kH9OHYRAW9pi79LcB23epAozUqGVHSU8hZXs9NxfkB8c8b8Chv8bIOPcYf8y7N58W63_lNmQdhqPNwagZ5hqUKgM_OrA4so1mPjkPw0QYfILbpssyDY_wxIdI-nTwAl2-u1_00J9QtH8L0Ki_4yqPMXKgMiTz4UVdKv3oxtLjN1Cb6bmzfcwZAAKfUsrL3_VDIXUwlfOy5Kj_LyFQsY_qTllBUUQzM9-6hrGPwGLTxcAwgKh-Z5oVuEJIXycYXjSW6dIcgN6yDPxolP6xqxnzuawqK-UdN-xKynUy5Xn0HvcmBseKjLHKTOm2nIr7BQx-tmPeR2yy4B3YNfg1TmhffNaWzySVhjgesMm3gNmVfBjVS-fd_pfFko7kUV7kPAPZ983tCbCocWX_cO-ZZrC5SoSpHwc2kP2QeUvafkedJ_YDcwIOUnDx4j-v8SMakAvf8WzOTZrHnXFm5UDuFgmBhNduUTSR6zwBuCUrFvAVdaAWY-nBD9PHy5cYtNUPq36tPwpgSx1QkTs0hr0_Lwa2kNugdZ-0q-KFKEjGXQg0SVebx8k33qPQItg_SYjJ8NX96vAnu9PKAj56JUMSUmxdtK8ocz_eoSjvY6BcGknWAOvli4KRyHZs7J-Wdyp_8nicA3PG25yUX5gQkqaAd35MwEw7fP-_CiqLNWSqMpIBfeTugkaJGJx3HWlVm3rEooveBTgEco9eETekjbpGO_5DMfk5DqZQI9P2Nw7m00?></g></svg>