<svg xmlns="http://www.w3.org/2000/svg" xmlns:xlink="http://www.w3.org/1999/xlink" contentStyleType="text/css" data-diagram-type="DESCRIPTION" height="401px" preserveAspectRatio="none" style="width:4856px;height:401px;background:#FAFAFA;" version="1.1" viewBox="0 0 4856 401" width="4856px" zoomAndPan="magnify"><?plantuml 1.2026.3?><defs/><g><rect fill="#FAFAFA" height="401" style="stroke:none;stroke-width:1;" width="4856" x="0" y="0"/><g class="title" data-source-line="74"><text fill="#000000" font-family="'Helvetica Neue, Helvetica, Arial, sans-serif'" font-size="14" font-weight="700" lengthAdjust="spacing" textLength="415.0713" x="2216.9644" y="22.9951">What We Are Trying to Achieve &#8212; Goals &amp; Outcomes</text></g><!--cluster Goals--><g class="cluster" data-qualified-name="Goals" data-source-line="76" id="ent0002"><rect fill="#F7EEF9" height="212" rx="2" ry="2" style="stroke:#7B3F9A;stroke-width:1;" width="2635" x="950" y="44.2969"/><text fill="#000000" font-family="'Helvetica Neue, Helvetica, Arial, sans-serif'" font-size="12" font-weight="700" lengthAdjust="spacing" textLength="37.4473" x="2248.7764" y="57.4355">Goals</text></g><!--cluster Outcomes--><g class="cluster" data-qualified-name="Outcomes" data-source-line="92" id="ent0016"><rect fill="#F7EEF9" height="90" rx="2" ry="2" style="stroke:#7B3F9A;stroke-width:1;" width="4835" x="7" y="288.2969"/><text fill="#000000" font-family="'Helvetica Neue, Helvetica, Arial, sans-serif'" font-size="12" font-weight="700" lengthAdjust="spacing" textLength="67.623" x="2390.6885" y="301.4355">Outcomes</text></g><!--entity GOL_FCfDuc--><g class="entity" data-qualified-name="Goals.GOL_FCfDuc" data-source-line="77" id="ent0003"><rect fill="#EDD6F0" height="42.1538" rx="2" ry="2" style="stroke:#7B3F9A;stroke-width:0.5;" width="427.7652" x="2518" y="76.2969"/><ellipse cx="2539.0769" cy="97.3738" fill="none" rx="6.6462" ry="6.6462" style="stroke:#252327;stroke-width:1.8;"/><ellipse cx="2539.0769" cy="97.3738" fill="none" rx="4.0154" ry="4.0154" style="stroke:#252327;stroke-width:1.8;"/><ellipse cx="2539.0769" cy="97.3738" fill="#252327" rx="1.8" ry="1.8" style="stroke:none;stroke-width:1.8;"/><text fill="#000000" font-family="'Helvetica Neue, Helvetica, Arial, sans-serif'" font-size="12" lengthAdjust="spacing" textLength="381.7969" x="2553.9683" y="105.6206">Achieve Unity of Effort Across Autonomous, Agentic SDLC Work</text></g><!--entity GOL_5Fk9di--><g class="entity" data-qualified-name="Goals.GOL_5Fk9di" data-source-line="78" id="ent0004"><rect fill="#EDD6F0" height="42.1538" rx="2" ry="2" style="stroke:#7B3F9A;stroke-width:0.5;" width="434.4917" x="3135" y="198.2969"/><ellipse cx="3156.0769" cy="219.3738" fill="none" rx="6.6462" ry="6.6462" style="stroke:#252327;stroke-width:1.8;"/><ellipse cx="3156.0769" cy="219.3738" fill="none" rx="4.0154" ry="4.0154" style="stroke:#252327;stroke-width:1.8;"/><ellipse cx="3156.0769" cy="219.3738" fill="#252327" rx="1.8" ry="1.8" style="stroke:none;stroke-width:1.8;"/><text fill="#000000" font-family="'Helvetica Neue, Helvetica, Arial, sans-serif'" font-size="12" lengthAdjust="spacing" textLength="388.5234" x="3170.9683" y="227.6206">Speed Up Architectural Planning &amp; Governance for Agentic Work</text></g><!--entity GOL_Lm2Bn2--><g class="entity" data-qualified-name="Goals.GOL_Lm2Bn2" data-source-line="79" id="ent0005"><rect fill="#EDD6F0" height="42.1538" rx="2" ry="2" style="stroke:#7B3F9A;stroke-width:0.5;" width="403.9234" x="966" y="198.2969"/><ellipse cx="987.0769" cy="219.3738" fill="none" rx="6.6462" ry="6.6462" style="stroke:#252327;stroke-width:1.8;"/><ellipse cx="987.0769" cy="219.3738" fill="none" rx="4.0154" ry="4.0154" style="stroke:#252327;stroke-width:1.8;"/><ellipse cx="987.0769" cy="219.3738" fill="#252327" rx="1.8" ry="1.8" style="stroke:none;stroke-width:1.8;"/><text fill="#000000" font-family="'Helvetica Neue, Helvetica, Arial, sans-serif'" font-size="12" lengthAdjust="spacing" textLength="357.9551" x="1001.9683" y="227.6206">Plan Collaboratively in a Unified, Staged Repository System</text></g><!--entity GOL_Gh3Jk1--><g class="entity" data-qualified-name="Goals.GOL_Gh3Jk1" data-source-line="80" id="ent0006"><rect fill="#EDD6F0" height="42.1538" rx="2" ry="2" style="stroke:#7B3F9A;stroke-width:0.5;" width="467.48" x="1430.5" y="198.2969"/><ellipse cx="1451.5769" cy="219.3738" fill="none" rx="6.6462" ry="6.6462" style="stroke:#252327;stroke-width:1.8;"/><ellipse cx="1451.5769" cy="219.3738" fill="none" rx="4.0154" ry="4.0154" style="stroke:#252327;stroke-width:1.8;"/><ellipse cx="1451.5769" cy="219.3738" fill="#252327" rx="1.8" ry="1.8" style="stroke:none;stroke-width:1.8;"/><text fill="#000000" font-family="'Helvetica Neue, Helvetica, Arial, sans-serif'" font-size="12" lengthAdjust="spacing" textLength="421.5117" x="1466.4683" y="227.6206">Provide Independent Read-Access to Architecture for Teams &amp; Agents</text></g><!--entity GOL_Xwvgpb--><g class="entity" data-qualified-name="Goals.GOL_Xwvgpb" data-source-line="81" id="ent0007"><rect fill="#EDD6F0" height="42.1538" rx="2" ry="2" style="stroke:#7B3F9A;stroke-width:0.5;" width="402.2593" x="1958" y="198.2969"/><ellipse cx="1979.0769" cy="219.3738" fill="none" rx="6.6462" ry="6.6462" style="stroke:#252327;stroke-width:1.8;"/><ellipse cx="1979.0769" cy="219.3738" fill="none" rx="4.0154" ry="4.0154" style="stroke:#252327;stroke-width:1.8;"/><ellipse cx="1979.0769" cy="219.3738" fill="#252327" rx="1.8" ry="1.8" style="stroke:none;stroke-width:1.8;"/><text fill="#000000" font-family="'Helvetica Neue, Helvetica, Arial, sans-serif'" font-size="12" lengthAdjust="spacing" textLength="356.291" x="1993.9683" y="227.6206">Enable Fast Feedback from Implementation to Architecture</text></g><!--entity GOL_Po1Qw3--><g class="entity" data-qualified-name="Goals.GOL_Po1Qw3" data-source-line="82" id="ent0008"><rect fill="#EDD6F0" height="42.1538" rx="2" ry="2" style="stroke:#7B3F9A;stroke-width:0.5;" width="266.6206" x="2420.5" y="198.2969"/><ellipse cx="2441.5769" cy="219.3738" fill="none" rx="6.6462" ry="6.6462" style="stroke:#252327;stroke-width:1.8;"/><ellipse cx="2441.5769" cy="219.3738" fill="none" rx="4.0154" ry="4.0154" style="stroke:#252327;stroke-width:1.8;"/><ellipse cx="2441.5769" cy="219.3738" fill="#252327" rx="1.8" ry="1.8" style="stroke:none;stroke-width:1.8;"/><text fill="#000000" font-family="'Helvetica Neue, Helvetica, Arial, sans-serif'" font-size="12" lengthAdjust="spacing" textLength="220.6523" x="2456.4683" y="227.6206">Maintain Coherence and Traceability</text></g><!--entity GOL_kCcPph--><g class="entity" data-qualified-name="Goals.GOL_kCcPph" data-source-line="83" id="ent0009"><rect fill="#EDD6F0" height="42.1538" rx="2" ry="2" style="stroke:#7B3F9A;stroke-width:0.5;" width="326.5738" x="2747.5" y="198.2969"/><ellipse cx="2768.5769" cy="219.3738" fill="none" rx="6.6462" ry="6.6462" style="stroke:#252327;stroke-width:1.8;"/><ellipse cx="2768.5769" cy="219.3738" fill="none" rx="4.0154" ry="4.0154" style="stroke:#252327;stroke-width:1.8;"/><ellipse cx="2768.5769" cy="219.3738" fill="#252327" rx="1.8" ry="1.8" style="stroke:none;stroke-width:1.8;"/><text fill="#000000" font-family="'Helvetica Neue, Helvetica, Arial, sans-serif'" font-size="12" lengthAdjust="spacing" textLength="280.6055" x="2783.4683" y="227.6206">Enable Cross-Engagement Architectural Reuse</text></g><!--entity OUT_AlZjX8--><g class="entity" data-qualified-name="Outcomes.OUT_AlZjX8" data-source-line="93" id="ent0017"><rect fill="#EDD6F0" height="42.1538" rx="2" ry="2" style="stroke:#7B3F9A;stroke-width:0.5;" width="306.2417" x="4064" y="320.2969"/><ellipse cx="4084.2462" cy="342.2046" fill="none" rx="5.9538" ry="5.9538" style="stroke:#252327;stroke-width:1.8;"/><ellipse cx="4084.2462" cy="342.2046" fill="none" rx="3.0462" ry="3.0462" style="stroke:#252327;stroke-width:1.8;"/><path d="M4088.0954,339.8923 L4087.0431,338.4246 L4091.3354,335.3784 L4092.3877,336.8461" fill="#252327"/><path d="M4088.1231,340.3353 L4091.5846,340.3353 L4091.5846,342.1353 L4088.1231,342.1353" fill="#252327"/><ellipse cx="4084.2462" cy="342.2046" fill="#252327" rx="1.2462" ry="1.2462" style="stroke:none;stroke-width:1.8;"/><text fill="#000000" font-family="'Helvetica Neue, Helvetica, Arial, sans-serif'" font-size="12" lengthAdjust="spacing" textLength="260.2734" x="4099.9683" y="349.6206">Reduced Planning &amp; Governance Overhead</text></g><!--entity OUT_JZMIk3--><g class="entity" data-qualified-name="Outcomes.OUT_JZMIk3" data-source-line="94" id="ent0018"><rect fill="#EDD6F0" height="42.1538" rx="2" ry="2" style="stroke:#7B3F9A;stroke-width:0.5;" width="394.7007" x="4430.5" y="320.2969"/><ellipse cx="4450.7462" cy="342.2046" fill="none" rx="5.9538" ry="5.9538" style="stroke:#252327;stroke-width:1.8;"/><ellipse cx="4450.7462" cy="342.2046" fill="none" rx="3.0462" ry="3.0462" style="stroke:#252327;stroke-width:1.8;"/><path d="M4454.5954,339.8923 L4453.5431,338.4246 L4457.8354,335.3784 L4458.8877,336.8461" fill="#252327"/><path d="M4454.6231,340.3353 L4458.0846,340.3353 L4458.0846,342.1353 L4454.6231,342.1353" fill="#252327"/><ellipse cx="4450.7462" cy="342.2046" fill="#252327" rx="1.2462" ry="1.2462" style="stroke:none;stroke-width:1.8;"/><text fill="#000000" font-family="'Helvetica Neue, Helvetica, Arial, sans-serif'" font-size="12" lengthAdjust="spacing" textLength="348.7324" x="4466.4683" y="349.6206">AI Agents Efficiently Discover &amp; Edit Architecture Artifacts</text></g><!--entity OUT_YSRwR0--><g class="entity" data-qualified-name="Outcomes.OUT_YSRwR0" data-source-line="95" id="ent0019"><rect fill="#EDD6F0" height="42.1538" rx="2" ry="2" style="stroke:#7B3F9A;stroke-width:0.5;" width="421.1968" x="23.5" y="320.2969"/><ellipse cx="43.7462" cy="342.2046" fill="none" rx="5.9538" ry="5.9538" style="stroke:#252327;stroke-width:1.8;"/><ellipse cx="43.7462" cy="342.2046" fill="none" rx="3.0462" ry="3.0462" style="stroke:#252327;stroke-width:1.8;"/><path d="M47.5954,339.8923 L46.5431,338.4246 L50.8354,335.3784 L51.8877,336.8461" fill="#252327"/><path d="M47.6231,340.3353 L51.0846,340.3353 L51.0846,342.1353 L47.6231,342.1353" fill="#252327"/><ellipse cx="43.7462" cy="342.2046" fill="#252327" rx="1.2462" ry="1.2462" style="stroke:none;stroke-width:1.8;"/><text fill="#000000" font-family="'Helvetica Neue, Helvetica, Arial, sans-serif'" font-size="12" lengthAdjust="spacing" textLength="375.2285" x="59.4683" y="349.6206">Stakeholder Concerns and Hand-Off Points Explicitly Verifiable</text></g><!--entity OUT_FXFGrO--><g class="entity" data-qualified-name="Outcomes.OUT_FXFGrO" data-source-line="96" id="ent0020"><rect fill="#EDD6F0" height="42.1538" rx="2" ry="2" style="stroke:#7B3F9A;stroke-width:0.5;" width="434.3745" x="942" y="320.2969"/><ellipse cx="962.2462" cy="342.2046" fill="none" rx="5.9538" ry="5.9538" style="stroke:#252327;stroke-width:1.8;"/><ellipse cx="962.2462" cy="342.2046" fill="none" rx="3.0462" ry="3.0462" style="stroke:#252327;stroke-width:1.8;"/><path d="M966.0954,339.8923 L965.0431,338.4246 L969.3354,335.3784 L970.3877,336.8461" fill="#252327"/><path d="M966.1231,340.3353 L969.5846,340.3353 L969.5846,342.1353 L966.1231,342.1353" fill="#252327"/><ellipse cx="962.2462" cy="342.2046" fill="#252327" rx="1.2462" ry="1.2462" style="stroke:none;stroke-width:1.8;"/><text fill="#000000" font-family="'Helvetica Neue, Helvetica, Arial, sans-serif'" font-size="12" lengthAdjust="spacing" textLength="388.4063" x="977.9683" y="349.6206">Architectural Guidance Available Without Specialist Dependency</text></g><!--entity OUT__AzP1Q--><g class="entity" data-qualified-name="Outcomes.OUT__AzP1Q" data-source-line="97" id="ent0021"><rect fill="#EDD6F0" height="42.1538" rx="2" ry="2" style="stroke:#7B3F9A;stroke-width:0.5;" width="377.2574" x="504.5" y="320.2969"/><ellipse cx="524.7462" cy="342.2046" fill="none" rx="5.9538" ry="5.9538" style="stroke:#252327;stroke-width:1.8;"/><ellipse cx="524.7462" cy="342.2046" fill="none" rx="3.0462" ry="3.0462" style="stroke:#252327;stroke-width:1.8;"/><path d="M528.5954,339.8923 L527.5431,338.4246 L531.8354,335.3784 L532.8877,336.8461" fill="#252327"/><path d="M528.6231,340.3353 L532.0846,340.3353 L532.0846,342.1353 L528.6231,342.1353" fill="#252327"/><ellipse cx="524.7462" cy="342.2046" fill="#252327" rx="1.2462" ry="1.2462" style="stroke:none;stroke-width:1.8;"/><text fill="#000000" font-family="'Helvetica Neue, Helvetica, Arial, sans-serif'" font-size="12" lengthAdjust="spacing" textLength="331.2891" x="540.4683" y="349.6206">AI Agents Produce Fewer Architecture-Drift Corrections</text></g><!--entity OUT_a5mNob--><g class="entity" data-qualified-name="Outcomes.OUT_a5mNob" data-source-line="98" id="ent0022"><rect fill="#EDD6F0" height="42.1538" rx="2" ry="2" style="stroke:#7B3F9A;stroke-width:0.5;" width="427.9937" x="1894" y="320.2969"/><ellipse cx="1914.2462" cy="342.2046" fill="none" rx="5.9538" ry="5.9538" style="stroke:#252327;stroke-width:1.8;"/><ellipse cx="1914.2462" cy="342.2046" fill="none" rx="3.0462" ry="3.0462" style="stroke:#252327;stroke-width:1.8;"/><path d="M1918.0954,339.8923 L1917.0431,338.4246 L1921.3354,335.3784 L1922.3877,336.8461" fill="#252327"/><path d="M1918.1231,340.3353 L1921.5846,340.3353 L1921.5846,342.1353 L1918.1231,342.1353" fill="#252327"/><ellipse cx="1914.2462" cy="342.2046" fill="#252327" rx="1.2462" ry="1.2462" style="stroke:none;stroke-width:1.8;"/><text fill="#000000" font-family="'Helvetica Neue, Helvetica, Arial, sans-serif'" font-size="12" lengthAdjust="spacing" textLength="382.0254" x="1929.9683" y="349.6206">Changes Validated Against Architecture Before Implementation</text></g><!--entity OUT_g7PM4Y--><g class="entity" data-qualified-name="Outcomes.OUT_g7PM4Y" data-source-line="99" id="ent0023"><rect fill="#EDD6F0" height="42.1538" rx="2" ry="2" style="stroke:#7B3F9A;stroke-width:0.5;" width="397.1441" x="1436.5" y="320.2969"/><ellipse cx="1456.7462" cy="342.2046" fill="none" rx="5.9538" ry="5.9538" style="stroke:#252327;stroke-width:1.8;"/><ellipse cx="1456.7462" cy="342.2046" fill="none" rx="3.0462" ry="3.0462" style="stroke:#252327;stroke-width:1.8;"/><path d="M1460.5954,339.8923 L1459.5431,338.4246 L1463.8354,335.3784 L1464.8877,336.8461" fill="#252327"/><path d="M1460.6231,340.3353 L1464.0846,340.3353 L1464.0846,342.1353 L1460.6231,342.1353" fill="#252327"/><ellipse cx="1456.7462" cy="342.2046" fill="#252327" rx="1.2462" ry="1.2462" style="stroke:none;stroke-width:1.8;"/><text fill="#000000" font-family="'Helvetica Neue, Helvetica, Arial, sans-serif'" font-size="12" lengthAdjust="spacing" textLength="351.1758" x="1472.4683" y="349.6206">Implementation Changes Fed Back, Reviewed &amp; Promoted</text></g><!--entity OUT_9jS0BB--><g class="entity" data-qualified-name="Outcomes.OUT_9jS0BB" data-source-line="100" id="ent0024"><rect fill="#EDD6F0" height="42.1538" rx="2" ry="2" style="stroke:#7B3F9A;stroke-width:0.5;" width="343.7476" x="2382" y="320.2969"/><ellipse cx="2402.2462" cy="342.2046" fill="none" rx="5.9538" ry="5.9538" style="stroke:#252327;stroke-width:1.8;"/><ellipse cx="2402.2462" cy="342.2046" fill="none" rx="3.0462" ry="3.0462" style="stroke:#252327;stroke-width:1.8;"/><path d="M2406.0954,339.8923 L2405.0431,338.4246 L2409.3354,335.3784 L2410.3877,336.8461" fill="#252327"/><path d="M2406.1231,340.3353 L2409.5846,340.3353 L2409.5846,342.1353 L2406.1231,342.1353" fill="#252327"/><ellipse cx="2402.2462" cy="342.2046" fill="#252327" rx="1.2462" ry="1.2462" style="stroke:none;stroke-width:1.8;"/><text fill="#000000" font-family="'Helvetica Neue, Helvetica, Arial, sans-serif'" font-size="12" lengthAdjust="spacing" textLength="297.7793" x="2417.9683" y="349.6206">Requirements Traceable to Realized Components</text></g><!--entity OUT_aOcRl9--><g class="entity" data-qualified-name="Outcomes.OUT_aOcRl9" data-source-line="101" id="ent0025"><rect fill="#EDD6F0" height="42.1538" rx="2" ry="2" style="stroke:#7B3F9A;stroke-width:0.5;" width="429.2359" x="3100.5" y="320.2969"/><ellipse cx="3120.7462" cy="342.2046" fill="none" rx="5.9538" ry="5.9538" style="stroke:#252327;stroke-width:1.8;"/><ellipse cx="3120.7462" cy="342.2046" fill="none" rx="3.0462" ry="3.0462" style="stroke:#252327;stroke-width:1.8;"/><path d="M3124.5954,339.8923 L3123.5431,338.4246 L3127.8354,335.3784 L3128.8877,336.8461" fill="#252327"/><path d="M3124.6231,340.3353 L3128.0846,340.3353 L3128.0846,342.1353 L3124.6231,342.1353" fill="#252327"/><ellipse cx="3120.7462" cy="342.2046" fill="#252327" rx="1.2462" ry="1.2462" style="stroke:none;stroke-width:1.8;"/><text fill="#000000" font-family="'Helvetica Neue, Helvetica, Arial, sans-serif'" font-size="12" lengthAdjust="spacing" textLength="383.2676" x="3136.4683" y="349.6206">Architecture Governance Scales Without Proportional Overhead</text></g><!--entity OUT_LrpdG0--><g class="entity" data-qualified-name="Outcomes.OUT_LrpdG0" data-source-line="102" id="ent0026"><rect fill="#EDD6F0" height="42.1538" rx="2" ry="2" style="stroke:#7B3F9A;stroke-width:0.5;" width="254.1695" x="2786" y="320.2969"/><ellipse cx="2806.2462" cy="342.2046" fill="none" rx="5.9538" ry="5.9538" style="stroke:#252327;stroke-width:1.8;"/><ellipse cx="2806.2462" cy="342.2046" fill="none" rx="3.0462" ry="3.0462" style="stroke:#252327;stroke-width:1.8;"/><path d="M2810.0954,339.8923 L2809.0431,338.4246 L2813.3354,335.3784 L2814.3877,336.8461" fill="#252327"/><path d="M2810.1231,340.3353 L2813.5846,340.3353 L2813.5846,342.1353 L2810.1231,342.1353" fill="#252327"/><ellipse cx="2806.2462" cy="342.2046" fill="#252327" rx="1.2462" ry="1.2462" style="stroke:none;stroke-width:1.8;"/><text fill="#000000" font-family="'Helvetica Neue, Helvetica, Arial, sans-serif'" font-size="12" lengthAdjust="spacing" textLength="208.2012" x="2821.9683" y="349.6206">Increased Architectural Coherence</text></g><!--entity OUT_edEkJa--><g class="entity" data-qualified-name="Outcomes.OUT_edEkJa" data-source-line="103" id="ent0027"><rect fill="#EDD6F0" height="42.1538" rx="2" ry="2" style="stroke:#7B3F9A;stroke-width:0.5;" width="414.3238" x="3590" y="320.2969"/><ellipse cx="3610.2462" cy="342.2046" fill="none" rx="5.9538" ry="5.9538" style="stroke:#252327;stroke-width:1.8;"/><ellipse cx="3610.2462" cy="342.2046" fill="none" rx="3.0462" ry="3.0462" style="stroke:#252327;stroke-width:1.8;"/><path d="M3614.0954,339.8923 L3613.0431,338.4246 L3617.3354,335.3784 L3618.3877,336.8461" fill="#252327"/><path d="M3614.1231,340.3353 L3617.5846,340.3353 L3617.5846,342.1353 L3614.1231,342.1353" fill="#252327"/><ellipse cx="3610.2462" cy="342.2046" fill="#252327" rx="1.2462" ry="1.2462" style="stroke:none;stroke-width:1.8;"/><text fill="#000000" font-family="'Helvetica Neue, Helvetica, Arial, sans-serif'" font-size="12" lengthAdjust="spacing" textLength="368.3555" x="3625.9683" y="349.6206">Proven Patterns Promoted and Adopted Across Engagements</text></g><!--link GOL_FCfDuc to GOL_5Fk9di--><!--link GOL_FCfDuc to GOL_5Fk9di--><g class="link" data-entity-1="ent0003" data-entity-2="ent0004" data-link-type="association" data-source-line="118" id="lnk39"><path d="M2946.1,97.2969 C3099.7,97.2969 3279.67,97.2969 3279.67,97.2969 C3279.67,97.2969 3279.67,163.0969 3279.67,198.0469" fill="none" id="GOL_FCfDuc-GOL_5Fk9di-1" style="stroke:#181818;stroke-width:1;"/></g><!--link GOL_5Fk9di to GOL_Lm2Bn2--><!--link GOL_Lm2Bn2 to GOL_Gh3Jk1--><!--link GOL_Gh3Jk1 to GOL_Xwvgpb--><!--link GOL_Xwvgpb to GOL_Po1Qw3--><!--link GOL_Po1Qw3 to GOL_kCcPph--><!--link OUT_AlZjX8 to OUT_JZMIk3--><!--link OUT_JZMIk3 to OUT_YSRwR0--><!--link OUT_YSRwR0 to OUT_FXFGrO--><!--link OUT_FXFGrO to OUT__AzP1Q--><!--link OUT__AzP1Q to OUT_a5mNob--><!--link OUT_a5mNob to OUT_g7PM4Y--><!--link OUT_g7PM4Y to OUT_9jS0BB--><!--link OUT_9jS0BB to OUT_aOcRl9--><!--link OUT_aOcRl9 to OUT_LrpdG0--><!--link OUT_LrpdG0 to OUT_edEkJa--><!--link GOL_kCcPph to OUT_AlZjX8--><!--link GOL_FCfDuc to GOL_Lm2Bn2--><g class="link" data-entity-1="ent0003" data-entity-2="ent0005" data-link-type="association" data-source-line="119" id="lnk40"><path d="M2517.81,87.2969 C2089.47,87.2969 1168,87.2969 1168,87.2969 C1168,87.2969 1168,160.7769 1168,198.0869" fill="none" id="GOL_FCfDuc-GOL_Lm2Bn2" style="stroke:#181818;stroke-width:1;"/></g><!--link GOL_FCfDuc to GOL_Gh3Jk1--><g class="link" data-entity-1="ent0003" data-entity-2="ent0006" data-link-type="association" data-source-line="120" id="lnk41"><path d="M2517.8,97.2969 C2206.03,97.2969 1664,97.2969 1664,97.2969 C1664,97.2969 1664,163.0969 1664,198.0469" fill="none" id="GOL_FCfDuc-GOL_Gh3Jk1" style="stroke:#181818;stroke-width:1;"/></g><!--link GOL_FCfDuc to GOL_Xwvgpb--><g class="link" data-entity-1="ent0003" data-entity-2="ent0007" data-link-type="association" data-source-line="121" id="lnk42"><path d="M2517.82,108.2969 C2355.07,108.2969 2159,108.2969 2159,108.2969 C2159,108.2969 2159,165.9469 2159,198.1569" fill="none" id="GOL_FCfDuc-GOL_Xwvgpb" style="stroke:#181818;stroke-width:1;"/></g><!--link GOL_Po1Qw3 to GOL_FCfDuc--><g class="link" data-entity-1="ent0008" data-entity-2="ent0003" data-link-type="association" data-source-line="122" id="lnk43"><path d="M2602.75,198.0469 C2602.75,175.6569 2602.75,140.6069 2602.75,118.3069" fill="none" id="GOL_Po1Qw3-GOL_FCfDuc" style="stroke:#181818;stroke-width:1;"/></g><!--link GOL_kCcPph to GOL_FCfDuc--><g class="link" data-entity-1="ent0009" data-entity-2="ent0003" data-link-type="association" data-source-line="123" id="lnk44"><path d="M2846.75,198.0469 C2846.75,175.6569 2846.75,140.6069 2846.75,118.3069" fill="none" id="GOL_kCcPph-GOL_FCfDuc" style="stroke:#181818;stroke-width:1;"/></g><!--reverse link GOL_5Fk9di to OUT_AlZjX8--><g class="link" data-entity-1="ent0004" data-entity-2="ent0017" data-link-type="extension" data-source-line="125" id="lnk46"><path d="M3587.08,226.2969 C3857.95,226.2969 4268,226.2969 4268,226.2969 C4268,226.2969 4268,287.0069 4268,320.2069" fill="none" id="GOL_5Fk9di-backto-OUT_AlZjX8" style="stroke:#181818;stroke-width:1;"/><polygon fill="none" points="3569.08,226.2969,3587.08,232.2969,3587.08,220.2969,3569.08,226.2969" style="stroke:#181818;stroke-width:1;"/></g><!--reverse link GOL_5Fk9di to OUT_JZMIk3--><g class="link" data-entity-1="ent0004" data-entity-2="ent0018" data-link-type="extension" data-source-line="126" id="lnk48"><path d="M3587.18,212.2969 C3951.42,212.2969 4628,212.2969 4628,212.2969 C4628,212.2969 4628,283.7269 4628,320.2869" fill="none" id="GOL_5Fk9di-backto-OUT_JZMIk3" style="stroke:#181818;stroke-width:1;"/><polygon fill="none" points="3569.18,212.2969,3587.18,218.2969,3587.18,206.2969,3569.18,212.2969" style="stroke:#181818;stroke-width:1;"/></g><!--reverse link GOL_Lm2Bn2 to OUT_YSRwR0--><g class="link" data-entity-1="ent0005" data-entity-2="ent0019" data-link-type="extension" data-source-line="127" id="lnk50"><path d="M948,219.2969 C654.77,219.2969 163.83,219.2969 163.83,219.2969 C163.83,219.2969 163.83,285.0969 163.83,320.0469" fill="none" id="GOL_Lm2Bn2-backto-OUT_YSRwR0" style="stroke:#181818;stroke-width:1;"/><polygon fill="none" points="966,219.2969,948,213.2969,948,225.2969,966,219.2969" style="stroke:#181818;stroke-width:1;"/></g><!--reverse link GOL_Gh3Jk1 to OUT_FXFGrO--><g class="link" data-entity-1="ent0006" data-entity-2="ent0020" data-link-type="extension" data-source-line="128" id="lnk52"><path d="M1412.17,212.2969 C1395.6,212.2969 1403.25,212.2969 1403.25,212.2969 C1403.25,212.2969 1403.25,341.2969 1403.25,341.2969 C1403.25,341.2969 1392.78,341.2969 1376.18,341.2969" fill="none" id="GOL_Gh3Jk1-backto-OUT_FXFGrO" style="stroke:#181818;stroke-width:1;"/><polygon fill="none" points="1430.17,212.2969,1412.17,206.2969,1412.17,218.2969,1430.17,212.2969" style="stroke:#181818;stroke-width:1;"/></g><!--reverse link GOL_Gh3Jk1 to OUT__AzP1Q--><g class="link" data-entity-1="ent0006" data-entity-2="ent0021" data-link-type="extension" data-source-line="129" id="lnk54"><path d="M1535.75,258.5469 C1535.75,269.3769 1535.75,262.2969 1535.75,262.2969 C1535.75,262.2969 755.83,262.2969 755.83,262.2969 C755.83,262.2969 755.83,296.7269 755.83,320.1269" fill="none" id="GOL_Gh3Jk1-backto-OUT__AzP1Q" style="stroke:#181818;stroke-width:1;"/><polygon fill="none" points="1535.75,240.5469,1529.75,258.5469,1541.75,258.5469,1535.75,240.5469" style="stroke:#181818;stroke-width:1;"/></g><!--reverse link GOL_Xwvgpb to OUT_a5mNob--><g class="link" data-entity-1="ent0007" data-entity-2="ent0022" data-link-type="extension" data-source-line="130" id="lnk56"><path d="M2200.67,258.5469 C2200.67,280.9369 2200.67,297.9869 2200.67,320.2869" fill="none" id="GOL_Xwvgpb-backto-OUT_a5mNob" style="stroke:#181818;stroke-width:1;"/><polygon fill="none" points="2200.67,240.5469,2194.67,258.5469,2206.67,258.5469,2200.67,240.5469" style="stroke:#181818;stroke-width:1;"/></g><!--reverse link GOL_Xwvgpb to OUT_g7PM4Y--><g class="link" data-entity-1="ent0007" data-entity-2="ent0023" data-link-type="extension" data-source-line="131" id="lnk58"><path d="M2079.33,258.3569 C2079.33,284.1069 2079.33,306.2969 2079.33,306.2969 C2079.33,306.2969 1734.25,306.2969 1734.25,306.2969 C1734.25,306.2969 1734.25,312.7569 1734.25,320.1269" fill="none" id="GOL_Xwvgpb-backto-OUT_g7PM4Y" style="stroke:#181818;stroke-width:1;"/><polygon fill="none" points="2079.33,240.3569,2073.33,258.3569,2085.33,258.3569,2079.33,240.3569" style="stroke:#181818;stroke-width:1;"/></g><!--reverse link GOL_Po1Qw3 to OUT_9jS0BB--><g class="link" data-entity-1="ent0008" data-entity-2="ent0024" data-link-type="extension" data-source-line="132" id="lnk60"><path d="M2509.5,258.5469 C2509.5,280.9369 2509.5,297.9869 2509.5,320.2869" fill="none" id="GOL_Po1Qw3-backto-OUT_9jS0BB" style="stroke:#181818;stroke-width:1;"/><polygon fill="none" points="2509.5,240.5469,2503.5,258.5469,2515.5,258.5469,2509.5,240.5469" style="stroke:#181818;stroke-width:1;"/></g><!--reverse link GOL_FCfDuc to OUT_aOcRl9--><g class="link" data-entity-1="ent0003" data-entity-2="ent0025" data-link-type="extension" data-source-line="133" id="lnk62"><path d="M2964.21,108.2969 C3056.82,108.2969 3126.38,108.2969 3126.38,108.2969 C3126.38,108.2969 3126.38,262.8569 3126.38,320.2069" fill="none" id="GOL_FCfDuc-backto-OUT_aOcRl9" style="stroke:#181818;stroke-width:1;"/><polygon fill="none" points="2946.21,108.2969,2964.21,114.2969,2964.21,102.2969,2946.21,108.2969" style="stroke:#181818;stroke-width:1;"/></g><!--reverse link GOL_Po1Qw3 to OUT_aOcRl9--><g class="link" data-entity-1="ent0008" data-entity-2="ent0025" data-link-type="extension" data-source-line="134" id="lnk64"><path d="M2598.5,258.5069 C2598.5,279.7469 2598.5,291.2969 2598.5,291.2969 C2598.5,291.2969 3117.75,291.2969 3117.75,291.2969 C3117.75,291.2969 3117.75,306.4669 3117.75,320.0969" fill="none" id="GOL_Po1Qw3-backto-OUT_aOcRl9" style="stroke:#181818;stroke-width:1;"/><polygon fill="none" points="2598.5,240.5069,2592.5,258.5069,2604.5,258.5069,2598.5,240.5069" style="stroke:#181818;stroke-width:1;"/></g><!--reverse link GOL_Po1Qw3 to OUT_LrpdG0--><g class="link" data-entity-1="ent0008" data-entity-2="ent0026" data-link-type="extension" data-source-line="135" id="lnk66"><path d="M2705.78,226.2969 C2733.64,226.2969 2736.75,226.2969 2736.75,226.2969 C2736.75,226.2969 2736.75,341.2969 2736.75,341.2969 C2736.75,341.2969 2758.05,341.2969 2785.85,341.2969" fill="none" id="GOL_Po1Qw3-backto-OUT_LrpdG0" style="stroke:#181818;stroke-width:1;"/><polygon fill="none" points="2687.78,226.2969,2705.78,232.2969,2705.78,220.2969,2687.78,226.2969" style="stroke:#181818;stroke-width:1;"/></g><!--reverse link GOL_kCcPph to OUT_edEkJa--><g class="link" data-entity-1="ent0009" data-entity-2="ent0027" data-link-type="extension" data-source-line="136" id="lnk68"><path d="M3051.5,258.5769 C3051.5,277.5369 3051.5,284.2969 3051.5,284.2969 C3051.5,284.2969 3797,284.2969 3797,284.2969 C3797,284.2969 3797,303.8669 3797,320.0769" fill="none" id="GOL_kCcPph-backto-OUT_edEkJa" style="stroke:#181818;stroke-width:1;"/><polygon fill="none" points="3051.5,240.5769,3045.5,258.5769,3057.5,258.5769,3051.5,240.5769" style="stroke:#181818;stroke-width:1;"/></g><?plantuml-src xLVXRjf84FxFKupSKty51qm8uHGYGO0qLL9eQ9ksfrEqs0lUmzxrhHSexLMwXxWdl2UvMRB41ZQLdElFA54OFEETsPbllfc4BA2GAYgfKAk4bahfZF64I193G2Ta7gc-uEeDYIauhsYqe8hv1DxGEJs0X-y7q9QCH0UG4fwMKohPnB4VD69VALIzd38DII2MZ4zXGgAKvZHIp7dW2ycfXAFSyp7nPzErybn4GiABVbl_v4EF6AVwEY2a2aLEmKL0Kvh0SINlYF2PVdYozP3wYl1fH4zFhuLY2wAOu1VeDi5OpyxWMmcWinT9ezVhDxL6o81AyxJHgVMRxT9t--bJGQB7pkjrkyVzIh7pn5pv8gPFF39yniCp7fxny8o7nuvC95CKVY7I3rbC5BtJyS5fkfZ2bpZYQSi9bKf-FJnSBfVkikOAEJtqAfNA8Leui61qsH5VMau5Ab0znb_dxDHdqeye-FZun05_jVwGBUV8nK-Oi2XgELnmwY0GfPZHblF2gtirhx5vK5woG8Kjf-hMdCF7p_FSvayzJwlDSJi7RCwtdwTJSMR9fAdCJqjcmpqouRh79g6r_vk0lJCzrtlIcGbH8GGjvxfQSQidSEmsQrTDzyY3kdlIkAfwRjs3cdkCOitrJk38RTI-xcPxvnYl0WtNguVuRcM1RYglrWzjh_teHXebJwwg4Wae0MEXb41cOxhna1XA9SKKEhmDYO9RYdn8uPrSQLf3wpOYW2ue_FltFt21xPJ2InZSWo4jbHvw5vorqe4VK4xE-7IdIR-bFebeg-hMlvyzk7pFcLg1c41lCa4onETIf2cqvqfm4OjvYjmzfHnP74RTgtEu5NAc0p2iH5Au65pTzSydtRbVmFqeeJI0zmac0cqKlZMNI2F3Y72ka_8Iyx2WaXFkKy307eAm-w_tPys05V2l7G5oMqJ6Gc8U5pHQ0UD0T48cZ0O7C59aYZ7Uq4IaJ0cvWj4A1s6yx_qgzZhSA-9TYeMUgvSye0d5FroX7nAKsxvFCViQ4bbUxXFmZf9OusATY7G_Y8kmzdfMBH14ZvCn6lL9gg2FrT1Z4oOIKNiP9n6DqSqQOBlHxBl-k5nCat41rzU4uU5CLo34pKBNcF006uBub8nPX93Szp8KrRVBMl4Bdcj0btjyYkNKbzg1t0sTfvOxpSxzOHBYmClW3UNVS1l2OlqksJHKvJpoCj5gPH2IYLOhKy9Cj5gPR6UYrSfaAnEjLkQMUOhPyCvJMCOCiAqgtD1WxcCVsLjxW5A8oDVUiiK4Qp1u_-wk7Nt-u-D9CNVjIzCXcj2Opr34pkworDTEqNalO6gxkzfIiGdnxvjgBuZNdwylPxLYGI1rp6We8joV4E9uJydJDS9VuP_oO3A1eM3h6Bya4GQfG_oWjsAc4MiDuzFePdbJAPYBBQ1Vp5cmpdbxGLYqRerRXjllN6aszd4_PyW4NKD8_ieQHlzZ_q8EdbeIv3qD1gIR9MOcNuHo5s-lC5dI34nxCUxQNuVLjyNSduTeI5FuW1SCq2Z0Q91xqXqKT2YoBDtXFciGf1w_4UDYGUnGwYQcFaQZD_03R1EzpU7NbpfBiS0uhSwdZU7rqQUYBVZd71UHU5q3GxBu7l8w3fq8_-CACF5nWhiDVwG9cd-CAftEaz57yoq_qZRf0_RmjWak7fWLnEWFwO0C_9keMJ3lt9UKfBheMytmC7Yidgva4bmKR3Ozqoc78L5gtUwRAgxxlXs8P8sy--qg6qRsTDEWDtjDSFXaBBX7tpbkoaIhbQ6EJBHQcSxEHAkLQS1Cj5gP3ib4gvM1SYPQhGpqCj7kyHuRcMYrCdNDHAkLoNuf6v2PMI2Ml9mVJblxmTvAiAt8RG7RYjpWtrRaPlrcYfVp2tS-n2t55dBcIVclitneUS1ObHkSP4eJUnuUcTB4dqU5LRa1GwOq5ynZmAhSb3vJcWKdN_5CQR9WL-RUtA30ghp7GLvfrgN_0000?></g></svg>