<svg xmlns="http://www.w3.org/2000/svg" xmlns:xlink="http://www.w3.org/1999/xlink" contentStyleType="text/css" data-diagram-type="DESCRIPTION" height="577px" preserveAspectRatio="none" style="width:3672px;height:577px;background:#FAFAFA;" version="1.1" viewBox="0 0 3672 577" width="3672px" zoomAndPan="magnify"><title>Application Components &amp; Technology</title><defs/><g><rect fill="#FAFAFA" height="577" style="stroke:none;stroke-width:1;" width="3672" x="0" y="0"/><text fill="#000000" font-family="sans-serif" font-size="14" font-weight="bold" lengthAdjust="spacing" textLength="305.1631" x="1676.4185" y="22.9951">Application Components &amp; Technology</text><!--cluster GRP_CONS--><g class="cluster" data-entity="GRP_CONS" data-source-line="7" data-uid="ent0002" id="cluster_GRP_CONS"><rect fill="#E8F8FF" height="108" rx="2" ry="2" style="stroke:#0078A0;stroke-width:1;" width="1362" x="988" y="299.2969"/><text fill="#000000" font-family="sans-serif" font-size="12" font-weight="bold" lengthAdjust="spacing" textLength="74.9824" x="1631.5088" y="312.4355">Consumers</text></g><!--cluster APP_OYEmP1--><g class="cluster" data-entity="APP_OYEmP1" data-source-line="19" data-uid="ent0012" id="cluster_APP_OYEmP1"><rect fill="#CCF2FF" height="318" rx="2" ry="2" style="stroke:#0078A0;stroke-width:1;" width="941" x="7" y="89.2969"/><path d="M396.3682,97.5969 L407.4682,97.5969 L407.4682,108.9969 L396.3682,108.9969" fill="#252327"/><path d="M393.8182,98.7219 L396.3682,98.7219 L396.3682,100.6719 L393.8182,100.6719" fill="#252327"/><path d="M393.8182,102.3219 L396.3682,102.3219 L396.3682,104.2719 L393.8182,104.2719" fill="#252327"/><path d="M393.8182,105.9219 L396.3682,105.9219 L396.3682,107.8719 L393.8182,107.8719" fill="#252327"/><path d="M407.4682,98.7219 L409.5682,98.7219 L409.5682,100.6719 L407.4682,100.6719" fill="#252327"/><path d="M407.4682,102.3219 L409.5682,102.3219 L409.5682,104.2719 L407.4682,104.2719" fill="#252327"/><path d="M407.4682,105.9219 L409.5682,105.9219 L409.5682,107.8719 L407.4682,107.8719" fill="#252327"/><text fill="#000000" font-family="sans-serif" font-size="12" font-weight="bold" lengthAdjust="spacing" textLength="146.0859" x="418.5459" y="112.4668">Architecture Backend</text></g><!--cluster GRP_SUP--><g class="cluster" data-entity="GRP_SUP" data-source-line="37" data-uid="ent0028" id="cluster_GRP_SUP"><rect fill="#E8F8FF" height="527" rx="2" ry="2" style="stroke:#0078A0;stroke-width:1;" width="834" x="2390" y="44.2969"/><text fill="#000000" font-family="sans-serif" font-size="12" font-weight="bold" lengthAdjust="spacing" textLength="164.1797" x="2724.9102" y="57.4355">Supporting Components</text></g><!--cluster GRP_SUP_A--><g class="cluster" data-entity="GRP_SUP_A" data-source-line="38" data-uid="ent0029" id="cluster_GRP_SUP_A"><rect fill="#EDE8E1" height="307" rx="2" ry="2" style="stroke:#8C7E6A;stroke-width:1;" width="222" x="2954" y="100.2969"/><text fill="#000000" font-family="sans-serif" font-size="12" font-weight="bold" lengthAdjust="spacing" textLength="96.9199" x="3016.54" y="113.4355">Query &amp; Index</text></g><!--cluster GRP_SUP_B--><g class="cluster" data-entity="GRP_SUP_B" data-source-line="43" data-uid="ent0033" id="cluster_GRP_SUP_B"><rect fill="#EDE8E1" height="431" rx="2" ry="2" style="stroke:#8C7E6A;stroke-width:1;" width="220" x="2694" y="100.2969"/><text fill="#000000" font-family="sans-serif" font-size="12" font-weight="bold" lengthAdjust="spacing" textLength="156.1523" x="2725.9238" y="113.4355">Authoring &amp; Rendering</text></g><!--cluster GRP_SUP_C--><g class="cluster" data-entity="GRP_SUP_C" data-source-line="50" data-uid="ent0039" id="cluster_GRP_SUP_C"><rect fill="#EDE8E1" height="108" rx="2" ry="2" style="stroke:#8C7E6A;stroke-width:1;" width="224" x="2430" y="100.2969"/><text fill="#000000" font-family="sans-serif" font-size="12" font-weight="bold" lengthAdjust="spacing" textLength="78.6387" x="2502.6807" y="113.4355">Verification</text></g><!--cluster GRP_TECH--><g class="cluster" data-entity="GRP_TECH" data-source-line="57" data-uid="ent0043" id="cluster_GRP_TECH"><rect fill="#E8FFEE" height="183" rx="2" ry="2" style="stroke:#2E7D32;stroke-width:1;" width="402" x="3264" y="248.2969"/><text fill="#000000" font-family="sans-serif" font-size="12" font-weight="bold" lengthAdjust="spacing" textLength="77.5371" x="3426.2314" y="261.4355">Technology</text></g><!--cluster NOD_4EFX7z--><g class="cluster" data-entity="NOD_4EFX7z" data-source-line="58" data-uid="ent0044" id="cluster_NOD_4EFX7z"><rect fill="#CCFFCC" height="103" rx="2" ry="2" style="stroke:#2E7D32;stroke-width:1;" width="318" x="3316" y="296.2969"/><path d="M3388.7939,305.1969 L3398.9939,305.1969 L3398.9939,315.0969 L3388.7939,315.0969" fill="#252327"/><path d="M3398.3489,305.9169 L3399.6389,304.4769 L3402.6389,307.1769 L3401.3489,308.6169" fill="#252327"/><path d="M3401.0189,307.8969 L3401.0189,317.7969 L3402.9689,317.7969 L3402.9689,307.8969" fill="#252327"/><path d="M3401.3489,317.0769 L3402.6389,318.5169 L3399.6389,321.2169 L3398.3489,319.7769" fill="#252327"/><path d="M3388.1489,315.8169 L3389.4389,314.3769 L3392.4389,317.0769 L3391.1489,318.5169" fill="#252327"/><path d="M3391.7939,316.8219 L3401.9939,316.8219 L3401.9939,318.7719 L3391.7939,318.7719" fill="#252327"/><path d="M3398.0189,305.1969 L3398.0189,315.0969 L3399.9689,315.0969 L3399.9689,305.1969" fill="#252327"/><text fill="#000000" font-family="sans-serif" font-size="12" font-weight="bold" lengthAdjust="spacing" textLength="156.2344" x="3410.9717" y="319.4668">Developer Workstation</text></g><!--entity APP_lmO0mp--><g class="entity" data-entity="APP_lmO0mp" data-source-line="8" data-uid="ent0003" id="entity_APP_lmO0mp"><rect fill="#CCF2FF" height="44" rx="2" ry="2" style="stroke:#0078A0;stroke-width:0.5;" width="161.3691" x="1056.5" y="339.2969"/><path d="M1072.5,355.5969 L1083.6,355.5969 L1083.6,366.9969 L1072.5,366.9969" fill="#252327"/><path d="M1069.95,356.7219 L1072.5,356.7219 L1072.5,358.6719 L1069.95,358.6719" fill="#252327"/><path d="M1069.95,360.3219 L1072.5,360.3219 L1072.5,362.2719 L1069.95,362.2719" fill="#252327"/><path d="M1069.95,363.9219 L1072.5,363.9219 L1072.5,365.8719 L1069.95,365.8719" fill="#252327"/><path d="M1083.6,356.7219 L1085.7,356.7219 L1085.7,358.6719 L1083.6,358.6719" fill="#252327"/><path d="M1083.6,360.3219 L1085.7,360.3219 L1085.7,362.2719 L1083.6,362.2719" fill="#252327"/><path d="M1083.6,363.9219 L1085.7,363.9219 L1085.7,365.8719 L1083.6,365.8719" fill="#252327"/><text fill="#000000" font-family="sans-serif" font-size="12" lengthAdjust="spacing" textLength="3.8145" x="1090.5" y="370.4668">&#160;</text><text fill="#000000" font-family="sans-serif" font-size="12" lengthAdjust="spacing" textLength="21.6211" x="1094.3145" y="370.4668">GUI</text><text fill="#000000" font-family="sans-serif" font-size="12" lengthAdjust="spacing" textLength="3.8145" x="1115.9355" y="370.4668">&#160;</text><text fill="#000000" font-family="sans-serif" font-size="12" lengthAdjust="spacing" textLength="58.957" x="1119.75" y="370.4668">Authoring</text><text fill="#000000" font-family="sans-serif" font-size="12" lengthAdjust="spacing" textLength="3.8145" x="1178.707" y="370.4668">&#160;</text><text fill="#000000" font-family="sans-serif" font-size="12" lengthAdjust="spacing" textLength="25.3477" x="1182.5215" y="370.4668">Tool</text></g><!--entity APP_N96vdO--><g class="entity" data-entity="APP_N96vdO" data-source-line="9" data-uid="ent0004" id="entity_APP_N96vdO"><rect fill="#CCF2FF" height="44" rx="2" ry="2" style="stroke:#0078A0;stroke-width:0.5;" width="214.0859" x="1278" y="339.2969"/><path d="M1294,355.5969 L1305.1,355.5969 L1305.1,366.9969 L1294,366.9969" fill="#252327"/><path d="M1291.45,356.7219 L1294,356.7219 L1294,358.6719 L1291.45,358.6719" fill="#252327"/><path d="M1291.45,360.3219 L1294,360.3219 L1294,362.2719 L1291.45,362.2719" fill="#252327"/><path d="M1291.45,363.9219 L1294,363.9219 L1294,365.8719 L1291.45,365.8719" fill="#252327"/><path d="M1305.1,356.7219 L1307.2,356.7219 L1307.2,358.6719 L1305.1,358.6719" fill="#252327"/><path d="M1305.1,360.3219 L1307.2,360.3219 L1307.2,362.2719 L1305.1,362.2719" fill="#252327"/><path d="M1305.1,363.9219 L1307.2,363.9219 L1307.2,365.8719 L1305.1,365.8719" fill="#252327"/><text fill="#000000" font-family="sans-serif" font-size="12" lengthAdjust="spacing" textLength="3.8145" x="1312" y="370.4668">&#160;</text><text fill="#000000" font-family="sans-serif" font-size="12" lengthAdjust="spacing" textLength="45.4512" x="1315.8145" y="370.4668">Agentic</text><text fill="#000000" font-family="sans-serif" font-size="12" lengthAdjust="spacing" textLength="3.8145" x="1361.2656" y="370.4668">&#160;</text><text fill="#000000" font-family="sans-serif" font-size="12" lengthAdjust="spacing" textLength="23.7246" x="1365.0801" y="370.4668">LLM</text><text fill="#000000" font-family="sans-serif" font-size="12" lengthAdjust="spacing" textLength="3.8145" x="1388.8047" y="370.4668">&#160;</text><text fill="#000000" font-family="sans-serif" font-size="12" lengthAdjust="spacing" textLength="18.6035" x="1392.6191" y="370.4668">CLI</text><text fill="#000000" font-family="sans-serif" font-size="12" lengthAdjust="spacing" textLength="3.8145" x="1411.2227" y="370.4668">&#160;</text><text fill="#000000" font-family="sans-serif" font-size="12" lengthAdjust="spacing" textLength="67.0488" x="1415.0371" y="370.4668">Application</text></g><!--entity APP_AUw6Qr--><g class="entity" data-entity="APP_AUw6Qr" data-source-line="10" data-uid="ent0005" id="entity_APP_AUw6Qr"><rect fill="#CCF2FF" height="44" rx="2" ry="2" style="stroke:#0078A0;stroke-width:0.5;" width="244.9707" x="1552.5" y="339.2969"/><path d="M1568.5,355.5969 L1579.6,355.5969 L1579.6,366.9969 L1568.5,366.9969" fill="#252327"/><path d="M1565.95,356.7219 L1568.5,356.7219 L1568.5,358.6719 L1565.95,358.6719" fill="#252327"/><path d="M1565.95,360.3219 L1568.5,360.3219 L1568.5,362.2719 L1565.95,362.2719" fill="#252327"/><path d="M1565.95,363.9219 L1568.5,363.9219 L1568.5,365.8719 L1565.95,365.8719" fill="#252327"/><path d="M1579.6,356.7219 L1581.7,356.7219 L1581.7,358.6719 L1579.6,358.6719" fill="#252327"/><path d="M1579.6,360.3219 L1581.7,360.3219 L1581.7,362.2719 L1579.6,362.2719" fill="#252327"/><path d="M1579.6,363.9219 L1581.7,363.9219 L1581.7,365.8719 L1579.6,365.8719" fill="#252327"/><text fill="#000000" font-family="sans-serif" font-size="12" lengthAdjust="spacing" textLength="3.8145" x="1586.5" y="370.4668">&#160;</text><text fill="#000000" font-family="sans-serif" font-size="12" lengthAdjust="spacing" textLength="45.4512" x="1590.3145" y="370.4668">Agentic</text><text fill="#000000" font-family="sans-serif" font-size="12" lengthAdjust="spacing" textLength="3.8145" x="1635.7656" y="370.4668">&#160;</text><text fill="#000000" font-family="sans-serif" font-size="12" lengthAdjust="spacing" textLength="23.7246" x="1639.5801" y="370.4668">LLM</text><text fill="#000000" font-family="sans-serif" font-size="12" lengthAdjust="spacing" textLength="3.8145" x="1663.3047" y="370.4668">&#160;</text><text fill="#000000" font-family="sans-serif" font-size="12" lengthAdjust="spacing" textLength="49.4883" x="1667.1191" y="370.4668">Desktop</text><text fill="#000000" font-family="sans-serif" font-size="12" lengthAdjust="spacing" textLength="3.8145" x="1716.6074" y="370.4668">&#160;</text><text fill="#000000" font-family="sans-serif" font-size="12" lengthAdjust="spacing" textLength="67.0488" x="1720.4219" y="370.4668">Application</text></g><!--entity APP_PaedDQ--><g class="entity" data-entity="APP_PaedDQ" data-source-line="11" data-uid="ent0006" id="entity_APP_PaedDQ"><rect fill="#CCF2FF" height="44" rx="2" ry="2" style="stroke:#0078A0;stroke-width:0.5;" width="185.5273" x="1858" y="339.2969"/><path d="M1874,355.5969 L1885.1,355.5969 L1885.1,366.9969 L1874,366.9969" fill="#252327"/><path d="M1871.45,356.7219 L1874,356.7219 L1874,358.6719 L1871.45,358.6719" fill="#252327"/><path d="M1871.45,360.3219 L1874,360.3219 L1874,362.2719 L1871.45,362.2719" fill="#252327"/><path d="M1871.45,363.9219 L1874,363.9219 L1874,365.8719 L1871.45,365.8719" fill="#252327"/><path d="M1885.1,356.7219 L1887.2,356.7219 L1887.2,358.6719 L1885.1,358.6719" fill="#252327"/><path d="M1885.1,360.3219 L1887.2,360.3219 L1887.2,362.2719 L1885.1,362.2719" fill="#252327"/><path d="M1885.1,363.9219 L1887.2,363.9219 L1887.2,365.8719 L1885.1,365.8719" fill="#252327"/><text fill="#000000" font-family="sans-serif" font-size="12" lengthAdjust="spacing" textLength="3.8145" x="1892" y="370.4668">&#160;</text><text fill="#000000" font-family="sans-serif" font-size="12" lengthAdjust="spacing" textLength="45.4512" x="1895.8145" y="370.4668">Agentic</text><text fill="#000000" font-family="sans-serif" font-size="12" lengthAdjust="spacing" textLength="3.8145" x="1941.2656" y="370.4668">&#160;</text><text fill="#000000" font-family="sans-serif" font-size="12" lengthAdjust="spacing" textLength="23.7246" x="1945.0801" y="370.4668">LLM</text><text fill="#000000" font-family="sans-serif" font-size="12" lengthAdjust="spacing" textLength="3.8145" x="1968.8047" y="370.4668">&#160;</text><text fill="#000000" font-family="sans-serif" font-size="12" lengthAdjust="spacing" textLength="20.3613" x="1972.6191" y="370.4668">IDE</text><text fill="#000000" font-family="sans-serif" font-size="12" lengthAdjust="spacing" textLength="3.8145" x="1992.9805" y="370.4668">&#160;</text><text fill="#000000" font-family="sans-serif" font-size="12" lengthAdjust="spacing" textLength="36.7324" x="1996.7949" y="370.4668">Plugin</text></g><!--entity APP_27nbQ9--><g class="entity" data-entity="APP_27nbQ9" data-source-line="12" data-uid="ent0007" id="entity_APP_27nbQ9"><rect fill="#CCF2FF" height="44" rx="2" ry="2" style="stroke:#0078A0;stroke-width:0.5;" width="222.3477" x="2104" y="339.2969"/><path d="M2120,355.5969 L2131.1,355.5969 L2131.1,366.9969 L2120,366.9969" fill="#252327"/><path d="M2117.45,356.7219 L2120,356.7219 L2120,358.6719 L2117.45,358.6719" fill="#252327"/><path d="M2117.45,360.3219 L2120,360.3219 L2120,362.2719 L2117.45,362.2719" fill="#252327"/><path d="M2117.45,363.9219 L2120,363.9219 L2120,365.8719 L2117.45,365.8719" fill="#252327"/><path d="M2131.1,356.7219 L2133.2,356.7219 L2133.2,358.6719 L2131.1,358.6719" fill="#252327"/><path d="M2131.1,360.3219 L2133.2,360.3219 L2133.2,362.2719 L2131.1,362.2719" fill="#252327"/><path d="M2131.1,363.9219 L2133.2,363.9219 L2133.2,365.8719 L2131.1,365.8719" fill="#252327"/><text fill="#000000" font-family="sans-serif" font-size="12" lengthAdjust="spacing" textLength="3.8145" x="2138" y="370.4668">&#160;</text><text fill="#000000" font-family="sans-serif" font-size="12" lengthAdjust="spacing" textLength="45.4512" x="2141.8145" y="370.4668">Agentic</text><text fill="#000000" font-family="sans-serif" font-size="12" lengthAdjust="spacing" textLength="3.8145" x="2187.2656" y="370.4668">&#160;</text><text fill="#000000" font-family="sans-serif" font-size="12" lengthAdjust="spacing" textLength="23.7246" x="2191.0801" y="370.4668">LLM</text><text fill="#000000" font-family="sans-serif" font-size="12" lengthAdjust="spacing" textLength="3.8145" x="2214.8047" y="370.4668">&#160;</text><text fill="#000000" font-family="sans-serif" font-size="12" lengthAdjust="spacing" textLength="26.8652" x="2218.6191" y="370.4668">Web</text><text fill="#000000" font-family="sans-serif" font-size="12" lengthAdjust="spacing" textLength="3.8145" x="2245.4844" y="370.4668">&#160;</text><text fill="#000000" font-family="sans-serif" font-size="12" lengthAdjust="spacing" textLength="67.0488" x="2249.2988" y="370.4668">Application</text></g><!--entity APP_kRZYOA--><g class="entity" data-entity="APP_kRZYOA" data-source-line="20" data-uid="ent0013" id="entity_APP_kRZYOA"><rect fill="#CCF2FF" height="44" rx="2" ry="2" style="stroke:#0078A0;stroke-width:0.5;" width="156.793" x="33.5" y="140.2969"/><path d="M49.5,156.5969 L60.6,156.5969 L60.6,167.9969 L49.5,167.9969" fill="#252327"/><path d="M46.95,157.7219 L49.5,157.7219 L49.5,159.6719 L46.95,159.6719" fill="#252327"/><path d="M46.95,161.3219 L49.5,161.3219 L49.5,163.2719 L46.95,163.2719" fill="#252327"/><path d="M46.95,164.9219 L49.5,164.9219 L49.5,166.8719 L46.95,166.8719" fill="#252327"/><path d="M60.6,157.7219 L62.7,157.7219 L62.7,159.6719 L60.6,159.6719" fill="#252327"/><path d="M60.6,161.3219 L62.7,161.3219 L62.7,163.2719 L60.6,163.2719" fill="#252327"/><path d="M60.6,164.9219 L62.7,164.9219 L62.7,166.8719 L60.6,166.8719" fill="#252327"/><text fill="#000000" font-family="sans-serif" font-size="12" lengthAdjust="spacing" textLength="3.8145" x="67.5" y="171.4668">&#160;</text><text fill="#000000" font-family="sans-serif" font-size="12" lengthAdjust="spacing" textLength="25.9688" x="71.3145" y="171.4668">MCP</text><text fill="#000000" font-family="sans-serif" font-size="12" lengthAdjust="spacing" textLength="3.8145" x="97.2832" y="171.4668">&#160;</text><text fill="#000000" font-family="sans-serif" font-size="12" lengthAdjust="spacing" textLength="36.0293" x="101.0977" y="171.4668">Model</text><text fill="#000000" font-family="sans-serif" font-size="12" lengthAdjust="spacing" textLength="3.8145" x="137.127" y="171.4668">&#160;</text><text fill="#000000" font-family="sans-serif" font-size="12" lengthAdjust="spacing" textLength="39.3516" x="140.9414" y="171.4668">Server</text></g><!--entity APP_a9k_mJ--><g class="entity" data-entity="APP_a9k_mJ" data-source-line="21" data-uid="ent0014" id="entity_APP_a9k_mJ"><rect fill="#CCF2FF" height="44" rx="2" ry="2" style="stroke:#0078A0;stroke-width:0.5;" width="176.3691" x="251" y="140.2969"/><path d="M267,156.5969 L278.1,156.5969 L278.1,167.9969 L267,167.9969" fill="#252327"/><path d="M264.45,157.7219 L267,157.7219 L267,159.6719 L264.45,159.6719" fill="#252327"/><path d="M264.45,161.3219 L267,161.3219 L267,163.2719 L264.45,163.2719" fill="#252327"/><path d="M264.45,164.9219 L267,164.9219 L267,166.8719 L264.45,166.8719" fill="#252327"/><path d="M278.1,157.7219 L280.2,157.7219 L280.2,159.6719 L278.1,159.6719" fill="#252327"/><path d="M278.1,161.3219 L280.2,161.3219 L280.2,163.2719 L278.1,163.2719" fill="#252327"/><path d="M278.1,164.9219 L280.2,164.9219 L280.2,166.8719 L278.1,166.8719" fill="#252327"/><text fill="#000000" font-family="sans-serif" font-size="12" lengthAdjust="spacing" textLength="3.8145" x="285" y="171.4668">&#160;</text><text fill="#000000" font-family="sans-serif" font-size="12" lengthAdjust="spacing" textLength="32.2207" x="288.8145" y="171.4668">Write</text><text fill="#000000" font-family="sans-serif" font-size="12" lengthAdjust="spacing" textLength="3.8145" x="321.0352" y="171.4668">&#160;</text><text fill="#000000" font-family="sans-serif" font-size="12" lengthAdjust="spacing" textLength="49.2832" x="324.8496" y="171.4668">Request</text><text fill="#000000" font-family="sans-serif" font-size="12" lengthAdjust="spacing" textLength="3.8145" x="374.1328" y="171.4668">&#160;</text><text fill="#000000" font-family="sans-serif" font-size="12" lengthAdjust="spacing" textLength="39.4219" x="377.9473" y="171.4668">Queue</text></g><!--entity APP_tIMxjr--><g class="entity" data-entity="APP_tIMxjr" data-source-line="22" data-uid="ent0015" id="entity_APP_tIMxjr"><rect fill="#CCF2FF" height="44" rx="2" ry="2" style="stroke:#0078A0;stroke-width:0.5;" width="154.2852" x="487" y="140.2969"/><path d="M503,156.5969 L514.1,156.5969 L514.1,167.9969 L503,167.9969" fill="#252327"/><path d="M500.45,157.7219 L503,157.7219 L503,159.6719 L500.45,159.6719" fill="#252327"/><path d="M500.45,161.3219 L503,161.3219 L503,163.2719 L500.45,163.2719" fill="#252327"/><path d="M500.45,164.9219 L503,164.9219 L503,166.8719 L500.45,166.8719" fill="#252327"/><path d="M514.1,157.7219 L516.2,157.7219 L516.2,159.6719 L514.1,159.6719" fill="#252327"/><path d="M514.1,161.3219 L516.2,161.3219 L516.2,163.2719 L514.1,163.2719" fill="#252327"/><path d="M514.1,164.9219 L516.2,164.9219 L516.2,166.8719 L514.1,166.8719" fill="#252327"/><text fill="#000000" font-family="sans-serif" font-size="12" lengthAdjust="spacing" textLength="3.8145" x="521" y="171.4668">&#160;</text><text fill="#000000" font-family="sans-serif" font-size="12" lengthAdjust="spacing" textLength="61.5293" x="524.8145" y="171.4668">Promotion</text><text fill="#000000" font-family="sans-serif" font-size="12" lengthAdjust="spacing" textLength="3.8145" x="586.3438" y="171.4668">&#160;</text><text fill="#000000" font-family="sans-serif" font-size="12" lengthAdjust="spacing" textLength="41.127" x="590.1582" y="171.4668">Engine</text></g><!--entity APP_tY3JIK--><g class="entity" data-entity="APP_tY3JIK" data-source-line="23" data-uid="ent0016" id="entity_APP_tY3JIK"><rect fill="#CCF2FF" height="44" rx="2" ry="2" style="stroke:#0078A0;stroke-width:0.5;" width="146.0527" x="701" y="140.2969"/><path d="M717,156.5969 L728.1,156.5969 L728.1,167.9969 L717,167.9969" fill="#252327"/><path d="M714.45,157.7219 L717,157.7219 L717,159.6719 L714.45,159.6719" fill="#252327"/><path d="M714.45,161.3219 L717,161.3219 L717,163.2719 L714.45,163.2719" fill="#252327"/><path d="M714.45,164.9219 L717,164.9219 L717,166.8719 L714.45,166.8719" fill="#252327"/><path d="M728.1,157.7219 L730.2,157.7219 L730.2,159.6719 L728.1,159.6719" fill="#252327"/><path d="M728.1,161.3219 L730.2,161.3219 L730.2,163.2719 L728.1,163.2719" fill="#252327"/><path d="M728.1,164.9219 L730.2,164.9219 L730.2,166.8719 L728.1,166.8719" fill="#252327"/><text fill="#000000" font-family="sans-serif" font-size="12" lengthAdjust="spacing" textLength="3.8145" x="735" y="171.4668">&#160;</text><text fill="#000000" font-family="sans-serif" font-size="12" lengthAdjust="spacing" textLength="17.3379" x="738.8145" y="171.4668">Git</text><text fill="#000000" font-family="sans-serif" font-size="12" lengthAdjust="spacing" textLength="3.8145" x="756.1523" y="171.4668">&#160;</text><text fill="#000000" font-family="sans-serif" font-size="12" lengthAdjust="spacing" textLength="28.9219" x="759.9668" y="171.4668">Sync</text><text fill="#000000" font-family="sans-serif" font-size="12" lengthAdjust="spacing" textLength="3.8145" x="788.8887" y="171.4668">&#160;</text><text fill="#000000" font-family="sans-serif" font-size="12" lengthAdjust="spacing" textLength="44.3496" x="792.7031" y="171.4668">Service</text></g><!--entity APP_5n_KQJ--><g class="entity" data-entity="APP_5n_KQJ" data-source-line="24" data-uid="ent0017" id="entity_APP_5n_KQJ"><rect fill="#CCF2FF" height="44" rx="2" ry="2" style="stroke:#0078A0;stroke-width:0.5;" width="161.0352" x="31.5" y="339.2969"/><path d="M47.5,355.5969 L58.6,355.5969 L58.6,366.9969 L47.5,366.9969" fill="#252327"/><path d="M44.95,356.7219 L47.5,356.7219 L47.5,358.6719 L44.95,358.6719" fill="#252327"/><path d="M44.95,360.3219 L47.5,360.3219 L47.5,362.2719 L44.95,362.2719" fill="#252327"/><path d="M44.95,363.9219 L47.5,363.9219 L47.5,365.8719 L44.95,365.8719" fill="#252327"/><path d="M58.6,356.7219 L60.7,356.7219 L60.7,358.6719 L58.6,358.6719" fill="#252327"/><path d="M58.6,360.3219 L60.7,360.3219 L60.7,362.2719 L58.6,362.2719" fill="#252327"/><path d="M58.6,363.9219 L60.7,363.9219 L60.7,365.8719 L58.6,365.8719" fill="#252327"/><text fill="#000000" font-family="sans-serif" font-size="12" lengthAdjust="spacing" textLength="3.8145" x="65.5" y="370.4668">&#160;</text><text fill="#000000" font-family="sans-serif" font-size="12" lengthAdjust="spacing" textLength="26.1211" x="69.3145" y="370.4668">Bulk</text><text fill="#000000" font-family="sans-serif" font-size="12" lengthAdjust="spacing" textLength="3.8145" x="95.4355" y="370.4668">&#160;</text><text fill="#000000" font-family="sans-serif" font-size="12" lengthAdjust="spacing" textLength="32.2207" x="99.25" y="370.4668">Write</text><text fill="#000000" font-family="sans-serif" font-size="12" lengthAdjust="spacing" textLength="3.8145" x="131.4707" y="370.4668">&#160;</text><text fill="#000000" font-family="sans-serif" font-size="12" lengthAdjust="spacing" textLength="47.25" x="135.2852" y="370.4668">Handler</text></g><!--entity APP_WK_78v--><g class="entity" data-entity="APP_WK_78v" data-source-line="25" data-uid="ent0018" id="entity_APP_WK_78v"><rect fill="#CCF2FF" height="44" rx="2" ry="2" style="stroke:#0078A0;stroke-width:0.5;" width="168.2422" x="253" y="339.2969"/><path d="M269,355.5969 L280.1,355.5969 L280.1,366.9969 L269,366.9969" fill="#252327"/><path d="M266.45,356.7219 L269,356.7219 L269,358.6719 L266.45,358.6719" fill="#252327"/><path d="M266.45,360.3219 L269,360.3219 L269,362.2719 L266.45,362.2719" fill="#252327"/><path d="M266.45,363.9219 L269,363.9219 L269,365.8719 L266.45,365.8719" fill="#252327"/><path d="M280.1,356.7219 L282.2,356.7219 L282.2,358.6719 L280.1,358.6719" fill="#252327"/><path d="M280.1,360.3219 L282.2,360.3219 L282.2,362.2719 L280.1,362.2719" fill="#252327"/><path d="M280.1,363.9219 L282.2,363.9219 L282.2,365.8719 L280.1,365.8719" fill="#252327"/><text fill="#000000" font-family="sans-serif" font-size="12" lengthAdjust="spacing" textLength="3.8145" x="287" y="370.4668">&#160;</text><text fill="#000000" font-family="sans-serif" font-size="12" lengthAdjust="spacing" textLength="26.1211" x="290.8145" y="370.4668">Bulk</text><text fill="#000000" font-family="sans-serif" font-size="12" lengthAdjust="spacing" textLength="3.8145" x="316.9355" y="370.4668">&#160;</text><text fill="#000000" font-family="sans-serif" font-size="12" lengthAdjust="spacing" textLength="39.4277" x="320.75" y="370.4668">Delete</text><text fill="#000000" font-family="sans-serif" font-size="12" lengthAdjust="spacing" textLength="3.8145" x="360.1777" y="370.4668">&#160;</text><text fill="#000000" font-family="sans-serif" font-size="12" lengthAdjust="spacing" textLength="47.25" x="363.9922" y="370.4668">Handler</text></g><!--entity APP_HOOYAQ--><g class="entity" data-entity="APP_HOOYAQ" data-source-line="26" data-uid="ent0019" id="entity_APP_HOOYAQ"><rect fill="#CCF2FF" height="44" rx="2" ry="2" style="stroke:#0078A0;stroke-width:0.5;" width="212.9492" x="481.5" y="339.2969"/><path d="M497.5,355.5969 L508.6,355.5969 L508.6,366.9969 L497.5,366.9969" fill="#252327"/><path d="M494.95,356.7219 L497.5,356.7219 L497.5,358.6719 L494.95,358.6719" fill="#252327"/><path d="M494.95,360.3219 L497.5,360.3219 L497.5,362.2719 L494.95,362.2719" fill="#252327"/><path d="M494.95,363.9219 L497.5,363.9219 L497.5,365.8719 L494.95,365.8719" fill="#252327"/><path d="M508.6,356.7219 L510.7,356.7219 L510.7,358.6719 L508.6,358.6719" fill="#252327"/><path d="M508.6,360.3219 L510.7,360.3219 L510.7,362.2719 L508.6,362.2719" fill="#252327"/><path d="M508.6,363.9219 L510.7,363.9219 L510.7,365.8719 L508.6,365.8719" fill="#252327"/><text fill="#000000" font-family="sans-serif" font-size="12" lengthAdjust="spacing" textLength="3.8145" x="515.5" y="370.4668">&#160;</text><text fill="#000000" font-family="sans-serif" font-size="12" lengthAdjust="spacing" textLength="34.4941" x="519.3145" y="370.4668">Batch</text><text fill="#000000" font-family="sans-serif" font-size="12" lengthAdjust="spacing" textLength="3.8145" x="553.8086" y="370.4668">&#160;</text><text fill="#000000" font-family="sans-serif" font-size="12" lengthAdjust="spacing" textLength="70.4121" x="557.623" y="370.4668">Transaction</text><text fill="#000000" font-family="sans-serif" font-size="12" lengthAdjust="spacing" textLength="3.8145" x="628.0352" y="370.4668">&#160;</text><text fill="#000000" font-family="sans-serif" font-size="12" lengthAdjust="spacing" textLength="52.5996" x="631.8496" y="370.4668">Manager</text></g><!--entity APP_PDJI8F--><g class="entity" data-entity="APP_PDJI8F" data-source-line="27" data-uid="ent0020" id="entity_APP_PDJI8F"><rect fill="#CCF2FF" height="44" rx="2" ry="2" style="stroke:#0078A0;stroke-width:0.5;" width="161.0117" x="754.5" y="339.2969"/><path d="M770.5,355.5969 L781.6,355.5969 L781.6,366.9969 L770.5,366.9969" fill="#252327"/><path d="M767.95,356.7219 L770.5,356.7219 L770.5,358.6719 L767.95,358.6719" fill="#252327"/><path d="M767.95,360.3219 L770.5,360.3219 L770.5,362.2719 L767.95,362.2719" fill="#252327"/><path d="M767.95,363.9219 L770.5,363.9219 L770.5,365.8719 L767.95,365.8719" fill="#252327"/><path d="M781.6,356.7219 L783.7,356.7219 L783.7,358.6719 L781.6,358.6719" fill="#252327"/><path d="M781.6,360.3219 L783.7,360.3219 L783.7,362.2719 L781.6,362.2719" fill="#252327"/><path d="M781.6,363.9219 L783.7,363.9219 L783.7,365.8719 L781.6,365.8719" fill="#252327"/><text fill="#000000" font-family="sans-serif" font-size="12" lengthAdjust="spacing" textLength="3.8145" x="788.5" y="370.4668">&#160;</text><text fill="#000000" font-family="sans-serif" font-size="12" lengthAdjust="spacing" textLength="59.7188" x="792.3145" y="370.4668">Operation</text><text fill="#000000" font-family="sans-serif" font-size="12" lengthAdjust="spacing" textLength="3.8145" x="852.0332" y="370.4668">&#160;</text><text fill="#000000" font-family="sans-serif" font-size="12" lengthAdjust="spacing" textLength="49.6641" x="855.8477" y="370.4668">Registry</text></g><!--entity APP_v9LvfK--><g class="entity" data-entity="APP_v9LvfK" data-source-line="39" data-uid="ent0030" id="entity_APP_v9LvfK"><rect fill="#CCF2FF" height="44" rx="2" ry="2" style="stroke:#0078A0;stroke-width:0.5;" width="129.2246" x="3022.5" y="140.2969"/><path d="M3038.5,156.5969 L3049.6,156.5969 L3049.6,167.9969 L3038.5,167.9969" fill="#252327"/><path d="M3035.95,157.7219 L3038.5,157.7219 L3038.5,159.6719 L3035.95,159.6719" fill="#252327"/><path d="M3035.95,161.3219 L3038.5,161.3219 L3038.5,163.2719 L3035.95,163.2719" fill="#252327"/><path d="M3035.95,164.9219 L3038.5,164.9219 L3038.5,166.8719 L3035.95,166.8719" fill="#252327"/><path d="M3049.6,157.7219 L3051.7,157.7219 L3051.7,159.6719 L3049.6,159.6719" fill="#252327"/><path d="M3049.6,161.3219 L3051.7,161.3219 L3051.7,163.2719 L3049.6,163.2719" fill="#252327"/><path d="M3049.6,164.9219 L3051.7,164.9219 L3051.7,166.8719 L3049.6,166.8719" fill="#252327"/><text fill="#000000" font-family="sans-serif" font-size="12" lengthAdjust="spacing" textLength="3.8145" x="3056.5" y="171.4668">&#160;</text><text fill="#000000" font-family="sans-serif" font-size="12" lengthAdjust="spacing" textLength="36.4688" x="3060.3145" y="171.4668">Query</text><text fill="#000000" font-family="sans-serif" font-size="12" lengthAdjust="spacing" textLength="3.8145" x="3096.7832" y="171.4668">&#160;</text><text fill="#000000" font-family="sans-serif" font-size="12" lengthAdjust="spacing" textLength="41.127" x="3100.5977" y="171.4668">Engine</text></g><!--entity APP_JOmFWy--><g class="entity" data-entity="APP_JOmFWy" data-source-line="40" data-uid="ent0031" id="entity_APP_JOmFWy"><rect fill="#CCF2FF" height="44" rx="2" ry="2" style="stroke:#0078A0;stroke-width:0.5;" width="136.3613" x="3016" y="339.2969"/><path d="M3032,355.5969 L3043.1,355.5969 L3043.1,366.9969 L3032,366.9969" fill="#252327"/><path d="M3029.45,356.7219 L3032,356.7219 L3032,358.6719 L3029.45,358.6719" fill="#252327"/><path d="M3029.45,360.3219 L3032,360.3219 L3032,362.2719 L3029.45,362.2719" fill="#252327"/><path d="M3029.45,363.9219 L3032,363.9219 L3032,365.8719 L3029.45,365.8719" fill="#252327"/><path d="M3043.1,356.7219 L3045.2,356.7219 L3045.2,358.6719 L3043.1,358.6719" fill="#252327"/><path d="M3043.1,360.3219 L3045.2,360.3219 L3045.2,362.2719 L3043.1,362.2719" fill="#252327"/><path d="M3043.1,363.9219 L3045.2,363.9219 L3045.2,365.8719 L3043.1,365.8719" fill="#252327"/><text fill="#000000" font-family="sans-serif" font-size="12" lengthAdjust="spacing" textLength="3.8145" x="3050" y="370.4668">&#160;</text><text fill="#000000" font-family="sans-serif" font-size="12" lengthAdjust="spacing" textLength="39.1699" x="3053.8145" y="370.4668">SQLite</text><text fill="#000000" font-family="sans-serif" font-size="12" lengthAdjust="spacing" textLength="3.8145" x="3092.9844" y="370.4668">&#160;</text><text fill="#000000" font-family="sans-serif" font-size="12" lengthAdjust="spacing" textLength="45.5625" x="3096.7988" y="370.4668">Indexer</text></g><!--entity APP_kjC6ex--><g class="entity" data-entity="APP_kjC6ex" data-source-line="44" data-uid="ent0034" id="entity_APP_kjC6ex"><rect fill="#CCF2FF" height="44" rx="2" ry="2" style="stroke:#0078A0;stroke-width:0.5;" width="95.5801" x="2762" y="140.2969"/><path d="M2778,156.5969 L2789.1,156.5969 L2789.1,167.9969 L2778,167.9969" fill="#252327"/><path d="M2775.45,157.7219 L2778,157.7219 L2778,159.6719 L2775.45,159.6719" fill="#252327"/><path d="M2775.45,161.3219 L2778,161.3219 L2778,163.2719 L2775.45,163.2719" fill="#252327"/><path d="M2775.45,164.9219 L2778,164.9219 L2778,166.8719 L2775.45,166.8719" fill="#252327"/><path d="M2789.1,157.7219 L2791.2,157.7219 L2791.2,159.6719 L2789.1,159.6719" fill="#252327"/><path d="M2789.1,161.3219 L2791.2,161.3219 L2791.2,163.2719 L2789.1,163.2719" fill="#252327"/><path d="M2789.1,164.9219 L2791.2,164.9219 L2791.2,166.8719 L2789.1,166.8719" fill="#252327"/><text fill="#000000" font-family="sans-serif" font-size="12" lengthAdjust="spacing" textLength="3.8145" x="2796" y="171.4668">&#160;</text><text fill="#000000" font-family="sans-serif" font-size="12" lengthAdjust="spacing" textLength="18.6035" x="2799.8145" y="171.4668">CLI</text><text fill="#000000" font-family="sans-serif" font-size="12" lengthAdjust="spacing" textLength="3.8145" x="2818.418" y="171.4668">&#160;</text><text fill="#000000" font-family="sans-serif" font-size="12" lengthAdjust="spacing" textLength="25.3477" x="2822.2324" y="171.4668">Tool</text></g><!--entity APP_SCKD2U--><g class="entity" data-entity="APP_SCKD2U" data-source-line="45" data-uid="ent0035" id="entity_APP_SCKD2U"><rect fill="#CCF2FF" height="44" rx="2" ry="2" style="stroke:#0078A0;stroke-width:0.5;" width="163.7773" x="2726" y="339.2969"/><path d="M2742,355.5969 L2753.1,355.5969 L2753.1,366.9969 L2742,366.9969" fill="#252327"/><path d="M2739.45,356.7219 L2742,356.7219 L2742,358.6719 L2739.45,358.6719" fill="#252327"/><path d="M2739.45,360.3219 L2742,360.3219 L2742,362.2719 L2739.45,362.2719" fill="#252327"/><path d="M2739.45,363.9219 L2742,363.9219 L2742,365.8719 L2739.45,365.8719" fill="#252327"/><path d="M2753.1,356.7219 L2755.2,356.7219 L2755.2,358.6719 L2753.1,358.6719" fill="#252327"/><path d="M2753.1,360.3219 L2755.2,360.3219 L2755.2,362.2719 L2753.1,362.2719" fill="#252327"/><path d="M2753.1,363.9219 L2755.2,363.9219 L2755.2,365.8719 L2753.1,365.8719" fill="#252327"/><text fill="#000000" font-family="sans-serif" font-size="12" lengthAdjust="spacing" textLength="3.8145" x="2760" y="370.4668">&#160;</text><text fill="#000000" font-family="sans-serif" font-size="12" lengthAdjust="spacing" textLength="51.5215" x="2763.8145" y="370.4668">Diagram</text><text fill="#000000" font-family="sans-serif" font-size="12" lengthAdjust="spacing" textLength="3.8145" x="2815.3359" y="370.4668">&#160;</text><text fill="#000000" font-family="sans-serif" font-size="12" lengthAdjust="spacing" textLength="60.627" x="2819.1504" y="370.4668">Scaffolder</text></g><!--entity APP_yaxrWl--><g class="entity" data-entity="APP_yaxrWl" data-source-line="46" data-uid="ent0036" id="entity_APP_yaxrWl"><rect fill="#CCF2FF" height="44" rx="2" ry="2" style="stroke:#0078A0;stroke-width:0.5;" width="163.2617" x="2726.5" y="463.2969"/><path d="M2742.5,479.5969 L2753.6,479.5969 L2753.6,490.9969 L2742.5,490.9969" fill="#252327"/><path d="M2739.95,480.7219 L2742.5,480.7219 L2742.5,482.6719 L2739.95,482.6719" fill="#252327"/><path d="M2739.95,484.3219 L2742.5,484.3219 L2742.5,486.2719 L2739.95,486.2719" fill="#252327"/><path d="M2739.95,487.9219 L2742.5,487.9219 L2742.5,489.8719 L2739.95,489.8719" fill="#252327"/><path d="M2753.6,480.7219 L2755.7,480.7219 L2755.7,482.6719 L2753.6,482.6719" fill="#252327"/><path d="M2753.6,484.3219 L2755.7,484.3219 L2755.7,486.2719 L2753.6,486.2719" fill="#252327"/><path d="M2753.6,487.9219 L2755.7,487.9219 L2755.7,489.8719 L2753.6,489.8719" fill="#252327"/><text fill="#000000" font-family="sans-serif" font-size="12" lengthAdjust="spacing" textLength="3.8145" x="2760.5" y="494.4668">&#160;</text><text fill="#000000" font-family="sans-serif" font-size="12" lengthAdjust="spacing" textLength="56.0566" x="2764.3145" y="494.4668">PlantUML</text><text fill="#000000" font-family="sans-serif" font-size="12" lengthAdjust="spacing" textLength="3.8145" x="2820.3711" y="494.4668">&#160;</text><text fill="#000000" font-family="sans-serif" font-size="12" lengthAdjust="spacing" textLength="55.5762" x="2824.1855" y="494.4668">Renderer</text></g><!--entity APP_ca3vm7--><g class="entity" data-entity="APP_ca3vm7" data-source-line="51" data-uid="ent0040" id="entity_APP_ca3vm7"><rect fill="#CCF2FF" height="44" rx="2" ry="2" style="stroke:#0078A0;stroke-width:0.5;" width="131.3926" x="2498.5" y="140.2969"/><path d="M2514.5,156.5969 L2525.6,156.5969 L2525.6,167.9969 L2514.5,167.9969" fill="#252327"/><path d="M2511.95,157.7219 L2514.5,157.7219 L2514.5,159.6719 L2511.95,159.6719" fill="#252327"/><path d="M2511.95,161.3219 L2514.5,161.3219 L2514.5,163.2719 L2511.95,163.2719" fill="#252327"/><path d="M2511.95,164.9219 L2514.5,164.9219 L2514.5,166.8719 L2511.95,166.8719" fill="#252327"/><path d="M2525.6,157.7219 L2527.7,157.7219 L2527.7,159.6719 L2525.6,159.6719" fill="#252327"/><path d="M2525.6,161.3219 L2527.7,161.3219 L2527.7,163.2719 L2525.6,163.2719" fill="#252327"/><path d="M2525.6,164.9219 L2527.7,164.9219 L2527.7,166.8719 L2525.6,166.8719" fill="#252327"/><text fill="#000000" font-family="sans-serif" font-size="12" lengthAdjust="spacing" textLength="3.8145" x="2532.5" y="171.4668">&#160;</text><text fill="#000000" font-family="sans-serif" font-size="12" lengthAdjust="spacing" textLength="36.0293" x="2536.3145" y="171.4668">Model</text><text fill="#000000" font-family="sans-serif" font-size="12" lengthAdjust="spacing" textLength="3.8145" x="2572.3438" y="171.4668">&#160;</text><text fill="#000000" font-family="sans-serif" font-size="12" lengthAdjust="spacing" textLength="43.7344" x="2576.1582" y="171.4668">Verifier</text></g><!--entity ART_YsLpM8--><g class="entity" data-entity="ART_YsLpM8" data-source-line="59" data-uid="ent0045" id="entity_ART_YsLpM8"><rect fill="#CCFFCC" height="44" rx="2" ry="2" style="stroke:#2E7D32;stroke-width:0.5;" width="133.3145" x="3332.5" y="339.2969"/><path d="M3348.5,354.5469 L3357.2,354.5469 L3360.5,357.8469 L3360.5,368.0469 L3348.5,368.0469" fill="#252327"/><path d="M3356.225,354.5469 L3356.225,357.8469 L3358.175,357.8469 L3358.175,354.5469" fill="#252327"/><path d="M3357.2,356.8719 L3360.5,356.8719 L3360.5,358.8219 L3357.2,358.8219" fill="#252327"/><text fill="#000000" font-family="sans-serif" font-size="12" lengthAdjust="spacing" textLength="3.8145" x="3366.5" y="370.4668">&#160;</text><text fill="#000000" font-family="sans-serif" font-size="12" lengthAdjust="spacing" textLength="17.3379" x="3370.3145" y="370.4668">Git</text><text fill="#000000" font-family="sans-serif" font-size="12" lengthAdjust="spacing" textLength="3.8145" x="3387.6523" y="370.4668">&#160;</text><text fill="#000000" font-family="sans-serif" font-size="12" lengthAdjust="spacing" textLength="64.3477" x="3391.4668" y="370.4668">Repository</text></g><!--entity SSW_TzzVd--><g class="entity" data-entity="SSW_TzzVd" data-source-line="60" data-uid="ent0046" id="entity_SSW_TzzVd"><rect fill="#CCFFCC" height="44" rx="2" ry="2" style="stroke:#2E7D32;stroke-width:0.5;" width="93.1719" x="3525.5" y="339.2969"/><ellipse cx="3546.3" cy="361.2969" fill="none" rx="4.95" ry="4.95" style="stroke:#252327;stroke-width:1.95;"/><ellipse cx="3550.2" cy="362.4969" fill="none" rx="4.95" ry="4.95" style="stroke:#252327;stroke-width:1.95;"/><text fill="#000000" font-family="sans-serif" font-size="12" lengthAdjust="spacing" textLength="3.8145" x="3559.5" y="370.4668">&#160;</text><text fill="#000000" font-family="sans-serif" font-size="12" lengthAdjust="spacing" textLength="17.3379" x="3563.3145" y="370.4668">Git</text><text fill="#000000" font-family="sans-serif" font-size="12" lengthAdjust="spacing" textLength="3.8145" x="3580.6523" y="370.4668">&#160;</text><text fill="#000000" font-family="sans-serif" font-size="12" lengthAdjust="spacing" textLength="24.2051" x="3584.4668" y="370.4668">VCS</text></g><!--link APP_lmO0mp to APP_N96vdO--><!--link APP_N96vdO to APP_AUw6Qr--><!--link APP_AUw6Qr to APP_PaedDQ--><!--link APP_PaedDQ to APP_27nbQ9--><!--link APP_kRZYOA to APP_a9k_mJ--><!--link APP_a9k_mJ to APP_tIMxjr--><!--link APP_tIMxjr to APP_tY3JIK--><!--link APP_5n_KQJ to APP_WK_78v--><!--link APP_WK_78v to APP_HOOYAQ--><!--link APP_HOOYAQ to APP_PDJI8F--><!--link APP_kRZYOA to APP_5n_KQJ--><!--link APP_v9LvfK to APP_JOmFWy--><!--link APP_kjC6ex to APP_SCKD2U--><!--link APP_SCKD2U to APP_yaxrWl--><!--link GRP_SUP_A to GRP_SUP_B--><!--link GRP_SUP_B to GRP_SUP_C--><!--link ART_YsLpM8 to SSW_TzzVd--><!--link GRP_CONS to APP_OYEmP1--><!--link APP_OYEmP1 to GRP_SUP--><!--link GRP_SUP to GRP_TECH--><!--link APP_OYEmP1 to APP_lmO0mp--><g class="link" data-entity-1="APP_OYEmP1" data-entity-2="APP_lmO0mp" data-source-line="71" data-uid="lnk51" id="link_APP_OYEmP1_APP_lmO0mp"><path d="M948.1596,350.2969 C948.9021,350.2969 949.6902,350.2969 950.5219,350.2969 C957.175,350.2969 966.6125,350.2969 977.75,350.2969 C1000.025,350.2969 1023.1,350.2969 1050.3,350.2969" fill="none" id="APP_OYEmP1-to-APP_lmO0mp" style="stroke:#000000;stroke-width:1;"/><polygon fill="#000000" points="1056.3,350.2969,1047.3,346.2969,1051.3,350.2969,1047.3,354.2969,1056.3,350.2969" style="stroke:#000000;stroke-width:1;"/><text fill="#000000" font-family="sans-serif" font-size="12" lengthAdjust="spacing" textLength="3.8145" x="936" y="311.8555">&#160;</text></g><!--link APP_v9LvfK to APP_lmO0mp--><g class="link" data-entity-1="APP_v9LvfK" data-entity-2="APP_lmO0mp" data-source-line="74" data-uid="lnk52" id="link_APP_v9LvfK_APP_lmO0mp"><path d="M3065.5,184.5369 C3065.5,220.7069 3065.5,288.2969 3065.5,288.2969 C3065.5,288.2969 1163.83,288.2969 1163.83,288.2969 C1163.83,288.2969 1163.83,311.5269 1163.83,332.9969" fill="none" id="APP_v9LvfK-to-APP_lmO0mp" style="stroke:#000000;stroke-width:1;"/><polygon fill="#000000" points="1163.83,338.9969,1167.83,329.9969,1163.83,333.9969,1159.83,329.9969,1163.83,338.9969" style="stroke:#000000;stroke-width:1;"/><text fill="#000000" font-family="sans-serif" font-size="12" lengthAdjust="spacing" textLength="3.8145" x="2137.2" y="285.4355">&#160;</text></g><!--link APP_ca3vm7 to APP_lmO0mp--><g class="link" data-entity-1="APP_ca3vm7" data-entity-2="APP_lmO0mp" data-source-line="75" data-uid="lnk53" id="link_APP_ca3vm7_APP_lmO0mp"><path d="M2498.23,174.2969 C2214.58,174.2969 1110.17,174.2969 1110.17,174.2969 C1110.17,174.2969 1110.17,283.5769 1110.17,333.1069" fill="none" id="APP_ca3vm7-to-APP_lmO0mp" style="stroke:#000000;stroke-width:1;"/><polygon fill="#000000" points="1110.17,339.1069,1114.17,330.1069,1110.17,334.1069,1106.17,330.1069,1110.17,339.1069" style="stroke:#000000;stroke-width:1;"/><text fill="#000000" font-family="sans-serif" font-size="12" lengthAdjust="spacing" textLength="3.8145" x="1717.79" y="171.4355">&#160;</text></g><!--SRC=[hLTjRzis4FwkNy46GzS1TRQsQrw0B80ZEudV8jcoutd3830IBQkcI8sad2X5_lieIn5bMusLATzyyiDxZiyTZyTtFd5mv29mUFYh3Pcpy0CeK8CBn10LSOZuOHW5M7jNZlDm72uoYA0X41JSKI5e05oV8KVub6YQy0L6e1c6s7TWyWdeD0WfGKHmy1wCaRCW55ClrhHa3IIUX1_ebF0eG8mVWBEpmk8hHgFG9zxvEO0SN8rCMpTkBF1T0w2m-kodF4Yxi3Wd_iuTYD4Vdmw_Ffs3gqa7D2Ene4pw1MDAyHPdlYmbRPgcZGFZjo2iGThqv1VV0Vt-0EZzJb6V_UmtfqShrtWZzXRYooHvhugWERa_6h8tYg3JQWCJHvvVWTY4o6qDtuXuYkvUj-tFn-HkU2hPLGs0njyBttKH-OVvta8qDXEaZ59SBgCoId7vhfLHYilYUzeuIg-J9u4AkJXY25n0Puc8kryNOzOEp4-rJk50Dy60kWW32x4LOlj9bwE_PaQp1kMKoPs24VetGbo0OOGYj9yLdYxje5k3rMGqeEi-s2Qov2jGYixWuLkTmtRb2s35n5bBwpjLA6TVkfrU3SgB22ypWQyXSN6LX7ubTc_OhKlQGXYzXdNQiuzFLdLOeN0MOCmWuN1zvu419D2hmdrj6BDcdMvcX8Ybb-e8UJuNBAxGGblTpibbrapIGrJQJF9ALqOfBYzFPPJZdcjAvReKboT46QMuN3nbb3VFb_RhqdlIA5RVPk-qeZ2aJ2I3WPfQzeuariJSxeMokx1OZZiTugA7n85q5_nWhTrSh_x_LP6ILMqlgzF-QjwhHMWD-yb9Ns-kIjrtZU1o6gyfLGHbISc1JvjogddjlQnyIPlytYVhHKrPapcjsdYu_AOVeOTQP2qVUWm6m7BWV4wnMqLMI- -rFazgqPeO4Z4Pz3DLgx36y85DSPxCTEzboIo4fymoOEvnA-ktCitpmh3sKhBrcibEPv6KiOeA3loo2ewpcDL1tcv8UIqMK1S_HEbRxKWzbfA0bBKhmRYjNxyqZzt8xMtM6reXJELr0gQKBRd8HKwGgTyResN_thxyy_XnZxQoOSxbLRWpWunGIBalQ7PBPR1Cmz7Odl5-E3XvoRKLoxTfOD6vk8SCxH3SwbRYUHEL-hUigJr-VBnrq_hBsNQqBmAV4lr_bdrDFeWR6CPI7KWSsNcubZyzI-et7OUrmcIy1ShogprV5YL_9mbCkBCP7F1aAkR0UNuNQoE4xVKyHxmFYkbZuMdo4HmS_9BuADnYZdfxhpsMl7vtFAVjUTVpDYuz0hku_m00]--></g></svg>