<svg xmlns="http://www.w3.org/2000/svg" xmlns:xlink="http://www.w3.org/1999/xlink" contentStyleType="text/css" data-diagram-type="DESCRIPTION" height="774px" preserveAspectRatio="none" style="width:2543px;height:774px;background:#FAFAFA;" version="1.1" viewBox="0 0 2543 774" width="2543px" zoomAndPan="magnify"><title>Service Landscape</title><defs/><g><rect fill="#FAFAFA" height="774" style="stroke:none;stroke-width:1;" width="2543" x="0" y="0"/><text fill="#000000" font-family="sans-serif" font-size="14" font-weight="bold" lengthAdjust="spacing" textLength="147.0273" x="1190.9863" y="22.9951">Service Landscape</text><!--cluster GRP_ROLES--><g class="cluster" data-entity="GRP_ROLES" data-source-line="7" data-uid="ent0002" id="cluster_GRP_ROLES"><rect fill="#EDE8E1" height="108" rx="2" ry="2" style="stroke:#8C7E6A;stroke-width:1;" width="510" x="360" y="372.2969"/><text fill="#000000" font-family="sans-serif" font-size="12" font-weight="bold" lengthAdjust="spacing" textLength="116.0859" x="556.957" y="385.4355">Consuming Roles</text></g><!--cluster GRP_AUTH--><g class="cluster" data-entity="GRP_AUTH" data-source-line="15" data-uid="ent0008" id="cluster_GRP_AUTH"><rect fill="#EDE8E1" height="436" rx="2" ry="2" style="stroke:#8C7E6A;stroke-width:1;" width="313" x="7" y="44.2969"/><text fill="#000000" font-family="sans-serif" font-size="12" font-weight="bold" lengthAdjust="spacing" textLength="128.7246" x="99.1377" y="57.4355">Authoring Services</text></g><!--cluster GRP_VER--><g class="cluster" data-entity="GRP_VER" data-source-line="23" data-uid="ent0014" id="cluster_GRP_VER"><rect fill="#EDE8E1" height="436" rx="2" ry="2" style="stroke:#8C7E6A;stroke-width:1;" width="322" x="1563" y="44.2969"/><text fill="#000000" font-family="sans-serif" font-size="12" font-weight="bold" lengthAdjust="spacing" textLength="139.8457" x="1654.0771" y="57.4355">Verification Services</text></g><!--cluster GRP_PLAT--><g class="cluster" data-entity="GRP_PLAT" data-source-line="31" data-uid="ent0020" id="cluster_GRP_PLAT"><rect fill="#EDE8E1" height="436" rx="2" ry="2" style="stroke:#8C7E6A;stroke-width:1;" width="358" x="2179" y="44.2969"/><text fill="#000000" font-family="sans-serif" font-size="12" font-weight="bold" lengthAdjust="spacing" textLength="119.8359" x="2298.082" y="57.4355">Platform Services</text></g><!--cluster GRP_PRC--><g class="cluster" data-entity="GRP_PRC" data-source-line="42" data-uid="ent0028" id="cluster_GRP_PRC"><rect fill="#EDE8E1" height="108" rx="2" ry="2" style="stroke:#8C7E6A;stroke-width:1;" width="839" x="634" y="168.2969"/><text fill="#000000" font-family="sans-serif" font-size="12" font-weight="bold" lengthAdjust="spacing" textLength="133.8867" x="986.5566" y="181.4355">Realizing Processes</text></g><!--cluster GRP_CMP--><g class="cluster" data-entity="GRP_CMP" data-source-line="50" data-uid="ent0034" id="cluster_GRP_CMP"><rect fill="#EDE8E1" height="452" rx="2" ry="2" style="stroke:#8C7E6A;stroke-width:1;" width="613" x="910" y="316.2969"/><text fill="#000000" font-family="sans-serif" font-size="12" font-weight="bold" lengthAdjust="spacing" textLength="150.6035" x="1141.1982" y="329.4355">Realizing Components</text></g><!--cluster GRP_CMP_A--><g class="cluster" data-entity="GRP_CMP_A" data-source-line="51" data-uid="ent0035" id="cluster_GRP_CMP_A"><rect fill="#EDE8E1" height="356" rx="2" ry="2" style="stroke:#8C7E6A;stroke-width:1;" width="250" x="971" y="372.2969"/><text fill="#000000" font-family="sans-serif" font-size="12" font-weight="bold" lengthAdjust="spacing" textLength="164.9766" x="1013.5117" y="385.4355">Authoring &amp; Verification</text></g><!--cluster GRP_CMP_B--><g class="cluster" data-entity="GRP_CMP_B" data-source-line="58" data-uid="ent0041" id="cluster_GRP_CMP_B"><rect fill="#EDE8E1" height="356" rx="2" ry="2" style="stroke:#8C7E6A;stroke-width:1;" width="222" x="1261" y="372.2969"/><text fill="#000000" font-family="sans-serif" font-size="12" font-weight="bold" lengthAdjust="spacing" textLength="129.7852" x="1307.1074" y="385.4355">Query &amp; Promotion</text></g><!--entity ROL_deMuTj--><g class="entity" data-entity="ROL_deMuTj" data-source-line="8" data-uid="ent0003" id="entity_ROL_deMuTj"><rect fill="#E0D8CC" height="44" rx="2" ry="2" style="stroke:#8C7E6A;stroke-width:0.5;" width="88.2148" x="428" y="412.2969"/><path d="M442.5,427.5469 L454.2,427.5469 A3,3 0 0 1 457.2,430.5469 L457.2,438.0469 A3,3 0 0 1 454.2,441.0469 L442.5,441.0469" fill="#252327"/><text fill="#000000" font-family="sans-serif" font-size="12" lengthAdjust="spacing" textLength="3.8145" x="462" y="443.4668">&#160;</text><text fill="#000000" font-family="sans-serif" font-size="12" lengthAdjust="spacing" textLength="40.4004" x="465.8145" y="443.4668">Author</text></g><!--entity ROL_udXPfB--><g class="entity" data-entity="ROL_udXPfB" data-source-line="9" data-uid="ent0004" id="entity_ROL_udXPfB"><rect fill="#E0D8CC" height="44" rx="2" ry="2" style="stroke:#8C7E6A;stroke-width:0.5;" width="98.8965" x="576.5" y="412.2969"/><path d="M591,427.5469 L602.7,427.5469 A3,3 0 0 1 605.7,430.5469 L605.7,438.0469 A3,3 0 0 1 602.7,441.0469 L591,441.0469" fill="#252327"/><text fill="#000000" font-family="sans-serif" font-size="12" lengthAdjust="spacing" textLength="3.8145" x="610.5" y="443.4668">&#160;</text><text fill="#000000" font-family="sans-serif" font-size="12" lengthAdjust="spacing" textLength="11.748" x="614.3145" y="443.4668">AI</text><text fill="#000000" font-family="sans-serif" font-size="12" lengthAdjust="spacing" textLength="3.8145" x="626.0625" y="443.4668">&#160;</text><text fill="#000000" font-family="sans-serif" font-size="12" lengthAdjust="spacing" textLength="35.5195" x="629.877" y="443.4668">Agent</text></g><!--entity ROL_lM1u7O--><g class="entity" data-entity="ROL_lM1u7O" data-source-line="10" data-uid="ent0005" id="entity_ROL_lM1u7O"><rect fill="#E0D8CC" height="44" rx="2" ry="2" style="stroke:#8C7E6A;stroke-width:0.5;" width="109.5313" x="736" y="412.2969"/><path d="M750.5,427.5469 L762.2,427.5469 A3,3 0 0 1 765.2,430.5469 L765.2,438.0469 A3,3 0 0 1 762.2,441.0469 L750.5,441.0469" fill="#252327"/><text fill="#000000" font-family="sans-serif" font-size="12" lengthAdjust="spacing" textLength="3.8145" x="770" y="443.4668">&#160;</text><text fill="#000000" font-family="sans-serif" font-size="12" lengthAdjust="spacing" textLength="61.7168" x="773.8145" y="443.4668">Developer</text></g><!--entity SRV_Au1Th1--><g class="entity" data-entity="SRV_Au1Th1" data-source-line="16" data-uid="ent0009" id="entity_SRV_Au1Th1"><rect fill="#E0D8CC" height="44" rx="2" ry="2" style="stroke:#8C7E6A;stroke-width:0.5;" width="154.9355" x="73.5" y="84.2969"/><path d="M88.3,100.4469 L99.1,100.4469 A4.2,4.2 0 0 1 99.1,112.1469 L88.3,112.1469 A4.2,4.2 0 0 1 88.3,100.4469" fill="#252327"/><text fill="#000000" font-family="sans-serif" font-size="12" lengthAdjust="spacing" textLength="3.8145" x="107.5" y="115.4668">&#160;</text><text fill="#000000" font-family="sans-serif" font-size="12" lengthAdjust="spacing" textLength="58.957" x="111.3145" y="115.4668">Authoring</text><text fill="#000000" font-family="sans-serif" font-size="12" lengthAdjust="spacing" textLength="3.8145" x="170.2715" y="115.4668">&#160;</text><text fill="#000000" font-family="sans-serif" font-size="12" lengthAdjust="spacing" textLength="44.3496" x="174.0859" y="115.4668">Service</text></g><!--entity SRV_GsUtNL--><g class="entity" data-entity="SRV_GsUtNL" data-source-line="17" data-uid="ent0010" id="entity_SRV_GsUtNL"><rect fill="#E0D8CC" height="44" rx="2" ry="2" style="stroke:#8C7E6A;stroke-width:0.5;" width="194.7793" x="30.5" y="208.2969"/><path d="M45.3,224.4469 L56.1,224.4469 A4.2,4.2 0 0 1 56.1,236.1469 L45.3,236.1469 A4.2,4.2 0 0 1 45.3,224.4469" fill="#252327"/><text fill="#000000" font-family="sans-serif" font-size="12" lengthAdjust="spacing" textLength="3.8145" x="64.5" y="239.4668">&#160;</text><text fill="#000000" font-family="sans-serif" font-size="12" lengthAdjust="spacing" textLength="36.0293" x="68.3145" y="239.4668">Model</text><text fill="#000000" font-family="sans-serif" font-size="12" lengthAdjust="spacing" textLength="3.8145" x="104.3438" y="239.4668">&#160;</text><text fill="#000000" font-family="sans-serif" font-size="12" lengthAdjust="spacing" textLength="58.957" x="108.1582" y="239.4668">Authoring</text><text fill="#000000" font-family="sans-serif" font-size="12" lengthAdjust="spacing" textLength="3.8145" x="167.1152" y="239.4668">&#160;</text><text fill="#000000" font-family="sans-serif" font-size="12" lengthAdjust="spacing" textLength="44.3496" x="170.9297" y="239.4668">Service</text></g><!--entity SRV_AIGnSY--><g class="entity" data-entity="SRV_AIGnSY" data-source-line="18" data-uid="ent0011" id="entity_SRV_AIGnSY"><rect fill="#E0D8CC" height="44" rx="2" ry="2" style="stroke:#8C7E6A;stroke-width:0.5;" width="210.2715" x="78" y="412.2969"/><path d="M92.8,428.4469 L103.6,428.4469 A4.2,4.2 0 0 1 103.6,440.1469 L92.8,440.1469 A4.2,4.2 0 0 1 92.8,428.4469" fill="#252327"/><text fill="#000000" font-family="sans-serif" font-size="12" lengthAdjust="spacing" textLength="3.8145" x="112" y="443.4668">&#160;</text><text fill="#000000" font-family="sans-serif" font-size="12" lengthAdjust="spacing" textLength="51.5215" x="115.8145" y="443.4668">Diagram</text><text fill="#000000" font-family="sans-serif" font-size="12" lengthAdjust="spacing" textLength="3.8145" x="167.3359" y="443.4668">&#160;</text><text fill="#000000" font-family="sans-serif" font-size="12" lengthAdjust="spacing" textLength="58.957" x="171.1504" y="443.4668">Authoring</text><text fill="#000000" font-family="sans-serif" font-size="12" lengthAdjust="spacing" textLength="3.8145" x="230.1074" y="443.4668">&#160;</text><text fill="#000000" font-family="sans-serif" font-size="12" lengthAdjust="spacing" textLength="44.3496" x="233.9219" y="443.4668">Service</text></g><!--entity SRV_Ij6Kl6--><g class="entity" data-entity="SRV_Ij6Kl6" data-source-line="24" data-uid="ent0015" id="entity_SRV_Ij6Kl6"><rect fill="#E0D8CC" height="44" rx="2" ry="2" style="stroke:#8C7E6A;stroke-width:0.5;" width="164.334" x="1631" y="84.2969"/><path d="M1645.8,100.4469 L1656.6,100.4469 A4.2,4.2 0 0 1 1656.6,112.1469 L1645.8,112.1469 A4.2,4.2 0 0 1 1645.8,100.4469" fill="#252327"/><text fill="#000000" font-family="sans-serif" font-size="12" lengthAdjust="spacing" textLength="3.8145" x="1665" y="115.4668">&#160;</text><text fill="#000000" font-family="sans-serif" font-size="12" lengthAdjust="spacing" textLength="68.3555" x="1668.8145" y="115.4668">Verification</text><text fill="#000000" font-family="sans-serif" font-size="12" lengthAdjust="spacing" textLength="3.8145" x="1737.1699" y="115.4668">&#160;</text><text fill="#000000" font-family="sans-serif" font-size="12" lengthAdjust="spacing" textLength="44.3496" x="1740.9844" y="115.4668">Service</text></g><!--entity SRV_J8ekRD--><g class="entity" data-entity="SRV_J8ekRD" data-source-line="25" data-uid="ent0016" id="entity_SRV_J8ekRD"><rect fill="#E0D8CC" height="44" rx="2" ry="2" style="stroke:#8C7E6A;stroke-width:0.5;" width="204.1777" x="1595" y="208.2969"/><path d="M1609.8,224.4469 L1620.6,224.4469 A4.2,4.2 0 0 1 1620.6,236.1469 L1609.8,236.1469 A4.2,4.2 0 0 1 1609.8,224.4469" fill="#252327"/><text fill="#000000" font-family="sans-serif" font-size="12" lengthAdjust="spacing" textLength="3.8145" x="1629" y="239.4668">&#160;</text><text fill="#000000" font-family="sans-serif" font-size="12" lengthAdjust="spacing" textLength="36.0293" x="1632.8145" y="239.4668">Model</text><text fill="#000000" font-family="sans-serif" font-size="12" lengthAdjust="spacing" textLength="3.8145" x="1668.8438" y="239.4668">&#160;</text><text fill="#000000" font-family="sans-serif" font-size="12" lengthAdjust="spacing" textLength="68.3555" x="1672.6582" y="239.4668">Verification</text><text fill="#000000" font-family="sans-serif" font-size="12" lengthAdjust="spacing" textLength="3.8145" x="1741.0137" y="239.4668">&#160;</text><text fill="#000000" font-family="sans-serif" font-size="12" lengthAdjust="spacing" textLength="44.3496" x="1744.8281" y="239.4668">Service</text></g><!--entity SRV_vQKsM9--><g class="entity" data-entity="SRV_vQKsM9" data-source-line="26" data-uid="ent0017" id="entity_SRV_vQKsM9"><rect fill="#E0D8CC" height="44" rx="2" ry="2" style="stroke:#8C7E6A;stroke-width:0.5;" width="219.6699" x="1618" y="412.2969"/><path d="M1632.8,428.4469 L1643.6,428.4469 A4.2,4.2 0 0 1 1643.6,440.1469 L1632.8,440.1469 A4.2,4.2 0 0 1 1632.8,428.4469" fill="#252327"/><text fill="#000000" font-family="sans-serif" font-size="12" lengthAdjust="spacing" textLength="3.8145" x="1652" y="443.4668">&#160;</text><text fill="#000000" font-family="sans-serif" font-size="12" lengthAdjust="spacing" textLength="51.5215" x="1655.8145" y="443.4668">Diagram</text><text fill="#000000" font-family="sans-serif" font-size="12" lengthAdjust="spacing" textLength="3.8145" x="1707.3359" y="443.4668">&#160;</text><text fill="#000000" font-family="sans-serif" font-size="12" lengthAdjust="spacing" textLength="68.3555" x="1711.1504" y="443.4668">Verification</text><text fill="#000000" font-family="sans-serif" font-size="12" lengthAdjust="spacing" textLength="3.8145" x="1779.5059" y="443.4668">&#160;</text><text fill="#000000" font-family="sans-serif" font-size="12" lengthAdjust="spacing" textLength="44.3496" x="1783.3203" y="443.4668">Service</text></g><!--entity SRV_Qr8St8--><g class="entity" data-entity="SRV_Qr8St8" data-source-line="32" data-uid="ent0021" id="entity_SRV_Qr8St8"><rect fill="#E0D8CC" height="44" rx="2" ry="2" style="stroke:#8C7E6A;stroke-width:0.5;" width="265.5371" x="2247" y="84.2969"/><path d="M2261.8,100.4469 L2272.6,100.4469 A4.2,4.2 0 0 1 2272.6,112.1469 L2261.8,112.1469 A4.2,4.2 0 0 1 2261.8,100.4469" fill="#252327"/><text fill="#000000" font-family="sans-serif" font-size="12" lengthAdjust="spacing" textLength="3.8145" x="2281" y="115.4668">&#160;</text><text fill="#000000" font-family="sans-serif" font-size="12" lengthAdjust="spacing" textLength="63.0996" x="2284.8145" y="115.4668">Discovery,</text><text fill="#000000" font-family="sans-serif" font-size="12" lengthAdjust="spacing" textLength="3.8145" x="2347.9141" y="115.4668">&#160;</text><text fill="#000000" font-family="sans-serif" font-size="12" lengthAdjust="spacing" textLength="55.0254" x="2351.7285" y="115.4668">Querying</text><text fill="#000000" font-family="sans-serif" font-size="12" lengthAdjust="spacing" textLength="3.8145" x="2406.7539" y="115.4668">&#160;</text><text fill="#000000" font-family="sans-serif" font-size="12" lengthAdjust="spacing" textLength="9.3574" x="2410.5684" y="115.4668">&amp;</text><text fill="#000000" font-family="sans-serif" font-size="12" lengthAdjust="spacing" textLength="3.8145" x="2419.9258" y="115.4668">&#160;</text><text fill="#000000" font-family="sans-serif" font-size="12" lengthAdjust="spacing" textLength="30.6328" x="2423.7402" y="115.4668">Stats</text><text fill="#000000" font-family="sans-serif" font-size="12" lengthAdjust="spacing" textLength="3.8145" x="2454.373" y="115.4668">&#160;</text><text fill="#000000" font-family="sans-serif" font-size="12" lengthAdjust="spacing" textLength="44.3496" x="2458.1875" y="115.4668">Service</text></g><!--entity SRV_Uv9Wx9--><g class="entity" data-entity="SRV_Uv9Wx9" data-source-line="33" data-uid="ent0022" id="entity_SRV_Uv9Wx9"><rect fill="#E0D8CC" height="44" rx="2" ry="2" style="stroke:#8C7E6A;stroke-width:0.5;" width="225.6699" x="2287" y="208.2969"/><path d="M2301.8,224.4469 L2312.6,224.4469 A4.2,4.2 0 0 1 2312.6,236.1469 L2301.8,236.1469 A4.2,4.2 0 0 1 2301.8,224.4469" fill="#252327"/><text fill="#000000" font-family="sans-serif" font-size="12" lengthAdjust="spacing" textLength="3.8145" x="2321" y="239.4668">&#160;</text><text fill="#000000" font-family="sans-serif" font-size="12" lengthAdjust="spacing" textLength="64.3477" x="2324.8145" y="239.4668">Repository</text><text fill="#000000" font-family="sans-serif" font-size="12" lengthAdjust="spacing" textLength="3.8145" x="2389.1621" y="239.4668">&#160;</text><text fill="#000000" font-family="sans-serif" font-size="12" lengthAdjust="spacing" textLength="61.5293" x="2392.9766" y="239.4668">Promotion</text><text fill="#000000" font-family="sans-serif" font-size="12" lengthAdjust="spacing" textLength="3.8145" x="2454.5059" y="239.4668">&#160;</text><text fill="#000000" font-family="sans-serif" font-size="12" lengthAdjust="spacing" textLength="44.3496" x="2458.3203" y="239.4668">Service</text></g><!--entity SRV_e5MCiF--><g class="entity" data-entity="SRV_e5MCiF" data-source-line="34" data-uid="ent0023" id="entity_SRV_e5MCiF"><rect fill="#E0D8CC" height="44" rx="2" ry="2" style="stroke:#8C7E6A;stroke-width:0.5;" width="177.3594" x="2287.5" y="412.2969"/><path d="M2302.3,428.4469 L2313.1,428.4469 A4.2,4.2 0 0 1 2313.1,440.1469 L2302.3,440.1469 A4.2,4.2 0 0 1 2302.3,428.4469" fill="#252327"/><text fill="#000000" font-family="sans-serif" font-size="12" lengthAdjust="spacing" textLength="3.8145" x="2321.5" y="443.4668">&#160;</text><text fill="#000000" font-family="sans-serif" font-size="12" lengthAdjust="spacing" textLength="81.3809" x="2325.3145" y="443.4668">Configuration</text><text fill="#000000" font-family="sans-serif" font-size="12" lengthAdjust="spacing" textLength="3.8145" x="2406.6953" y="443.4668">&#160;</text><text fill="#000000" font-family="sans-serif" font-size="12" lengthAdjust="spacing" textLength="44.3496" x="2410.5098" y="443.4668">Service</text></g><!--entity PRC_U4aAdh--><g class="entity" data-entity="PRC_U4aAdh" data-source-line="43" data-uid="ent0029" id="entity_PRC_U4aAdh"><rect fill="#E0D8CC" height="44" rx="2" ry="2" style="stroke:#8C7E6A;stroke-width:0.5;" width="252.2188" x="702" y="208.2969"/><path d="M715.9,224.4469 L725.35,224.4469 L725.35,222.4969 L732.1,230.2969 L725.35,238.0969 L725.35,236.1469 L715.9,236.1469" fill="#252327"/><text fill="#000000" font-family="sans-serif" font-size="12" lengthAdjust="spacing" textLength="3.8145" x="736" y="239.4668">&#160;</text><text fill="#000000" font-family="sans-serif" font-size="12" lengthAdjust="spacing" textLength="73.9922" x="739.8145" y="239.4668">Architecture</text><text fill="#000000" font-family="sans-serif" font-size="12" lengthAdjust="spacing" textLength="3.8145" x="813.8066" y="239.4668">&#160;</text><text fill="#000000" font-family="sans-serif" font-size="12" lengthAdjust="spacing" textLength="57.9199" x="817.6211" y="239.4668">Modelling</text><text fill="#000000" font-family="sans-serif" font-size="12" lengthAdjust="spacing" textLength="3.8145" x="875.541" y="239.4668">&#160;</text><text fill="#000000" font-family="sans-serif" font-size="12" lengthAdjust="spacing" textLength="9.3574" x="879.3555" y="239.4668">&amp;</text><text fill="#000000" font-family="sans-serif" font-size="12" lengthAdjust="spacing" textLength="3.8145" x="888.7129" y="239.4668">&#160;</text><text fill="#000000" font-family="sans-serif" font-size="12" lengthAdjust="spacing" textLength="51.6914" x="892.5273" y="239.4668">Planning</text></g><!--entity PRC_GHVpDA--><g class="entity" data-entity="PRC_GHVpDA" data-source-line="44" data-uid="ent0030" id="entity_PRC_GHVpDA"><rect fill="#E0D8CC" height="44" rx="2" ry="2" style="stroke:#8C7E6A;stroke-width:0.5;" width="220.9063" x="1014.5" y="208.2969"/><path d="M1028.4,224.4469 L1037.85,224.4469 L1037.85,222.4969 L1044.6,230.2969 L1037.85,238.0969 L1037.85,236.1469 L1028.4,236.1469" fill="#252327"/><text fill="#000000" font-family="sans-serif" font-size="12" lengthAdjust="spacing" textLength="3.8145" x="1048.5" y="239.4668">&#160;</text><text fill="#000000" font-family="sans-serif" font-size="12" lengthAdjust="spacing" textLength="73.9922" x="1052.3145" y="239.4668">Architecture</text><text fill="#000000" font-family="sans-serif" font-size="12" lengthAdjust="spacing" textLength="3.8145" x="1126.3066" y="239.4668">&#160;</text><text fill="#000000" font-family="sans-serif" font-size="12" lengthAdjust="spacing" textLength="95.2852" x="1130.1211" y="239.4668">Implementation</text></g><!--entity PRC_0Rz5Ex--><g class="entity" data-entity="PRC_0Rz5Ex" data-source-line="45" data-uid="ent0031" id="entity_PRC_0Rz5Ex"><rect fill="#E0D8CC" height="44" rx="2" ry="2" style="stroke:#8C7E6A;stroke-width:0.5;" width="152.5742" x="1295.5" y="208.2969"/><path d="M1309.4,224.4469 L1318.85,224.4469 L1318.85,222.4969 L1325.6,230.2969 L1318.85,238.0969 L1318.85,236.1469 L1309.4,236.1469" fill="#252327"/><text fill="#000000" font-family="sans-serif" font-size="12" lengthAdjust="spacing" textLength="3.8145" x="1329.5" y="239.4668">&#160;</text><text fill="#000000" font-family="sans-serif" font-size="12" lengthAdjust="spacing" textLength="50.6309" x="1333.3145" y="239.4668">Promote</text><text fill="#000000" font-family="sans-serif" font-size="12" lengthAdjust="spacing" textLength="3.8145" x="1383.9453" y="239.4668">&#160;</text><text fill="#000000" font-family="sans-serif" font-size="12" lengthAdjust="spacing" textLength="50.3145" x="1387.7598" y="239.4668">Artifacts</text></g><!--entity APP_kRZYOA--><g class="entity" data-entity="APP_kRZYOA" data-source-line="52" data-uid="ent0036" id="entity_APP_kRZYOA"><rect fill="#CCF2FF" height="44" rx="2" ry="2" style="stroke:#0078A0;stroke-width:0.5;" width="156.793" x="1039.5" y="412.2969"/><path d="M1055.5,428.5969 L1066.6,428.5969 L1066.6,439.9969 L1055.5,439.9969" fill="#252327"/><path d="M1052.95,429.7219 L1055.5,429.7219 L1055.5,431.6719 L1052.95,431.6719" fill="#252327"/><path d="M1052.95,433.3219 L1055.5,433.3219 L1055.5,435.2719 L1052.95,435.2719" fill="#252327"/><path d="M1052.95,436.9219 L1055.5,436.9219 L1055.5,438.8719 L1052.95,438.8719" fill="#252327"/><path d="M1066.6,429.7219 L1068.7,429.7219 L1068.7,431.6719 L1066.6,431.6719" fill="#252327"/><path d="M1066.6,433.3219 L1068.7,433.3219 L1068.7,435.2719 L1066.6,435.2719" fill="#252327"/><path d="M1066.6,436.9219 L1068.7,436.9219 L1068.7,438.8719 L1066.6,438.8719" fill="#252327"/><text fill="#000000" font-family="sans-serif" font-size="12" lengthAdjust="spacing" textLength="3.8145" x="1073.5" y="443.4668">&#160;</text><text fill="#000000" font-family="sans-serif" font-size="12" lengthAdjust="spacing" textLength="25.9688" x="1077.3145" y="443.4668">MCP</text><text fill="#000000" font-family="sans-serif" font-size="12" lengthAdjust="spacing" textLength="3.8145" x="1103.2832" y="443.4668">&#160;</text><text fill="#000000" font-family="sans-serif" font-size="12" lengthAdjust="spacing" textLength="36.0293" x="1107.0977" y="443.4668">Model</text><text fill="#000000" font-family="sans-serif" font-size="12" lengthAdjust="spacing" textLength="3.8145" x="1143.127" y="443.4668">&#160;</text><text fill="#000000" font-family="sans-serif" font-size="12" lengthAdjust="spacing" textLength="39.3516" x="1146.9414" y="443.4668">Server</text></g><!--entity APP_kjC6ex--><g class="entity" data-entity="APP_kjC6ex" data-source-line="53" data-uid="ent0037" id="entity_APP_kjC6ex"><rect fill="#CCF2FF" height="44" rx="2" ry="2" style="stroke:#0078A0;stroke-width:0.5;" width="95.5801" x="1070" y="536.2969"/><path d="M1086,552.5969 L1097.1,552.5969 L1097.1,563.9969 L1086,563.9969" fill="#252327"/><path d="M1083.45,553.7219 L1086,553.7219 L1086,555.6719 L1083.45,555.6719" fill="#252327"/><path d="M1083.45,557.3219 L1086,557.3219 L1086,559.2719 L1083.45,559.2719" fill="#252327"/><path d="M1083.45,560.9219 L1086,560.9219 L1086,562.8719 L1083.45,562.8719" fill="#252327"/><path d="M1097.1,553.7219 L1099.2,553.7219 L1099.2,555.6719 L1097.1,555.6719" fill="#252327"/><path d="M1097.1,557.3219 L1099.2,557.3219 L1099.2,559.2719 L1097.1,559.2719" fill="#252327"/><path d="M1097.1,560.9219 L1099.2,560.9219 L1099.2,562.8719 L1097.1,562.8719" fill="#252327"/><text fill="#000000" font-family="sans-serif" font-size="12" lengthAdjust="spacing" textLength="3.8145" x="1104" y="567.4668">&#160;</text><text fill="#000000" font-family="sans-serif" font-size="12" lengthAdjust="spacing" textLength="18.6035" x="1107.8145" y="567.4668">CLI</text><text fill="#000000" font-family="sans-serif" font-size="12" lengthAdjust="spacing" textLength="3.8145" x="1126.418" y="567.4668">&#160;</text><text fill="#000000" font-family="sans-serif" font-size="12" lengthAdjust="spacing" textLength="25.3477" x="1130.2324" y="567.4668">Tool</text></g><!--entity APP_ca3vm7--><g class="entity" data-entity="APP_ca3vm7" data-source-line="54" data-uid="ent0038" id="entity_APP_ca3vm7"><rect fill="#CCF2FF" height="44" rx="2" ry="2" style="stroke:#0078A0;stroke-width:0.5;" width="131.3926" x="1058.5" y="660.2969"/><path d="M1074.5,676.5969 L1085.6,676.5969 L1085.6,687.9969 L1074.5,687.9969" fill="#252327"/><path d="M1071.95,677.7219 L1074.5,677.7219 L1074.5,679.6719 L1071.95,679.6719" fill="#252327"/><path d="M1071.95,681.3219 L1074.5,681.3219 L1074.5,683.2719 L1071.95,683.2719" fill="#252327"/><path d="M1071.95,684.9219 L1074.5,684.9219 L1074.5,686.8719 L1071.95,686.8719" fill="#252327"/><path d="M1085.6,677.7219 L1087.7,677.7219 L1087.7,679.6719 L1085.6,679.6719" fill="#252327"/><path d="M1085.6,681.3219 L1087.7,681.3219 L1087.7,683.2719 L1085.6,683.2719" fill="#252327"/><path d="M1085.6,684.9219 L1087.7,684.9219 L1087.7,686.8719 L1085.6,686.8719" fill="#252327"/><text fill="#000000" font-family="sans-serif" font-size="12" lengthAdjust="spacing" textLength="3.8145" x="1092.5" y="691.4668">&#160;</text><text fill="#000000" font-family="sans-serif" font-size="12" lengthAdjust="spacing" textLength="36.0293" x="1096.3145" y="691.4668">Model</text><text fill="#000000" font-family="sans-serif" font-size="12" lengthAdjust="spacing" textLength="3.8145" x="1132.3438" y="691.4668">&#160;</text><text fill="#000000" font-family="sans-serif" font-size="12" lengthAdjust="spacing" textLength="43.7344" x="1136.1582" y="691.4668">Verifier</text></g><!--entity APP_v9LvfK--><g class="entity" data-entity="APP_v9LvfK" data-source-line="59" data-uid="ent0042" id="entity_APP_v9LvfK"><rect fill="#CCF2FF" height="44" rx="2" ry="2" style="stroke:#0078A0;stroke-width:0.5;" width="129.2246" x="1329.5" y="412.2969"/><path d="M1345.5,428.5969 L1356.6,428.5969 L1356.6,439.9969 L1345.5,439.9969" fill="#252327"/><path d="M1342.95,429.7219 L1345.5,429.7219 L1345.5,431.6719 L1342.95,431.6719" fill="#252327"/><path d="M1342.95,433.3219 L1345.5,433.3219 L1345.5,435.2719 L1342.95,435.2719" fill="#252327"/><path d="M1342.95,436.9219 L1345.5,436.9219 L1345.5,438.8719 L1342.95,438.8719" fill="#252327"/><path d="M1356.6,429.7219 L1358.7,429.7219 L1358.7,431.6719 L1356.6,431.6719" fill="#252327"/><path d="M1356.6,433.3219 L1358.7,433.3219 L1358.7,435.2719 L1356.6,435.2719" fill="#252327"/><path d="M1356.6,436.9219 L1358.7,436.9219 L1358.7,438.8719 L1356.6,438.8719" fill="#252327"/><text fill="#000000" font-family="sans-serif" font-size="12" lengthAdjust="spacing" textLength="3.8145" x="1363.5" y="443.4668">&#160;</text><text fill="#000000" font-family="sans-serif" font-size="12" lengthAdjust="spacing" textLength="36.4688" x="1367.3145" y="443.4668">Query</text><text fill="#000000" font-family="sans-serif" font-size="12" lengthAdjust="spacing" textLength="3.8145" x="1403.7832" y="443.4668">&#160;</text><text fill="#000000" font-family="sans-serif" font-size="12" lengthAdjust="spacing" textLength="41.127" x="1407.5977" y="443.4668">Engine</text></g><!--entity APP_JOmFWy--><g class="entity" data-entity="APP_JOmFWy" data-source-line="60" data-uid="ent0043" id="entity_APP_JOmFWy"><rect fill="#CCF2FF" height="44" rx="2" ry="2" style="stroke:#0078A0;stroke-width:0.5;" width="136.3613" x="1323" y="536.2969"/><path d="M1339,552.5969 L1350.1,552.5969 L1350.1,563.9969 L1339,563.9969" fill="#252327"/><path d="M1336.45,553.7219 L1339,553.7219 L1339,555.6719 L1336.45,555.6719" fill="#252327"/><path d="M1336.45,557.3219 L1339,557.3219 L1339,559.2719 L1336.45,559.2719" fill="#252327"/><path d="M1336.45,560.9219 L1339,560.9219 L1339,562.8719 L1336.45,562.8719" fill="#252327"/><path d="M1350.1,553.7219 L1352.2,553.7219 L1352.2,555.6719 L1350.1,555.6719" fill="#252327"/><path d="M1350.1,557.3219 L1352.2,557.3219 L1352.2,559.2719 L1350.1,559.2719" fill="#252327"/><path d="M1350.1,560.9219 L1352.2,560.9219 L1352.2,562.8719 L1350.1,562.8719" fill="#252327"/><text fill="#000000" font-family="sans-serif" font-size="12" lengthAdjust="spacing" textLength="3.8145" x="1357" y="567.4668">&#160;</text><text fill="#000000" font-family="sans-serif" font-size="12" lengthAdjust="spacing" textLength="39.1699" x="1360.8145" y="567.4668">SQLite</text><text fill="#000000" font-family="sans-serif" font-size="12" lengthAdjust="spacing" textLength="3.8145" x="1399.9844" y="567.4668">&#160;</text><text fill="#000000" font-family="sans-serif" font-size="12" lengthAdjust="spacing" textLength="45.5625" x="1403.7988" y="567.4668">Indexer</text></g><!--entity APP_tIMxjr--><g class="entity" data-entity="APP_tIMxjr" data-source-line="61" data-uid="ent0044" id="entity_APP_tIMxjr"><rect fill="#CCF2FF" height="44" rx="2" ry="2" style="stroke:#0078A0;stroke-width:0.5;" width="154.2852" x="1305" y="660.2969"/><path d="M1321,676.5969 L1332.1,676.5969 L1332.1,687.9969 L1321,687.9969" fill="#252327"/><path d="M1318.45,677.7219 L1321,677.7219 L1321,679.6719 L1318.45,679.6719" fill="#252327"/><path d="M1318.45,681.3219 L1321,681.3219 L1321,683.2719 L1318.45,683.2719" fill="#252327"/><path d="M1318.45,684.9219 L1321,684.9219 L1321,686.8719 L1318.45,686.8719" fill="#252327"/><path d="M1332.1,677.7219 L1334.2,677.7219 L1334.2,679.6719 L1332.1,679.6719" fill="#252327"/><path d="M1332.1,681.3219 L1334.2,681.3219 L1334.2,683.2719 L1332.1,683.2719" fill="#252327"/><path d="M1332.1,684.9219 L1334.2,684.9219 L1334.2,686.8719 L1332.1,686.8719" fill="#252327"/><text fill="#000000" font-family="sans-serif" font-size="12" lengthAdjust="spacing" textLength="3.8145" x="1339" y="691.4668">&#160;</text><text fill="#000000" font-family="sans-serif" font-size="12" lengthAdjust="spacing" textLength="61.5293" x="1342.8145" y="691.4668">Promotion</text><text fill="#000000" font-family="sans-serif" font-size="12" lengthAdjust="spacing" textLength="3.8145" x="1404.3438" y="691.4668">&#160;</text><text fill="#000000" font-family="sans-serif" font-size="12" lengthAdjust="spacing" textLength="41.127" x="1408.1582" y="691.4668">Engine</text></g><!--link ROL_deMuTj to ROL_udXPfB--><!--link ROL_udXPfB to ROL_lM1u7O--><!--link SRV_Au1Th1 to SRV_GsUtNL--><!--link SRV_GsUtNL to SRV_Au1Th1--><g class="link" data-entity-1="SRV_GsUtNL" data-entity-2="SRV_Au1Th1" data-source-line="74" data-uid="lnk51" id="link_SRV_GsUtNL_SRV_Au1Th1"><path d="M174.83,208.1269 C174.83,185.6969 174.83,169.2069 174.83,146.6869" fill="none" id="SRV_GsUtNL-to-SRV_Au1Th1" style="stroke:#000000;stroke-width:1;"/><polygon fill="none" points="174.83,128.6869,168.83,146.6869,180.83,146.6869,174.83,128.6869" style="stroke:#000000;stroke-width:1;"/><text fill="#000000" font-family="sans-serif" font-size="12" lengthAdjust="spacing" textLength="3.8145" x="170.83" y="165.5455">&#160;</text></g><!--link SRV_GsUtNL to SRV_AIGnSY--><!--link SRV_Ij6Kl6 to SRV_J8ekRD--><!--link SRV_J8ekRD to SRV_Ij6Kl6--><g class="link" data-entity-1="SRV_J8ekRD" data-entity-2="SRV_Ij6Kl6" data-source-line="76" data-uid="lnk53" id="link_SRV_J8ekRD_SRV_Ij6Kl6"><path d="M1740.33,208.1269 C1740.33,185.6969 1740.33,169.2069 1740.33,146.6869" fill="none" id="SRV_J8ekRD-to-SRV_Ij6Kl6" style="stroke:#000000;stroke-width:1;"/><polygon fill="none" points="1740.33,128.6869,1734.33,146.6869,1746.33,146.6869,1740.33,128.6869" style="stroke:#000000;stroke-width:1;"/><text fill="#000000" font-family="sans-serif" font-size="12" lengthAdjust="spacing" textLength="3.8145" x="1736.33" y="165.5455">&#160;</text></g><!--link SRV_J8ekRD to SRV_vQKsM9--><!--link SRV_Qr8St8 to SRV_Uv9Wx9--><!--link SRV_Uv9Wx9 to SRV_e5MCiF--><!--link GRP_AUTH to GRP_VER--><!--link GRP_VER to GRP_PLAT--><!--link PRC_U4aAdh to PRC_GHVpDA--><!--link PRC_GHVpDA to PRC_0Rz5Ex--><!--link APP_kRZYOA to APP_kjC6ex--><!--link APP_kjC6ex to APP_ca3vm7--><!--link APP_v9LvfK to APP_JOmFWy--><!--link APP_JOmFWy to APP_tIMxjr--><!--link GRP_CMP_A to GRP_CMP_B--><!--link GRP_ROLES to GRP_AUTH--><!--link GRP_AUTH to GRP_PRC--><!--link GRP_PRC to GRP_CMP--><!--link SRV_AIGnSY to SRV_Au1Th1--><g class="link" data-entity-1="SRV_AIGnSY" data-entity-2="SRV_Au1Th1" data-source-line="75" data-uid="lnk52" id="link_SRV_AIGnSY_SRV_Au1Th1"><path d="M248.33,412.0769 C248.33,341.2269 248.33,125.2969 248.33,125.2969 C248.33,125.2969 258.2,125.2969 246.64,125.2969" fill="none" id="SRV_AIGnSY-to-SRV_Au1Th1" style="stroke:#000000;stroke-width:1;"/><polygon fill="none" points="228.64,125.2969,246.64,131.2969,246.64,119.2969,228.64,125.2969" style="stroke:#000000;stroke-width:1;"/><text fill="#000000" font-family="sans-serif" font-size="12" lengthAdjust="spacing" textLength="3.8145" x="244.33" y="255.9755">&#160;</text></g><!--link SRV_vQKsM9 to SRV_Ij6Kl6--><g class="link" data-entity-1="SRV_vQKsM9" data-entity-2="SRV_Ij6Kl6" data-source-line="77" data-uid="lnk54" id="link_SRV_vQKsM9_SRV_Ij6Kl6"><path d="M1818.5,412.0769 C1818.5,340.1469 1818.5,118.2969 1818.5,118.2969 C1818.5,118.2969 1826.71,118.2969 1813.09,118.2969" fill="none" id="SRV_vQKsM9-to-SRV_Ij6Kl6" style="stroke:#000000;stroke-width:1;"/><polygon fill="none" points="1795.09,118.2969,1813.09,124.2969,1813.09,112.2969,1795.09,118.2969" style="stroke:#000000;stroke-width:1;"/><text fill="#000000" font-family="sans-serif" font-size="12" lengthAdjust="spacing" textLength="3.8145" x="1814.5" y="250.6155">&#160;</text></g><!--reverse link SRV_Au1Th1 to PRC_U4aAdh--><g class="link" data-entity-1="SRV_Au1Th1" data-entity-2="PRC_U4aAdh" data-source-line="80" data-uid="lnk56" id="link_SRV_Au1Th1_PRC_U4aAdh"><path d="M246.76,119.2969 C411.98,119.2969 765,119.2969 765,119.2969 C765,119.2969 765,175.7069 765,208.0969" fill="none" id="SRV_Au1Th1-backto-PRC_U4aAdh" style="stroke:#000000;stroke-width:1;stroke-dasharray:1.0,3.0;"/><polygon fill="none" points="228.76,119.2969,246.76,125.2969,246.76,113.2969,228.76,119.2969" style="stroke:#000000;stroke-width:1;"/><text fill="#000000" font-family="sans-serif" font-size="12" lengthAdjust="spacing" textLength="3.8145" x="537.28" y="116.4355">&#160;</text></g><!--reverse link SRV_Ij6Kl6 to PRC_U4aAdh--><g class="link" data-entity-1="SRV_Ij6Kl6" data-entity-2="PRC_U4aAdh" data-source-line="81" data-uid="lnk58" id="link_SRV_Ij6Kl6_PRC_U4aAdh"><path d="M1612.93,113.2969 C1393.54,113.2969 828,113.2969 828,113.2969 C828,113.2969 828,174.3969 828,208.2869" fill="none" id="SRV_Ij6Kl6-backto-PRC_U4aAdh" style="stroke:#000000;stroke-width:1;stroke-dasharray:1.0,3.0;"/><polygon fill="none" points="1630.93,113.2969,1612.93,107.2969,1612.93,119.2969,1630.93,113.2969" style="stroke:#000000;stroke-width:1;"/><text fill="#000000" font-family="sans-serif" font-size="12" lengthAdjust="spacing" textLength="3.8145" x="1177.97" y="110.4355">&#160;</text></g><!--reverse link SRV_Qr8St8 to PRC_U4aAdh--><g class="link" data-entity-1="SRV_Qr8St8" data-entity-2="PRC_U4aAdh" data-source-line="82" data-uid="lnk60" id="link_SRV_Qr8St8_PRC_U4aAdh"><path d="M2255,146.3969 C2255,146.3969 891,144.2969 891,144.2969 C891,144.2969 891,182.6669 891,208.1469" fill="none" id="SRV_Qr8St8-backto-PRC_U4aAdh" style="stroke:#000000;stroke-width:1;stroke-dasharray:1.0,3.0;"/><polygon fill="none" points="2255,128.3969,2249,146.3969,2261,146.3969,2255,128.3969" style="stroke:#000000;stroke-width:1;"/><text fill="#000000" font-family="sans-serif" font-size="12" lengthAdjust="spacing" textLength="3.8145" x="1545.02" y="141.4355">&#160;</text></g><!--reverse link SRV_AIGnSY to PRC_U4aAdh--><g class="link" data-entity-1="SRV_AIGnSY" data-entity-2="PRC_U4aAdh" data-source-line="83" data-uid="lnk62" id="link_SRV_AIGnSY_PRC_U4aAdh"><path d="M268.17,394.0769 C268.17,342.5569 268.17,237.2969 268.17,237.2969 C268.17,237.2969 536.55,237.2969 701.66,237.2969" fill="none" id="SRV_AIGnSY-backto-PRC_U4aAdh" style="stroke:#000000;stroke-width:1;stroke-dasharray:1.0,3.0;"/><polygon fill="none" points="268.17,412.0769,274.17,394.0769,262.17,394.0769,268.17,412.0769" style="stroke:#000000;stroke-width:1;"/><text fill="#000000" font-family="sans-serif" font-size="12" lengthAdjust="spacing" textLength="3.8145" x="393.52" y="234.4355">&#160;</text></g><!--reverse link SRV_Qr8St8 to PRC_GHVpDA--><g class="link" data-entity-1="SRV_Qr8St8" data-entity-2="PRC_GHVpDA" data-source-line="84" data-uid="lnk64" id="link_SRV_Qr8St8_PRC_GHVpDA"><path d="M2263,146.5769 C2263,161.4469 2263,160.2969 2263,160.2969 C2263,160.2969 1125,160.2969 1125,160.2969 C1125,160.2969 1125,187.6369 1125,208.1469" fill="none" id="SRV_Qr8St8-backto-PRC_GHVpDA" style="stroke:#000000;stroke-width:1;stroke-dasharray:1.0,3.0;"/><polygon fill="none" points="2263,128.5769,2257,146.5769,2269,146.5769,2263,128.5769" style="stroke:#000000;stroke-width:1;"/><text fill="#000000" font-family="sans-serif" font-size="12" lengthAdjust="spacing" textLength="3.8145" x="1681.94" y="157.4355">&#160;</text></g><!--reverse link SRV_Uv9Wx9 to PRC_0Rz5Ex--><g class="link" data-entity-1="SRV_Uv9Wx9" data-entity-2="PRC_0Rz5Ex" data-source-line="85" data-uid="lnk66" id="link_SRV_Uv9Wx9_PRC_0Rz5Ex"><path d="M2362.33,190.1969 C2362.33,190.1969 1372,192.2969 1372,192.2969 C1372,192.2969 1372,199.8369 1372,208.1969" fill="none" id="SRV_Uv9Wx9-backto-PRC_0Rz5Ex" style="stroke:#000000;stroke-width:1;stroke-dasharray:1.0,3.0;"/><polygon fill="none" points="2362.33,208.1969,2368.33,190.1969,2356.33,190.1969,2362.33,208.1969" style="stroke:#000000;stroke-width:1;"/><text fill="#000000" font-family="sans-serif" font-size="12" lengthAdjust="spacing" textLength="3.8145" x="1863.17" y="189.4355">&#160;</text></g><!--reverse link SRV_Au1Th1 to APP_kRZYOA--><g class="link" data-entity-1="SRV_Au1Th1" data-entity-2="APP_kRZYOA" data-source-line="88" data-uid="lnk68" id="link_SRV_Au1Th1_APP_kRZYOA"><path d="M246.78,110.2969 C450.49,110.2969 966,110.2969 966,110.2969 C966,110.2969 966,423.2969 966,423.2969 C966,423.2969 1002.24,423.2969 1039.33,423.2969" fill="none" id="SRV_Au1Th1-backto-APP_kRZYOA" style="stroke:#000000;stroke-width:1;stroke-dasharray:1.0,3.0;"/><polygon fill="none" points="228.78,110.2969,246.78,116.2969,246.78,104.2969,228.78,110.2969" style="stroke:#000000;stroke-width:1;"/><text fill="#000000" font-family="sans-serif" font-size="12" lengthAdjust="spacing" textLength="3.8145" x="786.55" y="107.4355">&#160;</text></g><!--reverse link SRV_Au1Th1 to APP_kjC6ex--><g class="link" data-entity-1="SRV_Au1Th1" data-entity-2="APP_kjC6ex" data-source-line="89" data-uid="lnk70" id="link_SRV_Au1Th1_APP_kjC6ex"><path d="M246.62,122.2969 C395.54,122.2969 688.75,122.2969 688.75,122.2969 C688.75,122.2969 688.75,558.2969 688.75,558.2969 C688.75,558.2969 957.33,558.2969 1069.59,558.2969" fill="none" id="SRV_Au1Th1-backto-APP_kjC6ex" style="stroke:#000000;stroke-width:1;stroke-dasharray:1.0,3.0;"/><polygon fill="none" points="228.62,122.2969,246.62,128.2969,246.62,116.2969,228.62,122.2969" style="stroke:#000000;stroke-width:1;"/><text fill="#000000" font-family="sans-serif" font-size="12" lengthAdjust="spacing" textLength="3.8145" x="684.75" y="297.7955">&#160;</text></g><!--reverse link SRV_Ij6Kl6 to APP_ca3vm7--><g class="link" data-entity-1="SRV_Ij6Kl6" data-entity-2="APP_ca3vm7" data-source-line="90" data-uid="lnk72" id="link_SRV_Ij6Kl6_APP_ca3vm7"><path d="M1612.81,116.2969 C1487.92,116.2969 1282.75,116.2969 1282.75,116.2969 C1282.75,116.2969 1282.75,682.2969 1282.75,682.2969 C1282.75,682.2969 1233.56,682.2969 1189.95,682.2969" fill="none" id="SRV_Ij6Kl6-backto-APP_ca3vm7" style="stroke:#000000;stroke-width:1;stroke-dasharray:1.0,3.0;"/><polygon fill="none" points="1630.81,116.2969,1612.81,110.2969,1612.81,122.2969,1630.81,116.2969" style="stroke:#000000;stroke-width:1;"/><text fill="#000000" font-family="sans-serif" font-size="12" lengthAdjust="spacing" textLength="3.8145" x="1278.75" y="268.8055">&#160;</text></g><!--reverse link SRV_Qr8St8 to APP_v9LvfK--><g class="link" data-entity-1="SRV_Qr8St8" data-entity-2="APP_v9LvfK" data-source-line="91" data-uid="lnk74" id="link_SRV_Qr8St8_APP_v9LvfK"><path d="M2271,146.4469 C2271,166.9569 2271,176.2969 2271,176.2969 C2271,176.2969 1453.5,176.2969 1453.5,176.2969 C1453.5,176.2969 1453.5,349.0869 1453.5,411.8569" fill="none" id="SRV_Qr8St8-backto-APP_v9LvfK" style="stroke:#000000;stroke-width:1;stroke-dasharray:1.0,3.0;"/><polygon fill="none" points="2271,128.4469,2265,146.4469,2277,146.4469,2271,128.4469" style="stroke:#000000;stroke-width:1;"/><text fill="#000000" font-family="sans-serif" font-size="12" lengthAdjust="spacing" textLength="3.8145" x="1764.4" y="173.4355">&#160;</text></g><!--reverse link SRV_Qr8St8 to APP_JOmFWy--><g class="link" data-entity-1="SRV_Qr8St8" data-entity-2="APP_JOmFWy" data-source-line="92" data-uid="lnk76" id="link_SRV_Qr8St8_APP_JOmFWy"><path d="M2279,146.4069 C2279,237.1469 2279,558.2969 2279,558.2969 C2279,558.2969 1667.14,558.2969 1459.21,558.2969" fill="none" id="SRV_Qr8St8-backto-APP_JOmFWy" style="stroke:#000000;stroke-width:1;stroke-dasharray:1.0,3.0;"/><polygon fill="none" points="2279,128.4069,2273,146.4069,2285,146.4069,2279,128.4069" style="stroke:#000000;stroke-width:1;"/><text fill="#000000" font-family="sans-serif" font-size="12" lengthAdjust="spacing" textLength="3.8145" x="2080.05" y="555.4355">&#160;</text></g><!--reverse link SRV_Uv9Wx9 to APP_tIMxjr--><g class="link" data-entity-1="SRV_Uv9Wx9" data-entity-2="APP_tIMxjr" data-source-line="93" data-uid="lnk78" id="link_SRV_Uv9Wx9_APP_tIMxjr"><path d="M2488.75,270.4069 C2488.75,361.1469 2488.75,682.2969 2488.75,682.2969 C2488.75,682.2969 1710.84,682.2969 1459.38,682.2969" fill="none" id="SRV_Uv9Wx9-backto-APP_tIMxjr" style="stroke:#000000;stroke-width:1;stroke-dasharray:1.0,3.0;"/><polygon fill="none" points="2488.75,252.4069,2482.75,270.4069,2494.75,270.4069,2488.75,252.4069" style="stroke:#000000;stroke-width:1;"/><text fill="#000000" font-family="sans-serif" font-size="12" lengthAdjust="spacing" textLength="3.8145" x="2185.01" y="679.4355">&#160;</text></g><!--link PRC_U4aAdh to ROL_deMuTj--><g class="link" data-entity-1="PRC_U4aAdh" data-entity-2="ROL_deMuTj" data-source-line="96" data-uid="lnk80" id="link_PRC_U4aAdh_ROL_deMuTj"><path d="M693.99,242.2969 C591.58,242.2969 472,242.2969 472,242.2969 C472,242.2969 472,349.8369 472,400.2769" fill="none" id="PRC_U4aAdh-ROL_deMuTj" style="stroke:#000000;stroke-width:1;"/><polygon fill="#000000" points="701.99,242.2969,693.99,239.2969,693.99,245.2969,701.99,242.2969" style="stroke:#000000;stroke-width:1;"/><ellipse cx="472" cy="406.2769" fill="#000000" rx="6" ry="6" style="stroke:#000000;stroke-width:1.5;"/><text fill="#000000" font-family="sans-serif" font-size="12" lengthAdjust="spacing" textLength="3.8145" x="498.01" y="239.4355">&#160;</text></g><!--link PRC_U4aAdh to ROL_udXPfB--><g class="link" data-entity-1="PRC_U4aAdh" data-entity-2="ROL_udXPfB" data-source-line="97" data-uid="lnk82" id="link_PRC_U4aAdh_ROL_udXPfB"><path d="M693.83,247.2969 C669.42,247.2969 659.25,247.2969 659.25,247.2969 C659.25,247.2969 659.25,350.5769 659.25,400.1069" fill="none" id="PRC_U4aAdh-ROL_udXPfB" style="stroke:#000000;stroke-width:1;"/><polygon fill="#000000" points="701.83,247.2969,693.83,244.2969,693.83,250.2969,701.83,247.2969" style="stroke:#000000;stroke-width:1;"/><ellipse cx="659.25" cy="406.1069" fill="#000000" rx="6" ry="6" style="stroke:#000000;stroke-width:1.5;"/><text fill="#000000" font-family="sans-serif" font-size="12" lengthAdjust="spacing" textLength="3.8145" x="655.25" y="305.5555">&#160;</text></g><!--SRC=[fLVHRjis57tNLx31q7M0dItOaYP05a2rKzUDlIYodQuR1a6JQ9ifHGeKvTajykyZHLcqRCQcwgU4vj4vlFUGzvAl48bm7aDmUlfp4B9eZfAGmtR68OEKhrAOdQPvWfrNPjmChz9v2U4q1Po2VoddD04nOZ3YY1B7uOXZ24QGBL04mI0aSHQ5ANGSYGZ9J4oUT2Z9yWIH6V0fXja9kBxkq2IXfCTedehVRsv0c86UxmN-_U1s1Buv06nyV_r3jQX0CdmJ4XZ-VdPw_dm3t9pFAPESSaen2POWXiDy_DI4g0_S6IHybogF__IcxnfGTU42Off2mxBmy2n_Uo-uz1f1- -yvYcD8_c5eDkVjkgOU674bttCjuIedCk6bCNjpxax67_QblEGmP7r3GGgK_ohcaVyOkFdPU7xMZ7b8OuWj-NlPXFynQCRVHU6CXObj1FqU6NqM2ZeSRKDC_oFj-aBqm0GhsUfcFKA6fYWAvNcoyklnrczgbqd366__wU8ENtoFOzOI7o_X5x_xVQPPYomUxhBXLMc82ifaIBKMFJ31IhQwRnuE-PIonCepR-2EcvhMHLb45v2jMk0X5t_aNdqDHZpasTxO7zZbY5ysq_9XIZF4ALi1Zz647apmP77rQNdLJ4JqWIcQvUomVV1ys47lIrzKF2PVgaNeWGbMiWdxgdAtNKhBS-MipvTfNdfOsm4-337wAcqHEHCR83km1_pElYrGSjJBh9pb0fypgCuPLhj0R3v2nBzIh_nG2GcHOF9RwCRp8vJwIOfX8dfXuPHHe_VXCUswpJJKpe92YwDf6F7CoFoB__NyTYcOTIWxTjHMe0T6NCdt_89rmgsK4X7hNkywGs_REzr0NjVgqW6Qm2s8NaoScwQuPAgMLY-t7QyikVBOg3k6wIEbwdfUyCN_w_EzUvHePz07OqgnXTXJvm8kZujmew7On1U5lowIjuMa3dUx46ojJGzDm8hnkUvvKOVbyLlNo4DclplIR2LuIsQ8mCE9M5mD5jExemH73mDH1a2Vn71fa_kFzydxJwkZ97N3iOsJzuVB9rRvgC8s-RYnEZqq0Ij6QRW-gQOsKDWgoycF8alYATN6uGeo4998b8FCqQ-OBPbrxp4q8GqG1SjPzmh3jD2MkkldLfR22Cb2LYGgSto8Wr7jjpVwGjhQkCEsmCd9Jo_1rItL6gwkJQsDczPUkBfBxS95M5KN5Lj9VYG2BAzM1PcgsGLJC4dVwFPWNke1-FPI3y3L9SGQlixX7hXgMTRigesrDguwLTvq2xDAdAwHLedJbT8QhigdLPxr-RNAX3x5rd1rj8s9aqzpKLCoD2D9aJvEGRhUX0MVMqrAElrcRu5DnzVgksZrSjz5_my0]--></g></svg>