<svg xmlns="http://www.w3.org/2000/svg" xmlns:xlink="http://www.w3.org/1999/xlink" contentStyleType="text/css" data-diagram-type="DESCRIPTION" height="937px" preserveAspectRatio="none" style="width:928px;height:937px;background:#FAFAFA;" version="1.1" viewBox="0 0 928 937" width="928px" zoomAndPan="magnify"><?plantuml 1.2026.3?><defs/><g><rect fill="#FAFAFA" height="937" style="stroke:none;stroke-width:1;" width="928" x="0" y="0"/><g class="title" data-source-line="104"><text fill="#000000" font-family="'Helvetica Neue, Helvetica, Arial, sans-serif'" font-size="14" font-weight="700" lengthAdjust="spacing" textLength="246.5176" x="337.2412" y="22.9951">Execute Staged Bulk Operation</text></g><!--cluster Application--><g class="cluster" data-qualified-name="Application" data-source-line="106" id="ent0002"><rect fill="#E8F8FF" height="90" rx="2" ry="2" style="stroke:#0078A0;stroke-width:1;" width="907" x="7" y="44.2969"/><text fill="#000000" font-family="'Helvetica Neue, Helvetica, Arial, sans-serif'" font-size="12" font-weight="700" lengthAdjust="spacing" textLength="76.541" x="422.2295" y="57.4355">Application</text></g><!--cluster Process--><g class="cluster" data-qualified-name="Process" data-source-line="116" id="ent0010"><rect fill="#EDE8E1" height="765" rx="2" ry="2" style="stroke:#8C7E6A;stroke-width:1;" width="559" x="219" y="158.2969"/><text fill="#000000" font-family="'Helvetica Neue, Helvetica, Arial, sans-serif'" font-size="12" font-weight="700" lengthAdjust="spacing" textLength="52.4941" x="472.2529" y="171.4355">Process</text></g><!--cluster PRC_gtgYvQ--><g class="cluster" data-qualified-name="Process.PRC_gtgYvQ" data-source-line="117" id="ent0011"><rect fill="#E0D8CC" height="603" rx="2" ry="2" style="stroke:#8C7E6A;stroke-width:1;" width="331" x="251" y="206.2969"/><path d="M301.2838,213.9738 L310.0069,213.9738 L310.0069,212.1738 L316.2377,219.3738 L310.0069,226.5738 L310.0069,224.7738 L301.2838,224.7738" fill="#252327" style="stroke:none;stroke-width:1;"/><text fill="#000000" font-family="'Helvetica Neue, Helvetica, Arial, sans-serif'" font-size="12" font-weight="700" lengthAdjust="spacing" textLength="211.3008" x="324.0154" y="227.6206">Execute Staged Bulk Operation</text></g><!--entity APP_5n_KQJ--><g class="entity" data-qualified-name="Application.APP_5n_KQJ" data-source-line="107" id="ent0003"><rect fill="#CCF2FF" height="42.1538" rx="2" ry="2" style="stroke:#0078A0;stroke-width:0.5;" width="159.189" x="22.5" y="76.2969"/><path d="M38.0385,92.1123 L48.2846,92.1123 L48.2846,102.6353 L38.0385,102.6353" fill="#252327" style="stroke:none;stroke-width:0.5;"/><path d="M35.6846,93.1507 L38.0385,93.1507 L38.0385,94.9507 L35.6846,94.9507" fill="#252327"/><path d="M35.6846,96.4738 L38.0385,96.4738 L38.0385,98.2738 L35.6846,98.2738" fill="#252327"/><path d="M35.6846,99.7969 L38.0385,99.7969 L38.0385,101.5969 L35.6846,101.5969" fill="#252327"/><path d="M48.2846,93.1507 L50.2231,93.1507 L50.2231,94.9507 L48.2846,94.9507" fill="#252327"/><path d="M48.2846,96.4738 L50.2231,96.4738 L50.2231,98.2738 L48.2846,98.2738" fill="#252327"/><path d="M48.2846,99.7969 L50.2231,99.7969 L50.2231,101.5969 L48.2846,101.5969" fill="#252327"/><text fill="#000000" font-family="'Helvetica Neue, Helvetica, Arial, sans-serif'" font-size="12" lengthAdjust="spacing" textLength="113.2207" x="58.4683" y="105.6206">Bulk Write Handler</text></g><!--entity APP_WK_78v--><g class="entity" data-qualified-name="Application.APP_WK_78v" data-source-line="108" id="ent0004"><rect fill="#CCF2FF" height="42.1538" rx="2" ry="2" style="stroke:#0078A0;stroke-width:0.5;" width="166.396" x="242" y="76.2969"/><path d="M257.5385,92.1123 L267.7846,92.1123 L267.7846,102.6353 L257.5385,102.6353" fill="#252327" style="stroke:none;stroke-width:0.5;"/><path d="M255.1846,93.1507 L257.5385,93.1507 L257.5385,94.9507 L255.1846,94.9507" fill="#252327"/><path d="M255.1846,96.4738 L257.5385,96.4738 L257.5385,98.2738 L255.1846,98.2738" fill="#252327"/><path d="M255.1846,99.7969 L257.5385,99.7969 L257.5385,101.5969 L255.1846,101.5969" fill="#252327"/><path d="M267.7846,93.1507 L269.7231,93.1507 L269.7231,94.9507 L267.7846,94.9507" fill="#252327"/><path d="M267.7846,96.4738 L269.7231,96.4738 L269.7231,98.2738 L267.7846,98.2738" fill="#252327"/><path d="M267.7846,99.7969 L269.7231,99.7969 L269.7231,101.5969 L267.7846,101.5969" fill="#252327"/><text fill="#000000" font-family="'Helvetica Neue, Helvetica, Arial, sans-serif'" font-size="12" lengthAdjust="spacing" textLength="120.4277" x="277.9683" y="105.6206">Bulk Delete Handler</text></g><!--entity APP_HOOYAQ--><g class="entity" data-qualified-name="Application.APP_HOOYAQ" data-source-line="109" id="ent0005"><rect fill="#CCF2FF" height="42.1538" rx="2" ry="2" style="stroke:#0078A0;stroke-width:0.5;" width="211.1031" x="468.5" y="76.2969"/><path d="M484.0385,92.1123 L494.2846,92.1123 L494.2846,102.6353 L484.0385,102.6353" fill="#252327" style="stroke:none;stroke-width:0.5;"/><path d="M481.6846,93.1507 L484.0385,93.1507 L484.0385,94.9507 L481.6846,94.9507" fill="#252327"/><path d="M481.6846,96.4738 L484.0385,96.4738 L484.0385,98.2738 L481.6846,98.2738" fill="#252327"/><path d="M481.6846,99.7969 L484.0385,99.7969 L484.0385,101.5969 L481.6846,101.5969" fill="#252327"/><path d="M494.2846,93.1507 L496.2231,93.1507 L496.2231,94.9507 L494.2846,94.9507" fill="#252327"/><path d="M494.2846,96.4738 L496.2231,96.4738 L496.2231,98.2738 L494.2846,98.2738" fill="#252327"/><path d="M494.2846,99.7969 L496.2231,99.7969 L496.2231,101.5969 L494.2846,101.5969" fill="#252327"/><text fill="#000000" font-family="'Helvetica Neue, Helvetica, Arial, sans-serif'" font-size="12" lengthAdjust="spacing" textLength="165.1348" x="504.4683" y="105.6206">Batch Transaction Manager</text></g><!--entity APP_PDJI8F--><g class="entity" data-qualified-name="Application.APP_PDJI8F" data-source-line="110" id="ent0006"><rect fill="#CCF2FF" height="42.1538" rx="2" ry="2" style="stroke:#0078A0;stroke-width:0.5;" width="159.1656" x="739.5" y="76.2969"/><path d="M755.0385,92.1123 L765.2846,92.1123 L765.2846,102.6353 L755.0385,102.6353" fill="#252327" style="stroke:none;stroke-width:0.5;"/><path d="M752.6846,93.1507 L755.0385,93.1507 L755.0385,94.9507 L752.6846,94.9507" fill="#252327"/><path d="M752.6846,96.4738 L755.0385,96.4738 L755.0385,98.2738 L752.6846,98.2738" fill="#252327"/><path d="M752.6846,99.7969 L755.0385,99.7969 L755.0385,101.5969 L752.6846,101.5969" fill="#252327"/><path d="M765.2846,93.1507 L767.2231,93.1507 L767.2231,94.9507 L765.2846,94.9507" fill="#252327"/><path d="M765.2846,96.4738 L767.2231,96.4738 L767.2231,98.2738 L765.2846,98.2738" fill="#252327"/><path d="M765.2846,99.7969 L767.2231,99.7969 L767.2231,101.5969 L765.2846,101.5969" fill="#252327"/><text fill="#000000" font-family="'Helvetica Neue, Helvetica, Arial, sans-serif'" font-size="12" lengthAdjust="spacing" textLength="113.1973" x="775.4683" y="105.6206">Operation Registry</text></g><!--entity DOB_hExrX3--><g class="entity" data-qualified-name="Process.DOB_hExrX3" data-source-line="128" id="ent0021"><rect fill="#CCF2FF" height="42.1538" rx="2" ry="2" style="stroke:#0078A0;stroke-width:0.5;" width="151.7124" x="606" y="377.2969"/><path d="M620.1538,392.5584 L634,392.5584 L634,394.3584 L620.1538,394.3584" fill="#252327"/><path d="M620.1538,402.3892 L634,402.3892 L634,404.1892 L620.1538,404.1892" fill="#252327"/><path d="M620.1538,394.3584 L620.1538,402.3892 L621.9538,402.3892 L621.9538,394.3584" fill="#252327"/><path d="M632.2,394.3584 L632.2,402.3892 L634,402.3892 L634,394.3584" fill="#252327"/><path d="M620.1538,394.1507 L634,394.1507 L634,395.9507 L620.1538,395.9507" fill="#252327"/><text fill="#000000" font-family="'Helvetica Neue, Helvetica, Arial, sans-serif'" font-size="12" lengthAdjust="spacing" textLength="105.7441" x="641.9683" y="406.6206">Operation Record</text></g><!--entity DOB_hhYsiw--><g class="entity" data-qualified-name="Process.DOB_hhYsiw" data-source-line="129" id="ent0022"><rect fill="#CCF2FF" height="42.1538" rx="2" ry="2" style="stroke:#0078A0;stroke-width:0.5;" width="156.4234" x="606" y="499.2969"/><path d="M620.1538,514.5584 L634,514.5584 L634,516.3584 L620.1538,516.3584" fill="#252327"/><path d="M620.1538,524.3892 L634,524.3892 L634,526.1892 L620.1538,526.1892" fill="#252327"/><path d="M620.1538,516.3584 L620.1538,524.3892 L621.9538,524.3892 L621.9538,516.3584" fill="#252327"/><path d="M632.2,516.3584 L632.2,524.3892 L634,524.3892 L634,516.3584" fill="#252327"/><path d="M620.1538,516.1507 L634,516.1507 L634,517.9507 L620.1538,517.9507" fill="#252327"/><text fill="#000000" font-family="'Helvetica Neue, Helvetica, Arial, sans-serif'" font-size="12" lengthAdjust="spacing" textLength="110.4551" x="641.9683" y="528.6206">Staged Repository</text></g><!--entity EVT_BKj6NZ--><g class="entity" data-qualified-name="Process.EVT_BKj6NZ" data-source-line="130" id="ent0023"><rect fill="#E0D8CC" height="42.1538" rx="2" ry="2" style="stroke:#8C7E6A;stroke-width:0.5;" width="227.0816" x="410.5" y="865.2969"/><path d="M424.7923,880.8353 L432.5462,880.8353 A5.2615,5.2615 0 0 1 432.5462,891.9123 L424.7923,891.9123 L427.7,886.3738" fill="#252327" style="stroke:none;stroke-width:0.5;"/><text fill="#000000" font-family="'Helvetica Neue, Helvetica, Arial, sans-serif'" font-size="12" lengthAdjust="spacing" textLength="181.1133" x="446.4683" y="894.6206">Staged Repository Committed</text></g><!--entity FNC_DrKMhV--><g class="entity" data-qualified-name="Process.PRC_gtgYvQ.FNC_DrKMhV" data-source-line="118" id="ent0012"><rect fill="#E0D8CC" height="42.1538" rx="2" ry="2" style="stroke:#8C7E6A;stroke-width:0.5;" width="239.0288" x="274.5" y="255.2969"/><path d="M288.5154,281.4969 L288.5154,272.7738 L295.5769,269.5892 L302.6385,272.7738 L302.6385,281.4969 L295.5769,278.0353" fill="#252327" style="stroke:none;stroke-width:0.5;"/><text fill="#000000" font-family="'Helvetica Neue, Helvetica, Arial, sans-serif'" font-size="12" lengthAdjust="spacing" textLength="193.0605" x="310.4683" y="284.6206">Resolve Operation Idempotency</text></g><!--entity FNC_hbgFU3--><g class="entity" data-qualified-name="Process.PRC_gtgYvQ.FNC_hbgFU3" data-source-line="119" id="ent0013"><rect fill="#E0D8CC" height="42.1538" rx="2" ry="2" style="stroke:#8C7E6A;stroke-width:0.5;" width="203.9312" x="297" y="377.2969"/><path d="M311.0154,403.4969 L311.0154,394.7738 L318.0769,391.5892 L325.1385,394.7738 L325.1385,403.4969 L318.0769,400.0353" fill="#252327" style="stroke:none;stroke-width:0.5;"/><text fill="#000000" font-family="'Helvetica Neue, Helvetica, Arial, sans-serif'" font-size="12" lengthAdjust="spacing" textLength="157.9629" x="332.9683" y="406.6206">Create Staging Repository</text></g><!--entity FNC_g3H3mK--><g class="entity" data-qualified-name="Process.PRC_gtgYvQ.FNC_g3H3mK" data-source-line="120" id="ent0014"><rect fill="#E0D8CC" height="42.1538" rx="2" ry="2" style="stroke:#8C7E6A;stroke-width:0.5;" width="215.1578" x="291.5" y="499.2969"/><path d="M305.5154,525.4969 L305.5154,516.7738 L312.5769,513.5892 L319.6385,516.7738 L319.6385,525.4969 L312.5769,522.0353" fill="#252327" style="stroke:none;stroke-width:0.5;"/><text fill="#000000" font-family="'Helvetica Neue, Helvetica, Arial, sans-serif'" font-size="12" lengthAdjust="spacing" textLength="169.1895" x="327.4683" y="528.6206">Apply Operations to Staging</text></g><!--entity FNC_6PI0kV--><g class="entity" data-qualified-name="Process.PRC_gtgYvQ.FNC_6PI0kV" data-source-line="121" id="ent0015"><rect fill="#E0D8CC" height="42.1538" rx="2" ry="2" style="stroke:#8C7E6A;stroke-width:0.5;" width="195.4234" x="301.5" y="621.2969"/><path d="M315.5154,647.4969 L315.5154,638.7738 L322.5769,635.5892 L329.6385,638.7738 L329.6385,647.4969 L322.5769,644.0353" fill="#252327" style="stroke:none;stroke-width:0.5;"/><text fill="#000000" font-family="'Helvetica Neue, Helvetica, Arial, sans-serif'" font-size="12" lengthAdjust="spacing" textLength="149.4551" x="337.4683" y="650.6206">Verify Staged Repository</text></g><!--entity FNC_tRAV0x--><g class="entity" data-qualified-name="Process.PRC_gtgYvQ.FNC_tRAV0x" data-source-line="122" id="ent0016"><rect fill="#E0D8CC" height="42.1538" rx="2" ry="2" style="stroke:#8C7E6A;stroke-width:0.5;" width="207.3765" x="295.5" y="743.2969"/><path d="M309.5154,769.4969 L309.5154,760.7738 L316.5769,757.5892 L323.6385,760.7738 L323.6385,769.4969 L316.5769,766.0353" fill="#252327" style="stroke:none;stroke-width:0.5;"/><text fill="#000000" font-family="'Helvetica Neue, Helvetica, Arial, sans-serif'" font-size="12" lengthAdjust="spacing" textLength="161.4082" x="331.4683" y="772.6206">Commit Staged Repository</text></g><!--link APP_5n_KQJ to APP_WK_78v--><!--link APP_WK_78v to APP_HOOYAQ--><!--link APP_HOOYAQ to APP_PDJI8F--><!--link FNC_DrKMhV to FNC_hbgFU3--><!--link FNC_DrKMhV to FNC_hbgFU3--><g class="link" data-entity-1="ent0012" data-entity-2="ent0013" data-link-type="dependency" data-source-line="148" id="lnk32"><path d="M433,297.5469 C433,319.9369 433,348.9869 433,371.2869" fill="none" id="FNC_DrKMhV-to-FNC_hbgFU3" style="stroke:#181818;stroke-width:1;"/><polygon fill="#181818" points="433,377.2869,437,368.2869,433,372.2869,429,368.2869,433,377.2869" style="stroke:#181818;stroke-width:1;"/></g><!--link FNC_hbgFU3 to FNC_g3H3mK--><!--link FNC_hbgFU3 to FNC_g3H3mK--><g class="link" data-entity-1="ent0013" data-entity-2="ent0014" data-link-type="dependency" data-source-line="149" id="lnk33"><path d="M433,419.5469 C433,441.9369 433,470.9869 433,493.2869" fill="none" id="FNC_hbgFU3-to-FNC_g3H3mK" style="stroke:#181818;stroke-width:1;"/><polygon fill="#181818" points="433,499.2869,437,490.2869,433,494.2869,429,490.2869,433,499.2869" style="stroke:#181818;stroke-width:1;"/></g><!--link FNC_g3H3mK to FNC_6PI0kV--><!--link FNC_g3H3mK to FNC_6PI0kV--><g class="link" data-entity-1="ent0014" data-entity-2="ent0015" data-link-type="dependency" data-source-line="150" id="lnk34"><path d="M431.5,541.5469 C431.5,563.9369 431.5,592.9869 431.5,615.2869" fill="none" id="FNC_g3H3mK-to-FNC_6PI0kV" style="stroke:#181818;stroke-width:1;"/><polygon fill="#181818" points="431.5,621.2869,435.5,612.2869,431.5,616.2869,427.5,612.2869,431.5,621.2869" style="stroke:#181818;stroke-width:1;"/></g><!--link FNC_6PI0kV to FNC_tRAV0x--><!--link FNC_6PI0kV to FNC_tRAV0x--><g class="link" data-entity-1="ent0015" data-entity-2="ent0016" data-link-type="dependency" data-source-line="151" id="lnk35"><path d="M431.5,663.5469 C431.5,685.9369 431.5,714.9869 431.5,737.2869" fill="none" id="FNC_6PI0kV-to-FNC_tRAV0x" style="stroke:#181818;stroke-width:1;"/><polygon fill="#181818" points="431.5,743.2869,435.5,734.2869,431.5,738.2869,427.5,734.2869,431.5,743.2869" style="stroke:#181818;stroke-width:1;"/></g><!--link PRC_gtgYvQ to DOB_hExrX3--><!--link DOB_hExrX3 to DOB_hhYsiw--><!--link DOB_hhYsiw to EVT_BKj6NZ--><!--link APP_PDJI8F to PRC_gtgYvQ--><!--link APP_PDJI8F to PRC_gtgYvQ--><g class="link" data-entity-1="ent0006" data-entity-2="ent0011" data-link-type="dependency" data-source-line="145" id="lnk31"><path d="M745.67,118.5469 C745.67,151.2869 745.67,210.2969 745.67,210.2969 C745.67,210.2969 697.545,210.2969 649.42,210.2969 C625.3575,210.2969 601.295,210.2969 583.2481,210.2969 C582.9661,210.2969 588.6856,210.2969 588.4066,210.2969" fill="none" id="APP_PDJI8F-to-PRC_gtgYvQ" style="stroke:#181818;stroke-width:1;"/><polygon fill="#181818" points="582.4066,210.2969,591.4066,214.2969,587.4066,210.2969,591.4066,206.2969,582.4066,210.2969" style="stroke:#181818;stroke-width:1;"/></g><!--link APP_5n_KQJ to PRC_gtgYvQ--><g class="link" data-entity-1="ent0003" data-entity-2="ent0011" data-link-type="extension" data-source-line="140" id="lnk28"><path d="M102,118.4969 C102,138.1269 102,164.2969 102,164.2969 C102,164.2969 533.33,164.2969 533.33,164.2969 C533.33,164.2969 533.33,171.3594 533.33,181.9531 C533.33,187.25 533.33,193.4297 533.33,200.0508 C533.33,201.7061 533.33,203.3889 533.33,205.0925 C533.33,205.3054 533.33,187.5187 533.33,187.7323" fill="none" id="APP_5n_KQJ-to-PRC_gtgYvQ" style="stroke:#181818;stroke-width:1;stroke-dasharray:7,7;"/><polygon fill="none" points="533.33,205.7323,539.33,187.7323,527.33,187.7323,533.33,205.7323" style="stroke:#181818;stroke-width:1;"/></g><!--link APP_WK_78v to PRC_gtgYvQ--><g class="link" data-entity-1="ent0004" data-entity-2="ent0011" data-link-type="extension" data-source-line="141" id="lnk29"><path d="M258.25,118.3269 C258.25,137.6419 258.25,168.61 258.25,204.1975 C258.25,204.7536 258.25,187.3107 258.25,187.869" fill="none" id="APP_WK_78v-to-PRC_gtgYvQ" style="stroke:#181818;stroke-width:1;stroke-dasharray:7,7;"/><polygon fill="none" points="258.25,205.869,264.25,187.869,252.25,187.869,258.25,205.869" style="stroke:#181818;stroke-width:1;"/></g><!--link APP_HOOYAQ to PRC_gtgYvQ--><g class="link" data-entity-1="ent0005" data-entity-2="ent0011" data-link-type="dependency" data-source-line="144" id="lnk30"><path d="M574,118.5369 C574,129.8344 574,144.705 574,160.8045 C574,168.8543 574,177.2113 574,185.5825 C574,189.7681 574,193.9572 574,198.1133 C574,200.1913 574,202.2611 574,204.318 C574,204.8322 574,199.3457 574,199.8582" fill="none" id="APP_HOOYAQ-to-PRC_gtgYvQ" style="stroke:#181818;stroke-width:1;"/><polygon fill="#181818" points="574,205.8582,578,196.8582,574,200.8582,570,196.8582,574,205.8582" style="stroke:#181818;stroke-width:1;"/></g><!--link FNC_tRAV0x to EVT_BKj6NZ--><g class="link" data-entity-1="ent0016" data-entity-2="ent0023" data-link-type="dependency" data-source-line="152" id="lnk36"><path d="M456.5,785.5469 C456.5,807.9369 456.5,836.9869 456.5,859.2869" fill="none" id="FNC_tRAV0x-to-EVT_BKj6NZ" style="stroke:#181818;stroke-width:1;"/><polygon fill="#181818" points="456.5,865.2869,460.5,856.2869,456.5,860.2869,452.5,856.2869,456.5,865.2869" style="stroke:#181818;stroke-width:1;"/></g><!--link FNC_DrKMhV to DOB_hExrX3--><g class="link" data-entity-1="ent0012" data-entity-2="ent0021" data-link-type="dependency" data-source-line="155" id="lnk37"><path d="M511.17,297.5469 C511.17,332.4969 511.17,398.2969 511.17,398.2969 C511.17,398.2969 554.09,398.2969 599.58,398.2969" fill="none" id="FNC_DrKMhV-to-DOB_hExrX3" style="stroke:#181818;stroke-width:1;stroke-dasharray:7,7;"/><polygon fill="#181818" points="605.58,398.2969,596.58,394.2969,600.58,398.2969,596.58,402.2969,605.58,398.2969" style="stroke:#181818;stroke-width:1;"/></g><!--link FNC_hbgFU3 to DOB_hhYsiw--><g class="link" data-entity-1="ent0013" data-entity-2="ent0022" data-link-type="dependency" data-source-line="156" id="lnk38"><path d="M501.28,409.2969 C506.02,409.2969 508.83,409.2969 508.83,409.2969 C508.83,409.2969 508.83,520.2969 508.83,520.2969 C508.83,520.2969 553.18,520.2969 599.89,520.2969" fill="none" id="FNC_hbgFU3-to-DOB_hhYsiw" style="stroke:#181818;stroke-width:1;stroke-dasharray:7,7;"/><polygon fill="#181818" points="605.89,520.2969,596.89,516.2969,600.89,520.2969,596.89,524.2969,605.89,520.2969" style="stroke:#181818;stroke-width:1;"/></g><?plantuml-src xLXjKziu4FwUNx7dtinTPs9ZEwyma9aGaeFI0arRUhsR6u-m5Tl5iNooaa1x_FUJ72ToWXrYo4S6c21fTv_TPxKRIPxlO8WPffYm-mXNAl6j7qQ8eZ4uU8Gc0HkGa5sWCGRb50TJp7mRmGMUu2einrNeKXy5LOXH6Ainflv8oJVqoV-1mJ0pYx6773BpGnT6A8XnPeMIIUZOX8QOGZqpVuFiMpTPx960K7Wpw8gVhEk17s8H3X3AF99P28c3Onn1Kyy2eV1MJBRroY_SLwuBGnnOdwdlkZoMqFrzHCcu2enK8K0tE7WBOW9KjSFdLdI660N-3yHy4XOeQTf_cxIiBr49nK-OJalvrurZOlkR_5FL3JhMUpnYpr8S-gvNGjEsSHmN4l4ehBDm54nmQEFDAfcKOvkXq0tmuM4tYWA-XuMNV_1T5N4-EntuMG4uNjze_VQWFHY85K8TJDDPNM-rkthb8TzyZup7MrW-wRVxnhhbTg_LRtQBB2Ffk6MJSKH27B8YW5vlO9PrtK4CMUJcEv_PfLaytU1dNpzfzthbY1XDGbkmi4kR4ILY2pxJfFVQLL-xwcjNVUsghrrrXrqrZgZFCFoAgEtvOyImbPiiE8odBjoDWp0-KZp6eeEzlTbifirg6g7kdgdh-XwNK63guzankJjITD31QF9VfNCO8UQ1SwHyg4DTCxsMLf-sjEPf_OS2CFA3u4XvOpRCcjbIU8Edv1OVAI67LVOoggPMqxdsViCpj9O-DVZmLCnn6wic7Ycrj5fvfNsjLKh9CBJwqhzwgfLCRg6MUbXMBVNnIJMHcKvEfZDLiwFyrZHTXvhMrZr3v__E_HAJ6wD9jBZ2_ZFK6fgXJni98bUw5iEdc6kLrqgWvibzsi4YkfDkiZEY3QXx3Qs9EDk2SKZ4-5-R-sK4fcQesvHNaQ-BHhKZTqrj7mJpdEdwU-6l4N3EWLVLjAdL-Co-Phx0sxG5xipP9i-ruN7Fhasj7TIr1jymfff-JbMUVTuGcbixp4Z4lzFXXZ36l-4TNpHlpcsbmdmMOEZVONl20_h4a8iTE9u4jt0POOhcGijM3qhc0A30flD0HkVmgTR-CxPHW8yChV7GcOD_JVWzHQ4JO2g0Yhw_KGpTgokh4Lhd7z-z6FO41xWKxjTpgzMUlWWNCTk3p_nO7QFvVl-0Gfw5RT1FBo-_TJ--17sPP7uoT7s-T-wtWBqwUNVM5kSOoJoeV_FBaOF3VwWukwghvCX1hjmo33d8bKjn7rOsvDMyy8JRkQV70chIUbqXOsCL201vpk5CN0rxbilSRzEF2KuXqgAFhK0DSKpuVJ33_vc3ET6CdykJ56IEQHnhSD6pJkZv1--wD5AFOfJ69EwDGnoHs6U45g1uD-xWIwqqYkW3zpAQM3IR538VnwsTriRdfN6knNNvVf6Xfu9fNftfjy-WZEyZdsqBmeRTQ_qk0P5fUhH_rxYLmrp933joc2kP2L4ESoMNVZuKLqNcE5RO9cn-Y1TCh5vuE1adbyUMrx-ZVzRA0-HodO_WVOlzMJ52SiJPR3jDCCD978iR5hVVl_vi7Pz_RrxynUrdwdkTpfL8vI1VRk6l73oIo-3ovlORd8KCKpL0zvW22csFq8hiVrBR8RDGpVWfL3El8mUmxDqng1r8krTb_Ub5Tl5gnbWL5ELjhkoyap-MvUZf4yi1n9Ce8fI9ZbFinE91HhRzV0UoSdCESi7b4zG1B0-FCVutUUkeh3rIoLAjPefHOgw9BfPbDHQABfPbEHQABfPbUHQABfRbLbd6FN__aJ4dF8lQWNdjpCbENucoSSkTAs4pOekOvSQTY_qF?></g></svg>