<svg xmlns="http://www.w3.org/2000/svg" xmlns:xlink="http://www.w3.org/1999/xlink" contentStyleType="text/css" data-diagram-type="DESCRIPTION" height="392px" preserveAspectRatio="none" style="width:2912px;height:392px;background:#FAFAFA;" version="1.1" viewBox="0 0 2912 392" width="2912px" zoomAndPan="magnify"><?plantuml 1.2026.3?><defs/><g><rect fill="#FAFAFA" height="392" style="stroke:none;stroke-width:1;" width="2912" x="0" y="0"/><g class="title" data-source-line="87"><text fill="#000000" font-family="'Helvetica Neue, Helvetica, Arial, sans-serif'" font-size="14" font-weight="700" lengthAdjust="spacing" textLength="278.9746" x="1313.0127" y="22.9951">Assurance Application Architecture</text></g><!--cluster Common--><g class="cluster" data-qualified-name="Common" data-source-line="89" id="ent0002"><rect fill="#EDE8E1" height="90" rx="2" ry="2" style="stroke:#8C7E6A;stroke-width:1;" width="2393" x="505" y="44.2969"/><text fill="#000000" font-family="'Helvetica Neue, Helvetica, Arial, sans-serif'" font-size="12" font-weight="700" lengthAdjust="spacing" textLength="58.8457" x="1672.0771" y="57.4355">Common</text></g><!--cluster Application--><g class="cluster" data-qualified-name="Application" data-source-line="100" id="ent0011"><rect fill="#E8F8FF" height="212" rx="2" ry="2" style="stroke:#0078A0;stroke-width:1;" width="1122" x="7" y="166.2969"/><text fill="#000000" font-family="'Helvetica Neue, Helvetica, Arial, sans-serif'" font-size="12" font-weight="700" lengthAdjust="spacing" textLength="76.541" x="529.7295" y="179.4355">Application</text></g><!--entity SRV_ooK3YN--><g class="entity" data-qualified-name="Common.SRV_ooK3YN" data-source-line="90" id="ent0003"><rect fill="#E0D8CC" height="42.1538" rx="2" ry="2" style="stroke:#8C7E6A;stroke-width:0.5;" width="156.3238" x="521" y="76.2969"/><path d="M535.4308,91.9738 L545.4,91.9738 A3.8769,3.8769 0 0 1 545.4,102.7738 L535.4308,102.7738 A3.8769,3.8769 0 0 1 535.4308,91.9738" fill="#252327" style="stroke:none;stroke-width:0.5;"/><text fill="#000000" font-family="'Helvetica Neue, Helvetica, Arial, sans-serif'" font-size="12" lengthAdjust="spacing" textLength="110.3555" x="556.9683" y="105.6206">Assurance Service</text></g><!--entity FNC_snlj8X--><g class="entity" data-qualified-name="Common.FNC_snlj8X" data-source-line="91" id="ent0004"><rect fill="#E0D8CC" height="42.1538" rx="2" ry="2" style="stroke:#8C7E6A;stroke-width:0.5;" width="206.5035" x="737.5" y="76.2969"/><path d="M751.5154,102.4969 L751.5154,93.7738 L758.5769,90.5892 L765.6385,93.7738 L765.6385,102.4969 L758.5769,99.0353" fill="#252327" style="stroke:none;stroke-width:0.5;"/><text fill="#000000" font-family="'Helvetica Neue, Helvetica, Arial, sans-serif'" font-size="12" lengthAdjust="spacing" textLength="160.5352" x="773.4683" y="105.6206">Author Assurance Artifacts</text></g><!--entity FNC_n_UPxk--><g class="entity" data-qualified-name="Common.FNC_n_UPxk" data-source-line="92" id="ent0005"><rect fill="#E0D8CC" height="42.1538" rx="2" ry="2" style="stroke:#8C7E6A;stroke-width:0.5;" width="210.7574" x="1004.5" y="76.2969"/><path d="M1018.5154,102.4969 L1018.5154,93.7738 L1025.5769,90.5892 L1032.6385,93.7738 L1032.6385,102.4969 L1025.5769,99.0353" fill="#252327" style="stroke:none;stroke-width:0.5;"/><text fill="#000000" font-family="'Helvetica Neue, Helvetica, Arial, sans-serif'" font-size="12" lengthAdjust="spacing" textLength="164.7891" x="1040.4683" y="105.6206">Verify Assurance Invariants</text></g><!--entity FNC_elLBp7--><g class="entity" data-qualified-name="Common.FNC_elLBp7" data-source-line="93" id="ent0006"><rect fill="#E0D8CC" height="42.1538" rx="2" ry="2" style="stroke:#8C7E6A;stroke-width:0.5;" width="274.0738" x="1276" y="76.2969"/><path d="M1290.0154,102.4969 L1290.0154,93.7738 L1297.0769,90.5892 L1304.1385,93.7738 L1304.1385,102.4969 L1297.0769,99.0353" fill="#252327" style="stroke:none;stroke-width:0.5;"/><text fill="#000000" font-family="'Helvetica Neue, Helvetica, Arial, sans-serif'" font-size="12" lengthAdjust="spacing" textLength="228.1055" x="1311.9683" y="105.6206">Guide Assurance Method &amp; Standards</text></g><!--entity FNC_9JjZ3X--><g class="entity" data-qualified-name="Common.FNC_9JjZ3X" data-source-line="94" id="ent0007"><rect fill="#E0D8CC" height="42.1538" rx="2" ry="2" style="stroke:#8C7E6A;stroke-width:0.5;" width="184.4195" x="1610" y="76.2969"/><path d="M1624.0154,102.4969 L1624.0154,93.7738 L1631.0769,90.5892 L1638.1385,93.7738 L1638.1385,102.4969 L1631.0769,99.0353" fill="#252327" style="stroke:none;stroke-width:0.5;"/><text fill="#000000" font-family="'Helvetica Neue, Helvetica, Arial, sans-serif'" font-size="12" lengthAdjust="spacing" textLength="138.4512" x="1645.9683" y="105.6206">Surface Modeling Gaps</text></g><!--entity FNC_z9Ac33--><g class="entity" data-qualified-name="Common.FNC_z9Ac33" data-source-line="95" id="ent0008"><rect fill="#E0D8CC" height="42.1538" rx="2" ry="2" style="stroke:#8C7E6A;stroke-width:0.5;" width="368.0874" x="1854" y="76.2969"/><path d="M1868.0154,102.4969 L1868.0154,93.7738 L1875.0769,90.5892 L1882.1385,93.7738 L1882.1385,102.4969 L1875.0769,99.0353" fill="#252327" style="stroke:none;stroke-width:0.5;"/><text fill="#000000" font-family="'Helvetica Neue, Helvetica, Arial, sans-serif'" font-size="12" lengthAdjust="spacing" textLength="322.1191" x="1889.9683" y="105.6206">Record &amp; Retain Tamper-Evident Assurance Evidence</text></g><!--entity FNC_0hyhf0--><g class="entity" data-qualified-name="Common.FNC_0hyhf0" data-source-line="96" id="ent0009"><rect fill="#E0D8CC" height="42.1538" rx="2" ry="2" style="stroke:#8C7E6A;stroke-width:0.5;" width="288.2124" x="2282" y="76.2969"/><path d="M2296.0154,102.4969 L2296.0154,93.7738 L2303.0769,90.5892 L2310.1385,93.7738 L2310.1385,102.4969 L2303.0769,99.0353" fill="#252327" style="stroke:none;stroke-width:0.5;"/><text fill="#000000" font-family="'Helvetica Neue, Helvetica, Arial, sans-serif'" font-size="12" lengthAdjust="spacing" textLength="242.2441" x="2317.9683" y="105.6206">Ingest &amp; Reconcile Supply-Chain Signals</text></g><!--entity FNC_3xVBUQ--><g class="entity" data-qualified-name="Common.FNC_3xVBUQ" data-source-line="97" id="ent0010"><rect fill="#E0D8CC" height="42.1538" rx="2" ry="2" style="stroke:#8C7E6A;stroke-width:0.5;" width="251.8902" x="2630" y="76.2969"/><path d="M2644.0154,102.4969 L2644.0154,93.7738 L2651.0769,90.5892 L2658.1385,93.7738 L2658.1385,102.4969 L2651.0769,99.0353" fill="#252327" style="stroke:none;stroke-width:0.5;"/><text fill="#000000" font-family="'Helvetica Neue, Helvetica, Arial, sans-serif'" font-size="12" lengthAdjust="spacing" textLength="205.9219" x="2665.9683" y="105.6206">Manage Assurance Store Lifecycle</text></g><!--entity APP_m_U5S1--><g class="entity" data-qualified-name="Application.APP_m_U5S1" data-source-line="101" id="ent0012"><rect fill="#CCF2FF" height="42.1538" rx="2" ry="2" style="stroke:#0078A0;stroke-width:0.5;" width="181.1089" x="737.5" y="198.2969"/><path d="M753.0385,214.1123 L763.2846,214.1123 L763.2846,224.6353 L753.0385,224.6353" fill="#252327" style="stroke:none;stroke-width:0.5;"/><path d="M750.6846,215.1507 L753.0385,215.1507 L753.0385,216.9507 L750.6846,216.9507" fill="#252327"/><path d="M750.6846,218.4738 L753.0385,218.4738 L753.0385,220.2738 L750.6846,220.2738" fill="#252327"/><path d="M750.6846,221.7969 L753.0385,221.7969 L753.0385,223.5969 L750.6846,223.5969" fill="#252327"/><path d="M763.2846,215.1507 L765.2231,215.1507 L765.2231,216.9507 L763.2846,216.9507" fill="#252327"/><path d="M763.2846,218.4738 L765.2231,218.4738 L765.2231,220.2738 L763.2846,220.2738" fill="#252327"/><path d="M763.2846,221.7969 L765.2231,221.7969 L765.2231,223.5969 L763.2846,223.5969" fill="#252327"/><text fill="#000000" font-family="'Helvetica Neue, Helvetica, Arial, sans-serif'" font-size="12" lengthAdjust="spacing" textLength="135.1406" x="773.4683" y="227.6206">Assurance MCP Server</text></g><!--entity APP_E0fzqZ--><g class="entity" data-qualified-name="Application.APP_E0fzqZ" data-source-line="102" id="ent0013"><rect fill="#CCF2FF" height="42.1538" rx="2" ry="2" style="stroke:#0078A0;stroke-width:0.5;" width="219.9859" x="241" y="198.2969"/><path d="M256.5385,214.1123 L266.7846,214.1123 L266.7846,224.6353 L256.5385,224.6353" fill="#252327" style="stroke:none;stroke-width:0.5;"/><path d="M254.1846,215.1507 L256.5385,215.1507 L256.5385,216.9507 L254.1846,216.9507" fill="#252327"/><path d="M254.1846,218.4738 L256.5385,218.4738 L256.5385,220.2738 L254.1846,220.2738" fill="#252327"/><path d="M254.1846,221.7969 L256.5385,221.7969 L256.5385,223.5969 L254.1846,223.5969" fill="#252327"/><path d="M266.7846,215.1507 L268.7231,215.1507 L268.7231,216.9507 L266.7846,216.9507" fill="#252327"/><path d="M266.7846,218.4738 L268.7231,218.4738 L268.7231,220.2738 L266.7846,220.2738" fill="#252327"/><path d="M266.7846,221.7969 L268.7231,221.7969 L268.7231,223.5969 L266.7846,223.5969" fill="#252327"/><text fill="#000000" font-family="'Helvetica Neue, Helvetica, Arial, sans-serif'" font-size="12" lengthAdjust="spacing" textLength="174.0176" x="276.9683" y="227.6206">Confidential Assurance Store</text></g><!--entity APP_GnsLC8--><g class="entity" data-qualified-name="Application.APP_GnsLC8" data-source-line="103" id="ent0014"><rect fill="#CCF2FF" height="42.1538" rx="2" ry="2" style="stroke:#0078A0;stroke-width:0.5;" width="157.1382" x="23.5" y="198.2969"/><path d="M39.0385,214.1123 L49.2846,214.1123 L49.2846,224.6353 L39.0385,224.6353" fill="#252327" style="stroke:none;stroke-width:0.5;"/><path d="M36.6846,215.1507 L39.0385,215.1507 L39.0385,216.9507 L36.6846,216.9507" fill="#252327"/><path d="M36.6846,218.4738 L39.0385,218.4738 L39.0385,220.2738 L36.6846,220.2738" fill="#252327"/><path d="M36.6846,221.7969 L39.0385,221.7969 L39.0385,223.5969 L36.6846,223.5969" fill="#252327"/><path d="M49.2846,215.1507 L51.2231,215.1507 L51.2231,216.9507 L49.2846,216.9507" fill="#252327"/><path d="M49.2846,218.4738 L51.2231,218.4738 L51.2231,220.2738 L49.2846,220.2738" fill="#252327"/><path d="M49.2846,221.7969 L51.2231,221.7969 L51.2231,223.5969 L49.2846,223.5969" fill="#252327"/><text fill="#000000" font-family="'Helvetica Neue, Helvetica, Arial, sans-serif'" font-size="12" lengthAdjust="spacing" textLength="111.1699" x="59.4683" y="227.6206">Assurance Archive</text></g><!--entity APP_XFD85E--><g class="entity" data-qualified-name="Application.APP_XFD85E" data-source-line="104" id="ent0015"><rect fill="#CCF2FF" height="42.1538" rx="2" ry="2" style="stroke:#0078A0;stroke-width:0.5;" width="155.7085" x="521" y="198.2969"/><path d="M536.5385,214.1123 L546.7846,214.1123 L546.7846,224.6353 L536.5385,224.6353" fill="#252327" style="stroke:none;stroke-width:0.5;"/><path d="M534.1846,215.1507 L536.5385,215.1507 L536.5385,216.9507 L534.1846,216.9507" fill="#252327"/><path d="M534.1846,218.4738 L536.5385,218.4738 L536.5385,220.2738 L534.1846,220.2738" fill="#252327"/><path d="M534.1846,221.7969 L536.5385,221.7969 L536.5385,223.5969 L534.1846,223.5969" fill="#252327"/><path d="M546.7846,215.1507 L548.7231,215.1507 L548.7231,216.9507 L546.7846,216.9507" fill="#252327"/><path d="M546.7846,218.4738 L548.7231,218.4738 L548.7231,220.2738 L546.7846,220.2738" fill="#252327"/><path d="M546.7846,221.7969 L548.7231,221.7969 L548.7231,223.5969 L546.7846,223.5969" fill="#252327"/><text fill="#000000" font-family="'Helvetica Neue, Helvetica, Arial, sans-serif'" font-size="12" lengthAdjust="spacing" textLength="109.7402" x="556.9683" y="227.6206">Assurance Verifier</text></g><!--entity APP_e2zPs6--><g class="entity" data-qualified-name="Application.APP_e2zPs6" data-source-line="105" id="ent0016"><rect fill="#CCF2FF" height="42.1538" rx="2" ry="2" style="stroke:#0078A0;stroke-width:0.5;" width="284.0113" x="295" y="320.2969"/><path d="M310.5385,336.1123 L320.7846,336.1123 L320.7846,346.6353 L310.5385,346.6353" fill="#252327" style="stroke:none;stroke-width:0.5;"/><path d="M308.1846,337.1507 L310.5385,337.1507 L310.5385,338.9507 L308.1846,338.9507" fill="#252327"/><path d="M308.1846,340.4738 L310.5385,340.4738 L310.5385,342.2738 L308.1846,342.2738" fill="#252327"/><path d="M308.1846,343.7969 L310.5385,343.7969 L310.5385,345.5969 L308.1846,345.5969" fill="#252327"/><path d="M320.7846,337.1507 L322.7231,337.1507 L322.7231,338.9507 L320.7846,338.9507" fill="#252327"/><path d="M320.7846,340.4738 L322.7231,340.4738 L322.7231,342.2738 L320.7846,342.2738" fill="#252327"/><path d="M320.7846,343.7969 L322.7231,343.7969 L322.7231,345.5969 L320.7846,345.5969" fill="#252327"/><text fill="#000000" font-family="'Helvetica Neue, Helvetica, Arial, sans-serif'" font-size="12" lengthAdjust="spacing" textLength="238.043" x="330.9683" y="349.6206">Supply-Chain &amp; Vulnerability Connector</text></g><!--entity AIF_cdcRZG--><g class="entity" data-qualified-name="Application.AIF_cdcRZG" data-source-line="106" id="ent0017"><rect fill="#CCF2FF" height="42.1538" rx="2" ry="2" style="stroke:#0078A0;stroke-width:0.5;" width="195.482" x="639.5" y="320.2969"/><path d="M653.3769,340.4738 L658.3615,340.4738 L658.3615,342.2738 L653.3769,342.2738" fill="#252327"/><ellipse cx="662.7923" cy="341.3738" fill="none" rx="4.7077" ry="4.7077" style="stroke:#252327;stroke-width:1.8;"/><text fill="#000000" font-family="'Helvetica Neue, Helvetica, Arial, sans-serif'" font-size="12" lengthAdjust="spacing" textLength="149.5137" x="675.4683" y="349.6206">Assurance MCP Interface</text></g><!--entity DOB_ApaPcg--><g class="entity" data-qualified-name="Application.DOB_ApaPcg" data-source-line="107" id="ent0018"><rect fill="#CCF2FF" height="42.1538" rx="2" ry="2" style="stroke:#0078A0;stroke-width:0.5;" width="210.9742" x="23.5" y="320.2969"/><path d="M37.6538,335.5584 L51.5,335.5584 L51.5,337.3584 L37.6538,337.3584" fill="#252327"/><path d="M37.6538,345.3892 L51.5,345.3892 L51.5,347.1892 L37.6538,347.1892" fill="#252327"/><path d="M37.6538,337.3584 L37.6538,345.3892 L39.4538,345.3892 L39.4538,337.3584" fill="#252327"/><path d="M49.7,337.3584 L49.7,345.3892 L51.5,345.3892 L51.5,337.3584" fill="#252327"/><path d="M37.6538,337.1507 L51.5,337.1507 L51.5,338.9507 L37.6538,338.9507" fill="#252327"/><text fill="#000000" font-family="'Helvetica Neue, Helvetica, Arial, sans-serif'" font-size="12" lengthAdjust="spacing" textLength="165.0059" x="59.4683" y="349.6206">Assurance Knowledge Base</text></g><!--entity DOB_NtsoOS--><g class="entity" data-qualified-name="Application.DOB_NtsoOS" data-source-line="108" id="ent0019"><rect fill="#CCF2FF" height="42.1538" rx="2" ry="2" style="stroke:#0078A0;stroke-width:0.5;" width="217.5894" x="895" y="320.2969"/><path d="M909.1538,335.5584 L923,335.5584 L923,337.3584 L909.1538,337.3584" fill="#252327"/><path d="M909.1538,345.3892 L923,345.3892 L923,347.1892 L909.1538,347.1892" fill="#252327"/><path d="M909.1538,337.3584 L909.1538,345.3892 L910.9538,345.3892 L910.9538,337.3584" fill="#252327"/><path d="M921.2,337.3584 L921.2,345.3892 L923,345.3892 L923,337.3584" fill="#252327"/><path d="M909.1538,337.1507 L923,337.1507 L923,338.9507 L909.1538,338.9507" fill="#252327"/><text fill="#000000" font-family="'Helvetica Neue, Helvetica, Arial, sans-serif'" font-size="12" lengthAdjust="spacing" textLength="171.6211" x="930.9683" y="349.6206">Assurance Method Guidance</text></g><!--link SRV_ooK3YN to FNC_snlj8X--><!--link FNC_snlj8X to FNC_n_UPxk--><!--link FNC_n_UPxk to FNC_elLBp7--><!--link FNC_elLBp7 to FNC_9JjZ3X--><!--link FNC_9JjZ3X to FNC_z9Ac33--><!--link FNC_z9Ac33 to FNC_0hyhf0--><!--link FNC_0hyhf0 to FNC_3xVBUQ--><!--link APP_m_U5S1 to APP_E0fzqZ--><!--link APP_E0fzqZ to APP_GnsLC8--><!--link APP_GnsLC8 to APP_XFD85E--><!--link APP_XFD85E to APP_e2zPs6--><!--link APP_e2zPs6 to AIF_cdcRZG--><!--link AIF_cdcRZG to DOB_ApaPcg--><!--link DOB_ApaPcg to DOB_NtsoOS--><!--link APP_m_U5S1 to AIF_cdcRZG--><g class="link" data-entity-1="ent0012" data-entity-2="ent0017" data-link-type="dependency" data-source-line="129" id="lnk34"><path d="M810.25,240.5469 C810.25,262.9369 810.25,291.9869 810.25,314.2869" fill="none" id="APP_m_U5S1-to-AIF_cdcRZG" style="stroke:#181818;stroke-width:1;"/><polygon fill="#181818" points="810.25,320.2869,814.25,311.2869,810.25,315.2869,806.25,311.2869,810.25,320.2869" style="stroke:#181818;stroke-width:1;"/></g><!--link SRV_ooK3YN to AIF_cdcRZG--><g class="link" data-entity-1="ent0003" data-entity-2="ent0017" data-link-type="dependency" data-source-line="130" id="lnk35"><path d="M677.3,108.2969 C688.96,108.2969 697.17,108.2969 697.17,108.2969 C697.17,108.2969 697.17,256.8569 697.17,314.2069" fill="none" id="SRV_ooK3YN-to-AIF_cdcRZG" style="stroke:#181818;stroke-width:1;"/><polygon fill="#181818" points="697.17,320.2069,701.17,311.2069,697.17,315.2069,693.17,311.2069,697.17,320.2069" style="stroke:#181818;stroke-width:1;"/></g><!--link APP_m_U5S1 to DOB_ApaPcg--><g class="link" data-entity-1="ent0012" data-entity-2="ent0018" data-link-type="dependency" data-source-line="131" id="lnk36"><path d="M786,240.4969 C786,260.1269 786,286.2969 786,286.2969 C786,286.2969 212.9,286.2969 212.9,286.2969 C212.9,286.2969 212.9,298.6769 212.9,314.1869" fill="none" id="APP_m_U5S1-to-DOB_ApaPcg" style="stroke:#181818;stroke-width:1;"/><polygon fill="#181818" points="212.9,320.1869,216.9,311.1869,212.9,315.1869,208.9,311.1869,212.9,320.1869" style="stroke:#181818;stroke-width:1;"/></g><!--reverse link SRV_ooK3YN to APP_m_U5S1--><g class="link" data-entity-1="ent0003" data-entity-2="ent0012" data-link-type="extension" data-source-line="132" id="lnk38"><path d="M695.27,97.2969 C717.28,97.2969 717.33,97.2969 717.33,97.2969 C717.33,97.2969 717.33,219.2969 717.33,219.2969 C717.33,219.2969 725.49,219.2969 737.37,219.2969" fill="none" id="SRV_ooK3YN-backto-APP_m_U5S1" style="stroke:#181818;stroke-width:1;stroke-dasharray:7,7;"/><polygon fill="none" points="677.27,97.2969,695.27,103.2969,695.27,91.2969,677.27,97.2969" style="stroke:#181818;stroke-width:1;"/></g><!--link APP_E0fzqZ to DOB_ApaPcg--><g class="link" data-entity-1="ent0013" data-entity-2="ent0018" data-link-type="dependency" data-source-line="133" id="lnk39"><path d="M268,240.5469 C268,275.4969 268,341.2969 268,341.2969 C268,341.2969 259.91,341.2969 240.71,341.2969" fill="none" id="APP_E0fzqZ-to-DOB_ApaPcg" style="stroke:#181818;stroke-width:1;"/><polygon fill="#181818" points="234.71,341.2969,243.71,345.2969,239.71,341.2969,243.71,337.2969,234.71,341.2969" style="stroke:#181818;stroke-width:1;"/></g><!--reverse link SRV_ooK3YN to APP_E0fzqZ--><g class="link" data-entity-1="ent0003" data-entity-2="ent0013" data-link-type="extension" data-source-line="134" id="lnk41"><path d="M502.87,108.2969 C430.18,108.2969 351,108.2969 351,108.2969 C351,108.2969 351,165.9469 351,198.1569" fill="none" id="SRV_ooK3YN-backto-APP_E0fzqZ" style="stroke:#181818;stroke-width:1;stroke-dasharray:7,7;"/><polygon fill="none" points="520.87,108.2969,502.87,102.2969,502.87,114.2969,520.87,108.2969" style="stroke:#181818;stroke-width:1;"/></g><!--reverse link SRV_ooK3YN to APP_GnsLC8--><g class="link" data-entity-1="ent0003" data-entity-2="ent0014" data-link-type="extension" data-source-line="135" id="lnk43"><path d="M502.8,87.2969 C362.83,87.2969 102,87.2969 102,87.2969 C102,87.2969 102,160.7769 102,198.0869" fill="none" id="SRV_ooK3YN-backto-APP_GnsLC8" style="stroke:#181818;stroke-width:1;stroke-dasharray:7,7;"/><polygon fill="none" points="520.8,87.2969,502.8,81.2969,502.8,93.2969,520.8,87.2969" style="stroke:#181818;stroke-width:1;"/></g><!--link APP_XFD85E to DOB_ApaPcg--><g class="link" data-entity-1="ent0015" data-entity-2="ent0018" data-link-type="dependency" data-source-line="136" id="lnk44"><path d="M550,240.5269 C550,251.7769 550,263.2969 550,263.2969 C550,263.2969 202.1,263.2969 202.1,263.2969 C202.1,263.2969 202.1,290.8869 202.1,313.9869" fill="none" id="APP_XFD85E-to-DOB_ApaPcg" style="stroke:#181818;stroke-width:1;"/><polygon fill="#181818" points="202.1,319.9869,206.1,310.9869,202.1,314.9869,198.1,310.9869,202.1,319.9869" style="stroke:#181818;stroke-width:1;"/></g><!--reverse link SRV_ooK3YN to APP_XFD85E--><g class="link" data-entity-1="ent0003" data-entity-2="ent0015" data-link-type="extension" data-source-line="137" id="lnk46"><path d="M599,136.5469 C599,158.9369 599,175.9869 599,198.2869" fill="none" id="SRV_ooK3YN-backto-APP_XFD85E" style="stroke:#181818;stroke-width:1;stroke-dasharray:7,7;"/><polygon fill="none" points="599,118.5469,593,136.5469,605,136.5469,599,118.5469" style="stroke:#181818;stroke-width:1;"/></g><!--reverse link SRV_ooK3YN to APP_e2zPs6--><g class="link" data-entity-1="ent0003" data-entity-2="ent0016" data-link-type="extension" data-source-line="138" id="lnk48"><path d="M502.8,97.2969 C485.91,97.2969 491,97.2969 491,97.2969 C491,97.2969 491,260.7069 491,320.0669" fill="none" id="SRV_ooK3YN-backto-APP_e2zPs6" style="stroke:#181818;stroke-width:1;stroke-dasharray:7,7;"/><polygon fill="none" points="520.8,97.2969,502.8,91.2969,502.8,103.2969,520.8,97.2969" style="stroke:#181818;stroke-width:1;"/></g><!--link FNC_elLBp7 to DOB_NtsoOS--><g class="link" data-entity-1="ent0006" data-entity-2="ent0019" data-link-type="dependency" data-source-line="139" id="lnk49"><path d="M1413,118.5269 C1413,177.8869 1413,341.2969 1413,341.2969 C1413,341.2969 1240.23,341.2969 1119.07,341.2969" fill="none" id="FNC_elLBp7-to-DOB_NtsoOS" style="stroke:#181818;stroke-width:1;"/><polygon fill="#181818" points="1113.07,341.2969,1122.07,345.2969,1118.07,341.2969,1122.07,337.2969,1113.07,341.2969" style="stroke:#181818;stroke-width:1;"/></g><?plantuml-src xLTjRzf84FxEhrYvfzwNulY55rC5948WoJL9S-4QzN8weOszu6tChckl8QJN_twpni5Bi1Eu8jsNggaqxCxCCpCxR_QfHr0iI4IuM8IaKedlAGjnXAV88sES16B0cRZ4KuAqKnBCYA0kHfSa8U_GwlSxr8qe3jwX6BEu6fE8ZhLYHKFwI91fAPUnZpq-fso2nZY8YN8JyOHvBeyOYL1DER_3xlqalUpnW4VepQ0h_wcc1vGHwGxYaV2vSi6uHs8IeeQX0c5sBm-TjKFY2imc0Jayx8PX05uAoja9u8PWRAU3lbKGEdfkIjyPE8E1lE6HHwBir32QJjUeV2zMt-FJwHQQZ_jEttoksUar-urkcMQS6pvo-JJaZ31H1j3h3QnTJLS1A8Ci6cENx1F0mmAF-DqNEDcdsd72N6bqQR2DOwVNsotOaFOpMkxzAoehWeT8S7J7XU1GCbHg1Wih_iy2_LcWFmlqVo_GE8oe8EWN7Ba-dM91HeMFXmxZsGGzJ0CMjpLVYF3zmS5yFjVdjiwZoO5b6CO1S6XeHidyY3-qDGCPo6p0dzOv3B7maTVMBcgefbj-Kw_DcdhZjFQe8JIcGT3MtbXroxQQ6hI4YD-JjiO0LZjGH2tTDa2wLVTDlMdCJFXvAiz0nxgA3Q6cRkykrDAREmcPfbvRsLVBfDB3BSGo2tSLosnyLKo-JEULbrvLqPvUsjATp2zRRwo2w1JQvzB83GXoGLTBRsZ8NRGrHqDHMxFrsYf5qenOvSUpXAdEgIVyjWOuBtcibFMU_BHrmq0sEEQR1f1BH-NXY--NIe50wp-8rNNJcDLJH12waJzVovNcxb8fr3ATNpUmBDnFxMvlETL2qXkmldRkGDJD0Fn0K9kpXcx3IKktjcWfPTPcZNHlYM51_4neTXQ6n4VoVyg8P5qu4CkDyogSRsr_HL01HTEDumJs231RsHPWBGAd16Hv4i5gjHeMI5lEV0sLJ7-5yt0pCjzY5mUaRUhrxnq5UBYybKhpMOHZDBo-6N7-mVxpibppKuQigqvWUOfKro91eJU9M68eCnH01fUzKSo2Byxd7K5kvBQuK43Es0p3DidAKDZeqzN3_Oue9udSStEG2mAkUUWj6e8A3qTU2HW9pe_2vevWmsJPmIzWsGpaPdk2mnBzhT--tDgxXkoQm5OiZRyc0bE6_i3Ja4JL_WnyX1KXzt9viao9JUp7LjUrxHsnpzY4n2B5TZbpAGWD4yZuHRNdIrk6TC9WZoz6DFo5FpPsHBp034_KjniA7X5qJiV4NS2yAeQo7swEFlqkltmKBAKqfLJvNbzYN-5ALbAD5xshj2999A7ADd6mjdjrDPgEFjM7vey0zpWRfyyFts7FOxM50NrZ_FZrTZ-UfqrljWtg2OlFUyv-KDC-GhUAzkV1iLFl_mZiMig_HJT901-f-8u6L2paKp1GpBSnXLYFLt5ZErDMg-4B6NVsnFCSM_qwazXdWv7hkTUt9-NOof9MWlY1yNb0FAZE8nodaElVQm1q_F5er0tnbJlv4Q2iNSikZhD-LeXqAMB-SIYh_bTKhLRb1EFL02zu8juZs3G8zX09o1JU84PpAdnulabM-h6KgEJ34bN_yga79VLtH2U-gAeZBYSBkR8HbPE5NDbioSb2hcn2v6GXLzRBSxAGA-k_ELd8bRNEl2zjS2aT8oSBkR8Apyb2hgmWSxAGAwkLdDpaohCw9pUub9JCoKAkB9raDcL53QKKhqMcsb5HrUpn-9ojtpwJK-nGRlGarF_fg4kR6k9DiUocM2oBUV7bKwWtTMOtnM9Px3SlrKJEd5U2-2y0?></g></svg>