<svg xmlns="http://www.w3.org/2000/svg" xmlns:xlink="http://www.w3.org/1999/xlink" contentStyleType="text/css" data-diagram-type="DESCRIPTION" height="395px" preserveAspectRatio="none" style="width:1793px;height:395px;background:#FAFAFA;" version="1.1" viewBox="0 0 1793 395" width="1793px" zoomAndPan="magnify"><?plantuml 1.2026.3?><defs/><g><rect fill="#FAFAFA" height="395" style="stroke:none;stroke-width:1;" width="1793" x="0" y="0"/><g class="title" data-source-line="78"><text fill="#000000" font-family="'Helvetica Neue, Helvetica, Arial, sans-serif'" font-size="14" font-weight="700" lengthAdjust="spacing" textLength="219.4951" x="783.2524" y="22.9951">Assurance Methods &amp; Roles</text></g><!--cluster Common--><g class="cluster" data-qualified-name="Common" data-source-line="80" id="ent0002"><rect fill="#EDE8E1" height="334" rx="2" ry="2" style="stroke:#8C7E6A;stroke-width:1;" width="957" x="7" y="44.2969"/><text fill="#000000" font-family="'Helvetica Neue, Helvetica, Arial, sans-serif'" font-size="12" font-weight="700" lengthAdjust="spacing" textLength="58.8457" x="456.0771" y="57.4355">Common</text></g><!--cluster Business--><g class="cluster" data-qualified-name="Business" data-source-line="90" id="ent0010"><rect fill="#FFFDEC" height="212" rx="2" ry="2" style="stroke:#B8860B;stroke-width:1;" width="791" x="988" y="166.2969"/><text fill="#000000" font-family="'Helvetica Neue, Helvetica, Arial, sans-serif'" font-size="12" font-weight="700" lengthAdjust="spacing" textLength="59.9121" x="1353.5439" y="179.4355">Business</text></g><!--entity SRV_ooK3YN--><g class="entity" data-qualified-name="Common.SRV_ooK3YN" data-source-line="81" id="ent0003"><rect fill="#E0D8CC" height="42.1538" rx="2" ry="2" style="stroke:#8C7E6A;stroke-width:0.5;" width="156.3238" x="533" y="76.2969"/><path d="M547.4308,91.9738 L557.4,91.9738 A3.8769,3.8769 0 0 1 557.4,102.7738 L547.4308,102.7738 A3.8769,3.8769 0 0 1 547.4308,91.9738" fill="#252327" style="stroke:none;stroke-width:0.5;"/><text fill="#000000" font-family="'Helvetica Neue, Helvetica, Arial, sans-serif'" font-size="12" lengthAdjust="spacing" textLength="110.3555" x="568.9683" y="105.6206">Assurance Service</text></g><!--entity PRC_TfWiGw--><g class="entity" data-qualified-name="Common.PRC_TfWiGw" data-source-line="82" id="ent0004"><rect fill="#E0D8CC" height="42.1538" rx="2" ry="2" style="stroke:#8C7E6A;stroke-width:0.5;" width="195.4703" x="753.5" y="198.2969"/><path d="M767.1,213.9738 L775.8231,213.9738 L775.8231,212.1738 L782.0538,219.3738 L775.8231,226.5738 L775.8231,224.7738 L767.1,224.7738" fill="#252327" style="stroke:none;stroke-width:0.5;"/><text fill="#000000" font-family="'Helvetica Neue, Helvetica, Arial, sans-serif'" font-size="12" lengthAdjust="spacing" textLength="149.502" x="789.4683" y="227.6206">Conduct Hazard Analysis</text></g><!--entity PRC_lXql_n--><g class="entity" data-qualified-name="Common.PRC_lXql_n" data-source-line="83" id="ent0005"><rect fill="#E0D8CC" height="42.1538" rx="2" ry="2" style="stroke:#8C7E6A;stroke-width:0.5;" width="165.148" x="528.5" y="198.2969"/><path d="M542.1,213.9738 L550.8231,213.9738 L550.8231,212.1738 L557.0538,219.3738 L550.8231,226.5738 L550.8231,224.7738 L542.1,224.7738" fill="#252327" style="stroke:none;stroke-width:0.5;"/><text fill="#000000" font-family="'Helvetica Neue, Helvetica, Arial, sans-serif'" font-size="12" lengthAdjust="spacing" textLength="119.1797" x="564.4683" y="227.6206">Investigate Incident</text></g><!--entity PRC_7YyhMi--><g class="entity" data-qualified-name="Common.PRC_7YyhMi" data-source-line="84" id="ent0006"><rect fill="#E0D8CC" height="42.1538" rx="2" ry="2" style="stroke:#8C7E6A;stroke-width:0.5;" width="209.9429" x="23" y="198.2969"/><path d="M36.6,213.9738 L45.3231,213.9738 L45.3231,212.1738 L51.5538,219.3738 L45.3231,226.5738 L45.3231,224.7738 L36.6,224.7738" fill="#252327" style="stroke:none;stroke-width:0.5;"/><text fill="#000000" font-family="'Helvetica Neue, Helvetica, Arial, sans-serif'" font-size="12" lengthAdjust="spacing" textLength="163.9746" x="58.9683" y="227.6206">Manage Risk &amp; Compliance</text></g><!--entity PRC_bWETd2--><g class="entity" data-qualified-name="Common.PRC_bWETd2" data-source-line="85" id="ent0007"><rect fill="#E0D8CC" height="42.1538" rx="2" ry="2" style="stroke:#8C7E6A;stroke-width:0.5;" width="175.2788" x="293.5" y="198.2969"/><path d="M307.1,213.9738 L315.8231,213.9738 L315.8231,212.1738 L322.0538,219.3738 L315.8231,226.5738 L315.8231,224.7738 L307.1,224.7738" fill="#252327" style="stroke:none;stroke-width:0.5;"/><text fill="#000000" font-family="'Helvetica Neue, Helvetica, Arial, sans-serif'" font-size="12" lengthAdjust="spacing" textLength="129.3105" x="329.4683" y="227.6206">Build Assurance Case</text></g><!--entity ROL_yswDMB--><g class="entity" data-qualified-name="Common.ROL_yswDMB" data-source-line="86" id="ent0008"><rect fill="#E0D8CC" height="42.1538" rx="2" ry="2" style="stroke:#8C7E6A;stroke-width:0.5;" width="193.6773" x="289" y="320.2969"/><path d="M303.1538,335.143 L313.9538,335.143 A2.7692,2.7692 0 0 1 316.7231,337.9123 L316.7231,344.8353 A2.7692,2.7692 0 0 1 313.9538,347.6046 L303.1538,347.6046" fill="#252327" style="stroke:none;stroke-width:0.5;"/><text fill="#000000" font-family="'Helvetica Neue, Helvetica, Arial, sans-serif'" font-size="12" lengthAdjust="spacing" textLength="147.709" x="324.9683" y="349.6206">Safety / Security Analyst</text></g><!--entity ROL_abNYhO--><g class="entity" data-qualified-name="Common.ROL_abNYhO" data-source-line="87" id="ent0009"><rect fill="#E0D8CC" height="42.1538" rx="2" ry="2" style="stroke:#8C7E6A;stroke-width:0.5;" width="202.4195" x="27" y="320.2969"/><path d="M41.1538,335.143 L51.9538,335.143 A2.7692,2.7692 0 0 1 54.7231,337.9123 L54.7231,344.8353 A2.7692,2.7692 0 0 1 51.9538,347.6046 L41.1538,347.6046" fill="#252327" style="stroke:none;stroke-width:0.5;"/><text fill="#000000" font-family="'Helvetica Neue, Helvetica, Arial, sans-serif'" font-size="12" lengthAdjust="spacing" textLength="156.4512" x="62.9683" y="349.6206">Risk &amp; Compliance Officer</text></g><!--entity BOB_B33tSQ--><g class="entity" data-qualified-name="Business.BOB_B33tSQ" data-source-line="91" id="ent0011"><rect fill="#FFFAC8" height="42.1538" rx="2" ry="2" style="stroke:#B8860B;stroke-width:0.5;" width="161.4156" x="1412.5" y="198.2969"/><path d="M1426.5154,214.1123 L1440.6385,214.1123 L1440.6385,215.9123 L1426.5154,215.9123" fill="#252327"/><path d="M1426.5154,222.8353 L1440.6385,222.8353 L1440.6385,224.6353 L1426.5154,224.6353" fill="#252327"/><path d="M1426.5154,215.9123 L1426.5154,222.8353 L1428.3154,222.8353 L1428.3154,215.9123" fill="#252327"/><path d="M1438.8385,215.9123 L1438.8385,222.8353 L1440.6385,222.8353 L1440.6385,215.9123" fill="#252327"/><path d="M1426.5154,216.12 L1440.6385,216.12 L1440.6385,217.92 L1426.5154,217.92" fill="#252327"/><text fill="#000000" font-family="'Helvetica Neue, Helvetica, Arial, sans-serif'" font-size="12" lengthAdjust="spacing" textLength="115.4473" x="1448.4683" y="227.6206">Assurance Analysis</text></g><!--entity BOB_U1Yo1s--><g class="entity" data-qualified-name="Business.BOB_U1Yo1s" data-source-line="92" id="ent0012"><rect fill="#FFFAC8" height="42.1538" rx="2" ry="2" style="stroke:#B8860B;stroke-width:0.5;" width="129.6167" x="1633" y="320.2969"/><path d="M1647.0154,336.1123 L1661.1385,336.1123 L1661.1385,337.9123 L1647.0154,337.9123" fill="#252327"/><path d="M1647.0154,344.8353 L1661.1385,344.8353 L1661.1385,346.6353 L1647.0154,346.6353" fill="#252327"/><path d="M1647.0154,337.9123 L1647.0154,344.8353 L1648.8154,344.8353 L1648.8154,337.9123" fill="#252327"/><path d="M1659.3385,337.9123 L1659.3385,344.8353 L1661.1385,344.8353 L1661.1385,337.9123" fill="#252327"/><path d="M1647.0154,338.12 L1661.1385,338.12 L1661.1385,339.92 L1647.0154,339.92" fill="#252327"/><text fill="#000000" font-family="'Helvetica Neue, Helvetica, Arial, sans-serif'" font-size="12" lengthAdjust="spacing" textLength="83.6484" x="1668.9683" y="349.6206">STPA Analysis</text></g><!--entity BOB_H_uAJl--><g class="entity" data-qualified-name="Business.BOB_H_uAJl" data-source-line="93" id="ent0013"><rect fill="#FFFAC8" height="42.1538" rx="2" ry="2" style="stroke:#B8860B;stroke-width:0.5;" width="159.1949" x="1413.5" y="320.2969"/><path d="M1427.5154,336.1123 L1441.6385,336.1123 L1441.6385,337.9123 L1427.5154,337.9123" fill="#252327"/><path d="M1427.5154,344.8353 L1441.6385,344.8353 L1441.6385,346.6353 L1427.5154,346.6353" fill="#252327"/><path d="M1427.5154,337.9123 L1427.5154,344.8353 L1429.3154,344.8353 L1429.3154,337.9123" fill="#252327"/><path d="M1439.8385,337.9123 L1439.8385,344.8353 L1441.6385,344.8353 L1441.6385,337.9123" fill="#252327"/><path d="M1427.5154,338.12 L1441.6385,338.12 L1441.6385,339.92 L1427.5154,339.92" fill="#252327"/><text fill="#000000" font-family="'Helvetica Neue, Helvetica, Arial, sans-serif'" font-size="12" lengthAdjust="spacing" textLength="113.2266" x="1449.4683" y="349.6206">CAST Investigation</text></g><!--entity BOB_GCbVtL--><g class="entity" data-qualified-name="Business.BOB_GCbVtL" data-source-line="94" id="ent0014"><rect fill="#FFFAC8" height="42.1538" rx="2" ry="2" style="stroke:#B8860B;stroke-width:0.5;" width="147.7808" x="1004" y="320.2969"/><path d="M1018.0154,336.1123 L1032.1385,336.1123 L1032.1385,337.9123 L1018.0154,337.9123" fill="#252327"/><path d="M1018.0154,344.8353 L1032.1385,344.8353 L1032.1385,346.6353 L1018.0154,346.6353" fill="#252327"/><path d="M1018.0154,337.9123 L1018.0154,344.8353 L1019.8154,344.8353 L1019.8154,337.9123" fill="#252327"/><path d="M1030.3385,337.9123 L1030.3385,344.8353 L1032.1385,344.8353 L1032.1385,337.9123" fill="#252327"/><path d="M1018.0154,338.12 L1032.1385,338.12 L1032.1385,339.92 L1018.0154,339.92" fill="#252327"/><text fill="#000000" font-family="'Helvetica Neue, Helvetica, Arial, sans-serif'" font-size="12" lengthAdjust="spacing" textLength="101.8125" x="1039.9683" y="349.6206">GRC Assessment</text></g><!--entity BOB_f_Hz7r--><g class="entity" data-qualified-name="Business.BOB_f_Hz7r" data-source-line="95" id="ent0015"><rect fill="#FFFAC8" height="42.1538" rx="2" ry="2" style="stroke:#B8860B;stroke-width:0.5;" width="141.3413" x="1212.5" y="320.2969"/><path d="M1226.5154,336.1123 L1240.6385,336.1123 L1240.6385,337.9123 L1226.5154,337.9123" fill="#252327"/><path d="M1226.5154,344.8353 L1240.6385,344.8353 L1240.6385,346.6353 L1226.5154,346.6353" fill="#252327"/><path d="M1226.5154,337.9123 L1226.5154,344.8353 L1228.3154,344.8353 L1228.3154,337.9123" fill="#252327"/><path d="M1238.8385,337.9123 L1238.8385,344.8353 L1240.6385,344.8353 L1240.6385,337.9123" fill="#252327"/><path d="M1226.5154,338.12 L1240.6385,338.12 L1240.6385,339.92 L1226.5154,339.92" fill="#252327"/><text fill="#000000" font-family="'Helvetica Neue, Helvetica, Arial, sans-serif'" font-size="12" lengthAdjust="spacing" textLength="95.373" x="1248.4683" y="349.6206">Assurance Case</text></g><!--link SRV_ooK3YN to PRC_TfWiGw--><!--link PRC_TfWiGw to SRV_ooK3YN--><g class="link" data-entity-1="ent0004" data-entity-2="ent0003" data-link-type="extension" data-source-line="123" id="lnk37"><path d="M818.5,198.2069 C818.5,165.0069 818.5,104.2969 818.5,104.2969 C818.5,104.2969 765.97,104.2969 707.15,104.2969" fill="none" id="PRC_TfWiGw-to-SRV_ooK3YN" style="stroke:#181818;stroke-width:1;stroke-dasharray:7,7;"/><polygon fill="none" points="689.15,104.2969,707.15,110.2969,707.15,98.2969,689.15,104.2969" style="stroke:#181818;stroke-width:1;"/></g><!--link PRC_TfWiGw to PRC_lXql_n--><!--link PRC_lXql_n to PRC_7YyhMi--><!--link PRC_7YyhMi to PRC_bWETd2--><!--link PRC_bWETd2 to ROL_yswDMB--><!--link ROL_yswDMB to PRC_bWETd2--><g class="link" data-entity-1="ent0008" data-entity-2="ent0007" data-link-type="dependency" data-source-line="124" id="lnk38"><path d="M381,320.0469 C381,297.6569 381,268.6069 381,246.3069" fill="none" id="ROL_yswDMB-to-PRC_bWETd2" style="stroke:#181818;stroke-width:1;"/><polygon fill="#181818" points="381,240.3069,377,249.3069,381,245.3069,385,249.3069,381,240.3069" style="stroke:#181818;stroke-width:1;"/></g><!--link ROL_yswDMB to ROL_abNYhO--><!--link BOB_B33tSQ to BOB_U1Yo1s--><!--link BOB_U1Yo1s to BOB_B33tSQ--><g class="link" data-entity-1="ent0012" data-entity-2="ent0011" data-link-type="extension" data-source-line="114" id="lnk28"><path d="M1698,320.2069 C1698,287.0069 1698,226.2969 1698,226.2969 C1698,226.2969 1649.09,226.2969 1591.73,226.2969" fill="none" id="BOB_U1Yo1s-to-BOB_B33tSQ" style="stroke:#181818;stroke-width:1;"/><polygon fill="none" points="1573.73,226.2969,1591.73,232.2969,1591.73,220.2969,1573.73,226.2969" style="stroke:#181818;stroke-width:1;"/></g><!--link BOB_U1Yo1s to BOB_H_uAJl--><!--link BOB_H_uAJl to BOB_GCbVtL--><!--link BOB_GCbVtL to BOB_f_Hz7r--><!--link BOB_GCbVtL to BOB_B33tSQ--><g class="link" data-entity-1="ent0014" data-entity-2="ent0011" data-link-type="extension" data-source-line="112" id="lnk26"><path d="M1102.67,320.2869 C1102.67,283.7269 1102.67,212.2969 1102.67,212.2969 C1102.67,212.2969 1279.79,212.2969 1394.12,212.2969" fill="none" id="BOB_GCbVtL-to-BOB_B33tSQ" style="stroke:#181818;stroke-width:1;"/><polygon fill="none" points="1412.12,212.2969,1394.12,206.2969,1394.12,218.2969,1412.12,212.2969" style="stroke:#181818;stroke-width:1;"/></g><!--link BOB_H_uAJl to BOB_B33tSQ--><g class="link" data-entity-1="ent0013" data-entity-2="ent0011" data-link-type="extension" data-source-line="113" id="lnk27"><path d="M1519.5,320.0469 C1519.5,297.6569 1519.5,280.6069 1519.5,258.3069" fill="none" id="BOB_H_uAJl-to-BOB_B33tSQ" style="stroke:#181818;stroke-width:1;"/><polygon fill="none" points="1519.5,240.3069,1513.5,258.3069,1525.5,258.3069,1519.5,240.3069" style="stroke:#181818;stroke-width:1;"/></g><!--link BOB_f_Hz7r to BOB_B33tSQ--><g class="link" data-entity-1="ent0015" data-entity-2="ent0011" data-link-type="extension" data-source-line="115" id="lnk29"><path d="M1306.5,320.2069 C1306.5,287.0069 1306.5,226.2969 1306.5,226.2969 C1306.5,226.2969 1343.88,226.2969 1394.28,226.2969" fill="none" id="BOB_f_Hz7r-to-BOB_B33tSQ" style="stroke:#181818;stroke-width:1;"/><polygon fill="none" points="1412.28,226.2969,1394.28,220.2969,1394.28,232.2969,1412.28,226.2969" style="stroke:#181818;stroke-width:1;"/></g><!--link PRC_7YyhMi to BOB_GCbVtL--><g class="link" data-entity-1="ent0006" data-entity-2="ent0014" data-link-type="dependency" data-source-line="116" id="lnk30"><path d="M128,240.5969 C128,266.6469 128,307.2969 128,307.2969 C128,307.2969 1053.33,307.2969 1053.33,307.2969 C1053.33,307.2969 1053.33,307.1269 1053.33,313.9569" fill="none" id="PRC_7YyhMi-to-BOB_GCbVtL" style="stroke:#181818;stroke-width:1;"/><polygon fill="#181818" points="1053.33,319.9569,1057.33,310.9569,1053.33,314.9569,1049.33,310.9569,1053.33,319.9569" style="stroke:#181818;stroke-width:1;"/></g><!--link PRC_lXql_n to BOB_H_uAJl--><g class="link" data-entity-1="ent0005" data-entity-2="ent0013" data-link-type="dependency" data-source-line="117" id="lnk31"><path d="M638.5,240.4869 C638.5,253.3469 638.5,267.2969 638.5,267.2969 C638.5,267.2969 1466.5,267.2969 1466.5,267.2969 C1466.5,267.2969 1466.5,292.4069 1466.5,314.2869" fill="none" id="PRC_lXql_n-to-BOB_H_uAJl" style="stroke:#181818;stroke-width:1;"/><polygon fill="#181818" points="1466.5,320.2869,1470.5,311.2869,1466.5,315.2869,1462.5,311.2869,1466.5,320.2869" style="stroke:#181818;stroke-width:1;"/></g><!--link PRC_TfWiGw to BOB_U1Yo1s--><g class="link" data-entity-1="ent0004" data-entity-2="ent0012" data-link-type="dependency" data-source-line="118" id="lnk32"><path d="M818.5,240.4669 C818.5,247.8369 818.5,254.2969 818.5,254.2969 C818.5,254.2969 1665.5,254.2969 1665.5,254.2969 C1665.5,254.2969 1665.5,288.4869 1665.5,314.2369" fill="none" id="PRC_TfWiGw-to-BOB_U1Yo1s" style="stroke:#181818;stroke-width:1;"/><polygon fill="#181818" points="1665.5,320.2369,1669.5,311.2369,1665.5,315.2369,1661.5,311.2369,1665.5,320.2369" style="stroke:#181818;stroke-width:1;"/></g><!--link PRC_bWETd2 to BOB_f_Hz7r--><g class="link" data-entity-1="ent0007" data-entity-2="ent0015" data-link-type="dependency" data-source-line="119" id="lnk33"><path d="M424.75,240.6269 C424.75,258.2269 424.75,280.2969 424.75,280.2969 C424.75,280.2969 1259.5,280.2969 1259.5,280.2969 C1259.5,280.2969 1259.5,296.3669 1259.5,313.9669" fill="none" id="PRC_bWETd2-to-BOB_f_Hz7r" style="stroke:#181818;stroke-width:1;"/><polygon fill="#181818" points="1259.5,319.9669,1263.5,310.9669,1259.5,314.9669,1255.5,310.9669,1259.5,319.9669" style="stroke:#181818;stroke-width:1;"/></g><!--link ROL_abNYhO to PRC_7YyhMi--><g class="link" data-entity-1="ent0009" data-entity-2="ent0006" data-link-type="dependency" data-source-line="120" id="lnk34"><path d="M77.5,320.0469 C77.5,297.6569 77.5,268.6069 77.5,246.3069" fill="none" id="ROL_abNYhO-to-PRC_7YyhMi" style="stroke:#181818;stroke-width:1;"/><polygon fill="#181818" points="77.5,240.3069,73.5,249.3069,77.5,245.3069,81.5,249.3069,77.5,240.3069" style="stroke:#181818;stroke-width:1;"/></g><!--link PRC_7YyhMi to SRV_ooK3YN--><g class="link" data-entity-1="ent0006" data-entity-2="ent0003" data-link-type="extension" data-source-line="121" id="lnk35"><path d="M128,198.2869 C128,161.7269 128,90.2969 128,90.2969 C128,90.2969 378.16,90.2969 514.86,90.2969" fill="none" id="PRC_7YyhMi-to-SRV_ooK3YN" style="stroke:#181818;stroke-width:1;stroke-dasharray:7,7;"/><polygon fill="none" points="532.86,90.2969,514.86,84.2969,514.86,96.2969,532.86,90.2969" style="stroke:#181818;stroke-width:1;"/></g><!--link ROL_yswDMB to PRC_TfWiGw--><g class="link" data-entity-1="ent0008" data-entity-2="ent0004" data-link-type="dependency" data-source-line="122" id="lnk36"><path d="M483.1,341.2969 C627.89,341.2969 883.5,341.2969 883.5,341.2969 C883.5,341.2969 883.5,281.4969 883.5,246.5469" fill="none" id="ROL_yswDMB-to-PRC_TfWiGw" style="stroke:#181818;stroke-width:1;"/><polygon fill="#181818" points="883.5,240.5469,879.5,249.5469,883.5,245.5469,887.5,249.5469,883.5,240.5469" style="stroke:#181818;stroke-width:1;"/></g><!--link PRC_bWETd2 to SRV_ooK3YN--><g class="link" data-entity-1="ent0007" data-entity-2="ent0003" data-link-type="extension" data-source-line="125" id="lnk39"><path d="M381,198.2069 C381,165.0069 381,104.2969 381,104.2969 C381,104.2969 448.13,104.2969 514.81,104.2969" fill="none" id="PRC_bWETd2-to-SRV_ooK3YN" style="stroke:#181818;stroke-width:1;stroke-dasharray:7,7;"/><polygon fill="none" points="532.81,104.2969,514.81,98.2969,514.81,110.2969,532.81,104.2969" style="stroke:#181818;stroke-width:1;"/></g><!--link ROL_yswDMB to PRC_lXql_n--><g class="link" data-entity-1="ent0008" data-entity-2="ent0005" data-link-type="dependency" data-source-line="126" id="lnk40"><path d="M475.75,320.0469 C475.75,285.0969 475.75,219.2969 475.75,219.2969 C475.75,219.2969 494.27,219.2969 522.43,219.2969" fill="none" id="ROL_yswDMB-to-PRC_lXql_n" style="stroke:#181818;stroke-width:1;"/><polygon fill="#181818" points="528.43,219.2969,519.43,215.2969,523.43,219.2969,519.43,223.2969,528.43,219.2969" style="stroke:#181818;stroke-width:1;"/></g><!--link PRC_lXql_n to SRV_ooK3YN--><g class="link" data-entity-1="ent0005" data-entity-2="ent0003" data-link-type="extension" data-source-line="127" id="lnk41"><path d="M611,198.0469 C611,175.6569 611,158.6069 611,136.3069" fill="none" id="PRC_lXql_n-to-SRV_ooK3YN" style="stroke:#181818;stroke-width:1;stroke-dasharray:7,7;"/><polygon fill="none" points="611,118.3069,605,136.3069,617,136.3069,611,118.3069" style="stroke:#181818;stroke-width:1;"/></g><?plantuml-src xLTjSzf64FxEhzXHEkqNIqZ2l3HZc04PcxIndO3hrDFfC0SwqDNYZkfE49pclsTbvEYC9DSu_kZ1cDFjxhEFzasdWFaKfA8H5Mgpf9MAl65yIIAo09_EI1og4y7LELbGC0OqN575fWJEQKmFuFlr0NGZHi83a8HBKzA8pOnYe16xfU2ucb06n1ThnkSm8w6acYGICVUd8k8qWaDjVqAcD_CxeIT24S6RasxoqQc7ZDFaTa14AX2QW0kVIhg4Xgqx8lmcsMmzsAHJHVWyf4T7lLWYdfIdw7I9J3iT-581wELud9mSzxr48YAVHkbkhzLgsBtArs9iJomMWlyVSl-ut-exkyWjhzblTCkG9odhiPZyWxkFaEvwhVr8BoCnHUHIjlPno_FsOnk9aBua7XRXYasV2rbHOWbAm4Ge9R20MOBC1Ay4h-tosYwlxR8BkOoOel0JYQO1Mn15nplHX2EvciFdHSXbsmYKMhwjLjVhjRMkMIAQLrtRjgkeOS2AqNLFV6uRDjZWDF3Fw1mjYGh0RnjdhlMh3OUMQmUEZVzNZbMp1ydchG4p5ePjuurRTsjkqwZkMg51_HbcTRHQrIqRJT7eAhbyrCXnhDR-LgchHlqf19D0TGf2dbRPYuMwWP5sWePLktAjLdXerP6XQwQ_AnCv8iK6CjoXYECn4ZUqRN31wME4anf-8ROrg5dre6crY0iktAdWhxkgPzSchWQr7w2RjiXBCRRSk_WsBPTWV27vRddRWFSngENtJTn_Cl-AOWh3svKondcDjCyeZdPVmiymnBZBIkLxzuEndQe6bCnNJVCe7v0lSaf2sdQi-jUEvc-qbIQWsN0X4aR3gx4GlzUkpykHqr9-WEm9xiSuIGRabaG-T3a9DvB913-RhuZ_OUYDBsUVsEbwF_ntV4MbOdEKutgAptck2i73F_yDntm_y3F2oPp2aCaRJ006UHco94g53fhNc-2CxUUW5xFGrwBl4LaCFldKl_JTSl2aAHyWZyWCpmPGnOHEO-o9JHhwk-2aZo747bwy7s_a-lYijmTsBXvmCPjXfKHvR38vlmukagEP1dv_qaZKIquT9LHsdaybDQmNMVvyWCnw5xrnhrPJeu_FSpMw_D1zcfS_d6lXoETvyRgZIws-sRRLIrqDnd7tj_1vhaw7NX8_b2xI_YbrS-fDhjJx7qtHVQ6NkfcD1xVDA2cSNy0qJUZ6IfWXsOXOlGMSyfJuG4EQq9MmPYfW7EPf3Sd4ef9DB33_mXS0d0n_HsmUA5CVDjcoK2kT6jcoK2jj_MnPg9NsSBRCQMdTc2qBjTA-oWevfwLLNxOir4eB9riMQgLvpvQ5McdQagpXvEVRro_vmChyhwCteEwsG7JFkq2qzPKJwLd0TovkTdJ-UYOrQHe3lHeqQHf7FNEQDBtdB2r8gLDI5vQ5PBLdgPxcr2XVc4ymojVM4uponRrhz0q0?></g></svg>