<svg xmlns="http://www.w3.org/2000/svg" xmlns:xlink="http://www.w3.org/1999/xlink" contentStyleType="text/css" data-diagram-type="DESCRIPTION" height="270px" preserveAspectRatio="none" style="width:3780px;height:270px;background:#FAFAFA;" version="1.1" viewBox="0 0 3780 270" width="3780px" zoomAndPan="magnify"><?plantuml 1.2026.3?><defs/><g><rect fill="#FAFAFA" height="270" style="stroke:none;stroke-width:1;" width="3780" x="0" y="0"/><g class="title" data-source-line="96"><text fill="#000000" font-family="'Helvetica Neue, Helvetica, Arial, sans-serif'" font-size="14" font-weight="700" lengthAdjust="spacing" textLength="278.9746" x="1747.0127" y="22.9951">Assurance Application Architecture</text></g><!--cluster Common--><g class="cluster" data-qualified-name="Common" data-source-line="98" id="ent0002"><rect fill="#EDE8E1" height="90" rx="2" ry="2" style="stroke:#8C7E6A;stroke-width:1;" width="2393" x="7" y="44.2969"/><text fill="#000000" font-family="'Helvetica Neue, Helvetica, Arial, sans-serif'" font-size="12" font-weight="700" lengthAdjust="spacing" textLength="58.8457" x="1174.0771" y="57.4355">Common</text></g><!--cluster Application--><g class="cluster" data-qualified-name="Application" data-source-line="109" id="ent0011"><rect fill="#E8F8FF" height="212" rx="2" ry="2" style="stroke:#0078A0;stroke-width:1;" width="1338" x="2428" y="44.2969"/><text fill="#000000" font-family="'Helvetica Neue, Helvetica, Arial, sans-serif'" font-size="12" font-weight="700" lengthAdjust="spacing" textLength="76.541" x="3058.7295" y="57.4355">Application</text></g><!--entity FNC_0hyhf0--><g class="entity" data-qualified-name="Common.FNC_0hyhf0" data-source-line="99" id="ent0003"><rect fill="#E0D8CC" height="42.1538" rx="2" ry="2" style="stroke:#8C7E6A;stroke-width:0.5;" width="288.2124" x="23" y="76.2969"/><path d="M37.0154,102.4969 L37.0154,93.7738 L44.0769,90.5892 L51.1385,93.7738 L51.1385,102.4969 L44.0769,99.0353" fill="#252327" style="stroke:none;stroke-width:0.5;"/><text fill="#000000" font-family="'Helvetica Neue, Helvetica, Arial, sans-serif'" font-size="12" lengthAdjust="spacing" textLength="242.2441" x="58.9683" y="105.6206">Ingest &amp; Reconcile Supply-Chain Signals</text></g><!--entity FNC_3xVBUQ--><g class="entity" data-qualified-name="Common.FNC_3xVBUQ" data-source-line="100" id="ent0004"><rect fill="#E0D8CC" height="42.1538" rx="2" ry="2" style="stroke:#8C7E6A;stroke-width:0.5;" width="251.8902" x="371" y="76.2969"/><path d="M385.0154,102.4969 L385.0154,93.7738 L392.0769,90.5892 L399.1385,93.7738 L399.1385,102.4969 L392.0769,99.0353" fill="#252327" style="stroke:none;stroke-width:0.5;"/><text fill="#000000" font-family="'Helvetica Neue, Helvetica, Arial, sans-serif'" font-size="12" lengthAdjust="spacing" textLength="205.9219" x="406.9683" y="105.6206">Manage Assurance Store Lifecycle</text></g><!--entity FNC_9JjZ3X--><g class="entity" data-qualified-name="Common.FNC_9JjZ3X" data-source-line="101" id="ent0005"><rect fill="#E0D8CC" height="42.1538" rx="2" ry="2" style="stroke:#8C7E6A;stroke-width:0.5;" width="184.4195" x="683" y="76.2969"/><path d="M697.0154,102.4969 L697.0154,93.7738 L704.0769,90.5892 L711.1385,93.7738 L711.1385,102.4969 L704.0769,99.0353" fill="#252327" style="stroke:none;stroke-width:0.5;"/><text fill="#000000" font-family="'Helvetica Neue, Helvetica, Arial, sans-serif'" font-size="12" lengthAdjust="spacing" textLength="138.4512" x="718.9683" y="105.6206">Surface Modeling Gaps</text></g><!--entity FNC_elLBp7--><g class="entity" data-qualified-name="Common.FNC_elLBp7" data-source-line="102" id="ent0006"><rect fill="#E0D8CC" height="42.1538" rx="2" ry="2" style="stroke:#8C7E6A;stroke-width:0.5;" width="274.0738" x="927" y="76.2969"/><path d="M941.0154,102.4969 L941.0154,93.7738 L948.0769,90.5892 L955.1385,93.7738 L955.1385,102.4969 L948.0769,99.0353" fill="#252327" style="stroke:none;stroke-width:0.5;"/><text fill="#000000" font-family="'Helvetica Neue, Helvetica, Arial, sans-serif'" font-size="12" lengthAdjust="spacing" textLength="228.1055" x="962.9683" y="105.6206">Guide Assurance Method &amp; Standards</text></g><!--entity FNC_n_UPxk--><g class="entity" data-qualified-name="Common.FNC_n_UPxk" data-source-line="103" id="ent0007"><rect fill="#E0D8CC" height="42.1538" rx="2" ry="2" style="stroke:#8C7E6A;stroke-width:0.5;" width="210.7574" x="1261.5" y="76.2969"/><path d="M1275.5154,102.4969 L1275.5154,93.7738 L1282.5769,90.5892 L1289.6385,93.7738 L1289.6385,102.4969 L1282.5769,99.0353" fill="#252327" style="stroke:none;stroke-width:0.5;"/><text fill="#000000" font-family="'Helvetica Neue, Helvetica, Arial, sans-serif'" font-size="12" lengthAdjust="spacing" textLength="164.7891" x="1297.4683" y="105.6206">Verify Assurance Invariants</text></g><!--entity FNC_snlj8X--><g class="entity" data-qualified-name="Common.FNC_snlj8X" data-source-line="104" id="ent0008"><rect fill="#E0D8CC" height="42.1538" rx="2" ry="2" style="stroke:#8C7E6A;stroke-width:0.5;" width="206.5035" x="1532.5" y="76.2969"/><path d="M1546.5154,102.4969 L1546.5154,93.7738 L1553.5769,90.5892 L1560.6385,93.7738 L1560.6385,102.4969 L1553.5769,99.0353" fill="#252327" style="stroke:none;stroke-width:0.5;"/><text fill="#000000" font-family="'Helvetica Neue, Helvetica, Arial, sans-serif'" font-size="12" lengthAdjust="spacing" textLength="160.5352" x="1568.4683" y="105.6206">Author Assurance Artifacts</text></g><!--entity FNC_z9Ac33--><g class="entity" data-qualified-name="Common.FNC_z9Ac33" data-source-line="105" id="ent0009"><rect fill="#E0D8CC" height="42.1538" rx="2" ry="2" style="stroke:#8C7E6A;stroke-width:0.5;" width="368.0874" x="1800" y="76.2969"/><path d="M1814.0154,102.4969 L1814.0154,93.7738 L1821.0769,90.5892 L1828.1385,93.7738 L1828.1385,102.4969 L1821.0769,99.0353" fill="#252327" style="stroke:none;stroke-width:0.5;"/><text fill="#000000" font-family="'Helvetica Neue, Helvetica, Arial, sans-serif'" font-size="12" lengthAdjust="spacing" textLength="322.1191" x="1835.9683" y="105.6206">Record &amp; Retain Tamper-Evident Assurance Evidence</text></g><!--entity SRV_ooK3YN--><g class="entity" data-qualified-name="Common.SRV_ooK3YN" data-source-line="106" id="ent0010"><rect fill="#E0D8CC" height="42.1538" rx="2" ry="2" style="stroke:#8C7E6A;stroke-width:0.5;" width="156.3238" x="2228" y="76.2969"/><path d="M2242.4308,91.9738 L2252.4,91.9738 A3.8769,3.8769 0 0 1 2252.4,102.7738 L2242.4308,102.7738 A3.8769,3.8769 0 0 1 2242.4308,91.9738" fill="#252327" style="stroke:none;stroke-width:0.5;"/><text fill="#000000" font-family="'Helvetica Neue, Helvetica, Arial, sans-serif'" font-size="12" lengthAdjust="spacing" textLength="110.3555" x="2263.9683" y="105.6206">Assurance Service</text></g><!--entity APP_E0fzqZ--><g class="entity" data-qualified-name="Application.APP_E0fzqZ" data-source-line="110" id="ent0012"><rect fill="#CCF2FF" height="42.1538" rx="2" ry="2" style="stroke:#0078A0;stroke-width:0.5;" width="219.9859" x="2444" y="76.2969"/><path d="M2459.5385,92.1123 L2469.7846,92.1123 L2469.7846,102.6353 L2459.5385,102.6353" fill="#252327" style="stroke:none;stroke-width:0.5;"/><path d="M2457.1846,93.1507 L2459.5385,93.1507 L2459.5385,94.9507 L2457.1846,94.9507" fill="#252327"/><path d="M2457.1846,96.4738 L2459.5385,96.4738 L2459.5385,98.2738 L2457.1846,98.2738" fill="#252327"/><path d="M2457.1846,99.7969 L2459.5385,99.7969 L2459.5385,101.5969 L2457.1846,101.5969" fill="#252327"/><path d="M2469.7846,93.1507 L2471.7231,93.1507 L2471.7231,94.9507 L2469.7846,94.9507" fill="#252327"/><path d="M2469.7846,96.4738 L2471.7231,96.4738 L2471.7231,98.2738 L2469.7846,98.2738" fill="#252327"/><path d="M2469.7846,99.7969 L2471.7231,99.7969 L2471.7231,101.5969 L2469.7846,101.5969" fill="#252327"/><text fill="#000000" font-family="'Helvetica Neue, Helvetica, Arial, sans-serif'" font-size="12" lengthAdjust="spacing" textLength="174.0176" x="2479.9683" y="105.6206">Confidential Assurance Store</text></g><!--entity APP_GnsLC8--><g class="entity" data-qualified-name="Application.APP_GnsLC8" data-source-line="111" id="ent0013"><rect fill="#CCF2FF" height="42.1538" rx="2" ry="2" style="stroke:#0078A0;stroke-width:0.5;" width="157.1382" x="2724.5" y="76.2969"/><path d="M2740.0385,92.1123 L2750.2846,92.1123 L2750.2846,102.6353 L2740.0385,102.6353" fill="#252327" style="stroke:none;stroke-width:0.5;"/><path d="M2737.6846,93.1507 L2740.0385,93.1507 L2740.0385,94.9507 L2737.6846,94.9507" fill="#252327"/><path d="M2737.6846,96.4738 L2740.0385,96.4738 L2740.0385,98.2738 L2737.6846,98.2738" fill="#252327"/><path d="M2737.6846,99.7969 L2740.0385,99.7969 L2740.0385,101.5969 L2737.6846,101.5969" fill="#252327"/><path d="M2750.2846,93.1507 L2752.2231,93.1507 L2752.2231,94.9507 L2750.2846,94.9507" fill="#252327"/><path d="M2750.2846,96.4738 L2752.2231,96.4738 L2752.2231,98.2738 L2750.2846,98.2738" fill="#252327"/><path d="M2750.2846,99.7969 L2752.2231,99.7969 L2752.2231,101.5969 L2750.2846,101.5969" fill="#252327"/><text fill="#000000" font-family="'Helvetica Neue, Helvetica, Arial, sans-serif'" font-size="12" lengthAdjust="spacing" textLength="111.1699" x="2760.4683" y="105.6206">Assurance Archive</text></g><!--entity APP_XFD85E--><g class="entity" data-qualified-name="Application.APP_XFD85E" data-source-line="112" id="ent0014"><rect fill="#CCF2FF" height="42.1538" rx="2" ry="2" style="stroke:#0078A0;stroke-width:0.5;" width="155.7085" x="2942" y="76.2969"/><path d="M2957.5385,92.1123 L2967.7846,92.1123 L2967.7846,102.6353 L2957.5385,102.6353" fill="#252327" style="stroke:none;stroke-width:0.5;"/><path d="M2955.1846,93.1507 L2957.5385,93.1507 L2957.5385,94.9507 L2955.1846,94.9507" fill="#252327"/><path d="M2955.1846,96.4738 L2957.5385,96.4738 L2957.5385,98.2738 L2955.1846,98.2738" fill="#252327"/><path d="M2955.1846,99.7969 L2957.5385,99.7969 L2957.5385,101.5969 L2955.1846,101.5969" fill="#252327"/><path d="M2967.7846,93.1507 L2969.7231,93.1507 L2969.7231,94.9507 L2967.7846,94.9507" fill="#252327"/><path d="M2967.7846,96.4738 L2969.7231,96.4738 L2969.7231,98.2738 L2967.7846,98.2738" fill="#252327"/><path d="M2967.7846,99.7969 L2969.7231,99.7969 L2969.7231,101.5969 L2967.7846,101.5969" fill="#252327"/><text fill="#000000" font-family="'Helvetica Neue, Helvetica, Arial, sans-serif'" font-size="12" lengthAdjust="spacing" textLength="109.7402" x="2977.9683" y="105.6206">Assurance Verifier</text></g><!--entity APP_e2zPs6--><g class="entity" data-qualified-name="Application.APP_e2zPs6" data-source-line="113" id="ent0015"><rect fill="#CCF2FF" height="42.1538" rx="2" ry="2" style="stroke:#0078A0;stroke-width:0.5;" width="284.0113" x="3158" y="76.2969"/><path d="M3173.5385,92.1123 L3183.7846,92.1123 L3183.7846,102.6353 L3173.5385,102.6353" fill="#252327" style="stroke:none;stroke-width:0.5;"/><path d="M3171.1846,93.1507 L3173.5385,93.1507 L3173.5385,94.9507 L3171.1846,94.9507" fill="#252327"/><path d="M3171.1846,96.4738 L3173.5385,96.4738 L3173.5385,98.2738 L3171.1846,98.2738" fill="#252327"/><path d="M3171.1846,99.7969 L3173.5385,99.7969 L3173.5385,101.5969 L3171.1846,101.5969" fill="#252327"/><path d="M3183.7846,93.1507 L3185.7231,93.1507 L3185.7231,94.9507 L3183.7846,94.9507" fill="#252327"/><path d="M3183.7846,96.4738 L3185.7231,96.4738 L3185.7231,98.2738 L3183.7846,98.2738" fill="#252327"/><path d="M3183.7846,99.7969 L3185.7231,99.7969 L3185.7231,101.5969 L3183.7846,101.5969" fill="#252327"/><text fill="#000000" font-family="'Helvetica Neue, Helvetica, Arial, sans-serif'" font-size="12" lengthAdjust="spacing" textLength="238.043" x="3193.9683" y="105.6206">Supply-Chain &amp; Vulnerability Connector</text></g><!--entity APP_m_U5S1--><g class="entity" data-qualified-name="Application.APP_m_U5S1" data-source-line="114" id="ent0016"><rect fill="#CCF2FF" height="42.1538" rx="2" ry="2" style="stroke:#0078A0;stroke-width:0.5;" width="246.7984" x="3502.5" y="76.2969"/><path d="M3518.0385,92.1123 L3528.2846,92.1123 L3528.2846,102.6353 L3518.0385,102.6353" fill="#252327" style="stroke:none;stroke-width:0.5;"/><path d="M3515.6846,93.1507 L3518.0385,93.1507 L3518.0385,94.9507 L3515.6846,94.9507" fill="#252327"/><path d="M3515.6846,96.4738 L3518.0385,96.4738 L3518.0385,98.2738 L3515.6846,98.2738" fill="#252327"/><path d="M3515.6846,99.7969 L3518.0385,99.7969 L3518.0385,101.5969 L3515.6846,101.5969" fill="#252327"/><path d="M3528.2846,93.1507 L3530.2231,93.1507 L3530.2231,94.9507 L3528.2846,94.9507" fill="#252327"/><path d="M3528.2846,96.4738 L3530.2231,96.4738 L3530.2231,98.2738 L3528.2846,98.2738" fill="#252327"/><path d="M3528.2846,99.7969 L3530.2231,99.7969 L3530.2231,101.5969 L3528.2846,101.5969" fill="#252327"/><text fill="#000000" font-family="'Helvetica Neue, Helvetica, Arial, sans-serif'" font-size="12" lengthAdjust="spacing" textLength="200.8301" x="3538.4683" y="105.6206">Assurance MCP Endpoint Adapter</text></g><!--entity DOB_ApaPcg--><g class="entity" data-qualified-name="Application.DOB_ApaPcg" data-source-line="115" id="ent0017"><rect fill="#CCF2FF" height="42.1538" rx="2" ry="2" style="stroke:#0078A0;stroke-width:0.5;" width="210.9742" x="2914.5" y="198.2969"/><path d="M2928.6538,213.5584 L2942.5,213.5584 L2942.5,215.3584 L2928.6538,215.3584" fill="#252327"/><path d="M2928.6538,223.3892 L2942.5,223.3892 L2942.5,225.1892 L2928.6538,225.1892" fill="#252327"/><path d="M2928.6538,215.3584 L2928.6538,223.3892 L2930.4538,223.3892 L2930.4538,215.3584" fill="#252327"/><path d="M2940.7,215.3584 L2940.7,223.3892 L2942.5,223.3892 L2942.5,215.3584" fill="#252327"/><path d="M2928.6538,215.1507 L2942.5,215.1507 L2942.5,216.9507 L2928.6538,216.9507" fill="#252327"/><text fill="#000000" font-family="'Helvetica Neue, Helvetica, Arial, sans-serif'" font-size="12" lengthAdjust="spacing" textLength="165.0059" x="2950.4683" y="227.6206">Assurance Knowledge Base</text></g><!--entity DOB_NtsoOS--><g class="entity" data-qualified-name="Application.DOB_NtsoOS" data-source-line="116" id="ent0018"><rect fill="#CCF2FF" height="42.1538" rx="2" ry="2" style="stroke:#0078A0;stroke-width:0.5;" width="217.5894" x="2540" y="198.2969"/><path d="M2554.1538,213.5584 L2568,213.5584 L2568,215.3584 L2554.1538,215.3584" fill="#252327"/><path d="M2554.1538,223.3892 L2568,223.3892 L2568,225.1892 L2554.1538,225.1892" fill="#252327"/><path d="M2554.1538,215.3584 L2554.1538,223.3892 L2555.9538,223.3892 L2555.9538,215.3584" fill="#252327"/><path d="M2566.2,215.3584 L2566.2,223.3892 L2568,223.3892 L2568,215.3584" fill="#252327"/><path d="M2554.1538,215.1507 L2568,215.1507 L2568,216.9507 L2554.1538,216.9507" fill="#252327"/><text fill="#000000" font-family="'Helvetica Neue, Helvetica, Arial, sans-serif'" font-size="12" lengthAdjust="spacing" textLength="171.6211" x="2575.9683" y="227.6206">Assurance Method Guidance</text></g><!--link FNC_0hyhf0 to FNC_3xVBUQ--><!--link FNC_3xVBUQ to FNC_9JjZ3X--><!--link FNC_9JjZ3X to FNC_elLBp7--><!--link FNC_elLBp7 to FNC_n_UPxk--><!--link FNC_n_UPxk to FNC_snlj8X--><!--link FNC_snlj8X to FNC_z9Ac33--><!--link FNC_z9Ac33 to SRV_ooK3YN--><!--link APP_E0fzqZ to APP_GnsLC8--><!--link APP_GnsLC8 to APP_XFD85E--><!--link APP_XFD85E to APP_e2zPs6--><!--link APP_e2zPs6 to APP_m_U5S1--><!--link APP_m_U5S1 to DOB_ApaPcg--><!--link APP_m_U5S1 to DOB_ApaPcg--><g class="link" data-entity-1="ent0016" data-entity-2="ent0017" data-link-type="dependency" data-source-line="136" id="lnk32"><path d="M3667.17,118.3069 C3667.17,154.8669 3667.17,226.2969 3667.17,226.2969 C3667.17,226.2969 3315.27,226.2969 3131.78,226.2969" fill="none" id="APP_m_U5S1-to-DOB_ApaPcg" style="stroke:#181818;stroke-width:1;"/><polygon fill="#181818" points="3125.78,226.2969,3134.78,230.2969,3130.78,226.2969,3134.78,222.2969,3125.78,226.2969" style="stroke:#181818;stroke-width:1;"/></g><!--link DOB_ApaPcg to DOB_NtsoOS--><!--link APP_E0fzqZ to DOB_ApaPcg--><g class="link" data-entity-1="ent0012" data-entity-2="ent0017" data-link-type="dependency" data-source-line="137" id="lnk33"><path d="M2602,118.6269 C2602,136.2269 2602,158.2969 2602,158.2969 C2602,158.2969 2928.25,158.2969 2928.25,158.2969 C2928.25,158.2969 2928.25,174.3669 2928.25,191.9669" fill="none" id="APP_E0fzqZ-to-DOB_ApaPcg" style="stroke:#181818;stroke-width:1;"/><polygon fill="#181818" points="2928.25,197.9669,2932.25,188.9669,2928.25,192.9669,2924.25,188.9669,2928.25,197.9669" style="stroke:#181818;stroke-width:1;"/></g><!--link APP_XFD85E to DOB_ApaPcg--><g class="link" data-entity-1="ent0014" data-entity-2="ent0017" data-link-type="dependency" data-source-line="138" id="lnk34"><path d="M3020,118.5469 C3020,140.9369 3020,169.9869 3020,192.2869" fill="none" id="APP_XFD85E-to-DOB_ApaPcg" style="stroke:#181818;stroke-width:1;"/><polygon fill="#181818" points="3020,198.2869,3024,189.2869,3020,193.2869,3016,189.2869,3020,198.2869" style="stroke:#181818;stroke-width:1;"/></g><!--link FNC_elLBp7 to DOB_NtsoOS--><g class="link" data-entity-1="ent0006" data-entity-2="ent0018" data-link-type="dependency" data-source-line="139" id="lnk35"><path d="M1064,118.5469 C1064,153.4969 1064,219.2969 1064,219.2969 C1064,219.2969 2175.31,219.2969 2533.74,219.2969" fill="none" id="FNC_elLBp7-to-DOB_NtsoOS" style="stroke:#181818;stroke-width:1;"/><polygon fill="#181818" points="2539.74,219.2969,2530.74,215.2969,2534.74,219.2969,2530.74,223.2969,2539.74,219.2969" style="stroke:#181818;stroke-width:1;"/></g><?plantuml-src xLTHRzis47xth-3KeTk0M95aEvQBn83Zs6dN9CtYDkWw30OZqH8JcjH8sexJzR_lwAYLN4kfrUPjGLE09k-xx-vuTpp5D2H8QIA9qCk4r6hgXl84Ipn58PdW6TD3mVKPdX9alIHiJZGDC3eZCxA3llpUGJr9CTj12dDLLqJIYLMiQ4Jl27AztA6ASIWMb4TeWfaYkHCfPZmCXEH4ecPk_me7Dz7gi2-OaEZPi6V-vKrdb1FZ3X9Ino9tm4L854dGdfCdmlp6RFfExIUm5R3eWh3nMqcZ27pXqQyJAQOxI8iTnF0LORyXiu7gzIxihM4k26Rq3cigU0d8jlzz23L-brG0ZeYSLxAlfvG8w4FsrUiFOCOdPAA_2tX1exW2CWY8KgM1s73h5P-m6U41UHYIkt8IQCmZHlRtUqd288UDbSUGLGd4izj57si87NwTQ0D_w0-7vaJ8aCXqrt7QVi-fVIfMtnVJwHQQZmR-mFrQizzl3_PwPPfnPlWu4DD4SC9r6K6_F_IgcXvYZSVYwXfs7bFjPCO3OtHfB9mZlz-l5Wjb2Y4WtwcofaK2-O6kXDQGBI4rci72MlpK7P-wurDtVEgE_-Vkg199DK4_Ond4T8er6HV65kshUOHkfuoh0olMEdcnkxjOBEn5mnOoslKSnza52GlDALaSYji3oq4ESlVWp-hk9rZ7A3omJfkeQNjnssxEs_RUo-QTXT24CdPWFVDQNiDhMz2FfRWX1nO7Mcit1_NiXWFeJYjsxROpT-7dIxC7EjPLR83QTgCwg6EtAu5Srsv-iQ-PebQRMy1I2wl2KXk_2JCtqosuwLoIFzBzDcp7GGtRTsBNWUMzNMRpGMzMA01qlWFMibrdtben0kZI_FnMvDhLKIkg-ylzje5buVvS_8yKQy_k8ECDMDyyyI7gBWC_46JgVCzkm4x7zhOei39hqxRoQ8dXGVnSA7qFUxQFpF-L83BPxqCiD_RhiB-r_JLDDIC8djqPZ3HWTkvfWmaDdDAGvJC9KzwNreci-mVAGYLFLKvol-0UFwe0CtBWsgrFNVIAHqHfz1pUv43mW09eD0CRblL-Z2b78nfn6F8CL-uHm0eDp_fZ9rx64wSYuodcECgxFD924dH29oHO1emKKpLkBm_V_L6HQZIJ4mmCfp12CZEl7kEan9NExzSV6kyhwZ-UcL4yy-IKmEWQGZ17e2B4CYmX8-paC6bN9BiqC_eon_QApp7Cy5oNiC1WUdvxKv6bDmCNP3uXfQOGn38InTcrNpLk9jTak4ewRPBiBPucHDO7SmWdlDaP-VrEK98JTvrUq6YKSwUjODs_BEtkJutgR1G1pQEBox4Ghnj_dfcFi9pgN6aQKFaGMc9EuO2oPbnVyCag1F1bzdM16CgoyH6ixfsVZmVEvEwV3pzYGFxQ0JNVXlMOgvE-_pYignodH6v1-tvuvBS6FqAxrkUUeyiPWyzMV4KPrKjp5HmKYsrC8TxTkTfxd0YSzi_HW8U9eAOGGfpehQ8n7RzhZTno4t8ZKmdnQouMZ8JGcG-nMjtx-hS441szEHpt4dmUH3z2b3P9qpjnMjg5J6TQYJSZKuE_mETctNGcKMTuAMRw1O9td-0G4KQc40U55bJ7S8jHMeZA86hP4uNgVyKqXChwMvgFsdh-IScMXLBfmv0j2wNIZfuj2wNIZfmj2wNIbfej2wNIvfSjDwHoZIph3XjIkHBEbeLIQSLboqAfj1YoPQ5Kcg_PSaCgbspPib0gJHIJ9sdLGf6eDTtrRbvVFXgR9vzzMp_9tsme5ZmzJRd_0m00?></g></svg>