<svg xmlns="http://www.w3.org/2000/svg" xmlns:xlink="http://www.w3.org/1999/xlink" contentStyleType="text/css" data-diagram-type="DESCRIPTION" height="665px" preserveAspectRatio="none" style="width:687px;height:665px;background:#FAFAFA;" version="1.1" viewBox="0 0 687 665" width="687px" zoomAndPan="magnify"><title>Repository Synchronization &amp; Git Integration</title><defs/><g><rect fill="#FAFAFA" height="665" style="stroke:none;stroke-width:1;" width="687" x="0" y="0"/><text fill="#000000" font-family="sans-serif" font-size="14" font-weight="bold" lengthAdjust="spacing" textLength="356.2891" x="158.3555" y="22.9951">Repository Synchronization &amp; Git Integration</text><!--cluster Application--><g class="cluster" data-entity="Application" data-source-line="7" data-uid="ent0002" id="cluster_Application"><rect fill="#E8F8FF" height="92" rx="2" ry="2" style="stroke:#0078A0;stroke-width:1;" width="178" x="361" y="44.2969"/><text fill="#000000" font-family="sans-serif" font-size="12" font-weight="bold" lengthAdjust="spacing" textLength="76.541" x="411.7295" y="57.4355">Application</text></g><!--cluster PRC_tEdRzw--><g class="cluster" data-entity="PRC_tEdRzw" data-source-line="11" data-uid="ent0004" id="cluster_PRC_tEdRzw"><rect fill="#E0D8CC" height="243" rx="2" ry="2" style="stroke:#8C7E6A;stroke-width:1;" width="358" x="100" y="168.2969"/><path d="M142.8316,176.4469 L152.2816,176.4469 L152.2816,174.4969 L159.0316,182.2969 L152.2816,190.0969 L152.2816,188.1469 L142.8316,188.1469" fill="#252327"/><text fill="#000000" font-family="sans-serif" font-size="12" font-weight="bold" lengthAdjust="spacing" textLength="251.959" x="167.1094" y="191.4668">Synchronize With Remote Repository</text></g><!--cluster GRP_EVTS--><g class="cluster" data-entity="GRP_EVTS" data-source-line="17" data-uid="ent0008" id="cluster_GRP_EVTS"><rect fill="#EDE8E1" height="108" rx="2" ry="2" style="stroke:#8C7E6A;stroke-width:1;" width="674" x="7" y="451.2969"/><text fill="#000000" font-family="sans-serif" font-size="12" font-weight="bold" lengthAdjust="spacing" textLength="67.623" x="310.1885" y="464.4355">Outcomes</text></g><!--entity APP_tY3JIK--><g class="entity" data-entity="APP_tY3JIK" data-source-line="8" data-uid="ent0003" id="entity_APP_tY3JIK"><rect fill="#CCF2FF" height="44" rx="2" ry="2" style="stroke:#0078A0;stroke-width:0.5;" width="146.0527" x="377" y="76.2969"/><path d="M393,92.5969 L404.1,92.5969 L404.1,103.9969 L393,103.9969" fill="#252327"/><path d="M390.45,93.7219 L393,93.7219 L393,95.6719 L390.45,95.6719" fill="#252327"/><path d="M390.45,97.3219 L393,97.3219 L393,99.2719 L390.45,99.2719" fill="#252327"/><path d="M390.45,100.9219 L393,100.9219 L393,102.8719 L390.45,102.8719" fill="#252327"/><path d="M404.1,93.7219 L406.2,93.7219 L406.2,95.6719 L404.1,95.6719" fill="#252327"/><path d="M404.1,97.3219 L406.2,97.3219 L406.2,99.2719 L404.1,99.2719" fill="#252327"/><path d="M404.1,100.9219 L406.2,100.9219 L406.2,102.8719 L404.1,102.8719" fill="#252327"/><text fill="#000000" font-family="sans-serif" font-size="12" lengthAdjust="spacing" textLength="3.8145" x="411" y="107.4668">&#160;</text><text fill="#000000" font-family="sans-serif" font-size="12" lengthAdjust="spacing" textLength="17.3379" x="414.8145" y="107.4668">Git</text><text fill="#000000" font-family="sans-serif" font-size="12" lengthAdjust="spacing" textLength="3.8145" x="432.1523" y="107.4668">&#160;</text><text fill="#000000" font-family="sans-serif" font-size="12" lengthAdjust="spacing" textLength="28.9219" x="435.9668" y="107.4668">Sync</text><text fill="#000000" font-family="sans-serif" font-size="12" lengthAdjust="spacing" textLength="3.8145" x="464.8887" y="107.4668">&#160;</text><text fill="#000000" font-family="sans-serif" font-size="12" lengthAdjust="spacing" textLength="44.3496" x="468.7031" y="107.4668">Service</text></g><!--entity FNC_91ddSi--><g class="entity" data-entity="FNC_91ddSi" data-source-line="12" data-uid="ent0005" id="entity_FNC_91ddSi"><rect fill="#E0D8CC" height="44" rx="2" ry="2" style="stroke:#8C7E6A;stroke-width:0.5;" width="265.0508" x="124.5" y="219.2969"/><path d="M138.85,246.8469 L138.85,237.3969 L146.5,233.9469 L154.15,237.3969 L154.15,246.8469 L146.5,243.0969" fill="#252327"/><text fill="#000000" font-family="sans-serif" font-size="12" lengthAdjust="spacing" textLength="3.8145" x="158.5" y="250.4668">&#160;</text><text fill="#000000" font-family="sans-serif" font-size="12" lengthAdjust="spacing" textLength="36.9141" x="162.3145" y="250.4668">Check</text><text fill="#000000" font-family="sans-serif" font-size="12" lengthAdjust="spacing" textLength="3.8145" x="199.2285" y="250.4668">&#160;</text><text fill="#000000" font-family="sans-serif" font-size="12" lengthAdjust="spacing" textLength="64.3477" x="203.043" y="250.4668">Repository</text><text fill="#000000" font-family="sans-serif" font-size="12" lengthAdjust="spacing" textLength="3.8145" x="267.3906" y="250.4668">&#160;</text><text fill="#000000" font-family="sans-serif" font-size="12" lengthAdjust="spacing" textLength="66.293" x="271.2051" y="250.4668">Workspace</text><text fill="#000000" font-family="sans-serif" font-size="12" lengthAdjust="spacing" textLength="3.8145" x="337.498" y="250.4668">&#160;</text><text fill="#000000" font-family="sans-serif" font-size="12" lengthAdjust="spacing" textLength="38.2383" x="341.3125" y="250.4668">Status</text></g><!--entity FNC_DGBZ9H--><g class="entity" data-entity="FNC_DGBZ9H" data-source-line="13" data-uid="ent0006" id="entity_FNC_DGBZ9H"><rect fill="#E0D8CC" height="44" rx="2" ry="2" style="stroke:#8C7E6A;stroke-width:0.5;" width="193.4961" x="124.5" y="343.2969"/><path d="M138.85,370.8469 L138.85,361.3969 L146.5,357.9469 L154.15,361.3969 L154.15,370.8469 L146.5,367.0969" fill="#252327"/><text fill="#000000" font-family="sans-serif" font-size="12" lengthAdjust="spacing" textLength="3.8145" x="158.5" y="374.4668">&#160;</text><text fill="#000000" font-family="sans-serif" font-size="12" lengthAdjust="spacing" textLength="21.5098" x="162.3145" y="374.4668">Pull</text><text fill="#000000" font-family="sans-serif" font-size="12" lengthAdjust="spacing" textLength="3.8145" x="183.8242" y="374.4668">&#160;</text><text fill="#000000" font-family="sans-serif" font-size="12" lengthAdjust="spacing" textLength="64.3477" x="187.6387" y="374.4668">Repository</text><text fill="#000000" font-family="sans-serif" font-size="12" lengthAdjust="spacing" textLength="3.8145" x="251.9863" y="374.4668">&#160;</text><text fill="#000000" font-family="sans-serif" font-size="12" lengthAdjust="spacing" textLength="52.1953" x="255.8008" y="374.4668">Changes</text></g><!--entity EVT_UCrh3V--><g class="entity" data-entity="EVT_UCrh3V" data-source-line="18" data-uid="ent0009" id="entity_EVT_UCrh3V"><rect fill="#E0D8CC" height="44" rx="2" ry="2" style="stroke:#8C7E6A;stroke-width:0.5;" width="298.5547" x="313.5" y="491.2969"/><path d="M328.15,507.2969 L336.55,507.2969 A5.7,5.7 0 0 1 336.55,519.2969 L328.15,519.2969 L331.3,513.2969" fill="#252327"/><text fill="#000000" font-family="sans-serif" font-size="12" lengthAdjust="spacing" textLength="3.8145" x="347.5" y="522.4668">&#160;</text><text fill="#000000" font-family="sans-serif" font-size="12" lengthAdjust="spacing" textLength="73.9922" x="351.3145" y="522.4668">Architecture</text><text fill="#000000" font-family="sans-serif" font-size="12" lengthAdjust="spacing" textLength="3.8145" x="425.3066" y="522.4668">&#160;</text><text fill="#000000" font-family="sans-serif" font-size="12" lengthAdjust="spacing" textLength="64.3477" x="429.1211" y="522.4668">Repository</text><text fill="#000000" font-family="sans-serif" font-size="12" lengthAdjust="spacing" textLength="3.8145" x="493.4688" y="522.4668">&#160;</text><text fill="#000000" font-family="sans-serif" font-size="12" lengthAdjust="spacing" textLength="45.9434" x="497.2832" y="522.4668">Change</text><text fill="#000000" font-family="sans-serif" font-size="12" lengthAdjust="spacing" textLength="3.8145" x="543.2266" y="522.4668">&#160;</text><text fill="#000000" font-family="sans-serif" font-size="12" lengthAdjust="spacing" textLength="55.0137" x="547.041" y="522.4668">Detected</text></g><!--entity EVT_iqz9jG--><g class="entity" data-entity="EVT_iqz9jG" data-source-line="19" data-uid="ent0010" id="entity_EVT_iqz9jG"><rect fill="#E0D8CC" height="44" rx="2" ry="2" style="stroke:#8C7E6A;stroke-width:0.5;" width="222.2715" x="31" y="491.2969"/><path d="M45.65,507.2969 L54.05,507.2969 A5.7,5.7 0 0 1 54.05,519.2969 L45.65,519.2969 L48.8,513.2969" fill="#252327"/><text fill="#000000" font-family="sans-serif" font-size="12" lengthAdjust="spacing" textLength="3.8145" x="65" y="522.4668">&#160;</text><text fill="#000000" font-family="sans-serif" font-size="12" lengthAdjust="spacing" textLength="66.293" x="68.8145" y="522.4668">Workspace</text><text fill="#000000" font-family="sans-serif" font-size="12" lengthAdjust="spacing" textLength="3.8145" x="135.1074" y="522.4668">&#160;</text><text fill="#000000" font-family="sans-serif" font-size="12" lengthAdjust="spacing" textLength="45.5215" x="138.9219" y="522.4668">Conflict</text><text fill="#000000" font-family="sans-serif" font-size="12" lengthAdjust="spacing" textLength="3.8145" x="184.4434" y="522.4668">&#160;</text><text fill="#000000" font-family="sans-serif" font-size="12" lengthAdjust="spacing" textLength="55.0137" x="188.2578" y="522.4668">Detected</text></g><!--entity FNC_dxb6ru--><g class="entity" data-entity="FNC_dxb6ru" data-source-line="23" data-uid="ent0012" id="entity_FNC_dxb6ru"><rect fill="#E0D8CC" height="44" rx="2" ry="2" style="stroke:#8C7E6A;stroke-width:0.5;" width="149.2227" x="388.5" y="615.2969"/><path d="M402.85,642.8469 L402.85,633.3969 L410.5,629.9469 L418.15,633.3969 L418.15,642.8469 L410.5,639.0969" fill="#252327"/><text fill="#000000" font-family="sans-serif" font-size="12" lengthAdjust="spacing" textLength="3.8145" x="422.5" y="646.4668">&#160;</text><text fill="#000000" font-family="sans-serif" font-size="12" lengthAdjust="spacing" textLength="33.2461" x="426.3145" y="646.4668">Index</text><text fill="#000000" font-family="sans-serif" font-size="12" lengthAdjust="spacing" textLength="3.8145" x="459.5605" y="646.4668">&#160;</text><text fill="#000000" font-family="sans-serif" font-size="12" lengthAdjust="spacing" textLength="64.3477" x="463.375" y="646.4668">Repository</text></g><!--entity APP_lmO0mp--><g class="entity" data-entity="APP_lmO0mp" data-source-line="25" data-uid="ent0013" id="entity_APP_lmO0mp"><rect fill="#CCF2FF" height="44" rx="2" ry="2" style="stroke:#0078A0;stroke-width:0.5;" width="161.3691" x="61.5" y="615.2969"/><path d="M77.5,631.5969 L88.6,631.5969 L88.6,642.9969 L77.5,642.9969" fill="#252327"/><path d="M74.95,632.7219 L77.5,632.7219 L77.5,634.6719 L74.95,634.6719" fill="#252327"/><path d="M74.95,636.3219 L77.5,636.3219 L77.5,638.2719 L74.95,638.2719" fill="#252327"/><path d="M74.95,639.9219 L77.5,639.9219 L77.5,641.8719 L74.95,641.8719" fill="#252327"/><path d="M88.6,632.7219 L90.7,632.7219 L90.7,634.6719 L88.6,634.6719" fill="#252327"/><path d="M88.6,636.3219 L90.7,636.3219 L90.7,638.2719 L88.6,638.2719" fill="#252327"/><path d="M88.6,639.9219 L90.7,639.9219 L90.7,641.8719 L88.6,641.8719" fill="#252327"/><text fill="#000000" font-family="sans-serif" font-size="12" lengthAdjust="spacing" textLength="3.8145" x="95.5" y="646.4668">&#160;</text><text fill="#000000" font-family="sans-serif" font-size="12" lengthAdjust="spacing" textLength="21.6211" x="99.3145" y="646.4668">GUI</text><text fill="#000000" font-family="sans-serif" font-size="12" lengthAdjust="spacing" textLength="3.8145" x="120.9355" y="646.4668">&#160;</text><text fill="#000000" font-family="sans-serif" font-size="12" lengthAdjust="spacing" textLength="58.957" x="124.75" y="646.4668">Authoring</text><text fill="#000000" font-family="sans-serif" font-size="12" lengthAdjust="spacing" textLength="3.8145" x="183.707" y="646.4668">&#160;</text><text fill="#000000" font-family="sans-serif" font-size="12" lengthAdjust="spacing" textLength="25.3477" x="187.5215" y="646.4668">Tool</text></g><!--link FNC_91ddSi to FNC_DGBZ9H--><!--link FNC_91ddSi to FNC_DGBZ9H--><g class="link" data-entity-1="FNC_91ddSi" data-entity-2="FNC_DGBZ9H" data-source-line="40" data-uid="lnk20" id="link_FNC_91ddSi_FNC_DGBZ9H"><path d="M253.17,263.4669 C253.17,285.8969 253.17,312.3869 253.17,334.9069" fill="none" id="FNC_91ddSi-to-FNC_DGBZ9H" style="stroke:#000000;stroke-width:1;"/><polygon fill="#000000" points="253.17,342.9069,256.17,334.9069,250.17,334.9069,253.17,342.9069" style="stroke:#000000;stroke-width:1;"/><text fill="#000000" font-family="sans-serif" font-size="12" lengthAdjust="spacing" textLength="3.8145" x="249.17" y="300.3255">&#160;</text></g><!--link EVT_UCrh3V to EVT_iqz9jG--><!--link APP_tY3JIK to PRC_tEdRzw--><!--link APP_tY3JIK to PRC_tEdRzw--><g class="link" data-entity-1="APP_tY3JIK" data-entity-2="PRC_tEdRzw" data-source-line="34" data-uid="lnk18" id="link_APP_tY3JIK_PRC_tEdRzw"><path d="M429.17,120.3269 C429.17,130.3544 429.17,142.9287 429.17,156.1498 C429.17,159.4551 429.17,162.8008 429.17,166.1572 C429.17,166.5768 429.17,166.9965 429.17,167.4163 C429.17,167.6263 429.17,149.8362 429.17,150.0462" fill="none" id="APP_tY3JIK-to-PRC_tEdRzw" style="stroke:#000000;stroke-width:1;stroke-dasharray:1.0,3.0;"/><polygon fill="none" points="429.17,168.0462,435.17,150.0462,423.17,150.0462,429.17,168.0462" style="stroke:#000000;stroke-width:1;"/><text fill="#000000" font-family="sans-serif" font-size="12" lengthAdjust="spacing" textLength="3.8145" x="425.17" y="188.1055">&#160;</text></g><!--link PRC_tEdRzw to GRP_EVTS--><!--link EVT_UCrh3V to FNC_dxb6ru--><!--link EVT_UCrh3V to FNC_dxb6ru--><g class="link" data-entity-1="EVT_UCrh3V" data-entity-2="FNC_dxb6ru" data-source-line="45" data-uid="lnk23" id="link_EVT_UCrh3V_FNC_dxb6ru"><path d="M487.83,535.4669 C487.83,557.8969 487.83,584.3869 487.83,606.9069" fill="none" id="EVT_UCrh3V-to-FNC_dxb6ru" style="stroke:#000000;stroke-width:1;"/><polygon fill="#000000" points="487.83,614.9069,490.83,606.9069,484.83,606.9069,487.83,614.9069" style="stroke:#000000;stroke-width:1;"/><text fill="#000000" font-family="sans-serif" font-size="12" lengthAdjust="spacing" textLength="3.8145" x="483.83" y="572.3255">&#160;</text></g><!--link EVT_iqz9jG to APP_lmO0mp--><!--link EVT_iqz9jG to APP_lmO0mp--><g class="link" data-entity-1="EVT_iqz9jG" data-entity-2="APP_lmO0mp" data-source-line="46" data-uid="lnk24" id="link_EVT_iqz9jG_APP_lmO0mp"><path d="M168.83,535.4669 C168.83,557.8969 168.83,584.3869 168.83,606.9069" fill="none" id="EVT_iqz9jG-to-APP_lmO0mp" style="stroke:#000000;stroke-width:1;"/><polygon fill="#000000" points="168.83,614.9069,171.83,606.9069,165.83,606.9069,168.83,614.9069" style="stroke:#000000;stroke-width:1;"/><text fill="#000000" font-family="sans-serif" font-size="12" lengthAdjust="spacing" textLength="3.8145" x="164.83" y="572.3255">&#160;</text></g><!--link APP_tY3JIK to EVT_UCrh3V--><g class="link" data-entity-1="APP_tY3JIK" data-entity-2="EVT_UCrh3V" data-source-line="37" data-uid="lnk19" id="link_APP_tY3JIK_EVT_UCrh3V"><path d="M409.33,120.3169 C409.33,192.0369 409.33,410.4569 409.33,482.8269" fill="none" id="APP_tY3JIK-to-EVT_UCrh3V" style="stroke:#000000;stroke-width:1;"/><polygon fill="#000000" points="409.33,490.8269,412.33,482.8269,406.33,482.8269,409.33,490.8269" style="stroke:#000000;stroke-width:1;"/><text fill="#000000" font-family="sans-serif" font-size="12" lengthAdjust="spacing" textLength="3.8145" x="405.33" y="302.7055">&#160;</text></g><!--link FNC_91ddSi to EVT_iqz9jG--><g class="link" data-entity-1="FNC_91ddSi" data-entity-2="EVT_iqz9jG" data-source-line="41" data-uid="lnk21" id="link_FNC_91ddSi_EVT_iqz9jG"><path d="M124.38,241.2969 C97.74,241.2969 77.75,241.2969 77.75,241.2969 C77.75,241.2969 77.75,418.0769 77.75,483.0369" fill="none" id="FNC_91ddSi-to-EVT_iqz9jG" style="stroke:#000000;stroke-width:1;"/><polygon fill="#000000" points="77.75,491.0369,80.75,483.0369,74.75,483.0369,77.75,491.0369" style="stroke:#000000;stroke-width:1;"/><text fill="#000000" font-family="sans-serif" font-size="12" lengthAdjust="spacing" textLength="3.8145" x="73.75" y="339.9955">&#160;</text></g><!--link FNC_DGBZ9H to EVT_UCrh3V--><g class="link" data-entity-1="FNC_DGBZ9H" data-entity-2="EVT_UCrh3V" data-source-line="42" data-uid="lnk22" id="link_FNC_DGBZ9H_EVT_UCrh3V"><path d="M283.25,387.3269 C283.25,426.9869 283.25,506.2969 283.25,506.2969 C283.25,506.2969 287.38,506.2969 305.34,506.2969" fill="none" id="FNC_DGBZ9H-to-EVT_UCrh3V" style="stroke:#000000;stroke-width:1;"/><polygon fill="#000000" points="313.34,506.2969,305.34,503.2969,305.34,509.2969,313.34,506.2969" style="stroke:#000000;stroke-width:1;"/><text fill="#000000" font-family="sans-serif" font-size="12" lengthAdjust="spacing" textLength="3.8145" x="279.25" y="458.9955">&#160;</text></g><!--SRC=[bPHhJzim58Q_vrUSLTC6KjiDeKq2CQIkGDTD6bNBHTiqHSOvQpmSsxDFW8BuxtEIbhXNnCSsx-ldt5y9nMMU8BJRxs9cUIeoHjXoX1OrJGowjiap6RrQhHlBYKcd4j86ICEL9j8P9C8Y9w5L594WYJ14evqWRISmcYYUMgt4FIiKy0PwWg2l2CUMLPx2pDJO-neTOwJWvVyDE3W8VlQiperGuyD3U8W00i_1wwSOuy3GrPdH2XKzECuaVjffVtWyBE55I312UoCuBb2UJ1x377G6WvX-x7xjVuiUv-8CcGEhEJetXwcpHhWKbFgAP9h2mXJWgRDY3ORTc8wJuVtjfWHFSbLMUexMJP5VXqM_rFRQ6SOHHiGeTmLivgne9z-xyTvEaep42rc3NCeGrKsz4zSGZdgVV-vzyOGQ1wrVgKWILB-j6AVK2dNpDJxDYUkiUjht9PkR0G_e3GVnySNPQ5EvZcyM1w1JV2ElpYqkvm57M7p3f82MvehbEV5vrwQx5ozXrMteQlN7pnXjUb_ykz_xs_Flrx2bOWMwzGEviczzbU3TmlmjDoovk_feyxKlFxzUvttev9Hgwzi4PrhBvnTCPgVlCnD5RykhO5kIJT02ymkahOlg5QoBaUXRrGeM9WfsPq4q6v9eLL4hIP1tNTv5qNoWGsHoUj3sbquAYCn8p7oE3YX5SCKtKwrwD4GP1-wjEhrca50J6etj0hJ5jk54I7GJVwKpk6N4Kp2CqdrmKrfIJfG3gNqVW5TZN5raEIbvPtvunbXqP0vNLwJ6NMtFBbKLTKdYvNbnvILf5YafCCKLq1Oi4mw1JwTxaLPlVJDOyugsGLftOQrqzjAA78vylnnPP1dewGLPV25qrTrV2GjZgMUWalu7]--></g></svg>