<svg xmlns="http://www.w3.org/2000/svg" xmlns:xlink="http://www.w3.org/1999/xlink" contentStyleType="text/css" data-diagram-type="DESCRIPTION" height="921px" preserveAspectRatio="none" style="width:2244px;height:921px;background:#FAFAFA;" version="1.1" viewBox="0 0 2244 921" width="2244px" zoomAndPan="magnify"><title>Architecture Modelling &amp; Planning -- Workflow</title><defs/><g><rect fill="#FAFAFA" height="921" style="stroke:none;stroke-width:1;" width="2244" x="0" y="0"/><text fill="#000000" font-family="sans-serif" font-size="14" font-weight="bold" lengthAdjust="spacing" textLength="367.9443" x="931.0278" y="22.9951">Architecture Modelling &amp; Planning -- Workflow</text><!--cluster Motivation--><g class="cluster" data-entity="Motivation" data-source-line="7" data-uid="ent0002" id="cluster_Motivation"><rect fill="#F7EEF9" height="92" rx="2" ry="2" style="stroke:#7B3F9A;stroke-width:1;" width="946" x="1292" y="540.2969"/><text fill="#000000" font-family="sans-serif" font-size="12" font-weight="bold" lengthAdjust="spacing" textLength="72.5918" x="1728.7041" y="553.4355">Motivation</text></g><!--cluster Business--><g class="cluster" data-entity="Business" data-source-line="13" data-uid="ent0006" id="cluster_Business"><rect fill="#FFFDEC" height="92" rx="2" ry="2" style="stroke:#B8860B;stroke-width:1;" width="356" x="70" y="44.2969"/><text fill="#000000" font-family="sans-serif" font-size="12" font-weight="bold" lengthAdjust="spacing" textLength="59.9121" x="218.0439" y="57.4355">Business</text></g><!--cluster Common--><g class="cluster" data-entity="Common" data-source-line="18" data-uid="ent0009" id="cluster_Common"><rect fill="#EDE8E1" height="628" rx="2" ry="2" style="stroke:#8C7E6A;stroke-width:1;" width="1261" x="7" y="168.2969"/><text fill="#000000" font-family="sans-serif" font-size="12" font-weight="bold" lengthAdjust="spacing" textLength="58.8457" x="608.0771" y="181.4355">Common</text></g><!--cluster PRC_U4aAdh--><g class="cluster" data-entity="PRC_U4aAdh" data-source-line="21" data-uid="ent0012" id="cluster_PRC_U4aAdh"><rect fill="#E0D8CC" height="491" rx="2" ry="2" style="stroke:#8C7E6A;stroke-width:1;" width="277" x="39" y="273.2969"/><path d="M50.8004,281.4469 L60.2504,281.4469 L60.2504,279.4969 L67.0004,287.2969 L60.2504,295.0969 L60.2504,293.1469 L50.8004,293.1469" fill="#252327"/><text fill="#000000" font-family="sans-serif" font-size="12" font-weight="bold" lengthAdjust="spacing" textLength="233.0215" x="75.0781" y="296.4668">Architecture Modelling &amp; Planning</text></g><!--cluster Application--><g class="cluster" data-entity="Application" data-source-line="33" data-uid="ent0021" id="cluster_Application"><rect fill="#E8F8FF" height="92" rx="2" ry="2" style="stroke:#0078A0;stroke-width:1;" width="813" x="522" y="820.2969"/><text fill="#000000" font-family="sans-serif" font-size="12" font-weight="bold" lengthAdjust="spacing" textLength="76.541" x="890.2295" y="833.4355">Application</text></g><!--entity GOL_5Fk9di--><g class="entity" data-entity="GOL_5Fk9di" data-source-line="8" data-uid="ent0003" id="entity_GOL_5Fk9di"><rect fill="#EDD6F0" height="44" rx="2" ry="2" style="stroke:#7B3F9A;stroke-width:0.5;" width="302.2227" x="1632" y="572.2969"/><ellipse cx="1654" cy="594.2969" fill="none" rx="7.2" ry="7.2" style="stroke:#252327;stroke-width:1.95;"/><ellipse cx="1654" cy="594.2969" fill="none" rx="4.35" ry="4.35" style="stroke:#252327;stroke-width:1.95;"/><ellipse cx="1654" cy="594.2969" fill="#252327" rx="1.95" ry="1.95" style="stroke:#252327;stroke-width:0.5;"/><text fill="#000000" font-family="sans-serif" font-size="12" lengthAdjust="spacing" textLength="254.4082" x="1669.8145" y="603.4668">Support Architecture Planning for Humans</text></g><!--entity GOL_Iwha3--><g class="entity" data-entity="GOL_Iwha3" data-source-line="9" data-uid="ent0004" id="entity_GOL_Iwha3"><rect fill="#EDD6F0" height="44" rx="2" ry="2" style="stroke:#7B3F9A;stroke-width:0.5;" width="264.4414" x="1308" y="572.2969"/><ellipse cx="1330" cy="594.2969" fill="none" rx="7.2" ry="7.2" style="stroke:#252327;stroke-width:1.95;"/><ellipse cx="1330" cy="594.2969" fill="none" rx="4.35" ry="4.35" style="stroke:#252327;stroke-width:1.95;"/><ellipse cx="1330" cy="594.2969" fill="#252327" rx="1.95" ry="1.95" style="stroke:#252327;stroke-width:0.5;"/><text fill="#000000" font-family="sans-serif" font-size="12" lengthAdjust="spacing" textLength="216.627" x="1345.8145" y="603.4668">Support Architecture Planning for AI</text></g><!--entity REQ_fLpCKU--><g class="entity" data-entity="REQ_fLpCKU" data-source-line="10" data-uid="ent0005" id="entity_REQ_fLpCKU"><rect fill="#EDD6F0" height="44" rx="2" ry="2" style="stroke:#7B3F9A;stroke-width:0.5;" width="228.1016" x="1994" y="572.2969"/><path d="M2010.6,588.5969 L2022.6,588.5969 L2020.2,599.9969 L2008.2,599.9969" fill="#252327"/><text fill="#000000" font-family="sans-serif" font-size="12" lengthAdjust="spacing" textLength="180.2871" x="2031.8145" y="603.4668">Concurrent Tool-Call Handling</text></g><!--entity ACT_Nn7Oo7--><g class="entity" data-entity="ACT_Nn7Oo7" data-source-line="14" data-uid="ent0007" id="entity_ACT_Nn7Oo7"><rect fill="#FFFAC8" height="44" rx="2" ry="2" style="stroke:#B8860B;stroke-width:0.5;" width="101.8848" x="308" y="76.2969"/><ellipse cx="330" cy="92.2969" fill="none" rx="2.85" ry="2.85" style="stroke:#252327;stroke-width:1.95;"/><path d="M329.025,95.1469 L329.025,101.2969 L330.975,101.2969 L330.975,95.1469" fill="#252327"/><path d="M326.52,106.6069 L325.08,105.2869 L329.28,100.6369 L330.72,101.9569" fill="#252327"/><path d="M329.28,101.9569 L330.72,100.6369 L334.92,105.2869 L333.48,106.6069" fill="#252327"/><path d="M325.5,97.4719 L334.5,97.4719 L334.5,99.4219 L325.5,99.4219" fill="#252327"/><text fill="#000000" font-family="sans-serif" font-size="12" lengthAdjust="spacing" textLength="54.0703" x="345.8145" y="107.4668">Architect</text></g><!--entity ACT_CUvO_l--><g class="entity" data-entity="ACT_CUvO_l" data-source-line="15" data-uid="ent0008" id="entity_ACT_CUvO_l"><rect fill="#FFFAC8" height="44" rx="2" ry="2" style="stroke:#B8860B;stroke-width:0.5;" width="162.4414" x="86" y="76.2969"/><ellipse cx="108" cy="92.2969" fill="none" rx="2.85" ry="2.85" style="stroke:#252327;stroke-width:1.95;"/><path d="M107.025,95.1469 L107.025,101.2969 L108.975,101.2969 L108.975,95.1469" fill="#252327"/><path d="M104.52,106.6069 L103.08,105.2869 L107.28,100.6369 L108.72,101.9569" fill="#252327"/><path d="M107.28,101.9569 L108.72,100.6369 L112.92,105.2869 L111.48,106.6069" fill="#252327"/><path d="M103.5,97.4719 L112.5,97.4719 L112.5,99.4219 L103.5,99.4219" fill="#252327"/><text fill="#000000" font-family="sans-serif" font-size="12" lengthAdjust="spacing" textLength="114.627" x="123.8145" y="107.4668">AI Language Model</text></g><!--entity ROL_deMuTj--><g class="entity" data-entity="ROL_deMuTj" data-source-line="19" data-uid="ent0010" id="entity_ROL_deMuTj"><rect fill="#E0D8CC" height="44" rx="2" ry="2" style="stroke:#8C7E6A;stroke-width:0.5;" width="88.2148" x="296" y="200.2969"/><path d="M310.5,215.5469 L322.2,215.5469 A3,3 0 0 1 325.2,218.5469 L325.2,226.0469 A3,3 0 0 1 322.2,229.0469 L310.5,229.0469" fill="#252327"/><text fill="#000000" font-family="sans-serif" font-size="12" lengthAdjust="spacing" textLength="40.4004" x="333.8145" y="231.4668">Author</text></g><!--entity ROL_udXPfB--><g class="entity" data-entity="ROL_udXPfB" data-source-line="20" data-uid="ent0011" id="entity_ROL_udXPfB"><rect fill="#E0D8CC" height="44" rx="2" ry="2" style="stroke:#8C7E6A;stroke-width:0.5;" width="98.8965" x="136.5" y="200.2969"/><path d="M151,215.5469 L162.7,215.5469 A3,3 0 0 1 165.7,218.5469 L165.7,226.0469 A3,3 0 0 1 162.7,229.0469 L151,229.0469" fill="#252327"/><text fill="#000000" font-family="sans-serif" font-size="12" lengthAdjust="spacing" textLength="51.082" x="174.3145" y="231.4668">AI Agent</text></g><!--entity SRV_Au1Th1--><g class="entity" data-entity="SRV_Au1Th1" data-source-line="27" data-uid="ent0017" id="entity_SRV_Au1Th1"><rect fill="#E0D8CC" height="44" rx="2" ry="2" style="stroke:#8C7E6A;stroke-width:0.5;" width="154.9355" x="834.5" y="696.2969"/><path d="M849.3,712.4469 L860.1,712.4469 A4.2,4.2 0 0 1 860.1,724.1469 L849.3,724.1469 A4.2,4.2 0 0 1 849.3,712.4469" fill="#252327"/><text fill="#000000" font-family="sans-serif" font-size="12" lengthAdjust="spacing" textLength="107.1211" x="872.3145" y="727.4668">Authoring Service</text></g><!--entity SRV_Qr8St8--><g class="entity" data-entity="SRV_Qr8St8" data-source-line="28" data-uid="ent0018" id="entity_SRV_Qr8St8"><rect fill="#E0D8CC" height="44" rx="2" ry="2" style="stroke:#8C7E6A;stroke-width:0.5;" width="202.8828" x="1049.5" y="696.2969"/><path d="M1064.3,712.4469 L1075.1,712.4469 A4.2,4.2 0 0 1 1075.1,724.1469 L1064.3,724.1469 A4.2,4.2 0 0 1 1064.3,712.4469" fill="#252327"/><text fill="#000000" font-family="sans-serif" font-size="12" lengthAdjust="spacing" textLength="155.0684" x="1087.3145" y="727.4668">Discovery &amp; Stats Service</text></g><!--entity SRV_Ij6Kl6--><g class="entity" data-entity="SRV_Ij6Kl6" data-source-line="29" data-uid="ent0019" id="entity_SRV_Ij6Kl6"><rect fill="#E0D8CC" height="44" rx="2" ry="2" style="stroke:#8C7E6A;stroke-width:0.5;" width="156.166" x="618" y="696.2969"/><path d="M632.8,712.4469 L643.6,712.4469 A4.2,4.2 0 0 1 643.6,724.1469 L632.8,724.1469 A4.2,4.2 0 0 1 632.8,712.4469" fill="#252327"/><text fill="#000000" font-family="sans-serif" font-size="12" lengthAdjust="spacing" textLength="108.3516" x="655.8145" y="727.4668">Validation Service</text></g><!--entity SRV_AIGnSY--><g class="entity" data-entity="SRV_AIGnSY" data-source-line="30" data-uid="ent0020" id="entity_SRV_AIGnSY"><rect fill="#E0D8CC" height="44" rx="2" ry="2" style="stroke:#8C7E6A;stroke-width:0.5;" width="218.1816" x="340" y="696.2969"/><path d="M354.8,712.4469 L365.6,712.4469 A4.2,4.2 0 0 1 365.6,724.1469 L354.8,724.1469 A4.2,4.2 0 0 1 354.8,712.4469" fill="#252327"/><text fill="#000000" font-family="sans-serif" font-size="12" lengthAdjust="spacing" textLength="170.3672" x="377.8145" y="727.4668">Diagram Scaffolding Service</text></g><!--entity PRC_vGhe4Z--><g class="entity" data-entity="PRC_vGhe4Z" data-source-line="22" data-uid="ent0013" id="entity_PRC_vGhe4Z"><rect fill="#E0D8CC" height="44" rx="2" ry="2" style="stroke:#8C7E6A;stroke-width:0.5;" width="124.127" x="124" y="324.2969"/><path d="M137.9,340.4469 L147.35,340.4469 L147.35,338.4969 L154.1,346.2969 L147.35,354.0969 L147.35,352.1469 L137.9,352.1469" fill="#252327"/><text fill="#000000" font-family="sans-serif" font-size="12" lengthAdjust="spacing" textLength="76.3125" x="161.8145" y="355.4668">Query Model</text></g><!--entity PRC_0NPVDb--><g class="entity" data-entity="PRC_0NPVDb" data-source-line="23" data-uid="ent0014" id="entity_PRC_0NPVDb"><rect fill="#E0D8CC" height="44" rx="2" ry="2" style="stroke:#8C7E6A;stroke-width:0.5;" width="175.9355" x="98" y="448.2969"/><path d="M111.9,464.4469 L121.35,464.4469 L121.35,462.4969 L128.1,470.2969 L121.35,478.0969 L121.35,476.1469 L111.9,476.1469" fill="#252327"/><text fill="#000000" font-family="sans-serif" font-size="12" lengthAdjust="spacing" textLength="128.1211" x="135.8145" y="479.4668">Author Model Artifact</text></g><!--entity PRC_oLRrwL--><g class="entity" data-entity="PRC_oLRrwL" data-source-line="24" data-uid="ent0015" id="entity_PRC_oLRrwL"><rect fill="#E0D8CC" height="44" rx="2" ry="2" style="stroke:#8C7E6A;stroke-width:0.5;" width="122.8438" x="124.5" y="572.2969"/><path d="M138.4,588.4469 L147.85,588.4469 L147.85,586.4969 L154.6,594.2969 L147.85,602.0969 L147.85,600.1469 L138.4,600.1469" fill="#252327"/><text fill="#000000" font-family="sans-serif" font-size="12" lengthAdjust="spacing" textLength="75.0293" x="162.3145" y="603.4668">Verify Model</text></g><!--entity PRC_vOWkdL--><g class="entity" data-entity="PRC_vOWkdL" data-source-line="25" data-uid="ent0016" id="entity_PRC_vOWkdL"><rect fill="#E0D8CC" height="44" rx="2" ry="2" style="stroke:#8C7E6A;stroke-width:0.5;" width="151.4609" x="110.5" y="696.2969"/><path d="M124.4,712.4469 L133.85,712.4469 L133.85,710.4969 L140.6,718.2969 L133.85,726.0969 L133.85,724.1469 L124.4,724.1469" fill="#252327"/><text fill="#000000" font-family="sans-serif" font-size="12" lengthAdjust="spacing" textLength="103.6465" x="148.3145" y="727.4668">Scaffold Diagram</text></g><!--entity APP_v9LvfK--><g class="entity" data-entity="APP_v9LvfK" data-source-line="34" data-uid="ent0022" id="entity_APP_v9LvfK"><rect fill="#CCF2FF" height="44" rx="2" ry="2" style="stroke:#0078A0;stroke-width:0.5;" width="129.2246" x="953.5" y="852.2969"/><path d="M969.5,868.5969 L980.6,868.5969 L980.6,879.9969 L969.5,879.9969" fill="#252327"/><path d="M966.95,869.7219 L969.5,869.7219 L969.5,871.6719 L966.95,871.6719" fill="#252327"/><path d="M966.95,873.3219 L969.5,873.3219 L969.5,875.2719 L966.95,875.2719" fill="#252327"/><path d="M966.95,876.9219 L969.5,876.9219 L969.5,878.8719 L966.95,878.8719" fill="#252327"/><path d="M980.6,869.7219 L982.7,869.7219 L982.7,871.6719 L980.6,871.6719" fill="#252327"/><path d="M980.6,873.3219 L982.7,873.3219 L982.7,875.2719 L980.6,875.2719" fill="#252327"/><path d="M980.6,876.9219 L982.7,876.9219 L982.7,878.8719 L980.6,878.8719" fill="#252327"/><text fill="#000000" font-family="sans-serif" font-size="12" lengthAdjust="spacing" textLength="81.4102" x="991.3145" y="883.4668">Query Engine</text></g><!--entity APP_ca3vm7--><g class="entity" data-entity="APP_ca3vm7" data-source-line="35" data-uid="ent0023" id="entity_APP_ca3vm7"><rect fill="#CCF2FF" height="44" rx="2" ry="2" style="stroke:#0078A0;stroke-width:0.5;" width="131.3926" x="762.5" y="852.2969"/><path d="M778.5,868.5969 L789.6,868.5969 L789.6,879.9969 L778.5,879.9969" fill="#252327"/><path d="M775.95,869.7219 L778.5,869.7219 L778.5,871.6719 L775.95,871.6719" fill="#252327"/><path d="M775.95,873.3219 L778.5,873.3219 L778.5,875.2719 L775.95,875.2719" fill="#252327"/><path d="M775.95,876.9219 L778.5,876.9219 L778.5,878.8719 L775.95,878.8719" fill="#252327"/><path d="M789.6,869.7219 L791.7,869.7219 L791.7,871.6719 L789.6,871.6719" fill="#252327"/><path d="M789.6,873.3219 L791.7,873.3219 L791.7,875.2719 L789.6,875.2719" fill="#252327"/><path d="M789.6,876.9219 L791.7,876.9219 L791.7,878.8719 L789.6,878.8719" fill="#252327"/><text fill="#000000" font-family="sans-serif" font-size="12" lengthAdjust="spacing" textLength="83.5781" x="800.3145" y="883.4668">Model Verifier</text></g><!--entity APP_SCKD2U--><g class="entity" data-entity="APP_SCKD2U" data-source-line="36" data-uid="ent0024" id="entity_APP_SCKD2U"><rect fill="#CCF2FF" height="44" rx="2" ry="2" style="stroke:#0078A0;stroke-width:0.5;" width="163.7773" x="538" y="852.2969"/><path d="M554,868.5969 L565.1,868.5969 L565.1,879.9969 L554,879.9969" fill="#252327"/><path d="M551.45,869.7219 L554,869.7219 L554,871.6719 L551.45,871.6719" fill="#252327"/><path d="M551.45,873.3219 L554,873.3219 L554,875.2719 L551.45,875.2719" fill="#252327"/><path d="M551.45,876.9219 L554,876.9219 L554,878.8719 L551.45,878.8719" fill="#252327"/><path d="M565.1,869.7219 L567.2,869.7219 L567.2,871.6719 L565.1,871.6719" fill="#252327"/><path d="M565.1,873.3219 L567.2,873.3219 L567.2,875.2719 L565.1,875.2719" fill="#252327"/><path d="M565.1,876.9219 L567.2,876.9219 L567.2,878.8719 L565.1,878.8719" fill="#252327"/><text fill="#000000" font-family="sans-serif" font-size="12" lengthAdjust="spacing" textLength="115.9629" x="575.8145" y="883.4668">Diagram Scaffolder</text></g><!--entity APP_a9k_mJ--><g class="entity" data-entity="APP_a9k_mJ" data-source-line="37" data-uid="ent0025" id="entity_APP_a9k_mJ"><rect fill="#CCF2FF" height="44" rx="2" ry="2" style="stroke:#0078A0;stroke-width:0.5;" width="176.3691" x="1143" y="852.2969"/><path d="M1159,868.5969 L1170.1,868.5969 L1170.1,879.9969 L1159,879.9969" fill="#252327"/><path d="M1156.45,869.7219 L1159,869.7219 L1159,871.6719 L1156.45,871.6719" fill="#252327"/><path d="M1156.45,873.3219 L1159,873.3219 L1159,875.2719 L1156.45,875.2719" fill="#252327"/><path d="M1156.45,876.9219 L1159,876.9219 L1159,878.8719 L1156.45,878.8719" fill="#252327"/><path d="M1170.1,869.7219 L1172.2,869.7219 L1172.2,871.6719 L1170.1,871.6719" fill="#252327"/><path d="M1170.1,873.3219 L1172.2,873.3219 L1172.2,875.2719 L1170.1,875.2719" fill="#252327"/><path d="M1170.1,876.9219 L1172.2,876.9219 L1172.2,878.8719 L1170.1,878.8719" fill="#252327"/><text fill="#000000" font-family="sans-serif" font-size="12" lengthAdjust="spacing" textLength="128.5547" x="1180.8145" y="883.4668">Write Request Queue</text></g><!--link GOL_5Fk9di to GOL_Iwha3--><!--link GOL_Iwha3 to REQ_fLpCKU--><!--link ACT_Nn7Oo7 to ACT_CUvO_l--><!--link ROL_deMuTj to ROL_udXPfB--><!--link ROL_udXPfB to PRC_vGhe4Z--><!--link PRC_vGhe4Z to PRC_0NPVDb--><!--link PRC_vGhe4Z to PRC_0NPVDb--><g class="link" data-entity-1="PRC_vGhe4Z" data-entity-2="PRC_0NPVDb" data-source-line="67" data-uid="lnk47" id="link_PRC_vGhe4Z_PRC_0NPVDb"><path d="M206.67,368.4669 C206.67,390.8969 206.67,419.3869 206.67,441.9069" fill="none" id="PRC_vGhe4Z-to-PRC_0NPVDb" style="stroke:#181818;stroke-width:1;"/><polygon fill="#181818" points="206.67,447.9069,210.67,438.9069,206.67,442.9069,202.67,438.9069,206.67,447.9069" style="stroke:#181818;stroke-width:1;"/><text fill="#000000" font-family="sans-serif" font-size="12" lengthAdjust="spacing" textLength="76.3887" x="129.67" y="405.3255">&#171;Triggering&#187;</text></g><!--link PRC_0NPVDb to PRC_oLRrwL--><!--link PRC_0NPVDb to PRC_oLRrwL--><g class="link" data-entity-1="PRC_0NPVDb" data-entity-2="PRC_oLRrwL" data-source-line="68" data-uid="lnk48" id="link_PRC_0NPVDb_PRC_oLRrwL"><path d="M206.5,492.4669 C206.5,514.8969 206.5,543.3869 206.5,565.9069" fill="none" id="PRC_0NPVDb-to-PRC_oLRrwL" style="stroke:#181818;stroke-width:1;"/><polygon fill="#181818" points="206.5,571.9069,210.5,562.9069,206.5,566.9069,202.5,562.9069,206.5,571.9069" style="stroke:#181818;stroke-width:1;"/><text fill="#000000" font-family="sans-serif" font-size="12" lengthAdjust="spacing" textLength="76.3887" x="129.5" y="529.3255">&#171;Triggering&#187;</text></g><!--link PRC_oLRrwL to PRC_vOWkdL--><!--link PRC_oLRrwL to PRC_vOWkdL--><g class="link" data-entity-1="PRC_oLRrwL" data-entity-2="PRC_vOWkdL" data-source-line="69" data-uid="lnk49" id="link_PRC_oLRrwL_PRC_vOWkdL"><path d="M206.5,616.4669 C206.5,638.8969 206.5,667.3869 206.5,689.9069" fill="none" id="PRC_oLRrwL-to-PRC_vOWkdL" style="stroke:#181818;stroke-width:1;"/><polygon fill="#181818" points="206.5,695.9069,210.5,686.9069,206.5,690.9069,202.5,686.9069,206.5,695.9069" style="stroke:#181818;stroke-width:1;"/><text fill="#000000" font-family="sans-serif" font-size="12" lengthAdjust="spacing" textLength="76.3887" x="129.5" y="653.3255">&#171;Triggering&#187;</text></g><!--link PRC_vOWkdL to SRV_Au1Th1--><!--link SRV_Au1Th1 to SRV_Qr8St8--><!--link SRV_Qr8St8 to SRV_Ij6Kl6--><!--link SRV_Ij6Kl6 to SRV_AIGnSY--><!--link APP_v9LvfK to APP_ca3vm7--><!--link APP_ca3vm7 to APP_SCKD2U--><!--link APP_SCKD2U to APP_a9k_mJ--><!--link PRC_U4aAdh to GOL_5Fk9di--><g class="link" data-entity-1="PRC_U4aAdh" data-entity-2="GOL_5Fk9di" data-source-line="61" data-uid="lnk41" id="link_PRC_U4aAdh_GOL_5Fk9di"><path d="M317.0912,335.2969 C319.151,335.2969 321.5372,335.2969 324.2386,335.2969 C335.0443,335.2969 350.8926,335.2969 371.0631,335.2969 C411.4041,335.2969 469.0342,335.2969 538.1903,335.2969 C676.5025,335.2969 860.9188,335.2969 1045.335,335.2969 C1414.1675,335.2969 1783,335.2969 1783,335.2969 C1783,335.2969 1783,503.5769 1783,566.2169" fill="none" id="PRC_U4aAdh-to-GOL_5Fk9di" style="stroke:#181818;stroke-width:1;stroke-dasharray:7.0,7.0;"/><polygon fill="#181818" points="1783,572.2169,1787,563.2169,1783,567.2169,1779,563.2169,1783,572.2169" style="stroke:#181818;stroke-width:1;"/><text fill="#000000" font-family="sans-serif" font-size="12" lengthAdjust="spacing" textLength="69.9609" x="1088.53" y="332.4355">&#171;Influence&#187;</text></g><!--link PRC_U4aAdh to GOL_Iwha3--><g class="link" data-entity-1="PRC_U4aAdh" data-entity-2="GOL_Iwha3" data-source-line="62" data-uid="lnk42" id="link_PRC_U4aAdh_GOL_Iwha3"><path d="M316.4408,594.2969 C317.3249,594.2969 318.2463,594.2969 319.2044,594.2969 C323.0369,594.2969 327.4572,594.2969 332.4313,594.2969 C352.328,594.2969 381.0866,594.2969 416.5345,594.2969 C487.4303,594.2969 585.0831,594.2969 692.1113,594.2969 C906.1675,594.2969 1151.725,594.2969 1301.73,594.2969" fill="none" id="PRC_U4aAdh-to-GOL_Iwha3" style="stroke:#181818;stroke-width:1;stroke-dasharray:7.0,7.0;"/><polygon fill="#181818" points="1307.73,594.2969,1298.73,590.2969,1302.73,594.2969,1298.73,598.2969,1307.73,594.2969" style="stroke:#181818;stroke-width:1;"/><text fill="#000000" font-family="sans-serif" font-size="12" lengthAdjust="spacing" textLength="69.9609" x="607.66" y="591.4355">&#171;Influence&#187;</text></g><!--link ACT_Nn7Oo7 to ROL_deMuTj--><g class="link" data-entity-1="ACT_Nn7Oo7" data-entity-2="ROL_deMuTj" data-source-line="63" data-uid="lnk43" id="link_ACT_Nn7Oo7_ROL_deMuTj"><path d="M346,120.4669 C346,142.8969 346,177.3869 346,199.9069" fill="none" id="ACT_Nn7Oo7-ROL_deMuTj" style="stroke:#181818;stroke-width:1;"/><text fill="#000000" font-family="sans-serif" font-size="12" lengthAdjust="spacing" textLength="85.3359" x="260" y="157.3255">&#171;Assignment&#187;</text></g><!--link ACT_CUvO_l to ROL_udXPfB--><g class="link" data-entity-1="ACT_CUvO_l" data-entity-2="ROL_udXPfB" data-source-line="64" data-uid="lnk44" id="link_ACT_CUvO_l_ROL_udXPfB"><path d="M186,120.4669 C186,142.8969 186,177.3869 186,199.9069" fill="none" id="ACT_CUvO_l-ROL_udXPfB" style="stroke:#181818;stroke-width:1;"/><text fill="#000000" font-family="sans-serif" font-size="12" lengthAdjust="spacing" textLength="85.3359" x="100" y="157.3255">&#171;Assignment&#187;</text></g><!--link ROL_deMuTj to PRC_U4aAdh--><g class="link" data-entity-1="ROL_deMuTj" data-entity-2="PRC_U4aAdh" data-source-line="65" data-uid="lnk45" id="link_ROL_deMuTj_PRC_U4aAdh"><path d="M308.33,244.4669 C308.33,248.7856 308.33,253.5516 308.33,258.5931 C308.33,261.1138 308.33,263.7035 308.33,266.3405 C308.33,267.6591 308.33,268.9895 308.33,270.3291 C308.33,270.9989 308.33,271.6709 308.33,272.345 C308.33,272.5135 308.33,272.6821 308.33,272.8509" fill="none" id="ROL_deMuTj-PRC_U4aAdh" style="stroke:#181818;stroke-width:1;"/><text fill="#000000" font-family="sans-serif" font-size="12" lengthAdjust="spacing" textLength="85.3359" x="309.33" y="292.4255">&#171;Assignment&#187;</text></g><!--link ROL_udXPfB to PRC_U4aAdh--><g class="link" data-entity-1="ROL_udXPfB" data-entity-2="PRC_U4aAdh" data-source-line="66" data-uid="lnk46" id="link_ROL_udXPfB_PRC_U4aAdh"><path d="M235.61,230.2969 C249.56,230.2969 261,230.2969 261,230.2969 C261,230.2969 261,237.6094 261,248.5781 C261,254.0625 261,260.4609 261,267.3164 C261,269.0303 261,270.7727 261,272.5366 C261,272.757 261,272.9779 261,273.199" fill="none" id="ROL_udXPfB-PRC_U4aAdh" style="stroke:#181818;stroke-width:1;"/><text fill="#000000" font-family="sans-serif" font-size="12" lengthAdjust="spacing" textLength="85.3359" x="175" y="311.6755">&#171;Assignment&#187;</text></g><!--link PRC_U4aAdh to SRV_Au1Th1--><g class="link" data-entity-1="PRC_U4aAdh" data-entity-2="SRV_Au1Th1" data-source-line="70" data-uid="lnk50" id="link_PRC_U4aAdh_SRV_Au1Th1"><path d="M316.3393,346.2969 C316.9397,346.2969 317.5709,346.2969 318.2324,346.2969 C323.5237,346.2969 330.7485,346.2969 339.6254,346.2969 C357.3793,346.2969 381.7418,346.2969 410.4623,346.2969 C467.9034,346.2969 542.7769,346.2969 617.0788,346.2969 C765.6825,346.2969 912,346.2969 912,346.2969 C912,346.2969 912,598.0569 912,678.1369" fill="none" id="PRC_U4aAdh-to-SRV_Au1Th1" style="stroke:#181818;stroke-width:1;stroke-dasharray:7.0,7.0;"/><polygon fill="none" points="912,696.1369,918,678.1369,906,678.1369,912,696.1369" style="stroke:#181818;stroke-width:1;"/></g><!--link PRC_U4aAdh to SRV_Qr8St8--><g class="link" data-entity-1="PRC_U4aAdh" data-entity-2="SRV_Qr8St8" data-source-line="71" data-uid="lnk51" id="link_PRC_U4aAdh_SRV_Qr8St8"><path d="M316.0167,358.2969 C316.3802,358.2969 316.7549,358.2969 317.141,358.2969 C323.3177,358.2969 332.3769,358.2969 343.9068,358.2969 C366.9666,358.2969 399.9092,358.2969 439.4403,358.2969 C518.5025,358.2969 623.9188,358.2969 729.335,358.2969 C940.1675,358.2969 1151,358.2969 1151,358.2969 C1151,358.2969 1151,599.5569 1151,678.0469" fill="none" id="PRC_U4aAdh-to-SRV_Qr8St8" style="stroke:#181818;stroke-width:1;stroke-dasharray:7.0,7.0;"/><polygon fill="none" points="1151,696.0469,1157,678.0469,1145,678.0469,1151,696.0469" style="stroke:#181818;stroke-width:1;"/></g><!--link PRC_U4aAdh to SRV_Ij6Kl6--><g class="link" data-entity-1="PRC_U4aAdh" data-entity-2="SRV_Ij6Kl6" data-source-line="72" data-uid="lnk52" id="link_PRC_U4aAdh_SRV_Ij6Kl6"><path d="M316.711,347.2969 C316.9554,347.2969 317.2045,347.2969 317.4584,347.2969 C317.9662,347.2969 318.493,347.2969 319.0383,347.2969 C321.2198,347.2969 323.699,347.2969 326.4529,347.2969 C337.4685,347.2969 352.8785,347.2969 371.2027,347.2969 C407.8509,347.2969 456.1556,347.2969 504.2738,347.2969 C600.51,347.2969 696,347.2969 696,347.2969 C696,347.2969 696,598.3269 696,678.1969" fill="none" id="PRC_U4aAdh-to-SRV_Ij6Kl6" style="stroke:#181818;stroke-width:1;stroke-dasharray:7.0,7.0;"/><polygon fill="none" points="696,696.1969,702,678.1969,690,678.1969,696,696.1969" style="stroke:#181818;stroke-width:1;"/></g><!--link PRC_U4aAdh to SRV_AIGnSY--><g class="link" data-entity-1="PRC_U4aAdh" data-entity-2="SRV_AIGnSY" data-source-line="73" data-uid="lnk53" id="link_PRC_U4aAdh_SRV_AIGnSY"><path d="M316.0906,718.2969 C316.1318,718.2969 316.1731,718.2969 316.2146,718.2969 C316.5465,718.2969 316.8875,718.2969 317.2375,718.2969 C322.8375,718.2969 312.73,718.2969 321.9,718.2969" fill="none" id="PRC_U4aAdh-to-SRV_AIGnSY" style="stroke:#181818;stroke-width:1;stroke-dasharray:7.0,7.0;"/><polygon fill="none" points="339.9,718.2969,321.9,712.2969,321.9,724.2969,339.9,718.2969" style="stroke:#181818;stroke-width:1;"/></g><!--reverse link REQ_fLpCKU to SRV_Au1Th1--><g class="link" data-entity-1="REQ_fLpCKU" data-entity-2="SRV_Au1Th1" data-source-line="74" data-uid="lnk55" id="link_REQ_fLpCKU_SRV_Au1Th1"><path d="M2039.6,634.7069 C2039.6,658.9869 2039.6,676.2969 2039.6,676.2969 C2039.6,676.2969 950.75,676.2969 950.75,676.2969 C950.75,676.2969 950.75,685.8369 950.75,695.8169" fill="none" id="REQ_fLpCKU-backto-SRV_Au1Th1" style="stroke:#181818;stroke-width:1;stroke-dasharray:7.0,7.0;"/><polygon fill="none" points="2039.6,616.7069,2033.6,634.7069,2045.6,634.7069,2039.6,616.7069" style="stroke:#181818;stroke-width:1;"/></g><!--reverse link REQ_fLpCKU to SRV_Qr8St8--><g class="link" data-entity-1="REQ_fLpCKU" data-entity-2="SRV_Qr8St8" data-source-line="75" data-uid="lnk57" id="link_REQ_fLpCKU_SRV_Qr8St8"><path d="M2085.2,634.4669 C2085.2,670.1369 2085.2,718.2969 2085.2,718.2969 C2085.2,718.2969 1494.88,718.2969 1252.75,718.2969" fill="none" id="REQ_fLpCKU-backto-SRV_Qr8St8" style="stroke:#181818;stroke-width:1;stroke-dasharray:7.0,7.0;"/><polygon fill="none" points="2085.2,616.4669,2079.2,634.4669,2091.2,634.4669,2085.2,616.4669" style="stroke:#181818;stroke-width:1;"/></g><!--link SRV_Qr8St8 to APP_v9LvfK--><g class="link" data-entity-1="SRV_Qr8St8" data-entity-2="APP_v9LvfK" data-source-line="76" data-uid="lnk58" id="link_SRV_Qr8St8_APP_v9LvfK"><path d="M1071.5,740.3169 C1071.5,769.9669 1071.5,804.4169 1071.5,834.1369" fill="none" id="SRV_Qr8St8-to-APP_v9LvfK" style="stroke:#181818;stroke-width:1;stroke-dasharray:7.0,7.0;"/><polygon fill="none" points="1071.5,852.1369,1077.5,834.1369,1065.5,834.1369,1071.5,852.1369" style="stroke:#181818;stroke-width:1;"/></g><!--link SRV_Ij6Kl6 to APP_ca3vm7--><g class="link" data-entity-1="SRV_Ij6Kl6" data-entity-2="APP_ca3vm7" data-source-line="77" data-uid="lnk59" id="link_SRV_Ij6Kl6_APP_ca3vm7"><path d="M766.33,740.3169 C766.33,769.9669 766.33,804.4169 766.33,834.1369" fill="none" id="SRV_Ij6Kl6-to-APP_ca3vm7" style="stroke:#181818;stroke-width:1;stroke-dasharray:7.0,7.0;"/><polygon fill="none" points="766.33,852.1369,772.33,834.1369,760.33,834.1369,766.33,852.1369" style="stroke:#181818;stroke-width:1;"/></g><!--reverse link SRV_AIGnSY to APP_SCKD2U--><g class="link" data-entity-1="SRV_AIGnSY" data-entity-2="APP_SCKD2U" data-source-line="78" data-uid="lnk61" id="link_SRV_AIGnSY_APP_SCKD2U"><path d="M548,758.3169 C548,787.9669 548,822.4169 548,852.1369" fill="none" id="SRV_AIGnSY-backto-APP_SCKD2U" style="stroke:#181818;stroke-width:1;stroke-dasharray:7.0,7.0;"/><polygon fill="none" points="548,740.3169,542,758.3169,554,758.3169,548,740.3169" style="stroke:#181818;stroke-width:1;"/></g><!--reverse link REQ_fLpCKU to APP_a9k_mJ--><g class="link" data-entity-1="REQ_fLpCKU" data-entity-2="APP_a9k_mJ" data-source-line="79" data-uid="lnk63" id="link_REQ_fLpCKU_APP_a9k_mJ"><path d="M2130.8,634.7369 C2130.8,701.1769 2130.8,874.2969 2130.8,874.2969 C2130.8,874.2969 1546.04,874.2969 1319.33,874.2969" fill="none" id="REQ_fLpCKU-backto-APP_a9k_mJ" style="stroke:#181818;stroke-width:1;stroke-dasharray:7.0,7.0;"/><polygon fill="none" points="2130.8,616.7369,2124.8,634.7369,2136.8,634.7369,2130.8,616.7369" style="stroke:#181818;stroke-width:1;"/></g><!--SRC=[hLPTRzis57tNh-2AedkIrwmVQOhCWEfqhXUdSMmdQJSC0YjH4XkAr2ZIHj3blu-K69Es6DTkzdPjddiETNbuBt_2D24oHQ3N-oM6F2bm2GKAQu4uOkAsGdMlaYK90i4g81ZumeHW9KWnHud0ZAe5B0W2aKuLwZ_94JXZAI84qnmy0nC2ATLX689hncyomfP1eBCXpLNYapCcy09ghYVW-DZ-6d8cAvNOxuDl0G1Enl7JrKRZ8OFaMvr0WduxwBswwuEPh2h6nVg6Lfl860SVP0bfhSLqigA7DHYUZ-DNlzySfVX_bOf6NPdHie0l7bQPed-aAcw9g5WJ6p2QICxLts3E60a7a13m0T9KrrchE8cjsFJzHPoDgy7fPN2tLl5tiiOKrKq9xkFTgdsFZXB1-DhsLZLmIHjOkvbeC8y_qiDpTlX3x2CmLWaIviPSMrG6bulpc6nyye2LPMkmDjhjSwUCeFLzI54mtbHRBPaogpDDqPcSVzs7Q0IYN9rKbqgcdoRPkuUf9fmbwgFznN_eycaPazWgJQQ3-F8bZDAY-Vwzr2uauhVs63gyYs61NlwvBsjRsfPMVP306MpDrE5__d5oTV9bN_uhn76sRTjiFENByRwqimHc6ICfEC4mvx3qL-Jy-YRLr7SFd-iCyGLEV7RJHsbMDRi9M_RPz2gEvC6yEDYF-GJN2LleStm6PWAAUgl21Nyp4s_sKxY21ATD8zzAFVhw-fIytdVpJQbNjVzkWKP3ElkyqH6YgY8uMSqTv-TklS59K2sbOdIpORVNv3tDLPFQK5WbcAurcSIBe_4YEts4N7jn6fTZnBylcC0NY_Bm4OARfx2Bw6nmUlBhvID4hxdgSq2FEbGBNMAvGstXqKrS_g7F_sVr2WdrjM8XWRTCYhUWhZY2AK2acPmrM69HO0foOu9QPmJsUG32lmgSfeZ-pN5UYD0PwQkeWt4ciPs37PGplEnCwNBP6M733ihfmpRqeamtjQ4NPPgZ3VsARP-pOGVbz2iRUb6cvzZGYpBjmuP-nRO1s7lMhRsz4JRqeeo5RUX56SlzkEE2m1dHlLxVUQ62jyhn8veHYQXkSpvawyDDe6k-b2rfw3nU6d1KrpYdxHCoi7vqqSPm7RHhsT1zNtYHzxRTZdIj6_OTkpRGkQftZdZJgTVyQw36g5xelOaDrBZL2rrLzj- -Qr_Val6iRyaOrKlOkjEv3prPwKMdRJZNOFkYFYYzxCmKvtAiBJj-Dqusr1jNflMoH_S_]--></g></svg>