<svg xmlns="http://www.w3.org/2000/svg" xmlns:xlink="http://www.w3.org/1999/xlink" contentStyleType="text/css" data-diagram-type="DESCRIPTION" height="1233px" preserveAspectRatio="none" style="width:780px;height:1233px;background:#FAFAFA;" version="1.1" viewBox="0 0 780 1233" width="780px" zoomAndPan="magnify"><title>Architecture Modelling &amp; Planning</title><defs/><g><rect fill="#FAFAFA" height="1233" style="stroke:none;stroke-width:1;" width="780" x="0" y="0"/><text fill="#000000" font-family="sans-serif" font-size="14" font-weight="bold" lengthAdjust="spacing" textLength="271.8584" x="247.0708" y="22.9951">Architecture Modelling &amp; Planning</text><!--cluster Services--><g class="cluster" data-entity="Services" data-source-line="22" data-uid="ent0002" id="cluster_Services"><rect fill="#EDE8E1" height="216" rx="2" ry="2" style="stroke:#8C7E6A;stroke-width:1;" width="568" x="13" y="44.2969"/><text fill="#000000" font-family="sans-serif" font-size="12" font-weight="bold" lengthAdjust="spacing" textLength="57.0293" x="268.4854" y="57.4355">Services</text></g><!--cluster Process--><g class="cluster" data-entity="Process" data-source-line="32" data-uid="ent0010" id="cluster_Process"><rect fill="#EDE8E1" height="943" rx="2" ry="2" style="stroke:#8C7E6A;stroke-width:1;" width="412" x="362" y="284.2969"/><text fill="#000000" font-family="sans-serif" font-size="12" font-weight="bold" lengthAdjust="spacing" textLength="52.4941" x="541.7529" y="297.4355">Process</text></g><!--cluster PRC_U4aAdh--><g class="cluster" data-entity="PRC_U4aAdh" data-source-line="33" data-uid="ent0011" id="cluster_PRC_U4aAdh"><rect fill="#E0D8CC" height="863" rx="2" ry="2" style="stroke:#8C7E6A;stroke-width:1;" width="348" x="394" y="332.2969"/><path d="M441.3004,340.4469 L450.7504,340.4469 L450.7504,338.4969 L457.5004,346.2969 L450.7504,354.0969 L450.7504,352.1469 L441.3004,352.1469" fill="#252327"/><text fill="#000000" font-family="sans-serif" font-size="12" font-weight="bold" lengthAdjust="spacing" textLength="233.0215" x="465.5781" y="355.4668">Architecture Modelling &amp; Planning</text></g><!--cluster Roles--><g class="cluster" data-entity="Roles" data-source-line="50" data-uid="ent0025" id="cluster_Roles"><rect fill="#EDE8E1" height="92" rx="2" ry="2" style="stroke:#8C7E6A;stroke-width:1;" width="280" x="58" y="475.2969"/><text fill="#000000" font-family="sans-serif" font-size="12" font-weight="bold" lengthAdjust="spacing" textLength="36.8789" x="179.5605" y="488.4355">Roles</text></g><!--entity SRV_Au1Th1--><g class="entity" data-entity="SRV_Au1Th1" data-source-line="23" data-uid="ent0003" id="entity_SRV_Au1Th1"><rect fill="#E0D8CC" height="44" rx="2" ry="2" style="stroke:#8C7E6A;stroke-width:0.5;" width="154.9355" x="185.5" y="76.2969"/><path d="M200.3,92.4469 L211.1,92.4469 A4.2,4.2 0 0 1 211.1,104.1469 L200.3,104.1469 A4.2,4.2 0 0 1 200.3,92.4469" fill="#252327"/><text fill="#000000" font-family="sans-serif" font-size="12" lengthAdjust="spacing" textLength="3.8145" x="219.5" y="107.4668">&#160;</text><text fill="#000000" font-family="sans-serif" font-size="12" lengthAdjust="spacing" textLength="58.957" x="223.3145" y="107.4668">Authoring</text><text fill="#000000" font-family="sans-serif" font-size="12" lengthAdjust="spacing" textLength="3.8145" x="282.2715" y="107.4668">&#160;</text><text fill="#000000" font-family="sans-serif" font-size="12" lengthAdjust="spacing" textLength="44.3496" x="286.0859" y="107.4668">Service</text></g><!--entity SRV_Ij6Kl6--><g class="entity" data-entity="SRV_Ij6Kl6" data-source-line="24" data-uid="ent0004" id="entity_SRV_Ij6Kl6"><rect fill="#E0D8CC" height="44" rx="2" ry="2" style="stroke:#8C7E6A;stroke-width:0.5;" width="164.334" x="401" y="76.2969"/><path d="M415.8,92.4469 L426.6,92.4469 A4.2,4.2 0 0 1 426.6,104.1469 L415.8,104.1469 A4.2,4.2 0 0 1 415.8,92.4469" fill="#252327"/><text fill="#000000" font-family="sans-serif" font-size="12" lengthAdjust="spacing" textLength="3.8145" x="435" y="107.4668">&#160;</text><text fill="#000000" font-family="sans-serif" font-size="12" lengthAdjust="spacing" textLength="68.3555" x="438.8145" y="107.4668">Verification</text><text fill="#000000" font-family="sans-serif" font-size="12" lengthAdjust="spacing" textLength="3.8145" x="507.1699" y="107.4668">&#160;</text><text fill="#000000" font-family="sans-serif" font-size="12" lengthAdjust="spacing" textLength="44.3496" x="510.9844" y="107.4668">Service</text></g><!--entity SRV_Qr8St8--><g class="entity" data-entity="SRV_Qr8St8" data-source-line="25" data-uid="ent0005" id="entity_SRV_Qr8St8"><rect fill="#E0D8CC" height="44" rx="2" ry="2" style="stroke:#8C7E6A;stroke-width:0.5;" width="265.5371" x="299" y="200.2969"/><path d="M313.8,216.4469 L324.6,216.4469 A4.2,4.2 0 0 1 324.6,228.1469 L313.8,228.1469 A4.2,4.2 0 0 1 313.8,216.4469" fill="#252327"/><text fill="#000000" font-family="sans-serif" font-size="12" lengthAdjust="spacing" textLength="3.8145" x="333" y="231.4668">&#160;</text><text fill="#000000" font-family="sans-serif" font-size="12" lengthAdjust="spacing" textLength="63.0996" x="336.8145" y="231.4668">Discovery,</text><text fill="#000000" font-family="sans-serif" font-size="12" lengthAdjust="spacing" textLength="3.8145" x="399.9141" y="231.4668">&#160;</text><text fill="#000000" font-family="sans-serif" font-size="12" lengthAdjust="spacing" textLength="55.0254" x="403.7285" y="231.4668">Querying</text><text fill="#000000" font-family="sans-serif" font-size="12" lengthAdjust="spacing" textLength="3.8145" x="458.7539" y="231.4668">&#160;</text><text fill="#000000" font-family="sans-serif" font-size="12" lengthAdjust="spacing" textLength="9.3574" x="462.5684" y="231.4668">&amp;</text><text fill="#000000" font-family="sans-serif" font-size="12" lengthAdjust="spacing" textLength="3.8145" x="471.9258" y="231.4668">&#160;</text><text fill="#000000" font-family="sans-serif" font-size="12" lengthAdjust="spacing" textLength="30.6328" x="475.7402" y="231.4668">Stats</text><text fill="#000000" font-family="sans-serif" font-size="12" lengthAdjust="spacing" textLength="3.8145" x="506.373" y="231.4668">&#160;</text><text fill="#000000" font-family="sans-serif" font-size="12" lengthAdjust="spacing" textLength="44.3496" x="510.1875" y="231.4668">Service</text></g><!--entity SRV_AIGnSY--><g class="entity" data-entity="SRV_AIGnSY" data-source-line="26" data-uid="ent0006" id="entity_SRV_AIGnSY"><rect fill="#E0D8CC" height="44" rx="2" ry="2" style="stroke:#8C7E6A;stroke-width:0.5;" width="210.2715" x="29" y="200.2969"/><path d="M43.8,216.4469 L54.6,216.4469 A4.2,4.2 0 0 1 54.6,228.1469 L43.8,228.1469 A4.2,4.2 0 0 1 43.8,216.4469" fill="#252327"/><text fill="#000000" font-family="sans-serif" font-size="12" lengthAdjust="spacing" textLength="3.8145" x="63" y="231.4668">&#160;</text><text fill="#000000" font-family="sans-serif" font-size="12" lengthAdjust="spacing" textLength="51.5215" x="66.8145" y="231.4668">Diagram</text><text fill="#000000" font-family="sans-serif" font-size="12" lengthAdjust="spacing" textLength="3.8145" x="118.3359" y="231.4668">&#160;</text><text fill="#000000" font-family="sans-serif" font-size="12" lengthAdjust="spacing" textLength="58.957" x="122.1504" y="231.4668">Authoring</text><text fill="#000000" font-family="sans-serif" font-size="12" lengthAdjust="spacing" textLength="3.8145" x="181.1074" y="231.4668">&#160;</text><text fill="#000000" font-family="sans-serif" font-size="12" lengthAdjust="spacing" textLength="44.3496" x="184.9219" y="231.4668">Service</text></g><!--entity FNC_ErTqVT--><g class="entity" data-entity="FNC_ErTqVT" data-source-line="34" data-uid="ent0012" id="entity_FNC_ErTqVT"><rect fill="#E0D8CC" height="44" rx="2" ry="2" style="stroke:#8C7E6A;stroke-width:0.5;" width="256.0391" x="462" y="383.2969"/><path d="M476.35,410.8469 L476.35,401.3969 L484,397.9469 L491.65,401.3969 L491.65,410.8469 L484,407.0969" fill="#252327"/><text fill="#000000" font-family="sans-serif" font-size="12" lengthAdjust="spacing" textLength="3.8145" x="496" y="414.4668">&#160;</text><text fill="#000000" font-family="sans-serif" font-size="12" lengthAdjust="spacing" textLength="36.5566" x="499.8145" y="414.4668">Scope</text><text fill="#000000" font-family="sans-serif" font-size="12" lengthAdjust="spacing" textLength="3.8145" x="536.3711" y="414.4668">&#160;</text><text fill="#000000" font-family="sans-serif" font-size="12" lengthAdjust="spacing" textLength="9.3574" x="540.1855" y="414.4668">&amp;</text><text fill="#000000" font-family="sans-serif" font-size="12" lengthAdjust="spacing" textLength="3.8145" x="549.543" y="414.4668">&#160;</text><text fill="#000000" font-family="sans-serif" font-size="12" lengthAdjust="spacing" textLength="61.248" x="553.3574" y="414.4668">Formulate</text><text fill="#000000" font-family="sans-serif" font-size="12" lengthAdjust="spacing" textLength="3.8145" x="614.6055" y="414.4668">&#160;</text><text fill="#000000" font-family="sans-serif" font-size="12" lengthAdjust="spacing" textLength="57.9199" x="618.4199" y="414.4668">Modelling</text><text fill="#000000" font-family="sans-serif" font-size="12" lengthAdjust="spacing" textLength="3.8145" x="676.3398" y="414.4668">&#160;</text><text fill="#000000" font-family="sans-serif" font-size="12" lengthAdjust="spacing" textLength="27.8848" x="680.1543" y="414.4668">Task</text></g><!--entity FNC_rkx32U--><g class="entity" data-entity="FNC_rkx32U" data-source-line="35" data-uid="ent0013" id="entity_FNC_rkx32U"><rect fill="#E0D8CC" height="44" rx="2" ry="2" style="stroke:#8C7E6A;stroke-width:0.5;" width="191.0879" x="494.5" y="507.2969"/><path d="M508.85,534.8469 L508.85,525.3969 L516.5,521.9469 L524.15,525.3969 L524.15,534.8469 L516.5,531.0969" fill="#252327"/><text fill="#000000" font-family="sans-serif" font-size="12" lengthAdjust="spacing" textLength="3.8145" x="528.5" y="538.4668">&#160;</text><text fill="#000000" font-family="sans-serif" font-size="12" lengthAdjust="spacing" textLength="25.5293" x="532.3145" y="538.4668">Plan</text><text fill="#000000" font-family="sans-serif" font-size="12" lengthAdjust="spacing" textLength="3.8145" x="557.8438" y="538.4668">&#160;</text><text fill="#000000" font-family="sans-serif" font-size="12" lengthAdjust="spacing" textLength="57.9199" x="561.6582" y="538.4668">Modelling</text><text fill="#000000" font-family="sans-serif" font-size="12" lengthAdjust="spacing" textLength="3.8145" x="619.5781" y="538.4668">&#160;</text><text fill="#000000" font-family="sans-serif" font-size="12" lengthAdjust="spacing" textLength="52.1953" x="623.3926" y="538.4668">Changes</text></g><!--entity FNC_lLdx12--><g class="entity" data-entity="FNC_lLdx12" data-source-line="36" data-uid="ent0014" id="entity_FNC_lLdx12"><rect fill="#E0D8CC" height="44" rx="2" ry="2" style="stroke:#8C7E6A;stroke-width:0.5;" width="124.127" x="528" y="631.2969"/><path d="M542.35,658.8469 L542.35,649.3969 L550,645.9469 L557.65,649.3969 L557.65,658.8469 L550,655.0969" fill="#252327"/><text fill="#000000" font-family="sans-serif" font-size="12" lengthAdjust="spacing" textLength="3.8145" x="562" y="662.4668">&#160;</text><text fill="#000000" font-family="sans-serif" font-size="12" lengthAdjust="spacing" textLength="36.4688" x="565.8145" y="662.4668">Query</text><text fill="#000000" font-family="sans-serif" font-size="12" lengthAdjust="spacing" textLength="3.8145" x="602.2832" y="662.4668">&#160;</text><text fill="#000000" font-family="sans-serif" font-size="12" lengthAdjust="spacing" textLength="36.0293" x="606.0977" y="662.4668">Model</text></g><!--entity FNC_yuFXVJ--><g class="entity" data-entity="FNC_yuFXVJ" data-source-line="37" data-uid="ent0015" id="entity_FNC_yuFXVJ"><rect fill="#E0D8CC" height="44" rx="2" ry="2" style="stroke:#8C7E6A;stroke-width:0.5;" width="182.1875" x="499" y="755.2969"/><path d="M513.35,782.8469 L513.35,773.3969 L521,769.9469 L528.65,773.3969 L528.65,782.8469 L521,779.0969" fill="#252327"/><text fill="#000000" font-family="sans-serif" font-size="12" lengthAdjust="spacing" textLength="3.8145" x="533" y="786.4668">&#160;</text><text fill="#000000" font-family="sans-serif" font-size="12" lengthAdjust="spacing" textLength="40.4004" x="536.8145" y="786.4668">Author</text><text fill="#000000" font-family="sans-serif" font-size="12" lengthAdjust="spacing" textLength="3.8145" x="577.2148" y="786.4668">&#160;</text><text fill="#000000" font-family="sans-serif" font-size="12" lengthAdjust="spacing" textLength="36.0293" x="581.0293" y="786.4668">Model</text><text fill="#000000" font-family="sans-serif" font-size="12" lengthAdjust="spacing" textLength="3.8145" x="617.0586" y="786.4668">&#160;</text><text fill="#000000" font-family="sans-serif" font-size="12" lengthAdjust="spacing" textLength="50.3145" x="620.873" y="786.4668">Artifacts</text></g><!--entity FNC_NGjUCa--><g class="entity" data-entity="FNC_NGjUCa" data-source-line="38" data-uid="ent0016" id="entity_FNC_NGjUCa"><rect fill="#E0D8CC" height="44" rx="2" ry="2" style="stroke:#8C7E6A;stroke-width:0.5;" width="122.8438" x="528.5" y="879.2969"/><path d="M542.85,906.8469 L542.85,897.3969 L550.5,893.9469 L558.15,897.3969 L558.15,906.8469 L550.5,903.0969" fill="#252327"/><text fill="#000000" font-family="sans-serif" font-size="12" lengthAdjust="spacing" textLength="3.8145" x="562.5" y="910.4668">&#160;</text><text fill="#000000" font-family="sans-serif" font-size="12" lengthAdjust="spacing" textLength="35.1855" x="566.3145" y="910.4668">Verify</text><text fill="#000000" font-family="sans-serif" font-size="12" lengthAdjust="spacing" textLength="3.8145" x="601.5" y="910.4668">&#160;</text><text fill="#000000" font-family="sans-serif" font-size="12" lengthAdjust="spacing" textLength="36.0293" x="605.3145" y="910.4668">Model</text></g><!--entity FNC_uzJGYp--><g class="entity" data-entity="FNC_uzJGYp" data-source-line="39" data-uid="ent0017" id="entity_FNC_uzJGYp"><rect fill="#E0D8CC" height="44" rx="2" ry="2" style="stroke:#8C7E6A;stroke-width:0.5;" width="149.8027" x="515" y="1003.2969"/><path d="M529.35,1030.8469 L529.35,1021.3969 L537,1017.9469 L544.65,1021.3969 L544.65,1030.8469 L537,1027.0969" fill="#252327"/><text fill="#000000" font-family="sans-serif" font-size="12" lengthAdjust="spacing" textLength="3.8145" x="549" y="1034.4668">&#160;</text><text fill="#000000" font-family="sans-serif" font-size="12" lengthAdjust="spacing" textLength="40.4004" x="552.8145" y="1034.4668">Author</text><text fill="#000000" font-family="sans-serif" font-size="12" lengthAdjust="spacing" textLength="3.8145" x="593.2148" y="1034.4668">&#160;</text><text fill="#000000" font-family="sans-serif" font-size="12" lengthAdjust="spacing" textLength="57.7734" x="597.0293" y="1034.4668">Diagrams</text></g><!--entity FNC_saMRQ0--><g class="entity" data-entity="FNC_saMRQ0" data-source-line="40" data-uid="ent0018" id="entity_FNC_saMRQ0"><rect fill="#E0D8CC" height="44" rx="2" ry="2" style="stroke:#8C7E6A;stroke-width:0.5;" width="238.2559" x="471" y="1127.2969"/><path d="M485.35,1154.8469 L485.35,1145.3969 L493,1141.9469 L500.65,1145.3969 L500.65,1154.8469 L493,1151.0969" fill="#252327"/><text fill="#000000" font-family="sans-serif" font-size="12" lengthAdjust="spacing" textLength="3.8145" x="505" y="1158.4668">&#160;</text><text fill="#000000" font-family="sans-serif" font-size="12" lengthAdjust="spacing" textLength="40.4004" x="508.8145" y="1158.4668">Author</text><text fill="#000000" font-family="sans-serif" font-size="12" lengthAdjust="spacing" textLength="3.8145" x="549.2148" y="1158.4668">&#160;</text><text fill="#000000" font-family="sans-serif" font-size="12" lengthAdjust="spacing" textLength="73.9922" x="553.0293" y="1158.4668">Architecture</text><text fill="#000000" font-family="sans-serif" font-size="12" lengthAdjust="spacing" textLength="3.8145" x="627.0215" y="1158.4668">&#160;</text><text fill="#000000" font-family="sans-serif" font-size="12" lengthAdjust="spacing" textLength="68.4199" x="630.8359" y="1158.4668">Documents</text></g><!--entity ROL_deMuTj--><g class="entity" data-entity="ROL_deMuTj" data-source-line="51" data-uid="ent0026" id="entity_ROL_deMuTj"><rect fill="#E0D8CC" height="44" rx="2" ry="2" style="stroke:#8C7E6A;stroke-width:0.5;" width="88.2148" x="234" y="507.2969"/><path d="M248.5,522.5469 L260.2,522.5469 A3,3 0 0 1 263.2,525.5469 L263.2,533.0469 A3,3 0 0 1 260.2,536.0469 L248.5,536.0469" fill="#252327"/><text fill="#000000" font-family="sans-serif" font-size="12" lengthAdjust="spacing" textLength="3.8145" x="268" y="538.4668">&#160;</text><text fill="#000000" font-family="sans-serif" font-size="12" lengthAdjust="spacing" textLength="40.4004" x="271.8145" y="538.4668">Author</text></g><!--entity ROL_udXPfB--><g class="entity" data-entity="ROL_udXPfB" data-source-line="52" data-uid="ent0027" id="entity_ROL_udXPfB"><rect fill="#E0D8CC" height="44" rx="2" ry="2" style="stroke:#8C7E6A;stroke-width:0.5;" width="98.8965" x="74.5" y="507.2969"/><path d="M89,522.5469 L100.7,522.5469 A3,3 0 0 1 103.7,525.5469 L103.7,533.0469 A3,3 0 0 1 100.7,536.0469 L89,536.0469" fill="#252327"/><text fill="#000000" font-family="sans-serif" font-size="12" lengthAdjust="spacing" textLength="3.8145" x="108.5" y="538.4668">&#160;</text><text fill="#000000" font-family="sans-serif" font-size="12" lengthAdjust="spacing" textLength="11.748" x="112.3145" y="538.4668">AI</text><text fill="#000000" font-family="sans-serif" font-size="12" lengthAdjust="spacing" textLength="3.8145" x="124.0625" y="538.4668">&#160;</text><text fill="#000000" font-family="sans-serif" font-size="12" lengthAdjust="spacing" textLength="35.5195" x="127.877" y="538.4668">Agent</text></g><!--link SRV_Au1Th1 to SRV_Ij6Kl6--><!--link SRV_Ij6Kl6 to SRV_Qr8St8--><!--link SRV_Qr8St8 to SRV_AIGnSY--><!--link FNC_ErTqVT to FNC_rkx32U--><!--link FNC_ErTqVT to FNC_rkx32U--><g class="link" data-entity-1="FNC_ErTqVT" data-entity-2="FNC_rkx32U" data-source-line="73" data-uid="lnk43" id="link_FNC_ErTqVT_FNC_rkx32U"><path d="M621.83,427.4669 C621.83,449.8969 621.83,476.3869 621.83,498.9069" fill="none" id="FNC_ErTqVT-to-FNC_rkx32U" style="stroke:#000000;stroke-width:1;"/><polygon fill="#000000" points="621.83,506.9069,624.83,498.9069,618.83,498.9069,621.83,506.9069" style="stroke:#000000;stroke-width:1;"/><text fill="#000000" font-family="sans-serif" font-size="12" lengthAdjust="spacing" textLength="3.8145" x="617.83" y="464.3255">&#160;</text></g><!--link FNC_rkx32U to FNC_lLdx12--><!--link FNC_rkx32U to FNC_lLdx12--><g class="link" data-entity-1="FNC_rkx32U" data-entity-2="FNC_lLdx12" data-source-line="74" data-uid="lnk44" id="link_FNC_rkx32U_FNC_lLdx12"><path d="M610.67,551.4669 C610.67,573.8969 610.67,600.3869 610.67,622.9069" fill="none" id="FNC_rkx32U-to-FNC_lLdx12" style="stroke:#000000;stroke-width:1;"/><polygon fill="#000000" points="610.67,630.9069,613.67,622.9069,607.67,622.9069,610.67,630.9069" style="stroke:#000000;stroke-width:1;"/><text fill="#000000" font-family="sans-serif" font-size="12" lengthAdjust="spacing" textLength="3.8145" x="606.67" y="588.3255">&#160;</text></g><!--link FNC_lLdx12 to FNC_yuFXVJ--><!--link FNC_lLdx12 to FNC_yuFXVJ--><g class="link" data-entity-1="FNC_lLdx12" data-entity-2="FNC_yuFXVJ" data-source-line="75" data-uid="lnk45" id="link_FNC_lLdx12_FNC_yuFXVJ"><path d="M610.67,675.4669 C610.67,697.8969 610.67,724.3869 610.67,746.9069" fill="none" id="FNC_lLdx12-to-FNC_yuFXVJ" style="stroke:#000000;stroke-width:1;"/><polygon fill="#000000" points="610.67,754.9069,613.67,746.9069,607.67,746.9069,610.67,754.9069" style="stroke:#000000;stroke-width:1;"/><text fill="#000000" font-family="sans-serif" font-size="12" lengthAdjust="spacing" textLength="3.8145" x="606.67" y="712.3255">&#160;</text></g><!--link FNC_yuFXVJ to FNC_NGjUCa--><!--link FNC_yuFXVJ to FNC_NGjUCa--><g class="link" data-entity-1="FNC_yuFXVJ" data-entity-2="FNC_NGjUCa" data-source-line="76" data-uid="lnk46" id="link_FNC_yuFXVJ_FNC_NGjUCa"><path d="M610.5,799.4669 C610.5,821.8969 610.5,848.3869 610.5,870.9069" fill="none" id="FNC_yuFXVJ-to-FNC_NGjUCa" style="stroke:#000000;stroke-width:1;"/><polygon fill="#000000" points="610.5,878.9069,613.5,870.9069,607.5,870.9069,610.5,878.9069" style="stroke:#000000;stroke-width:1;"/><text fill="#000000" font-family="sans-serif" font-size="12" lengthAdjust="spacing" textLength="3.8145" x="606.5" y="836.3255">&#160;</text></g><!--link FNC_NGjUCa to FNC_uzJGYp--><!--link FNC_NGjUCa to FNC_uzJGYp--><g class="link" data-entity-1="FNC_NGjUCa" data-entity-2="FNC_uzJGYp" data-source-line="77" data-uid="lnk47" id="link_FNC_NGjUCa_FNC_uzJGYp"><path d="M610.5,923.4669 C610.5,945.8969 610.5,972.3869 610.5,994.9069" fill="none" id="FNC_NGjUCa-to-FNC_uzJGYp" style="stroke:#000000;stroke-width:1;"/><polygon fill="#000000" points="610.5,1002.9069,613.5,994.9069,607.5,994.9069,610.5,1002.9069" style="stroke:#000000;stroke-width:1;"/><text fill="#000000" font-family="sans-serif" font-size="12" lengthAdjust="spacing" textLength="3.8145" x="606.5" y="960.3255">&#160;</text></g><!--link FNC_uzJGYp to FNC_saMRQ0--><!--link FNC_uzJGYp to FNC_saMRQ0--><g class="link" data-entity-1="FNC_uzJGYp" data-entity-2="FNC_saMRQ0" data-source-line="78" data-uid="lnk48" id="link_FNC_uzJGYp_FNC_saMRQ0"><path d="M615,1047.4669 C615,1069.8969 615,1096.3869 615,1118.9069" fill="none" id="FNC_uzJGYp-to-FNC_saMRQ0" style="stroke:#000000;stroke-width:1;"/><polygon fill="#000000" points="615,1126.9069,618,1118.9069,612,1118.9069,615,1126.9069" style="stroke:#000000;stroke-width:1;"/><text fill="#000000" font-family="sans-serif" font-size="12" lengthAdjust="spacing" textLength="3.8145" x="611" y="1084.3255">&#160;</text></g><!--link ROL_deMuTj to ROL_udXPfB--><!--link SRV_AIGnSY to PRC_U4aAdh--><!--reverse link SRV_AIGnSY to PRC_U4aAdh--><g class="link" data-entity-1="SRV_AIGnSY" data-entity-2="PRC_U4aAdh" data-source-line="64" data-uid="lnk38" id="link_SRV_AIGnSY_PRC_U4aAdh"><path d="M203.75,262.6669 C203.75,313.8869 203.75,417.2969 203.75,417.2969 C203.75,417.2969 253.23,417.2969 302.71,417.2969 C327.45,417.2969 352.19,417.2969 370.745,417.2969 C380.0225,417.2969 387.7538,417.2969 393.1656,417.2969 C393.3347,417.2969 393.5016,417.2969 393.6662,417.2969" fill="none" id="SRV_AIGnSY-backto-PRC_U4aAdh" style="stroke:#000000;stroke-width:1;stroke-dasharray:1.0,3.0;"/><polygon fill="none" points="203.75,244.6669,197.75,262.6669,209.75,262.6669,203.75,244.6669" style="stroke:#000000;stroke-width:1;"/><text fill="#000000" font-family="sans-serif" font-size="12" lengthAdjust="spacing" textLength="3.8145" x="218.14" y="414.4355">&#160;</text></g><!--link PRC_U4aAdh to ROL_deMuTj--><!--link PRC_U4aAdh to ROL_deMuTj--><g class="link" data-entity-1="PRC_U4aAdh" data-entity-2="ROL_deMuTj" data-source-line="84" data-uid="lnk51" id="link_PRC_U4aAdh_ROL_deMuTj"><path d="M385.9247,529.2969 C385.2753,529.2969 391.6448,529.2969 390.9394,529.2969 C389.5287,529.2969 388.0093,529.2969 386.3942,529.2969 C383.164,529.2969 379.5509,529.2969 375.6588,529.2969 C360.09,529.2969 352.055,529.2969 334.19,529.2969" fill="none" id="PRC_U4aAdh-ROL_deMuTj-1" style="stroke:#000000;stroke-width:1;"/><polygon fill="#000000" points="393.9247,529.2969,385.9247,526.2969,385.9247,532.2969,393.9247,529.2969" style="stroke:#000000;stroke-width:1;"/><ellipse cx="328.19" cy="529.2969" fill="#000000" rx="6" ry="6" style="stroke:#000000;stroke-width:1.5;"/><text fill="#000000" font-family="sans-serif" font-size="12" lengthAdjust="spacing" textLength="3.8145" x="398.33" y="504.6855">&#160;</text></g><!--reverse link SRV_Au1Th1 to PRC_U4aAdh--><g class="link" data-entity-1="SRV_Au1Th1" data-entity-2="PRC_U4aAdh" data-source-line="61" data-uid="lnk32" id="link_SRV_Au1Th1_PRC_U4aAdh"><path d="M269,138.4369 C269,189.1269 269,291.2969 269,291.2969 C269,291.2969 417.75,291.2969 417.75,291.2969 C417.75,291.2969 417.75,298.4219 417.75,309.1094 C417.75,314.4531 417.75,320.6875 417.75,327.3672 C417.75,328.2021 417.75,329.0441 417.75,329.8921 C417.75,330.3161 417.75,330.7416 417.75,331.1685 C417.75,331.382 417.75,331.5958 417.75,331.81" fill="none" id="SRV_Au1Th1-backto-PRC_U4aAdh" style="stroke:#000000;stroke-width:1;stroke-dasharray:1.0,3.0;"/><polygon fill="none" points="269,120.4369,263,138.4369,275,138.4369,269,120.4369" style="stroke:#000000;stroke-width:1;"/><text fill="#000000" font-family="sans-serif" font-size="12" lengthAdjust="spacing" textLength="3.8145" x="318.48" y="288.4355">&#160;</text></g><!--reverse link SRV_Ij6Kl6 to PRC_U4aAdh--><g class="link" data-entity-1="SRV_Ij6Kl6" data-entity-2="PRC_U4aAdh" data-source-line="62" data-uid="lnk34" id="link_SRV_Ij6Kl6_PRC_U4aAdh"><path d="M583.04,106.2969 C621.71,106.2969 641.5,106.2969 641.5,106.2969 C641.5,106.2969 641.5,164.0469 641.5,221.7969 C641.5,250.6719 641.5,279.5469 641.5,301.2031 C641.5,312.0313 641.5,321.0547 641.5,327.3711 C641.5,328.9502 641.5,330.3601 641.5,331.5867 C641.5,331.7401 641.5,331.8905 641.5,332.0381" fill="none" id="SRV_Ij6Kl6-backto-PRC_U4aAdh" style="stroke:#000000;stroke-width:1;stroke-dasharray:1.0,3.0;"/><polygon fill="none" points="565.04,106.2969,583.04,112.2969,583.04,100.2969,565.04,106.2969" style="stroke:#000000;stroke-width:1;"/><text fill="#000000" font-family="sans-serif" font-size="12" lengthAdjust="spacing" textLength="3.8145" x="637.5" y="334.1855">&#160;</text></g><!--reverse link SRV_Qr8St8 to PRC_U4aAdh--><g class="link" data-entity-1="SRV_Qr8St8" data-entity-2="PRC_U4aAdh" data-source-line="63" data-uid="lnk36" id="link_SRV_Qr8St8_PRC_U4aAdh"><path d="M401.67,262.3669 C401.67,274.1569 401.67,271.6756 401.67,288.4255 C401.67,296.8004 401.67,305.4831 401.67,314.1613 C401.67,318.5005 401.67,322.8385 401.67,327.1364 C401.67,328.2109 401.67,329.2828 401.67,330.3517 C401.67,330.8861 401.67,331.4197 401.67,331.9525" fill="none" id="SRV_Qr8St8-backto-PRC_U4aAdh" style="stroke:#000000;stroke-width:1;stroke-dasharray:1.0,3.0;"/><polygon fill="none" points="401.67,244.3669,395.67,262.3669,407.67,262.3669,401.67,244.3669" style="stroke:#000000;stroke-width:1;"/><text fill="#000000" font-family="sans-serif" font-size="12" lengthAdjust="spacing" textLength="3.8145" x="397.67" y="321.8155">&#160;</text></g><!--link SRV_Au1Th1 to FNC_yuFXVJ--><g class="link" data-entity-1="SRV_Au1Th1" data-entity-2="FNC_yuFXVJ" data-source-line="67" data-uid="lnk39" id="link_SRV_Au1Th1_FNC_yuFXVJ"><path d="M185.34,98.2969 C111.29,98.2969 11,98.2969 11,98.2969 C11,98.2969 11,777.2969 11,777.2969 C11,777.2969 329.84,777.2969 492.89,777.2969" fill="none" id="SRV_Au1Th1-to-FNC_yuFXVJ" style="stroke:#000000;stroke-width:1;"/><polygon fill="#000000" points="498.89,777.2969,489.89,773.2969,493.89,777.2969,489.89,781.2969,498.89,777.2969" style="stroke:#000000;stroke-width:1;"/><text fill="#000000" font-family="sans-serif" font-size="12" lengthAdjust="spacing" textLength="3.8145" x="7" y="591.7155">&#160;</text></g><!--link SRV_Qr8St8 to FNC_lLdx12--><g class="link" data-entity-1="SRV_Qr8St8" data-entity-2="FNC_lLdx12" data-source-line="68" data-uid="lnk40" id="link_SRV_Qr8St8_FNC_lLdx12"><path d="M447.25,244.5569 C447.25,332.8169 447.25,653.2969 447.25,653.2969 C447.25,653.2969 483.33,653.2969 521.8,653.2969" fill="none" id="SRV_Qr8St8-to-FNC_lLdx12" style="stroke:#000000;stroke-width:1;"/><polygon fill="#000000" points="527.8,653.2969,518.8,649.2969,522.8,653.2969,518.8,657.2969,527.8,653.2969" style="stroke:#000000;stroke-width:1;"/><text fill="#000000" font-family="sans-serif" font-size="12" lengthAdjust="spacing" textLength="3.8145" x="443.25" y="486.3455">&#160;</text></g><!--link SRV_Ij6Kl6 to FNC_NGjUCa--><g class="link" data-entity-1="SRV_Ij6Kl6" data-entity-2="FNC_NGjUCa" data-source-line="69" data-uid="lnk41" id="link_SRV_Ij6Kl6_FNC_NGjUCa"><path d="M565.14,91.2969 C639.02,91.2969 736,91.2969 736,91.2969 C736,91.2969 736,901.2969 736,901.2969 C736,901.2969 697.71,901.2969 657.92,901.2969" fill="none" id="SRV_Ij6Kl6-to-FNC_NGjUCa" style="stroke:#000000;stroke-width:1;"/><polygon fill="#000000" points="651.92,901.2969,660.92,905.2969,656.92,901.2969,660.92,897.2969,651.92,901.2969" style="stroke:#000000;stroke-width:1;"/><text fill="#000000" font-family="sans-serif" font-size="12" lengthAdjust="spacing" textLength="3.8145" x="732" y="450.0455">&#160;</text></g><!--link SRV_AIGnSY to FNC_uzJGYp--><g class="link" data-entity-1="SRV_AIGnSY" data-entity-2="FNC_uzJGYp" data-source-line="70" data-uid="lnk42" id="link_SRV_AIGnSY_FNC_uzJGYp"><path d="M188.62,244.6069 C188.62,374.3069 188.62,1025.2969 188.62,1025.2969 C188.62,1025.2969 392.8,1025.2969 508.98,1025.2969" fill="none" id="SRV_AIGnSY-to-FNC_uzJGYp" style="stroke:#000000;stroke-width:1;"/><polygon fill="#000000" points="514.98,1025.2969,505.98,1021.2969,509.98,1025.2969,505.98,1029.2969,514.98,1025.2969" style="stroke:#000000;stroke-width:1;"/><text fill="#000000" font-family="sans-serif" font-size="12" lengthAdjust="spacing" textLength="3.8145" x="184.62" y="795.2655">&#160;</text></g><!--link SRV_AIGnSY to SRV_Au1Th1--><g class="link" data-entity-1="SRV_AIGnSY" data-entity-2="SRV_Au1Th1" data-source-line="81" data-uid="lnk49" id="link_SRV_AIGnSY_SRV_Au1Th1"><path d="M212.25,200.1269 C212.25,177.6969 212.25,161.2069 212.25,138.6869" fill="none" id="SRV_AIGnSY-to-SRV_Au1Th1" style="stroke:#000000;stroke-width:1;"/><polygon fill="none" points="212.25,120.6869,206.25,138.6869,218.25,138.6869,212.25,120.6869" style="stroke:#000000;stroke-width:1;"/><text fill="#000000" font-family="sans-serif" font-size="12" lengthAdjust="spacing" textLength="3.8145" x="208.25" y="157.5455">&#160;</text></g><!--link PRC_U4aAdh to ROL_udXPfB--><g class="link" data-entity-1="PRC_U4aAdh" data-entity-2="ROL_udXPfB" data-source-line="85" data-uid="lnk53" id="link_PRC_U4aAdh_ROL_udXPfB"><path d="M385.4283,467.2969 C384.5836,467.2969 390.4694,467.2969 389.6044,467.2969 C387.8745,467.2969 386.1045,467.2969 384.2969,467.2969 C355.375,467.2969 316.8125,467.2969 278.25,467.2969 C201.125,467.2969 124,467.2969 124,467.2969 C124,467.2969 124,477.4469 124,495.2669" fill="none" id="PRC_U4aAdh-ROL_udXPfB" style="stroke:#000000;stroke-width:1;"/><polygon fill="#000000" points="393.4283,467.2969,385.4283,464.2969,385.4283,470.2969,393.4283,467.2969" style="stroke:#000000;stroke-width:1;"/><ellipse cx="124" cy="501.2669" fill="#000000" rx="6" ry="6" style="stroke:#000000;stroke-width:1.5;"/><text fill="#000000" font-family="sans-serif" font-size="12" lengthAdjust="spacing" textLength="3.8145" x="299.97" y="464.4355">&#160;</text></g><!--SRC=[dLPhJzim5FsUNs6gQUkajblPXX1YbReogZ9WfI-1fYaoYPiO73iuJaT1_FVPUTHkch9cdnB7n-VSUtqVsSFK8R6BGAlrmORSyN401Mf60d74n394KIkC0sBjbUCyiWpz329O20G3jqm85W0NS-G8pAXb2Im80brrICXlCKVWWhc844mzy1OC2QHKlbgMEW6f9y6rCU8BxA2e1ewFUom86Erp5eSIrkc0Pmi00tlyPcMGdPrxZXn8qDTswyjB1tHZuJEknB9THPgzIZOOWV5ePdVZziHlLsEU8Oxds87AprV91tS7FyX1DV8J73biWVYo0QvY-KYZDHPGHAzgNV73iJYigWKz3eDTGpNeq_6DLD1n0yrVFdPTH7zpxFcYkUwrNfJYLXRhHIakqtrPovGXPp9FAYTATcmzKVwLeaeaEvX6OpZgsTFFiElwYTPMjTEO9iMm9ZTsM8Wa-odZGKmapD2SmEXUgUK7KxdJovxzdKyUPfFAOie5Wx_douDfUMrAyFl7J_lJoX99bgOQvRpat7rixrVcJPCo9PPt9F0SEcABwSluz7fsLbaYAUHNRR_itqrxy7zjp-fhYz7nqrd_9lnVxhMiFM5E722wBJmHl1XTVKoKT2vjr5eX1_Io56dSgbwM8etBqSjIf15jlIn56h7JorBaolUNGWSPCL9zqAX39RUXQDHM6lBHptFRHHVnvAuAqG1qFNc5crInUpsSVvDKcdV3KmCdlNm71bIEyYQ1IyG1f8uqCR9qBzN7NVQ7Der-PXcjhG0ol9828mG9Vaf6u148q-O8cXqGPHFS6Y5Y6o1x6jOrTyEO8GrGgxtV1PwEaftXwKJP6Pv69eLB_vBfHxsZbKFAoGMMlq8E3E4j9bXW-L7- -SopSfCB7meGHqY-e23Hp5ZgfhUw1hHj9YwtMrTLEIuFXwwKSbpkcAwJbPCJcJqUIWP_X1vYH1q4welaxmQv05CGgCwOKcfiNVUGXj4bj7e1cc-NELI0vjjbCIf0y-qozmlGVBiOWH9elgqxntf6o0158NBmAfNISAzzMejwCSybKJUAi4TLkpu2N3KXLJTP2ILq6g0ILTTT0vX9ctkmYKuRmIRwBm00]--></g></svg>