<svg xmlns="http://www.w3.org/2000/svg" xmlns:xlink="http://www.w3.org/1999/xlink" contentStyleType="text/css" data-diagram-type="DESCRIPTION" height="896px" preserveAspectRatio="none" style="width:647px;height:896px;background:#FAFAFA;" version="1.1" viewBox="0 0 647 896" width="647px" zoomAndPan="magnify"><title>Business Domain &#8212; Actors, Roles &amp; Key Objects</title><defs/><g><rect fill="#FAFAFA" height="896" style="stroke:none;stroke-width:1;" width="647" x="0" y="0"/><text fill="#000000" font-family="sans-serif" font-size="14" font-weight="bold" lengthAdjust="spacing" textLength="378.3008" x="127.3496" y="22.9951">Business Domain &#8212; Actors, Roles &amp; Key Objects</text><!--cluster Actors--><g class="cluster" data-entity="Actors" data-source-line="8" data-uid="ent0002" id="cluster_Actors"><rect fill="#FFFDEC" height="522" rx="2" ry="2" style="stroke:#B8860B;stroke-width:1;" width="184" x="219" y="368.2969"/><text fill="#000000" font-family="sans-serif" font-size="12" font-weight="bold" lengthAdjust="spacing" textLength="43.4414" x="289.2793" y="381.4355">Actors</text></g><!--cluster Roles (from Common)--><g class="cluster" data-entity="Roles (from Common)" data-source-line="16" data-uid="ent0008" id="cluster_Roles (from Common)"><rect fill="#EDE8E1" height="196" rx="2" ry="2" style="stroke:#8C7E6A;stroke-width:1;" width="162" x="474.5" y="472.2969"/><text fill="#000000" font-family="sans-serif" font-size="12" font-weight="bold" lengthAdjust="spacing" textLength="146.9355" x="482.0322" y="485.4355">Roles (from Common)</text></g><!--cluster Interface--><g class="cluster" data-entity="Interface" data-source-line="21" data-uid="ent0011" id="cluster_Interface"><rect fill="#FFFDEC" height="92" rx="2" ry="2" style="stroke:#B8860B;stroke-width:1;" width="159" x="7" y="680.2969"/><text fill="#000000" font-family="sans-serif" font-size="12" font-weight="bold" lengthAdjust="spacing" textLength="61.3711" x="55.8145" y="693.4355">Interface</text></g><!--cluster Key Business Objects--><g class="cluster" data-entity="Key Business Objects" data-source-line="25" data-uid="ent0013" id="cluster_Key Business Objects"><rect fill="#FFFDEC" height="300" rx="2" ry="2" style="stroke:#B8860B;stroke-width:1;" width="632.5" x="8.5" y="44.2969"/><text fill="#000000" font-family="sans-serif" font-size="12" font-weight="bold" lengthAdjust="spacing" textLength="144.5625" x="252.4688" y="57.4355">Key Business Objects</text></g><!--entity ACT_Nn7Oo7--><g class="entity" data-entity="ACT_Nn7Oo7" data-source-line="9" data-uid="ent0003" id="entity_ACT_Nn7Oo7"><rect fill="#FFFAC8" height="44" rx="2" ry="2" style="stroke:#B8860B;stroke-width:0.5;" width="101.8848" x="260" y="504.2969"/><ellipse cx="282" cy="520.2969" fill="none" rx="2.85" ry="2.85" style="stroke:#252327;stroke-width:1.95;"/><path d="M281.025,523.1469 L281.025,529.2969 L282.975,529.2969 L282.975,523.1469" fill="#252327"/><path d="M278.52,534.6069 L277.08,533.2869 L281.28,528.6369 L282.72,529.9569" fill="#252327"/><path d="M281.28,529.9569 L282.72,528.6369 L286.92,533.2869 L285.48,534.6069" fill="#252327"/><path d="M277.5,525.4719 L286.5,525.4719 L286.5,527.4219 L277.5,527.4219" fill="#252327"/><text fill="#000000" font-family="sans-serif" font-size="12" lengthAdjust="spacing" textLength="54.0703" x="297.8145" y="535.4668">Architect</text></g><!--entity ACT_Pp8Qq8--><g class="entity" data-entity="ACT_Pp8Qq8" data-source-line="10" data-uid="ent0004" id="entity_ACT_Pp8Qq8"><rect fill="#FFFAC8" height="44" rx="2" ry="2" style="stroke:#B8860B;stroke-width:0.5;" width="109.5313" x="256" y="400.2969"/><ellipse cx="278" cy="416.2969" fill="none" rx="2.85" ry="2.85" style="stroke:#252327;stroke-width:1.95;"/><path d="M277.025,419.1469 L277.025,425.2969 L278.975,425.2969 L278.975,419.1469" fill="#252327"/><path d="M274.52,430.6069 L273.08,429.2869 L277.28,424.6369 L278.72,425.9569" fill="#252327"/><path d="M277.28,425.9569 L278.72,424.6369 L282.92,429.2869 L281.48,430.6069" fill="#252327"/><path d="M273.5,421.4719 L282.5,421.4719 L282.5,423.4219 L273.5,423.4219" fill="#252327"/><text fill="#000000" font-family="sans-serif" font-size="12" lengthAdjust="spacing" textLength="61.7168" x="293.8145" y="431.4668">Developer</text></g><!--entity ACT_OLWiNc--><g class="entity" data-entity="ACT_OLWiNc" data-source-line="11" data-uid="ent0005" id="entity_ACT_OLWiNc"><rect fill="#FFFAC8" height="44" rx="2" ry="2" style="stroke:#B8860B;stroke-width:0.5;" width="152.1113" x="235" y="608.2969"/><ellipse cx="257" cy="624.2969" fill="none" rx="2.85" ry="2.85" style="stroke:#252327;stroke-width:1.95;"/><path d="M256.025,627.1469 L256.025,633.2969 L257.975,633.2969 L257.975,627.1469" fill="#252327"/><path d="M253.52,638.6069 L252.08,637.2869 L256.28,632.6369 L257.72,633.9569" fill="#252327"/><path d="M256.28,633.9569 L257.72,632.6369 L261.92,637.2869 L260.48,638.6069" fill="#252327"/><path d="M252.5,629.4719 L261.5,629.4719 L261.5,631.4219 L252.5,631.4219" fill="#252327"/><text fill="#000000" font-family="sans-serif" font-size="12" lengthAdjust="spacing" textLength="104.2969" x="272.8145" y="639.4668">DevOps Engineer</text></g><!--entity ACT_Rr9Ss9--><g class="entity" data-entity="ACT_Rr9Ss9" data-source-line="12" data-uid="ent0006" id="entity_ACT_Rr9Ss9"><rect fill="#FFFAC8" height="44" rx="2" ry="2" style="stroke:#B8860B;stroke-width:0.5;" width="136.8477" x="242.5" y="712.2969"/><ellipse cx="264.5" cy="728.2969" fill="none" rx="2.85" ry="2.85" style="stroke:#252327;stroke-width:1.95;"/><path d="M263.525,731.1469 L263.525,737.2969 L265.475,737.2969 L265.475,731.1469" fill="#252327"/><path d="M261.02,742.6069 L259.58,741.2869 L263.78,736.6369 L265.22,737.9569" fill="#252327"/><path d="M263.78,737.9569 L265.22,736.6369 L269.42,741.2869 L267.98,742.6069" fill="#252327"/><path d="M260,733.4719 L269,733.4719 L269,735.4219 L260,735.4219" fill="#252327"/><text fill="#000000" font-family="sans-serif" font-size="12" lengthAdjust="spacing" textLength="89.0332" x="280.3145" y="743.4668">Product Owner</text></g><!--entity ACT_Ut1Vv1--><g class="entity" data-entity="ACT_Ut1Vv1" data-source-line="13" data-uid="ent0007" id="entity_ACT_Ut1Vv1"><rect fill="#FFFAC8" height="57.9688" rx="2" ry="2" style="stroke:#B8860B;stroke-width:0.5;" width="145.1035" x="238.5" y="816.2969"/><ellipse cx="260.5" cy="832.2969" fill="none" rx="2.85" ry="2.85" style="stroke:#252327;stroke-width:1.95;"/><path d="M259.525,835.1469 L259.525,841.2969 L261.475,841.2969 L261.475,835.1469" fill="#252327"/><path d="M257.02,846.6069 L255.58,845.2869 L259.78,840.6369 L261.22,841.9569" fill="#252327"/><path d="M259.78,841.9569 L261.22,840.6369 L265.42,845.2869 L263.98,846.6069" fill="#252327"/><path d="M256,837.4719 L265,837.4719 L265,839.4219 L256,839.4219" fill="#252327"/><text fill="#000000" font-family="sans-serif" font-size="12" lengthAdjust="spacing" textLength="97.2891" x="276.3145" y="847.4668">Upper Technical</text><text fill="#000000" font-family="sans-serif" font-size="12" lengthAdjust="spacing" textLength="79.0488" x="248.5" y="861.4355">Management</text></g><!--entity ROL_deMuTj--><g class="entity" data-entity="ROL_deMuTj" data-source-line="17" data-uid="ent0009" id="entity_ROL_deMuTj"><rect fill="#E0D8CC" height="44" rx="2" ry="2" style="stroke:#8C7E6A;stroke-width:0.5;" width="88.2148" x="511" y="504.2969"/><path d="M525.5,519.5469 L537.2,519.5469 A3,3 0 0 1 540.2,522.5469 L540.2,530.0469 A3,3 0 0 1 537.2,533.0469 L525.5,533.0469" fill="#252327"/><text fill="#000000" font-family="sans-serif" font-size="12" lengthAdjust="spacing" textLength="40.4004" x="548.8145" y="535.4668">Author</text></g><!--entity ROL_6VGCvh--><g class="entity" data-entity="ROL_6VGCvh" data-source-line="18" data-uid="ent0010" id="entity_ROL_6VGCvh"><rect fill="#E0D8CC" height="44" rx="2" ry="2" style="stroke:#8C7E6A;stroke-width:0.5;" width="103.4844" x="503.5" y="608.2969"/><path d="M518,623.5469 L529.7,623.5469 A3,3 0 0 1 532.7,626.5469 L532.7,634.0469 A3,3 0 0 1 529.7,637.0469 L518,637.0469" fill="#252327"/><text fill="#000000" font-family="sans-serif" font-size="12" lengthAdjust="spacing" textLength="55.6699" x="541.3145" y="639.4668">Reviewer</text></g><!--entity BIF_zr7_vT--><g class="entity" data-entity="BIF_zr7_vT" data-source-line="22" data-uid="ent0012" id="entity_BIF_zr7_vT"><rect fill="#FFFAC8" height="44" rx="2" ry="2" style="stroke:#B8860B;stroke-width:0.5;" width="126.9746" x="23" y="712.2969"/><path d="M37.2,733.3219 L42.3,733.3219 L42.3,735.2719 L37.2,735.2719" fill="#252327"/><ellipse cx="46.8" cy="734.2969" fill="none" rx="4.8" ry="4.8" style="stroke:#252327;stroke-width:1.95;"/><text fill="#000000" font-family="sans-serif" font-size="12" lengthAdjust="spacing" textLength="79.1602" x="60.8145" y="743.4668">GUI Interface</text></g><!--entity BOB_ie4vWU--><g class="entity" data-entity="BOB_ie4vWU" data-source-line="26" data-uid="ent0014" id="entity_BOB_ie4vWU"><rect fill="#FFFAC8" height="44" rx="2" ry="2" style="stroke:#B8860B;stroke-width:0.5;" width="107.6152" x="501" y="180.2969"/><path d="M515.35,196.5969 L530.65,196.5969 L530.65,198.5469 L515.35,198.5469" fill="#252327"/><path d="M515.35,206.0469 L530.65,206.0469 L530.65,207.9969 L515.35,207.9969" fill="#252327"/><path d="M515.35,198.5469 L515.35,206.0469 L517.3,206.0469 L517.3,198.5469" fill="#252327"/><path d="M528.7,198.5469 L528.7,206.0469 L530.65,206.0469 L530.65,198.5469" fill="#252327"/><path d="M515.35,198.7719 L530.65,198.7719 L530.65,200.7219 L515.35,200.7219" fill="#252327"/><text fill="#000000" font-family="sans-serif" font-size="12" lengthAdjust="spacing" textLength="59.8008" x="538.8145" y="211.4668">Entity File</text></g><!--entity BOB_d8ETlx--><g class="entity" data-entity="BOB_d8ETlx" data-source-line="27" data-uid="ent0015" id="entity_BOB_d8ETlx"><rect fill="#FFFAC8" height="44" rx="2" ry="2" style="stroke:#B8860B;stroke-width:0.5;" width="140.4805" x="485" y="76.2969"/><path d="M499.35,92.5969 L514.65,92.5969 L514.65,94.5469 L499.35,94.5469" fill="#252327"/><path d="M499.35,102.0469 L514.65,102.0469 L514.65,103.9969 L499.35,103.9969" fill="#252327"/><path d="M499.35,94.5469 L499.35,102.0469 L501.3,102.0469 L501.3,94.5469" fill="#252327"/><path d="M512.7,94.5469 L512.7,102.0469 L514.65,102.0469 L514.65,94.5469" fill="#252327"/><path d="M499.35,94.7719 L514.65,94.7719 L514.65,96.7219 L499.35,96.7219" fill="#252327"/><text fill="#000000" font-family="sans-serif" font-size="12" lengthAdjust="spacing" textLength="92.666" x="522.8145" y="107.4668">Connection File</text></g><!--entity BOB_8D68QW--><g class="entity" data-entity="BOB_8D68QW" data-source-line="28" data-uid="ent0016" id="entity_BOB_8D68QW"><rect fill="#FFFAC8" height="44" rx="2" ry="2" style="stroke:#B8860B;stroke-width:0.5;" width="124.1035" x="493" y="284.2969"/><path d="M507.35,300.5969 L522.65,300.5969 L522.65,302.5469 L507.35,302.5469" fill="#252327"/><path d="M507.35,310.0469 L522.65,310.0469 L522.65,311.9969 L507.35,311.9969" fill="#252327"/><path d="M507.35,302.5469 L507.35,310.0469 L509.3,310.0469 L509.3,302.5469" fill="#252327"/><path d="M520.7,302.5469 L520.7,310.0469 L522.65,310.0469 L522.65,302.5469" fill="#252327"/><path d="M507.35,302.7719 L522.65,302.7719 L522.65,304.7219 L507.35,304.7219" fill="#252327"/><text fill="#000000" font-family="sans-serif" font-size="12" lengthAdjust="spacing" textLength="76.2891" x="530.8145" y="315.4668">Diagram File</text></g><!--entity BOB_jqcFNe--><g class="entity" data-entity="BOB_jqcFNe" data-source-line="29" data-uid="ent0017" id="entity_BOB_jqcFNe"><rect fill="#FFFAC8" height="44" rx="2" ry="2" style="stroke:#B8860B;stroke-width:0.5;" width="161.6504" x="230" y="180.2969"/><path d="M244.35,196.5969 L259.65,196.5969 L259.65,198.5469 L244.35,198.5469" fill="#252327"/><path d="M244.35,206.0469 L259.65,206.0469 L259.65,207.9969 L244.35,207.9969" fill="#252327"/><path d="M244.35,198.5469 L244.35,206.0469 L246.3,206.0469 L246.3,198.5469" fill="#252327"/><path d="M257.7,198.5469 L257.7,206.0469 L259.65,206.0469 L259.65,198.5469" fill="#252327"/><path d="M244.35,198.7719 L259.65,198.7719 L259.65,200.7219 L244.35,200.7219" fill="#252327"/><text fill="#000000" font-family="sans-serif" font-size="12" lengthAdjust="spacing" textLength="113.8359" x="267.8145" y="211.4668">Architecture Model</text></g><!--entity BOB_so7gfN--><g class="entity" data-entity="BOB_so7gfN" data-source-line="30" data-uid="ent0018" id="entity_BOB_so7gfN"><rect fill="#FFFAC8" height="57.9688" rx="2" ry="2" style="stroke:#B8860B;stroke-width:0.5;" width="124.3555" x="24.5" y="114.2969"/><path d="M38.85,130.5969 L54.15,130.5969 L54.15,132.5469 L38.85,132.5469" fill="#252327"/><path d="M38.85,140.0469 L54.15,140.0469 L54.15,141.9969 L38.85,141.9969" fill="#252327"/><path d="M38.85,132.5469 L38.85,140.0469 L40.8,140.0469 L40.8,132.5469" fill="#252327"/><path d="M52.2,132.5469 L52.2,140.0469 L54.15,140.0469 L54.15,132.5469" fill="#252327"/><path d="M38.85,132.7719 L54.15,132.7719 L54.15,134.7219 L38.85,134.7219" fill="#252327"/><text fill="#000000" font-family="sans-serif" font-size="12" lengthAdjust="spacing" textLength="76.541" x="62.3145" y="145.4668">Engagement</text><text fill="#000000" font-family="sans-serif" font-size="12" lengthAdjust="spacing" textLength="64.3477" x="34.5" y="159.4355">Repository</text></g><!--entity BOB_6Uok0b--><g class="entity" data-entity="BOB_6Uok0b" data-source-line="31" data-uid="ent0019" id="entity_BOB_6Uok0b"><rect fill="#FFFAC8" height="57.9688" rx="2" ry="2" style="stroke:#B8860B;stroke-width:0.5;" width="109.543" x="31.5" y="232.2969"/><path d="M45.85,248.5969 L61.15,248.5969 L61.15,250.5469 L45.85,250.5469" fill="#252327"/><path d="M45.85,258.0469 L61.15,258.0469 L61.15,259.9969 L45.85,259.9969" fill="#252327"/><path d="M45.85,250.5469 L45.85,258.0469 L47.8,258.0469 L47.8,250.5469" fill="#252327"/><path d="M59.2,250.5469 L59.2,258.0469 L61.15,258.0469 L61.15,250.5469" fill="#252327"/><path d="M45.85,250.7719 L61.15,250.7719 L61.15,252.7219 L45.85,252.7219" fill="#252327"/><text fill="#000000" font-family="sans-serif" font-size="12" lengthAdjust="spacing" textLength="61.7285" x="69.3145" y="263.4668">Enterprise</text><text fill="#000000" font-family="sans-serif" font-size="12" lengthAdjust="spacing" textLength="64.3477" x="41.5" y="277.4355">Repository</text></g><!--link ACT_Nn7Oo7 to ROL_deMuTj--><g class="link" data-entity-1="ACT_Nn7Oo7" data-entity-2="ROL_deMuTj" data-source-line="35" data-uid="lnk20" id="link_ACT_Nn7Oo7_ROL_deMuTj"><path d="M362.15,518.9669 C406.17,518.9669 463.02,518.9669 504.87,518.9669" fill="none" id="ACT_Nn7Oo7-to-ROL_deMuTj" style="stroke:#181818;stroke-width:1;"/><polygon fill="#181818" points="510.87,518.9669,501.87,514.9669,505.87,518.9669,501.87,522.9669,510.87,518.9669" style="stroke:#181818;stroke-width:1;"/><text fill="#000000" font-family="sans-serif" font-size="12" lengthAdjust="spacing" textLength="84.4805" x="351.51" y="531.1055">&#171;assignment&#187;</text></g><!--link ACT_Nn7Oo7 to ROL_6VGCvh--><g class="link" data-entity-1="ACT_Nn7Oo7" data-entity-2="ROL_6VGCvh" data-source-line="36" data-uid="lnk21" id="link_ACT_Nn7Oo7_ROL_6VGCvh"><path d="M362.25,533.6269 C420.62,533.6269 508,533.6269 508,533.6269 C508,533.6269 508,573.3169 508,601.8769" fill="none" id="ACT_Nn7Oo7-to-ROL_6VGCvh" style="stroke:#181818;stroke-width:1;"/><polygon fill="#181818" points="508,607.8769,512,598.8769,508,602.8769,504,598.8769,508,607.8769" style="stroke:#181818;stroke-width:1;"/><text fill="#000000" font-family="sans-serif" font-size="12" lengthAdjust="spacing" textLength="84.4805" x="387.25" y="545.7655">&#171;assignment&#187;</text></g><!--link ACT_Pp8Qq8 to ROL_deMuTj--><g class="link" data-entity-1="ACT_Pp8Qq8" data-entity-2="ROL_deMuTj" data-source-line="37" data-uid="lnk22" id="link_ACT_Pp8Qq8_ROL_deMuTj"><path d="M366.06,422.2969 C438.03,422.2969 555,422.2969 555,422.2969 C555,422.2969 555,467.7169 555,498.2369" fill="none" id="ACT_Pp8Qq8-to-ROL_deMuTj" style="stroke:#181818;stroke-width:1;"/><polygon fill="#181818" points="555,504.2369,559,495.2369,555,499.2369,551,495.2369,555,504.2369" style="stroke:#181818;stroke-width:1;"/><text fill="#000000" font-family="sans-serif" font-size="12" lengthAdjust="spacing" textLength="84.4805" x="416.5" y="434.4355">&#171;assignment&#187;</text></g><!--link ACT_Rr9Ss9 to ROL_6VGCvh--><g class="link" data-entity-1="ACT_Rr9Ss9" data-entity-2="ROL_6VGCvh" data-source-line="38" data-uid="lnk23" id="link_ACT_Rr9Ss9_ROL_6VGCvh"><path d="M379.72,734.2969 C446.54,734.2969 538,734.2969 538,734.2969 C538,734.2969 538,688.8769 538,658.3569" fill="none" id="ACT_Rr9Ss9-to-ROL_6VGCvh" style="stroke:#181818;stroke-width:1;"/><polygon fill="#181818" points="538,652.3569,534,661.3569,538,657.3569,542,661.3569,538,652.3569" style="stroke:#181818;stroke-width:1;"/><text fill="#000000" font-family="sans-serif" font-size="12" lengthAdjust="spacing" textLength="84.4805" x="414.83" y="746.4355">&#171;assignment&#187;</text></g><!--link ACT_Ut1Vv1 to ROL_6VGCvh--><g class="link" data-entity-1="ACT_Ut1Vv1" data-entity-2="ROL_6VGCvh" data-source-line="39" data-uid="lnk24" id="link_ACT_Ut1Vv1_ROL_6VGCvh"><path d="M383.63,845.2969 C461.17,845.2969 573,845.2969 573,845.2969 C573,845.2969 573,713.4269 573,658.4969" fill="none" id="ACT_Ut1Vv1-to-ROL_6VGCvh" style="stroke:#181818;stroke-width:1;"/><polygon fill="#181818" points="573,652.4969,569,661.4969,573,657.4969,577,661.4969,573,652.4969" style="stroke:#181818;stroke-width:1;"/><text fill="#000000" font-family="sans-serif" font-size="12" lengthAdjust="spacing" textLength="84.4805" x="488" y="855.7155">&#171;assignment&#187;</text></g><!--reverse link BOB_jqcFNe to BOB_ie4vWU--><g class="link" data-entity-1="BOB_jqcFNe" data-entity-2="BOB_ie4vWU" data-source-line="42" data-uid="lnk25" id="link_BOB_jqcFNe_BOB_ie4vWU"><path d="M404.25,202.2969 C440.02,202.2969 469.06,202.2969 500.99,202.2969" fill="none" id="BOB_jqcFNe-backto-BOB_ie4vWU" style="stroke:#181818;stroke-width:1;"/><polygon fill="#181818" points="392.25,202.2969,398.25,206.2969,404.25,202.2969,398.25,198.2969,392.25,202.2969" style="stroke:#181818;stroke-width:1;"/></g><!--reverse link BOB_jqcFNe to BOB_d8ETlx--><g class="link" data-entity-1="BOB_jqcFNe" data-entity-2="BOB_d8ETlx" data-source-line="43" data-uid="lnk26" id="link_BOB_jqcFNe_BOB_d8ETlx"><path d="M404.19,191.2969 C451.13,191.2969 489,191.2969 489,191.2969 C489,191.2969 489,147.8369 489,120.3369" fill="none" id="BOB_jqcFNe-backto-BOB_d8ETlx" style="stroke:#181818;stroke-width:1;"/><polygon fill="#181818" points="392.19,191.2969,398.19,195.2969,404.19,191.2969,398.19,187.2969,392.19,191.2969" style="stroke:#181818;stroke-width:1;"/></g><!--reverse link BOB_jqcFNe to BOB_8D68QW--><g class="link" data-entity-1="BOB_jqcFNe" data-entity-2="BOB_8D68QW" data-source-line="44" data-uid="lnk27" id="link_BOB_jqcFNe_BOB_8D68QW"><path d="M404.04,213.2969 C454.16,213.2969 497,213.2969 497,213.2969 C497,213.2969 497,256.7569 497,284.2569" fill="none" id="BOB_jqcFNe-backto-BOB_8D68QW" style="stroke:#181818;stroke-width:1;"/><polygon fill="#181818" points="392.04,213.2969,398.04,217.2969,404.04,213.2969,398.04,209.2969,392.04,213.2969" style="stroke:#181818;stroke-width:1;"/></g><!--reverse link BOB_so7gfN to BOB_jqcFNe--><g class="link" data-entity-1="BOB_so7gfN" data-entity-2="BOB_jqcFNe" data-source-line="47" data-uid="lnk28" id="link_BOB_so7gfN_BOB_jqcFNe"><path d="M147,184.4469 C147,199.3169 147,202.2969 147,202.2969 C147,202.2969 188.64,202.2969 229.96,202.2969" fill="none" id="BOB_so7gfN-backto-BOB_jqcFNe" style="stroke:#181818;stroke-width:1;"/><polygon fill="#181818" points="147,172.4469,143,178.4469,147,184.4469,151,178.4469,147,172.4469" style="stroke:#181818;stroke-width:1;"/></g><!--reverse link BOB_6Uok0b to BOB_jqcFNe--><g class="link" data-entity-1="BOB_6Uok0b" data-entity-2="BOB_jqcFNe" data-source-line="48" data-uid="lnk29" id="link_BOB_6Uok0b_BOB_jqcFNe"><path d="M153.84,258.2969 C199.91,258.2969 246,258.2969 246,258.2969 C246,258.2969 246,240.0869 246,224.4269" fill="none" id="BOB_6Uok0b-backto-BOB_jqcFNe" style="stroke:#181818;stroke-width:1;"/><polygon fill="#181818" points="141.84,258.2969,147.84,262.2969,153.84,258.2969,147.84,254.2969,141.84,258.2969" style="stroke:#181818;stroke-width:1;"/></g><!--link BIF_zr7_vT to ACT_Nn7Oo7--><g class="link" data-entity-1="BIF_zr7_vT" data-entity-2="ACT_Nn7Oo7" data-source-line="51" data-uid="lnk30" id="link_BIF_zr7_vT_ACT_Nn7Oo7"><path d="M144,712.0369 C144,658.3769 144,526.2969 144,526.2969 C144,526.2969 204.88,526.2969 253.99,526.2969" fill="none" id="BIF_zr7_vT-to-ACT_Nn7Oo7" style="stroke:#181818;stroke-width:1;"/><polygon fill="#181818" points="259.99,526.2969,250.99,522.2969,254.99,526.2969,250.99,530.2969,259.99,526.2969" style="stroke:#181818;stroke-width:1;"/></g><!--link BIF_zr7_vT to ACT_Rr9Ss9--><g class="link" data-entity-1="BIF_zr7_vT" data-entity-2="ACT_Rr9Ss9" data-source-line="52" data-uid="lnk31" id="link_BIF_zr7_vT_ACT_Rr9Ss9"><path d="M150.23,734.2969 C179.01,734.2969 207.06,734.2969 236.39,734.2969" fill="none" id="BIF_zr7_vT-to-ACT_Rr9Ss9" style="stroke:#181818;stroke-width:1;"/><polygon fill="#181818" points="242.39,734.2969,233.39,730.2969,237.39,734.2969,233.39,738.2969,242.39,734.2969" style="stroke:#181818;stroke-width:1;"/></g><!--link BIF_zr7_vT to ACT_Ut1Vv1--><g class="link" data-entity-1="BIF_zr7_vT" data-entity-2="ACT_Ut1Vv1" data-source-line="53" data-uid="lnk32" id="link_BIF_zr7_vT_ACT_Ut1Vv1"><path d="M87,756.4969 C87,788.8869 87,845.2969 87,845.2969 C87,845.2969 166.87,845.2969 232.27,845.2969" fill="none" id="BIF_zr7_vT-to-ACT_Ut1Vv1" style="stroke:#181818;stroke-width:1;"/><polygon fill="#181818" points="238.27,845.2969,229.27,841.2969,233.27,845.2969,229.27,849.2969,238.27,845.2969" style="stroke:#181818;stroke-width:1;"/></g><!--SRC=[dLNRJjj047ttLmoewarDMgGs2HMr10c942I6D24lI9Qn9yvIUzViharJXDIdVa3LB-HBklOQvr8hf7wBCcVEEUkvxH3g1h67KA-_jntkpaZeIAm9YHoPd4Sewb4S1iPEESuFvj4iXnW1JYL81fpuCmaUuUXAmgXXI283XADO48f2G8U53g7m-FCF7BgISV4EXYn00I_X5ETWNT-eH64OQRv3VPMwgt6xS73mnDBZB8u8zKqJxWs09Up1YyAV_OJEyk-5wmJuPQ_-wS64mnGZLTOoQGPJZ8w0m_R87j2cnPfLs3kOOC0Yv1lOpwFMnMsh8hiL2JYclW9irB3E9cJWLj4uvyoBNGdM7TseCEJxNyL-5OLnfBuFZD2TKQB-lg9zXpe-XaWtrMGizowJFUDXfJrq-xoUSXP2cuKXeszI2lrpkqv9ALOR99Opbhqy3Ma3G-lCzh0VZsx-WsY82S4xBA5gNFRQoMpjBITKpTxKSR5wjnSKApvwunCe9I_-rCwEJhhs3zwqaz6QitGuYo7EfxIwIKsmul2OgaqnXou9LlnfP6xEEh89VamcuqeARKQftahFgdYjur7mlP9AXpW-Ty9d9LgTHkjYKacYM5ynH-Wp3uDDGZUtRdU05MlYvqDvHOSOCK7KECutYGdMzAU3gWs0FE94uBPYZJ7xzk4wRTHN-fZ0uw_VsJbH245ycZeNncARGwrcBiqnV5Ra2wHfba7rd9P3zHRVYbMlogrOzPPx5geUdTKUN1PcNoizjuk2mzjQRNbYIY9vbvT4ykPK4ejA_AEZQrtav7ssACnwHB4LsmO4yaIjRIUxxSPYxMJFNhg_9P7ywfH4yllm5m00]--></g></svg>