<svg xmlns="http://www.w3.org/2000/svg" xmlns:xlink="http://www.w3.org/1999/xlink" contentStyleType="text/css" data-diagram-type="DESCRIPTION" height="866px" preserveAspectRatio="none" style="width:1025px;height:866px;background:#FFFFFF;" version="1.1" viewBox="0 0 1025 866" width="1025px" zoomAndPan="magnify"><?plantuml 1.2026.3?><defs/><g><g class="title" data-source-line="37"><text fill="#000000" font-family="sans-serif" font-size="14" font-weight="700" lengthAdjust="spacing" textLength="144.2725" x="436.8638" y="22.9951">AMP &#8212; Containers</text></g><!--cluster APP_hkrdtm--><g class="cluster" data-qualified-name="APP_hkrdtm" data-source-line="39" id="ent0002"><rect fill="#1168BD" height="409" rx="6" ry="6" style="stroke:#0B4884;stroke-width:1;" width="739.5" x="267.5" y="121.7969"/><text fill="#FFFFFF" font-family="sans-serif" font-size="14" font-style="italic" lengthAdjust="spacing" textLength="88.1699" x="593.165" y="136.792">&#171;C4System&#187;</text><text fill="#FFFFFF" font-family="sans-serif" font-size="14" font-weight="700" lengthAdjust="spacing" textLength="279.5488" x="497.4756" y="153.0889">Architecture Management Platform</text></g><!--entity APP_kjC6ex--><g class="entity" data-qualified-name="APP_hkrdtm.APP_kjC6ex" data-source-line="40" id="ent0003"><rect fill="#438DD5" height="52.5938" rx="6" ry="6" style="stroke:#2F6DA6;stroke-width:0.5;" width="126.3779" x="304.5" y="277.2969"/><text fill="#FFFFFF" font-family="sans-serif" font-size="14" font-style="italic" lengthAdjust="spacing" textLength="104.3779" x="315.5" y="300.292">&#171;C4Container&#187;</text><text fill="#FFFFFF" font-family="sans-serif" font-size="14" lengthAdjust="spacing" textLength="21.7041" x="339.8257" y="316.5889">CLI</text><text fill="#FFFFFF" font-family="sans-serif" font-size="14" lengthAdjust="spacing" textLength="4.4502" x="361.5298" y="316.5889">&#160;</text><text fill="#FFFFFF" font-family="sans-serif" font-size="14" lengthAdjust="spacing" textLength="29.5723" x="365.98" y="316.5889">Tool</text></g><!--entity APP_lmO0mp--><g class="entity" data-qualified-name="APP_hkrdtm.APP_lmO0mp" data-source-line="41" id="ent0004"><rect fill="#438DD5" height="52.5938" rx="6" ry="6" style="stroke:#2F6DA6;stroke-width:0.5;" width="152.4805" x="291.5" y="365.2969"/><text fill="#FFFFFF" font-family="sans-serif" font-size="14" font-style="italic" lengthAdjust="spacing" textLength="104.3779" x="315.5513" y="388.292">&#171;C4Container&#187;</text><text fill="#FFFFFF" font-family="sans-serif" font-size="14" lengthAdjust="spacing" textLength="25.2246" x="301.5" y="404.5889">GUI</text><text fill="#FFFFFF" font-family="sans-serif" font-size="14" lengthAdjust="spacing" textLength="4.4502" x="326.7246" y="404.5889">&#160;</text><text fill="#FFFFFF" font-family="sans-serif" font-size="14" lengthAdjust="spacing" textLength="68.7832" x="331.1748" y="404.5889">Authoring</text><text fill="#FFFFFF" font-family="sans-serif" font-size="14" lengthAdjust="spacing" textLength="4.4502" x="399.958" y="404.5889">&#160;</text><text fill="#FFFFFF" font-family="sans-serif" font-size="14" lengthAdjust="spacing" textLength="29.5723" x="404.4082" y="404.5889">Tool</text></g><!--entity APP_OYEmP1--><g class="entity" data-qualified-name="APP_hkrdtm.APP_OYEmP1" data-source-line="42" id="ent0005"><rect fill="#438DD5" height="52.5938" rx="6" ry="6" style="stroke:#2F6DA6;stroke-width:0.5;" width="171.1357" x="519" y="365.2969"/><text fill="#FFFFFF" font-family="sans-serif" font-size="14" font-style="italic" lengthAdjust="spacing" textLength="104.3779" x="552.3789" y="388.292">&#171;C4Container&#187;</text><text fill="#FFFFFF" font-family="sans-serif" font-size="14" lengthAdjust="spacing" textLength="86.3242" x="529" y="404.5889">Architecture</text><text fill="#FFFFFF" font-family="sans-serif" font-size="14" lengthAdjust="spacing" textLength="4.4502" x="615.3242" y="404.5889">&#160;</text><text fill="#FFFFFF" font-family="sans-serif" font-size="14" lengthAdjust="spacing" textLength="60.3613" x="619.7744" y="404.5889">Backend</text></g><!--entity APP_Ne0utf--><g class="entity" data-qualified-name="APP_hkrdtm.APP_Ne0utf" data-source-line="43" id="ent0006"><rect fill="#438DD5" height="52.5938" rx="6" ry="6" style="stroke:#2F6DA6;stroke-width:0.5;" width="231.415" x="751" y="365.2969"/><text fill="#FFFFFF" font-family="sans-serif" font-size="14" font-style="italic" lengthAdjust="spacing" textLength="104.3779" x="814.5186" y="388.292">&#171;C4Container&#187;</text><text fill="#FFFFFF" font-family="sans-serif" font-size="14" lengthAdjust="spacing" textLength="86.3242" x="761" y="404.5889">Architecture</text><text fill="#FFFFFF" font-family="sans-serif" font-size="14" lengthAdjust="spacing" textLength="4.4502" x="847.3242" y="404.5889">&#160;</text><text fill="#FFFFFF" font-family="sans-serif" font-size="14" lengthAdjust="spacing" textLength="30.2969" x="851.7744" y="404.5889">MCP</text><text fill="#FFFFFF" font-family="sans-serif" font-size="14" lengthAdjust="spacing" textLength="4.4502" x="882.0713" y="404.5889">&#160;</text><text fill="#FFFFFF" font-family="sans-serif" font-size="14" lengthAdjust="spacing" textLength="35.8066" x="886.5215" y="404.5889">Read</text><text fill="#FFFFFF" font-family="sans-serif" font-size="14" lengthAdjust="spacing" textLength="4.4502" x="922.3281" y="404.5889">&#160;</text><text fill="#FFFFFF" font-family="sans-serif" font-size="14" lengthAdjust="spacing" textLength="45.6367" x="926.7783" y="404.5889">Bridge</text></g><!--entity APP_etTj9M--><g class="entity" data-qualified-name="APP_hkrdtm.APP_etTj9M" data-source-line="44" id="ent0007"><rect fill="#438DD5" height="52.5938" rx="6" ry="6" style="stroke:#2F6DA6;stroke-width:0.5;" width="233.1992" x="750" y="277.2969"/><text fill="#FFFFFF" font-family="sans-serif" font-size="14" font-style="italic" lengthAdjust="spacing" textLength="104.3779" x="814.4106" y="300.292">&#171;C4Container&#187;</text><text fill="#FFFFFF" font-family="sans-serif" font-size="14" lengthAdjust="spacing" textLength="86.3242" x="760" y="316.5889">Architecture</text><text fill="#FFFFFF" font-family="sans-serif" font-size="14" lengthAdjust="spacing" textLength="4.4502" x="846.3242" y="316.5889">&#160;</text><text fill="#FFFFFF" font-family="sans-serif" font-size="14" lengthAdjust="spacing" textLength="30.2969" x="850.7744" y="316.5889">MCP</text><text fill="#FFFFFF" font-family="sans-serif" font-size="14" lengthAdjust="spacing" textLength="4.4502" x="881.0713" y="316.5889">&#160;</text><text fill="#FFFFFF" font-family="sans-serif" font-size="14" lengthAdjust="spacing" textLength="37.5908" x="885.5215" y="316.5889">Write</text><text fill="#FFFFFF" font-family="sans-serif" font-size="14" lengthAdjust="spacing" textLength="4.4502" x="923.1123" y="316.5889">&#160;</text><text fill="#FFFFFF" font-family="sans-serif" font-size="14" lengthAdjust="spacing" textLength="45.6367" x="927.5625" y="316.5889">Bridge</text></g><!--entity APP_iu_kKL--><g class="entity" data-qualified-name="APP_hkrdtm.APP_iu_kKL" data-source-line="45" id="ent0008"><rect fill="#438DD5" height="52.5938" rx="6" ry="6" style="stroke:#2F6DA6;stroke-width:0.5;" width="217.6475" x="757.5" y="453.2969"/><text fill="#FFFFFF" font-family="sans-serif" font-size="14" font-style="italic" lengthAdjust="spacing" textLength="104.3779" x="814.1348" y="476.292">&#171;C4Container&#187;</text><text fill="#FFFFFF" font-family="sans-serif" font-size="14" lengthAdjust="spacing" textLength="72.5566" x="767.5" y="492.5889">Assurance</text><text fill="#FFFFFF" font-family="sans-serif" font-size="14" lengthAdjust="spacing" textLength="4.4502" x="840.0566" y="492.5889">&#160;</text><text fill="#FFFFFF" font-family="sans-serif" font-size="14" lengthAdjust="spacing" textLength="30.2969" x="844.5068" y="492.5889">MCP</text><text fill="#FFFFFF" font-family="sans-serif" font-size="14" lengthAdjust="spacing" textLength="4.4502" x="874.8037" y="492.5889">&#160;</text><text fill="#FFFFFF" font-family="sans-serif" font-size="14" lengthAdjust="spacing" textLength="35.8066" x="879.2539" y="492.5889">Read</text><text fill="#FFFFFF" font-family="sans-serif" font-size="14" lengthAdjust="spacing" textLength="4.4502" x="915.0605" y="492.5889">&#160;</text><text fill="#FFFFFF" font-family="sans-serif" font-size="14" lengthAdjust="spacing" textLength="45.6367" x="919.5107" y="492.5889">Bridge</text></g><!--entity APP_js9xHR--><g class="entity" data-qualified-name="APP_hkrdtm.APP_js9xHR" data-source-line="46" id="ent0009"><rect fill="#438DD5" height="52.5938" rx="6" ry="6" style="stroke:#2F6DA6;stroke-width:0.5;" width="219.4316" x="757" y="189.2969"/><text fill="#FFFFFF" font-family="sans-serif" font-size="14" font-style="italic" lengthAdjust="spacing" textLength="104.3779" x="814.5269" y="212.292">&#171;C4Container&#187;</text><text fill="#FFFFFF" font-family="sans-serif" font-size="14" lengthAdjust="spacing" textLength="72.5566" x="767" y="228.5889">Assurance</text><text fill="#FFFFFF" font-family="sans-serif" font-size="14" lengthAdjust="spacing" textLength="4.4502" x="839.5566" y="228.5889">&#160;</text><text fill="#FFFFFF" font-family="sans-serif" font-size="14" lengthAdjust="spacing" textLength="30.2969" x="844.0068" y="228.5889">MCP</text><text fill="#FFFFFF" font-family="sans-serif" font-size="14" lengthAdjust="spacing" textLength="4.4502" x="874.3037" y="228.5889">&#160;</text><text fill="#FFFFFF" font-family="sans-serif" font-size="14" lengthAdjust="spacing" textLength="37.5908" x="878.7539" y="228.5889">Write</text><text fill="#FFFFFF" font-family="sans-serif" font-size="14" lengthAdjust="spacing" textLength="4.4502" x="916.3447" y="228.5889">&#160;</text><text fill="#FFFFFF" font-family="sans-serif" font-size="14" lengthAdjust="spacing" textLength="45.6367" x="920.7949" y="228.5889">Bridge</text></g><!--entity ACT_Nn7Oo7--><g class="entity" data-qualified-name="ACT_Nn7Oo7" data-source-line="56" id="ent0016"><ellipse cx="111.041" cy="86.2969" fill="#08427B" rx="8" ry="8" style="stroke:#052E56;stroke-width:0.5;"/><path d="M111.041,94.2969 L111.041,121.2969 M98.041,102.2969 L124.041,102.2969 M111.041,121.2969 L98.041,136.2969 M111.041,121.2969 L124.041,136.2969" fill="none" style="stroke:#052E56;stroke-width:0.5;"/><text fill="#FFFFFF" font-family="sans-serif" font-size="14" lengthAdjust="spacing" textLength="63.082" x="79.5" y="150.792">Architect</text></g><!--entity ACT_OLWiNc--><g class="entity" data-qualified-name="ACT_OLWiNc" data-source-line="57" id="ent0017"><ellipse cx="110.8398" cy="197.2969" fill="#08427B" rx="8" ry="8" style="stroke:#052E56;stroke-width:0.5;"/><path d="M110.8398,205.2969 L110.8398,232.2969 M97.8398,213.2969 L123.8398,213.2969 M110.8398,232.2969 L97.8398,247.2969 M110.8398,232.2969 L123.8398,247.2969" fill="none" style="stroke:#052E56;stroke-width:0.5;"/><text fill="#FFFFFF" font-family="sans-serif" font-size="14" lengthAdjust="spacing" textLength="54.8789" x="50" y="261.792">DevOps</text><text fill="#FFFFFF" font-family="sans-serif" font-size="14" lengthAdjust="spacing" textLength="4.4502" x="104.8789" y="261.792">&#160;</text><text fill="#FFFFFF" font-family="sans-serif" font-size="14" lengthAdjust="spacing" textLength="62.3506" x="109.3291" y="261.792">Engineer</text></g><!--entity ACT_Pp8Qq8--><g class="entity" data-qualified-name="ACT_Pp8Qq8" data-source-line="58" id="ent0018"><ellipse cx="111.0015" cy="308.2969" fill="#08427B" rx="8" ry="8" style="stroke:#052E56;stroke-width:0.5;"/><path d="M111.0015,316.2969 L111.0015,343.2969 M98.0015,324.2969 L124.0015,324.2969 M111.0015,343.2969 L98.0015,358.2969 M111.0015,343.2969 L124.0015,358.2969" fill="none" style="stroke:#052E56;stroke-width:0.5;"/><text fill="#FFFFFF" font-family="sans-serif" font-size="14" lengthAdjust="spacing" textLength="72.0029" x="75" y="372.792">Developer</text></g><!--entity ACT_Rr9Ss9--><g class="entity" data-qualified-name="ACT_Rr9Ss9" data-source-line="59" id="ent0019"><ellipse cx="110.936" cy="419.2969" fill="#08427B" rx="8" ry="8" style="stroke:#052E56;stroke-width:0.5;"/><path d="M110.936,427.2969 L110.936,454.2969 M97.936,435.2969 L123.936,435.2969 M110.936,454.2969 L97.936,469.2969 M110.936,454.2969 L123.936,469.2969" fill="none" style="stroke:#052E56;stroke-width:0.5;"/><text fill="#FFFFFF" font-family="sans-serif" font-size="14" lengthAdjust="spacing" textLength="53.71" x="59" y="483.792">Product</text><text fill="#FFFFFF" font-family="sans-serif" font-size="14" lengthAdjust="spacing" textLength="4.4502" x="112.71" y="483.792">&#160;</text><text fill="#FFFFFF" font-family="sans-serif" font-size="14" lengthAdjust="spacing" textLength="45.7119" x="117.1602" y="483.792">Owner</text></g><!--entity ACT_Ut1Vv1--><g class="entity" data-qualified-name="ACT_Ut1Vv1" data-source-line="60" id="ent0020"><ellipse cx="111.0889" cy="530.2969" fill="#08427B" rx="8" ry="8" style="stroke:#052E56;stroke-width:0.5;"/><path d="M111.0889,538.2969 L111.0889,565.2969 M98.0889,546.2969 L124.0889,546.2969 M111.0889,565.2969 L98.0889,580.2969 M111.0889,565.2969 L124.0889,580.2969" fill="none" style="stroke:#052E56;stroke-width:0.5;"/><text fill="#FFFFFF" font-family="sans-serif" font-size="14" lengthAdjust="spacing" textLength="42.3896" x="6" y="594.792">Upper</text><text fill="#FFFFFF" font-family="sans-serif" font-size="14" lengthAdjust="spacing" textLength="4.4502" x="48.3896" y="594.792">&#160;</text><text fill="#FFFFFF" font-family="sans-serif" font-size="14" lengthAdjust="spacing" textLength="66.6641" x="52.8398" y="594.792">Technical</text><text fill="#FFFFFF" font-family="sans-serif" font-size="14" lengthAdjust="spacing" textLength="4.4502" x="119.5039" y="594.792">&#160;</text><text fill="#FFFFFF" font-family="sans-serif" font-size="14" lengthAdjust="spacing" textLength="92.2236" x="123.9541" y="594.792">Management</text></g><!--entity APP_v6AXNw--><g class="entity" data-qualified-name="APP_v6AXNw" data-source-line="61" id="ent0021"><rect fill="#DDDDDD" height="52.5938" rx="6" ry="6" style="stroke:#777777;stroke-width:0.5;" width="116.2949" x="546.5" y="44.2969"/><text fill="#000000" font-family="sans-serif" font-size="14" font-style="italic" lengthAdjust="spacing" textLength="94.2949" x="557.5" y="67.292">&#171;C4External&#187;</text><text fill="#000000" font-family="sans-serif" font-size="14" lengthAdjust="spacing" textLength="13.7061" x="556.6865" y="83.5889">AI</text><text fill="#000000" font-family="sans-serif" font-size="14" lengthAdjust="spacing" textLength="4.4502" x="570.3926" y="83.5889">&#160;</text><text fill="#000000" font-family="sans-serif" font-size="14" lengthAdjust="spacing" textLength="41.4395" x="574.8428" y="83.5889">Agent</text><text fill="#000000" font-family="sans-serif" font-size="14" lengthAdjust="spacing" textLength="4.4502" x="616.2822" y="83.5889">&#160;</text><text fill="#000000" font-family="sans-serif" font-size="14" lengthAdjust="spacing" textLength="31.876" x="620.7324" y="83.5889">Host</text></g><!--entity APP_Je9pmw--><g class="entity" data-qualified-name="APP_Je9pmw" data-source-line="62" id="ent0022"><rect fill="#DDDDDD" height="52.5938" rx="6" ry="6" style="stroke:#777777;stroke-width:0.5;" width="116.2949" x="808.5" y="44.2969"/><text fill="#000000" font-family="sans-serif" font-size="14" font-style="italic" lengthAdjust="spacing" textLength="94.2949" x="819.5" y="67.292">&#171;C4External&#187;</text><text fill="#000000" font-family="sans-serif" font-size="14" lengthAdjust="spacing" textLength="20.2275" x="827.5459" y="83.5889">Git</text><text fill="#000000" font-family="sans-serif" font-size="14" lengthAdjust="spacing" textLength="4.4502" x="847.7734" y="83.5889">&#160;</text><text fill="#000000" font-family="sans-serif" font-size="14" lengthAdjust="spacing" textLength="53.5254" x="852.2236" y="83.5889">Hosting</text></g><!--entity APP_JqIBPJ--><g class="entity" data-qualified-name="APP_JqIBPJ" data-source-line="63" id="ent0023"><rect fill="#DDDDDD" height="52.5938" rx="6" ry="6" style="stroke:#777777;stroke-width:0.5;" width="220.3408" x="756.5" y="555.2969"/><text fill="#000000" font-family="sans-serif" font-size="14" font-style="italic" lengthAdjust="spacing" textLength="94.2949" x="819.5229" y="578.292">&#171;C4External&#187;</text><text fill="#000000" font-family="sans-serif" font-size="14" lengthAdjust="spacing" textLength="92.75" x="766.5" y="594.5889">Supply-Chain</text><text fill="#000000" font-family="sans-serif" font-size="14" lengthAdjust="spacing" textLength="4.4502" x="859.25" y="594.5889">&#160;</text><text fill="#000000" font-family="sans-serif" font-size="14" lengthAdjust="spacing" textLength="43.0049" x="863.7002" y="594.5889">Signal</text><text fill="#000000" font-family="sans-serif" font-size="14" lengthAdjust="spacing" textLength="4.4502" x="906.7051" y="594.5889">&#160;</text><text fill="#000000" font-family="sans-serif" font-size="14" lengthAdjust="spacing" textLength="55.6855" x="911.1553" y="594.5889">Sources</text></g><!--entity ROL_udXPfB--><g class="entity" data-qualified-name="ROL_udXPfB" data-source-line="64" id="ent0024"><ellipse cx="367.2979" cy="563.2969" fill="#08427B" rx="8" ry="8" style="stroke:#052E56;stroke-width:0.5;"/><path d="M367.2979,571.2969 L367.2979,598.2969 M354.2979,579.2969 L380.2979,579.2969 M367.2979,598.2969 L354.2979,613.2969 M367.2979,598.2969 L380.2979,613.2969" fill="none" style="stroke:#052E56;stroke-width:0.5;"/><text fill="#FFFFFF" font-family="sans-serif" font-size="14" lengthAdjust="spacing" textLength="13.7061" x="337.5" y="627.792">AI</text><text fill="#FFFFFF" font-family="sans-serif" font-size="14" lengthAdjust="spacing" textLength="4.4502" x="351.2061" y="627.792">&#160;</text><text fill="#FFFFFF" font-family="sans-serif" font-size="14" lengthAdjust="spacing" textLength="41.4395" x="355.6563" y="627.792">Agent</text></g><!--entity ROL_abNYhO--><g class="entity" data-qualified-name="ROL_abNYhO" data-source-line="65" id="ent0025"><ellipse cx="367.2632" cy="674.2969" fill="#08427B" rx="8" ry="8" style="stroke:#052E56;stroke-width:0.5;"/><path d="M367.2632,682.2969 L367.2632,709.2969 M354.2632,690.2969 L380.2632,690.2969 M367.2632,709.2969 L354.2632,724.2969 M367.2632,709.2969 L380.2632,724.2969" fill="none" style="stroke:#052E56;stroke-width:0.5;"/><text fill="#FFFFFF" font-family="sans-serif" font-size="14" lengthAdjust="spacing" textLength="29.0186" x="276" y="738.792">Risk</text><text fill="#FFFFFF" font-family="sans-serif" font-size="14" lengthAdjust="spacing" textLength="4.4502" x="305.0186" y="738.792">&#160;</text><text fill="#FFFFFF" font-family="sans-serif" font-size="14" lengthAdjust="spacing" textLength="10.917" x="309.4688" y="738.792">&amp;</text><text fill="#FFFFFF" font-family="sans-serif" font-size="14" lengthAdjust="spacing" textLength="4.4502" x="320.3857" y="738.792">&#160;</text><text fill="#FFFFFF" font-family="sans-serif" font-size="14" lengthAdjust="spacing" textLength="82.4072" x="324.8359" y="738.792">Compliance</text><text fill="#FFFFFF" font-family="sans-serif" font-size="14" lengthAdjust="spacing" textLength="4.4502" x="407.2432" y="738.792">&#160;</text><text fill="#FFFFFF" font-family="sans-serif" font-size="14" lengthAdjust="spacing" textLength="46.833" x="411.6934" y="738.792">Officer</text></g><!--entity ROL_yswDMB--><g class="entity" data-qualified-name="ROL_yswDMB" data-source-line="66" id="ent0026"><ellipse cx="367.6636" cy="785.2969" fill="#08427B" rx="8" ry="8" style="stroke:#052E56;stroke-width:0.5;"/><path d="M367.6636,793.2969 L367.6636,820.2969 M354.6636,801.2969 L380.6636,801.2969 M367.6636,820.2969 L354.6636,835.2969 M367.6636,820.2969 L380.6636,835.2969" fill="none" style="stroke:#052E56;stroke-width:0.5;"/><text fill="#FFFFFF" font-family="sans-serif" font-size="14" lengthAdjust="spacing" textLength="44.7822" x="281.5" y="849.792">Safety</text><text fill="#FFFFFF" font-family="sans-serif" font-size="14" lengthAdjust="spacing" textLength="4.4502" x="326.2822" y="849.792">&#160;</text><text fill="#FFFFFF" font-family="sans-serif" font-size="14" lengthAdjust="spacing" textLength="4.7168" x="330.7324" y="849.792">/</text><text fill="#FFFFFF" font-family="sans-serif" font-size="14" lengthAdjust="spacing" textLength="4.4502" x="335.4492" y="849.792">&#160;</text><text fill="#FFFFFF" font-family="sans-serif" font-size="14" lengthAdjust="spacing" textLength="57.4902" x="339.8994" y="849.792">Security</text><text fill="#FFFFFF" font-family="sans-serif" font-size="14" lengthAdjust="spacing" textLength="4.4502" x="397.3896" y="849.792">&#160;</text><text fill="#FFFFFF" font-family="sans-serif" font-size="14" lengthAdjust="spacing" textLength="51.9873" x="401.8398" y="849.792">Analyst</text></g><!--link APP_kjC6ex to APP_lmO0mp--><!--link APP_lmO0mp to APP_OYEmP1--><!--link APP_lmO0mp to APP_OYEmP1--><g class="link" data-entity-1="ent0004" data-entity-2="ent0005" data-link-type="dependency" data-source-line="86" id="lnk43"><path d="M443.79,382.9669 C467.74,382.9669 488.34,382.9669 512.89,382.9669" fill="none" id="APP_lmO0mp-to-APP_OYEmP1" style="stroke:#181818;stroke-width:1;"/><polygon fill="#181818" points="518.89,382.9669,509.89,378.9669,513.89,382.9669,509.89,386.9669,518.89,382.9669" style="stroke:#181818;stroke-width:1;"/><text fill="#000000" font-family="sans-serif" font-size="13" lengthAdjust="spacing" textLength="29.7832" x="451.34" y="396.0338">uses</text></g><!--link APP_OYEmP1 to APP_Ne0utf--><!--link APP_Ne0utf to APP_OYEmP1--><g class="link" data-entity-1="ent0006" data-entity-2="ent0005" data-link-type="dependency" data-source-line="87" id="lnk44"><path d="M750.82,386.4969 C730.4,386.4969 715.47,386.4969 696.06,386.4969" fill="none" id="APP_Ne0utf-to-APP_OYEmP1" style="stroke:#181818;stroke-width:1;"/><polygon fill="#181818" points="690.06,386.4969,699.06,390.4969,695.06,386.4969,699.06,382.4969,690.06,386.4969" style="stroke:#181818;stroke-width:1;"/><text fill="#000000" font-family="sans-serif" font-size="13" lengthAdjust="spacing" textLength="29.7832" x="690.44" y="399.5638">uses</text></g><!--link APP_Ne0utf to APP_etTj9M--><!--link APP_etTj9M to APP_iu_kKL--><!--link APP_iu_kKL to APP_js9xHR--><!--link ACT_Nn7Oo7 to ACT_OLWiNc--><!--link ACT_OLWiNc to ACT_Pp8Qq8--><!--link ACT_Pp8Qq8 to ACT_Rr9Ss9--><!--link ACT_Rr9Ss9 to ACT_Ut1Vv1--><!--link ACT_Ut1Vv1 to ROL_udXPfB--><!--link ROL_udXPfB to ROL_abNYhO--><!--link ROL_abNYhO to ROL_yswDMB--><!--link ROL_yswDMB to APP_hkrdtm--><!--link APP_hkrdtm to APP_v6AXNw--><!--link APP_v6AXNw to APP_Je9pmw--><!--link APP_Je9pmw to APP_JqIBPJ--><!--link ACT_Nn7Oo7 to APP_lmO0mp--><g class="link" data-entity-1="ent0016" data-entity-2="ent0004" data-link-type="dependency" data-source-line="81" id="lnk38"><path d="M142.72,125.5469 C196.07,125.5469 298,125.5469 298,125.5469 C298,125.5469 298,291.9469 298,359.2969" fill="none" id="ACT_Nn7Oo7-to-APP_lmO0mp" style="stroke:#181818;stroke-width:1;"/><polygon fill="#181818" points="298,365.2969,302,356.2969,298,360.2969,294,356.2969,298,365.2969" style="stroke:#181818;stroke-width:1;"/><text fill="#000000" font-family="sans-serif" font-size="13" lengthAdjust="spacing" textLength="29.7832" x="268" y="180.8438">uses</text></g><!--link ACT_OLWiNc to APP_kjC6ex--><g class="link" data-entity-1="ent0017" data-entity-2="ent0003" data-link-type="dependency" data-source-line="82" id="lnk39"><path d="M168,264.8469 C168,277.5569 168,288.5469 168,288.5469 C168,288.5469 239.93,288.5469 298.38,288.5469" fill="none" id="ACT_OLWiNc-to-APP_kjC6ex" style="stroke:#181818;stroke-width:1;"/><polygon fill="#181818" points="304.38,288.5469,295.38,284.5469,299.38,288.5469,295.38,292.5469,304.38,288.5469" style="stroke:#181818;stroke-width:1;"/><text fill="#000000" font-family="sans-serif" font-size="13" lengthAdjust="spacing" textLength="29.7832" x="194.34" y="301.6138">uses</text></g><!--link ACT_Pp8Qq8 to APP_kjC6ex--><g class="link" data-entity-1="ent0018" data-entity-2="ent0003" data-link-type="dependency" data-source-line="83" id="lnk40"><path d="M147.21,315.0469 C187.94,315.0469 248.87,315.0469 298.28,315.0469" fill="none" id="ACT_Pp8Qq8-to-APP_kjC6ex" style="stroke:#181818;stroke-width:1;"/><polygon fill="#181818" points="304.28,315.0469,295.28,311.0469,299.28,315.0469,295.28,319.0469,304.28,315.0469" style="stroke:#181818;stroke-width:1;"/><text fill="#000000" font-family="sans-serif" font-size="13" lengthAdjust="spacing" textLength="29.7832" x="195.74" y="328.1138">uses</text></g><!--link ACT_Rr9Ss9 to APP_lmO0mp--><g class="link" data-entity-1="ent0019" data-entity-2="ent0004" data-link-type="dependency" data-source-line="84" id="lnk41"><path d="M163.22,413.2969 C199.98,413.2969 243.8,413.2969 285.03,413.2969" fill="none" id="ACT_Rr9Ss9-to-APP_lmO0mp" style="stroke:#181818;stroke-width:1;"/><polygon fill="#181818" points="291.03,413.2969,282.03,409.2969,286.03,413.2969,282.03,417.2969,291.03,413.2969" style="stroke:#181818;stroke-width:1;"/><text fill="#000000" font-family="sans-serif" font-size="13" lengthAdjust="spacing" textLength="29.7832" x="197.12" y="426.3638">uses</text></g><!--link ACT_Ut1Vv1 to APP_lmO0mp--><g class="link" data-entity-1="ent0020" data-entity-2="ent0004" data-link-type="dependency" data-source-line="85" id="lnk42"><path d="M194,521.5869 C194,478.9269 194,415.7969 194,415.7969 C194,415.7969 238.78,415.7969 285.4,415.7969" fill="none" id="ACT_Ut1Vv1-to-APP_lmO0mp" style="stroke:#181818;stroke-width:1;"/><polygon fill="#181818" points="291.4,415.7969,282.4,411.7969,286.4,415.7969,282.4,419.7969,291.4,415.7969" style="stroke:#181818;stroke-width:1;"/><text fill="#000000" font-family="sans-serif" font-size="13" lengthAdjust="spacing" textLength="29.7832" x="164" y="433.0538">uses</text></g><!--link APP_etTj9M to APP_OYEmP1--><g class="link" data-entity-1="ent0007" data-entity-2="ent0005" data-link-type="dependency" data-source-line="88" id="lnk45"><path d="M749.89,303.7969 C714.12,303.7969 684,303.7969 684,303.7969 C684,303.7969 684,333.0369 684,358.9169" fill="none" id="APP_etTj9M-to-APP_OYEmP1" style="stroke:#181818;stroke-width:1;"/><polygon fill="#181818" points="684,364.9169,688,355.9169,684,359.9169,680,355.9169,684,364.9169" style="stroke:#181818;stroke-width:1;"/><text fill="#000000" font-family="sans-serif" font-size="13" lengthAdjust="spacing" textLength="29.7832" x="656.38" y="316.8638">uses</text></g><!--link APP_iu_kKL to APP_OYEmP1--><g class="link" data-entity-1="ent0008" data-entity-2="ent0005" data-link-type="dependency" data-source-line="89" id="lnk46"><path d="M757.27,475.6269 C696.5,475.6269 633,475.6269 633,475.6269 C633,475.6269 633,448.8869 633,424.3269" fill="none" id="APP_iu_kKL-to-APP_OYEmP1" style="stroke:#181818;stroke-width:1;"/><polygon fill="#181818" points="633,418.3269,629,427.3269,633,423.3269,637,427.3269,633,418.3269" style="stroke:#181818;stroke-width:1;"/><text fill="#000000" font-family="sans-serif" font-size="13" lengthAdjust="spacing" textLength="29.7832" x="636.48" y="488.6938">uses</text></g><!--link APP_js9xHR to APP_OYEmP1--><g class="link" data-entity-1="ent0009" data-entity-2="ent0005" data-link-type="dependency" data-source-line="90" id="lnk47"><path d="M756.82,215.7969 C714.91,215.7969 677,215.7969 677,215.7969 C677,215.7969 677,309.8269 677,359.0669" fill="none" id="APP_js9xHR-to-APP_OYEmP1" style="stroke:#181818;stroke-width:1;"/><polygon fill="#181818" points="677,365.0669,681,356.0669,677,360.0669,673,356.0669,677,365.0669" style="stroke:#181818;stroke-width:1;"/><text fill="#000000" font-family="sans-serif" font-size="13" lengthAdjust="spacing" textLength="29.7832" x="647" y="263.5938">uses</text></g><!--link APP_v6AXNw to APP_Ne0utf--><g class="link" data-entity-1="ent0021" data-entity-2="ent0006" data-link-type="dependency" data-source-line="91" id="lnk48"><path d="M662.88,82.1569 C697.63,82.1569 735,82.1569 735,82.1569 C735,82.1569 735,375.8969 735,375.8969 C735,375.8969 735.18,375.8969 744.86,375.8969" fill="none" id="APP_v6AXNw-to-APP_Ne0utf" style="stroke:#181818;stroke-width:1;"/><polygon fill="#181818" points="750.86,375.8969,741.86,371.8969,745.86,375.8969,741.86,379.8969,750.86,375.8969" style="stroke:#181818;stroke-width:1;"/><text fill="#000000" font-family="sans-serif" font-size="13" lengthAdjust="spacing" textLength="29.7832" x="705" y="213.9638">uses</text></g><!--link APP_v6AXNw to APP_etTj9M--><g class="link" data-entity-1="ent0021" data-entity-2="ent0007" data-link-type="dependency" data-source-line="92" id="lnk49"><path d="M662.73,74.5869 C704.71,74.5869 754,74.5869 754,74.5869 C754,74.5869 754,210.5869 754,271.0569" fill="none" id="APP_v6AXNw-to-APP_etTj9M" style="stroke:#181818;stroke-width:1;"/><polygon fill="#181818" points="754,277.0569,758,268.0569,754,272.0569,750,268.0569,754,277.0569" style="stroke:#181818;stroke-width:1;"/><text fill="#000000" font-family="sans-serif" font-size="13" lengthAdjust="spacing" textLength="29.7832" x="755" y="126.2538">uses</text></g><!--link APP_v6AXNw to APP_iu_kKL--><g class="link" data-entity-1="ent0021" data-entity-2="ent0008" data-link-type="dependency" data-source-line="93" id="lnk50"><path d="M662.59,89.7269 C691.35,89.7269 720,89.7269 720,89.7269 C720,89.7269 720,464.4669 720,464.4669 C720,464.4669 729.96,464.4669 751.35,464.4669" fill="none" id="APP_v6AXNw-to-APP_iu_kKL" style="stroke:#181818;stroke-width:1;"/><polygon fill="#181818" points="757.35,464.4669,748.35,460.4669,752.35,464.4669,748.35,468.4669,757.35,464.4669" style="stroke:#181818;stroke-width:1;"/><text fill="#000000" font-family="sans-serif" font-size="13" lengthAdjust="spacing" textLength="29.7832" x="690" y="280.1338">uses</text></g><!--link APP_v6AXNw to APP_js9xHR--><g class="link" data-entity-1="ent0021" data-entity-2="ent0009" data-link-type="dependency" data-source-line="94" id="lnk51"><path d="M662.95,59.4369 C715.01,59.4369 783,59.4369 783,59.4369 C783,59.4369 783,138.6669 783,183.2769" fill="none" id="APP_v6AXNw-to-APP_js9xHR" style="stroke:#181818;stroke-width:1;"/><polygon fill="#181818" points="783,189.2769,787,180.2769,783,184.2769,779,180.2769,783,189.2769" style="stroke:#181818;stroke-width:1;"/><text fill="#000000" font-family="sans-serif" font-size="13" lengthAdjust="spacing" textLength="29.7832" x="753" y="77.3938">uses</text></g><!--link APP_OYEmP1 to APP_Je9pmw--><g class="link" data-entity-1="ent0005" data-entity-2="ent0022" data-link-type="dependency" data-source-line="95" id="lnk52"><path d="M670,365.2169 C670,287.6469 670,67.0069 670,67.0069 C670,67.0069 744.4,67.0069 802.34,67.0069" fill="none" id="APP_OYEmP1-to-APP_Je9pmw" style="stroke:#181818;stroke-width:1;"/><polygon fill="#181818" points="808.34,67.0069,799.34,63.0069,803.34,67.0069,799.34,71.0069,808.34,67.0069" style="stroke:#181818;stroke-width:1;"/><text fill="#000000" font-family="sans-serif" font-size="13" lengthAdjust="spacing" textLength="29.7832" x="640" y="160.0138">uses</text></g><!--link APP_OYEmP1 to APP_JqIBPJ--><g class="link" data-entity-1="ent0005" data-entity-2="ent0023" data-link-type="dependency" data-source-line="96" id="lnk53"><path d="M576,418.5269 C576,468.9269 576,572.9669 576,572.9669 C576,572.9669 668.08,572.9669 750.26,572.9669" fill="none" id="APP_OYEmP1-to-APP_JqIBPJ" style="stroke:#181818;stroke-width:1;"/><polygon fill="#181818" points="756.26,572.9669,747.26,568.9669,751.26,572.9669,747.26,576.9669,756.26,572.9669" style="stroke:#181818;stroke-width:1;"/><text fill="#000000" font-family="sans-serif" font-size="13" lengthAdjust="spacing" textLength="29.7832" x="558.91" y="586.0338">uses</text></g><!--link ROL_udXPfB to APP_Ne0utf--><g class="link" data-entity-1="ent0024" data-entity-2="ent0006" data-link-type="dependency" data-source-line="97" id="lnk54"><path d="M397.75,590.6269 C480.59,590.6269 705,590.6269 705,590.6269 C705,590.6269 705,407.6969 705,407.6969 C705,407.6969 718.96,407.6969 744.85,407.6969" fill="none" id="ROL_udXPfB-to-APP_Ne0utf" style="stroke:#181818;stroke-width:1;"/><polygon fill="#181818" points="750.85,407.6969,741.85,403.6969,745.85,407.6969,741.85,411.6969,750.85,407.6969" style="stroke:#181818;stroke-width:1;"/><text fill="#000000" font-family="sans-serif" font-size="13" lengthAdjust="spacing" textLength="29.7832" x="635.76" y="603.6938">uses</text></g><!--link ROL_abNYhO to APP_iu_kKL--><g class="link" data-entity-1="ent0025" data-entity-2="ent0008" data-link-type="dependency" data-source-line="98" id="lnk55"><path d="M452,665.6769 C452,605.0169 452,493.2969 452,493.2969 C452,493.2969 628.52,493.2969 751.32,493.2969" fill="none" id="ROL_abNYhO-to-APP_iu_kKL" style="stroke:#181818;stroke-width:1;"/><polygon fill="#181818" points="757.32,493.2969,748.32,489.2969,752.32,493.2969,748.32,497.2969,757.32,493.2969" style="stroke:#181818;stroke-width:1;"/><text fill="#000000" font-family="sans-serif" font-size="13" lengthAdjust="spacing" textLength="29.7832" x="488.47" y="506.3638">uses</text></g><!--link ROL_yswDMB to APP_iu_kKL--><g class="link" data-entity-1="ent0026" data-entity-2="ent0008" data-link-type="dependency" data-source-line="99" id="lnk56"><path d="M453.53,814.7969 C473.48,814.7969 489,814.7969 489,814.7969 C489,814.7969 489,499.7969 489,499.7969 C489,499.7969 639.82,499.7969 751.31,499.7969" fill="none" id="ROL_yswDMB-to-APP_iu_kKL" style="stroke:#181818;stroke-width:1;"/><polygon fill="#181818" points="757.31,499.7969,748.31,495.7969,752.31,499.7969,748.31,503.7969,757.31,499.7969" style="stroke:#181818;stroke-width:1;"/><text fill="#000000" font-family="sans-serif" font-size="13" lengthAdjust="spacing" textLength="29.7832" x="459" y="553.9438">uses</text></g><?plantuml-src bPNTZjeu5CVlUGfhAktTQ8459gogaO3EjjCTI1QOJgjgDJAnGpmaTcex0-ngfNs8VS9zaZh1mGxZq9OBv8_V-U3yZmy9ZYIG372oZYL0XEDG4aPROaDe1ZbCWOWXObj2ro22YS3MJK8ebliC0yPbpAmBX2EO9tA9TtAKa3LDCPKWL5-OMzIMm-o181c3RgzjdQTmDyL2m3LUaB_moMMH7wJh18E_Mm3CMKxHX76AEUXqrK404IfIxRHR_rXMC9ICbnPZ66xM_62MgBDNRQ_NlLeLDumZpAlJVXVt1-hqDqRbuMmR4ubhNe-vl7uzwItsGkBq-jeTfTCPU2lq8iggvtcz7uaoKI1KPUTDWNg_U0ZrJmDrem62WnyBb6QCAicQ0ddzrIfgdmRguw4NUhL0gqIPDWUwsQcke31fYeFApscSg_BZZDEIHAhs64q3yF-__u5ZnKIhPPhdOiJ3eW2Xp3a6KqXLjvLT6YHGHeod5w0cAXHW50IFyOOZcPQ9MhucTxTWoLXoiB4bqcQRfya0x-f6R-zlmIXNxuON_NhMF4dzTfhLpMlv5qN353Kwy3_Tf47dZ8Ff901p314OSuBMkD7H3BTp6Nt3qGDNsszvmdBvD9oUU18Yvv26tvyFoHytlz-Ty_9ToJo9uUxTNBanOe7Bpp512DC_oybuMHV2R9pSiTvcu-IEvJGR9tSibjaukMCvpCR9wTzRF9R3P3GYNfGrcImVP_JAPrVL_Hlyx6S2tD2rgXpcHyg_Uo2pqA9mmZBhFiYyFxvurNt06Sf32VmjjPWv7ox4i6BkCsKFbZYCAGbXOhtDey6zx7nuxjHUitfBw-BvlcD27cIsvefM-Nam-ZZRscPloS52lS0ce_TucAKreqMUPSd-SXAh9W8BzU-cabomd8TOD3hvSZiEtXzhhPCjVy_SltlCqSSW6bVNSo8su2TG3E24b7tiHn49TS4A7gvcdsA_uXSmKl_2u6Umm66kkdqFHYhuNXZ_Ux5zCnstMaRMbrrXj3HB9wKLDKidfJKrIoUbXJJB5vHL7hDqKheePkcaT2dCqla-3cE-PKry5wNxoIoTb6uWitHJXmwfQtHvRG-QNq4kiAZ9em4ziIoWKgOHg4Hf357fuGQiyQS1FUKie9fdZK0ro1g1Qe8r0eSvTWQeTD60JgaPq2ar0pgbPa2dP07L_DU0Re8pGDaA5M1tlVDNs0tlJDBkTHVm5G00?></g></svg>