<svg xmlns="http://www.w3.org/2000/svg" xmlns:xlink="http://www.w3.org/1999/xlink" contentStyleType="text/css" data-diagram-type="DESCRIPTION" height="766px" preserveAspectRatio="none" style="width:745px;height:766px;background:#FAFAFA;" version="1.1" viewBox="0 0 745 766" width="745px" zoomAndPan="magnify"><title>Common Layer: Services, Processes and Roles</title><defs/><g><rect fill="#FAFAFA" height="766" style="stroke:none;stroke-width:1;" width="745" x="0" y="0"/><text fill="#000000" font-family="sans-serif" font-size="14" font-weight="bold" lengthAdjust="spacing" textLength="365.9004" x="182.5498" y="22.9951">Common Layer: Services, Processes and Roles</text><!--cluster Roles--><g class="cluster" data-entity="Roles" data-source-line="8" data-uid="ent0002" id="cluster_Roles"><path d="M42,355.2969 L80.8789,355.2969 A3,3 0 0 1 82.8789,357.2969 L89.8789,375.2656 L173,375.2656 A2,2 0 0 1 175,377.2656 L175,653.2969 A2,2 0 0 1 173,655.2969 L42,655.2969 A2,2 0 0 1 40,653.2969 L40,357.2969 A2,2 0 0 1 42,355.2969" fill="none" style="stroke:#000000;stroke-width:1.5;"/><line style="stroke:#000000;stroke-width:1.5;" x1="40" x2="89.8789" y1="375.2656" y2="375.2656"/><text fill="#000000" font-family="sans-serif" font-size="12" font-weight="bold" lengthAdjust="spacing" textLength="36.8789" x="44" y="368.4355">Roles</text></g><!--cluster Processes--><g class="cluster" data-entity="Processes" data-source-line="14" data-uid="ent0006" id="cluster_Processes"><path d="M225,43.2969 L294.7754,43.2969 A3,3 0 0 1 296.7754,45.2969 L303.7754,63.2656 L429,63.2656 A2,2 0 0 1 431,65.2656 L431,757.2969 A2,2 0 0 1 429,759.2969 L225,759.2969 A2,2 0 0 1 223,757.2969 L223,45.2969 A2,2 0 0 1 225,43.2969" fill="none" style="stroke:#000000;stroke-width:1.5;"/><line style="stroke:#000000;stroke-width:1.5;" x1="223" x2="303.7754" y1="63.2656" y2="63.2656"/><text fill="#000000" font-family="sans-serif" font-size="12" font-weight="bold" lengthAdjust="spacing" textLength="67.7754" x="227" y="56.4355">Processes</text></g><!--cluster Services--><g class="cluster" data-entity="Services" data-source-line="24" data-uid="ent0014" id="cluster_Services"><path d="M481,43.2969 L540.0293,43.2969 A3,3 0 0 1 542.0293,45.2969 L549.0293,63.2656 L736,63.2656 A2,2 0 0 1 738,65.2656 L738,757.2969 A2,2 0 0 1 736,759.2969 L481,759.2969 A2,2 0 0 1 479,757.2969 L479,45.2969 A2,2 0 0 1 481,43.2969" fill="none" style="stroke:#000000;stroke-width:1.5;"/><line style="stroke:#000000;stroke-width:1.5;" x1="479" x2="549.0293" y1="63.2656" y2="63.2656"/><text fill="#000000" font-family="sans-serif" font-size="12" font-weight="bold" lengthAdjust="spacing" textLength="57.0293" x="483" y="56.4355">Services</text></g><!--entity ROL_deMuTj--><g class="entity" data-entity="ROL_deMuTj" data-source-line="9" data-uid="ent0003" id="entity_ROL_deMuTj"><rect fill="#E0D8CC" height="44" rx="2" ry="2" style="stroke:#8C7E6A;stroke-width:0.5;" width="88.2148" x="63.5" y="387.2969"/><path d="M78,402.5469 L89.7,402.5469 A3,3 0 0 1 92.7,405.5469 L92.7,413.0469 A3,3 0 0 1 89.7,416.0469 L78,416.0469" fill="#252327"/><text fill="#000000" font-family="sans-serif" font-size="12" lengthAdjust="spacing" textLength="40.4004" x="101.3145" y="418.4668">Author</text></g><!--entity ROL_6VGCvh--><g class="entity" data-entity="ROL_6VGCvh" data-source-line="10" data-uid="ent0004" id="entity_ROL_6VGCvh"><rect fill="#E0D8CC" height="44" rx="2" ry="2" style="stroke:#8C7E6A;stroke-width:0.5;" width="103.4844" x="56" y="595.2969"/><path d="M70.5,610.5469 L82.2,610.5469 A3,3 0 0 1 85.2,613.5469 L85.2,621.0469 A3,3 0 0 1 82.2,624.0469 L70.5,624.0469" fill="#252327"/><text fill="#000000" font-family="sans-serif" font-size="12" lengthAdjust="spacing" textLength="55.6699" x="93.8145" y="626.4668">Reviewer</text></g><!--entity ROL_udXPfB--><g class="entity" data-entity="ROL_udXPfB" data-source-line="11" data-uid="ent0005" id="entity_ROL_udXPfB"><rect fill="#E0D8CC" height="44" rx="2" ry="2" style="stroke:#8C7E6A;stroke-width:0.5;" width="98.8965" x="58" y="491.2969"/><path d="M72.5,506.5469 L84.2,506.5469 A3,3 0 0 1 87.2,509.5469 L87.2,517.0469 A3,3 0 0 1 84.2,520.0469 L72.5,520.0469" fill="#252327"/><text fill="#000000" font-family="sans-serif" font-size="12" lengthAdjust="spacing" textLength="51.082" x="95.8145" y="522.4668">AI Agent</text></g><!--entity PRC_0NPVDb--><g class="entity" data-entity="PRC_0NPVDb" data-source-line="15" data-uid="ent0007" id="entity_PRC_0NPVDb"><rect fill="#E0D8CC" height="44" rx="2" ry="2" style="stroke:#8C7E6A;stroke-width:0.5;" width="175.9355" x="239" y="387.2969"/><path d="M252.9,403.4469 L262.35,403.4469 L262.35,401.4969 L269.1,409.2969 L262.35,417.0969 L262.35,415.1469 L252.9,415.1469" fill="#252327"/><text fill="#000000" font-family="sans-serif" font-size="12" lengthAdjust="spacing" textLength="128.1211" x="276.8145" y="418.4668">Author Model Artifact</text></g><!--entity PRC_iJuFgE--><g class="entity" data-entity="PRC_iJuFgE" data-source-line="16" data-uid="ent0008" id="entity_PRC_iJuFgE"><rect fill="#E0D8CC" height="44" rx="2" ry="2" style="stroke:#8C7E6A;stroke-width:0.5;" width="149.2227" x="252.5" y="179.2969"/><path d="M266.4,195.4469 L275.85,195.4469 L275.85,193.4969 L282.6,201.2969 L275.85,209.0969 L275.85,207.1469 L266.4,207.1469" fill="#252327"/><text fill="#000000" font-family="sans-serif" font-size="12" lengthAdjust="spacing" textLength="101.4082" x="290.3145" y="210.4668">Index Repository</text></g><!--entity PRC_oLRrwL--><g class="entity" data-entity="PRC_oLRrwL" data-source-line="17" data-uid="ent0009" id="entity_PRC_oLRrwL"><rect fill="#E0D8CC" height="44" rx="2" ry="2" style="stroke:#8C7E6A;stroke-width:0.5;" width="122.8438" x="265.5" y="595.2969"/><path d="M279.4,611.4469 L288.85,611.4469 L288.85,609.4969 L295.6,617.2969 L288.85,625.0969 L288.85,623.1469 L279.4,623.1469" fill="#252327"/><text fill="#000000" font-family="sans-serif" font-size="12" lengthAdjust="spacing" textLength="75.0293" x="303.3145" y="626.4668">Verify Model</text></g><!--entity PRC_vGhe4Z--><g class="entity" data-entity="PRC_vGhe4Z" data-source-line="18" data-uid="ent0010" id="entity_PRC_vGhe4Z"><rect fill="#E0D8CC" height="44" rx="2" ry="2" style="stroke:#8C7E6A;stroke-width:0.5;" width="124.127" x="265" y="491.2969"/><path d="M278.9,507.4469 L288.35,507.4469 L288.35,505.4969 L295.1,513.2969 L288.35,521.0969 L288.35,519.1469 L278.9,519.1469" fill="#252327"/><text fill="#000000" font-family="sans-serif" font-size="12" lengthAdjust="spacing" textLength="76.3125" x="302.8145" y="522.4668">Query Model</text></g><!--entity PRC_0Rz5Ex--><g class="entity" data-entity="PRC_0Rz5Ex" data-source-line="19" data-uid="ent0011" id="entity_PRC_0Rz5Ex"><rect fill="#E0D8CC" height="44" rx="2" ry="2" style="stroke:#8C7E6A;stroke-width:0.5;" width="146.3223" x="254" y="699.2969"/><path d="M267.9,715.4469 L277.35,715.4469 L277.35,713.4969 L284.1,721.2969 L277.35,729.0969 L277.35,727.1469 L267.9,727.1469" fill="#252327"/><text fill="#000000" font-family="sans-serif" font-size="12" lengthAdjust="spacing" textLength="98.5078" x="291.8145" y="730.4668">Promote Artifact</text></g><!--entity PRC_vOWkdL--><g class="entity" data-entity="PRC_vOWkdL" data-source-line="20" data-uid="ent0012" id="entity_PRC_vOWkdL"><rect fill="#E0D8CC" height="44" rx="2" ry="2" style="stroke:#8C7E6A;stroke-width:0.5;" width="151.4609" x="251.5" y="283.2969"/><path d="M265.4,299.4469 L274.85,299.4469 L274.85,297.4969 L281.6,305.2969 L274.85,313.0969 L274.85,311.1469 L265.4,311.1469" fill="#252327"/><text fill="#000000" font-family="sans-serif" font-size="12" lengthAdjust="spacing" textLength="103.6465" x="289.3145" y="314.4668">Scaffold Diagram</text></g><!--entity PRC_Tz_a_O--><g class="entity" data-entity="PRC_Tz_a_O" data-source-line="21" data-uid="ent0013" id="entity_PRC_Tz_a_O"><rect fill="#E0D8CC" height="44" rx="2" ry="2" style="stroke:#8C7E6A;stroke-width:0.5;" width="166.1973" x="244" y="75.2969"/><path d="M257.9,91.4469 L267.35,91.4469 L267.35,89.4969 L274.1,97.2969 L267.35,105.0969 L267.35,103.1469 L257.9,103.1469" fill="#252327"/><text fill="#000000" font-family="sans-serif" font-size="12" lengthAdjust="spacing" textLength="118.3828" x="281.8145" y="106.4668">Initialize Repository</text></g><!--entity SRV_Au1Th1--><g class="entity" data-entity="SRV_Au1Th1" data-source-line="25" data-uid="ent0015" id="entity_SRV_Au1Th1"><rect fill="#E0D8CC" height="44" rx="2" ry="2" style="stroke:#8C7E6A;stroke-width:0.5;" width="154.9355" x="531" y="387.2969"/><path d="M545.8,403.4469 L556.6,403.4469 A4.2,4.2 0 0 1 556.6,415.1469 L545.8,415.1469 A4.2,4.2 0 0 1 545.8,403.4469" fill="#252327"/><text fill="#000000" font-family="sans-serif" font-size="12" lengthAdjust="spacing" textLength="107.1211" x="568.8145" y="418.4668">Authoring Service</text></g><!--entity SRV_3I3Dtc--><g class="entity" data-entity="SRV_3I3Dtc" data-source-line="26" data-uid="ent0016" id="entity_SRV_3I3Dtc"><rect fill="#E0D8CC" height="44" rx="2" ry="2" style="stroke:#8C7E6A;stroke-width:0.5;" width="147.7813" x="534.5" y="179.2969"/><path d="M549.3,195.4469 L560.1,195.4469 A4.2,4.2 0 0 1 560.1,207.1469 L549.3,207.1469 A4.2,4.2 0 0 1 549.3,195.4469" fill="#252327"/><text fill="#000000" font-family="sans-serif" font-size="12" lengthAdjust="spacing" textLength="99.9668" x="572.3145" y="210.4668">Indexing Service</text></g><!--entity SRV_Ij6Kl6--><g class="entity" data-entity="SRV_Ij6Kl6" data-source-line="27" data-uid="ent0017" id="entity_SRV_Ij6Kl6"><rect fill="#E0D8CC" height="44" rx="2" ry="2" style="stroke:#8C7E6A;stroke-width:0.5;" width="156.166" x="530.5" y="595.2969"/><path d="M545.3,611.4469 L556.1,611.4469 A4.2,4.2 0 0 1 556.1,623.1469 L545.3,623.1469 A4.2,4.2 0 0 1 545.3,611.4469" fill="#252327"/><text fill="#000000" font-family="sans-serif" font-size="12" lengthAdjust="spacing" textLength="108.3516" x="568.3145" y="626.4668">Validation Service</text></g><!--entity SRV_Qr8St8--><g class="entity" data-entity="SRV_Qr8St8" data-source-line="28" data-uid="ent0018" id="entity_SRV_Qr8St8"><rect fill="#E0D8CC" height="44" rx="2" ry="2" style="stroke:#8C7E6A;stroke-width:0.5;" width="227.2754" x="495" y="491.2969"/><path d="M509.8,507.4469 L520.6,507.4469 A4.2,4.2 0 0 1 520.6,519.1469 L509.8,519.1469 A4.2,4.2 0 0 1 509.8,507.4469" fill="#252327"/><text fill="#000000" font-family="sans-serif" font-size="12" lengthAdjust="spacing" textLength="179.4609" x="532.8145" y="522.4668">Discovery &amp; Querying Service</text></g><!--entity SRV_Uv9Wx9--><g class="entity" data-entity="SRV_Uv9Wx9" data-source-line="29" data-uid="ent0019" id="entity_SRV_Uv9Wx9"><rect fill="#E0D8CC" height="44" rx="2" ry="2" style="stroke:#8C7E6A;stroke-width:0.5;" width="225.6699" x="495.5" y="699.2969"/><path d="M510.3,715.4469 L521.1,715.4469 A4.2,4.2 0 0 1 521.1,727.1469 L510.3,727.1469 A4.2,4.2 0 0 1 510.3,715.4469" fill="#252327"/><text fill="#000000" font-family="sans-serif" font-size="12" lengthAdjust="spacing" textLength="177.8555" x="533.3145" y="730.4668">Repository Promotion Service</text></g><!--entity SRV_e5MCiF--><g class="entity" data-entity="SRV_e5MCiF" data-source-line="30" data-uid="ent0020" id="entity_SRV_e5MCiF"><rect fill="#E0D8CC" height="44" rx="2" ry="2" style="stroke:#8C7E6A;stroke-width:0.5;" width="177.3594" x="520" y="75.2969"/><path d="M534.8,91.4469 L545.6,91.4469 A4.2,4.2 0 0 1 545.6,103.1469 L534.8,103.1469 A4.2,4.2 0 0 1 534.8,91.4469" fill="#252327"/><text fill="#000000" font-family="sans-serif" font-size="12" lengthAdjust="spacing" textLength="129.5449" x="557.8145" y="106.4668">Configuration Service</text></g><!--entity SRV_AIGnSY--><g class="entity" data-entity="SRV_AIGnSY" data-source-line="31" data-uid="ent0021" id="entity_SRV_AIGnSY"><rect fill="#E0D8CC" height="44" rx="2" ry="2" style="stroke:#8C7E6A;stroke-width:0.5;" width="218.1816" x="499.5" y="283.2969"/><path d="M514.3,299.4469 L525.1,299.4469 A4.2,4.2 0 0 1 525.1,311.1469 L514.3,311.1469 A4.2,4.2 0 0 1 514.3,299.4469" fill="#252327"/><text fill="#000000" font-family="sans-serif" font-size="12" lengthAdjust="spacing" textLength="170.3672" x="537.3145" y="314.4668">Diagram Scaffolding Service</text></g><!--link ROL_deMuTj to PRC_0NPVDb--><g class="link" data-entity-1="ROL_deMuTj" data-entity-2="PRC_0NPVDb" data-source-line="34" data-uid="lnk22" id="link_ROL_deMuTj_PRC_0NPVDb"><path d="M151.66,401.9669 C176.69,401.9669 208.93,401.9669 238.91,401.9669" fill="none" id="ROL_deMuTj-PRC_0NPVDb" style="stroke:#181818;stroke-width:1;"/><text fill="#000000" font-family="sans-serif" font-size="12" lengthAdjust="spacing" textLength="85.3359" x="109.28" y="414.1055">&#171;Assignment&#187;</text></g><!--link ROL_deMuTj to PRC_vGhe4Z--><g class="link" data-entity-1="ROL_deMuTj" data-entity-2="PRC_vGhe4Z" data-source-line="35" data-uid="lnk23" id="link_ROL_deMuTj_PRC_vGhe4Z"><path d="M151.8,416.6269 C169.6,416.6269 186,416.6269 186,416.6269 C186,416.6269 186,498.6269 186,498.6269 C186,498.6269 226.97,498.6269 264.74,498.6269" fill="none" id="ROL_deMuTj-PRC_vGhe4Z" style="stroke:#181818;stroke-width:1;"/><text fill="#000000" font-family="sans-serif" font-size="12" lengthAdjust="spacing" textLength="85.3359" x="100" y="477.0355">&#171;Assignment&#187;</text></g><!--link ROL_deMuTj to PRC_vOWkdL--><g class="link" data-entity-1="ROL_deMuTj" data-entity-2="PRC_vOWkdL" data-source-line="36" data-uid="lnk24" id="link_ROL_deMuTj_PRC_vOWkdL"><path d="M123,387.0369 C123,354.5469 123,297.9669 123,297.9669 C123,297.9669 193.27,297.9669 251.33,297.9669" fill="none" id="ROL_deMuTj-PRC_vOWkdL" style="stroke:#181818;stroke-width:1;"/><text fill="#000000" font-family="sans-serif" font-size="12" lengthAdjust="spacing" textLength="85.3359" x="56.63" y="310.1055">&#171;Assignment&#187;</text></g><!--link ROL_deMuTj to PRC_Tz_a_O--><g class="link" data-entity-1="ROL_deMuTj" data-entity-2="PRC_Tz_a_O" data-source-line="37" data-uid="lnk25" id="link_ROL_deMuTj_PRC_Tz_a_O"><path d="M93,386.8569 C93,315.3169 93,97.2969 93,97.2969 C93,97.2969 176.58,97.2969 243.84,97.2969" fill="none" id="ROL_deMuTj-PRC_Tz_a_O" style="stroke:#181818;stroke-width:1;"/><text fill="#000000" font-family="sans-serif" font-size="12" lengthAdjust="spacing" textLength="85.3359" x="7" y="178.7955">&#171;Assignment&#187;</text></g><!--link ROL_6VGCvh to PRC_oLRrwL--><g class="link" data-entity-1="ROL_6VGCvh" data-entity-2="PRC_oLRrwL" data-source-line="38" data-uid="lnk26" id="link_ROL_6VGCvh_PRC_oLRrwL"><path d="M159.24,617.2969 C191.05,617.2969 231.99,617.2969 265.46,617.2969" fill="none" id="ROL_6VGCvh-PRC_oLRrwL" style="stroke:#181818;stroke-width:1;"/><text fill="#000000" font-family="sans-serif" font-size="12" lengthAdjust="spacing" textLength="85.3359" x="213.35" y="618.1855">&#171;Assignment&#187;</text></g><!--link ROL_6VGCvh to PRC_0Rz5Ex--><g class="link" data-entity-1="ROL_6VGCvh" data-entity-2="PRC_0Rz5Ex" data-source-line="39" data-uid="lnk27" id="link_ROL_6VGCvh_PRC_0Rz5Ex"><path d="M159.13,628.2969 C203.37,628.2969 260,628.2969 260,628.2969 C260,628.2969 260,671.7569 260,699.2569" fill="none" id="ROL_6VGCvh-PRC_0Rz5Ex" style="stroke:#181818;stroke-width:1;"/><text fill="#000000" font-family="sans-serif" font-size="12" lengthAdjust="spacing" textLength="85.3359" x="159.04" y="640.4355">&#171;Assignment&#187;</text></g><!--link ROL_udXPfB to PRC_0NPVDb--><g class="link" data-entity-1="ROL_udXPfB" data-entity-2="PRC_0NPVDb" data-source-line="40" data-uid="lnk28" id="link_ROL_udXPfB_PRC_0NPVDb"><path d="M157.39,513.2969 C198.13,513.2969 249,513.2969 249,513.2969 C249,513.2969 249,461.8769 249,431.3569" fill="none" id="ROL_udXPfB-PRC_0NPVDb" style="stroke:#181818;stroke-width:1;"/><text fill="#000000" font-family="sans-serif" font-size="12" lengthAdjust="spacing" textLength="85.3359" x="158.17" y="510.4355">&#171;Assignment&#187;</text></g><!--link ROL_udXPfB to PRC_vGhe4Z--><g class="link" data-entity-1="ROL_udXPfB" data-entity-2="PRC_vGhe4Z" data-source-line="41" data-uid="lnk29" id="link_ROL_udXPfB_PRC_vGhe4Z"><path d="M157.03,520.6269 C188.9,520.6269 230.57,520.6269 264.68,520.6269" fill="none" id="ROL_udXPfB-PRC_vGhe4Z" style="stroke:#181818;stroke-width:1;"/><text fill="#000000" font-family="sans-serif" font-size="12" lengthAdjust="spacing" textLength="85.3359" x="211.85" y="532.7655">&#171;Assignment&#187;</text></g><!--link ROL_udXPfB to PRC_oLRrwL--><g class="link" data-entity-1="ROL_udXPfB" data-entity-2="PRC_oLRrwL" data-source-line="42" data-uid="lnk30" id="link_ROL_udXPfB_PRC_oLRrwL"><path d="M157.17,527.9669 C196.19,527.9669 244,527.9669 244,527.9669 C244,527.9669 244,606.2969 244,606.2969 C244,606.2969 253.15,606.2969 265.37,606.2969" fill="none" id="ROL_udXPfB-PRC_oLRrwL" style="stroke:#181818;stroke-width:1;"/><text fill="#000000" font-family="sans-serif" font-size="12" lengthAdjust="spacing" textLength="85.3359" x="158" y="546.5355">&#171;Assignment&#187;</text></g><!--link ROL_udXPfB to PRC_vOWkdL--><g class="link" data-entity-1="ROL_udXPfB" data-entity-2="PRC_vOWkdL" data-source-line="43" data-uid="lnk31" id="link_ROL_udXPfB_PRC_vOWkdL"><path d="M157.16,505.9669 C184.52,505.9669 213,505.9669 213,505.9669 C213,505.9669 213,312.6269 213,312.6269 C213,312.6269 230.22,312.6269 251.28,312.6269" fill="none" id="ROL_udXPfB-PRC_vOWkdL" style="stroke:#181818;stroke-width:1;"/><text fill="#000000" font-family="sans-serif" font-size="12" lengthAdjust="spacing" textLength="85.3359" x="127" y="430.2155">&#171;Assignment&#187;</text></g><!--link PRC_0NPVDb to SRV_Au1Th1--><g class="link" data-entity-1="PRC_0NPVDb" data-entity-2="SRV_Au1Th1" data-source-line="45" data-uid="lnk32" id="link_PRC_0NPVDb_SRV_Au1Th1"><path d="M415.3,409.2969 C452.38,409.2969 477.14,409.2969 512.98,409.2969" fill="none" id="PRC_0NPVDb-to-SRV_Au1Th1" style="stroke:#181818;stroke-width:1;stroke-dasharray:7.0,7.0;"/><polygon fill="none" points="530.98,409.2969,512.98,403.2969,512.98,415.2969,530.98,409.2969" style="stroke:#181818;stroke-width:1;"/></g><!--link PRC_iJuFgE to SRV_3I3Dtc--><g class="link" data-entity-1="PRC_iJuFgE" data-entity-2="SRV_3I3Dtc" data-source-line="46" data-uid="lnk33" id="link_PRC_iJuFgE_SRV_3I3Dtc"><path d="M401.7,201.2969 C442.74,201.2969 475.48,201.2969 516.43,201.2969" fill="none" id="PRC_iJuFgE-to-SRV_3I3Dtc" style="stroke:#181818;stroke-width:1;stroke-dasharray:7.0,7.0;"/><polygon fill="none" points="534.43,201.2969,516.43,195.2969,516.43,207.2969,534.43,201.2969" style="stroke:#181818;stroke-width:1;"/></g><!--link PRC_oLRrwL to SRV_Ij6Kl6--><g class="link" data-entity-1="PRC_oLRrwL" data-entity-2="SRV_Ij6Kl6" data-source-line="47" data-uid="lnk34" id="link_PRC_oLRrwL_SRV_Ij6Kl6"><path d="M388.78,617.2969 C430.45,617.2969 467.78,617.2969 512.49,617.2969" fill="none" id="PRC_oLRrwL-to-SRV_Ij6Kl6" style="stroke:#181818;stroke-width:1;stroke-dasharray:7.0,7.0;"/><polygon fill="none" points="530.49,617.2969,512.49,611.2969,512.49,623.2969,530.49,617.2969" style="stroke:#181818;stroke-width:1;"/></g><!--link PRC_vGhe4Z to SRV_Qr8St8--><g class="link" data-entity-1="PRC_vGhe4Z" data-entity-2="SRV_Qr8St8" data-source-line="48" data-uid="lnk35" id="link_PRC_vGhe4Z_SRV_Qr8St8"><path d="M389.12,513.2969 C420.21,513.2969 440.83,513.2969 476.97,513.2969" fill="none" id="PRC_vGhe4Z-to-SRV_Qr8St8" style="stroke:#181818;stroke-width:1;stroke-dasharray:7.0,7.0;"/><polygon fill="none" points="494.97,513.2969,476.97,507.2969,476.97,519.2969,494.97,513.2969" style="stroke:#181818;stroke-width:1;"/></g><!--link PRC_0Rz5Ex to SRV_Uv9Wx9--><g class="link" data-entity-1="PRC_0Rz5Ex" data-entity-2="SRV_Uv9Wx9" data-source-line="49" data-uid="lnk36" id="link_PRC_0Rz5Ex_SRV_Uv9Wx9"><path d="M400.23,721.2969 C429.22,721.2969 445.23,721.2969 477.26,721.2969" fill="none" id="PRC_0Rz5Ex-to-SRV_Uv9Wx9" style="stroke:#181818;stroke-width:1;stroke-dasharray:7.0,7.0;"/><polygon fill="none" points="495.26,721.2969,477.26,715.2969,477.26,727.2969,495.26,721.2969" style="stroke:#181818;stroke-width:1;"/></g><!--link PRC_Tz_a_O to SRV_e5MCiF--><g class="link" data-entity-1="PRC_Tz_a_O" data-entity-2="SRV_e5MCiF" data-source-line="50" data-uid="lnk37" id="link_PRC_Tz_a_O_SRV_e5MCiF"><path d="M410.32,97.2969 C444.69,97.2969 466.57,97.2969 501.51,97.2969" fill="none" id="PRC_Tz_a_O-to-SRV_e5MCiF" style="stroke:#181818;stroke-width:1;stroke-dasharray:7.0,7.0;"/><polygon fill="none" points="519.51,97.2969,501.51,91.2969,501.51,103.2969,519.51,97.2969" style="stroke:#181818;stroke-width:1;"/></g><!--link PRC_vOWkdL to SRV_AIGnSY--><g class="link" data-entity-1="PRC_vOWkdL" data-entity-2="SRV_AIGnSY" data-source-line="51" data-uid="lnk38" id="link_PRC_vOWkdL_SRV_AIGnSY"><path d="M402.81,305.2969 C432.44,305.2969 449,305.2969 481.24,305.2969" fill="none" id="PRC_vOWkdL-to-SRV_AIGnSY" style="stroke:#181818;stroke-width:1;stroke-dasharray:7.0,7.0;"/><polygon fill="none" points="499.24,305.2969,481.24,299.2969,481.24,311.2969,499.24,305.2969" style="stroke:#181818;stroke-width:1;"/></g><!--SRC=[bLLHSvf047xdLsoSJfyghPF6IJAM6Qk9OwFLe3LjNvWhB709SCvn43NDVoy88hPKl2UH_VZssxrlzyveO7gHXQ2gxmt2JPVwH60p5CYHYVKIGtKP-PvoLerplFNIpI4UsW840quTLu15EPg2ia1H11KUGe_vFWjWHDR8hs66FAOcXkzWobdo6s889B10Pnw6Yh8avXDn41hR_mruKG1IFX8u2LMZywQGOAI8bz0a7dvggHUl6dGZuJBUW4ud3MaQa13qoSYmS1pD7oM8T8mfFcC5LNinwCMkZAOXT1qCnBzKaVLzQdzMNair5nqvMdUEgYWTnin23xfSK9kOsvmvE4ixrNl6Xw_JHV-N7Fimi72LT6N9GYeONrSIqo_HhNCZHxn0Jkrr9hkIb8rq_ZoI8xsFa1_ZZ0SkVlmfnvcyyvd0cjRgcukRbHpnp2IspJmB-fGudFZLYYSFJzP8zioeeCIZ6wmxkFd68CRam8Yx8JtgmnnKuKCQEBivJpFcZrd6cRumkb5hxhRacBSUh2C-7vxtXIb7l4YQP95qOHsb7Zwsxxos77MVXYQBKpU-pLnPf_-UNyx4fLoI_UdcBgshv5jyzR2waalIOu5DdOZNzmalnZrwAzkdhVUBOQZrpt0Gp7waZjslTsWsI_iDhfFlkc58dS1Fjg-cLI2pFN0ISZj_fo2pMQf6PdV73fbjjbEGsLgfHcQNo2cr7oAFrNw8FARpByx_T4afILFLtrfv1UmlZdqe7-9IyYAK3s6fWYAKZqwfOKKeDtpfV8fGxjQI_Bt2p6H_0000]--></g></svg>