<svg xmlns="http://www.w3.org/2000/svg" xmlns:xlink="http://www.w3.org/1999/xlink" contentStyleType="text/css" data-diagram-type="DESCRIPTION" height="418px" preserveAspectRatio="none" style="width:1692px;height:418px;background:#FAFAFA;" version="1.1" viewBox="0 0 1692 418" width="1692px" zoomAndPan="magnify"><title>Common Domain &#8212; Services, Processes &amp; Behavioral Elements</title><defs/><g><rect fill="#FAFAFA" height="418" style="stroke:none;stroke-width:1;" width="1692" x="0" y="0"/><text fill="#000000" font-family="sans-serif" font-size="14" font-weight="bold" lengthAdjust="spacing" textLength="497.1504" x="590.4248" y="22.9951">Common Domain &#8212; Services, Processes &amp; Behavioral Elements</text><!--cluster Services--><g class="cluster" data-entity="Services" data-source-line="8" data-uid="ent0002" id="cluster_Services"><rect fill="#EDE8E1" height="106" rx="2" ry="2" style="stroke:#8C7E6A;stroke-width:1;" width="1077" x="414" y="44.2969"/><text fill="#000000" font-family="sans-serif" font-size="12" font-weight="bold" lengthAdjust="spacing" textLength="57.0293" x="923.9854" y="57.4355">Services</text></g><!--cluster Processes--><g class="cluster" data-entity="Processes" data-source-line="17" data-uid="ent0009" id="cluster_Processes"><rect fill="#EDE8E1" height="92" rx="2" ry="2" style="stroke:#8C7E6A;stroke-width:1;" width="1367" x="7" y="182.2969"/><text fill="#000000" font-family="sans-serif" font-size="12" font-weight="bold" lengthAdjust="spacing" textLength="67.7754" x="656.6123" y="195.4355">Processes</text></g><!--cluster Functions--><g class="cluster" data-entity="Functions" data-source-line="27" data-uid="ent0017" id="cluster_Functions"><rect fill="#EDE8E1" height="106" rx="2" ry="2" style="stroke:#8C7E6A;stroke-width:1;" width="704" x="829" y="306.2969"/><text fill="#000000" font-family="sans-serif" font-size="12" font-weight="bold" lengthAdjust="spacing" textLength="66.1758" x="1147.9121" y="319.4355">Functions</text></g><!--cluster Roles--><g class="cluster" data-entity="Roles" data-source-line="34" data-uid="ent0022" id="cluster_Roles"><rect fill="#EDE8E1" height="92" rx="2" ry="2" style="stroke:#8C7E6A;stroke-width:1;" width="284" x="1402" y="182.2969"/><text fill="#000000" font-family="sans-serif" font-size="12" font-weight="bold" lengthAdjust="spacing" textLength="36.8789" x="1525.5605" y="195.4355">Roles</text></g><!--entity SRV_Au1Th1--><g class="entity" data-entity="SRV_Au1Th1" data-source-line="9" data-uid="ent0003" id="entity_SRV_Au1Th1"><rect fill="#E0D8CC" height="57.9688" rx="2" ry="2" style="stroke:#8C7E6A;stroke-width:0.5;" width="106.7715" x="429.5" y="76.2969"/><path d="M444.3,92.4469 L455.1,92.4469 A4.2,4.2 0 0 1 455.1,104.1469 L444.3,104.1469 A4.2,4.2 0 0 1 444.3,92.4469" fill="#252327"/><text fill="#000000" font-family="sans-serif" font-size="12" lengthAdjust="spacing" textLength="58.957" x="467.3145" y="107.4668">Authoring</text><text fill="#000000" font-family="sans-serif" font-size="12" lengthAdjust="spacing" textLength="44.3496" x="439.5" y="121.4355">Service</text></g><!--entity SRV_Ij6Kl6--><g class="entity" data-entity="SRV_Ij6Kl6" data-source-line="10" data-uid="ent0004" id="entity_SRV_Ij6Kl6"><rect fill="#E0D8CC" height="57.9688" rx="2" ry="2" style="stroke:#8C7E6A;stroke-width:0.5;" width="108.002" x="1367" y="76.2969"/><path d="M1381.8,92.4469 L1392.6,92.4469 A4.2,4.2 0 0 1 1392.6,104.1469 L1381.8,104.1469 A4.2,4.2 0 0 1 1381.8,92.4469" fill="#252327"/><text fill="#000000" font-family="sans-serif" font-size="12" lengthAdjust="spacing" textLength="60.1875" x="1404.8145" y="107.4668">Validation</text><text fill="#000000" font-family="sans-serif" font-size="12" lengthAdjust="spacing" textLength="44.3496" x="1377" y="121.4355">Service</text></g><!--entity SRV_Qr8St8--><g class="entity" data-entity="SRV_Qr8St8" data-source-line="11" data-uid="ent0005" id="entity_SRV_Qr8St8"><rect fill="#E0D8CC" height="57.9688" rx="2" ry="2" style="stroke:#8C7E6A;stroke-width:0.5;" width="169.7539" x="597" y="76.2969"/><path d="M611.8,92.4469 L622.6,92.4469 A4.2,4.2 0 0 1 622.6,104.1469 L611.8,104.1469 A4.2,4.2 0 0 1 611.8,92.4469" fill="#252327"/><text fill="#000000" font-family="sans-serif" font-size="12" lengthAdjust="spacing" textLength="121.9395" x="634.8145" y="107.4668">Discovery, Querying</text><text fill="#000000" font-family="sans-serif" font-size="12" lengthAdjust="spacing" textLength="91.9688" x="607" y="121.4355">&amp; Stats Service</text></g><!--entity SRV_Uv9Wx9--><g class="entity" data-entity="SRV_Uv9Wx9" data-source-line="12" data-uid="ent0006" id="entity_SRV_Uv9Wx9"><rect fill="#E0D8CC" height="57.9688" rx="2" ry="2" style="stroke:#8C7E6A;stroke-width:0.5;" width="129.6934" x="827" y="76.2969"/><path d="M841.8,92.4469 L852.6,92.4469 A4.2,4.2 0 0 1 852.6,104.1469 L841.8,104.1469 A4.2,4.2 0 0 1 841.8,92.4469" fill="#252327"/><text fill="#000000" font-family="sans-serif" font-size="12" lengthAdjust="spacing" textLength="64.3477" x="864.8145" y="107.4668">Repository</text><text fill="#000000" font-family="sans-serif" font-size="12" lengthAdjust="spacing" textLength="109.6934" x="837" y="121.4355">Promotion Service</text></g><!--entity SRV_e5MCiF--><g class="entity" data-entity="SRV_e5MCiF" data-source-line="13" data-uid="ent0007" id="entity_SRV_e5MCiF"><rect fill="#E0D8CC" height="57.9688" rx="2" ry="2" style="stroke:#8C7E6A;stroke-width:0.5;" width="129.1953" x="1017.5" y="76.2969"/><path d="M1032.3,92.4469 L1043.1,92.4469 A4.2,4.2 0 0 1 1043.1,104.1469 L1032.3,104.1469 A4.2,4.2 0 0 1 1032.3,92.4469" fill="#252327"/><text fill="#000000" font-family="sans-serif" font-size="12" lengthAdjust="spacing" textLength="81.3809" x="1055.3145" y="107.4668">Configuration</text><text fill="#000000" font-family="sans-serif" font-size="12" lengthAdjust="spacing" textLength="44.3496" x="1027.5" y="121.4355">Service</text></g><!--entity SRV_3I3Dtc--><g class="entity" data-entity="SRV_3I3Dtc" data-source-line="14" data-uid="ent0008" id="entity_SRV_3I3Dtc"><rect fill="#E0D8CC" height="57.9688" rx="2" ry="2" style="stroke:#8C7E6A;stroke-width:0.5;" width="99.6172" x="1207" y="76.2969"/><path d="M1221.8,92.4469 L1232.6,92.4469 A4.2,4.2 0 0 1 1232.6,104.1469 L1221.8,104.1469 A4.2,4.2 0 0 1 1221.8,92.4469" fill="#252327"/><text fill="#000000" font-family="sans-serif" font-size="12" lengthAdjust="spacing" textLength="51.8027" x="1244.8145" y="107.4668">Indexing</text><text fill="#000000" font-family="sans-serif" font-size="12" lengthAdjust="spacing" textLength="44.3496" x="1217" y="121.4355">Service</text></g><!--entity PRC_pFq3jC--><g class="entity" data-entity="PRC_pFq3jC" data-source-line="18" data-uid="ent0010" id="entity_PRC_pFq3jC"><rect fill="#E0D8CC" height="44" rx="2" ry="2" style="stroke:#8C7E6A;stroke-width:0.5;" width="126.7988" x="23.5" y="214.2969"/><path d="M37.4,230.4469 L46.85,230.4469 L46.85,228.4969 L53.6,236.2969 L46.85,244.0969 L46.85,242.1469 L37.4,242.1469" fill="#252327"/><text fill="#000000" font-family="sans-serif" font-size="12" lengthAdjust="spacing" textLength="78.9844" x="61.3145" y="245.4668">Create Entity</text></g><!--entity PRC_ocenhK--><g class="entity" data-entity="PRC_ocenhK" data-source-line="19" data-uid="ent0011" id="entity_PRC_ocenhK"><rect fill="#E0D8CC" height="44" rx="2" ry="2" style="stroke:#8C7E6A;stroke-width:0.5;" width="159.6641" x="211" y="214.2969"/><path d="M224.9,230.4469 L234.35,230.4469 L234.35,228.4969 L241.1,236.2969 L234.35,244.0969 L234.35,242.1469 L224.9,242.1469" fill="#252327"/><text fill="#000000" font-family="sans-serif" font-size="12" lengthAdjust="spacing" textLength="111.8496" x="248.8145" y="245.4668">Create Connection</text></g><!--entity PRC_iGIf7W--><g class="entity" data-entity="PRC_iGIf7W" data-source-line="20" data-uid="ent0012" id="entity_PRC_iGIf7W"><rect fill="#E0D8CC" height="44" rx="2" ry="2" style="stroke:#8C7E6A;stroke-width:0.5;" width="143.2871" x="431.5" y="214.2969"/><path d="M445.4,230.4469 L454.85,230.4469 L454.85,228.4969 L461.6,236.2969 L454.85,244.0969 L454.85,242.1469 L445.4,242.1469" fill="#252327"/><text fill="#000000" font-family="sans-serif" font-size="12" lengthAdjust="spacing" textLength="95.4727" x="469.3145" y="245.4668">Create Diagram</text></g><!--entity PRC_oLRrwL--><g class="entity" data-entity="PRC_oLRrwL" data-source-line="21" data-uid="ent0013" id="entity_PRC_oLRrwL"><rect fill="#E0D8CC" height="44" rx="2" ry="2" style="stroke:#8C7E6A;stroke-width:0.5;" width="122.8438" x="1234.5" y="214.2969"/><path d="M1248.4,230.4469 L1257.85,230.4469 L1257.85,228.4969 L1264.6,236.2969 L1257.85,244.0969 L1257.85,242.1469 L1248.4,242.1469" fill="#252327"/><text fill="#000000" font-family="sans-serif" font-size="12" lengthAdjust="spacing" textLength="75.0293" x="1272.3145" y="245.4668">Verify Model</text></g><!--entity PRC_iJuFgE--><g class="entity" data-entity="PRC_iJuFgE" data-source-line="22" data-uid="ent0014" id="entity_PRC_iJuFgE"><rect fill="#E0D8CC" height="44" rx="2" ry="2" style="stroke:#8C7E6A;stroke-width:0.5;" width="149.2227" x="1025.5" y="214.2969"/><path d="M1039.4,230.4469 L1048.85,230.4469 L1048.85,228.4969 L1055.6,236.2969 L1048.85,244.0969 L1048.85,242.1469 L1039.4,242.1469" fill="#252327"/><text fill="#000000" font-family="sans-serif" font-size="12" lengthAdjust="spacing" textLength="101.4082" x="1063.3145" y="245.4668">Index Repository</text></g><!--entity PRC_0Rz5Ex--><g class="entity" data-entity="PRC_0Rz5Ex" data-source-line="23" data-uid="ent0015" id="entity_PRC_0Rz5Ex"><rect fill="#E0D8CC" height="44" rx="2" ry="2" style="stroke:#8C7E6A;stroke-width:0.5;" width="146.3223" x="819" y="214.2969"/><path d="M832.9,230.4469 L842.35,230.4469 L842.35,228.4969 L849.1,236.2969 L842.35,244.0969 L842.35,242.1469 L832.9,242.1469" fill="#252327"/><text fill="#000000" font-family="sans-serif" font-size="12" lengthAdjust="spacing" textLength="98.5078" x="856.8145" y="245.4668">Promote Artifact</text></g><!--entity PRC_vGhe4Z--><g class="entity" data-entity="PRC_vGhe4Z" data-source-line="24" data-uid="ent0016" id="entity_PRC_vGhe4Z"><rect fill="#E0D8CC" height="44" rx="2" ry="2" style="stroke:#8C7E6A;stroke-width:0.5;" width="124.127" x="635" y="214.2969"/><path d="M648.9,230.4469 L658.35,230.4469 L658.35,228.4969 L665.1,236.2969 L658.35,244.0969 L658.35,242.1469 L648.9,242.1469" fill="#252327"/><text fill="#000000" font-family="sans-serif" font-size="12" lengthAdjust="spacing" textLength="76.3125" x="672.8145" y="245.4668">Query Model</text></g><!--entity FNC_ahr0mT--><g class="entity" data-entity="FNC_ahr0mT" data-source-line="28" data-uid="ent0018" id="entity_FNC_ahr0mT"><rect fill="#E0D8CC" height="57.9688" rx="2" ry="2" style="stroke:#8C7E6A;stroke-width:0.5;" width="120.0723" x="845" y="338.2969"/><path d="M859.35,365.8469 L859.35,356.3969 L867,352.9469 L874.65,356.3969 L874.65,365.8469 L867,362.0969" fill="#252327"/><text fill="#000000" font-family="sans-serif" font-size="12" lengthAdjust="spacing" textLength="72.2578" x="882.8145" y="369.4668">Frontmatter</text><text fill="#000000" font-family="sans-serif" font-size="12" lengthAdjust="spacing" textLength="60.1875" x="855" y="383.4355">Validation</text></g><!--entity FNC_B_F_Sq--><g class="entity" data-entity="FNC_B_F_Sq" data-source-line="29" data-uid="ent0019" id="entity_FNC_B_F_Sq"><rect fill="#E0D8CC" height="57.9688" rx="2" ry="2" style="stroke:#8C7E6A;stroke-width:0.5;" width="153.0723" x="1025.5" y="338.2969"/><path d="M1039.85,365.8469 L1039.85,356.3969 L1047.5,352.9469 L1055.15,356.3969 L1055.15,365.8469 L1047.5,362.0969" fill="#252327"/><text fill="#000000" font-family="sans-serif" font-size="12" lengthAdjust="spacing" textLength="105.2578" x="1063.3145" y="369.4668">Attribute Schema</text><text fill="#000000" font-family="sans-serif" font-size="12" lengthAdjust="spacing" textLength="60.1875" x="1035.5" y="383.4355">Validation</text></g><!--entity FNC_eAkU8w--><g class="entity" data-entity="FNC_eAkU8w" data-source-line="30" data-uid="ent0020" id="entity_FNC_eAkU8w"><rect fill="#E0D8CC" height="57.9688" rx="2" ry="2" style="stroke:#8C7E6A;stroke-width:0.5;" width="113.791" x="1239" y="338.2969"/><path d="M1253.35,365.8469 L1253.35,356.3969 L1261,352.9469 L1268.65,356.3969 L1268.65,365.8469 L1261,362.0969" fill="#252327"/><text fill="#000000" font-family="sans-serif" font-size="12" lengthAdjust="spacing" textLength="65.9766" x="1276.8145" y="369.4668">Referential</text><text fill="#000000" font-family="sans-serif" font-size="12" lengthAdjust="spacing" textLength="91.6523" x="1249" y="383.4355">Integrity Check</text></g><!--entity FNC_wIVwom--><g class="entity" data-entity="FNC_wIVwom" data-source-line="31" data-uid="ent0021" id="entity_FNC_wIVwom"><rect fill="#E0D8CC" height="57.9688" rx="2" ry="2" style="stroke:#8C7E6A;stroke-width:0.5;" width="103.8711" x="1413" y="338.2969"/><path d="M1427.35,365.8469 L1427.35,356.3969 L1435,352.9469 L1442.65,356.3969 L1442.65,365.8469 L1435,362.0969" fill="#252327"/><text fill="#000000" font-family="sans-serif" font-size="12" lengthAdjust="spacing" textLength="56.0566" x="1450.8145" y="369.4668">PlantUML</text><text fill="#000000" font-family="sans-serif" font-size="12" lengthAdjust="spacing" textLength="82.2129" x="1423" y="383.4355">Syntax Check</text></g><!--entity ROL_deMuTj--><g class="entity" data-entity="ROL_deMuTj" data-source-line="35" data-uid="ent0023" id="entity_ROL_deMuTj"><rect fill="#E0D8CC" height="44" rx="2" ry="2" style="stroke:#8C7E6A;stroke-width:0.5;" width="88.2148" x="1418" y="214.2969"/><path d="M1432.5,229.5469 L1444.2,229.5469 A3,3 0 0 1 1447.2,232.5469 L1447.2,240.0469 A3,3 0 0 1 1444.2,243.0469 L1432.5,243.0469" fill="#252327"/><text fill="#000000" font-family="sans-serif" font-size="12" lengthAdjust="spacing" textLength="40.4004" x="1455.8145" y="245.4668">Author</text></g><!--entity ROL_6VGCvh--><g class="entity" data-entity="ROL_6VGCvh" data-source-line="36" data-uid="ent0024" id="entity_ROL_6VGCvh"><rect fill="#E0D8CC" height="44" rx="2" ry="2" style="stroke:#8C7E6A;stroke-width:0.5;" width="103.4844" x="1566.5" y="214.2969"/><path d="M1581,229.5469 L1592.7,229.5469 A3,3 0 0 1 1595.7,232.5469 L1595.7,240.0469 A3,3 0 0 1 1592.7,243.0469 L1581,243.0469" fill="#252327"/><text fill="#000000" font-family="sans-serif" font-size="12" lengthAdjust="spacing" textLength="55.6699" x="1604.3145" y="245.4668">Reviewer</text></g><!--link SRV_Au1Th1 to SRV_Ij6Kl6--><!--link SRV_Ij6Kl6 to SRV_Qr8St8--><!--link SRV_Qr8St8 to SRV_Uv9Wx9--><!--link SRV_Uv9Wx9 to SRV_e5MCiF--><!--link SRV_e5MCiF to SRV_3I3Dtc--><!--link PRC_pFq3jC to PRC_ocenhK--><!--link PRC_ocenhK to PRC_iGIf7W--><!--link PRC_iGIf7W to PRC_oLRrwL--><!--link PRC_oLRrwL to PRC_iJuFgE--><!--link PRC_iJuFgE to PRC_0Rz5Ex--><!--link PRC_0Rz5Ex to PRC_vGhe4Z--><!--link FNC_ahr0mT to FNC_B_F_Sq--><!--link FNC_B_F_Sq to FNC_eAkU8w--><!--link FNC_eAkU8w to FNC_wIVwom--><!--link ROL_deMuTj to ROL_6VGCvh--><!--reverse link SRV_Au1Th1 to PRC_pFq3jC--><g class="link" data-entity-1="SRV_Au1Th1" data-entity-2="PRC_pFq3jC" data-source-line="58" data-uid="lnk40" id="link_SRV_Au1Th1_PRC_pFq3jC"><path d="M417.18,96.2969 C308.91,96.2969 87,96.2969 87,96.2969 C87,96.2969 87,174.6369 87,214.1169" fill="none" id="SRV_Au1Th1-backto-PRC_pFq3jC" style="stroke:#181818;stroke-width:1;"/><polygon fill="#181818" points="429.18,96.2969,423.18,92.2969,417.18,96.2969,423.18,100.2969,429.18,96.2969" style="stroke:#181818;stroke-width:1;"/></g><!--reverse link SRV_Au1Th1 to PRC_ocenhK--><g class="link" data-entity-1="SRV_Au1Th1" data-entity-2="PRC_ocenhK" data-source-line="59" data-uid="lnk41" id="link_SRV_Au1Th1_PRC_ocenhK"><path d="M417.26,115.2969 C360.46,115.2969 291,115.2969 291,115.2969 C291,115.2969 291,179.1769 291,214.1069" fill="none" id="SRV_Au1Th1-backto-PRC_ocenhK" style="stroke:#181818;stroke-width:1;"/><polygon fill="#181818" points="429.26,115.2969,423.26,111.2969,417.26,115.2969,423.26,119.2969,429.26,115.2969" style="stroke:#181818;stroke-width:1;"/></g><!--reverse link SRV_Au1Th1 to PRC_iGIf7W--><g class="link" data-entity-1="SRV_Au1Th1" data-entity-2="PRC_iGIf7W" data-source-line="60" data-uid="lnk42" id="link_SRV_Au1Th1_PRC_iGIf7W"><path d="M466.5,146.3669 C466.5,170.4869 466.5,192.2769 466.5,214.2269" fill="none" id="SRV_Au1Th1-backto-PRC_iGIf7W" style="stroke:#181818;stroke-width:1;"/><polygon fill="#181818" points="466.5,134.3669,462.5,140.3669,466.5,146.3669,470.5,140.3669,466.5,134.3669" style="stroke:#181818;stroke-width:1;"/></g><!--reverse link SRV_Ij6Kl6 to PRC_oLRrwL--><g class="link" data-entity-1="SRV_Ij6Kl6" data-entity-2="PRC_oLRrwL" data-source-line="61" data-uid="lnk43" id="link_SRV_Ij6Kl6_PRC_oLRrwL"><path d="M1397.67,146.4369 C1397.67,187.1969 1397.67,244.2969 1397.67,244.2969 C1397.67,244.2969 1379.07,244.2969 1357.78,244.2969" fill="none" id="SRV_Ij6Kl6-backto-PRC_oLRrwL" style="stroke:#181818;stroke-width:1;"/><polygon fill="#181818" points="1397.67,134.4369,1393.67,140.4369,1397.67,146.4369,1401.67,140.4369,1397.67,134.4369" style="stroke:#181818;stroke-width:1;"/></g><!--reverse link SRV_3I3Dtc to PRC_iJuFgE--><g class="link" data-entity-1="SRV_3I3Dtc" data-entity-2="PRC_iJuFgE" data-source-line="62" data-uid="lnk44" id="link_SRV_3I3Dtc_PRC_iJuFgE"><path d="M1216.17,146.3469 C1216.17,181.8569 1216.17,225.2969 1216.17,225.2969 C1216.17,225.2969 1197.18,225.2969 1174.56,225.2969" fill="none" id="SRV_3I3Dtc-backto-PRC_iJuFgE" style="stroke:#181818;stroke-width:1;"/><polygon fill="#181818" points="1216.17,134.3469,1212.17,140.3469,1216.17,146.3469,1220.17,140.3469,1216.17,134.3469" style="stroke:#181818;stroke-width:1;"/></g><!--reverse link SRV_Uv9Wx9 to PRC_0Rz5Ex--><g class="link" data-entity-1="SRV_Uv9Wx9" data-entity-2="PRC_0Rz5Ex" data-source-line="63" data-uid="lnk45" id="link_SRV_Uv9Wx9_PRC_0Rz5Ex"><path d="M892,146.3669 C892,170.4869 892,192.2769 892,214.2269" fill="none" id="SRV_Uv9Wx9-backto-PRC_0Rz5Ex" style="stroke:#181818;stroke-width:1;"/><polygon fill="#181818" points="892,134.3669,888,140.3669,892,146.3669,896,140.3669,892,134.3669" style="stroke:#181818;stroke-width:1;"/></g><!--reverse link SRV_Qr8St8 to PRC_vGhe4Z--><g class="link" data-entity-1="SRV_Qr8St8" data-entity-2="PRC_vGhe4Z" data-source-line="64" data-uid="lnk46" id="link_SRV_Qr8St8_PRC_vGhe4Z"><path d="M697,146.3669 C697,170.4869 697,192.2769 697,214.2269" fill="none" id="SRV_Qr8St8-backto-PRC_vGhe4Z" style="stroke:#181818;stroke-width:1;"/><polygon fill="#181818" points="697,134.3669,693,140.3669,697,146.3669,701,140.3669,697,134.3669" style="stroke:#181818;stroke-width:1;"/></g><!--link PRC_oLRrwL to FNC_ahr0mT--><g class="link" data-entity-1="PRC_oLRrwL" data-entity-2="FNC_ahr0mT" data-source-line="67" data-uid="lnk47" id="link_PRC_oLRrwL_FNC_ahr0mT"><path d="M1277,258.3269 C1277,276.1469 1277,298.2969 1277,298.2969 C1277,298.2969 905,298.2969 905,298.2969 C905,298.2969 905,313.2269 905,332.0369" fill="none" id="PRC_oLRrwL-to-FNC_ahr0mT" style="stroke:#181818;stroke-width:1;"/><polygon fill="#181818" points="905,338.0369,909,329.0369,905,333.0369,901,329.0369,905,338.0369" style="stroke:#181818;stroke-width:1;"/></g><!--link PRC_oLRrwL to FNC_B_F_Sq--><g class="link" data-entity-1="PRC_oLRrwL" data-entity-2="FNC_B_F_Sq" data-source-line="68" data-uid="lnk48" id="link_PRC_oLRrwL_FNC_B_F_Sq"><path d="M1234.28,236.2969 C1228.84,236.2969 1225.33,236.2969 1225.33,236.2969 C1225.33,236.2969 1225.33,358.2969 1225.33,358.2969 C1225.33,358.2969 1209.79,358.2969 1184.71,358.2969" fill="none" id="PRC_oLRrwL-to-FNC_B_F_Sq" style="stroke:#181818;stroke-width:1;"/><polygon fill="#181818" points="1178.71,358.2969,1187.71,362.2969,1183.71,358.2969,1187.71,354.2969,1178.71,358.2969" style="stroke:#181818;stroke-width:1;"/></g><!--link PRC_oLRrwL to FNC_eAkU8w--><g class="link" data-entity-1="PRC_oLRrwL" data-entity-2="FNC_eAkU8w" data-source-line="69" data-uid="lnk49" id="link_PRC_oLRrwL_FNC_eAkU8w"><path d="M1315,258.5169 C1315,280.4169 1315,307.9969 1315,332.0569" fill="none" id="PRC_oLRrwL-to-FNC_eAkU8w" style="stroke:#181818;stroke-width:1;"/><polygon fill="#181818" points="1315,338.0569,1319,329.0569,1315,333.0569,1311,329.0569,1315,338.0569" style="stroke:#181818;stroke-width:1;"/></g><!--link PRC_oLRrwL to FNC_wIVwom--><g class="link" data-entity-1="PRC_oLRrwL" data-entity-2="FNC_wIVwom" data-source-line="70" data-uid="lnk50" id="link_PRC_oLRrwL_FNC_wIVwom"><path d="M1357.9,229.2969 C1360.63,229.2969 1362.25,229.2969 1362.25,229.2969 C1362.25,229.2969 1362.25,358.2969 1362.25,358.2969 C1362.25,358.2969 1381.34,358.2969 1406.72,358.2969" fill="none" id="PRC_oLRrwL-to-FNC_wIVwom" style="stroke:#181818;stroke-width:1;"/><polygon fill="#181818" points="1412.72,358.2969,1403.72,354.2969,1407.72,358.2969,1403.72,362.2969,1412.72,358.2969" style="stroke:#181818;stroke-width:1;"/></g><!--link PRC_pFq3jC to FNC_ahr0mT--><g class="link" data-entity-1="PRC_pFq3jC" data-entity-2="FNC_ahr0mT" data-source-line="71" data-uid="lnk51" id="link_PRC_pFq3jC_FNC_ahr0mT"><path d="M87,258.5169 C87,295.8969 87,367.2969 87,367.2969 C87,367.2969 649.94,367.2969 838.85,367.2969" fill="none" id="PRC_pFq3jC-to-FNC_ahr0mT" style="stroke:#181818;stroke-width:1;"/><polygon fill="#181818" points="844.85,367.2969,835.85,363.2969,839.85,367.2969,835.85,371.2969,844.85,367.2969" style="stroke:#181818;stroke-width:1;"/></g><!--reverse link SRV_Au1Th1 to ROL_deMuTj--><g class="link" data-entity-1="SRV_Au1Th1" data-entity-2="ROL_deMuTj" data-source-line="74" data-uid="lnk53" id="link_SRV_Au1Th1_ROL_deMuTj"><path d="M501.5,140.5569 C501.5,159.3669 501.5,174.2969 501.5,174.2969 C501.5,174.2969 1446.5,174.2969 1446.5,174.2969 C1446.5,174.2969 1446.5,196.4469 1446.5,214.2669" fill="none" id="SRV_Au1Th1-backto-ROL_deMuTj" style="stroke:#181818;stroke-width:1;"/><polygon fill="#181818" points="501.5,134.5569,497.5,143.5569,501.5,139.5569,505.5,143.5569,501.5,134.5569" style="stroke:#181818;stroke-width:1;"/></g><!--reverse link SRV_Ij6Kl6 to ROL_6VGCvh--><g class="link" data-entity-1="SRV_Ij6Kl6" data-entity-2="ROL_6VGCvh" data-source-line="75" data-uid="lnk55" id="link_SRV_Ij6Kl6_ROL_6VGCvh"><path d="M1481.09,105.2969 C1539.41,105.2969 1618,105.2969 1618,105.2969 C1618,105.2969 1618,176.6969 1618,214.0769" fill="none" id="SRV_Ij6Kl6-backto-ROL_6VGCvh" style="stroke:#181818;stroke-width:1;"/><polygon fill="#181818" points="1475.09,105.2969,1484.09,109.2969,1480.09,105.2969,1484.09,101.2969,1475.09,105.2969" style="stroke:#181818;stroke-width:1;"/></g><!--SRC=[dLRXJjim4FxVfxYXYKdJma0CnYQ6L0f57R2n53ffOwfCSaqCYHrifwMRaFPh3p3j2VSaSne7Xs6wXL-zwhxxplRTVPT7b0L97Y8iBJqV4X74D2KAFQbG85VJ3ELIbgT9wv4R5oNJB3QGbk8PA0vdN2cUGaW51efofXrK9GWTdgQSmGvF2MNm-_ilwACOqm3bCpWINFzAbB08snYJCUM29B2RO8fCoLQhu28iqZGBLTG2R6wMd7k2vnbbqTOMV6i1rB2RZs_EEZHntsH04dopihHslGNjNCLSwD1JPjm5gp4r7P7GzmV3Thvo7AyqenwGX8QaU83vtBtpzVralHdt3fK17wEOFeCFkVwPNM0H-eee2VEIVH0RVRNHB9cF6PTKSJ4zPRfEAI_kD3VBoVZLnwjNpR9qE1lHA1V_yMAuTjYXtMRqFHRYrJ_hlDfRtL51w_fMlztqPjE6Cu6thobGks2NwPcO5eG6L9xXoEyCi-xbwdddGQpw3LavSqvc_PV5-mzYtg4a4YHrqjAztkZbnsQq0nHqD8L37cBYFkk1BoO7pKXdDQwrg_kqR_DkjDkCkEnwXBPGT4G2vIHUzh-kxLur8vuDxvnN6E_5-EBJN_tOpTcinetxiGgyTOIku4nfjnRyKsOrg-2kyELvkkywGnABvVIuOOQsKeAUvVhz-a6CAVbtckrXTzY_R9Z6nv7UMNgkI7BAUanX9FI8GIV6uCAT1jiN9nkJXccE4iBKoU615f8fK-HgNe99Rp3XwL_bytdIN4gA8CVYAcWALvdIVtym3F4mFpvlGEJZcE847LJhWxtEE2vE_mGypojISYyXKvwhro0pBGmXe5dGCA4grbizChUHHKJBhaxmFiSq395z4JIAbLVVVDPqeipAigOJPLQEDPqeipciwKIPBM35-0wgfgRMTAACE5hJpLMgdJNTNALqMTE9CZfaJIVAA8iTwZkesY1QquaoSsHD9yeCWstIEwXQqnKzPxOp_Fxni_e-X82dCtKlvA_UNayzhxuy7HvJBeV7bAZMXZSnPLbiJzYOiXIrTgiyvlbhxLfvp9FhcrMtAMvMgGRaaaGeR_L0o2VCswehxprUKwTxlAO-ztXDNUhTVZUlFdGX3hCJLtKXKjA8bT_dzQhccOwjVJNRijPyPlR_0000]--></g></svg>