<svg xmlns="http://www.w3.org/2000/svg" xmlns:xlink="http://www.w3.org/1999/xlink" contentStyleType="text/css" data-diagram-type="DESCRIPTION" height="1228px" preserveAspectRatio="none" style="width:739px;height:1228px;background:#FAFAFA;" version="1.1" viewBox="0 0 739 1228" width="739px" zoomAndPan="magnify"><title>Cross-Domain Realization &#8212; Motivation through Technology</title><defs/><g><rect fill="#FAFAFA" height="1228" style="stroke:none;stroke-width:1;" width="739" x="0" y="0"/><text fill="#000000" font-family="sans-serif" font-size="14" font-weight="bold" lengthAdjust="spacing" textLength="473.9629" x="125.5186" y="22.9951">Cross-Domain Realization &#8212; Motivation through Technology</text><!--cluster Motivation--><g class="cluster" data-entity="Motivation" data-source-line="8" data-uid="ent0002" id="cluster_Motivation"><rect fill="#F7EEF9" height="106" rx="2" ry="2" style="stroke:#7B3F9A;stroke-width:1;" width="640" x="76" y="44.2969"/><text fill="#000000" font-family="sans-serif" font-size="12" font-weight="bold" lengthAdjust="spacing" textLength="72.5918" x="359.7041" y="57.4355">Motivation</text></g><!--cluster Strategy--><g class="cluster" data-entity="Strategy" data-source-line="14" data-uid="ent0006" id="cluster_Strategy"><rect fill="#FAF0D9" height="106" rx="2" ry="2" style="stroke:#8B6914;stroke-width:1;" width="626" x="32" y="182.2969"/><text fill="#000000" font-family="sans-serif" font-size="12" font-weight="bold" lengthAdjust="spacing" textLength="58.6816" x="315.6592" y="195.4355">Strategy</text></g><!--cluster Common (Behavioral)--><g class="cluster" data-entity="Common (Behavioral)" data-source-line="21" data-uid="ent0011" id="cluster_Common (Behavioral)"><rect fill="#EDE8E1" height="106" rx="2" ry="2" style="stroke:#8C7E6A;stroke-width:1;" width="635" x="40" y="320.2969"/><text fill="#000000" font-family="sans-serif" font-size="12" font-weight="bold" lengthAdjust="spacing" textLength="146.2266" x="284.3867" y="333.4355">Common (Behavioral)</text></g><!--cluster Application--><g class="cluster" data-entity="Application" data-source-line="28" data-uid="ent0016" id="cluster_Application"><rect fill="#E8F8FF" height="216" rx="2" ry="2" style="stroke:#0078A0;stroke-width:1;" width="726" x="7" y="458.2969"/><text fill="#000000" font-family="sans-serif" font-size="12" font-weight="bold" lengthAdjust="spacing" textLength="76.541" x="331.7295" y="471.4355">Application</text></g><!--cluster Technology--><g class="cluster" data-entity="Technology" data-source-line="36" data-uid="ent0022" id="cluster_Technology"><rect fill="#E8FFEE" height="516" rx="2" ry="2" style="stroke:#2E7D32;stroke-width:1;" width="166" x="422" y="706.2969"/><text fill="#000000" font-family="sans-serif" font-size="12" font-weight="bold" lengthAdjust="spacing" textLength="77.5371" x="466.2314" y="719.4355">Technology</text></g><!--entity GOL_Po1Qw3--><g class="entity" data-entity="GOL_Po1Qw3" data-source-line="9" data-uid="ent0003" id="entity_GOL_Po1Qw3"><rect fill="#EDD6F0" height="57.9688" rx="2" ry="2" style="stroke:#7B3F9A;stroke-width:0.5;" width="167.8848" x="92" y="76.2969"/><ellipse cx="114" cy="98.2969" fill="none" rx="7.2" ry="7.2" style="stroke:#252327;stroke-width:1.95;"/><ellipse cx="114" cy="98.2969" fill="none" rx="4.35" ry="4.35" style="stroke:#252327;stroke-width:1.95;"/><ellipse cx="114" cy="98.2969" fill="#252327" rx="1.95" ry="1.95" style="stroke:#252327;stroke-width:0.5;"/><text fill="#000000" font-family="sans-serif" font-size="12" lengthAdjust="spacing" textLength="120.0703" x="129.8145" y="107.4668">Maintain Coherence</text><text fill="#000000" font-family="sans-serif" font-size="12" lengthAdjust="spacing" textLength="83.5488" x="102" y="121.4355">&amp; Traceability</text></g><!--entity GOL_Zx9Cv4--><g class="entity" data-entity="GOL_Zx9Cv4" data-source-line="10" data-uid="ent0004" id="entity_GOL_Zx9Cv4"><rect fill="#EDD6F0" height="57.9688" rx="2" ry="2" style="stroke:#7B3F9A;stroke-width:0.5;" width="143.0938" x="320.5" y="76.2969"/><ellipse cx="342.5" cy="98.2969" fill="none" rx="7.2" ry="7.2" style="stroke:#252327;stroke-width:1.95;"/><ellipse cx="342.5" cy="98.2969" fill="none" rx="4.35" ry="4.35" style="stroke:#252327;stroke-width:1.95;"/><ellipse cx="342.5" cy="98.2969" fill="#252327" rx="1.95" ry="1.95" style="stroke:#252327;stroke-width:0.5;"/><text fill="#000000" font-family="sans-serif" font-size="12" lengthAdjust="spacing" textLength="95.2793" x="358.3145" y="107.4668">Enable Scalable</text><text fill="#000000" font-family="sans-serif" font-size="12" lengthAdjust="spacing" textLength="36.9609" x="330.5" y="121.4355">Reuse</text></g><!--entity GOL_e3nCpO--><g class="entity" data-entity="GOL_e3nCpO" data-source-line="11" data-uid="ent0005" id="entity_GOL_e3nCpO"><rect fill="#EDD6F0" height="57.9688" rx="2" ry="2" style="stroke:#7B3F9A;stroke-width:0.5;" width="177.3594" x="523.5" y="76.2969"/><ellipse cx="545.5" cy="98.2969" fill="none" rx="7.2" ry="7.2" style="stroke:#252327;stroke-width:1.95;"/><ellipse cx="545.5" cy="98.2969" fill="none" rx="4.35" ry="4.35" style="stroke:#252327;stroke-width:1.95;"/><ellipse cx="545.5" cy="98.2969" fill="#252327" rx="1.95" ry="1.95" style="stroke:#252327;stroke-width:0.5;"/><text fill="#000000" font-family="sans-serif" font-size="12" lengthAdjust="spacing" textLength="129.5449" x="561.3145" y="107.4668">Provide Development</text><text fill="#000000" font-family="sans-serif" font-size="12" lengthAdjust="spacing" textLength="81.7207" x="533.5" y="121.4355">Guidance (AI)</text></g><!--entity CAP_y4xZme--><g class="entity" data-entity="CAP_y4xZme" data-source-line="15" data-uid="ent0007" id="entity_CAP_y4xZme"><rect fill="#F5DEB3" height="57.9688" rx="2" ry="2" style="stroke:#8B6914;stroke-width:0.5;" width="125.1113" x="48.5" y="214.2969"/><path d="M63.15,241.1719 L77.85,241.1719 L77.85,243.1219 L63.15,243.1219" fill="#252327"/><path d="M64.5,237.4969 L67.35,237.4969 L67.35,242.1469 L64.5,242.1469" fill="#252327"/><path d="M68.7,234.4969 L71.55,234.4969 L71.55,242.1469 L68.7,242.1469" fill="#252327"/><path d="M72.9,231.3469 L75.75,231.3469 L75.75,242.1469 L72.9,242.1469" fill="#252327"/><text fill="#000000" font-family="sans-serif" font-size="12" lengthAdjust="spacing" textLength="77.2969" x="86.3145" y="245.4668">Architectural</text><text fill="#000000" font-family="sans-serif" font-size="12" lengthAdjust="spacing" textLength="54.5859" x="58.5" y="259.4355">Modeling</text></g><!--entity CAP_gky5s4--><g class="entity" data-entity="CAP_gky5s4" data-source-line="16" data-uid="ent0008" id="entity_CAP_gky5s4"><rect fill="#F5DEB3" height="57.9688" rx="2" ry="2" style="stroke:#8B6914;stroke-width:0.5;" width="83.8438" x="234" y="214.2969"/><path d="M248.65,241.1719 L263.35,241.1719 L263.35,243.1219 L248.65,243.1219" fill="#252327"/><path d="M250,237.4969 L252.85,237.4969 L252.85,242.1469 L250,242.1469" fill="#252327"/><path d="M254.2,234.4969 L257.05,234.4969 L257.05,242.1469 L254.2,242.1469" fill="#252327"/><path d="M258.4,231.3469 L261.25,231.3469 L261.25,242.1469 L258.4,242.1469" fill="#252327"/><text fill="#000000" font-family="sans-serif" font-size="12" lengthAdjust="spacing" textLength="36.0293" x="271.8145" y="245.4668">Model</text><text fill="#000000" font-family="sans-serif" font-size="12" lengthAdjust="spacing" textLength="60.1875" x="244" y="259.4355">Validation</text></g><!--entity CAP_ZnmAHe--><g class="entity" data-entity="CAP_ZnmAHe" data-source-line="17" data-uid="ent0009" id="entity_CAP_ZnmAHe"><rect fill="#F5DEB3" height="57.9688" rx="2" ry="2" style="stroke:#8B6914;stroke-width:0.5;" width="112.1621" x="378" y="214.2969"/><path d="M392.65,241.1719 L407.35,241.1719 L407.35,243.1219 L392.65,243.1219" fill="#252327"/><path d="M394,237.4969 L396.85,237.4969 L396.85,242.1469 L394,242.1469" fill="#252327"/><path d="M398.2,234.4969 L401.05,234.4969 L401.05,242.1469 L398.2,242.1469" fill="#252327"/><path d="M402.4,231.3469 L405.25,231.3469 L405.25,242.1469 L402.4,242.1469" fill="#252327"/><text fill="#000000" font-family="sans-serif" font-size="12" lengthAdjust="spacing" textLength="64.3477" x="415.8145" y="245.4668">Repository</text><text fill="#000000" font-family="sans-serif" font-size="12" lengthAdjust="spacing" textLength="72.6035" x="388" y="259.4355">Governance</text></g><!--entity CAP_QrHHmz--><g class="entity" data-entity="CAP_QrHHmz" data-source-line="18" data-uid="ent0010" id="entity_CAP_QrHHmz"><rect fill="#F5DEB3" height="57.9688" rx="2" ry="2" style="stroke:#8B6914;stroke-width:0.5;" width="91.877" x="550" y="214.2969"/><path d="M564.65,241.1719 L579.35,241.1719 L579.35,243.1219 L564.65,243.1219" fill="#252327"/><path d="M566,237.4969 L568.85,237.4969 L568.85,242.1469 L566,242.1469" fill="#252327"/><path d="M570.2,234.4969 L573.05,234.4969 L573.05,242.1469 L570.2,242.1469" fill="#252327"/><path d="M574.4,231.3469 L577.25,231.3469 L577.25,242.1469 L574.4,242.1469" fill="#252327"/><text fill="#000000" font-family="sans-serif" font-size="12" lengthAdjust="spacing" textLength="44.0625" x="587.8145" y="245.4668">Artifact</text><text fill="#000000" font-family="sans-serif" font-size="12" lengthAdjust="spacing" textLength="59.2852" x="560" y="259.4355">Discovery</text></g><!--entity SRV_Au1Th1--><g class="entity" data-entity="SRV_Au1Th1" data-source-line="22" data-uid="ent0012" id="entity_SRV_Au1Th1"><rect fill="#E0D8CC" height="57.9688" rx="2" ry="2" style="stroke:#8C7E6A;stroke-width:0.5;" width="106.7715" x="55.5" y="352.2969"/><path d="M70.3,368.4469 L81.1,368.4469 A4.2,4.2 0 0 1 81.1,380.1469 L70.3,380.1469 A4.2,4.2 0 0 1 70.3,368.4469" fill="#252327"/><text fill="#000000" font-family="sans-serif" font-size="12" lengthAdjust="spacing" textLength="58.957" x="93.3145" y="383.4668">Authoring</text><text fill="#000000" font-family="sans-serif" font-size="12" lengthAdjust="spacing" textLength="44.3496" x="65.5" y="397.4355">Service</text></g><!--entity SRV_Ij6Kl6--><g class="entity" data-entity="SRV_Ij6Kl6" data-source-line="23" data-uid="ent0013" id="entity_SRV_Ij6Kl6"><rect fill="#E0D8CC" height="57.9688" rx="2" ry="2" style="stroke:#8C7E6A;stroke-width:0.5;" width="108.002" x="223" y="352.2969"/><path d="M237.8,368.4469 L248.6,368.4469 A4.2,4.2 0 0 1 248.6,380.1469 L237.8,380.1469 A4.2,4.2 0 0 1 237.8,368.4469" fill="#252327"/><text fill="#000000" font-family="sans-serif" font-size="12" lengthAdjust="spacing" textLength="60.1875" x="260.8145" y="383.4668">Validation</text><text fill="#000000" font-family="sans-serif" font-size="12" lengthAdjust="spacing" textLength="44.3496" x="233" y="397.4355">Service</text></g><!--entity SRV_Qr8St8--><g class="entity" data-entity="SRV_Qr8St8" data-source-line="24" data-uid="ent0014" id="entity_SRV_Qr8St8"><rect fill="#E0D8CC" height="57.9688" rx="2" ry="2" style="stroke:#8C7E6A;stroke-width:0.5;" width="107.0996" x="391.5" y="352.2969"/><path d="M406.3,368.4469 L417.1,368.4469 A4.2,4.2 0 0 1 417.1,380.1469 L406.3,380.1469 A4.2,4.2 0 0 1 406.3,368.4469" fill="#252327"/><text fill="#000000" font-family="sans-serif" font-size="12" lengthAdjust="spacing" textLength="59.2852" x="429.3145" y="383.4668">Discovery</text><text fill="#000000" font-family="sans-serif" font-size="12" lengthAdjust="spacing" textLength="44.3496" x="401.5" y="397.4355">Service</text></g><!--entity SRV_3I3Dtc--><g class="entity" data-entity="SRV_3I3Dtc" data-source-line="25" data-uid="ent0015" id="entity_SRV_3I3Dtc"><rect fill="#E0D8CC" height="57.9688" rx="2" ry="2" style="stroke:#8C7E6A;stroke-width:0.5;" width="99.6172" x="559" y="352.2969"/><path d="M573.8,368.4469 L584.6,368.4469 A4.2,4.2 0 0 1 584.6,380.1469 L573.8,380.1469 A4.2,4.2 0 0 1 573.8,368.4469" fill="#252327"/><text fill="#000000" font-family="sans-serif" font-size="12" lengthAdjust="spacing" textLength="51.8027" x="596.8145" y="383.4668">Indexing</text><text fill="#000000" font-family="sans-serif" font-size="12" lengthAdjust="spacing" textLength="44.3496" x="569" y="397.4355">Service</text></g><!--entity APP_kRZYOA--><g class="entity" data-entity="APP_kRZYOA" data-source-line="29" data-uid="ent0017" id="entity_APP_kRZYOA"><rect fill="#CCF2FF" height="44" rx="2" ry="2" style="stroke:#0078A0;stroke-width:0.5;" width="116.9492" x="23.5" y="490.2969"/><path d="M39.5,506.5969 L50.6,506.5969 L50.6,517.9969 L39.5,517.9969" fill="#252327"/><path d="M36.95,507.7219 L39.5,507.7219 L39.5,509.6719 L36.95,509.6719" fill="#252327"/><path d="M36.95,511.3219 L39.5,511.3219 L39.5,513.2719 L36.95,513.2719" fill="#252327"/><path d="M36.95,514.9219 L39.5,514.9219 L39.5,516.8719 L36.95,516.8719" fill="#252327"/><path d="M50.6,507.7219 L52.7,507.7219 L52.7,509.6719 L50.6,509.6719" fill="#252327"/><path d="M50.6,511.3219 L52.7,511.3219 L52.7,513.2719 L50.6,513.2719" fill="#252327"/><path d="M50.6,514.9219 L52.7,514.9219 L52.7,516.8719 L50.6,516.8719" fill="#252327"/><text fill="#000000" font-family="sans-serif" font-size="12" lengthAdjust="spacing" textLength="69.1348" x="61.3145" y="521.4668">MCP Server</text></g><!--entity APP_ca3vm7--><g class="entity" data-entity="APP_ca3vm7" data-source-line="30" data-uid="ent0018" id="entity_APP_ca3vm7"><rect fill="#CCF2FF" height="44" rx="2" ry="2" style="stroke:#0078A0;stroke-width:0.5;" width="131.3926" x="200.5" y="490.2969"/><path d="M216.5,506.5969 L227.6,506.5969 L227.6,517.9969 L216.5,517.9969" fill="#252327"/><path d="M213.95,507.7219 L216.5,507.7219 L216.5,509.6719 L213.95,509.6719" fill="#252327"/><path d="M213.95,511.3219 L216.5,511.3219 L216.5,513.2719 L213.95,513.2719" fill="#252327"/><path d="M213.95,514.9219 L216.5,514.9219 L216.5,516.8719 L213.95,516.8719" fill="#252327"/><path d="M227.6,507.7219 L229.7,507.7219 L229.7,509.6719 L227.6,509.6719" fill="#252327"/><path d="M227.6,511.3219 L229.7,511.3219 L229.7,513.2719 L227.6,513.2719" fill="#252327"/><path d="M227.6,514.9219 L229.7,514.9219 L229.7,516.8719 L227.6,516.8719" fill="#252327"/><text fill="#000000" font-family="sans-serif" font-size="12" lengthAdjust="spacing" textLength="83.5781" x="238.3145" y="521.4668">Model Verifier</text></g><!--entity APP_v9LvfK--><g class="entity" data-entity="APP_v9LvfK" data-source-line="31" data-uid="ent0019" id="entity_APP_v9LvfK"><rect fill="#CCF2FF" height="44" rx="2" ry="2" style="stroke:#0078A0;stroke-width:0.5;" width="129.2246" x="391.5" y="490.2969"/><path d="M407.5,506.5969 L418.6,506.5969 L418.6,517.9969 L407.5,517.9969" fill="#252327"/><path d="M404.95,507.7219 L407.5,507.7219 L407.5,509.6719 L404.95,509.6719" fill="#252327"/><path d="M404.95,511.3219 L407.5,511.3219 L407.5,513.2719 L404.95,513.2719" fill="#252327"/><path d="M404.95,514.9219 L407.5,514.9219 L407.5,516.8719 L404.95,516.8719" fill="#252327"/><path d="M418.6,507.7219 L420.7,507.7219 L420.7,509.6719 L418.6,509.6719" fill="#252327"/><path d="M418.6,511.3219 L420.7,511.3219 L420.7,513.2719 L418.6,513.2719" fill="#252327"/><path d="M418.6,514.9219 L420.7,514.9219 L420.7,516.8719 L418.6,516.8719" fill="#252327"/><text fill="#000000" font-family="sans-serif" font-size="12" lengthAdjust="spacing" textLength="81.4102" x="429.3145" y="521.4668">Query Engine</text></g><!--entity APP_JOmFWy--><g class="entity" data-entity="APP_JOmFWy" data-source-line="32" data-uid="ent0020" id="entity_APP_JOmFWy"><rect fill="#CCF2FF" height="44" rx="2" ry="2" style="stroke:#0078A0;stroke-width:0.5;" width="136.3613" x="581" y="490.2969"/><path d="M597,506.5969 L608.1,506.5969 L608.1,517.9969 L597,517.9969" fill="#252327"/><path d="M594.45,507.7219 L597,507.7219 L597,509.6719 L594.45,509.6719" fill="#252327"/><path d="M594.45,511.3219 L597,511.3219 L597,513.2719 L594.45,513.2719" fill="#252327"/><path d="M594.45,514.9219 L597,514.9219 L597,516.8719 L594.45,516.8719" fill="#252327"/><path d="M608.1,507.7219 L610.2,507.7219 L610.2,509.6719 L608.1,509.6719" fill="#252327"/><path d="M608.1,511.3219 L610.2,511.3219 L610.2,513.2719 L608.1,513.2719" fill="#252327"/><path d="M608.1,514.9219 L610.2,514.9219 L610.2,516.8719 L608.1,516.8719" fill="#252327"/><text fill="#000000" font-family="sans-serif" font-size="12" lengthAdjust="spacing" textLength="88.5469" x="618.8145" y="521.4668">SQLite Indexer</text></g><!--entity DOB_3rilik--><g class="entity" data-entity="DOB_3rilik" data-source-line="33" data-uid="ent0021" id="entity_DOB_3rilik"><rect fill="#CCF2FF" height="44" rx="2" ry="2" style="stroke:#0078A0;stroke-width:0.5;" width="124.0449" x="229" y="614.2969"/><path d="M243.5,629.9969 L258.5,629.9969 L258.5,631.9469 L243.5,631.9469" fill="#252327"/><path d="M243.5,640.6469 L258.5,640.6469 L258.5,642.5969 L243.5,642.5969" fill="#252327"/><path d="M243.5,631.9469 L243.5,640.6469 L245.45,640.6469 L245.45,631.9469" fill="#252327"/><path d="M256.55,631.9469 L256.55,640.6469 L258.5,640.6469 L258.5,631.9469" fill="#252327"/><path d="M243.5,631.7219 L258.5,631.7219 L258.5,633.6719 L243.5,633.6719" fill="#252327"/><text fill="#000000" font-family="sans-serif" font-size="12" lengthAdjust="spacing" textLength="76.2305" x="266.8145" y="645.4668">SQLite Index</text></g><!--entity SSW_o7a0ad--><g class="entity" data-entity="SSW_o7a0ad" data-source-line="37" data-uid="ent0023" id="entity_SSW_o7a0ad"><rect fill="#CCFFCC" height="44" rx="2" ry="2" style="stroke:#2E7D32;stroke-width:0.5;" width="129.998" x="440" y="738.2969"/><ellipse cx="460.8" cy="760.2969" fill="none" rx="4.95" ry="4.95" style="stroke:#252327;stroke-width:1.95;"/><ellipse cx="464.7" cy="761.4969" fill="none" rx="4.95" ry="4.95" style="stroke:#252327;stroke-width:1.95;"/><text fill="#000000" font-family="sans-serif" font-size="12" lengthAdjust="spacing" textLength="82.1836" x="477.8145" y="769.4668">Python 3.13+</text></g><!--entity NOD_4EFX7z--><g class="entity" data-entity="NOD_4EFX7z" data-source-line="38" data-uid="ent0024" id="entity_NOD_4EFX7z"><rect fill="#CCFFCC" height="57.9688" rx="2" ry="2" style="stroke:#2E7D32;stroke-width:0.5;" width="109.5313" x="450" y="943.2969"/><path d="M466,960.1969 L476.2,960.1969 L476.2,970.0969 L466,970.0969" fill="#252327"/><path d="M475.555,960.9169 L476.845,959.4769 L479.845,962.1769 L478.555,963.6169" fill="#252327"/><path d="M478.225,962.8969 L478.225,972.7969 L480.175,972.7969 L480.175,962.8969" fill="#252327"/><path d="M478.555,972.0769 L479.845,973.5169 L476.845,976.2169 L475.555,974.7769" fill="#252327"/><path d="M465.355,970.8169 L466.645,969.3769 L469.645,972.0769 L468.355,973.5169" fill="#252327"/><path d="M469,971.8219 L479.2,971.8219 L479.2,973.7719 L469,973.7719" fill="#252327"/><path d="M475.225,960.1969 L475.225,970.0969 L477.175,970.0969 L477.175,960.1969" fill="#252327"/><text fill="#000000" font-family="sans-serif" font-size="12" lengthAdjust="spacing" textLength="61.7168" x="487.8145" y="974.4668">Developer</text><text fill="#000000" font-family="sans-serif" font-size="12" lengthAdjust="spacing" textLength="72.3867" x="460" y="988.4355">Workstation</text></g><!--entity ART_YsLpM8--><g class="entity" data-entity="ART_YsLpM8" data-source-line="39" data-uid="ent0025" id="entity_ART_YsLpM8"><rect fill="#CCFFCC" height="44" rx="2" ry="2" style="stroke:#2E7D32;stroke-width:0.5;" width="133.3145" x="438.5" y="1162.2969"/><path d="M454.5,1177.5469 L463.2,1177.5469 L466.5,1180.8469 L466.5,1191.0469 L454.5,1191.0469" fill="#252327"/><path d="M462.225,1177.5469 L462.225,1180.8469 L464.175,1180.8469 L464.175,1177.5469" fill="#252327"/><path d="M463.2,1179.8719 L466.5,1179.8719 L466.5,1181.8219 L463.2,1181.8219" fill="#252327"/><text fill="#000000" font-family="sans-serif" font-size="12" lengthAdjust="spacing" textLength="85.5" x="476.3145" y="1193.4668">Git Repository</text></g><!--link GOL_Po1Qw3 to GOL_Zx9Cv4--><!--link GOL_Zx9Cv4 to GOL_e3nCpO--><!--link CAP_y4xZme to CAP_gky5s4--><!--link CAP_gky5s4 to CAP_ZnmAHe--><!--link CAP_ZnmAHe to CAP_QrHHmz--><!--link SRV_Au1Th1 to SRV_Ij6Kl6--><!--link SRV_Ij6Kl6 to SRV_Qr8St8--><!--link SRV_Qr8St8 to SRV_3I3Dtc--><!--link APP_kRZYOA to APP_ca3vm7--><!--link APP_ca3vm7 to APP_v9LvfK--><!--link APP_v9LvfK to APP_JOmFWy--><!--link APP_JOmFWy to DOB_3rilik--><!--link APP_JOmFWy to DOB_3rilik--><g class="link" data-entity-1="APP_JOmFWy" data-entity-2="DOB_3rilik" data-source-line="76" data-uid="lnk52" id="link_APP_JOmFWy_DOB_3rilik"><path d="M671.67,534.3869 C671.67,571.9669 671.67,644.2969 671.67,644.2969 C671.67,644.2969 466.87,644.2969 359.01,644.2969" fill="none" id="APP_JOmFWy-to-DOB_3rilik" style="stroke:#181818;stroke-width:1;"/><polygon fill="#181818" points="353.01,644.2969,362.01,648.2969,358.01,644.2969,362.01,640.2969,353.01,644.2969" style="stroke:#181818;stroke-width:1;"/><text fill="#000000" font-family="sans-serif" font-size="12" lengthAdjust="spacing" textLength="55.1191" x="511.29" y="641.4355">&#171;access&#187;</text></g><!--link SSW_o7a0ad to NOD_4EFX7z--><!--link SSW_o7a0ad to NOD_4EFX7z--><g class="link" data-entity-1="SSW_o7a0ad" data-entity-2="NOD_4EFX7z" data-source-line="81" data-uid="lnk55" id="link_SSW_o7a0ad_NOD_4EFX7z"><path d="M523.33,782.5869 C523.33,821.1769 523.33,894.4069 523.33,937.2569" fill="none" id="SSW_o7a0ad-to-NOD_4EFX7z" style="stroke:#2E7D32;stroke-width:1;"/><polygon fill="#2E7D32" points="523.33,943.2569,527.33,934.2569,523.33,938.2569,519.33,934.2569,523.33,943.2569" style="stroke:#2E7D32;stroke-width:1;"/><text fill="#000000" font-family="sans-serif" font-size="12" lengthAdjust="spacing" textLength="74.1563" x="448.33" y="860.0555">deployed on</text></g><!--link NOD_4EFX7z to ART_YsLpM8--><!--link ART_YsLpM8 to NOD_4EFX7z--><g class="link" data-entity-1="ART_YsLpM8" data-entity-2="NOD_4EFX7z" data-source-line="82" data-uid="lnk56" id="link_ART_YsLpM8_NOD_4EFX7z"><path d="M523.33,1162.0069 C523.33,1123.4169 523.33,1050.1869 523.33,1007.3369" fill="none" id="ART_YsLpM8-to-NOD_4EFX7z" style="stroke:#2E7D32;stroke-width:1;"/><polygon fill="#2E7D32" points="523.33,1001.3369,519.33,1010.3369,523.33,1006.3369,527.33,1010.3369,523.33,1001.3369" style="stroke:#2E7D32;stroke-width:1;"/><text fill="#000000" font-family="sans-serif" font-size="12" lengthAdjust="spacing" textLength="56.9941" x="466.33" y="1078.8155">stored on</text></g><!--link GOL_Po1Qw3 to CAP_y4xZme--><g class="link" data-entity-1="GOL_Po1Qw3" data-entity-2="CAP_y4xZme" data-source-line="60" data-uid="lnk40" id="link_GOL_Po1Qw3_CAP_y4xZme"><path d="M132.75,134.5669 C132.75,157.9869 132.75,172.6669 132.75,196.0769" fill="none" id="GOL_Po1Qw3-to-CAP_y4xZme" style="stroke:#7B3F9A;stroke-width:1;"/><polygon fill="none" points="132.75,214.0769,138.75,196.0769,126.75,196.0769,132.75,214.0769" style="stroke:#7B3F9A;stroke-width:1;"/><text fill="#000000" font-family="sans-serif" font-size="12" lengthAdjust="spacing" textLength="77.6602" x="54.75" y="171.4555">&#171;realization&#187;</text></g><!--link GOL_Po1Qw3 to CAP_gky5s4--><g class="link" data-entity-1="GOL_Po1Qw3" data-entity-2="CAP_gky5s4" data-source-line="61" data-uid="lnk41" id="link_GOL_Po1Qw3_CAP_gky5s4"><path d="M247,134.5669 C247,157.9869 247,172.6669 247,196.0769" fill="none" id="GOL_Po1Qw3-to-CAP_gky5s4" style="stroke:#7B3F9A;stroke-width:1;"/><polygon fill="none" points="247,214.0769,253,196.0769,241,196.0769,247,214.0769" style="stroke:#7B3F9A;stroke-width:1;"/><text fill="#000000" font-family="sans-serif" font-size="12" lengthAdjust="spacing" textLength="77.6602" x="169" y="171.4555">&#171;realization&#187;</text></g><!--link GOL_Zx9Cv4 to CAP_ZnmAHe--><g class="link" data-entity-1="GOL_Zx9Cv4" data-entity-2="CAP_ZnmAHe" data-source-line="62" data-uid="lnk42" id="link_GOL_Zx9Cv4_CAP_ZnmAHe"><path d="M420.75,134.5669 C420.75,157.9869 420.75,172.6669 420.75,196.0769" fill="none" id="GOL_Zx9Cv4-to-CAP_ZnmAHe" style="stroke:#7B3F9A;stroke-width:1;"/><polygon fill="none" points="420.75,214.0769,426.75,196.0769,414.75,196.0769,420.75,214.0769" style="stroke:#7B3F9A;stroke-width:1;"/><text fill="#000000" font-family="sans-serif" font-size="12" lengthAdjust="spacing" textLength="77.6602" x="342.75" y="171.4555">&#171;realization&#187;</text></g><!--link GOL_e3nCpO to CAP_QrHHmz--><g class="link" data-entity-1="GOL_e3nCpO" data-entity-2="CAP_QrHHmz" data-source-line="63" data-uid="lnk43" id="link_GOL_e3nCpO_CAP_QrHHmz"><path d="M596,134.5669 C596,157.9869 596,172.6669 596,196.0769" fill="none" id="GOL_e3nCpO-to-CAP_QrHHmz" style="stroke:#7B3F9A;stroke-width:1;"/><polygon fill="none" points="596,214.0769,602,196.0769,590,196.0769,596,214.0769" style="stroke:#7B3F9A;stroke-width:1;"/><text fill="#000000" font-family="sans-serif" font-size="12" lengthAdjust="spacing" textLength="77.6602" x="518" y="171.4555">&#171;realization&#187;</text></g><!--link CAP_y4xZme to SRV_Au1Th1--><g class="link" data-entity-1="CAP_y4xZme" data-entity-2="SRV_Au1Th1" data-source-line="66" data-uid="lnk44" id="link_CAP_y4xZme_SRV_Au1Th1"><path d="M109,272.5669 C109,295.9869 109,310.6669 109,334.0769" fill="none" id="CAP_y4xZme-to-SRV_Au1Th1" style="stroke:#8B6914;stroke-width:1;"/><polygon fill="none" points="109,352.0769,115,334.0769,103,334.0769,109,352.0769" style="stroke:#8B6914;stroke-width:1;"/><text fill="#000000" font-family="sans-serif" font-size="12" lengthAdjust="spacing" textLength="77.6602" x="31" y="309.4555">&#171;realization&#187;</text></g><!--link CAP_gky5s4 to SRV_Ij6Kl6--><g class="link" data-entity-1="CAP_gky5s4" data-entity-2="SRV_Ij6Kl6" data-source-line="67" data-uid="lnk45" id="link_CAP_gky5s4_SRV_Ij6Kl6"><path d="M276,272.5669 C276,295.9869 276,310.6669 276,334.0769" fill="none" id="CAP_gky5s4-to-SRV_Ij6Kl6" style="stroke:#8B6914;stroke-width:1;"/><polygon fill="none" points="276,352.0769,282,334.0769,270,334.0769,276,352.0769" style="stroke:#8B6914;stroke-width:1;"/><text fill="#000000" font-family="sans-serif" font-size="12" lengthAdjust="spacing" textLength="77.6602" x="198" y="309.4555">&#171;realization&#187;</text></g><!--link CAP_QrHHmz to SRV_Qr8St8--><g class="link" data-entity-1="CAP_QrHHmz" data-entity-2="SRV_Qr8St8" data-source-line="68" data-uid="lnk46" id="link_CAP_QrHHmz_SRV_Qr8St8"><path d="M549.89,253.2969 C522.97,253.2969 494.25,253.2969 494.25,253.2969 C494.25,253.2969 494.25,296.4869 494.25,334.2469" fill="none" id="CAP_QrHHmz-to-SRV_Qr8St8" style="stroke:#8B6914;stroke-width:1;"/><polygon fill="none" points="494.25,352.2469,500.25,334.2469,488.25,334.2469,494.25,352.2469" style="stroke:#8B6914;stroke-width:1;"/><text fill="#000000" font-family="sans-serif" font-size="12" lengthAdjust="spacing" textLength="77.6602" x="416.25" y="287.0955">&#171;realization&#187;</text></g><!--link CAP_QrHHmz to SRV_3I3Dtc--><g class="link" data-entity-1="CAP_QrHHmz" data-entity-2="SRV_3I3Dtc" data-source-line="69" data-uid="lnk47" id="link_CAP_QrHHmz_SRV_3I3Dtc"><path d="M600.5,272.5669 C600.5,295.9869 600.5,310.6669 600.5,334.0769" fill="none" id="CAP_QrHHmz-to-SRV_3I3Dtc" style="stroke:#8B6914;stroke-width:1;"/><polygon fill="none" points="600.5,352.0769,606.5,334.0769,594.5,334.0769,600.5,352.0769" style="stroke:#8B6914;stroke-width:1;"/><text fill="#000000" font-family="sans-serif" font-size="12" lengthAdjust="spacing" textLength="77.6602" x="522.5" y="309.4555">&#171;realization&#187;</text></g><!--link SRV_Au1Th1 to APP_kRZYOA--><g class="link" data-entity-1="SRV_Au1Th1" data-entity-2="APP_kRZYOA" data-source-line="72" data-uid="lnk48" id="link_SRV_Au1Th1_APP_kRZYOA"><path d="M98,410.3669 C98,434.4869 98,450.2769 98,472.2269" fill="none" id="SRV_Au1Th1-to-APP_kRZYOA" style="stroke:#B8860B;stroke-width:1;"/><polygon fill="none" points="98,490.2269,104,472.2269,92,472.2269,98,490.2269" style="stroke:#B8860B;stroke-width:1;"/><text fill="#000000" font-family="sans-serif" font-size="12" lengthAdjust="spacing" textLength="77.6602" x="20" y="447.4355">&#171;realization&#187;</text></g><!--link SRV_Ij6Kl6 to APP_ca3vm7--><g class="link" data-entity-1="SRV_Ij6Kl6" data-entity-2="APP_ca3vm7" data-source-line="73" data-uid="lnk49" id="link_SRV_Ij6Kl6_APP_ca3vm7"><path d="M277,410.3669 C277,434.4869 277,450.2769 277,472.2269" fill="none" id="SRV_Ij6Kl6-to-APP_ca3vm7" style="stroke:#B8860B;stroke-width:1;"/><polygon fill="none" points="277,490.2269,283,472.2269,271,472.2269,277,490.2269" style="stroke:#B8860B;stroke-width:1;"/><text fill="#000000" font-family="sans-serif" font-size="12" lengthAdjust="spacing" textLength="77.6602" x="199" y="447.4355">&#171;realization&#187;</text></g><!--link SRV_Qr8St8 to APP_v9LvfK--><g class="link" data-entity-1="SRV_Qr8St8" data-entity-2="APP_v9LvfK" data-source-line="74" data-uid="lnk50" id="link_SRV_Qr8St8_APP_v9LvfK"><path d="M445,410.3669 C445,434.4869 445,450.2769 445,472.2269" fill="none" id="SRV_Qr8St8-to-APP_v9LvfK" style="stroke:#B8860B;stroke-width:1;"/><polygon fill="none" points="445,490.2269,451,472.2269,439,472.2269,445,490.2269" style="stroke:#B8860B;stroke-width:1;"/><text fill="#000000" font-family="sans-serif" font-size="12" lengthAdjust="spacing" textLength="77.6602" x="367" y="447.4355">&#171;realization&#187;</text></g><!--link SRV_3I3Dtc to APP_JOmFWy--><g class="link" data-entity-1="SRV_3I3Dtc" data-entity-2="APP_JOmFWy" data-source-line="75" data-uid="lnk51" id="link_SRV_3I3Dtc_APP_JOmFWy"><path d="M620,410.3669 C620,434.4869 620,450.2769 620,472.2269" fill="none" id="SRV_3I3Dtc-to-APP_JOmFWy" style="stroke:#B8860B;stroke-width:1;"/><polygon fill="none" points="620,490.2269,626,472.2269,614,472.2269,620,490.2269" style="stroke:#B8860B;stroke-width:1;"/><text fill="#000000" font-family="sans-serif" font-size="12" lengthAdjust="spacing" textLength="77.6602" x="542" y="447.4355">&#171;realization&#187;</text></g><!--link APP_kRZYOA to SSW_o7a0ad--><g class="link" data-entity-1="APP_kRZYOA" data-entity-2="SSW_o7a0ad" data-source-line="79" data-uid="lnk53" id="link_APP_kRZYOA_SSW_o7a0ad"><path d="M82,534.5669 C82,596.8469 82,768.2969 82,768.2969 C82,768.2969 315.18,768.2969 433.83,768.2969" fill="none" id="APP_kRZYOA-to-SSW_o7a0ad" style="stroke:#0078A0;stroke-width:1;"/><polygon fill="#0078A0" points="439.83,768.2969,430.83,764.2969,434.83,768.2969,430.83,772.2969,439.83,768.2969" style="stroke:#0078A0;stroke-width:1;"/><text fill="#000000" font-family="sans-serif" font-size="12" lengthAdjust="spacing" textLength="45.1582" x="98.05" y="765.4355">runs on</text></g><!--link APP_ca3vm7 to SSW_o7a0ad--><g class="link" data-entity-1="APP_ca3vm7" data-entity-2="SSW_o7a0ad" data-source-line="80" data-uid="lnk54" id="link_APP_ca3vm7_SSW_o7a0ad"><path d="M214.75,534.5369 C214.75,594.1969 214.75,753.2969 214.75,753.2969 C214.75,753.2969 348.29,753.2969 433.86,753.2969" fill="none" id="APP_ca3vm7-to-SSW_o7a0ad" style="stroke:#0078A0;stroke-width:1;"/><polygon fill="#0078A0" points="439.86,753.2969,430.86,749.2969,434.86,753.2969,430.86,757.2969,439.86,753.2969" style="stroke:#0078A0;stroke-width:1;"/><text fill="#000000" font-family="sans-serif" font-size="12" lengthAdjust="spacing" textLength="45.1582" x="171.93" y="750.4355">runs on</text></g><!--SRC=[fLTjKziu4FwUNw6McpkOcwH9GqbWkCpa1G9NQ4B2m9LB9oDiOQkn9Oyi1qpRcNww7t1plx2_vAHOM3PM82dVrl4-pqgxp-uwhp2nlCX6e59vCuNCSh4FEIg77354UHoWi194lbTwPVPpl3XmbKk9qm1m2gufvzG7DcR8ufWIyG9p3u4kes5Oxb4VOW9627hu7ihtuCVt_y0fvNYUF7ANqSXnmJcoN48zwiIbagI2n14ihxNdQx2_hv_w0XLWuhHQu4i9W0nY_vVqmDC-XTwNq88U-gDMUVUj1Kx5QRWyKPUwuix4GXFoApXdq4Bm6dkOnpACX0bY68B-u6GwfBMps_eQGGu8l1PEO_6JD2PaXA8G5OclxdQxy-qrY8UCph6eIW_DaKS37n4-8Vq8sr1S16osZxUAGL2TT8D1wLikgsFEH01dSTa7UxMCTc6W4fKxMLiwS0696FGcv9JQo1DSabyZaaDrsyDfl7rtvQEreone9-H2YCbEDM7YTsRnkt1xRVuH2cY8EMMnI2kT8qPaOfS5kI9- -mZzHAeule6Mg5mFXvQC4Y-BSCQEZlpxHxNhKjyNVRFPGIwSOoholQXwylDgHHmZDiSMoXyhuYvb0ZeXwlL278cP76aykfYsezgvMrkFMjVhQUxZpplllPtrkDCSFarznffZtboF-fZOwExPXDIFwprkFQfHEmWyRAKIpJokLg0CGDGre4HqUhuJkaCWZuBO8_xKFJbXUpYSpaPN7mVjbmIJRGSk4CCtU9M05gpF_SOB0fv5eg1YZ3gOeEV3pNTFvZVlNn1kV7OYPbTIxrNkz-V0FxoCbmViGGu7rv_5owLXP13jbb3t1frfdOaHC7ka9hqQ9Km_hTZiiLZl_fZUy5l8yWeVngBd2QXNQlNV5-BEkIgDZo-dj06hq5uUueCGIBuhamM5s8HSKZOBUTeAqZKX_Z3eJRSF3lzgt3zHEZKhS-Hzp3EJUb4kvQPAD3gVVWnFWjEcpEDle5mko-b6onwCQSJtG1Wm16s0F2GtQ0XkCNV59u6ZqXbAH4blVb3-syMsZSWdXXsNbxExMvj6BxLyzSehU6MsbJQDNchTQDFefLQ67jK5hyoarQRHImrDRHgzr03KawRWbPa9sZHwgLRMfj5BzPys2rwPLjBwBNXb5AZDOaGj9wccpAVhZt_-1GzVJs0pY5ZWeQsyS3OQdVhXRlkJJMz9-Mihy_43zeHmcVukRhMUHofrc96f34r8fHWpCb7f4cGYA0DIv2AzlCp4mtU93TaCEDIpj_AwtsXsTdPhsobvHg95ybmlc91AjcQaEhCPgQJy4yX4wUPKgDlBH6IM1zXC4f5hnurEixbJxQJKcSufKkTQr8HKtMH6fcrhGgeECoFLNSr8rNL5PBOb5u1MfXKN_j2oK1WcESicIYPERpQmoGKlU2DcCa9aApzSDghLHhDTJKua8cGwV0-mY8H0_0lD3PgL4Bb1iV7seD6hlqqHcVcm1smKU3H6zY9EEXsUGuLYMoMO_m40]--></g></svg>