<svg xmlns="http://www.w3.org/2000/svg" xmlns:xlink="http://www.w3.org/1999/xlink" contentStyleType="text/css" data-diagram-type="DESCRIPTION" height="909px" preserveAspectRatio="none" style="width:773px;height:909px;background:#FFFFFF;" version="1.1" viewBox="0 0 773 909" width="773px" zoomAndPan="magnify"><?plantuml 1.2026.3?><defs/><g><g class="title" data-source-line="37"><text fill="#000000" font-family="sans-serif" font-size="14" font-weight="700" lengthAdjust="spacing" textLength="183.7363" x="291.3022" y="22.9951">AMP &#8212; System Context</text></g><!--entity APP_hkrdtm--><g class="entity" data-qualified-name="APP_hkrdtm" data-source-line="39" id="ent0002"><rect fill="#1168BD" height="68.8906" rx="6" ry="6" style="stroke:#0B4884;stroke-width:0.5;" width="202.998" x="276" y="490.2969"/><text fill="#FFFFFF" font-family="sans-serif" font-size="14" font-style="italic" lengthAdjust="spacing" textLength="88.1699" x="333.4141" y="513.292">&#171;C4System&#187;</text><text fill="#FFFFFF" font-family="sans-serif" font-size="14" lengthAdjust="spacing" textLength="86.3242" x="286" y="529.5889">Architecture</text><text fill="#FFFFFF" font-family="sans-serif" font-size="14" lengthAdjust="spacing" textLength="4.4502" x="372.3242" y="529.5889">&#160;</text><text fill="#FFFFFF" font-family="sans-serif" font-size="14" lengthAdjust="spacing" textLength="92.2236" x="376.7744" y="529.5889">Management</text><text fill="#FFFFFF" font-family="sans-serif" font-size="14" lengthAdjust="spacing" textLength="59.2881" x="347.855" y="545.8857">Platform</text></g><!--entity ACT_Nn7Oo7--><g class="entity" data-qualified-name="ACT_Nn7Oo7" data-source-line="41" id="ent0003"><ellipse cx="111.041" cy="51.2969" fill="#08427B" rx="8" ry="8" style="stroke:#052E56;stroke-width:0.5;"/><path d="M111.041,59.2969 L111.041,86.2969 M98.041,67.2969 L124.041,67.2969 M111.041,86.2969 L98.041,101.2969 M111.041,86.2969 L124.041,101.2969" fill="none" style="stroke:#052E56;stroke-width:0.5;"/><text fill="#FFFFFF" font-family="sans-serif" font-size="14" lengthAdjust="spacing" textLength="63.082" x="79.5" y="115.792">Architect</text></g><!--entity ACT_OLWiNc--><g class="entity" data-qualified-name="ACT_OLWiNc" data-source-line="42" id="ent0004"><ellipse cx="110.8398" cy="162.2969" fill="#08427B" rx="8" ry="8" style="stroke:#052E56;stroke-width:0.5;"/><path d="M110.8398,170.2969 L110.8398,197.2969 M97.8398,178.2969 L123.8398,178.2969 M110.8398,197.2969 L97.8398,212.2969 M110.8398,197.2969 L123.8398,212.2969" fill="none" style="stroke:#052E56;stroke-width:0.5;"/><text fill="#FFFFFF" font-family="sans-serif" font-size="14" lengthAdjust="spacing" textLength="54.8789" x="50" y="226.792">DevOps</text><text fill="#FFFFFF" font-family="sans-serif" font-size="14" lengthAdjust="spacing" textLength="4.4502" x="104.8789" y="226.792">&#160;</text><text fill="#FFFFFF" font-family="sans-serif" font-size="14" lengthAdjust="spacing" textLength="62.3506" x="109.3291" y="226.792">Engineer</text></g><!--entity ACT_Pp8Qq8--><g class="entity" data-qualified-name="ACT_Pp8Qq8" data-source-line="43" id="ent0005"><ellipse cx="111.0015" cy="273.2969" fill="#08427B" rx="8" ry="8" style="stroke:#052E56;stroke-width:0.5;"/><path d="M111.0015,281.2969 L111.0015,308.2969 M98.0015,289.2969 L124.0015,289.2969 M111.0015,308.2969 L98.0015,323.2969 M111.0015,308.2969 L124.0015,323.2969" fill="none" style="stroke:#052E56;stroke-width:0.5;"/><text fill="#FFFFFF" font-family="sans-serif" font-size="14" lengthAdjust="spacing" textLength="72.0029" x="75" y="337.792">Developer</text></g><!--entity ACT_Rr9Ss9--><g class="entity" data-qualified-name="ACT_Rr9Ss9" data-source-line="44" id="ent0006"><ellipse cx="110.936" cy="384.2969" fill="#08427B" rx="8" ry="8" style="stroke:#052E56;stroke-width:0.5;"/><path d="M110.936,392.2969 L110.936,419.2969 M97.936,400.2969 L123.936,400.2969 M110.936,419.2969 L97.936,434.2969 M110.936,419.2969 L123.936,434.2969" fill="none" style="stroke:#052E56;stroke-width:0.5;"/><text fill="#FFFFFF" font-family="sans-serif" font-size="14" lengthAdjust="spacing" textLength="53.71" x="59" y="448.792">Product</text><text fill="#FFFFFF" font-family="sans-serif" font-size="14" lengthAdjust="spacing" textLength="4.4502" x="112.71" y="448.792">&#160;</text><text fill="#FFFFFF" font-family="sans-serif" font-size="14" lengthAdjust="spacing" textLength="45.7119" x="117.1602" y="448.792">Owner</text></g><!--entity ACT_Ut1Vv1--><g class="entity" data-qualified-name="ACT_Ut1Vv1" data-source-line="45" id="ent0007"><ellipse cx="111.0889" cy="495.2969" fill="#08427B" rx="8" ry="8" style="stroke:#052E56;stroke-width:0.5;"/><path d="M111.0889,503.2969 L111.0889,530.2969 M98.0889,511.2969 L124.0889,511.2969 M111.0889,530.2969 L98.0889,545.2969 M111.0889,530.2969 L124.0889,545.2969" fill="none" style="stroke:#052E56;stroke-width:0.5;"/><text fill="#FFFFFF" font-family="sans-serif" font-size="14" lengthAdjust="spacing" textLength="42.3896" x="6" y="559.792">Upper</text><text fill="#FFFFFF" font-family="sans-serif" font-size="14" lengthAdjust="spacing" textLength="4.4502" x="48.3896" y="559.792">&#160;</text><text fill="#FFFFFF" font-family="sans-serif" font-size="14" lengthAdjust="spacing" textLength="66.6641" x="52.8398" y="559.792">Technical</text><text fill="#FFFFFF" font-family="sans-serif" font-size="14" lengthAdjust="spacing" textLength="4.4502" x="119.5039" y="559.792">&#160;</text><text fill="#FFFFFF" font-family="sans-serif" font-size="14" lengthAdjust="spacing" textLength="92.2236" x="123.9541" y="559.792">Management</text></g><!--entity APP_v6AXNw--><g class="entity" data-qualified-name="APP_v6AXNw" data-source-line="46" id="ent0008"><rect fill="#DDDDDD" height="52.5938" rx="6" ry="6" style="stroke:#777777;stroke-width:0.5;" width="116.2949" x="591" y="454.2969"/><text fill="#000000" font-family="sans-serif" font-size="14" font-style="italic" lengthAdjust="spacing" textLength="94.2949" x="602" y="477.292">&#171;C4External&#187;</text><text fill="#000000" font-family="sans-serif" font-size="14" lengthAdjust="spacing" textLength="13.7061" x="601.1865" y="493.5889">AI</text><text fill="#000000" font-family="sans-serif" font-size="14" lengthAdjust="spacing" textLength="4.4502" x="614.8926" y="493.5889">&#160;</text><text fill="#000000" font-family="sans-serif" font-size="14" lengthAdjust="spacing" textLength="41.4395" x="619.3428" y="493.5889">Agent</text><text fill="#000000" font-family="sans-serif" font-size="14" lengthAdjust="spacing" textLength="4.4502" x="660.7822" y="493.5889">&#160;</text><text fill="#000000" font-family="sans-serif" font-size="14" lengthAdjust="spacing" textLength="31.876" x="665.2324" y="493.5889">Host</text></g><!--entity APP_Je9pmw--><g class="entity" data-qualified-name="APP_Je9pmw" data-source-line="47" id="ent0009"><rect fill="#DDDDDD" height="52.5938" rx="6" ry="6" style="stroke:#777777;stroke-width:0.5;" width="116.2949" x="591" y="542.2969"/><text fill="#000000" font-family="sans-serif" font-size="14" font-style="italic" lengthAdjust="spacing" textLength="94.2949" x="602" y="565.292">&#171;C4External&#187;</text><text fill="#000000" font-family="sans-serif" font-size="14" lengthAdjust="spacing" textLength="20.2275" x="610.0459" y="581.5889">Git</text><text fill="#000000" font-family="sans-serif" font-size="14" lengthAdjust="spacing" textLength="4.4502" x="630.2734" y="581.5889">&#160;</text><text fill="#000000" font-family="sans-serif" font-size="14" lengthAdjust="spacing" textLength="53.5254" x="634.7236" y="581.5889">Hosting</text></g><!--entity APP_JqIBPJ--><g class="entity" data-qualified-name="APP_JqIBPJ" data-source-line="48" id="ent0010"><rect fill="#DDDDDD" height="52.5938" rx="6" ry="6" style="stroke:#777777;stroke-width:0.5;" width="220.3408" x="539" y="630.2969"/><text fill="#000000" font-family="sans-serif" font-size="14" font-style="italic" lengthAdjust="spacing" textLength="94.2949" x="602.0229" y="653.292">&#171;C4External&#187;</text><text fill="#000000" font-family="sans-serif" font-size="14" lengthAdjust="spacing" textLength="92.75" x="549" y="669.5889">Supply-Chain</text><text fill="#000000" font-family="sans-serif" font-size="14" lengthAdjust="spacing" textLength="4.4502" x="641.75" y="669.5889">&#160;</text><text fill="#000000" font-family="sans-serif" font-size="14" lengthAdjust="spacing" textLength="43.0049" x="646.2002" y="669.5889">Signal</text><text fill="#000000" font-family="sans-serif" font-size="14" lengthAdjust="spacing" textLength="4.4502" x="689.2051" y="669.5889">&#160;</text><text fill="#000000" font-family="sans-serif" font-size="14" lengthAdjust="spacing" textLength="55.6855" x="693.6553" y="669.5889">Sources</text></g><!--entity ROL_udXPfB--><g class="entity" data-qualified-name="ROL_udXPfB" data-source-line="49" id="ent0011"><ellipse cx="110.7979" cy="606.2969" fill="#08427B" rx="8" ry="8" style="stroke:#052E56;stroke-width:0.5;"/><path d="M110.7979,614.2969 L110.7979,641.2969 M97.7979,622.2969 L123.7979,622.2969 M110.7979,641.2969 L97.7979,656.2969 M110.7979,641.2969 L123.7979,656.2969" fill="none" style="stroke:#052E56;stroke-width:0.5;"/><text fill="#FFFFFF" font-family="sans-serif" font-size="14" lengthAdjust="spacing" textLength="13.7061" x="81" y="670.792">AI</text><text fill="#FFFFFF" font-family="sans-serif" font-size="14" lengthAdjust="spacing" textLength="4.4502" x="94.7061" y="670.792">&#160;</text><text fill="#FFFFFF" font-family="sans-serif" font-size="14" lengthAdjust="spacing" textLength="41.4395" x="99.1563" y="670.792">Agent</text></g><!--entity ROL_abNYhO--><g class="entity" data-qualified-name="ROL_abNYhO" data-source-line="50" id="ent0012"><ellipse cx="110.7632" cy="717.2969" fill="#08427B" rx="8" ry="8" style="stroke:#052E56;stroke-width:0.5;"/><path d="M110.7632,725.2969 L110.7632,752.2969 M97.7632,733.2969 L123.7632,733.2969 M110.7632,752.2969 L97.7632,767.2969 M110.7632,752.2969 L123.7632,767.2969" fill="none" style="stroke:#052E56;stroke-width:0.5;"/><text fill="#FFFFFF" font-family="sans-serif" font-size="14" lengthAdjust="spacing" textLength="29.0186" x="19.5" y="781.792">Risk</text><text fill="#FFFFFF" font-family="sans-serif" font-size="14" lengthAdjust="spacing" textLength="4.4502" x="48.5186" y="781.792">&#160;</text><text fill="#FFFFFF" font-family="sans-serif" font-size="14" lengthAdjust="spacing" textLength="10.917" x="52.9688" y="781.792">&amp;</text><text fill="#FFFFFF" font-family="sans-serif" font-size="14" lengthAdjust="spacing" textLength="4.4502" x="63.8857" y="781.792">&#160;</text><text fill="#FFFFFF" font-family="sans-serif" font-size="14" lengthAdjust="spacing" textLength="82.4072" x="68.3359" y="781.792">Compliance</text><text fill="#FFFFFF" font-family="sans-serif" font-size="14" lengthAdjust="spacing" textLength="4.4502" x="150.7432" y="781.792">&#160;</text><text fill="#FFFFFF" font-family="sans-serif" font-size="14" lengthAdjust="spacing" textLength="46.833" x="155.1934" y="781.792">Officer</text></g><!--entity ROL_yswDMB--><g class="entity" data-qualified-name="ROL_yswDMB" data-source-line="51" id="ent0013"><ellipse cx="111.1636" cy="828.2969" fill="#08427B" rx="8" ry="8" style="stroke:#052E56;stroke-width:0.5;"/><path d="M111.1636,836.2969 L111.1636,863.2969 M98.1636,844.2969 L124.1636,844.2969 M111.1636,863.2969 L98.1636,878.2969 M111.1636,863.2969 L124.1636,878.2969" fill="none" style="stroke:#052E56;stroke-width:0.5;"/><text fill="#FFFFFF" font-family="sans-serif" font-size="14" lengthAdjust="spacing" textLength="44.7822" x="25" y="892.792">Safety</text><text fill="#FFFFFF" font-family="sans-serif" font-size="14" lengthAdjust="spacing" textLength="4.4502" x="69.7822" y="892.792">&#160;</text><text fill="#FFFFFF" font-family="sans-serif" font-size="14" lengthAdjust="spacing" textLength="4.7168" x="74.2324" y="892.792">/</text><text fill="#FFFFFF" font-family="sans-serif" font-size="14" lengthAdjust="spacing" textLength="4.4502" x="78.9492" y="892.792">&#160;</text><text fill="#FFFFFF" font-family="sans-serif" font-size="14" lengthAdjust="spacing" textLength="57.4902" x="83.3994" y="892.792">Security</text><text fill="#FFFFFF" font-family="sans-serif" font-size="14" lengthAdjust="spacing" textLength="4.4502" x="140.8896" y="892.792">&#160;</text><text fill="#FFFFFF" font-family="sans-serif" font-size="14" lengthAdjust="spacing" textLength="51.9873" x="145.3398" y="892.792">Analyst</text></g><!--link ACT_Nn7Oo7 to ACT_OLWiNc--><!--link ACT_OLWiNc to ACT_Pp8Qq8--><!--link ACT_Pp8Qq8 to ACT_Rr9Ss9--><!--link ACT_Rr9Ss9 to ACT_Ut1Vv1--><!--link ACT_Ut1Vv1 to ROL_udXPfB--><!--link ROL_udXPfB to ROL_abNYhO--><!--link ROL_abNYhO to ROL_yswDMB--><!--link ROL_yswDMB to APP_hkrdtm--><!--link ROL_yswDMB to APP_hkrdtm--><g class="link" data-entity-1="ent0013" data-entity-2="ent0002" data-link-type="dependency" data-source-line="76" id="lnk35"><path d="M197.18,870.4669 C294.36,870.4669 439,870.4669 439,870.4669 C439,870.4669 439,653.1769 439,565.5269" fill="none" id="ROL_yswDMB-to-APP_hkrdtm" style="stroke:#181818;stroke-width:1;"/><polygon fill="#181818" points="439,559.5269,435,568.5269,439,564.5269,443,568.5269,439,559.5269" style="stroke:#181818;stroke-width:1;"/><text fill="#000000" font-family="sans-serif" font-size="13" lengthAdjust="spacing" textLength="29.7832" x="409" y="848.9738">uses</text></g><!--link APP_hkrdtm to APP_v6AXNw--><!--link APP_v6AXNw to APP_hkrdtm--><g class="link" data-entity-1="ent0008" data-entity-2="ent0002" data-link-type="dependency" data-source-line="71" id="lnk30"><path d="M590.76,495.9669 C558.27,495.9669 522.88,495.9669 485.22,495.9669" fill="none" id="APP_v6AXNw-to-APP_hkrdtm" style="stroke:#181818;stroke-width:1;"/><polygon fill="#181818" points="479.22,495.9669,488.22,499.9669,484.22,495.9669,488.22,491.9669,479.22,495.9669" style="stroke:#181818;stroke-width:1;"/><text fill="#000000" font-family="sans-serif" font-size="13" lengthAdjust="spacing" textLength="29.7832" x="504.99" y="509.0338">uses</text></g><!--link APP_v6AXNw to APP_Je9pmw--><!--link APP_Je9pmw to APP_JqIBPJ--><!--link ACT_Nn7Oo7 to APP_hkrdtm--><g class="link" data-entity-1="ent0003" data-entity-2="ent0002" data-link-type="dependency" data-source-line="66" id="lnk25"><path d="M142.75,80.7969 C225.06,80.7969 439,80.7969 439,80.7969 C439,80.7969 439,379.2869 439,483.9569" fill="none" id="ACT_Nn7Oo7-to-APP_hkrdtm" style="stroke:#181818;stroke-width:1;"/><polygon fill="#181818" points="439,489.9569,443,480.9569,439,484.9569,435,480.9569,439,489.9569" style="stroke:#181818;stroke-width:1;"/><text fill="#000000" font-family="sans-serif" font-size="13" lengthAdjust="spacing" textLength="29.7832" x="409" y="150.3138">uses</text></g><!--link ACT_OLWiNc to APP_hkrdtm--><g class="link" data-entity-1="ent0004" data-entity-2="ent0002" data-link-type="dependency" data-source-line="67" id="lnk26"><path d="M172.22,191.7969 C256.51,191.7969 398,191.7969 398,191.7969 C398,191.7969 398,398.8169 398,484.1069" fill="none" id="ACT_OLWiNc-to-APP_hkrdtm" style="stroke:#181818;stroke-width:1;"/><polygon fill="#181818" points="398,490.1069,402,481.1069,398,485.1069,394,481.1069,398,490.1069" style="stroke:#181818;stroke-width:1;"/><text fill="#000000" font-family="sans-serif" font-size="13" lengthAdjust="spacing" textLength="29.7832" x="368" y="241.1238">uses</text></g><!--link ACT_Pp8Qq8 to APP_hkrdtm--><g class="link" data-entity-1="ent0005" data-entity-2="ent0002" data-link-type="dependency" data-source-line="68" id="lnk27"><path d="M147.18,302.7969 C215.79,302.7969 358,302.7969 358,302.7969 C358,302.7969 358,421.6769 358,484.1069" fill="none" id="ACT_Pp8Qq8-to-APP_hkrdtm" style="stroke:#181818;stroke-width:1;"/><polygon fill="#181818" points="358,490.1069,362,481.1069,358,485.1069,354,481.1069,358,490.1069" style="stroke:#181818;stroke-width:1;"/><text fill="#000000" font-family="sans-serif" font-size="13" lengthAdjust="spacing" textLength="29.7832" x="316.25" y="315.8638">uses</text></g><!--link ACT_Rr9Ss9 to APP_hkrdtm--><g class="link" data-entity-1="ent0006" data-entity-2="ent0002" data-link-type="dependency" data-source-line="69" id="lnk28"><path d="M163.25,413.7969 C224.28,413.7969 317,413.7969 317,413.7969 C317,413.7969 317,451.6969 317,484.2869" fill="none" id="ACT_Rr9Ss9-to-APP_hkrdtm" style="stroke:#181818;stroke-width:1;"/><polygon fill="#181818" points="317,490.2869,321,481.2869,317,485.2869,313,481.2869,317,490.2869" style="stroke:#181818;stroke-width:1;"/><text fill="#000000" font-family="sans-serif" font-size="13" lengthAdjust="spacing" textLength="29.7832" x="248.37" y="426.8638">uses</text></g><!--link ACT_Ut1Vv1 to APP_hkrdtm--><g class="link" data-entity-1="ent0007" data-entity-2="ent0002" data-link-type="dependency" data-source-line="70" id="lnk29"><path d="M216.33,524.7969 C235.97,524.7969 250.46,524.7969 269.98,524.7969" fill="none" id="ACT_Ut1Vv1-to-APP_hkrdtm" style="stroke:#181818;stroke-width:1;"/><polygon fill="#181818" points="275.98,524.7969,266.98,520.7969,270.98,524.7969,266.98,528.7969,275.98,524.7969" style="stroke:#181818;stroke-width:1;"/><text fill="#000000" font-family="sans-serif" font-size="13" lengthAdjust="spacing" textLength="29.7832" x="216.15" y="537.8638">uses</text></g><!--link APP_hkrdtm to APP_Je9pmw--><g class="link" data-entity-1="ent0002" data-entity-2="ent0009" data-link-type="dependency" data-source-line="72" id="lnk31"><path d="M479.37,547.9669 C516.99,547.9669 552.31,547.9669 584.75,547.9669" fill="none" id="APP_hkrdtm-to-APP_Je9pmw" style="stroke:#181818;stroke-width:1;"/><polygon fill="#181818" points="590.75,547.9669,581.75,543.9669,585.75,547.9669,581.75,551.9669,590.75,547.9669" style="stroke:#181818;stroke-width:1;"/><text fill="#000000" font-family="sans-serif" font-size="13" lengthAdjust="spacing" textLength="29.7832" x="505.06" y="561.0338">uses</text></g><!--link APP_hkrdtm to APP_JqIBPJ--><g class="link" data-entity-1="ent0002" data-entity-2="ent0010" data-link-type="dependency" data-source-line="73" id="lnk32"><path d="M479.21,553.6269 C523.28,553.6269 565,553.6269 565,553.6269 C565,553.6269 565,593.6569 565,624.2269" fill="none" id="APP_hkrdtm-to-APP_JqIBPJ" style="stroke:#181818;stroke-width:1;"/><polygon fill="#181818" points="565,630.2269,569,621.2269,565,625.2269,561,621.2269,565,630.2269" style="stroke:#181818;stroke-width:1;"/><text fill="#000000" font-family="sans-serif" font-size="13" lengthAdjust="spacing" textLength="29.7832" x="561.4" y="549.6938">uses</text></g><!--link ROL_udXPfB to APP_hkrdtm--><g class="link" data-entity-1="ent0011" data-entity-2="ent0002" data-link-type="dependency" data-source-line="74" id="lnk33"><path d="M141.4,614.0469 C198.7,614.0469 317,614.0469 317,614.0469 C317,614.0469 317,590.4169 317,565.3069" fill="none" id="ROL_udXPfB-to-APP_hkrdtm" style="stroke:#181818;stroke-width:1;"/><polygon fill="#181818" points="317,559.3069,313,568.3069,317,564.3069,321,568.3069,317,559.3069" style="stroke:#181818;stroke-width:1;"/><text fill="#000000" font-family="sans-serif" font-size="13" lengthAdjust="spacing" textLength="29.7832" x="226.57" y="627.1138">uses</text></g><!--link ROL_abNYhO to APP_hkrdtm--><g class="link" data-entity-1="ent0012" data-entity-2="ent0002" data-link-type="dependency" data-source-line="75" id="lnk34"><path d="M202.62,746.7969 C272.92,746.7969 358,746.7969 358,746.7969 C358,746.7969 358,627.9169 358,565.4869" fill="none" id="ROL_abNYhO-to-APP_hkrdtm" style="stroke:#181818;stroke-width:1;"/><polygon fill="#181818" points="358,559.4869,354,568.4869,358,564.4869,362,568.4869,358,559.4869" style="stroke:#181818;stroke-width:1;"/><text fill="#000000" font-family="sans-serif" font-size="13" lengthAdjust="spacing" textLength="29.7832" x="328" y="743.8938">uses</text></g><?plantuml-src bPJVRfim5CRlUOgZJjfTj2JB7p9LbPAqsrej2GljsccQAWSRi08sjKtJR9gqXzWJxabc20GdXKdb0Xtv_8u_-tm78k8hK1m43K85c0hYASgP9TUK9KYW66I8CDzG5e2F8acCJ4GPKTk401Sgv4O24n-baRecJseSqO35X2dmz8i8Wze8bDnIh4Bezjh6UeoUPaHA512N_Y17oUnyY0KHWPyMm9Ad34-vO4H0fwiN78HnTjHEs_fbL25FSP5NJ92t3iIkBD9hhzfshpjSPHakC17bQhzB-WEz-fupjLlRX5IHWrttPpazdVRShLGaFZkhL-bq1lOAFrDPzMoxznALgGQHRhje4kgzjJ7k7mjr_G56WvS9nGbdsh8c8Rk_MldjOw4-6TcUVI2qYdHfiz35avuAXg8c7Pm_nph3_AdLiHHLUZp6CmV-_lu3EryWQvmUHykg1kXaBBoi2PvA1O4POdhYyabr8gHyBk8JE30MIHWxpdsu5bZ5bhMRgMgJanoONj_FsN31XsN-d3mk4WaNBD2s4R6d5fzkwTmpA1BnnCWxYVtvmIxpZk0uzHGiDinWbcBaob79t2Iw7gw95pBgeSYuqRxWHdM-F7OEUd09uo2xz4SkrUx2XYF5bHy7uxlvnYpxG7SL-bjhAheYeoG-A7BJ98cshMce9nXS_L_GXtHvAZmY6pTvk9muL_jU5uVDxxDSVBfFyPtZJyhqaierl8PiT2EAc4TWuVlKAngMyMWr_nekIjv5llv_mHjmYPSAgiEn5j_AQl-jt9pF9fPLsGgjRo75cB3l-H-pPNfPXRLKuMWLrbA5frLOInL6Lk4pocXF5TPIHLEgi9OgMb65pyzLVHnLM4iLyrI5jLGnG5LOJ-qcvD2Zrfbn6dW7gIJom9v6e7Ic4IXDQGHAF-e1uygDGDcv0YWk_nyWRq49c6xNIfX6DmAbntN0Fm00?></g></svg>