<svg xmlns="http://www.w3.org/2000/svg" xmlns:xlink="http://www.w3.org/1999/xlink" contentStyleType="text/css" data-diagram-type="DESCRIPTION" height="818px" preserveAspectRatio="none" style="width:588px;height:818px;background:#FAFAFA;" version="1.1" viewBox="0 0 588 818" width="588px" zoomAndPan="magnify"><title>Drivers and Assessments</title><defs/><g><rect fill="#FAFAFA" height="818" style="stroke:none;stroke-width:1;" width="588" x="0" y="0"/><text fill="#000000" font-family="sans-serif" font-size="14" font-weight="bold" lengthAdjust="spacing" textLength="199.1035" x="187.6055" y="22.9951">Drivers and Assessments</text><!--cluster Drivers--><g class="cluster" data-entity="Drivers" data-source-line="7" data-uid="ent0002" id="cluster_Drivers"><rect fill="#F7EEF9" height="216" rx="2" ry="2" style="stroke:#7B3F9A;stroke-width:1;" width="444" x="129" y="44.2969"/><text fill="#000000" font-family="sans-serif" font-size="12" font-weight="bold" lengthAdjust="spacing" textLength="49.0137" x="326.4932" y="57.4355">Drivers</text></g><!--cluster Assessments--><g class="cluster" data-entity="Assessments" data-source-line="13" data-uid="ent0006" id="cluster_Assessments"><rect fill="#F7EEF9" height="520" rx="2" ry="2" style="stroke:#7B3F9A;stroke-width:1;" width="444" x="7" y="292.2969"/><text fill="#000000" font-family="sans-serif" font-size="12" font-weight="bold" lengthAdjust="spacing" textLength="88.0605" x="184.9697" y="305.4355">Assessments</text></g><!--entity DRV_GR9prv--><g class="entity" data-entity="DRV_GR9prv" data-source-line="8" data-uid="ent0003" id="entity_DRV_GR9prv"><rect fill="#EDD6F0" height="44" rx="2" ry="2" style="stroke:#7B3F9A;stroke-width:0.5;" width="383.2461" x="159.5" y="76.2969"/><ellipse cx="181.5" cy="98.2969" fill="none" rx="6.9" ry="6.9" style="stroke:#252327;stroke-width:1.95;"/><ellipse cx="181.5" cy="98.2969" fill="none" rx="2.55" ry="2.55" style="stroke:#252327;stroke-width:1.95;"/><path d="M180.525,89.7469 L180.525,94.2469 L182.475,94.2469 L182.475,89.7469" fill="#252327"/><path d="M180.525,102.3469 L180.525,106.8469 L182.475,106.8469 L182.475,102.3469" fill="#252327"/><path d="M172.95,97.3219 L177.45,97.3219 L177.45,99.2719 L172.95,99.2719" fill="#252327"/><path d="M185.55,97.3219 L190.05,97.3219 L190.05,99.2719 L185.55,99.2719" fill="#252327"/><path d="M174.81,92.9869 L176.19,91.6069 L179.34,94.7569 L177.96,96.1369" fill="#252327"/><path d="M183.66,101.8369 L185.04,100.4569 L188.19,103.6069 L186.81,104.9869" fill="#252327"/><path d="M186.81,91.6069 L188.19,92.9869 L185.04,96.1369 L183.66,94.7569" fill="#252327"/><path d="M177.96,100.4569 L179.34,101.8369 L176.19,104.9869 L174.81,103.6069" fill="#252327"/><text fill="#000000" font-family="sans-serif" font-size="12" lengthAdjust="spacing" textLength="3.8145" x="193.5" y="107.4668">&#160;</text><text fill="#000000" font-family="sans-serif" font-size="12" lengthAdjust="spacing" textLength="66.082" x="197.3145" y="107.4668">AI-Assisted</text><text fill="#000000" font-family="sans-serif" font-size="12" lengthAdjust="spacing" textLength="3.8145" x="263.3965" y="107.4668">&#160;</text><text fill="#000000" font-family="sans-serif" font-size="12" lengthAdjust="spacing" textLength="80.7832" x="267.2109" y="107.4668">Development</text><text fill="#000000" font-family="sans-serif" font-size="12" lengthAdjust="spacing" textLength="3.8145" x="347.9941" y="107.4668">&#160;</text><text fill="#000000" font-family="sans-serif" font-size="12" lengthAdjust="spacing" textLength="13.6055" x="351.8086" y="107.4668">as</text><text fill="#000000" font-family="sans-serif" font-size="12" lengthAdjust="spacing" textLength="3.8145" x="365.4141" y="107.4668">&#160;</text><text fill="#000000" font-family="sans-serif" font-size="12" lengthAdjust="spacing" textLength="58.875" x="369.2285" y="107.4668">Dominant</text><text fill="#000000" font-family="sans-serif" font-size="12" lengthAdjust="spacing" textLength="3.8145" x="428.1035" y="107.4668">&#160;</text><text fill="#000000" font-family="sans-serif" font-size="12" lengthAdjust="spacing" textLength="64.3184" x="431.918" y="107.4668">Production</text><text fill="#000000" font-family="sans-serif" font-size="12" lengthAdjust="spacing" textLength="3.8145" x="496.2363" y="107.4668">&#160;</text><text fill="#000000" font-family="sans-serif" font-size="12" lengthAdjust="spacing" textLength="32.6953" x="500.0508" y="107.4668">Mode</text></g><!--entity DRV_Rt6Yu2--><g class="entity" data-entity="DRV_Rt6Yu2" data-source-line="9" data-uid="ent0004" id="entity_DRV_Rt6Yu2"><rect fill="#EDD6F0" height="44" rx="2" ry="2" style="stroke:#7B3F9A;stroke-width:0.5;" width="411.4824" x="145.5" y="200.2969"/><ellipse cx="167.5" cy="222.2969" fill="none" rx="6.9" ry="6.9" style="stroke:#252327;stroke-width:1.95;"/><ellipse cx="167.5" cy="222.2969" fill="none" rx="2.55" ry="2.55" style="stroke:#252327;stroke-width:1.95;"/><path d="M166.525,213.7469 L166.525,218.2469 L168.475,218.2469 L168.475,213.7469" fill="#252327"/><path d="M166.525,226.3469 L166.525,230.8469 L168.475,230.8469 L168.475,226.3469" fill="#252327"/><path d="M158.95,221.3219 L163.45,221.3219 L163.45,223.2719 L158.95,223.2719" fill="#252327"/><path d="M171.55,221.3219 L176.05,221.3219 L176.05,223.2719 L171.55,223.2719" fill="#252327"/><path d="M160.81,216.9869 L162.19,215.6069 L165.34,218.7569 L163.96,220.1369" fill="#252327"/><path d="M169.66,225.8369 L171.04,224.4569 L174.19,227.6069 L172.81,228.9869" fill="#252327"/><path d="M172.81,215.6069 L174.19,216.9869 L171.04,220.1369 L169.66,218.7569" fill="#252327"/><path d="M163.96,224.4569 L165.34,225.8369 L162.19,228.9869 L160.81,227.6069" fill="#252327"/><text fill="#000000" font-family="sans-serif" font-size="12" lengthAdjust="spacing" textLength="3.8145" x="179.5" y="231.4668">&#160;</text><text fill="#000000" font-family="sans-serif" font-size="12" lengthAdjust="spacing" textLength="62.2207" x="183.3145" y="231.4668">Increasing</text><text fill="#000000" font-family="sans-serif" font-size="12" lengthAdjust="spacing" textLength="3.8145" x="245.5352" y="231.4668">&#160;</text><text fill="#000000" font-family="sans-serif" font-size="12" lengthAdjust="spacing" textLength="50.8887" x="249.3496" y="231.4668">Demand</text><text fill="#000000" font-family="sans-serif" font-size="12" lengthAdjust="spacing" textLength="3.8145" x="300.2383" y="231.4668">&#160;</text><text fill="#000000" font-family="sans-serif" font-size="12" lengthAdjust="spacing" textLength="16.5" x="304.0527" y="231.4668">for</text><text fill="#000000" font-family="sans-serif" font-size="12" lengthAdjust="spacing" textLength="3.8145" x="320.5527" y="231.4668">&#160;</text><text fill="#000000" font-family="sans-serif" font-size="12" lengthAdjust="spacing" textLength="30.0117" x="324.3672" y="231.4668">More</text><text fill="#000000" font-family="sans-serif" font-size="12" lengthAdjust="spacing" textLength="3.8145" x="354.3789" y="231.4668">&#160;</text><text fill="#000000" font-family="sans-serif" font-size="12" lengthAdjust="spacing" textLength="61.5996" x="358.1934" y="231.4668">Autonomy</text><text fill="#000000" font-family="sans-serif" font-size="12" lengthAdjust="spacing" textLength="3.8145" x="419.793" y="231.4668">&#160;</text><text fill="#000000" font-family="sans-serif" font-size="12" lengthAdjust="spacing" textLength="11.5664" x="423.6074" y="231.4668">of</text><text fill="#000000" font-family="sans-serif" font-size="12" lengthAdjust="spacing" textLength="3.8145" x="435.1738" y="231.4668">&#160;</text><text fill="#000000" font-family="sans-serif" font-size="12" lengthAdjust="spacing" textLength="40.0078" x="438.9883" y="231.4668">Teams</text><text fill="#000000" font-family="sans-serif" font-size="12" lengthAdjust="spacing" textLength="3.8145" x="478.9961" y="231.4668">&#160;</text><text fill="#000000" font-family="sans-serif" font-size="12" lengthAdjust="spacing" textLength="9.3574" x="482.8105" y="231.4668">&amp;</text><text fill="#000000" font-family="sans-serif" font-size="12" lengthAdjust="spacing" textLength="3.8145" x="492.168" y="231.4668">&#160;</text><text fill="#000000" font-family="sans-serif" font-size="12" lengthAdjust="spacing" textLength="51" x="495.9824" y="231.4668">Systems</text></g><!--entity ASS_EI3FpR--><g class="entity" data-entity="ASS_EI3FpR" data-source-line="14" data-uid="ent0007" id="entity_ASS_EI3FpR"><rect fill="#EDD6F0" height="57.9688" rx="2" ry="2" style="stroke:#7B3F9A;stroke-width:0.5;" width="411.623" x="23" y="324.2969"/><path d="M36.75,338.7969 L53.25,338.7969 A1.5,1.5 0 0 1 54.75,340.2969 L54.75,349.2969 A1.5,1.5 0 0 1 53.25,350.7969 L42,350.7969 L39,355.2969 L40.5,350.7969 L36.75,350.7969 A1.5,1.5 0 0 1 35.25,349.2969 L35.25,340.2969 A1.5,1.5 0 0 1 36.75,338.7969" fill="#252327"/><text fill="#000000" font-family="sans-serif" font-size="12" lengthAdjust="spacing" textLength="3.8145" x="57" y="355.4668">&#160;</text><text fill="#000000" font-family="sans-serif" font-size="12" lengthAdjust="spacing" textLength="11.748" x="60.8145" y="355.4668">AI</text><text fill="#000000" font-family="sans-serif" font-size="12" lengthAdjust="spacing" textLength="3.8145" x="72.5625" y="355.4668">&#160;</text><text fill="#000000" font-family="sans-serif" font-size="12" lengthAdjust="spacing" textLength="30.7207" x="76.377" y="355.4668">Code</text><text fill="#000000" font-family="sans-serif" font-size="12" lengthAdjust="spacing" textLength="3.8145" x="107.0977" y="355.4668">&#160;</text><text fill="#000000" font-family="sans-serif" font-size="12" lengthAdjust="spacing" textLength="66.9434" x="110.9121" y="355.4668">Generation</text><text fill="#000000" font-family="sans-serif" font-size="12" lengthAdjust="spacing" textLength="3.8145" x="177.8555" y="355.4668">&#160;</text><text fill="#000000" font-family="sans-serif" font-size="12" lengthAdjust="spacing" textLength="45.5625" x="181.6699" y="355.4668">Volume</text><text fill="#000000" font-family="sans-serif" font-size="12" lengthAdjust="spacing" textLength="3.8145" x="227.2324" y="355.4668">&#160;</text><text fill="#000000" font-family="sans-serif" font-size="12" lengthAdjust="spacing" textLength="56.959" x="231.0469" y="355.4668">Outpaces</text><text fill="#000000" font-family="sans-serif" font-size="12" lengthAdjust="spacing" textLength="3.8145" x="288.0059" y="355.4668">&#160;</text><text fill="#000000" font-family="sans-serif" font-size="12" lengthAdjust="spacing" textLength="77.2969" x="291.8203" y="355.4668">Architectural</text><text fill="#000000" font-family="sans-serif" font-size="12" lengthAdjust="spacing" textLength="3.8145" x="369.1172" y="355.4668">&#160;</text><text fill="#000000" font-family="sans-serif" font-size="12" lengthAdjust="spacing" textLength="51.6914" x="372.9316" y="355.4668">Planning</text><text fill="#000000" font-family="sans-serif" font-size="12" lengthAdjust="spacing" textLength="22.5762" x="165.8115" y="369.4355">and</text><text fill="#000000" font-family="sans-serif" font-size="12" lengthAdjust="spacing" textLength="3.8145" x="188.3877" y="369.4355">&#160;</text><text fill="#000000" font-family="sans-serif" font-size="12" lengthAdjust="spacing" textLength="43.3535" x="192.2021" y="369.4355">Review</text><text fill="#000000" font-family="sans-serif" font-size="12" lengthAdjust="spacing" textLength="3.8145" x="235.5557" y="369.4355">&#160;</text><text fill="#000000" font-family="sans-serif" font-size="12" lengthAdjust="spacing" textLength="52.4414" x="239.3701" y="369.4355">Capacity</text></g><!--entity ASS_a6vxyj--><g class="entity" data-entity="ASS_a6vxyj" data-source-line="15" data-uid="ent0008" id="entity_ASS_a6vxyj"><rect fill="#EDD6F0" height="57.9688" rx="2" ry="2" style="stroke:#7B3F9A;stroke-width:0.5;" width="362.2285" x="68" y="462.2969"/><path d="M81.75,476.7969 L98.25,476.7969 A1.5,1.5 0 0 1 99.75,478.2969 L99.75,487.2969 A1.5,1.5 0 0 1 98.25,488.7969 L87,488.7969 L84,493.2969 L85.5,488.7969 L81.75,488.7969 A1.5,1.5 0 0 1 80.25,487.2969 L80.25,478.2969 A1.5,1.5 0 0 1 81.75,476.7969" fill="#252327"/><text fill="#000000" font-family="sans-serif" font-size="12" lengthAdjust="spacing" textLength="3.8145" x="102" y="493.4668">&#160;</text><text fill="#000000" font-family="sans-serif" font-size="12" lengthAdjust="spacing" textLength="68.3262" x="105.8145" y="493.4668">Centralized</text><text fill="#000000" font-family="sans-serif" font-size="12" lengthAdjust="spacing" textLength="3.8145" x="174.1406" y="493.4668">&#160;</text><text fill="#000000" font-family="sans-serif" font-size="12" lengthAdjust="spacing" textLength="72.6035" x="177.9551" y="493.4668">Governance</text><text fill="#000000" font-family="sans-serif" font-size="12" lengthAdjust="spacing" textLength="3.8145" x="250.5586" y="493.4668">&#160;</text><text fill="#000000" font-family="sans-serif" font-size="12" lengthAdjust="spacing" textLength="42.9902" x="254.373" y="493.4668">Cannot</text><text fill="#000000" font-family="sans-serif" font-size="12" lengthAdjust="spacing" textLength="3.8145" x="297.3633" y="493.4668">&#160;</text><text fill="#000000" font-family="sans-serif" font-size="12" lengthAdjust="spacing" textLength="32.2852" x="301.1777" y="493.4668">Scale</text><text fill="#000000" font-family="sans-serif" font-size="12" lengthAdjust="spacing" textLength="3.8145" x="333.4629" y="493.4668">&#160;</text><text fill="#000000" font-family="sans-serif" font-size="12" lengthAdjust="spacing" textLength="12.0469" x="337.2773" y="493.4668">to</text><text fill="#000000" font-family="sans-serif" font-size="12" lengthAdjust="spacing" textLength="3.8145" x="349.3242" y="493.4668">&#160;</text><text fill="#000000" font-family="sans-serif" font-size="12" lengthAdjust="spacing" textLength="67.0898" x="353.1387" y="493.4668">Concurrent</text><text fill="#000000" font-family="sans-serif" font-size="12" lengthAdjust="spacing" textLength="80.7832" x="180.0791" y="507.4355">Development</text><text fill="#000000" font-family="sans-serif" font-size="12" lengthAdjust="spacing" textLength="3.8145" x="260.8623" y="507.4355">&#160;</text><text fill="#000000" font-family="sans-serif" font-size="12" lengthAdjust="spacing" textLength="53.4727" x="264.6768" y="507.4355">Contexts</text></g><!--entity ASS_9YWsDh--><g class="entity" data-entity="ASS_9YWsDh" data-source-line="16" data-uid="ent0009" id="entity_ASS_9YWsDh"><rect fill="#EDD6F0" height="57.9688" rx="2" ry="2" style="stroke:#7B3F9A;stroke-width:0.5;" width="379.4961" x="55.5" y="600.2969"/><path d="M69.25,614.7969 L85.75,614.7969 A1.5,1.5 0 0 1 87.25,616.2969 L87.25,625.2969 A1.5,1.5 0 0 1 85.75,626.7969 L74.5,626.7969 L71.5,631.2969 L73,626.7969 L69.25,626.7969 A1.5,1.5 0 0 1 67.75,625.2969 L67.75,616.2969 A1.5,1.5 0 0 1 69.25,614.7969" fill="#252327"/><text fill="#000000" font-family="sans-serif" font-size="12" lengthAdjust="spacing" textLength="3.8145" x="89.5" y="631.4668">&#160;</text><text fill="#000000" font-family="sans-serif" font-size="12" lengthAdjust="spacing" textLength="44.1504" x="93.3145" y="631.4668">Implicit</text><text fill="#000000" font-family="sans-serif" font-size="12" lengthAdjust="spacing" textLength="3.8145" x="137.4648" y="631.4668">&#160;</text><text fill="#000000" font-family="sans-serif" font-size="12" lengthAdjust="spacing" textLength="44.748" x="141.2793" y="631.4668">System</text><text fill="#000000" font-family="sans-serif" font-size="12" lengthAdjust="spacing" textLength="3.8145" x="186.0273" y="631.4668">&#160;</text><text fill="#000000" font-family="sans-serif" font-size="12" lengthAdjust="spacing" textLength="111.9434" x="189.8418" y="631.4668">Interdependencies</text><text fill="#000000" font-family="sans-serif" font-size="12" lengthAdjust="spacing" textLength="3.8145" x="301.7852" y="631.4668">&#160;</text><text fill="#000000" font-family="sans-serif" font-size="12" lengthAdjust="spacing" textLength="20.5254" x="305.5996" y="631.4668">Are</text><text fill="#000000" font-family="sans-serif" font-size="12" lengthAdjust="spacing" textLength="3.8145" x="326.125" y="631.4668">&#160;</text><text fill="#000000" font-family="sans-serif" font-size="12" lengthAdjust="spacing" textLength="95.0566" x="329.9395" y="631.4668">Unmaintainable</text><text fill="#000000" font-family="sans-serif" font-size="12" lengthAdjust="spacing" textLength="47.1621" x="174.9092" y="645.4355">Without</text><text fill="#000000" font-family="sans-serif" font-size="12" lengthAdjust="spacing" textLength="3.8145" x="222.0713" y="645.4355">&#160;</text><text fill="#000000" font-family="sans-serif" font-size="12" lengthAdjust="spacing" textLength="43.6055" x="225.8857" y="645.4355">Explicit</text><text fill="#000000" font-family="sans-serif" font-size="12" lengthAdjust="spacing" textLength="3.8145" x="269.4912" y="645.4355">&#160;</text><text fill="#000000" font-family="sans-serif" font-size="12" lengthAdjust="spacing" textLength="42.2813" x="273.3057" y="645.4355">Models</text></g><!--entity ASS_s68vVo--><g class="entity" data-entity="ASS_s68vVo" data-source-line="17" data-uid="ent0010" id="entity_ASS_s68vVo"><rect fill="#EDD6F0" height="57.9688" rx="2" ry="2" style="stroke:#7B3F9A;stroke-width:0.5;" width="380.6563" x="54.5" y="738.2969"/><path d="M68.25,752.7969 L84.75,752.7969 A1.5,1.5 0 0 1 86.25,754.2969 L86.25,763.2969 A1.5,1.5 0 0 1 84.75,764.7969 L73.5,764.7969 L70.5,769.2969 L72,764.7969 L68.25,764.7969 A1.5,1.5 0 0 1 66.75,763.2969 L66.75,754.2969 A1.5,1.5 0 0 1 68.25,752.7969" fill="#252327"/><text fill="#000000" font-family="sans-serif" font-size="12" lengthAdjust="spacing" textLength="3.8145" x="88.5" y="769.4668">&#160;</text><text fill="#000000" font-family="sans-serif" font-size="12" lengthAdjust="spacing" textLength="64.8926" x="92.3145" y="769.4668">LLM-Based</text><text fill="#000000" font-family="sans-serif" font-size="12" lengthAdjust="spacing" textLength="3.8145" x="157.207" y="769.4668">&#160;</text><text fill="#000000" font-family="sans-serif" font-size="12" lengthAdjust="spacing" textLength="41.7715" x="161.0215" y="769.4668">Agents</text><text fill="#000000" font-family="sans-serif" font-size="12" lengthAdjust="spacing" textLength="3.8145" x="202.793" y="769.4668">&#160;</text><text fill="#000000" font-family="sans-serif" font-size="12" lengthAdjust="spacing" textLength="42.9902" x="206.6074" y="769.4668">Cannot</text><text fill="#000000" font-family="sans-serif" font-size="12" lengthAdjust="spacing" textLength="3.8145" x="249.5977" y="769.4668">&#160;</text><text fill="#000000" font-family="sans-serif" font-size="12" lengthAdjust="spacing" textLength="62.9707" x="253.4121" y="769.4668">Effectively</text><text fill="#000000" font-family="sans-serif" font-size="12" lengthAdjust="spacing" textLength="3.8145" x="316.3828" y="769.4668">&#160;</text><text fill="#000000" font-family="sans-serif" font-size="12" lengthAdjust="spacing" textLength="22.418" x="320.1973" y="769.4668">Use</text><text fill="#000000" font-family="sans-serif" font-size="12" lengthAdjust="spacing" textLength="3.8145" x="342.6152" y="769.4668">&#160;</text><text fill="#000000" font-family="sans-serif" font-size="12" lengthAdjust="spacing" textLength="78.7266" x="346.4297" y="769.4668">Unstructured</text><text fill="#000000" font-family="sans-serif" font-size="12" lengthAdjust="spacing" textLength="77.2969" x="171.29" y="783.4355">Architectural</text><text fill="#000000" font-family="sans-serif" font-size="12" lengthAdjust="spacing" textLength="3.8145" x="248.5869" y="783.4355">&#160;</text><text fill="#000000" font-family="sans-serif" font-size="12" lengthAdjust="spacing" textLength="65.9648" x="252.4014" y="783.4355">Knowledge</text></g><!--link DRV_GR9prv to DRV_Rt6Yu2--><!--link DRV_GR9prv to DRV_Rt6Yu2--><g class="link" data-entity-1="DRV_GR9prv" data-entity-2="DRV_Rt6Yu2" data-source-line="26" data-uid="lnk16" id="link_DRV_GR9prv_DRV_Rt6Yu2"><path d="M414.83,120.4669 C414.83,142.8969 414.83,177.3869 414.83,199.9069" fill="none" id="DRV_GR9prv-DRV_Rt6Yu2-1" style="stroke:#000000;stroke-width:2;"/><text fill="#000000" font-family="sans-serif" font-size="12" lengthAdjust="spacing" textLength="3.8145" x="410.83" y="157.3255">&#160;</text></g><!--link ASS_EI3FpR to ASS_a6vxyj--><!--link ASS_a6vxyj to ASS_9YWsDh--><!--link ASS_9YWsDh to ASS_s68vVo--><!--link DRV_Rt6Yu2 to ASS_EI3FpR--><!--link DRV_Rt6Yu2 to ASS_a6vxyj--><g class="link" data-entity-1="DRV_Rt6Yu2" data-entity-2="ASS_a6vxyj" data-source-line="25" data-uid="lnk15" id="link_DRV_Rt6Yu2_ASS_a6vxyj"><path d="M496,244.4669 C496,307.3369 496,482.2969 496,482.2969 C496,482.2969 473.64,482.2969 436.13,482.2969" fill="none" id="DRV_Rt6Yu2-to-ASS_a6vxyj" style="stroke:#000000;stroke-width:1;stroke-dasharray:7.0,7.0;"/><polygon fill="#000000" points="430.13,482.2969,439.13,486.2969,435.13,482.2969,439.13,478.2969,430.13,482.2969" style="stroke:#000000;stroke-width:1;"/><text fill="#000000" font-family="sans-serif" font-size="12" lengthAdjust="spacing" textLength="3.8145" x="492" y="393.4555">&#160;</text></g><!--link DRV_GR9prv to ASS_EI3FpR--><g class="link" data-entity-1="DRV_GR9prv" data-entity-2="ASS_EI3FpR" data-source-line="27" data-uid="lnk17" id="link_DRV_GR9prv_ASS_EI3FpR"><path d="M159.26,98.2969 C116.85,98.2969 84.25,98.2969 84.25,98.2969 C84.25,98.2969 84.25,251.0669 84.25,318.0469" fill="none" id="DRV_GR9prv-to-ASS_EI3FpR" style="stroke:#000000;stroke-width:1;stroke-dasharray:7.0,7.0;"/><polygon fill="#000000" points="84.25,324.0469,88.25,315.0469,84.25,319.0469,80.25,315.0469,84.25,324.0469" style="stroke:#000000;stroke-width:1;"/><text fill="#000000" font-family="sans-serif" font-size="12" lengthAdjust="spacing" textLength="3.8145" x="80.25" y="170.8055">&#160;</text></g><!--link DRV_GR9prv to ASS_a6vxyj--><g class="link" data-entity-1="DRV_GR9prv" data-entity-2="ASS_a6vxyj" data-source-line="28" data-uid="lnk18" id="link_DRV_GR9prv_ASS_a6vxyj"><path d="M542.7,106.2969 C558.46,106.2969 568.5,106.2969 568.5,106.2969 C568.5,106.2969 568.5,501.2969 568.5,501.2969 C568.5,501.2969 508.33,501.2969 436.22,501.2969" fill="none" id="DRV_GR9prv-to-ASS_a6vxyj" style="stroke:#000000;stroke-width:1;stroke-dasharray:7.0,7.0;"/><polygon fill="#000000" points="430.22,501.2969,439.22,505.2969,435.22,501.2969,439.22,497.2969,430.22,501.2969" style="stroke:#000000;stroke-width:1;"/><text fill="#000000" font-family="sans-serif" font-size="12" lengthAdjust="spacing" textLength="3.8145" x="564.5" y="357.1755">&#160;</text></g><!--link DRV_GR9prv to ASS_s68vVo--><g class="link" data-entity-1="DRV_GR9prv" data-entity-2="ASS_s68vVo" data-source-line="29" data-uid="lnk19" id="link_DRV_GR9prv_ASS_s68vVo"><path d="M542.6,91.2969 C565.25,91.2969 580.5,91.2969 580.5,91.2969 C580.5,91.2969 580.5,767.2969 580.5,767.2969 C580.5,767.2969 517.32,767.2969 441.78,767.2969" fill="none" id="DRV_GR9prv-to-ASS_s68vVo" style="stroke:#000000;stroke-width:1;stroke-dasharray:7.0,7.0;"/><polygon fill="#000000" points="435.78,767.2969,444.78,771.2969,440.78,767.2969,444.78,763.2969,435.78,767.2969" style="stroke:#000000;stroke-width:1;"/><text fill="#000000" font-family="sans-serif" font-size="12" lengthAdjust="spacing" textLength="3.8145" x="576.5" y="479.8455">&#160;</text></g><!--SRC=[dLJlYzf04FsUls8gfRs2MjfIwO4Lh5gHE-cXFO-Z5DbBHjsosGdx8sgF-zyxQxH93u_MVWWioTjvRzwyoJEfO-KJX6RpzLoOU2LJuR1X7HeajytGDZEVgYXob84Zk2FdA8L46eoT9CqVf5C8VIDpD1Q4Jg1hBLgRedOsYW9Ew2L3QdjC3ThjCJcPYr1WQCXdKYyx7RYF02hmzlFVUkR5rNiR2uKVtpJVFtIWEsemaMIb2VGnHqLPe0HXeK-fr8BFLuOIlzC9OqemC1ULc2tW9hFvS7AUcVmavf6E3GhBefau3Hqlo321GUXwHvhIBT02lg98BRo0wPOrflOO-SIrRltRw24gbK3Zsqec2UhlHYvNhb75LSsicFm_XfRN7vaAFJOAXgZHxCh1Z9HF4RvubuaOBNH33STLlH4AhfJGEZWHR9XWBd4DFS58wRP1LybJTDsTJkU3qRlFsUHaRJr-mPJo9mzyIEmZZpX6PjEQ74m3CYIqHphsneGeL6F1hnrk2hEEYHAjVBFzSRAeKPefoStkfypPuCr9C4FD8upbpY-4QvqAgHq_ueuBtqYt8kzWiDbV3k5KJqexlxsn_TN9qYulnurFmh9RtMM8oS6fmM8HTfUjsSAr3UAiCpxCCq3_cEw5fhN2P8bFIREj3_cCEC3bNCi09xJMZQgvvV4OQDzcUJm6sXEMIt4Cj0zOz39CNHS_AXjDKCr7Ug4y3uRtcj5dPPbwHMSTQhLNEpYtJB7SxS5PkQ9rgDuxO8-KFi1BJVyCVwpaB_32bWB-2m00]--></g></svg>