<svg xmlns="http://www.w3.org/2000/svg" xmlns:xlink="http://www.w3.org/1999/xlink" contentStyleType="text/css" data-diagram-type="DESCRIPTION" height="886px" preserveAspectRatio="none" style="width:1396px;height:886px;background:#FAFAFA;" version="1.1" viewBox="0 0 1396 886" width="1396px" zoomAndPan="magnify"><title>Drivers and Assessments</title><defs/><g><rect fill="#FAFAFA" height="886" style="stroke:none;stroke-width:1;" width="1396" x="0" y="0"/><text fill="#000000" font-family="sans-serif" font-size="14" font-weight="bold" lengthAdjust="spacing" textLength="199.1035" x="591.4482" y="22.9951">Drivers and Assessments</text><!--cluster Drivers--><g class="cluster" data-entity="Drivers" data-source-line="8" data-uid="ent0002" id="cluster_Drivers"><rect fill="#F7EEF9" height="340" rx="2" ry="2" style="stroke:#7B3F9A;stroke-width:1;" width="792" x="7" y="44.2969"/><text fill="#000000" font-family="sans-serif" font-size="12" font-weight="bold" lengthAdjust="spacing" textLength="49.0137" x="378.4932" y="57.4355">Drivers</text></g><!--cluster Assessments--><g class="cluster" data-entity="Assessments" data-source-line="18" data-uid="ent0010" id="cluster_Assessments"><rect fill="#F7EEF9" height="464" rx="2" ry="2" style="stroke:#7B3F9A;stroke-width:1;" width="574" x="816" y="416.2969"/><text fill="#000000" font-family="sans-serif" font-size="12" font-weight="bold" lengthAdjust="spacing" textLength="88.0605" x="1058.9697" y="429.4355">Assessments</text></g><!--entity DRV_CuhLPB--><g class="entity" data-entity="DRV_CuhLPB" data-source-line="9" data-uid="ent0003" id="entity_DRV_CuhLPB"><rect fill="#EDD6F0" height="44" rx="2" ry="2" style="stroke:#7B3F9A;stroke-width:0.5;" width="427.8711" x="355" y="76.2969"/><ellipse cx="377" cy="98.2969" fill="none" rx="6.9" ry="6.9" style="stroke:#252327;stroke-width:1.95;"/><ellipse cx="377" cy="98.2969" fill="none" rx="2.55" ry="2.55" style="stroke:#252327;stroke-width:1.95;"/><path d="M376.025,89.7469 L376.025,94.2469 L377.975,94.2469 L377.975,89.7469" fill="#252327"/><path d="M376.025,102.3469 L376.025,106.8469 L377.975,106.8469 L377.975,102.3469" fill="#252327"/><path d="M368.45,97.3219 L372.95,97.3219 L372.95,99.2719 L368.45,99.2719" fill="#252327"/><path d="M381.05,97.3219 L385.55,97.3219 L385.55,99.2719 L381.05,99.2719" fill="#252327"/><path d="M370.31,92.9869 L371.69,91.6069 L374.84,94.7569 L373.46,96.1369" fill="#252327"/><path d="M379.16,101.8369 L380.54,100.4569 L383.69,103.6069 L382.31,104.9869" fill="#252327"/><path d="M382.31,91.6069 L383.69,92.9869 L380.54,96.1369 L379.16,94.7569" fill="#252327"/><path d="M373.46,100.4569 L374.84,101.8369 L371.69,104.9869 L370.31,103.6069" fill="#252327"/><text fill="#000000" font-family="sans-serif" font-size="12" lengthAdjust="spacing" textLength="380.0566" x="392.8145" y="107.4668">Need to Balance Organizational Differentiation with Integration</text></g><!--entity DRV_GR9prv--><g class="entity" data-entity="DRV_GR9prv" data-source-line="10" data-uid="ent0004" id="entity_DRV_GR9prv"><rect fill="#EDD6F0" height="44" rx="2" ry="2" style="stroke:#7B3F9A;stroke-width:0.5;" width="383.2461" x="385.5" y="200.2969"/><ellipse cx="407.5" cy="222.2969" fill="none" rx="6.9" ry="6.9" style="stroke:#252327;stroke-width:1.95;"/><ellipse cx="407.5" cy="222.2969" fill="none" rx="2.55" ry="2.55" style="stroke:#252327;stroke-width:1.95;"/><path d="M406.525,213.7469 L406.525,218.2469 L408.475,218.2469 L408.475,213.7469" fill="#252327"/><path d="M406.525,226.3469 L406.525,230.8469 L408.475,230.8469 L408.475,226.3469" fill="#252327"/><path d="M398.95,221.3219 L403.45,221.3219 L403.45,223.2719 L398.95,223.2719" fill="#252327"/><path d="M411.55,221.3219 L416.05,221.3219 L416.05,223.2719 L411.55,223.2719" fill="#252327"/><path d="M400.81,216.9869 L402.19,215.6069 L405.34,218.7569 L403.96,220.1369" fill="#252327"/><path d="M409.66,225.8369 L411.04,224.4569 L414.19,227.6069 L412.81,228.9869" fill="#252327"/><path d="M412.81,215.6069 L414.19,216.9869 L411.04,220.1369 L409.66,218.7569" fill="#252327"/><path d="M403.96,224.4569 L405.34,225.8369 L402.19,228.9869 L400.81,227.6069" fill="#252327"/><text fill="#000000" font-family="sans-serif" font-size="12" lengthAdjust="spacing" textLength="335.4316" x="423.3145" y="231.4668">AI-Assisted Development as Dominant Production Mode</text></g><!--entity DRV_Rt6Yu2--><g class="entity" data-entity="DRV_Rt6Yu2" data-source-line="11" data-uid="ent0005" id="entity_DRV_Rt6Yu2"><rect fill="#EDD6F0" height="44" rx="2" ry="2" style="stroke:#7B3F9A;stroke-width:0.5;" width="411.4824" x="371.5" y="324.2969"/><ellipse cx="393.5" cy="346.2969" fill="none" rx="6.9" ry="6.9" style="stroke:#252327;stroke-width:1.95;"/><ellipse cx="393.5" cy="346.2969" fill="none" rx="2.55" ry="2.55" style="stroke:#252327;stroke-width:1.95;"/><path d="M392.525,337.7469 L392.525,342.2469 L394.475,342.2469 L394.475,337.7469" fill="#252327"/><path d="M392.525,350.3469 L392.525,354.8469 L394.475,354.8469 L394.475,350.3469" fill="#252327"/><path d="M384.95,345.3219 L389.45,345.3219 L389.45,347.2719 L384.95,347.2719" fill="#252327"/><path d="M397.55,345.3219 L402.05,345.3219 L402.05,347.2719 L397.55,347.2719" fill="#252327"/><path d="M386.81,340.9869 L388.19,339.6069 L391.34,342.7569 L389.96,344.1369" fill="#252327"/><path d="M395.66,349.8369 L397.04,348.4569 L400.19,351.6069 L398.81,352.9869" fill="#252327"/><path d="M398.81,339.6069 L400.19,340.9869 L397.04,344.1369 L395.66,342.7569" fill="#252327"/><path d="M389.96,348.4569 L391.34,349.8369 L388.19,352.9869 L386.81,351.6069" fill="#252327"/><text fill="#000000" font-family="sans-serif" font-size="12" lengthAdjust="spacing" textLength="363.668" x="409.3145" y="355.4668">Increasing Demand for More Autonomy of Teams &amp; Systems</text></g><!--entity DRV_Ui5Op3--><g class="entity" data-entity="DRV_Ui5Op3" data-source-line="12" data-uid="ent0006" id="entity_DRV_Ui5Op3"><rect fill="#EDD6F0" height="44" rx="2" ry="2" style="stroke:#7B3F9A;stroke-width:0.5;" width="288.6582" x="22.5" y="324.2969"/><ellipse cx="44.5" cy="346.2969" fill="none" rx="6.9" ry="6.9" style="stroke:#252327;stroke-width:1.95;"/><ellipse cx="44.5" cy="346.2969" fill="none" rx="2.55" ry="2.55" style="stroke:#252327;stroke-width:1.95;"/><path d="M43.525,337.7469 L43.525,342.2469 L45.475,342.2469 L45.475,337.7469" fill="#252327"/><path d="M43.525,350.3469 L43.525,354.8469 L45.475,354.8469 L45.475,350.3469" fill="#252327"/><path d="M35.95,345.3219 L40.45,345.3219 L40.45,347.2719 L35.95,347.2719" fill="#252327"/><path d="M48.55,345.3219 L53.05,345.3219 L53.05,347.2719 L48.55,347.2719" fill="#252327"/><path d="M37.81,340.9869 L39.19,339.6069 L42.34,342.7569 L40.96,344.1369" fill="#252327"/><path d="M46.66,349.8369 L48.04,348.4569 L51.19,351.6069 L49.81,352.9869" fill="#252327"/><path d="M49.81,339.6069 L51.19,340.9869 L48.04,344.1369 L46.66,342.7569" fill="#252327"/><path d="M40.96,348.4569 L42.34,349.8369 L39.19,352.9869 L37.81,351.6069" fill="#252327"/><text fill="#000000" font-family="sans-serif" font-size="12" lengthAdjust="spacing" textLength="240.8438" x="60.3145" y="355.4668">Rising Complexity and Interdependence</text></g><!--entity ASS_EI3FpR--><g class="entity" data-entity="ASS_EI3FpR" data-source-line="19" data-uid="ent0011" id="entity_ASS_EI3FpR"><rect fill="#EDD6F0" height="44" rx="2" ry="2" style="stroke:#7B3F9A;stroke-width:0.5;" width="541.4375" x="832.5" y="448.2969"/><path d="M846.25,462.7969 L862.75,462.7969 A1.5,1.5 0 0 1 864.25,464.2969 L864.25,473.2969 A1.5,1.5 0 0 1 862.75,474.7969 L851.5,474.7969 L848.5,479.2969 L850,474.7969 L846.25,474.7969 A1.5,1.5 0 0 1 844.75,473.2969 L844.75,464.2969 A1.5,1.5 0 0 1 846.25,462.7969" fill="#252327"/><text fill="#000000" font-family="sans-serif" font-size="12" lengthAdjust="spacing" textLength="493.623" x="870.3145" y="479.4668">AI Code Generation Volume Outpaces Architectural Planning and Review Capacity</text></g><!--entity ASS_s68vVo--><g class="entity" data-entity="ASS_s68vVo" data-source-line="20" data-uid="ent0012" id="entity_ASS_s68vVo"><rect fill="#EDD6F0" height="44" rx="2" ry="2" style="stroke:#7B3F9A;stroke-width:0.5;" width="531.5469" x="837" y="572.2969"/><path d="M850.75,586.7969 L867.25,586.7969 A1.5,1.5 0 0 1 868.75,588.2969 L868.75,597.2969 A1.5,1.5 0 0 1 867.25,598.7969 L856,598.7969 L853,603.2969 L854.5,598.7969 L850.75,598.7969 A1.5,1.5 0 0 1 849.25,597.2969 L849.25,588.2969 A1.5,1.5 0 0 1 850.75,586.7969" fill="#252327"/><text fill="#000000" font-family="sans-serif" font-size="12" lengthAdjust="spacing" textLength="483.7324" x="874.8145" y="603.4668">LLM-Based Agents Cannot Effectively Use Unstructured Architectural Knowledge</text></g><!--entity ASS_a6vxyj--><g class="entity" data-entity="ASS_a6vxyj" data-source-line="21" data-uid="ent0013" id="entity_ASS_a6vxyj"><rect fill="#EDD6F0" height="44" rx="2" ry="2" style="stroke:#7B3F9A;stroke-width:0.5;" width="504.1133" x="837" y="696.2969"/><path d="M850.75,710.7969 L867.25,710.7969 A1.5,1.5 0 0 1 868.75,712.2969 L868.75,721.2969 A1.5,1.5 0 0 1 867.25,722.7969 L856,722.7969 L853,727.2969 L854.5,722.7969 L850.75,722.7969 A1.5,1.5 0 0 1 849.25,721.2969 L849.25,712.2969 A1.5,1.5 0 0 1 850.75,710.7969" fill="#252327"/><text fill="#000000" font-family="sans-serif" font-size="12" lengthAdjust="spacing" textLength="456.2988" x="874.8145" y="727.4668">Centralized Governance Cannot Scale to Concurrent Development Contexts</text></g><!--entity ASS_9YWsDh--><g class="entity" data-entity="ASS_9YWsDh" data-source-line="22" data-uid="ent0014" id="entity_ASS_9YWsDh"><rect fill="#EDD6F0" height="44" rx="2" ry="2" style="stroke:#7B3F9A;stroke-width:0.5;" width="523.9883" x="832" y="820.2969"/><path d="M845.75,834.7969 L862.25,834.7969 A1.5,1.5 0 0 1 863.75,836.2969 L863.75,845.2969 A1.5,1.5 0 0 1 862.25,846.7969 L851,846.7969 L848,851.2969 L849.5,846.7969 L845.75,846.7969 A1.5,1.5 0 0 1 844.25,845.2969 L844.25,836.2969 A1.5,1.5 0 0 1 845.75,834.7969" fill="#252327"/><text fill="#000000" font-family="sans-serif" font-size="12" lengthAdjust="spacing" textLength="476.1738" x="869.8145" y="851.4668">Implicit System Interdependencies Are Unmaintainable Without Explicit Models</text></g><!--link DRV_CuhLPB to DRV_GR9prv--><!--link DRV_CuhLPB to DRV_GR9prv--><g class="link" data-entity-1="DRV_CuhLPB" data-entity-2="DRV_GR9prv" data-source-line="31" data-uid="lnk20" id="link_DRV_CuhLPB_DRV_GR9prv"><path d="M640.83,120.4669 C640.83,142.8969 640.83,177.3869 640.83,199.9069" fill="none" id="DRV_CuhLPB-DRV_GR9prv-1" style="stroke:#181818;stroke-width:1;"/><text fill="#000000" font-family="sans-serif" font-size="12" lengthAdjust="spacing" textLength="82.1543" x="557.83" y="157.3255">&#171;association&#187;</text></g><!--link DRV_GR9prv to DRV_Rt6Yu2--><!--link DRV_GR9prv to DRV_Rt6Yu2--><g class="link" data-entity-1="DRV_GR9prv" data-entity-2="DRV_Rt6Yu2" data-source-line="32" data-uid="lnk21" id="link_DRV_GR9prv_DRV_Rt6Yu2"><path d="M640.83,244.4669 C640.83,266.8969 640.83,301.3869 640.83,323.9069" fill="none" id="DRV_GR9prv-DRV_Rt6Yu2-1" style="stroke:#181818;stroke-width:1;"/><text fill="#000000" font-family="sans-serif" font-size="12" lengthAdjust="spacing" textLength="82.1543" x="557.83" y="281.3255">&#171;association&#187;</text></g><!--link DRV_Rt6Yu2 to DRV_Ui5Op3--><!--link ASS_EI3FpR to ASS_s68vVo--><!--link ASS_s68vVo to ASS_a6vxyj--><!--link ASS_a6vxyj to ASS_9YWsDh--><!--link DRV_Ui5Op3 to ASS_EI3FpR--><!--link DRV_CuhLPB to DRV_Ui5Op3--><g class="link" data-entity-1="DRV_CuhLPB" data-entity-2="DRV_Ui5Op3" data-source-line="30" data-uid="lnk19" id="link_DRV_CuhLPB_DRV_Ui5Op3"><path d="M363.25,120.5369 C363.25,180.1969 363.25,339.2969 363.25,339.2969 C363.25,339.2969 341.1,339.2969 311.69,339.2969" fill="none" id="DRV_CuhLPB-DRV_Ui5Op3" style="stroke:#181818;stroke-width:1;"/><text fill="#000000" font-family="sans-serif" font-size="12" lengthAdjust="spacing" textLength="82.1543" x="280.25" y="252.8355">&#171;association&#187;</text></g><!--link DRV_CuhLPB to ASS_EI3FpR--><g class="link" data-entity-1="DRV_CuhLPB" data-entity-2="ASS_EI3FpR" data-source-line="33" data-uid="lnk22" id="link_DRV_CuhLPB_ASS_EI3FpR"><path d="M783.37,98.2969 C963.98,98.2969 1193.17,98.2969 1193.17,98.2969 C1193.17,98.2969 1193.17,362.0569 1193.17,442.1369" fill="none" id="DRV_CuhLPB-to-ASS_EI3FpR" style="stroke:#181818;stroke-width:1;stroke-dasharray:7.0,7.0;"/><polygon fill="#181818" points="1193.17,448.1369,1197.17,439.1369,1193.17,443.1369,1189.17,439.1369,1193.17,448.1369" style="stroke:#181818;stroke-width:1;"/><text fill="#000000" font-family="sans-serif" font-size="12" lengthAdjust="spacing" textLength="69.7559" x="1093.19" y="95.4355">&#171;influence&#187;</text></g><!--link DRV_GR9prv to ASS_EI3FpR--><g class="link" data-entity-1="DRV_GR9prv" data-entity-2="ASS_EI3FpR" data-source-line="34" data-uid="lnk23" id="link_DRV_GR9prv_ASS_EI3FpR"><path d="M768.8,211.2969 C885.73,211.2969 1012.83,211.2969 1012.83,211.2969 C1012.83,211.2969 1012.83,379.5769 1012.83,442.2169" fill="none" id="DRV_GR9prv-to-ASS_EI3FpR" style="stroke:#181818;stroke-width:1;stroke-dasharray:7.0,7.0;"/><polygon fill="#181818" points="1012.83,448.2169,1016.83,439.2169,1012.83,443.2169,1008.83,439.2169,1012.83,448.2169" style="stroke:#181818;stroke-width:1;"/><text fill="#000000" font-family="sans-serif" font-size="12" lengthAdjust="spacing" textLength="69.7559" x="939.27" y="208.4355">&#171;influence&#187;</text></g><!--link DRV_GR9prv to ASS_s68vVo--><g class="link" data-entity-1="DRV_GR9prv" data-entity-2="ASS_s68vVo" data-source-line="35" data-uid="lnk24" id="link_DRV_GR9prv_ASS_s68vVo"><path d="M768.51,222.2969 C796.26,222.2969 815.67,222.2969 815.67,222.2969 C815.67,222.2969 815.67,594.2969 815.67,594.2969 C815.67,594.2969 817.59,594.2969 830.79,594.2969" fill="none" id="DRV_GR9prv-to-ASS_s68vVo" style="stroke:#181818;stroke-width:1;stroke-dasharray:7.0,7.0;"/><polygon fill="#181818" points="836.79,594.2969,827.79,590.2969,831.79,594.2969,827.79,598.2969,836.79,594.2969" style="stroke:#181818;stroke-width:1;"/><text fill="#000000" font-family="sans-serif" font-size="12" lengthAdjust="spacing" textLength="69.7559" x="745.67" y="392.4255">&#171;influence&#187;</text></g><!--link DRV_GR9prv to ASS_a6vxyj--><g class="link" data-entity-1="DRV_GR9prv" data-entity-2="ASS_a6vxyj" data-source-line="36" data-uid="lnk25" id="link_DRV_GR9prv_ASS_a6vxyj"><path d="M768.89,233.2969 C787.32,233.2969 799.33,233.2969 799.33,233.2969 C799.33,233.2969 799.33,711.2969 799.33,711.2969 C799.33,711.2969 808.07,711.2969 830.91,711.2969" fill="none" id="DRV_GR9prv-to-ASS_a6vxyj" style="stroke:#181818;stroke-width:1;stroke-dasharray:7.0,7.0;"/><polygon fill="#181818" points="836.91,711.2969,827.91,707.2969,831.91,711.2969,827.91,715.2969,836.91,711.2969" style="stroke:#181818;stroke-width:1;"/><text fill="#000000" font-family="sans-serif" font-size="12" lengthAdjust="spacing" textLength="69.7559" x="729.33" y="472.9955">&#171;influence&#187;</text></g><!--link DRV_Rt6Yu2 to ASS_a6vxyj--><g class="link" data-entity-1="DRV_Rt6Yu2" data-entity-2="ASS_a6vxyj" data-source-line="37" data-uid="lnk26" id="link_DRV_Rt6Yu2_ASS_a6vxyj"><path d="M577,368.3669 C577,449.4669 577,726.2969 577,726.2969 C577,726.2969 701.51,726.2969 830.75,726.2969" fill="none" id="DRV_Rt6Yu2-to-ASS_a6vxyj" style="stroke:#181818;stroke-width:1;stroke-dasharray:7.0,7.0;"/><polygon fill="#181818" points="836.75,726.2969,827.75,722.2969,831.75,726.2969,827.75,730.2969,836.75,726.2969" style="stroke:#181818;stroke-width:1;"/><text fill="#000000" font-family="sans-serif" font-size="12" lengthAdjust="spacing" textLength="69.7559" x="507" y="674.3455">&#171;influence&#187;</text></g><!--link DRV_Ui5Op3 to ASS_9YWsDh--><g class="link" data-entity-1="DRV_Ui5Op3" data-entity-2="ASS_9YWsDh" data-source-line="38" data-uid="lnk27" id="link_DRV_Ui5Op3_ASS_9YWsDh"><path d="M118.83,368.5769 C118.83,465.0869 118.83,842.2969 118.83,842.2969 C118.83,842.2969 536.87,842.2969 825.71,842.2969" fill="none" id="DRV_Ui5Op3-to-ASS_9YWsDh" style="stroke:#181818;stroke-width:1;stroke-dasharray:7.0,7.0;"/><polygon fill="#181818" points="831.71,842.2969,822.71,838.2969,826.71,842.2969,822.71,846.2969,831.71,842.2969" style="stroke:#181818;stroke-width:1;"/><text fill="#000000" font-family="sans-serif" font-size="12" lengthAdjust="spacing" textLength="69.7559" x="168.41" y="839.4355">&#171;influence&#187;</text></g><!--SRC=[dLHTQzj047pNhzY4qZxPfGq9JKaDZfqQqtnXDmcX57EHrj8LwKxSXsmbvBztJxfMSggKE0-6GvxRdPsTkHqkmjH62Ft- -mLJOS8pPh2d3IgKfinHztERfS5EDovEoppnaC3878o4EscCp23Y2aF3fQ0_k4aHneeNg3Gm4S5GQzGwGs5q43WS4p51TZrc5uwEpgJX1NC59ahQd8juC8270A05FthpbygYllgWGvRYbm_z_SS1d2D6Zj4nIva84IvKp0I_hugo5CPykQGnXU7L5rXnay1K68nLzS6ngAjIPwPXFBjUZ6noUdcy5OlXj4VZSf8qWZ4McChS3LvLb1aNZCwNIaQsKWlEP8HTdIUpmrmLMtMUYb0XqoGTDSwSxakfg85265eZXSnAa4luZYpJy1Rc9N7CT5VpcJcujH-tQZxZLUEHpF8KrzoKrUATl2h274M4j9AkNbTy_oBV2nw3Hc_e_KXuH3T-AXudfjSMf3bseZppvjY9yZtRLcnPz3LsRAu_CGCfGZ6QeC3QPN0jKvkHEQt9MOWQXgw6eQfMaKaloRh22UdKcs71SGKZHaXIrF5g-jGA3kVpnSbqxsi-svhRwUbPxvXfikamTcDJ7o6aWHEA2NcJd5l2bKQu4jeew_Wvw0RRRqAkKenYV8wQFlXKNCkjgOte0zNdzzHn8iakeWgq9pXtI1VqaHIXLIxI6qcZpmRNzHwxIB63Obt-sfhKb9pDQGy-E4-ypQjLEhKoneMX7xkZmZVqo4XBegxzPPVtz5bgXxStUfnG69gzDWQEv4hqsh8snowG7xCvTe5ymoOKNI1liE2TarRKpxpUo6ixLl2PXcDQox1-Q0U33gYFS3VqJxxRaVv_rRuZsn-qs5PuBfQfTG_FPk7NextQBqHxsRlGVgWNehsmRNIzk7_Glm40]--></g></svg>