<svg xmlns="http://www.w3.org/2000/svg" xmlns:xlink="http://www.w3.org/1999/xlink" contentStyleType="text/css" data-diagram-type="DESCRIPTION" height="1080px" preserveAspectRatio="none" style="width:581px;height:1080px;background:#FAFAFA;" version="1.1" viewBox="0 0 581 1080" width="581px" zoomAndPan="magnify"><title>Drivers and Assessments</title><defs/><g><rect fill="#FAFAFA" height="1080" style="stroke:none;stroke-width:1;" width="581" x="0" y="0"/><text fill="#000000" font-family="sans-serif" font-size="14" font-weight="bold" lengthAdjust="spacing" textLength="199.1035" x="183.9482" y="22.9951">Drivers and Assessments</text><!--cluster Drivers--><g class="cluster" data-entity="Drivers" data-source-line="7" data-uid="ent0002" id="cluster_Drivers"><rect fill="#F7EEF9" height="478" rx="2" ry="2" style="stroke:#7B3F9A;stroke-width:1;" width="568" x="7" y="44.2969"/><text fill="#000000" font-family="sans-serif" font-size="12" font-weight="bold" lengthAdjust="spacing" textLength="49.0137" x="266.4932" y="57.4355">Drivers</text></g><!--cluster Assessments--><g class="cluster" data-entity="Assessments" data-source-line="17" data-uid="ent0010" id="cluster_Assessments"><rect fill="#F7EEF9" height="520" rx="2" ry="2" style="stroke:#7B3F9A;stroke-width:1;" width="444" x="61" y="554.2969"/><text fill="#000000" font-family="sans-serif" font-size="12" font-weight="bold" lengthAdjust="spacing" textLength="88.0605" x="238.9697" y="567.4355">Assessments</text></g><!--entity DRV_GR9prv--><g class="entity" data-entity="DRV_GR9prv" data-source-line="8" data-uid="ent0003" id="entity_DRV_GR9prv"><rect fill="#EDD6F0" height="44" rx="2" ry="2" style="stroke:#7B3F9A;stroke-width:0.5;" width="383.2461" x="99.5" y="76.2969"/><ellipse cx="121.5" cy="98.2969" fill="none" rx="6.9" ry="6.9" style="stroke:#252327;stroke-width:1.95;"/><ellipse cx="121.5" cy="98.2969" fill="none" rx="2.55" ry="2.55" style="stroke:#252327;stroke-width:1.95;"/><path d="M120.525,89.7469 L120.525,94.2469 L122.475,94.2469 L122.475,89.7469" fill="#252327"/><path d="M120.525,102.3469 L120.525,106.8469 L122.475,106.8469 L122.475,102.3469" fill="#252327"/><path d="M112.95,97.3219 L117.45,97.3219 L117.45,99.2719 L112.95,99.2719" fill="#252327"/><path d="M125.55,97.3219 L130.05,97.3219 L130.05,99.2719 L125.55,99.2719" fill="#252327"/><path d="M114.81,92.9869 L116.19,91.6069 L119.34,94.7569 L117.96,96.1369" fill="#252327"/><path d="M123.66,101.8369 L125.04,100.4569 L128.19,103.6069 L126.81,104.9869" fill="#252327"/><path d="M126.81,91.6069 L128.19,92.9869 L125.04,96.1369 L123.66,94.7569" fill="#252327"/><path d="M117.96,100.4569 L119.34,101.8369 L116.19,104.9869 L114.81,103.6069" fill="#252327"/><text fill="#000000" font-family="sans-serif" font-size="12" lengthAdjust="spacing" textLength="3.8145" x="133.5" y="107.4668">&#160;</text><text fill="#000000" font-family="sans-serif" font-size="12" lengthAdjust="spacing" textLength="66.082" x="137.3145" y="107.4668">AI-Assisted</text><text fill="#000000" font-family="sans-serif" font-size="12" lengthAdjust="spacing" textLength="3.8145" x="203.3965" y="107.4668">&#160;</text><text fill="#000000" font-family="sans-serif" font-size="12" lengthAdjust="spacing" textLength="80.7832" x="207.2109" y="107.4668">Development</text><text fill="#000000" font-family="sans-serif" font-size="12" lengthAdjust="spacing" textLength="3.8145" x="287.9941" y="107.4668">&#160;</text><text fill="#000000" font-family="sans-serif" font-size="12" lengthAdjust="spacing" textLength="13.6055" x="291.8086" y="107.4668">as</text><text fill="#000000" font-family="sans-serif" font-size="12" lengthAdjust="spacing" textLength="3.8145" x="305.4141" y="107.4668">&#160;</text><text fill="#000000" font-family="sans-serif" font-size="12" lengthAdjust="spacing" textLength="58.875" x="309.2285" y="107.4668">Dominant</text><text fill="#000000" font-family="sans-serif" font-size="12" lengthAdjust="spacing" textLength="3.8145" x="368.1035" y="107.4668">&#160;</text><text fill="#000000" font-family="sans-serif" font-size="12" lengthAdjust="spacing" textLength="64.3184" x="371.918" y="107.4668">Production</text><text fill="#000000" font-family="sans-serif" font-size="12" lengthAdjust="spacing" textLength="3.8145" x="436.2363" y="107.4668">&#160;</text><text fill="#000000" font-family="sans-serif" font-size="12" lengthAdjust="spacing" textLength="32.6953" x="440.0508" y="107.4668">Mode</text></g><!--entity DRV_Rt6Yu2--><g class="entity" data-entity="DRV_Rt6Yu2" data-source-line="9" data-uid="ent0004" id="entity_DRV_Rt6Yu2"><rect fill="#EDD6F0" height="44" rx="2" ry="2" style="stroke:#7B3F9A;stroke-width:0.5;" width="411.4824" x="85.5" y="200.2969"/><ellipse cx="107.5" cy="222.2969" fill="none" rx="6.9" ry="6.9" style="stroke:#252327;stroke-width:1.95;"/><ellipse cx="107.5" cy="222.2969" fill="none" rx="2.55" ry="2.55" style="stroke:#252327;stroke-width:1.95;"/><path d="M106.525,213.7469 L106.525,218.2469 L108.475,218.2469 L108.475,213.7469" fill="#252327"/><path d="M106.525,226.3469 L106.525,230.8469 L108.475,230.8469 L108.475,226.3469" fill="#252327"/><path d="M98.95,221.3219 L103.45,221.3219 L103.45,223.2719 L98.95,223.2719" fill="#252327"/><path d="M111.55,221.3219 L116.05,221.3219 L116.05,223.2719 L111.55,223.2719" fill="#252327"/><path d="M100.81,216.9869 L102.19,215.6069 L105.34,218.7569 L103.96,220.1369" fill="#252327"/><path d="M109.66,225.8369 L111.04,224.4569 L114.19,227.6069 L112.81,228.9869" fill="#252327"/><path d="M112.81,215.6069 L114.19,216.9869 L111.04,220.1369 L109.66,218.7569" fill="#252327"/><path d="M103.96,224.4569 L105.34,225.8369 L102.19,228.9869 L100.81,227.6069" fill="#252327"/><text fill="#000000" font-family="sans-serif" font-size="12" lengthAdjust="spacing" textLength="3.8145" x="119.5" y="231.4668">&#160;</text><text fill="#000000" font-family="sans-serif" font-size="12" lengthAdjust="spacing" textLength="62.2207" x="123.3145" y="231.4668">Increasing</text><text fill="#000000" font-family="sans-serif" font-size="12" lengthAdjust="spacing" textLength="3.8145" x="185.5352" y="231.4668">&#160;</text><text fill="#000000" font-family="sans-serif" font-size="12" lengthAdjust="spacing" textLength="50.8887" x="189.3496" y="231.4668">Demand</text><text fill="#000000" font-family="sans-serif" font-size="12" lengthAdjust="spacing" textLength="3.8145" x="240.2383" y="231.4668">&#160;</text><text fill="#000000" font-family="sans-serif" font-size="12" lengthAdjust="spacing" textLength="16.5" x="244.0527" y="231.4668">for</text><text fill="#000000" font-family="sans-serif" font-size="12" lengthAdjust="spacing" textLength="3.8145" x="260.5527" y="231.4668">&#160;</text><text fill="#000000" font-family="sans-serif" font-size="12" lengthAdjust="spacing" textLength="30.0117" x="264.3672" y="231.4668">More</text><text fill="#000000" font-family="sans-serif" font-size="12" lengthAdjust="spacing" textLength="3.8145" x="294.3789" y="231.4668">&#160;</text><text fill="#000000" font-family="sans-serif" font-size="12" lengthAdjust="spacing" textLength="61.5996" x="298.1934" y="231.4668">Autonomy</text><text fill="#000000" font-family="sans-serif" font-size="12" lengthAdjust="spacing" textLength="3.8145" x="359.793" y="231.4668">&#160;</text><text fill="#000000" font-family="sans-serif" font-size="12" lengthAdjust="spacing" textLength="11.5664" x="363.6074" y="231.4668">of</text><text fill="#000000" font-family="sans-serif" font-size="12" lengthAdjust="spacing" textLength="3.8145" x="375.1738" y="231.4668">&#160;</text><text fill="#000000" font-family="sans-serif" font-size="12" lengthAdjust="spacing" textLength="40.0078" x="378.9883" y="231.4668">Teams</text><text fill="#000000" font-family="sans-serif" font-size="12" lengthAdjust="spacing" textLength="3.8145" x="418.9961" y="231.4668">&#160;</text><text fill="#000000" font-family="sans-serif" font-size="12" lengthAdjust="spacing" textLength="9.3574" x="422.8105" y="231.4668">&amp;</text><text fill="#000000" font-family="sans-serif" font-size="12" lengthAdjust="spacing" textLength="3.8145" x="432.168" y="231.4668">&#160;</text><text fill="#000000" font-family="sans-serif" font-size="12" lengthAdjust="spacing" textLength="51" x="435.9824" y="231.4668">Systems</text></g><!--entity DRV_CuhLPB--><g class="entity" data-entity="DRV_CuhLPB" data-source-line="10" data-uid="ent0005" id="entity_DRV_CuhLPB"><rect fill="#EDD6F0" height="57.9688" rx="2" ry="2" style="stroke:#7B3F9A;stroke-width:0.5;" width="357.9336" x="77" y="324.2969"/><ellipse cx="99" cy="346.2969" fill="none" rx="6.9" ry="6.9" style="stroke:#252327;stroke-width:1.95;"/><ellipse cx="99" cy="346.2969" fill="none" rx="2.55" ry="2.55" style="stroke:#252327;stroke-width:1.95;"/><path d="M98.025,337.7469 L98.025,342.2469 L99.975,342.2469 L99.975,337.7469" fill="#252327"/><path d="M98.025,350.3469 L98.025,354.8469 L99.975,354.8469 L99.975,350.3469" fill="#252327"/><path d="M90.45,345.3219 L94.95,345.3219 L94.95,347.2719 L90.45,347.2719" fill="#252327"/><path d="M103.05,345.3219 L107.55,345.3219 L107.55,347.2719 L103.05,347.2719" fill="#252327"/><path d="M92.31,340.9869 L93.69,339.6069 L96.84,342.7569 L95.46,344.1369" fill="#252327"/><path d="M101.16,349.8369 L102.54,348.4569 L105.69,351.6069 L104.31,352.9869" fill="#252327"/><path d="M104.31,339.6069 L105.69,340.9869 L102.54,344.1369 L101.16,342.7569" fill="#252327"/><path d="M95.46,348.4569 L96.84,349.8369 L93.69,352.9869 L92.31,351.6069" fill="#252327"/><text fill="#000000" font-family="sans-serif" font-size="12" lengthAdjust="spacing" textLength="3.8145" x="111" y="355.4668">&#160;</text><text fill="#000000" font-family="sans-serif" font-size="12" lengthAdjust="spacing" textLength="31.3594" x="114.8145" y="355.4668">Need</text><text fill="#000000" font-family="sans-serif" font-size="12" lengthAdjust="spacing" textLength="3.8145" x="146.1738" y="355.4668">&#160;</text><text fill="#000000" font-family="sans-serif" font-size="12" lengthAdjust="spacing" textLength="12.0469" x="149.9883" y="355.4668">to</text><text fill="#000000" font-family="sans-serif" font-size="12" lengthAdjust="spacing" textLength="3.8145" x="162.0352" y="355.4668">&#160;</text><text fill="#000000" font-family="sans-serif" font-size="12" lengthAdjust="spacing" textLength="47.8594" x="165.8496" y="355.4668">Balance</text><text fill="#000000" font-family="sans-serif" font-size="12" lengthAdjust="spacing" textLength="3.8145" x="213.709" y="355.4668">&#160;</text><text fill="#000000" font-family="sans-serif" font-size="12" lengthAdjust="spacing" textLength="87.6152" x="217.5234" y="355.4668">Organizational</text><text fill="#000000" font-family="sans-serif" font-size="12" lengthAdjust="spacing" textLength="3.8145" x="305.1387" y="355.4668">&#160;</text><text fill="#000000" font-family="sans-serif" font-size="12" lengthAdjust="spacing" textLength="86.707" x="308.9531" y="355.4668">Differentiation</text><text fill="#000000" font-family="sans-serif" font-size="12" lengthAdjust="spacing" textLength="3.8145" x="395.6602" y="355.4668">&#160;</text><text fill="#000000" font-family="sans-serif" font-size="12" lengthAdjust="spacing" textLength="25.459" x="399.4746" y="355.4668">with</text><text fill="#000000" font-family="sans-serif" font-size="12" lengthAdjust="spacing" textLength="66.123" x="222.9053" y="369.4355">Integration</text></g><!--entity DRV_Ui5Op3--><g class="entity" data-entity="DRV_Ui5Op3" data-source-line="11" data-uid="ent0006" id="entity_DRV_Ui5Op3"><rect fill="#EDD6F0" height="44" rx="2" ry="2" style="stroke:#7B3F9A;stroke-width:0.5;" width="288.6582" x="270.5" y="462.2969"/><ellipse cx="292.5" cy="484.2969" fill="none" rx="6.9" ry="6.9" style="stroke:#252327;stroke-width:1.95;"/><ellipse cx="292.5" cy="484.2969" fill="none" rx="2.55" ry="2.55" style="stroke:#252327;stroke-width:1.95;"/><path d="M291.525,475.7469 L291.525,480.2469 L293.475,480.2469 L293.475,475.7469" fill="#252327"/><path d="M291.525,488.3469 L291.525,492.8469 L293.475,492.8469 L293.475,488.3469" fill="#252327"/><path d="M283.95,483.3219 L288.45,483.3219 L288.45,485.2719 L283.95,485.2719" fill="#252327"/><path d="M296.55,483.3219 L301.05,483.3219 L301.05,485.2719 L296.55,485.2719" fill="#252327"/><path d="M285.81,478.9869 L287.19,477.6069 L290.34,480.7569 L288.96,482.1369" fill="#252327"/><path d="M294.66,487.8369 L296.04,486.4569 L299.19,489.6069 L297.81,490.9869" fill="#252327"/><path d="M297.81,477.6069 L299.19,478.9869 L296.04,482.1369 L294.66,480.7569" fill="#252327"/><path d="M288.96,486.4569 L290.34,487.8369 L287.19,490.9869 L285.81,489.6069" fill="#252327"/><text fill="#000000" font-family="sans-serif" font-size="12" lengthAdjust="spacing" textLength="3.8145" x="304.5" y="493.4668">&#160;</text><text fill="#000000" font-family="sans-serif" font-size="12" lengthAdjust="spacing" textLength="36.4805" x="308.3145" y="493.4668">Rising</text><text fill="#000000" font-family="sans-serif" font-size="12" lengthAdjust="spacing" textLength="3.8145" x="344.7949" y="493.4668">&#160;</text><text fill="#000000" font-family="sans-serif" font-size="12" lengthAdjust="spacing" textLength="67.9863" x="348.6094" y="493.4668">Complexity</text><text fill="#000000" font-family="sans-serif" font-size="12" lengthAdjust="spacing" textLength="3.8145" x="416.5957" y="493.4668">&#160;</text><text fill="#000000" font-family="sans-serif" font-size="12" lengthAdjust="spacing" textLength="22.5762" x="420.4102" y="493.4668">and</text><text fill="#000000" font-family="sans-serif" font-size="12" lengthAdjust="spacing" textLength="3.8145" x="442.9863" y="493.4668">&#160;</text><text fill="#000000" font-family="sans-serif" font-size="12" lengthAdjust="spacing" textLength="102.3574" x="446.8008" y="493.4668">Interdependence</text></g><!--entity ASS_EI3FpR--><g class="entity" data-entity="ASS_EI3FpR" data-source-line="18" data-uid="ent0011" id="entity_ASS_EI3FpR"><rect fill="#EDD6F0" height="57.9688" rx="2" ry="2" style="stroke:#7B3F9A;stroke-width:0.5;" width="411.623" x="77" y="586.2969"/><path d="M90.75,600.7969 L107.25,600.7969 A1.5,1.5 0 0 1 108.75,602.2969 L108.75,611.2969 A1.5,1.5 0 0 1 107.25,612.7969 L96,612.7969 L93,617.2969 L94.5,612.7969 L90.75,612.7969 A1.5,1.5 0 0 1 89.25,611.2969 L89.25,602.2969 A1.5,1.5 0 0 1 90.75,600.7969" fill="#252327"/><text fill="#000000" font-family="sans-serif" font-size="12" lengthAdjust="spacing" textLength="3.8145" x="111" y="617.4668">&#160;</text><text fill="#000000" font-family="sans-serif" font-size="12" lengthAdjust="spacing" textLength="11.748" x="114.8145" y="617.4668">AI</text><text fill="#000000" font-family="sans-serif" font-size="12" lengthAdjust="spacing" textLength="3.8145" x="126.5625" y="617.4668">&#160;</text><text fill="#000000" font-family="sans-serif" font-size="12" lengthAdjust="spacing" textLength="30.7207" x="130.377" y="617.4668">Code</text><text fill="#000000" font-family="sans-serif" font-size="12" lengthAdjust="spacing" textLength="3.8145" x="161.0977" y="617.4668">&#160;</text><text fill="#000000" font-family="sans-serif" font-size="12" lengthAdjust="spacing" textLength="66.9434" x="164.9121" y="617.4668">Generation</text><text fill="#000000" font-family="sans-serif" font-size="12" lengthAdjust="spacing" textLength="3.8145" x="231.8555" y="617.4668">&#160;</text><text fill="#000000" font-family="sans-serif" font-size="12" lengthAdjust="spacing" textLength="45.5625" x="235.6699" y="617.4668">Volume</text><text fill="#000000" font-family="sans-serif" font-size="12" lengthAdjust="spacing" textLength="3.8145" x="281.2324" y="617.4668">&#160;</text><text fill="#000000" font-family="sans-serif" font-size="12" lengthAdjust="spacing" textLength="56.959" x="285.0469" y="617.4668">Outpaces</text><text fill="#000000" font-family="sans-serif" font-size="12" lengthAdjust="spacing" textLength="3.8145" x="342.0059" y="617.4668">&#160;</text><text fill="#000000" font-family="sans-serif" font-size="12" lengthAdjust="spacing" textLength="77.2969" x="345.8203" y="617.4668">Architectural</text><text fill="#000000" font-family="sans-serif" font-size="12" lengthAdjust="spacing" textLength="3.8145" x="423.1172" y="617.4668">&#160;</text><text fill="#000000" font-family="sans-serif" font-size="12" lengthAdjust="spacing" textLength="51.6914" x="426.9316" y="617.4668">Planning</text><text fill="#000000" font-family="sans-serif" font-size="12" lengthAdjust="spacing" textLength="22.5762" x="219.8115" y="631.4355">and</text><text fill="#000000" font-family="sans-serif" font-size="12" lengthAdjust="spacing" textLength="3.8145" x="242.3877" y="631.4355">&#160;</text><text fill="#000000" font-family="sans-serif" font-size="12" lengthAdjust="spacing" textLength="43.3535" x="246.2021" y="631.4355">Review</text><text fill="#000000" font-family="sans-serif" font-size="12" lengthAdjust="spacing" textLength="3.8145" x="289.5557" y="631.4355">&#160;</text><text fill="#000000" font-family="sans-serif" font-size="12" lengthAdjust="spacing" textLength="52.4414" x="293.3701" y="631.4355">Capacity</text></g><!--entity ASS_a6vxyj--><g class="entity" data-entity="ASS_a6vxyj" data-source-line="19" data-uid="ent0012" id="entity_ASS_a6vxyj"><rect fill="#EDD6F0" height="57.9688" rx="2" ry="2" style="stroke:#7B3F9A;stroke-width:0.5;" width="362.2285" x="90" y="724.2969"/><path d="M103.75,738.7969 L120.25,738.7969 A1.5,1.5 0 0 1 121.75,740.2969 L121.75,749.2969 A1.5,1.5 0 0 1 120.25,750.7969 L109,750.7969 L106,755.2969 L107.5,750.7969 L103.75,750.7969 A1.5,1.5 0 0 1 102.25,749.2969 L102.25,740.2969 A1.5,1.5 0 0 1 103.75,738.7969" fill="#252327"/><text fill="#000000" font-family="sans-serif" font-size="12" lengthAdjust="spacing" textLength="3.8145" x="124" y="755.4668">&#160;</text><text fill="#000000" font-family="sans-serif" font-size="12" lengthAdjust="spacing" textLength="68.3262" x="127.8145" y="755.4668">Centralized</text><text fill="#000000" font-family="sans-serif" font-size="12" lengthAdjust="spacing" textLength="3.8145" x="196.1406" y="755.4668">&#160;</text><text fill="#000000" font-family="sans-serif" font-size="12" lengthAdjust="spacing" textLength="72.6035" x="199.9551" y="755.4668">Governance</text><text fill="#000000" font-family="sans-serif" font-size="12" lengthAdjust="spacing" textLength="3.8145" x="272.5586" y="755.4668">&#160;</text><text fill="#000000" font-family="sans-serif" font-size="12" lengthAdjust="spacing" textLength="42.9902" x="276.373" y="755.4668">Cannot</text><text fill="#000000" font-family="sans-serif" font-size="12" lengthAdjust="spacing" textLength="3.8145" x="319.3633" y="755.4668">&#160;</text><text fill="#000000" font-family="sans-serif" font-size="12" lengthAdjust="spacing" textLength="32.2852" x="323.1777" y="755.4668">Scale</text><text fill="#000000" font-family="sans-serif" font-size="12" lengthAdjust="spacing" textLength="3.8145" x="355.4629" y="755.4668">&#160;</text><text fill="#000000" font-family="sans-serif" font-size="12" lengthAdjust="spacing" textLength="12.0469" x="359.2773" y="755.4668">to</text><text fill="#000000" font-family="sans-serif" font-size="12" lengthAdjust="spacing" textLength="3.8145" x="371.3242" y="755.4668">&#160;</text><text fill="#000000" font-family="sans-serif" font-size="12" lengthAdjust="spacing" textLength="67.0898" x="375.1387" y="755.4668">Concurrent</text><text fill="#000000" font-family="sans-serif" font-size="12" lengthAdjust="spacing" textLength="80.7832" x="202.0791" y="769.4355">Development</text><text fill="#000000" font-family="sans-serif" font-size="12" lengthAdjust="spacing" textLength="3.8145" x="282.8623" y="769.4355">&#160;</text><text fill="#000000" font-family="sans-serif" font-size="12" lengthAdjust="spacing" textLength="53.4727" x="286.6768" y="769.4355">Contexts</text></g><!--entity ASS_9YWsDh--><g class="entity" data-entity="ASS_9YWsDh" data-source-line="20" data-uid="ent0013" id="entity_ASS_9YWsDh"><rect fill="#EDD6F0" height="57.9688" rx="2" ry="2" style="stroke:#7B3F9A;stroke-width:0.5;" width="379.4961" x="109.5" y="862.2969"/><path d="M123.25,876.7969 L139.75,876.7969 A1.5,1.5 0 0 1 141.25,878.2969 L141.25,887.2969 A1.5,1.5 0 0 1 139.75,888.7969 L128.5,888.7969 L125.5,893.2969 L127,888.7969 L123.25,888.7969 A1.5,1.5 0 0 1 121.75,887.2969 L121.75,878.2969 A1.5,1.5 0 0 1 123.25,876.7969" fill="#252327"/><text fill="#000000" font-family="sans-serif" font-size="12" lengthAdjust="spacing" textLength="3.8145" x="143.5" y="893.4668">&#160;</text><text fill="#000000" font-family="sans-serif" font-size="12" lengthAdjust="spacing" textLength="44.1504" x="147.3145" y="893.4668">Implicit</text><text fill="#000000" font-family="sans-serif" font-size="12" lengthAdjust="spacing" textLength="3.8145" x="191.4648" y="893.4668">&#160;</text><text fill="#000000" font-family="sans-serif" font-size="12" lengthAdjust="spacing" textLength="44.748" x="195.2793" y="893.4668">System</text><text fill="#000000" font-family="sans-serif" font-size="12" lengthAdjust="spacing" textLength="3.8145" x="240.0273" y="893.4668">&#160;</text><text fill="#000000" font-family="sans-serif" font-size="12" lengthAdjust="spacing" textLength="111.9434" x="243.8418" y="893.4668">Interdependencies</text><text fill="#000000" font-family="sans-serif" font-size="12" lengthAdjust="spacing" textLength="3.8145" x="355.7852" y="893.4668">&#160;</text><text fill="#000000" font-family="sans-serif" font-size="12" lengthAdjust="spacing" textLength="20.5254" x="359.5996" y="893.4668">Are</text><text fill="#000000" font-family="sans-serif" font-size="12" lengthAdjust="spacing" textLength="3.8145" x="380.125" y="893.4668">&#160;</text><text fill="#000000" font-family="sans-serif" font-size="12" lengthAdjust="spacing" textLength="95.0566" x="383.9395" y="893.4668">Unmaintainable</text><text fill="#000000" font-family="sans-serif" font-size="12" lengthAdjust="spacing" textLength="47.1621" x="228.9092" y="907.4355">Without</text><text fill="#000000" font-family="sans-serif" font-size="12" lengthAdjust="spacing" textLength="3.8145" x="276.0713" y="907.4355">&#160;</text><text fill="#000000" font-family="sans-serif" font-size="12" lengthAdjust="spacing" textLength="43.6055" x="279.8857" y="907.4355">Explicit</text><text fill="#000000" font-family="sans-serif" font-size="12" lengthAdjust="spacing" textLength="3.8145" x="323.4912" y="907.4355">&#160;</text><text fill="#000000" font-family="sans-serif" font-size="12" lengthAdjust="spacing" textLength="42.2813" x="327.3057" y="907.4355">Models</text></g><!--entity ASS_s68vVo--><g class="entity" data-entity="ASS_s68vVo" data-source-line="21" data-uid="ent0014" id="entity_ASS_s68vVo"><rect fill="#EDD6F0" height="57.9688" rx="2" ry="2" style="stroke:#7B3F9A;stroke-width:0.5;" width="380.6563" x="108.5" y="1000.2969"/><path d="M122.25,1014.7969 L138.75,1014.7969 A1.5,1.5 0 0 1 140.25,1016.2969 L140.25,1025.2969 A1.5,1.5 0 0 1 138.75,1026.7969 L127.5,1026.7969 L124.5,1031.2969 L126,1026.7969 L122.25,1026.7969 A1.5,1.5 0 0 1 120.75,1025.2969 L120.75,1016.2969 A1.5,1.5 0 0 1 122.25,1014.7969" fill="#252327"/><text fill="#000000" font-family="sans-serif" font-size="12" lengthAdjust="spacing" textLength="3.8145" x="142.5" y="1031.4668">&#160;</text><text fill="#000000" font-family="sans-serif" font-size="12" lengthAdjust="spacing" textLength="64.8926" x="146.3145" y="1031.4668">LLM-Based</text><text fill="#000000" font-family="sans-serif" font-size="12" lengthAdjust="spacing" textLength="3.8145" x="211.207" y="1031.4668">&#160;</text><text fill="#000000" font-family="sans-serif" font-size="12" lengthAdjust="spacing" textLength="41.7715" x="215.0215" y="1031.4668">Agents</text><text fill="#000000" font-family="sans-serif" font-size="12" lengthAdjust="spacing" textLength="3.8145" x="256.793" y="1031.4668">&#160;</text><text fill="#000000" font-family="sans-serif" font-size="12" lengthAdjust="spacing" textLength="42.9902" x="260.6074" y="1031.4668">Cannot</text><text fill="#000000" font-family="sans-serif" font-size="12" lengthAdjust="spacing" textLength="3.8145" x="303.5977" y="1031.4668">&#160;</text><text fill="#000000" font-family="sans-serif" font-size="12" lengthAdjust="spacing" textLength="62.9707" x="307.4121" y="1031.4668">Effectively</text><text fill="#000000" font-family="sans-serif" font-size="12" lengthAdjust="spacing" textLength="3.8145" x="370.3828" y="1031.4668">&#160;</text><text fill="#000000" font-family="sans-serif" font-size="12" lengthAdjust="spacing" textLength="22.418" x="374.1973" y="1031.4668">Use</text><text fill="#000000" font-family="sans-serif" font-size="12" lengthAdjust="spacing" textLength="3.8145" x="396.6152" y="1031.4668">&#160;</text><text fill="#000000" font-family="sans-serif" font-size="12" lengthAdjust="spacing" textLength="78.7266" x="400.4297" y="1031.4668">Unstructured</text><text fill="#000000" font-family="sans-serif" font-size="12" lengthAdjust="spacing" textLength="77.2969" x="225.29" y="1045.4355">Architectural</text><text fill="#000000" font-family="sans-serif" font-size="12" lengthAdjust="spacing" textLength="3.8145" x="302.5869" y="1045.4355">&#160;</text><text fill="#000000" font-family="sans-serif" font-size="12" lengthAdjust="spacing" textLength="65.9648" x="306.4014" y="1045.4355">Knowledge</text></g><!--link DRV_GR9prv to DRV_Rt6Yu2--><!--link DRV_GR9prv to DRV_Rt6Yu2--><g class="link" data-entity-1="DRV_GR9prv" data-entity-2="DRV_Rt6Yu2" data-source-line="34" data-uid="lnk24" id="link_DRV_GR9prv_DRV_Rt6Yu2"><path d="M354.83,120.4669 C354.83,142.8969 354.83,177.3869 354.83,199.9069" fill="none" id="DRV_GR9prv-DRV_Rt6Yu2-1" style="stroke:#000000;stroke-width:2;"/><text fill="#000000" font-family="sans-serif" font-size="12" lengthAdjust="spacing" textLength="3.8145" x="350.83" y="157.3255">&#160;</text></g><!--link DRV_Rt6Yu2 to DRV_CuhLPB--><!--link DRV_Rt6Yu2 to DRV_CuhLPB--><g class="link" data-entity-1="DRV_Rt6Yu2" data-entity-2="DRV_CuhLPB" data-source-line="40" data-uid="lnk30" id="link_DRV_Rt6Yu2_DRV_CuhLPB"><path d="M318.5,244.5169 C318.5,266.4169 318.5,299.9969 318.5,324.0569" fill="none" id="DRV_Rt6Yu2-DRV_CuhLPB-1" style="stroke:#000000;stroke-width:2;"/><text fill="#000000" font-family="sans-serif" font-size="12" lengthAdjust="spacing" textLength="3.8145" x="314.5" y="281.4255">&#160;</text></g><!--link DRV_CuhLPB to DRV_Ui5Op3--><!--link DRV_CuhLPB to DRV_Ui5Op3--><g class="link" data-entity-1="DRV_CuhLPB" data-entity-2="DRV_Ui5Op3" data-source-line="30" data-uid="lnk20" id="link_DRV_CuhLPB_DRV_Ui5Op3"><path d="M380.17,382.3669 C380.17,406.4869 380.17,440.2769 380.17,462.2269" fill="none" id="DRV_CuhLPB-DRV_Ui5Op3-1" style="stroke:#000000;stroke-width:2;"/><text fill="#000000" font-family="sans-serif" font-size="12" lengthAdjust="spacing" textLength="3.8145" x="376.17" y="419.4355">&#160;</text></g><!--link ASS_EI3FpR to ASS_a6vxyj--><!--link ASS_a6vxyj to ASS_9YWsDh--><!--link ASS_9YWsDh to ASS_s68vVo--><!--link DRV_Ui5Op3 to ASS_EI3FpR--><!--link DRV_Ui5Op3 to ASS_9YWsDh--><g class="link" data-entity-1="DRV_Ui5Op3" data-entity-2="ASS_9YWsDh" data-source-line="29" data-uid="lnk19" id="link_DRV_Ui5Op3_ASS_9YWsDh"><path d="M524.5,506.4669 C524.5,591.3969 524.5,891.2969 524.5,891.2969 C524.5,891.2969 516.19,891.2969 494.77,891.2969" fill="none" id="DRV_Ui5Op3-to-ASS_9YWsDh" style="stroke:#000000;stroke-width:1;stroke-dasharray:7.0,7.0;"/><polygon fill="#000000" points="488.77,891.2969,497.77,895.2969,493.77,891.2969,497.77,887.2969,488.77,891.2969" style="stroke:#000000;stroke-width:1;"/><text fill="#000000" font-family="sans-serif" font-size="12" lengthAdjust="spacing" textLength="3.8145" x="520.5" y="713.8855">&#160;</text></g><!--link DRV_CuhLPB to ASS_EI3FpR--><g class="link" data-entity-1="DRV_CuhLPB" data-entity-2="ASS_EI3FpR" data-source-line="31" data-uid="lnk21" id="link_DRV_CuhLPB_ASS_EI3FpR"><path d="M173.75,382.3369 C173.75,432.6969 173.75,529.6769 173.75,580.1269" fill="none" id="DRV_CuhLPB-to-ASS_EI3FpR" style="stroke:#000000;stroke-width:1;stroke-dasharray:7.0,7.0;"/><polygon fill="#000000" points="173.75,586.1269,177.75,577.1269,173.75,581.1269,169.75,577.1269,173.75,586.1269" style="stroke:#000000;stroke-width:1;"/><text fill="#000000" font-family="sans-serif" font-size="12" lengthAdjust="spacing" textLength="3.8145" x="169.75" y="481.3655">&#160;</text></g><!--link DRV_CuhLPB to DRV_GR9prv--><g class="link" data-entity-1="DRV_CuhLPB" data-entity-2="DRV_GR9prv" data-source-line="32" data-uid="lnk22" id="link_DRV_CuhLPB_DRV_GR9prv"><path d="M81.25,324.2269 C81.25,260.1269 81.25,112.2969 81.25,112.2969 C81.25,112.2969 88.17,112.2969 99.5,112.2969" fill="none" id="DRV_CuhLPB-DRV_GR9prv" style="stroke:#000000;stroke-width:2;"/><text fill="#000000" font-family="sans-serif" font-size="12" lengthAdjust="spacing" textLength="3.8145" x="77.25" y="206.2755">&#160;</text></g><!--link DRV_Rt6Yu2 to ASS_a6vxyj--><g class="link" data-entity-1="DRV_Rt6Yu2" data-entity-2="ASS_a6vxyj" data-source-line="33" data-uid="lnk23" id="link_DRV_Rt6Yu2_ASS_a6vxyj"><path d="M85.33,222.2969 C71.31,222.2969 62.6,222.2969 62.6,222.2969 C62.6,222.2969 62.6,744.2969 62.6,744.2969 C62.6,744.2969 67.3,744.2969 83.84,744.2969" fill="none" id="DRV_Rt6Yu2-to-ASS_a6vxyj" style="stroke:#000000;stroke-width:1;stroke-dasharray:7.0,7.0;"/><polygon fill="#000000" points="89.84,744.2969,80.84,740.2969,84.84,744.2969,80.84,748.2969,89.84,744.2969" style="stroke:#000000;stroke-width:1;"/><text fill="#000000" font-family="sans-serif" font-size="12" lengthAdjust="spacing" textLength="3.8145" x="58.6" y="482.6855">&#160;</text></g><!--link DRV_GR9prv to ASS_EI3FpR--><g class="link" data-entity-1="DRV_GR9prv" data-entity-2="ASS_EI3FpR" data-source-line="35" data-uid="lnk25" id="link_DRV_GR9prv_ASS_EI3FpR"><path d="M99.17,103.2969 C81.35,103.2969 69.8,103.2969 69.8,103.2969 C69.8,103.2969 69.8,615.2969 69.8,615.2969 C69.8,615.2969 66.35,615.2969 70.89,615.2969" fill="none" id="DRV_GR9prv-to-ASS_EI3FpR" style="stroke:#000000;stroke-width:1;stroke-dasharray:7.0,7.0;"/><polygon fill="#000000" points="76.89,615.2969,67.89,611.2969,71.89,615.2969,67.89,619.2969,76.89,615.2969" style="stroke:#000000;stroke-width:1;"/><text fill="#000000" font-family="sans-serif" font-size="12" lengthAdjust="spacing" textLength="3.8145" x="65.8" y="345.2955">&#160;</text></g><!--link DRV_GR9prv to ASS_a6vxyj--><g class="link" data-entity-1="DRV_GR9prv" data-entity-2="ASS_a6vxyj" data-source-line="36" data-uid="lnk26" id="link_DRV_GR9prv_ASS_a6vxyj"><path d="M99.44,94.2969 C73.39,94.2969 55.4,94.2969 55.4,94.2969 C55.4,94.2969 55.4,763.2969 55.4,763.2969 C55.4,763.2969 63.09,763.2969 83.56,763.2969" fill="none" id="DRV_GR9prv-to-ASS_a6vxyj" style="stroke:#000000;stroke-width:1;stroke-dasharray:7.0,7.0;"/><polygon fill="#000000" points="89.56,763.2969,80.56,759.2969,84.56,763.2969,80.56,767.2969,89.56,763.2969" style="stroke:#000000;stroke-width:1;"/><text fill="#000000" font-family="sans-serif" font-size="12" lengthAdjust="spacing" textLength="3.8145" x="51.4" y="420.9955">&#160;</text></g><!--link DRV_GR9prv to ASS_s68vVo--><g class="link" data-entity-1="DRV_GR9prv" data-entity-2="ASS_s68vVo" data-source-line="37" data-uid="lnk27" id="link_DRV_GR9prv_ASS_s68vVo"><path d="M99.39,85.2969 C69.46,85.2969 48.2,85.2969 48.2,85.2969 C48.2,85.2969 48.2,1029.2969 48.2,1029.2969 C48.2,1029.2969 67.62,1029.2969 102.27,1029.2969" fill="none" id="DRV_GR9prv-to-ASS_s68vVo" style="stroke:#000000;stroke-width:1;stroke-dasharray:7.0,7.0;"/><polygon fill="#000000" points="108.27,1029.2969,99.27,1025.2969,103.27,1029.2969,99.27,1033.2969,108.27,1029.2969" style="stroke:#000000;stroke-width:1;"/><text fill="#000000" font-family="sans-serif" font-size="12" lengthAdjust="spacing" textLength="3.8145" x="44.2" y="558.8755">&#160;</text></g><!--link DRV_GR9prv to DRV_Ui5Op3--><g class="link" data-entity-1="DRV_GR9prv" data-entity-2="DRV_Ui5Op3" data-source-line="38" data-uid="lnk28" id="link_DRV_GR9prv_DRV_Ui5Op3"><path d="M482.58,98.2969 C509.38,98.2969 528,98.2969 528,98.2969 C528,98.2969 528,380.1369 528,462.1569" fill="none" id="DRV_GR9prv-DRV_Ui5Op3" style="stroke:#000000;stroke-width:2;"/><text fill="#000000" font-family="sans-serif" font-size="12" lengthAdjust="spacing" textLength="3.8145" x="524" y="254.6555">&#160;</text></g><!--link DRV_Rt6Yu2 to DRV_Ui5Op3--><g class="link" data-entity-1="DRV_Rt6Yu2" data-entity-2="DRV_Ui5Op3" data-source-line="39" data-uid="lnk29" id="link_DRV_Rt6Yu2_DRV_Ui5Op3"><path d="M465.75,244.6369 C465.75,294.1369 465.75,412.5669 465.75,462.0169" fill="none" id="DRV_Rt6Yu2-DRV_Ui5Op3" style="stroke:#000000;stroke-width:2;"/><text fill="#000000" font-family="sans-serif" font-size="12" lengthAdjust="spacing" textLength="3.8145" x="461.75" y="350.4655">&#160;</text></g><!--SRC=[dLHhQzj04FokNx4rfKt1Tcb3GWDfmB5JOveqGMuIGYdc8gtbAzATk8Ti9-I_Tq-FIZ7Am_rWEEIvdTdPsNl3HH3R4A7V_pXZAbZmX1diQOCAfLcdgFkfJMBFCp858-5M6YCJ2Bd2m70fw0zkOeIHuXag3Ko4CD0QjKvG6Erv3iT4H91EYUd0uU6PD3nZhi1OIPjo4HqTmRq7q80VllsdPrPSlTS1Y_7hf_xUmn4C9ZqYugGqX15c6ClKKGBJC9895upE5qg6DjS9Pp94nrnK8ZQ7ywzcO_yWLTbMp1CHA6IQH1DnuZgUIqK42c5WZHGoMOESmqzaYOPtC5sJnaItaVjc_yP-tehy1rA_D8XZ5ZCH89ohY0b-btl9OXZn-Pn69mpFly2IcmK9DXYf_4ERYg5Td5uSRwN2vtdxGvcaCQwuMUU3Tpmgn1H5YAIjZUkIxvsdkzw3LtiFlLyB7jADtuf72zDhEbCVMr6bylhOYYevcr5iHFH_ubXVtuWaEKAxD4Q1XTrm9MERq9IiILc06WQkXg6gLj6qBcY6mXdftFCnuxY48ICaEUfqrJo5WuFfT7OosVsM-bjh6z87ekHt59-nf9c8F3v34Y0DJ1tInMeeHM2L2z2ZfQBF1bU5MMsYs7wsMl_PMjI4uiEfsN97DWB4SxyGBaN2k33qOxTK-9eYBQs1arLvsQrs_AIqWvjhFLfiBUtqzAntp3IvDOXSJ2gdJcY_w4KXQzPmgPquRPHrytJGHzFzBkGonZ32fwJf_I_PbQHbgETQ1pYKIz5hcbiVsq1bc_Mn3LGIralH1Ye3vhrtKnV5Cwyz7-FPHCnZwpPxDYBqJbscsv3GXKxdGmwdbcLGl4CxzOfseNclmhQKhk2rfjULBbwLPqiNJqgtuUxJfQjopNlFbAxWRQfVW6ygUG5U3FDrmZVjtiHMZMsBhNntsBy0]--></g></svg>