<svg xmlns="http://www.w3.org/2000/svg" xmlns:xlink="http://www.w3.org/1999/xlink" contentStyleType="text/css" data-diagram-type="DESCRIPTION" height="945px" preserveAspectRatio="none" style="width:930px;height:945px;background:#FAFAFA;" version="1.1" viewBox="0 0 930 945" width="930px" zoomAndPan="magnify"><title>Execute Staged Bulk Operation</title><defs/><g><rect fill="#FAFAFA" height="945" style="stroke:none;stroke-width:1;" width="930" x="0" y="0"/><text fill="#000000" font-family="sans-serif" font-size="14" font-weight="bold" lengthAdjust="spacing" textLength="246.5176" x="334.7412" y="22.9951">Execute Staged Bulk Operation</text><!--cluster Application--><g class="cluster" data-entity="Application" data-source-line="7" data-uid="ent0002" id="cluster_Application"><rect fill="#E8F8FF" height="92" rx="2" ry="2" style="stroke:#0078A0;stroke-width:1;" width="917" x="7" y="44.2969"/><text fill="#000000" font-family="sans-serif" font-size="12" font-weight="bold" lengthAdjust="spacing" textLength="76.541" x="427.2295" y="57.4355">Application</text></g><!--cluster Process--><g class="cluster" data-entity="Process" data-source-line="17" data-uid="ent0010" id="cluster_Process"><rect fill="#EDE8E1" height="779" rx="2" ry="2" style="stroke:#8C7E6A;stroke-width:1;" width="564" x="222" y="160.2969"/><text fill="#000000" font-family="sans-serif" font-size="12" font-weight="bold" lengthAdjust="spacing" textLength="52.4941" x="477.7529" y="173.4355">Process</text></g><!--cluster PRC_gtgYvQ--><g class="cluster" data-entity="PRC_gtgYvQ" data-source-line="18" data-uid="ent0011" id="cluster_PRC_gtgYvQ"><rect fill="#E0D8CC" height="615" rx="2" ry="2" style="stroke:#8C7E6A;stroke-width:1;" width="334" x="254" y="208.2969"/><path d="M305.1607,216.4469 L314.6107,216.4469 L314.6107,214.4969 L321.3607,222.2969 L314.6107,230.0969 L314.6107,228.1469 L305.1607,228.1469" fill="#252327"/><text fill="#000000" font-family="sans-serif" font-size="12" font-weight="bold" lengthAdjust="spacing" textLength="211.3008" x="329.4385" y="231.4668">Execute Staged Bulk Operation</text></g><!--entity APP_5n_KQJ--><g class="entity" data-entity="APP_5n_KQJ" data-source-line="8" data-uid="ent0003" id="entity_APP_5n_KQJ"><rect fill="#CCF2FF" height="44" rx="2" ry="2" style="stroke:#0078A0;stroke-width:0.5;" width="161.0352" x="23.5" y="76.2969"/><path d="M39.5,92.5969 L50.6,92.5969 L50.6,103.9969 L39.5,103.9969" fill="#252327"/><path d="M36.95,93.7219 L39.5,93.7219 L39.5,95.6719 L36.95,95.6719" fill="#252327"/><path d="M36.95,97.3219 L39.5,97.3219 L39.5,99.2719 L36.95,99.2719" fill="#252327"/><path d="M36.95,100.9219 L39.5,100.9219 L39.5,102.8719 L36.95,102.8719" fill="#252327"/><path d="M50.6,93.7219 L52.7,93.7219 L52.7,95.6719 L50.6,95.6719" fill="#252327"/><path d="M50.6,97.3219 L52.7,97.3219 L52.7,99.2719 L50.6,99.2719" fill="#252327"/><path d="M50.6,100.9219 L52.7,100.9219 L52.7,102.8719 L50.6,102.8719" fill="#252327"/><text fill="#000000" font-family="sans-serif" font-size="12" lengthAdjust="spacing" textLength="3.8145" x="57.5" y="107.4668">&#160;</text><text fill="#000000" font-family="sans-serif" font-size="12" lengthAdjust="spacing" textLength="26.1211" x="61.3145" y="107.4668">Bulk</text><text fill="#000000" font-family="sans-serif" font-size="12" lengthAdjust="spacing" textLength="3.8145" x="87.4355" y="107.4668">&#160;</text><text fill="#000000" font-family="sans-serif" font-size="12" lengthAdjust="spacing" textLength="32.2207" x="91.25" y="107.4668">Write</text><text fill="#000000" font-family="sans-serif" font-size="12" lengthAdjust="spacing" textLength="3.8145" x="123.4707" y="107.4668">&#160;</text><text fill="#000000" font-family="sans-serif" font-size="12" lengthAdjust="spacing" textLength="47.25" x="127.2852" y="107.4668">Handler</text></g><!--entity APP_WK_78v--><g class="entity" data-entity="APP_WK_78v" data-source-line="9" data-uid="ent0004" id="entity_APP_WK_78v"><rect fill="#CCF2FF" height="44" rx="2" ry="2" style="stroke:#0078A0;stroke-width:0.5;" width="168.2422" x="245" y="76.2969"/><path d="M261,92.5969 L272.1,92.5969 L272.1,103.9969 L261,103.9969" fill="#252327"/><path d="M258.45,93.7219 L261,93.7219 L261,95.6719 L258.45,95.6719" fill="#252327"/><path d="M258.45,97.3219 L261,97.3219 L261,99.2719 L258.45,99.2719" fill="#252327"/><path d="M258.45,100.9219 L261,100.9219 L261,102.8719 L258.45,102.8719" fill="#252327"/><path d="M272.1,93.7219 L274.2,93.7219 L274.2,95.6719 L272.1,95.6719" fill="#252327"/><path d="M272.1,97.3219 L274.2,97.3219 L274.2,99.2719 L272.1,99.2719" fill="#252327"/><path d="M272.1,100.9219 L274.2,100.9219 L274.2,102.8719 L272.1,102.8719" fill="#252327"/><text fill="#000000" font-family="sans-serif" font-size="12" lengthAdjust="spacing" textLength="3.8145" x="279" y="107.4668">&#160;</text><text fill="#000000" font-family="sans-serif" font-size="12" lengthAdjust="spacing" textLength="26.1211" x="282.8145" y="107.4668">Bulk</text><text fill="#000000" font-family="sans-serif" font-size="12" lengthAdjust="spacing" textLength="3.8145" x="308.9355" y="107.4668">&#160;</text><text fill="#000000" font-family="sans-serif" font-size="12" lengthAdjust="spacing" textLength="39.4277" x="312.75" y="107.4668">Delete</text><text fill="#000000" font-family="sans-serif" font-size="12" lengthAdjust="spacing" textLength="3.8145" x="352.1777" y="107.4668">&#160;</text><text fill="#000000" font-family="sans-serif" font-size="12" lengthAdjust="spacing" textLength="47.25" x="355.9922" y="107.4668">Handler</text></g><!--entity APP_HOOYAQ--><g class="entity" data-entity="APP_HOOYAQ" data-source-line="10" data-uid="ent0005" id="entity_APP_HOOYAQ"><rect fill="#CCF2FF" height="44" rx="2" ry="2" style="stroke:#0078A0;stroke-width:0.5;" width="212.9492" x="473.5" y="76.2969"/><path d="M489.5,92.5969 L500.6,92.5969 L500.6,103.9969 L489.5,103.9969" fill="#252327"/><path d="M486.95,93.7219 L489.5,93.7219 L489.5,95.6719 L486.95,95.6719" fill="#252327"/><path d="M486.95,97.3219 L489.5,97.3219 L489.5,99.2719 L486.95,99.2719" fill="#252327"/><path d="M486.95,100.9219 L489.5,100.9219 L489.5,102.8719 L486.95,102.8719" fill="#252327"/><path d="M500.6,93.7219 L502.7,93.7219 L502.7,95.6719 L500.6,95.6719" fill="#252327"/><path d="M500.6,97.3219 L502.7,97.3219 L502.7,99.2719 L500.6,99.2719" fill="#252327"/><path d="M500.6,100.9219 L502.7,100.9219 L502.7,102.8719 L500.6,102.8719" fill="#252327"/><text fill="#000000" font-family="sans-serif" font-size="12" lengthAdjust="spacing" textLength="3.8145" x="507.5" y="107.4668">&#160;</text><text fill="#000000" font-family="sans-serif" font-size="12" lengthAdjust="spacing" textLength="34.4941" x="511.3145" y="107.4668">Batch</text><text fill="#000000" font-family="sans-serif" font-size="12" lengthAdjust="spacing" textLength="3.8145" x="545.8086" y="107.4668">&#160;</text><text fill="#000000" font-family="sans-serif" font-size="12" lengthAdjust="spacing" textLength="70.4121" x="549.623" y="107.4668">Transaction</text><text fill="#000000" font-family="sans-serif" font-size="12" lengthAdjust="spacing" textLength="3.8145" x="620.0352" y="107.4668">&#160;</text><text fill="#000000" font-family="sans-serif" font-size="12" lengthAdjust="spacing" textLength="52.5996" x="623.8496" y="107.4668">Manager</text></g><!--entity APP_PDJI8F--><g class="entity" data-entity="APP_PDJI8F" data-source-line="11" data-uid="ent0006" id="entity_APP_PDJI8F"><rect fill="#CCF2FF" height="44" rx="2" ry="2" style="stroke:#0078A0;stroke-width:0.5;" width="161.0117" x="746.5" y="76.2969"/><path d="M762.5,92.5969 L773.6,92.5969 L773.6,103.9969 L762.5,103.9969" fill="#252327"/><path d="M759.95,93.7219 L762.5,93.7219 L762.5,95.6719 L759.95,95.6719" fill="#252327"/><path d="M759.95,97.3219 L762.5,97.3219 L762.5,99.2719 L759.95,99.2719" fill="#252327"/><path d="M759.95,100.9219 L762.5,100.9219 L762.5,102.8719 L759.95,102.8719" fill="#252327"/><path d="M773.6,93.7219 L775.7,93.7219 L775.7,95.6719 L773.6,95.6719" fill="#252327"/><path d="M773.6,97.3219 L775.7,97.3219 L775.7,99.2719 L773.6,99.2719" fill="#252327"/><path d="M773.6,100.9219 L775.7,100.9219 L775.7,102.8719 L773.6,102.8719" fill="#252327"/><text fill="#000000" font-family="sans-serif" font-size="12" lengthAdjust="spacing" textLength="3.8145" x="780.5" y="107.4668">&#160;</text><text fill="#000000" font-family="sans-serif" font-size="12" lengthAdjust="spacing" textLength="59.7188" x="784.3145" y="107.4668">Operation</text><text fill="#000000" font-family="sans-serif" font-size="12" lengthAdjust="spacing" textLength="3.8145" x="844.0332" y="107.4668">&#160;</text><text fill="#000000" font-family="sans-serif" font-size="12" lengthAdjust="spacing" textLength="49.6641" x="847.8477" y="107.4668">Registry</text></g><!--entity DOB_hExrX3--><g class="entity" data-entity="DOB_hExrX3" data-source-line="29" data-uid="ent0021" id="entity_DOB_hExrX3"><rect fill="#CCF2FF" height="44" rx="2" ry="2" style="stroke:#0078A0;stroke-width:0.5;" width="153.5586" x="612" y="383.2969"/><path d="M626.5,398.9969 L641.5,398.9969 L641.5,400.9469 L626.5,400.9469" fill="#252327"/><path d="M626.5,409.6469 L641.5,409.6469 L641.5,411.5969 L626.5,411.5969" fill="#252327"/><path d="M626.5,400.9469 L626.5,409.6469 L628.45,409.6469 L628.45,400.9469" fill="#252327"/><path d="M639.55,400.9469 L639.55,409.6469 L641.5,409.6469 L641.5,400.9469" fill="#252327"/><path d="M626.5,400.7219 L641.5,400.7219 L641.5,402.6719 L626.5,402.6719" fill="#252327"/><text fill="#000000" font-family="sans-serif" font-size="12" lengthAdjust="spacing" textLength="3.8145" x="646" y="414.4668">&#160;</text><text fill="#000000" font-family="sans-serif" font-size="12" lengthAdjust="spacing" textLength="59.7188" x="649.8145" y="414.4668">Operation</text><text fill="#000000" font-family="sans-serif" font-size="12" lengthAdjust="spacing" textLength="3.8145" x="709.5332" y="414.4668">&#160;</text><text fill="#000000" font-family="sans-serif" font-size="12" lengthAdjust="spacing" textLength="42.2109" x="713.3477" y="414.4668">Record</text></g><!--entity DOB_hhYsiw--><g class="entity" data-entity="DOB_hhYsiw" data-source-line="30" data-uid="ent0022" id="entity_DOB_hhYsiw"><rect fill="#CCF2FF" height="44" rx="2" ry="2" style="stroke:#0078A0;stroke-width:0.5;" width="158.2695" x="612" y="507.2969"/><path d="M626.5,522.9969 L641.5,522.9969 L641.5,524.9469 L626.5,524.9469" fill="#252327"/><path d="M626.5,533.6469 L641.5,533.6469 L641.5,535.5969 L626.5,535.5969" fill="#252327"/><path d="M626.5,524.9469 L626.5,533.6469 L628.45,533.6469 L628.45,524.9469" fill="#252327"/><path d="M639.55,524.9469 L639.55,533.6469 L641.5,533.6469 L641.5,524.9469" fill="#252327"/><path d="M626.5,524.7219 L641.5,524.7219 L641.5,526.6719 L626.5,526.6719" fill="#252327"/><text fill="#000000" font-family="sans-serif" font-size="12" lengthAdjust="spacing" textLength="3.8145" x="646" y="538.4668">&#160;</text><text fill="#000000" font-family="sans-serif" font-size="12" lengthAdjust="spacing" textLength="42.293" x="649.8145" y="538.4668">Staged</text><text fill="#000000" font-family="sans-serif" font-size="12" lengthAdjust="spacing" textLength="3.8145" x="692.1074" y="538.4668">&#160;</text><text fill="#000000" font-family="sans-serif" font-size="12" lengthAdjust="spacing" textLength="64.3477" x="695.9219" y="538.4668">Repository</text></g><!--entity EVT_BKj6NZ--><g class="entity" data-entity="EVT_BKj6NZ" data-source-line="31" data-uid="ent0023" id="entity_EVT_BKj6NZ"><rect fill="#E0D8CC" height="44" rx="2" ry="2" style="stroke:#8C7E6A;stroke-width:0.5;" width="228.9277" x="416.5" y="879.2969"/><path d="M431.15,895.2969 L439.55,895.2969 A5.7,5.7 0 0 1 439.55,907.2969 L431.15,907.2969 L434.3,901.2969" fill="#252327"/><text fill="#000000" font-family="sans-serif" font-size="12" lengthAdjust="spacing" textLength="3.8145" x="450.5" y="910.4668">&#160;</text><text fill="#000000" font-family="sans-serif" font-size="12" lengthAdjust="spacing" textLength="42.293" x="454.3145" y="910.4668">Staged</text><text fill="#000000" font-family="sans-serif" font-size="12" lengthAdjust="spacing" textLength="3.8145" x="496.6074" y="910.4668">&#160;</text><text fill="#000000" font-family="sans-serif" font-size="12" lengthAdjust="spacing" textLength="64.3477" x="500.4219" y="910.4668">Repository</text><text fill="#000000" font-family="sans-serif" font-size="12" lengthAdjust="spacing" textLength="3.8145" x="564.7695" y="910.4668">&#160;</text><text fill="#000000" font-family="sans-serif" font-size="12" lengthAdjust="spacing" textLength="66.8438" x="568.584" y="910.4668">Committed</text></g><!--entity FNC_DrKMhV--><g class="entity" data-entity="FNC_DrKMhV" data-source-line="19" data-uid="ent0012" id="entity_FNC_DrKMhV"><rect fill="#E0D8CC" height="44" rx="2" ry="2" style="stroke:#8C7E6A;stroke-width:0.5;" width="240.875" x="278.5" y="259.2969"/><path d="M292.85,286.8469 L292.85,277.3969 L300.5,273.9469 L308.15,277.3969 L308.15,286.8469 L300.5,283.0969" fill="#252327"/><text fill="#000000" font-family="sans-serif" font-size="12" lengthAdjust="spacing" textLength="3.8145" x="312.5" y="290.4668">&#160;</text><text fill="#000000" font-family="sans-serif" font-size="12" lengthAdjust="spacing" textLength="47.1328" x="316.3145" y="290.4668">Resolve</text><text fill="#000000" font-family="sans-serif" font-size="12" lengthAdjust="spacing" textLength="3.8145" x="363.4473" y="290.4668">&#160;</text><text fill="#000000" font-family="sans-serif" font-size="12" lengthAdjust="spacing" textLength="59.7188" x="367.2617" y="290.4668">Operation</text><text fill="#000000" font-family="sans-serif" font-size="12" lengthAdjust="spacing" textLength="3.8145" x="426.9805" y="290.4668">&#160;</text><text fill="#000000" font-family="sans-serif" font-size="12" lengthAdjust="spacing" textLength="78.5801" x="430.7949" y="290.4668">Idempotency</text></g><!--entity FNC_hbgFU3--><g class="entity" data-entity="FNC_hbgFU3" data-source-line="20" data-uid="ent0013" id="entity_FNC_hbgFU3"><rect fill="#E0D8CC" height="44" rx="2" ry="2" style="stroke:#8C7E6A;stroke-width:0.5;" width="205.7773" x="302" y="383.2969"/><path d="M316.35,410.8469 L316.35,401.3969 L324,397.9469 L331.65,401.3969 L331.65,410.8469 L324,407.0969" fill="#252327"/><text fill="#000000" font-family="sans-serif" font-size="12" lengthAdjust="spacing" textLength="3.8145" x="336" y="414.4668">&#160;</text><text fill="#000000" font-family="sans-serif" font-size="12" lengthAdjust="spacing" textLength="40.1367" x="339.8145" y="414.4668">Create</text><text fill="#000000" font-family="sans-serif" font-size="12" lengthAdjust="spacing" textLength="3.8145" x="379.9512" y="414.4668">&#160;</text><text fill="#000000" font-family="sans-serif" font-size="12" lengthAdjust="spacing" textLength="45.8496" x="383.7656" y="414.4668">Staging</text><text fill="#000000" font-family="sans-serif" font-size="12" lengthAdjust="spacing" textLength="3.8145" x="429.6152" y="414.4668">&#160;</text><text fill="#000000" font-family="sans-serif" font-size="12" lengthAdjust="spacing" textLength="64.3477" x="433.4297" y="414.4668">Repository</text></g><!--entity FNC_g3H3mK--><g class="entity" data-entity="FNC_g3H3mK" data-source-line="21" data-uid="ent0014" id="entity_FNC_g3H3mK"><rect fill="#E0D8CC" height="44" rx="2" ry="2" style="stroke:#8C7E6A;stroke-width:0.5;" width="217.0039" x="296.5" y="507.2969"/><path d="M310.85,534.8469 L310.85,525.3969 L318.5,521.9469 L326.15,525.3969 L326.15,534.8469 L318.5,531.0969" fill="#252327"/><text fill="#000000" font-family="sans-serif" font-size="12" lengthAdjust="spacing" textLength="3.8145" x="330.5" y="538.4668">&#160;</text><text fill="#000000" font-family="sans-serif" font-size="12" lengthAdjust="spacing" textLength="33.8789" x="334.3145" y="538.4668">Apply</text><text fill="#000000" font-family="sans-serif" font-size="12" lengthAdjust="spacing" textLength="3.8145" x="368.1934" y="538.4668">&#160;</text><text fill="#000000" font-family="sans-serif" font-size="12" lengthAdjust="spacing" textLength="65.9707" x="372.0078" y="538.4668">Operations</text><text fill="#000000" font-family="sans-serif" font-size="12" lengthAdjust="spacing" textLength="3.8145" x="437.9785" y="538.4668">&#160;</text><text fill="#000000" font-family="sans-serif" font-size="12" lengthAdjust="spacing" textLength="12.0469" x="441.793" y="538.4668">to</text><text fill="#000000" font-family="sans-serif" font-size="12" lengthAdjust="spacing" textLength="3.8145" x="453.8398" y="538.4668">&#160;</text><text fill="#000000" font-family="sans-serif" font-size="12" lengthAdjust="spacing" textLength="45.8496" x="457.6543" y="538.4668">Staging</text></g><!--entity FNC_6PI0kV--><g class="entity" data-entity="FNC_6PI0kV" data-source-line="22" data-uid="ent0015" id="entity_FNC_6PI0kV"><rect fill="#E0D8CC" height="44" rx="2" ry="2" style="stroke:#8C7E6A;stroke-width:0.5;" width="197.2695" x="306.5" y="631.2969"/><path d="M320.85,658.8469 L320.85,649.3969 L328.5,645.9469 L336.15,649.3969 L336.15,658.8469 L328.5,655.0969" fill="#252327"/><text fill="#000000" font-family="sans-serif" font-size="12" lengthAdjust="spacing" textLength="3.8145" x="340.5" y="662.4668">&#160;</text><text fill="#000000" font-family="sans-serif" font-size="12" lengthAdjust="spacing" textLength="35.1855" x="344.3145" y="662.4668">Verify</text><text fill="#000000" font-family="sans-serif" font-size="12" lengthAdjust="spacing" textLength="3.8145" x="379.5" y="662.4668">&#160;</text><text fill="#000000" font-family="sans-serif" font-size="12" lengthAdjust="spacing" textLength="42.293" x="383.3145" y="662.4668">Staged</text><text fill="#000000" font-family="sans-serif" font-size="12" lengthAdjust="spacing" textLength="3.8145" x="425.6074" y="662.4668">&#160;</text><text fill="#000000" font-family="sans-serif" font-size="12" lengthAdjust="spacing" textLength="64.3477" x="429.4219" y="662.4668">Repository</text></g><!--entity FNC_tRAV0x--><g class="entity" data-entity="FNC_tRAV0x" data-source-line="23" data-uid="ent0016" id="entity_FNC_tRAV0x"><rect fill="#E0D8CC" height="44" rx="2" ry="2" style="stroke:#8C7E6A;stroke-width:0.5;" width="209.2227" x="300.5" y="755.2969"/><path d="M314.85,782.8469 L314.85,773.3969 L322.5,769.9469 L330.15,773.3969 L330.15,782.8469 L322.5,779.0969" fill="#252327"/><text fill="#000000" font-family="sans-serif" font-size="12" lengthAdjust="spacing" textLength="3.8145" x="334.5" y="786.4668">&#160;</text><text fill="#000000" font-family="sans-serif" font-size="12" lengthAdjust="spacing" textLength="47.1387" x="338.3145" y="786.4668">Commit</text><text fill="#000000" font-family="sans-serif" font-size="12" lengthAdjust="spacing" textLength="3.8145" x="385.4531" y="786.4668">&#160;</text><text fill="#000000" font-family="sans-serif" font-size="12" lengthAdjust="spacing" textLength="42.293" x="389.2676" y="786.4668">Staged</text><text fill="#000000" font-family="sans-serif" font-size="12" lengthAdjust="spacing" textLength="3.8145" x="431.5605" y="786.4668">&#160;</text><text fill="#000000" font-family="sans-serif" font-size="12" lengthAdjust="spacing" textLength="64.3477" x="435.375" y="786.4668">Repository</text></g><!--link APP_5n_KQJ to APP_WK_78v--><!--link APP_WK_78v to APP_HOOYAQ--><!--link APP_HOOYAQ to APP_PDJI8F--><!--link FNC_DrKMhV to FNC_hbgFU3--><!--link FNC_DrKMhV to FNC_hbgFU3--><g class="link" data-entity-1="FNC_DrKMhV" data-entity-2="FNC_hbgFU3" data-source-line="49" data-uid="lnk32" id="link_FNC_DrKMhV_FNC_hbgFU3"><path d="M439.33,303.4669 C439.33,325.8969 439.33,352.3869 439.33,374.9069" fill="none" id="FNC_DrKMhV-to-FNC_hbgFU3" style="stroke:#000000;stroke-width:1;"/><polygon fill="#000000" points="439.33,382.9069,442.33,374.9069,436.33,374.9069,439.33,382.9069" style="stroke:#000000;stroke-width:1;"/><text fill="#000000" font-family="sans-serif" font-size="12" lengthAdjust="spacing" textLength="3.8145" x="435.33" y="340.3255">&#160;</text></g><!--link FNC_hbgFU3 to FNC_g3H3mK--><!--link FNC_hbgFU3 to FNC_g3H3mK--><g class="link" data-entity-1="FNC_hbgFU3" data-entity-2="FNC_g3H3mK" data-source-line="50" data-uid="lnk33" id="link_FNC_hbgFU3_FNC_g3H3mK"><path d="M439.33,427.4669 C439.33,449.8969 439.33,476.3869 439.33,498.9069" fill="none" id="FNC_hbgFU3-to-FNC_g3H3mK" style="stroke:#000000;stroke-width:1;"/><polygon fill="#000000" points="439.33,506.9069,442.33,498.9069,436.33,498.9069,439.33,506.9069" style="stroke:#000000;stroke-width:1;"/><text fill="#000000" font-family="sans-serif" font-size="12" lengthAdjust="spacing" textLength="3.8145" x="435.33" y="464.3255">&#160;</text></g><!--link FNC_g3H3mK to FNC_6PI0kV--><!--link FNC_g3H3mK to FNC_6PI0kV--><g class="link" data-entity-1="FNC_g3H3mK" data-entity-2="FNC_6PI0kV" data-source-line="51" data-uid="lnk34" id="link_FNC_g3H3mK_FNC_6PI0kV"><path d="M437.83,551.4669 C437.83,573.8969 437.83,600.3869 437.83,622.9069" fill="none" id="FNC_g3H3mK-to-FNC_6PI0kV" style="stroke:#000000;stroke-width:1;"/><polygon fill="#000000" points="437.83,630.9069,440.83,622.9069,434.83,622.9069,437.83,630.9069" style="stroke:#000000;stroke-width:1;"/><text fill="#000000" font-family="sans-serif" font-size="12" lengthAdjust="spacing" textLength="3.8145" x="433.83" y="588.3255">&#160;</text></g><!--link FNC_6PI0kV to FNC_tRAV0x--><!--link FNC_6PI0kV to FNC_tRAV0x--><g class="link" data-entity-1="FNC_6PI0kV" data-entity-2="FNC_tRAV0x" data-source-line="52" data-uid="lnk35" id="link_FNC_6PI0kV_FNC_tRAV0x"><path d="M437.83,675.4669 C437.83,697.8969 437.83,724.3869 437.83,746.9069" fill="none" id="FNC_6PI0kV-to-FNC_tRAV0x" style="stroke:#000000;stroke-width:1;"/><polygon fill="#000000" points="437.83,754.9069,440.83,746.9069,434.83,746.9069,437.83,754.9069" style="stroke:#000000;stroke-width:1;"/><text fill="#000000" font-family="sans-serif" font-size="12" lengthAdjust="spacing" textLength="3.8145" x="433.83" y="712.3255">&#160;</text></g><!--link PRC_gtgYvQ to DOB_hExrX3--><!--link DOB_hExrX3 to DOB_hhYsiw--><!--link DOB_hhYsiw to EVT_BKj6NZ--><!--link APP_PDJI8F to PRC_gtgYvQ--><!--link APP_PDJI8F to PRC_gtgYvQ--><g class="link" data-entity-1="APP_PDJI8F" data-entity-2="PRC_gtgYvQ" data-source-line="46" data-uid="lnk31" id="link_APP_PDJI8F_PRC_gtgYvQ"><path d="M753,120.4669 C753,153.8869 753,213.2969 753,213.2969 C753,213.2969 705.78,213.2969 658.56,213.2969 C634.95,213.2969 611.34,213.2969 593.6325,213.2969 C592.5258,213.2969 591.4421,213.2969 590.383,213.2969 C589.8534,213.2969 589.3299,213.2969 588.8128,213.2969 C588.5542,213.2969 594.2972,213.2969 594.0418,213.2969" fill="none" id="APP_PDJI8F-to-PRC_gtgYvQ" style="stroke:#000000;stroke-width:1;"/><polygon fill="#000000" points="588.0418,213.2969,597.0418,217.2969,593.0418,213.2969,597.0418,209.2969,588.0418,213.2969" style="stroke:#000000;stroke-width:1;"/><text fill="#000000" font-family="sans-serif" font-size="12" lengthAdjust="spacing" textLength="3.8145" x="659.23" y="210.4355">&#160;</text></g><!--link APP_5n_KQJ to PRC_gtgYvQ--><g class="link" data-entity-1="APP_5n_KQJ" data-entity-2="PRC_gtgYvQ" data-source-line="41" data-uid="lnk28" id="link_APP_5n_KQJ_PRC_gtgYvQ"><path d="M104,120.5069 C104,140.6769 104,167.2969 104,167.2969 C104,167.2969 534.38,167.2969 534.38,167.2969 C534.38,167.2969 534.38,174.4844 534.38,185.2656 C534.38,190.6563 534.38,196.9453 534.38,203.6836 C534.38,204.5259 534.38,205.3752 534.38,206.2306 C534.38,206.6584 534.38,207.0876 534.38,207.5183 C534.38,207.7336 534.38,189.9493 534.38,190.1654" fill="none" id="APP_5n_KQJ-to-PRC_gtgYvQ" style="stroke:#000000;stroke-width:1;stroke-dasharray:1.0,3.0;"/><polygon fill="none" points="534.38,208.1654,540.38,190.1654,528.38,190.1654,534.38,208.1654" style="stroke:#000000;stroke-width:1;"/><text fill="#000000" font-family="sans-serif" font-size="12" lengthAdjust="spacing" textLength="3.8145" x="372.04" y="164.4355">&#160;</text></g><!--link APP_WK_78v to PRC_gtgYvQ--><g class="link" data-entity-1="APP_WK_78v" data-entity-2="PRC_gtgYvQ" data-source-line="42" data-uid="lnk29" id="link_APP_WK_78v_PRC_gtgYvQ"><path d="M261.75,120.5469 C261.75,130.5194 261.75,143.4167 261.75,158.3519 C261.75,165.8195 261.75,173.7965 261.75,182.1721 C261.75,186.3599 261.75,190.6473 261.75,195.0206 C261.75,197.2072 261.75,199.4152 261.75,201.643 C261.75,202.7569 261.75,203.8757 261.75,204.9992 C261.75,205.561 261.75,188.124 261.75,188.688" fill="none" id="APP_WK_78v-to-PRC_gtgYvQ" style="stroke:#000000;stroke-width:1;stroke-dasharray:1.0,3.0;"/><polygon fill="none" points="261.75,206.688,267.75,188.688,255.75,188.688,261.75,206.688" style="stroke:#000000;stroke-width:1;"/><text fill="#000000" font-family="sans-serif" font-size="12" lengthAdjust="spacing" textLength="3.8145" x="336.07" y="464.4355">&#160;</text></g><!--link APP_HOOYAQ to PRC_gtgYvQ--><g class="link" data-entity-1="APP_HOOYAQ" data-entity-2="PRC_gtgYvQ" data-source-line="45" data-uid="lnk30" id="link_APP_HOOYAQ_PRC_gtgYvQ"><path d="M580,120.3669 C580,131.9644 580,147.1725 580,163.612 C580,171.8318 580,180.3594 580,188.8975 C580,193.1665 580,197.4382 580,201.6752 C580,203.7938 580,199.9037 580,202.0003" fill="none" id="APP_HOOYAQ-to-PRC_gtgYvQ" style="stroke:#000000;stroke-width:1;"/><polygon fill="#000000" points="580,208.0003,584,199.0003,580,203.0003,576,199.0003,580,208.0003" style="stroke:#000000;stroke-width:1;"/><text fill="#000000" font-family="sans-serif" font-size="12" lengthAdjust="spacing" textLength="3.8145" x="576" y="197.6155">&#160;</text></g><!--link FNC_tRAV0x to EVT_BKj6NZ--><g class="link" data-entity-1="FNC_tRAV0x" data-entity-2="EVT_BKj6NZ" data-source-line="53" data-uid="lnk36" id="link_FNC_tRAV0x_EVT_BKj6NZ"><path d="M463,799.4669 C463,821.8969 463,848.3869 463,870.9069" fill="none" id="FNC_tRAV0x-to-EVT_BKj6NZ" style="stroke:#000000;stroke-width:1;"/><polygon fill="#000000" points="463,878.9069,466,870.9069,460,870.9069,463,878.9069" style="stroke:#000000;stroke-width:1;"/><text fill="#000000" font-family="sans-serif" font-size="12" lengthAdjust="spacing" textLength="3.8145" x="459" y="836.3255">&#160;</text></g><!--link FNC_DrKMhV to DOB_hExrX3--><g class="link" data-entity-1="FNC_DrKMhV" data-entity-2="DOB_hExrX3" data-source-line="56" data-uid="lnk37" id="link_FNC_DrKMhV_DOB_hExrX3"><path d="M519.73,293.2969 C583.72,293.2969 649.25,293.2969 649.25,293.2969 C649.25,293.2969 649.25,350.5269 649.25,383.1669" fill="none" id="FNC_DrKMhV-DOB_hExrX3" style="stroke:#000000;stroke-width:1;stroke-dasharray:1.0,3.0;"/><text fill="#000000" font-family="sans-serif" font-size="12" lengthAdjust="spacing" textLength="3.8145" x="625.42" y="290.4355">&#160;</text></g><!--link FNC_hbgFU3 to DOB_hhYsiw--><g class="link" data-entity-1="FNC_hbgFU3" data-entity-2="DOB_hhYsiw" data-source-line="57" data-uid="lnk38" id="link_FNC_hbgFU3_DOB_hhYsiw"><path d="M508.3,398.2969 C531.42,398.2969 549.25,398.2969 549.25,398.2969 C549.25,398.2969 549.25,529.2969 549.25,529.2969 C549.25,529.2969 579.37,529.2969 611.84,529.2969" fill="none" id="FNC_hbgFU3-DOB_hhYsiw" style="stroke:#000000;stroke-width:1;stroke-dasharray:1.0,3.0;"/><text fill="#000000" font-family="sans-serif" font-size="12" lengthAdjust="spacing" textLength="3.8145" x="545.25" y="471.7555">&#160;</text></g><!--SRC=[fLLjJzim4FxUNs6gIMDIsp5LC8HOfTANKIfeALqPcwR894TYIEtCTaexn7-VyrQxRJBe-7ZnS_VSFVUI7K9jFtG0rMeVBSnjZqonXAgGm879HG2Y5eHJlxIJZtFzHU2b4Ca291cwPLAoAN881riIHaibIQGFg3C7EvI0hYHsmK4deV-01W5md80YDAQk0fQRGU0JE_vUHiV7XlcLip0Wr6qqq5C98SFd-DqoASjmQB5fm2XG-IHixCENJxNzvqR2VSs9okOKKyS7liQpT5D4MA3cS6ZjKwj_UVPMqZRui0thTT_wV3Xx2okMjeV675E1utQWSqnL0rx1VJeOt3Glty2zx2uQWKk4v8kNIOVjizvXLv5gpL7rfqSS1-WlJbnFLbU5qKOkRbc4Dd9nAU_poY0EERD1Y2XhbUhqjVENkgreyS_fZmXIfqI9uQXbkTAzcLt6F8LCtP36JLsX6e5W_WmC-NiEAA4bK3lkGEQLS7KlMbQRzy-zoTPCBGuuhKc9eeW39eXal835ktMxt-fRiqG3iz3LYEZ8f9JvF6xzj3xjRyqp0Kxk5bc7NYhcODZRU_WFoTGS4VbQ4ZbgJlRcCObkqyRyhcchpLoaeOusSv56YThCHIxpV2xUYZQMU71xhnuBZuJDk1C9eQ695Et1YULrvlnxVUlmkKBdnlTk17aiZj-PhP-tZT1fSoN4HSGEIVpEP6oTzEyFBdwe-CPkhqkvKgSsyd5PljhOm1cywh2zHpsgVkjL7o-08qnjZ_6IldtQss6Fj6ha6RcE0FlaJzoe8sHdTrkWQWC5oUKgZS2t3DYklk0L8rW5bSiVSh795T_4AlOhu3ErxaT8X470k8okJN4IANfNd_py14nSea4k-LYfgNwOCVzTkg98mEzGtLE80sd4hbxJYh68cdCDcZthJIo4Pizw5GkXsRDUpK9ezgn7PLbtquuKrJN7EZjgTH2BToSHEq6jrAqdLzCQiAncFRW9x2y0]--></g></svg>