<svg xmlns="http://www.w3.org/2000/svg" xmlns:xlink="http://www.w3.org/1999/xlink" contentStyleType="text/css" data-diagram-type="DESCRIPTION" height="1072px" preserveAspectRatio="none" style="width:1434px;height:1072px;background:#FAFAFA;" version="1.1" viewBox="0 0 1434 1072" width="1434px" zoomAndPan="magnify"><title>From Write to Consistent State</title><defs/><g><rect fill="#FAFAFA" height="1072" style="stroke:none;stroke-width:1;" width="1434" x="0" y="0"/><text fill="#000000" font-family="sans-serif" font-size="14" font-weight="bold" lengthAdjust="spacing" textLength="246.3945" x="586.8027" y="22.9951">From Write to Consistent State</text><!--cluster GRP_WRITE--><g class="cluster" data-entity="GRP_WRITE" data-source-line="23" data-uid="ent0002" id="cluster_GRP_WRITE"><rect fill="#EDE8E1" height="108" rx="2" ry="2" style="stroke:#8C7E6A;stroke-width:1;" width="771" x="7" y="44.2969"/><text fill="#000000" font-family="sans-serif" font-size="12" font-weight="bold" lengthAdjust="spacing" textLength="103.9922" x="340.5039" y="57.4355">Write Requests</text></g><!--cluster GRP_CHANGE--><g class="cluster" data-entity="GRP_CHANGE" data-source-line="31" data-uid="ent0008" id="cluster_GRP_CHANGE"><rect fill="#EDE8E1" height="108" rx="2" ry="2" style="stroke:#8C7E6A;stroke-width:1;" width="612" x="816" y="451.2969"/><text fill="#000000" font-family="sans-serif" font-size="12" font-weight="bold" lengthAdjust="spacing" textLength="100.4766" x="1071.7617" y="464.4355">Change Events</text></g><!--cluster PRC_wqtZ0P--><g class="cluster" data-entity="PRC_wqtZ0P" data-source-line="39" data-uid="ent0013" id="cluster_PRC_wqtZ0P"><rect fill="#E0D8CC" height="774" rx="2" ry="2" style="stroke:#8C7E6A;stroke-width:1;" width="574" x="202" y="192.2969"/><path d="M382.6471,200.4469 L392.0971,200.4469 L392.0971,198.4969 L398.8471,206.2969 L392.0971,214.0969 L392.0971,212.1469 L382.6471,212.1469" fill="#252327"/><text fill="#000000" font-family="sans-serif" font-size="12" font-weight="bold" lengthAdjust="spacing" textLength="192.3281" x="406.9248" y="215.4668">Coordinate Repository State</text></g><!--cluster FNC_dxb6ru--><g class="cluster" data-entity="FNC_dxb6ru" data-source-line="43" data-uid="ent0017" id="cluster_FNC_dxb6ru"><rect fill="#E0D8CC" height="119" rx="2" ry="2" style="stroke:#8C7E6A;stroke-width:1;" width="486" x="250" y="599.2969"/><path d="M425.8393,618.8469 L425.8393,609.3969 L433.4893,605.9469 L441.1393,609.3969 L441.1393,618.8469 L433.4893,615.0969" fill="#252327"/><text fill="#000000" font-family="sans-serif" font-size="12" font-weight="bold" lengthAdjust="spacing" textLength="114.8438" x="449.667" y="622.4668">Index Repository</text></g><!--entity EVT_tTktu8--><g class="entity" data-entity="EVT_tTktu8" data-source-line="24" data-uid="ent0003" id="entity_EVT_tTktu8"><rect fill="#E0D8CC" height="44" rx="2" ry="2" style="stroke:#8C7E6A;stroke-width:0.5;" width="196.0098" x="276" y="84.2969"/><path d="M290.65,100.2969 L299.05,100.2969 A5.7,5.7 0 0 1 299.05,112.2969 L290.65,112.2969 L293.8,106.2969" fill="#252327"/><text fill="#000000" font-family="sans-serif" font-size="12" lengthAdjust="spacing" textLength="3.8145" x="310" y="115.4668">&#160;</text><text fill="#000000" font-family="sans-serif" font-size="12" lengthAdjust="spacing" textLength="44.0625" x="313.8145" y="115.4668">Artifact</text><text fill="#000000" font-family="sans-serif" font-size="12" lengthAdjust="spacing" textLength="3.8145" x="357.877" y="115.4668">&#160;</text><text fill="#000000" font-family="sans-serif" font-size="12" lengthAdjust="spacing" textLength="32.2207" x="361.6914" y="115.4668">Write</text><text fill="#000000" font-family="sans-serif" font-size="12" lengthAdjust="spacing" textLength="3.8145" x="393.9121" y="115.4668">&#160;</text><text fill="#000000" font-family="sans-serif" font-size="12" lengthAdjust="spacing" textLength="64.2832" x="397.7266" y="115.4668">Requested</text></g><!--entity EVT_diAYsj--><g class="entity" data-entity="EVT_diAYsj" data-source-line="25" data-uid="ent0004" id="entity_EVT_diAYsj"><rect fill="#E0D8CC" height="44" rx="2" ry="2" style="stroke:#8C7E6A;stroke-width:0.5;" width="178.0684" x="532" y="84.2969"/><path d="M546.65,100.2969 L555.05,100.2969 A5.7,5.7 0 0 1 555.05,112.2969 L546.65,112.2969 L549.8,106.2969" fill="#252327"/><text fill="#000000" font-family="sans-serif" font-size="12" lengthAdjust="spacing" textLength="3.8145" x="566" y="115.4668">&#160;</text><text fill="#000000" font-family="sans-serif" font-size="12" lengthAdjust="spacing" textLength="26.1211" x="569.8145" y="115.4668">Bulk</text><text fill="#000000" font-family="sans-serif" font-size="12" lengthAdjust="spacing" textLength="3.8145" x="595.9355" y="115.4668">&#160;</text><text fill="#000000" font-family="sans-serif" font-size="12" lengthAdjust="spacing" textLength="32.2207" x="599.75" y="115.4668">Write</text><text fill="#000000" font-family="sans-serif" font-size="12" lengthAdjust="spacing" textLength="3.8145" x="631.9707" y="115.4668">&#160;</text><text fill="#000000" font-family="sans-serif" font-size="12" lengthAdjust="spacing" textLength="64.2832" x="635.7852" y="115.4668">Requested</text></g><!--entity EVT_mE9P1--><g class="entity" data-entity="EVT_mE9P1" data-source-line="26" data-uid="ent0005" id="entity_EVT_mE9P1"><rect fill="#E0D8CC" height="44" rx="2" ry="2" style="stroke:#8C7E6A;stroke-width:0.5;" width="185.2754" x="30.5" y="84.2969"/><path d="M45.15,100.2969 L53.55,100.2969 A5.7,5.7 0 0 1 53.55,112.2969 L45.15,112.2969 L48.3,106.2969" fill="#252327"/><text fill="#000000" font-family="sans-serif" font-size="12" lengthAdjust="spacing" textLength="3.8145" x="64.5" y="115.4668">&#160;</text><text fill="#000000" font-family="sans-serif" font-size="12" lengthAdjust="spacing" textLength="26.1211" x="68.3145" y="115.4668">Bulk</text><text fill="#000000" font-family="sans-serif" font-size="12" lengthAdjust="spacing" textLength="3.8145" x="94.4355" y="115.4668">&#160;</text><text fill="#000000" font-family="sans-serif" font-size="12" lengthAdjust="spacing" textLength="39.4277" x="98.25" y="115.4668">Delete</text><text fill="#000000" font-family="sans-serif" font-size="12" lengthAdjust="spacing" textLength="3.8145" x="137.6777" y="115.4668">&#160;</text><text fill="#000000" font-family="sans-serif" font-size="12" lengthAdjust="spacing" textLength="64.2832" x="141.4922" y="115.4668">Requested</text></g><!--entity EVT_hDF1Qz--><g class="entity" data-entity="EVT_hDF1Qz" data-source-line="32" data-uid="ent0009" id="entity_EVT_hDF1Qz"><rect fill="#E0D8CC" height="44" rx="2" ry="2" style="stroke:#8C7E6A;stroke-width:0.5;" width="160.1914" x="884" y="491.2969"/><path d="M898.65,507.2969 L907.05,507.2969 A5.7,5.7 0 0 1 907.05,519.2969 L898.65,519.2969 L901.8,513.2969" fill="#252327"/><text fill="#000000" font-family="sans-serif" font-size="12" lengthAdjust="spacing" textLength="3.8145" x="918" y="522.4668">&#160;</text><text fill="#000000" font-family="sans-serif" font-size="12" lengthAdjust="spacing" textLength="50.3145" x="921.8145" y="522.4668">Artifacts</text><text fill="#000000" font-family="sans-serif" font-size="12" lengthAdjust="spacing" textLength="3.8145" x="972.1289" y="522.4668">&#160;</text><text fill="#000000" font-family="sans-serif" font-size="12" lengthAdjust="spacing" textLength="58.248" x="975.9434" y="522.4668">Promoted</text></g><!--entity EVT_UCrh3V--><g class="entity" data-entity="EVT_UCrh3V" data-source-line="33" data-uid="ent0010" id="entity_EVT_UCrh3V"><rect fill="#E0D8CC" height="44" rx="2" ry="2" style="stroke:#8C7E6A;stroke-width:0.5;" width="298.5547" x="1104.5" y="491.2969"/><path d="M1119.15,507.2969 L1127.55,507.2969 A5.7,5.7 0 0 1 1127.55,519.2969 L1119.15,519.2969 L1122.3,513.2969" fill="#252327"/><text fill="#000000" font-family="sans-serif" font-size="12" lengthAdjust="spacing" textLength="3.8145" x="1138.5" y="522.4668">&#160;</text><text fill="#000000" font-family="sans-serif" font-size="12" lengthAdjust="spacing" textLength="73.9922" x="1142.3145" y="522.4668">Architecture</text><text fill="#000000" font-family="sans-serif" font-size="12" lengthAdjust="spacing" textLength="3.8145" x="1216.3066" y="522.4668">&#160;</text><text fill="#000000" font-family="sans-serif" font-size="12" lengthAdjust="spacing" textLength="64.3477" x="1220.1211" y="522.4668">Repository</text><text fill="#000000" font-family="sans-serif" font-size="12" lengthAdjust="spacing" textLength="3.8145" x="1284.4688" y="522.4668">&#160;</text><text fill="#000000" font-family="sans-serif" font-size="12" lengthAdjust="spacing" textLength="45.9434" x="1288.2832" y="522.4668">Change</text><text fill="#000000" font-family="sans-serif" font-size="12" lengthAdjust="spacing" textLength="3.8145" x="1334.2266" y="522.4668">&#160;</text><text fill="#000000" font-family="sans-serif" font-size="12" lengthAdjust="spacing" textLength="55.0137" x="1338.041" y="522.4668">Detected</text></g><!--entity FNC_YD31f3--><g class="entity" data-entity="FNC_YD31f3" data-source-line="40" data-uid="ent0014" id="entity_FNC_YD31f3"><rect fill="#E0D8CC" height="44" rx="2" ry="2" style="stroke:#8C7E6A;stroke-width:0.5;" width="208.373" x="270" y="243.2969"/><path d="M284.35,270.8469 L284.35,261.3969 L292,257.9469 L299.65,261.3969 L299.65,270.8469 L292,267.0969" fill="#252327"/><text fill="#000000" font-family="sans-serif" font-size="12" lengthAdjust="spacing" textLength="3.8145" x="304" y="274.4668">&#160;</text><text fill="#000000" font-family="sans-serif" font-size="12" lengthAdjust="spacing" textLength="52.7813" x="307.8145" y="274.4668">Enqueue</text><text fill="#000000" font-family="sans-serif" font-size="12" lengthAdjust="spacing" textLength="3.8145" x="360.5957" y="274.4668">&#160;</text><text fill="#000000" font-family="sans-serif" font-size="12" lengthAdjust="spacing" textLength="32.2207" x="364.4102" y="274.4668">Write</text><text fill="#000000" font-family="sans-serif" font-size="12" lengthAdjust="spacing" textLength="3.8145" x="396.6309" y="274.4668">&#160;</text><text fill="#000000" font-family="sans-serif" font-size="12" lengthAdjust="spacing" textLength="67.9277" x="400.4453" y="274.4668">Commands</text></g><!--entity PRC_gtgYvQ--><g class="entity" data-entity="PRC_gtgYvQ" data-source-line="41" data-uid="ent0015" id="entity_PRC_gtgYvQ"><rect fill="#E0D8CC" height="44" rx="2" ry="2" style="stroke:#8C7E6A;stroke-width:0.5;" width="235.748" x="250" y="367.2969"/><path d="M263.9,383.4469 L273.35,383.4469 L273.35,381.4969 L280.1,389.2969 L273.35,397.0969 L273.35,395.1469 L263.9,395.1469" fill="#252327"/><text fill="#000000" font-family="sans-serif" font-size="12" lengthAdjust="spacing" textLength="3.8145" x="284" y="398.4668">&#160;</text><text fill="#000000" font-family="sans-serif" font-size="12" lengthAdjust="spacing" textLength="48.3574" x="287.8145" y="398.4668">Execute</text><text fill="#000000" font-family="sans-serif" font-size="12" lengthAdjust="spacing" textLength="3.8145" x="336.1719" y="398.4668">&#160;</text><text fill="#000000" font-family="sans-serif" font-size="12" lengthAdjust="spacing" textLength="42.293" x="339.9863" y="398.4668">Staged</text><text fill="#000000" font-family="sans-serif" font-size="12" lengthAdjust="spacing" textLength="3.8145" x="382.2793" y="398.4668">&#160;</text><text fill="#000000" font-family="sans-serif" font-size="12" lengthAdjust="spacing" textLength="26.1211" x="386.0938" y="398.4668">Bulk</text><text fill="#000000" font-family="sans-serif" font-size="12" lengthAdjust="spacing" textLength="3.8145" x="412.2148" y="398.4668">&#160;</text><text fill="#000000" font-family="sans-serif" font-size="12" lengthAdjust="spacing" textLength="59.7188" x="416.0293" y="398.4668">Operation</text></g><!--entity EVT_BKj6NZ--><g class="entity" data-entity="EVT_BKj6NZ" data-source-line="42" data-uid="ent0016" id="entity_EVT_BKj6NZ"><rect fill="#E0D8CC" height="44" rx="2" ry="2" style="stroke:#8C7E6A;stroke-width:0.5;" width="228.9277" x="246.5" y="491.2969"/><path d="M261.15,507.2969 L269.55,507.2969 A5.7,5.7 0 0 1 269.55,519.2969 L261.15,519.2969 L264.3,513.2969" fill="#252327"/><text fill="#000000" font-family="sans-serif" font-size="12" lengthAdjust="spacing" textLength="3.8145" x="280.5" y="522.4668">&#160;</text><text fill="#000000" font-family="sans-serif" font-size="12" lengthAdjust="spacing" textLength="42.293" x="284.3145" y="522.4668">Staged</text><text fill="#000000" font-family="sans-serif" font-size="12" lengthAdjust="spacing" textLength="3.8145" x="326.6074" y="522.4668">&#160;</text><text fill="#000000" font-family="sans-serif" font-size="12" lengthAdjust="spacing" textLength="64.3477" x="330.4219" y="522.4668">Repository</text><text fill="#000000" font-family="sans-serif" font-size="12" lengthAdjust="spacing" textLength="3.8145" x="394.7695" y="522.4668">&#160;</text><text fill="#000000" font-family="sans-serif" font-size="12" lengthAdjust="spacing" textLength="66.8438" x="398.584" y="522.4668">Committed</text></g><!--entity EVT_b6XB2D--><g class="entity" data-entity="EVT_b6XB2D" data-source-line="48" data-uid="ent0021" id="entity_EVT_b6XB2D"><rect fill="#E0D8CC" height="44" rx="2" ry="2" style="stroke:#8C7E6A;stroke-width:0.5;" width="164.2227" x="241" y="774.2969"/><path d="M255.65,790.2969 L264.05,790.2969 A5.7,5.7 0 0 1 264.05,802.2969 L255.65,802.2969 L258.8,796.2969" fill="#252327"/><text fill="#000000" font-family="sans-serif" font-size="12" lengthAdjust="spacing" textLength="3.8145" x="275" y="805.4668">&#160;</text><text fill="#000000" font-family="sans-serif" font-size="12" lengthAdjust="spacing" textLength="64.3477" x="278.8145" y="805.4668">Repository</text><text fill="#000000" font-family="sans-serif" font-size="12" lengthAdjust="spacing" textLength="3.8145" x="343.1621" y="805.4668">&#160;</text><text fill="#000000" font-family="sans-serif" font-size="12" lengthAdjust="spacing" textLength="48.2461" x="346.9766" y="805.4668">Indexed</text></g><!--entity FNC_3ZsfnT--><g class="entity" data-entity="FNC_3ZsfnT" data-source-line="49" data-uid="ent0022" id="entity_FNC_3ZsfnT"><rect fill="#E0D8CC" height="44" rx="2" ry="2" style="stroke:#8C7E6A;stroke-width:0.5;" width="195.3184" x="233.5" y="898.2969"/><path d="M247.85,925.8469 L247.85,916.3969 L255.5,912.9469 L263.15,916.3969 L263.15,925.8469 L255.5,922.0969" fill="#252327"/><text fill="#000000" font-family="sans-serif" font-size="12" lengthAdjust="spacing" textLength="3.8145" x="267.5" y="929.4668">&#160;</text><text fill="#000000" font-family="sans-serif" font-size="12" lengthAdjust="spacing" textLength="60.3867" x="271.3145" y="929.4668">Broadcast</text><text fill="#000000" font-family="sans-serif" font-size="12" lengthAdjust="spacing" textLength="3.8145" x="331.7012" y="929.4668">&#160;</text><text fill="#000000" font-family="sans-serif" font-size="12" lengthAdjust="spacing" textLength="36.0293" x="335.5156" y="929.4668">Model</text><text fill="#000000" font-family="sans-serif" font-size="12" lengthAdjust="spacing" textLength="3.8145" x="371.5449" y="929.4668">&#160;</text><text fill="#000000" font-family="sans-serif" font-size="12" lengthAdjust="spacing" textLength="43.459" x="375.3594" y="929.4668">Update</text></g><!--entity FNC_b3mOTJ--><g class="entity" data-entity="FNC_b3mOTJ" data-source-line="44" data-uid="ent0018" id="entity_FNC_b3mOTJ"><rect fill="#E0D8CC" height="44" rx="2" ry="2" style="stroke:#8C7E6A;stroke-width:0.5;" width="190.2734" x="318" y="650.2969"/><path d="M332.35,677.8469 L332.35,668.3969 L340,664.9469 L347.65,668.3969 L347.65,677.8469 L340,674.0969" fill="#252327"/><text fill="#000000" font-family="sans-serif" font-size="12" lengthAdjust="spacing" textLength="3.8145" x="352" y="681.4668">&#160;</text><text fill="#000000" font-family="sans-serif" font-size="12" lengthAdjust="spacing" textLength="30.123" x="355.8145" y="681.4668">Build</text><text fill="#000000" font-family="sans-serif" font-size="12" lengthAdjust="spacing" textLength="3.8145" x="385.9375" y="681.4668">&#160;</text><text fill="#000000" font-family="sans-serif" font-size="12" lengthAdjust="spacing" textLength="67.8984" x="389.752" y="681.4668">Connection</text><text fill="#000000" font-family="sans-serif" font-size="12" lengthAdjust="spacing" textLength="3.8145" x="457.6504" y="681.4668">&#160;</text><text fill="#000000" font-family="sans-serif" font-size="12" lengthAdjust="spacing" textLength="36.8086" x="461.4648" y="681.4668">Graph</text></g><!--entity FNC_nJYA2--><g class="entity" data-entity="FNC_nJYA2" data-source-line="45" data-uid="ent0019" id="entity_FNC_nJYA2"><rect fill="#E0D8CC" height="44" rx="2" ry="2" style="stroke:#8C7E6A;stroke-width:0.5;" width="143.3516" x="568.5" y="650.2969"/><path d="M582.85,677.8469 L582.85,668.3969 L590.5,664.9469 L598.15,668.3969 L598.15,677.8469 L590.5,674.0969" fill="#252327"/><text fill="#000000" font-family="sans-serif" font-size="12" lengthAdjust="spacing" textLength="3.8145" x="602.5" y="681.4668">&#160;</text><text fill="#000000" font-family="sans-serif" font-size="12" lengthAdjust="spacing" textLength="28.4824" x="606.3145" y="681.4668">Alias</text><text fill="#000000" font-family="sans-serif" font-size="12" lengthAdjust="spacing" textLength="3.8145" x="634.7969" y="681.4668">&#160;</text><text fill="#000000" font-family="sans-serif" font-size="12" lengthAdjust="spacing" textLength="63.2402" x="638.6113" y="681.4668">Resolution</text></g><!--entity APP_lmO0mp--><g class="entity" data-entity="APP_lmO0mp" data-source-line="57" data-uid="ent0028" id="entity_APP_lmO0mp"><rect fill="#CCF2FF" height="44" rx="2" ry="2" style="stroke:#0078A0;stroke-width:0.5;" width="161.3691" x="155.5" y="1022.2969"/><path d="M171.5,1038.5969 L182.6,1038.5969 L182.6,1049.9969 L171.5,1049.9969" fill="#252327"/><path d="M168.95,1039.7219 L171.5,1039.7219 L171.5,1041.6719 L168.95,1041.6719" fill="#252327"/><path d="M168.95,1043.3219 L171.5,1043.3219 L171.5,1045.2719 L168.95,1045.2719" fill="#252327"/><path d="M168.95,1046.9219 L171.5,1046.9219 L171.5,1048.8719 L168.95,1048.8719" fill="#252327"/><path d="M182.6,1039.7219 L184.7,1039.7219 L184.7,1041.6719 L182.6,1041.6719" fill="#252327"/><path d="M182.6,1043.3219 L184.7,1043.3219 L184.7,1045.2719 L182.6,1045.2719" fill="#252327"/><path d="M182.6,1046.9219 L184.7,1046.9219 L184.7,1048.8719 L182.6,1048.8719" fill="#252327"/><text fill="#000000" font-family="sans-serif" font-size="12" lengthAdjust="spacing" textLength="3.8145" x="189.5" y="1053.4668">&#160;</text><text fill="#000000" font-family="sans-serif" font-size="12" lengthAdjust="spacing" textLength="21.6211" x="193.3145" y="1053.4668">GUI</text><text fill="#000000" font-family="sans-serif" font-size="12" lengthAdjust="spacing" textLength="3.8145" x="214.9355" y="1053.4668">&#160;</text><text fill="#000000" font-family="sans-serif" font-size="12" lengthAdjust="spacing" textLength="58.957" x="218.75" y="1053.4668">Authoring</text><text fill="#000000" font-family="sans-serif" font-size="12" lengthAdjust="spacing" textLength="3.8145" x="277.707" y="1053.4668">&#160;</text><text fill="#000000" font-family="sans-serif" font-size="12" lengthAdjust="spacing" textLength="25.3477" x="281.5215" y="1053.4668">Tool</text></g><!--link EVT_tTktu8 to EVT_diAYsj--><!--link EVT_diAYsj to EVT_mE9P1--><!--link EVT_hDF1Qz to EVT_UCrh3V--><!--link GRP_WRITE to GRP_CHANGE--><!--link FNC_b3mOTJ to FNC_nJYA2--><!--link FNC_YD31f3 to PRC_gtgYvQ--><!--link FNC_YD31f3 to PRC_gtgYvQ--><g class="link" data-entity-1="FNC_YD31f3" data-entity-2="PRC_gtgYvQ" data-source-line="66" data-uid="lnk34" id="link_FNC_YD31f3_PRC_gtgYvQ"><path d="M408.67,287.4669 C408.67,309.8969 408.67,336.3869 408.67,358.9069" fill="none" id="FNC_YD31f3-to-PRC_gtgYvQ" style="stroke:#000000;stroke-width:1;"/><polygon fill="#000000" points="408.67,366.9069,411.67,358.9069,405.67,358.9069,408.67,366.9069" style="stroke:#000000;stroke-width:1;"/><text fill="#000000" font-family="sans-serif" font-size="12" lengthAdjust="spacing" textLength="3.8145" x="404.67" y="324.3255">&#160;</text></g><!--link PRC_gtgYvQ to EVT_BKj6NZ--><!--link PRC_gtgYvQ to EVT_BKj6NZ--><g class="link" data-entity-1="PRC_gtgYvQ" data-entity-2="EVT_BKj6NZ" data-source-line="67" data-uid="lnk35" id="link_PRC_gtgYvQ_EVT_BKj6NZ"><path d="M400.33,411.4669 C400.33,433.8969 400.33,460.3869 400.33,482.9069" fill="none" id="PRC_gtgYvQ-to-EVT_BKj6NZ" style="stroke:#000000;stroke-width:1;"/><polygon fill="#000000" points="400.33,490.9069,403.33,482.9069,397.33,482.9069,400.33,490.9069" style="stroke:#000000;stroke-width:1;"/><text fill="#000000" font-family="sans-serif" font-size="12" lengthAdjust="spacing" textLength="3.8145" x="396.33" y="448.3255">&#160;</text></g><!--link EVT_BKj6NZ to FNC_dxb6ru--><!--link EVT_BKj6NZ to FNC_dxb6ru--><g class="link" data-entity-1="EVT_BKj6NZ" data-entity-2="FNC_dxb6ru" data-source-line="68" data-uid="lnk36" id="link_EVT_BKj6NZ_FNC_dxb6ru"><path d="M278.67,535.4069 C278.67,546.3294 278.67,560.3463 278.67,575.2277 C278.67,582.6684 278.67,590.3252 278.67,597.9194 C278.67,598.1568 278.67,590.394 278.67,590.6312" fill="none" id="EVT_BKj6NZ-to-FNC_dxb6ru" style="stroke:#000000;stroke-width:1;"/><polygon fill="#000000" points="278.67,598.6312,281.67,590.6312,275.67,590.6312,278.67,598.6312" style="stroke:#000000;stroke-width:1;"/><text fill="#000000" font-family="sans-serif" font-size="12" lengthAdjust="spacing" textLength="3.8145" x="274.67" y="611.0655">&#160;</text></g><!--link FNC_dxb6ru to EVT_b6XB2D--><!--link FNC_dxb6ru to EVT_b6XB2D--><g class="link" data-entity-1="FNC_dxb6ru" data-entity-2="EVT_b6XB2D" data-source-line="75" data-uid="lnk39" id="link_FNC_dxb6ru_EVT_b6XB2D"><path d="M251.75,718.41 C251.75,718.5816 251.75,718.7534 251.75,718.9254 C251.75,719.2694 251.75,719.614 251.75,719.9593 C251.75,720.6498 251.75,721.3429 251.75,722.038 C251.75,723.4284 251.75,724.8274 251.75,726.2319 C251.75,731.8502 251.75,737.5584 251.75,743.1677 C251.75,754.3863 251.75,757.2094 251.75,766.1269" fill="none" id="FNC_dxb6ru-to-EVT_b6XB2D" style="stroke:#000000;stroke-width:1;"/><polygon fill="#000000" points="251.75,774.1269,254.75,766.1269,248.75,766.1269,251.75,774.1269" style="stroke:#000000;stroke-width:1;"/><text fill="#000000" font-family="sans-serif" font-size="12" lengthAdjust="spacing" textLength="3.8145" x="247.75" y="717.5155">&#160;</text></g><!--link EVT_b6XB2D to FNC_3ZsfnT--><!--link EVT_b6XB2D to FNC_3ZsfnT--><g class="link" data-entity-1="EVT_b6XB2D" data-entity-2="FNC_3ZsfnT" data-source-line="76" data-uid="lnk40" id="link_EVT_b6XB2D_FNC_3ZsfnT"><path d="M350.33,818.4669 C350.33,840.8969 350.33,867.3869 350.33,889.9069" fill="none" id="EVT_b6XB2D-to-FNC_3ZsfnT" style="stroke:#000000;stroke-width:1;"/><polygon fill="#000000" points="350.33,897.9069,353.33,889.9069,347.33,889.9069,350.33,897.9069" style="stroke:#000000;stroke-width:1;"/><text fill="#000000" font-family="sans-serif" font-size="12" lengthAdjust="spacing" textLength="3.8145" x="346.33" y="855.3255">&#160;</text></g><!--link GRP_WRITE to PRC_wqtZ0P--><!--link PRC_wqtZ0P to APP_lmO0mp--><!--link EVT_tTktu8 to FNC_YD31f3--><g class="link" data-entity-1="EVT_tTktu8" data-entity-2="FNC_YD31f3" data-source-line="63" data-uid="lnk31" id="link_EVT_tTktu8_FNC_YD31f3"><path d="M374,128.4069 C374,158.6969 374,204.7969 374,235.1169" fill="none" id="EVT_tTktu8-to-FNC_YD31f3" style="stroke:#000000;stroke-width:1;"/><polygon fill="#000000" points="374,243.1169,377,235.1169,371,235.1169,374,243.1169" style="stroke:#000000;stroke-width:1;"/><text fill="#000000" font-family="sans-serif" font-size="12" lengthAdjust="spacing" textLength="3.8145" x="370" y="182.9055">&#160;</text></g><!--link EVT_diAYsj to FNC_YD31f3--><g class="link" data-entity-1="EVT_diAYsj" data-entity-2="FNC_YD31f3" data-source-line="64" data-uid="lnk32" id="link_EVT_diAYsj_FNC_YD31f3"><path d="M556.33,128.4069 C556.33,172.0969 556.33,265.2969 556.33,265.2969 C556.33,265.2969 527.06,265.2969 486.21,265.2969" fill="none" id="EVT_diAYsj-to-FNC_YD31f3" style="stroke:#000000;stroke-width:1;"/><polygon fill="#000000" points="478.21,265.2969,486.21,268.2969,486.21,262.2969,478.21,265.2969" style="stroke:#000000;stroke-width:1;"/><text fill="#000000" font-family="sans-serif" font-size="12" lengthAdjust="spacing" textLength="3.8145" x="552.33" y="233.0455">&#160;</text></g><!--link EVT_mE9P1 to FNC_YD31f3--><g class="link" data-entity-1="EVT_mE9P1" data-entity-2="FNC_YD31f3" data-source-line="65" data-uid="lnk33" id="link_EVT_mE9P1_FNC_YD31f3"><path d="M210,128.4569 C210,169.7369 210,254.2969 210,254.2969 C210,254.2969 229.33,254.2969 261.67,254.2969" fill="none" id="EVT_mE9P1-to-FNC_YD31f3" style="stroke:#000000;stroke-width:1;"/><polygon fill="#000000" points="269.67,254.2969,261.67,251.2969,261.67,257.2969,269.67,254.2969" style="stroke:#000000;stroke-width:1;"/><text fill="#000000" font-family="sans-serif" font-size="12" lengthAdjust="spacing" textLength="3.8145" x="206" y="218.3455">&#160;</text></g><!--link EVT_hDF1Qz to FNC_dxb6ru--><g class="link" data-entity-1="EVT_hDF1Qz" data-entity-2="FNC_dxb6ru" data-source-line="71" data-uid="lnk37" id="link_EVT_hDF1Qz_FNC_dxb6ru"><path d="M964,535.3169 C964,552.7969 964,574.2969 964,574.2969 C964,574.2969 258.33,574.2969 258.33,574.2969 C258.33,574.2969 258.33,580.045 258.33,588.757 C258.33,590.935 258.33,593.2983 258.33,595.8033 C258.33,596.4295 258.33,597.0646 258.33,597.7079 C258.33,598.0296 258.33,598.3533 258.33,598.6789 C258.33,598.8417 258.33,591.005 258.33,591.1688" fill="none" id="EVT_hDF1Qz-to-FNC_dxb6ru" style="stroke:#000000;stroke-width:1;"/><polygon fill="#000000" points="258.33,599.1688,261.33,591.1688,255.33,591.1688,258.33,599.1688" style="stroke:#000000;stroke-width:1;"/><text fill="#000000" font-family="sans-serif" font-size="12" lengthAdjust="spacing" textLength="3.8145" x="577.8" y="571.4355">&#160;</text></g><!--link EVT_UCrh3V to FNC_dxb6ru--><g class="link" data-entity-1="EVT_UCrh3V" data-entity-2="FNC_dxb6ru" data-source-line="72" data-uid="lnk38" id="link_EVT_UCrh3V_FNC_dxb6ru"><path d="M1254,535.7569 C1254,564.9669 1254,612.2969 1254,612.2969 C1254,612.2969 1015.0825,612.2969 776.165,612.2969 C768.6988,612.2969 761.2327,612.2969 753.7738,612.2969 C750.0443,612.2969 746.3167,612.2969 742.5918,612.2969 C740.7294,612.2969 746.8676,612.2969 745.0067,612.2969" fill="none" id="EVT_UCrh3V-to-FNC_dxb6ru" style="stroke:#000000;stroke-width:1;"/><polygon fill="#000000" points="737.0067,612.2969,745.0067,615.2969,745.0067,609.2969,737.0067,612.2969" style="stroke:#000000;stroke-width:1;"/><text fill="#000000" font-family="sans-serif" font-size="12" lengthAdjust="spacing" textLength="3.8145" x="759.83" y="609.4355">&#160;</text></g><!--link FNC_3ZsfnT to APP_lmO0mp--><g class="link" data-entity-1="FNC_3ZsfnT" data-entity-2="APP_lmO0mp" data-source-line="77" data-uid="lnk41" id="link_FNC_3ZsfnT_APP_lmO0mp"><path d="M275,942.4669 C275,964.8969 275,993.3869 275,1015.9069" fill="none" id="FNC_3ZsfnT-to-APP_lmO0mp" style="stroke:#000000;stroke-width:1;"/><polygon fill="#000000" points="275,1021.9069,279,1012.9069,275,1016.9069,271,1012.9069,275,1021.9069" style="stroke:#000000;stroke-width:1;"/><text fill="#000000" font-family="sans-serif" font-size="12" lengthAdjust="spacing" textLength="3.8145" x="271" y="979.3255">&#160;</text></g><!--SRC=[dLPRJzim67tFh_3Gf369TfHgQ9COKdeTJ8DI2gnCKvJ69Z4ajh4TBaFzxtFY52Uj2sHlTNrypdSv_fntc0Hn2X5eDZzvFWyYdFWIDOH4757vo91eiZI9dNTsN1W_igY0ICg0f616fQG9W9YZG69A74TY6ICmuEhV2uubob1TIWHMAaI2KwcO72U3-oHKo0sD6gFR50afDi3UNfSc2IL3JbE6IRY_3tm1XkEHTp4-cFJ1amD0wVZU- -S0lVwTadWIWH-ZRwtcv_a-SBd4LtuWGKK5mKmcHsls_ld4avCRcNwfGzv9uvit44FiJiLrRU8UYj4hp4d_wwYbY4tueF4xmX0YyeVZC9ADQW1cOSLfkdcbEzr8_K0W5twnETtlxj7mFxiZm4ZvXTgJZ7g3ridVUhHgJofqohFwCIgmfFmH5BdqKBPdrJhhygXzNbHA2rihLU1KgOmlbt6cA9M2baDNMGT8Y4hmNKevnCINbT3pQvC5N1pH8O_6NU_-LbvkZrwg-o0b-TsioFI9ibMA2ljcJVK9p1kyW6k9mL7Nc_RQhQlsUW5R6lq75AIAMGKU8gWTVSmGzpDgQoAX3ATt9tNwN72NEwpomDBUsywFwzsZovfbEY0GFPGKx0M23xDTdkOzg4VVIN4Ci_58zFW4G-wpo2uoQoV7ayFQ4cwC5S4O2HgdYzglafF3gRkJSnkf5KUNWVCwZIfrA2-ejJ-ptL-TdLxD_dGuzM7W2mb-KeXYSCPWSL5MSsnVYYioSK39qoP5IEz9e-f3irY6LUna5iimOur2jF29XUqvUREmiHKfpDTE59Un60Vv9LDtWL6ot8hXsG5mKnbHhgOtc50QPyMo7TE5SqSZBqwEjnDcdNMcR7eEEQMHj0GgCtqevWxNZnjWleoSCOgzYR9QYBBODisZjbNgs1ROsFXeW-ftxKtG_9rx5LdUDbQmGilRnWvhzHVRnX8QgihIop-aGA1VggmiO5FSO0QGdjTR8AH0IEvdDpBxjCBPVRAgwEThLSK2rS-PDI0z0DNR06RFLurXXc9CaArYY-F6nsjL5zl6s0PwYlZTWdAnPmoaSVy0]--></g></svg>