<svg xmlns="http://www.w3.org/2000/svg" xmlns:xlink="http://www.w3.org/1999/xlink" contentStyleType="text/css" data-diagram-type="DESCRIPTION" height="573px" preserveAspectRatio="none" style="width:1619px;height:573px;background:#FAFAFA;" version="1.1" viewBox="0 0 1619 573" width="1619px" zoomAndPan="magnify"><title>Motivation Domain Overview &#8212; Architecture Repository</title><defs/><g><rect fill="#FAFAFA" height="573" style="stroke:none;stroke-width:1;" width="1619" x="0" y="0"/><text fill="#000000" font-family="sans-serif" font-size="14" font-weight="bold" lengthAdjust="spacing" textLength="440.6172" x="582.1914" y="22.9951">Motivation Domain Overview &#8212; Architecture Repository</text><!--cluster Stakeholders--><g class="cluster" data-entity="Stakeholders" data-source-line="8" data-uid="ent0002" id="cluster_Stakeholders"><rect fill="#F7EEF9" height="106" rx="2" ry="2" style="stroke:#7B3F9A;stroke-width:1;" width="920" x="301" y="44.2969"/><text fill="#000000" font-family="sans-serif" font-size="12" font-weight="bold" lengthAdjust="spacing" textLength="89.2852" x="716.3574" y="57.4355">Stakeholders</text></g><!--cluster Drivers--><g class="cluster" data-entity="Drivers" data-source-line="16" data-uid="ent0008" id="cluster_Drivers"><rect fill="#F7EEF9" height="106" rx="2" ry="2" style="stroke:#7B3F9A;stroke-width:1;" width="1133" x="243" y="182.2969"/><text fill="#000000" font-family="sans-serif" font-size="12" font-weight="bold" lengthAdjust="spacing" textLength="49.0137" x="784.9932" y="195.4355">Drivers</text></g><!--cluster Goals--><g class="cluster" data-entity="Goals" data-source-line="24" data-uid="ent0014" id="cluster_Goals"><rect fill="#F7EEF9" height="106" rx="2" ry="2" style="stroke:#7B3F9A;stroke-width:1;" width="1606" x="7" y="320.2969"/><text fill="#000000" font-family="sans-serif" font-size="12" font-weight="bold" lengthAdjust="spacing" textLength="37.4473" x="791.2764" y="333.4355">Goals</text></g><!--cluster Outcomes & Principles--><g class="cluster" data-entity="Outcomes &amp; Principles" data-source-line="34" data-uid="ent0022" id="cluster_Outcomes &amp; Principles"><rect fill="#F7EEF9" height="106" rx="2" ry="2" style="stroke:#7B3F9A;stroke-width:1;" width="630" x="722" y="458.2969"/><text fill="#000000" font-family="sans-serif" font-size="12" font-weight="bold" lengthAdjust="spacing" textLength="153.0234" x="960.4883" y="471.4355">Outcomes &amp; Principles</text></g><!--entity STK_aB3dE1--><g class="entity" data-entity="STK_aB3dE1" data-source-line="9" data-uid="ent0003" id="entity_STK_aB3dE1"><rect fill="#EDD6F0" height="44" rx="2" ry="2" style="stroke:#7B3F9A;stroke-width:0.5;" width="101.8848" x="685" y="83.2969"/><path d="M699.65,99.4469 L710.6,99.4469 L714.5,105.2969 L710.6,111.1469 L699.65,111.1469 L703.4,105.2969" fill="#252327"/><text fill="#000000" font-family="sans-serif" font-size="12" lengthAdjust="spacing" textLength="54.0703" x="722.8145" y="114.4668">Architect</text></g><!--entity STK_Zp8Lm4--><g class="entity" data-entity="STK_Zp8Lm4" data-source-line="10" data-uid="ent0004" id="entity_STK_Zp8Lm4"><rect fill="#EDD6F0" height="44" rx="2" ry="2" style="stroke:#7B3F9A;stroke-width:0.5;" width="136.8477" x="487.5" y="83.2969"/><path d="M502.15,99.4469 L513.1,99.4469 L517,105.2969 L513.1,111.1469 L502.15,111.1469 L505.9,105.2969" fill="#252327"/><text fill="#000000" font-family="sans-serif" font-size="12" lengthAdjust="spacing" textLength="89.0332" x="525.3145" y="114.4668">Product Owner</text></g><!--entity STK_K9xTq2--><g class="entity" data-entity="STK_K9xTq2" data-source-line="11" data-uid="ent0005" id="entity_STK_K9xTq2"><rect fill="#EDD6F0" height="44" rx="2" ry="2" style="stroke:#7B3F9A;stroke-width:0.5;" width="109.5313" x="317" y="83.2969"/><path d="M331.65,99.4469 L342.6,99.4469 L346.5,105.2969 L342.6,111.1469 L331.65,111.1469 L335.4,105.2969" fill="#252327"/><text fill="#000000" font-family="sans-serif" font-size="12" lengthAdjust="spacing" textLength="61.7168" x="354.8145" y="114.4668">Developer</text></g><!--entity STK_4oprPM--><g class="entity" data-entity="STK_4oprPM" data-source-line="12" data-uid="ent0006" id="entity_STK_4oprPM"><rect fill="#EDD6F0" height="44" rx="2" ry="2" style="stroke:#7B3F9A;stroke-width:0.5;" width="152.1113" x="847" y="83.2969"/><path d="M861.65,99.4469 L872.6,99.4469 L876.5,105.2969 L872.6,111.1469 L861.65,111.1469 L865.4,105.2969" fill="#252327"/><text fill="#000000" font-family="sans-serif" font-size="12" lengthAdjust="spacing" textLength="104.2969" x="884.8145" y="114.4668">DevOps Engineer</text></g><!--entity STK_Rr9Ss9--><g class="entity" data-entity="STK_Rr9Ss9" data-source-line="13" data-uid="ent0007" id="entity_STK_Rr9Ss9"><rect fill="#EDD6F0" height="57.9688" rx="2" ry="2" style="stroke:#7B3F9A;stroke-width:0.5;" width="145.1035" x="1059.5" y="76.2969"/><path d="M1074.15,92.4469 L1085.1,92.4469 L1089,98.2969 L1085.1,104.1469 L1074.15,104.1469 L1077.9,98.2969" fill="#252327"/><text fill="#000000" font-family="sans-serif" font-size="12" lengthAdjust="spacing" textLength="97.2891" x="1097.3145" y="107.4668">Upper Technical</text><text fill="#000000" font-family="sans-serif" font-size="12" lengthAdjust="spacing" textLength="79.0488" x="1069.5" y="121.4355">Management</text></g><!--entity DRV_Qw7Er1--><g class="entity" data-entity="DRV_Qw7Er1" data-source-line="17" data-uid="ent0009" id="entity_DRV_Qw7Er1"><rect fill="#EDD6F0" height="57.9688" rx="2" ry="2" style="stroke:#7B3F9A;stroke-width:0.5;" width="201.1133" x="485.5" y="214.2969"/><ellipse cx="507.5" cy="236.2969" fill="none" rx="6.9" ry="6.9" style="stroke:#252327;stroke-width:1.95;"/><ellipse cx="507.5" cy="236.2969" fill="none" rx="2.55" ry="2.55" style="stroke:#252327;stroke-width:1.95;"/><path d="M506.525,227.7469 L506.525,232.2469 L508.475,232.2469 L508.475,227.7469" fill="#252327"/><path d="M506.525,240.3469 L506.525,244.8469 L508.475,244.8469 L508.475,240.3469" fill="#252327"/><path d="M498.95,235.3219 L503.45,235.3219 L503.45,237.2719 L498.95,237.2719" fill="#252327"/><path d="M511.55,235.3219 L516.05,235.3219 L516.05,237.2719 L511.55,237.2719" fill="#252327"/><path d="M500.81,230.9869 L502.19,229.6069 L505.34,232.7569 L503.96,234.1369" fill="#252327"/><path d="M509.66,239.8369 L511.04,238.4569 L514.19,241.6069 L512.81,242.9869" fill="#252327"/><path d="M512.81,229.6069 L514.19,230.9869 L511.04,234.1369 L509.66,232.7569" fill="#252327"/><path d="M503.96,238.4569 L505.34,239.8369 L502.19,242.9869 L500.81,241.6069" fill="#252327"/><text fill="#000000" font-family="sans-serif" font-size="12" lengthAdjust="spacing" textLength="153.2988" x="523.3145" y="245.4668">Code Generation Velocity</text><text fill="#000000" font-family="sans-serif" font-size="12" lengthAdjust="spacing" textLength="165.7617" x="495.5" y="259.4355">Exceeds Planning &amp; Review</text></g><!--entity DRV_Ui5Op3--><g class="entity" data-entity="DRV_Ui5Op3" data-source-line="18" data-uid="ent0010" id="entity_DRV_Ui5Op3"><rect fill="#EDD6F0" height="57.9688" rx="2" ry="2" style="stroke:#7B3F9A;stroke-width:0.5;" width="169.2676" x="746.5" y="214.2969"/><ellipse cx="768.5" cy="236.2969" fill="none" rx="6.9" ry="6.9" style="stroke:#252327;stroke-width:1.95;"/><ellipse cx="768.5" cy="236.2969" fill="none" rx="2.55" ry="2.55" style="stroke:#252327;stroke-width:1.95;"/><path d="M767.525,227.7469 L767.525,232.2469 L769.475,232.2469 L769.475,227.7469" fill="#252327"/><path d="M767.525,240.3469 L767.525,244.8469 L769.475,244.8469 L769.475,240.3469" fill="#252327"/><path d="M759.95,235.3219 L764.45,235.3219 L764.45,237.2719 L759.95,237.2719" fill="#252327"/><path d="M772.55,235.3219 L777.05,235.3219 L777.05,237.2719 L772.55,237.2719" fill="#252327"/><path d="M761.81,230.9869 L763.19,229.6069 L766.34,232.7569 L764.96,234.1369" fill="#252327"/><path d="M770.66,239.8369 L772.04,238.4569 L775.19,241.6069 L773.81,242.9869" fill="#252327"/><path d="M773.81,229.6069 L775.19,230.9869 L772.04,234.1369 L770.66,232.7569" fill="#252327"/><path d="M764.96,238.4569 L766.34,239.8369 L763.19,242.9869 L761.81,241.6069" fill="#252327"/><text fill="#000000" font-family="sans-serif" font-size="12" lengthAdjust="spacing" textLength="121.4531" x="784.3145" y="245.4668">Rising Complexity &amp;</text><text fill="#000000" font-family="sans-serif" font-size="12" lengthAdjust="spacing" textLength="102.3574" x="756.5" y="259.4355">Interdependence</text></g><!--entity DRV_Rt6Yu2--><g class="entity" data-entity="DRV_Rt6Yu2" data-source-line="19" data-uid="ent0011" id="entity_DRV_Rt6Yu2"><rect fill="#EDD6F0" height="57.9688" rx="2" ry="2" style="stroke:#7B3F9A;stroke-width:0.5;" width="175.4492" x="1184.5" y="214.2969"/><ellipse cx="1206.5" cy="236.2969" fill="none" rx="6.9" ry="6.9" style="stroke:#252327;stroke-width:1.95;"/><ellipse cx="1206.5" cy="236.2969" fill="none" rx="2.55" ry="2.55" style="stroke:#252327;stroke-width:1.95;"/><path d="M1205.525,227.7469 L1205.525,232.2469 L1207.475,232.2469 L1207.475,227.7469" fill="#252327"/><path d="M1205.525,240.3469 L1205.525,244.8469 L1207.475,244.8469 L1207.475,240.3469" fill="#252327"/><path d="M1197.95,235.3219 L1202.45,235.3219 L1202.45,237.2719 L1197.95,237.2719" fill="#252327"/><path d="M1210.55,235.3219 L1215.05,235.3219 L1215.05,237.2719 L1210.55,237.2719" fill="#252327"/><path d="M1199.81,230.9869 L1201.19,229.6069 L1204.34,232.7569 L1202.96,234.1369" fill="#252327"/><path d="M1208.66,239.8369 L1210.04,238.4569 L1213.19,241.6069 L1211.81,242.9869" fill="#252327"/><path d="M1211.81,229.6069 L1213.19,230.9869 L1210.04,234.1369 L1208.66,232.7569" fill="#252327"/><path d="M1202.96,238.4569 L1204.34,239.8369 L1201.19,242.9869 L1199.81,241.6069" fill="#252327"/><text fill="#000000" font-family="sans-serif" font-size="12" lengthAdjust="spacing" textLength="127.6348" x="1222.3145" y="245.4668">Increasing Autonomy</text><text fill="#000000" font-family="sans-serif" font-size="12" lengthAdjust="spacing" textLength="123.375" x="1194.5" y="259.4355">of Teams &amp; Systems</text></g><!--entity DRV_As4Df4--><g class="entity" data-entity="DRV_As4Df4" data-source-line="20" data-uid="ent0012" id="entity_DRV_As4Df4"><rect fill="#EDD6F0" height="57.9688" rx="2" ry="2" style="stroke:#7B3F9A;stroke-width:0.5;" width="148.8594" x="975.5" y="214.2969"/><ellipse cx="997.5" cy="236.2969" fill="none" rx="6.9" ry="6.9" style="stroke:#252327;stroke-width:1.95;"/><ellipse cx="997.5" cy="236.2969" fill="none" rx="2.55" ry="2.55" style="stroke:#252327;stroke-width:1.95;"/><path d="M996.525,227.7469 L996.525,232.2469 L998.475,232.2469 L998.475,227.7469" fill="#252327"/><path d="M996.525,240.3469 L996.525,244.8469 L998.475,244.8469 L998.475,240.3469" fill="#252327"/><path d="M988.95,235.3219 L993.45,235.3219 L993.45,237.2719 L988.95,237.2719" fill="#252327"/><path d="M1001.55,235.3219 L1006.05,235.3219 L1006.05,237.2719 L1001.55,237.2719" fill="#252327"/><path d="M990.81,230.9869 L992.19,229.6069 L995.34,232.7569 L993.96,234.1369" fill="#252327"/><path d="M999.66,239.8369 L1001.04,238.4569 L1004.19,241.6069 L1002.81,242.9869" fill="#252327"/><path d="M1002.81,229.6069 L1004.19,230.9869 L1001.04,234.1369 L999.66,232.7569" fill="#252327"/><path d="M993.96,238.4569 L995.34,239.8369 L992.19,242.9869 L990.81,241.6069" fill="#252327"/><text fill="#000000" font-family="sans-serif" font-size="12" lengthAdjust="spacing" textLength="92.2559" x="1013.3145" y="245.4668">Limited Central</text><text fill="#000000" font-family="sans-serif" font-size="12" lengthAdjust="spacing" textLength="128.8594" x="985.5" y="259.4355">Governance Capacity</text></g><!--entity DRV_ui6GDN--><g class="entity" data-entity="DRV_ui6GDN" data-source-line="21" data-uid="ent0013" id="entity_DRV_ui6GDN"><rect fill="#EDD6F0" height="57.9688" rx="2" ry="2" style="stroke:#7B3F9A;stroke-width:0.5;" width="165.5234" x="259" y="214.2969"/><ellipse cx="281" cy="236.2969" fill="none" rx="6.9" ry="6.9" style="stroke:#252327;stroke-width:1.95;"/><ellipse cx="281" cy="236.2969" fill="none" rx="2.55" ry="2.55" style="stroke:#252327;stroke-width:1.95;"/><path d="M280.025,227.7469 L280.025,232.2469 L281.975,232.2469 L281.975,227.7469" fill="#252327"/><path d="M280.025,240.3469 L280.025,244.8469 L281.975,244.8469 L281.975,240.3469" fill="#252327"/><path d="M272.45,235.3219 L276.95,235.3219 L276.95,237.2719 L272.45,237.2719" fill="#252327"/><path d="M285.05,235.3219 L289.55,235.3219 L289.55,237.2719 L285.05,237.2719" fill="#252327"/><path d="M274.31,230.9869 L275.69,229.6069 L278.84,232.7569 L277.46,234.1369" fill="#252327"/><path d="M283.16,239.8369 L284.54,238.4569 L287.69,241.6069 L286.31,242.9869" fill="#252327"/><path d="M286.31,229.6069 L287.69,230.9869 L284.54,234.1369 L283.16,232.7569" fill="#252327"/><path d="M277.46,238.4569 L278.84,239.8369 L275.69,242.9869 L274.31,241.6069" fill="#252327"/><text fill="#000000" font-family="sans-serif" font-size="12" lengthAdjust="spacing" textLength="117.709" x="296.8145" y="245.4668">Increasing Need for</text><text fill="#000000" font-family="sans-serif" font-size="12" lengthAdjust="spacing" textLength="125.1797" x="269" y="259.4355">Effective LLM Access</text></g><!--entity GOL_5Fk9di--><g class="entity" data-entity="GOL_5Fk9di" data-source-line="25" data-uid="ent0015" id="entity_GOL_5Fk9di"><rect fill="#EDD6F0" height="57.9688" rx="2" ry="2" style="stroke:#7B3F9A;stroke-width:0.5;" width="173.0586" x="729.5" y="352.2969"/><ellipse cx="751.5" cy="374.2969" fill="none" rx="7.2" ry="7.2" style="stroke:#252327;stroke-width:1.95;"/><ellipse cx="751.5" cy="374.2969" fill="none" rx="4.35" ry="4.35" style="stroke:#252327;stroke-width:1.95;"/><ellipse cx="751.5" cy="374.2969" fill="#252327" rx="1.95" ry="1.95" style="stroke:#252327;stroke-width:0.5;"/><text fill="#000000" font-family="sans-serif" font-size="12" lengthAdjust="spacing" textLength="125.2441" x="767.3145" y="383.4668">Support Architecture</text><text fill="#000000" font-family="sans-serif" font-size="12" lengthAdjust="spacing" textLength="114.3984" x="739.5" y="397.4355">Planning (Humans)</text></g><!--entity GOL_Po1Qw3--><g class="entity" data-entity="GOL_Po1Qw3" data-source-line="26" data-uid="ent0016" id="entity_GOL_Po1Qw3"><rect fill="#EDD6F0" height="57.9688" rx="2" ry="2" style="stroke:#7B3F9A;stroke-width:0.5;" width="167.8848" x="963" y="352.2969"/><ellipse cx="985" cy="374.2969" fill="none" rx="7.2" ry="7.2" style="stroke:#252327;stroke-width:1.95;"/><ellipse cx="985" cy="374.2969" fill="none" rx="4.35" ry="4.35" style="stroke:#252327;stroke-width:1.95;"/><ellipse cx="985" cy="374.2969" fill="#252327" rx="1.95" ry="1.95" style="stroke:#252327;stroke-width:0.5;"/><text fill="#000000" font-family="sans-serif" font-size="12" lengthAdjust="spacing" textLength="120.0703" x="1000.8145" y="383.4668">Maintain Coherence</text><text fill="#000000" font-family="sans-serif" font-size="12" lengthAdjust="spacing" textLength="83.5488" x="973" y="397.4355">&amp; Traceability</text></g><!--entity GOL_Zx9Cv4--><g class="entity" data-entity="GOL_Zx9Cv4" data-source-line="27" data-uid="ent0017" id="entity_GOL_Zx9Cv4"><rect fill="#EDD6F0" height="57.9688" rx="2" ry="2" style="stroke:#7B3F9A;stroke-width:0.5;" width="143.0938" x="1191.5" y="352.2969"/><ellipse cx="1213.5" cy="374.2969" fill="none" rx="7.2" ry="7.2" style="stroke:#252327;stroke-width:1.95;"/><ellipse cx="1213.5" cy="374.2969" fill="none" rx="4.35" ry="4.35" style="stroke:#252327;stroke-width:1.95;"/><ellipse cx="1213.5" cy="374.2969" fill="#252327" rx="1.95" ry="1.95" style="stroke:#252327;stroke-width:0.5;"/><text fill="#000000" font-family="sans-serif" font-size="12" lengthAdjust="spacing" textLength="95.2793" x="1229.3145" y="383.4668">Enable Scalable</text><text fill="#000000" font-family="sans-serif" font-size="12" lengthAdjust="spacing" textLength="36.9609" x="1201.5" y="397.4355">Reuse</text></g><!--entity GOL_Lm2Bn2--><g class="entity" data-entity="GOL_Lm2Bn2" data-source-line="28" data-uid="ent0018" id="entity_GOL_Lm2Bn2"><rect fill="#EDD6F0" height="57.9688" rx="2" ry="2" style="stroke:#7B3F9A;stroke-width:0.5;" width="202.2148" x="1395" y="352.2969"/><ellipse cx="1417" cy="374.2969" fill="none" rx="7.2" ry="7.2" style="stroke:#252327;stroke-width:1.95;"/><ellipse cx="1417" cy="374.2969" fill="none" rx="4.35" ry="4.35" style="stroke:#252327;stroke-width:1.95;"/><ellipse cx="1417" cy="374.2969" fill="#252327" rx="1.95" ry="1.95" style="stroke:#252327;stroke-width:0.5;"/><text fill="#000000" font-family="sans-serif" font-size="12" lengthAdjust="spacing" textLength="154.4004" x="1432.8145" y="383.4668">Enable Cross-Stakeholder</text><text fill="#000000" font-family="sans-serif" font-size="12" lengthAdjust="spacing" textLength="60.1875" x="1405" y="397.4355">Validation</text></g><!--entity GOL_Iwha3--><g class="entity" data-entity="GOL_Iwha3" data-source-line="29" data-uid="ent0019" id="entity_GOL_Iwha3"><rect fill="#EDD6F0" height="57.9688" rx="2" ry="2" style="stroke:#7B3F9A;stroke-width:0.5;" width="173.0586" x="259.5" y="352.2969"/><ellipse cx="281.5" cy="374.2969" fill="none" rx="7.2" ry="7.2" style="stroke:#252327;stroke-width:1.95;"/><ellipse cx="281.5" cy="374.2969" fill="none" rx="4.35" ry="4.35" style="stroke:#252327;stroke-width:1.95;"/><ellipse cx="281.5" cy="374.2969" fill="#252327" rx="1.95" ry="1.95" style="stroke:#252327;stroke-width:0.5;"/><text fill="#000000" font-family="sans-serif" font-size="12" lengthAdjust="spacing" textLength="125.2441" x="297.3145" y="383.4668">Support Architecture</text><text fill="#000000" font-family="sans-serif" font-size="12" lengthAdjust="spacing" textLength="76.6172" x="269.5" y="397.4355">Planning (AI)</text></g><!--entity GOL_Gh3Jk1--><g class="entity" data-entity="GOL_Gh3Jk1" data-source-line="30" data-uid="ent0020" id="entity_GOL_Gh3Jk1"><rect fill="#EDD6F0" height="57.9688" rx="2" ry="2" style="stroke:#7B3F9A;stroke-width:0.5;" width="177.3594" x="492.5" y="352.2969"/><ellipse cx="514.5" cy="374.2969" fill="none" rx="7.2" ry="7.2" style="stroke:#252327;stroke-width:1.95;"/><ellipse cx="514.5" cy="374.2969" fill="none" rx="4.35" ry="4.35" style="stroke:#252327;stroke-width:1.95;"/><ellipse cx="514.5" cy="374.2969" fill="#252327" rx="1.95" ry="1.95" style="stroke:#252327;stroke-width:0.5;"/><text fill="#000000" font-family="sans-serif" font-size="12" lengthAdjust="spacing" textLength="129.5449" x="530.3145" y="383.4668">Provide Development</text><text fill="#000000" font-family="sans-serif" font-size="12" lengthAdjust="spacing" textLength="119.502" x="502.5" y="397.4355">Guidance (Humans)</text></g><!--entity GOL_e3nCpO--><g class="entity" data-entity="GOL_e3nCpO" data-source-line="31" data-uid="ent0021" id="entity_GOL_e3nCpO"><rect fill="#EDD6F0" height="57.9688" rx="2" ry="2" style="stroke:#7B3F9A;stroke-width:0.5;" width="177.3594" x="22.5" y="352.2969"/><ellipse cx="44.5" cy="374.2969" fill="none" rx="7.2" ry="7.2" style="stroke:#252327;stroke-width:1.95;"/><ellipse cx="44.5" cy="374.2969" fill="none" rx="4.35" ry="4.35" style="stroke:#252327;stroke-width:1.95;"/><ellipse cx="44.5" cy="374.2969" fill="#252327" rx="1.95" ry="1.95" style="stroke:#252327;stroke-width:0.5;"/><text fill="#000000" font-family="sans-serif" font-size="12" lengthAdjust="spacing" textLength="129.5449" x="60.3145" y="383.4668">Provide Development</text><text fill="#000000" font-family="sans-serif" font-size="12" lengthAdjust="spacing" textLength="81.7207" x="32.5" y="397.4355">Guidance (AI)</text></g><!--entity OUT_LrpdG0--><g class="entity" data-entity="OUT_LrpdG0" data-source-line="35" data-uid="ent0023" id="entity_OUT_LrpdG0"><rect fill="#EDD6F0" height="57.9688" rx="2" ry="2" style="stroke:#7B3F9A;stroke-width:0.5;" width="187.5898" x="954" y="490.2969"/><ellipse cx="975.1" cy="513.1969" fill="none" rx="6.45" ry="6.45" style="stroke:#252327;stroke-width:1.95;"/><ellipse cx="975.1" cy="513.1969" fill="none" rx="3.3" ry="3.3" style="stroke:#252327;stroke-width:1.95;"/><path d="M979.27,510.6919 L978.13,509.1019 L982.78,505.8019 L983.92,507.3919" fill="#252327"/><path d="M979.3,511.1719 L983.05,511.1719 L983.05,513.1219 L979.3,513.1219" fill="#252327"/><ellipse cx="975.1" cy="513.1969" fill="#252327" rx="1.35" ry="1.35" style="stroke:#252327;stroke-width:0.5;"/><text fill="#000000" font-family="sans-serif" font-size="12" lengthAdjust="spacing" textLength="139.7754" x="991.8145" y="521.4668">Increased Architectural</text><text fill="#000000" font-family="sans-serif" font-size="12" lengthAdjust="spacing" textLength="64.6113" x="964" y="535.4355">Coherence</text></g><!--entity OUT_AlZjX8--><g class="entity" data-entity="OUT_AlZjX8" data-source-line="36" data-uid="ent0024" id="entity_OUT_AlZjX8"><rect fill="#EDD6F0" height="57.9688" rx="2" ry="2" style="stroke:#7B3F9A;stroke-width:0.5;" width="155.8613" x="738" y="490.2969"/><ellipse cx="759.1" cy="513.1969" fill="none" rx="6.45" ry="6.45" style="stroke:#252327;stroke-width:1.95;"/><ellipse cx="759.1" cy="513.1969" fill="none" rx="3.3" ry="3.3" style="stroke:#252327;stroke-width:1.95;"/><path d="M763.27,510.6919 L762.13,509.1019 L766.78,505.8019 L767.92,507.3919" fill="#252327"/><path d="M763.3,511.1719 L767.05,511.1719 L767.05,513.1219 L763.3,513.1219" fill="#252327"/><ellipse cx="759.1" cy="513.1969" fill="#252327" rx="1.35" ry="1.35" style="stroke:#252327;stroke-width:0.5;"/><text fill="#000000" font-family="sans-serif" font-size="12" lengthAdjust="spacing" textLength="108.0469" x="775.8145" y="521.4668">Reduced Planning</text><text fill="#000000" font-family="sans-serif" font-size="12" lengthAdjust="spacing" textLength="58.8223" x="748" y="535.4355">Overhead</text></g><!--entity PRI_uraDPR--><g class="entity" data-entity="PRI_uraDPR" data-source-line="37" data-uid="ent0025" id="entity_PRI_uraDPR"><rect fill="#EDD6F0" height="57.9688" rx="2" ry="2" style="stroke:#7B3F9A;stroke-width:0.5;" width="134.375" x="1202" y="490.2969"/><path d="M1217.1,504.6469 L1230.9,504.6469 L1230.9,506.5969 L1217.1,506.5969" fill="#252327"/><path d="M1217.1,517.9969 L1230.9,517.9969 L1230.9,519.9469 L1217.1,519.9469" fill="#252327"/><path d="M1217.1,506.5969 L1217.1,517.9969 L1219.05,517.9969 L1219.05,506.5969" fill="#252327"/><path d="M1228.95,506.5969 L1228.95,517.9969 L1230.9,517.9969 L1230.9,506.5969" fill="#252327"/><path d="M1223.025,508.2469 L1223.025,514.6969 L1224.975,514.6969 L1224.975,508.2469" fill="#252327"/><text fill="#000000" font-family="sans-serif" font-size="12" lengthAdjust="spacing" textLength="86.5605" x="1239.8145" y="521.4668">Extensibility &amp;</text><text fill="#000000" font-family="sans-serif" font-size="12" lengthAdjust="spacing" textLength="87.8203" x="1212" y="535.4355">Configurability</text></g><!--link STK_aB3dE1 to STK_Zp8Lm4--><!--link STK_Zp8Lm4 to STK_K9xTq2--><!--link STK_K9xTq2 to STK_4oprPM--><!--link STK_4oprPM to STK_Rr9Ss9--><!--link DRV_Qw7Er1 to DRV_Ui5Op3--><!--link DRV_Ui5Op3 to DRV_Rt6Yu2--><!--link DRV_Rt6Yu2 to DRV_As4Df4--><!--link DRV_As4Df4 to DRV_ui6GDN--><!--link GOL_5Fk9di to GOL_Po1Qw3--><!--link GOL_Po1Qw3 to GOL_Zx9Cv4--><!--link GOL_Zx9Cv4 to GOL_Lm2Bn2--><!--link GOL_Lm2Bn2 to GOL_Iwha3--><!--link GOL_Iwha3 to GOL_Gh3Jk1--><!--link GOL_Gh3Jk1 to GOL_e3nCpO--><!--link OUT_LrpdG0 to OUT_AlZjX8--><!--link OUT_AlZjX8 to PRI_uraDPR--><!--link STK_aB3dE1 to DRV_Qw7Er1--><g class="link" data-entity-1="STK_aB3dE1" data-entity-2="DRV_Qw7Er1" data-source-line="60" data-uid="lnk42" id="link_STK_aB3dE1_DRV_Qw7Er1"><path d="M708,127.4669 C708,163.1369 708,229.2969 708,229.2969 C708,229.2969 699.39,229.2969 686.75,229.2969" fill="none" id="STK_aB3dE1-DRV_Qw7Er1" style="stroke:#181818;stroke-width:1;"/></g><!--link STK_aB3dE1 to DRV_Ui5Op3--><g class="link" data-entity-1="STK_aB3dE1" data-entity-2="DRV_Ui5Op3" data-source-line="61" data-uid="lnk43" id="link_STK_aB3dE1_DRV_Ui5Op3"><path d="M766.75,127.4669 C766.75,151.0069 766.75,188.3269 766.75,214.2169" fill="none" id="STK_aB3dE1-DRV_Ui5Op3" style="stroke:#181818;stroke-width:1;"/></g><!--link STK_Zp8Lm4 to DRV_Qw7Er1--><g class="link" data-entity-1="STK_Zp8Lm4" data-entity-2="DRV_Qw7Er1" data-source-line="62" data-uid="lnk44" id="link_STK_Zp8Lm4_DRV_Qw7Er1"><path d="M556,127.4669 C556,151.0069 556,188.3269 556,214.2169" fill="none" id="STK_Zp8Lm4-DRV_Qw7Er1" style="stroke:#181818;stroke-width:1;"/></g><!--link STK_K9xTq2 to DRV_Qw7Er1--><g class="link" data-entity-1="STK_K9xTq2" data-entity-2="DRV_Qw7Er1" data-source-line="63" data-uid="lnk45" id="link_STK_K9xTq2_DRV_Qw7Er1"><path d="M427.1,113.2969 C444.36,113.2969 459,113.2969 459,113.2969 C459,113.2969 459,243.2969 459,243.2969 C459,243.2969 469.9,243.2969 485.31,243.2969" fill="none" id="STK_K9xTq2-DRV_Qw7Er1" style="stroke:#181818;stroke-width:1;"/></g><!--link STK_K9xTq2 to DRV_ui6GDN--><g class="link" data-entity-1="STK_K9xTq2" data-entity-2="DRV_ui6GDN" data-source-line="64" data-uid="lnk46" id="link_STK_K9xTq2_DRV_ui6GDN"><path d="M371,127.4669 C371,151.0069 371,188.3269 371,214.2169" fill="none" id="STK_K9xTq2-DRV_ui6GDN" style="stroke:#181818;stroke-width:1;"/></g><!--link STK_4oprPM to DRV_Ui5Op3--><g class="link" data-entity-1="STK_4oprPM" data-entity-2="DRV_Ui5Op3" data-source-line="65" data-uid="lnk47" id="link_STK_4oprPM_DRV_Ui5Op3"><path d="M892.67,127.4669 C892.67,151.0069 892.67,188.3269 892.67,214.2169" fill="none" id="STK_4oprPM-DRV_Ui5Op3" style="stroke:#181818;stroke-width:1;"/></g><!--link STK_Rr9Ss9 to DRV_Rt6Yu2--><g class="link" data-entity-1="STK_Rr9Ss9" data-entity-2="DRV_Rt6Yu2" data-source-line="66" data-uid="lnk48" id="link_STK_Rr9Ss9_DRV_Rt6Yu2"><path d="M1194.5,134.5669 C1194.5,157.9869 1194.5,190.6669 1194.5,214.0769" fill="none" id="STK_Rr9Ss9-DRV_Rt6Yu2" style="stroke:#181818;stroke-width:1;"/></g><!--link STK_Rr9Ss9 to DRV_As4Df4--><g class="link" data-entity-1="STK_Rr9Ss9" data-entity-2="DRV_As4Df4" data-source-line="67" data-uid="lnk49" id="link_STK_Rr9Ss9_DRV_As4Df4"><path d="M1092,134.5669 C1092,157.9869 1092,190.6669 1092,214.0769" fill="none" id="STK_Rr9Ss9-DRV_As4Df4" style="stroke:#181818;stroke-width:1;"/></g><!--link DRV_Qw7Er1 to GOL_Po1Qw3--><g class="link" data-entity-1="DRV_Qw7Er1" data-entity-2="GOL_Po1Qw3" data-source-line="70" data-uid="lnk50" id="link_DRV_Qw7Er1_GOL_Po1Qw3"><path d="M678,272.4369 C678,298.3969 678,332.2969 678,332.2969 C678,332.2969 969.25,332.2969 969.25,332.2969 C969.25,332.2969 969.25,335.6769 969.25,346.2269" fill="none" id="DRV_Qw7Er1-to-GOL_Po1Qw3" style="stroke:#181818;stroke-width:1;stroke-dasharray:7.0,7.0;"/><polygon fill="#181818" points="969.25,352.2269,973.25,343.2269,969.25,347.2269,965.25,343.2269,969.25,352.2269" style="stroke:#181818;stroke-width:1;"/><text fill="#000000" font-family="sans-serif" font-size="12" lengthAdjust="spacing" textLength="69.7559" x="733.66" y="344.4355">&#171;influence&#187;</text></g><!--link DRV_Qw7Er1 to GOL_5Fk9di--><g class="link" data-entity-1="DRV_Qw7Er1" data-entity-2="GOL_5Fk9di" data-source-line="71" data-uid="lnk51" id="link_DRV_Qw7Er1_GOL_5Fk9di"><path d="M686.54,258.2969 C714.81,258.2969 738,258.2969 738,258.2969 C738,258.2969 738,309.7769 738,346.1469" fill="none" id="DRV_Qw7Er1-to-GOL_5Fk9di" style="stroke:#181818;stroke-width:1;stroke-dasharray:7.0,7.0;"/><polygon fill="#181818" points="738,352.1469,742,343.1469,738,347.1469,734,343.1469,738,352.1469" style="stroke:#181818;stroke-width:1;"/><text fill="#000000" font-family="sans-serif" font-size="12" lengthAdjust="spacing" textLength="69.7559" x="668" y="291.6355">&#171;influence&#187;</text></g><!--link DRV_Qw7Er1 to GOL_Iwha3--><g class="link" data-entity-1="DRV_Qw7Er1" data-entity-2="GOL_Iwha3" data-source-line="72" data-uid="lnk52" id="link_DRV_Qw7Er1_GOL_Iwha3"><path d="M489,272.5669 C489,310.6269 489,372.2969 489,372.2969 C489,372.2969 468.84,372.2969 438.89,372.2969" fill="none" id="DRV_Qw7Er1-to-GOL_Iwha3" style="stroke:#181818;stroke-width:1;stroke-dasharray:7.0,7.0;"/><polygon fill="#181818" points="432.89,372.2969,441.89,376.2969,437.89,372.2969,441.89,368.2969,432.89,372.2969" style="stroke:#181818;stroke-width:1;"/><text fill="#000000" font-family="sans-serif" font-size="12" lengthAdjust="spacing" textLength="69.7559" x="419" y="347.6255">&#171;influence&#187;</text></g><!--link DRV_Rt6Yu2 to GOL_Zx9Cv4--><g class="link" data-entity-1="DRV_Rt6Yu2" data-entity-2="GOL_Zx9Cv4" data-source-line="73" data-uid="lnk53" id="link_DRV_Rt6Yu2_GOL_Zx9Cv4"><path d="M1263,272.5669 C1263,295.9869 1263,322.6669 1263,346.0769" fill="none" id="DRV_Rt6Yu2-to-GOL_Zx9Cv4" style="stroke:#181818;stroke-width:1;stroke-dasharray:7.0,7.0;"/><polygon fill="#181818" points="1263,352.0769,1267,343.0769,1263,347.0769,1259,343.0769,1263,352.0769" style="stroke:#181818;stroke-width:1;"/><text fill="#000000" font-family="sans-serif" font-size="12" lengthAdjust="spacing" textLength="69.7559" x="1193" y="309.4555">&#171;influence&#187;</text></g><!--link DRV_Rt6Yu2 to GOL_Po1Qw3--><g class="link" data-entity-1="DRV_Rt6Yu2" data-entity-2="GOL_Po1Qw3" data-source-line="74" data-uid="lnk54" id="link_DRV_Rt6Yu2_GOL_Po1Qw3"><path d="M1189.17,272.3669 C1189.17,309.0169 1189.17,367.2969 1189.17,367.2969 C1189.17,367.2969 1167.96,367.2969 1137.34,367.2969" fill="none" id="DRV_Rt6Yu2-to-GOL_Po1Qw3" style="stroke:#181818;stroke-width:1;stroke-dasharray:7.0,7.0;"/><polygon fill="#181818" points="1131.34,367.2969,1140.34,371.2969,1136.34,367.2969,1140.34,363.2969,1131.34,367.2969" style="stroke:#181818;stroke-width:1;"/><text fill="#000000" font-family="sans-serif" font-size="12" lengthAdjust="spacing" textLength="69.7559" x="1190.17" y="345.8855">&#171;influence&#187;</text></g><!--link DRV_Ui5Op3 to GOL_Po1Qw3--><g class="link" data-entity-1="DRV_Ui5Op3" data-entity-2="GOL_Po1Qw3" data-source-line="75" data-uid="lnk55" id="link_DRV_Ui5Op3_GOL_Po1Qw3"><path d="M911.17,272.5669 C911.17,310.6269 911.17,372.2969 911.17,372.2969 C911.17,372.2969 929.12,372.2969 956.91,372.2969" fill="none" id="DRV_Ui5Op3-to-GOL_Po1Qw3" style="stroke:#181818;stroke-width:1;stroke-dasharray:7.0,7.0;"/><polygon fill="#181818" points="962.91,372.2969,953.91,368.2969,957.91,372.2969,953.91,376.2969,962.91,372.2969" style="stroke:#181818;stroke-width:1;"/><text fill="#000000" font-family="sans-serif" font-size="12" lengthAdjust="spacing" textLength="69.7559" x="841.17" y="345.4455">&#171;influence&#187;</text></g><!--link DRV_As4Df4 to GOL_Po1Qw3--><g class="link" data-entity-1="DRV_As4Df4" data-entity-2="GOL_Po1Qw3" data-source-line="76" data-uid="lnk56" id="link_DRV_As4Df4_GOL_Po1Qw3"><path d="M1050,272.5669 C1050,295.9869 1050,322.6669 1050,346.0769" fill="none" id="DRV_As4Df4-to-GOL_Po1Qw3" style="stroke:#181818;stroke-width:1;stroke-dasharray:7.0,7.0;"/><polygon fill="#181818" points="1050,352.0769,1054,343.0769,1050,347.0769,1046,343.0769,1050,352.0769" style="stroke:#181818;stroke-width:1;"/><text fill="#000000" font-family="sans-serif" font-size="12" lengthAdjust="spacing" textLength="69.7559" x="980" y="309.4555">&#171;influence&#187;</text></g><!--link DRV_As4Df4 to GOL_Zx9Cv4--><g class="link" data-entity-1="DRV_As4Df4" data-entity-2="GOL_Zx9Cv4" data-source-line="77" data-uid="lnk57" id="link_DRV_As4Df4_GOL_Zx9Cv4"><path d="M1124.83,253.2969 C1131.91,253.2969 1136.5,253.2969 1136.5,253.2969 C1136.5,253.2969 1136.5,381.2969 1136.5,381.2969 C1136.5,381.2969 1156.7,381.2969 1185.25,381.2969" fill="none" id="DRV_As4Df4-to-GOL_Zx9Cv4" style="stroke:#181818;stroke-width:1;stroke-dasharray:7.0,7.0;"/><polygon fill="#181818" points="1191.25,381.2969,1182.25,377.2969,1186.25,381.2969,1182.25,385.2969,1191.25,381.2969" style="stroke:#181818;stroke-width:1;"/><text fill="#000000" font-family="sans-serif" font-size="12" lengthAdjust="spacing" textLength="69.7559" x="1066.5" y="335.9755">&#171;influence&#187;</text></g><!--link DRV_ui6GDN to GOL_Iwha3--><g class="link" data-entity-1="DRV_ui6GDN" data-entity-2="GOL_Iwha3" data-source-line="78" data-uid="lnk58" id="link_DRV_ui6GDN_GOL_Iwha3"><path d="M342.25,272.5669 C342.25,295.9869 342.25,322.6669 342.25,346.0769" fill="none" id="DRV_ui6GDN-to-GOL_Iwha3" style="stroke:#181818;stroke-width:1;stroke-dasharray:7.0,7.0;"/><polygon fill="#181818" points="342.25,352.0769,346.25,343.0769,342.25,347.0769,338.25,343.0769,342.25,352.0769" style="stroke:#181818;stroke-width:1;"/><text fill="#000000" font-family="sans-serif" font-size="12" lengthAdjust="spacing" textLength="69.7559" x="272.25" y="309.4555">&#171;influence&#187;</text></g><!--link DRV_ui6GDN to GOL_e3nCpO--><g class="link" data-entity-1="DRV_ui6GDN" data-entity-2="GOL_e3nCpO" data-source-line="79" data-uid="lnk59" id="link_DRV_ui6GDN_GOL_e3nCpO"><path d="M258.86,243.2969 C182.62,243.2969 81.5,243.2969 81.5,243.2969 C81.5,243.2969 81.5,305.5269 81.5,346.0269" fill="none" id="DRV_ui6GDN-to-GOL_e3nCpO" style="stroke:#181818;stroke-width:1;stroke-dasharray:7.0,7.0;"/><polygon fill="#181818" points="81.5,352.0269,85.5,343.0269,81.5,347.0269,77.5,343.0269,81.5,352.0269" style="stroke:#181818;stroke-width:1;"/><text fill="#000000" font-family="sans-serif" font-size="12" lengthAdjust="spacing" textLength="69.7559" x="45.81" y="240.4355">&#171;influence&#187;</text></g><!--link GOL_Po1Qw3 to OUT_LrpdG0--><g class="link" data-entity-1="GOL_Po1Qw3" data-entity-2="OUT_LrpdG0" data-source-line="82" data-uid="lnk60" id="link_GOL_Po1Qw3_OUT_LrpdG0"><path d="M1047,410.5669 C1047,433.9869 1047,448.6669 1047,472.0769" fill="none" id="GOL_Po1Qw3-to-OUT_LrpdG0" style="stroke:#181818;stroke-width:1;"/><polygon fill="none" points="1047,490.0769,1053,472.0769,1041,472.0769,1047,490.0769" style="stroke:#181818;stroke-width:1;"/><text fill="#000000" font-family="sans-serif" font-size="12" lengthAdjust="spacing" textLength="77.6602" x="969" y="447.4555">&#171;realization&#187;</text></g><!--reverse link GOL_Zx9Cv4 to OUT_AlZjX8--><g class="link" data-entity-1="GOL_Zx9Cv4" data-entity-2="OUT_AlZjX8" data-source-line="83" data-uid="lnk62" id="link_GOL_Zx9Cv4_OUT_AlZjX8"><path d="M1196.75,428.3269 C1196.75,452.2569 1196.75,464.2969 1196.75,464.2969 C1196.75,464.2969 842,464.2969 842,464.2969 C842,464.2969 842,476.9969 842,490.1869" fill="none" id="GOL_Zx9Cv4-backto-OUT_AlZjX8" style="stroke:#181818;stroke-width:1;"/><polygon fill="none" points="1196.75,410.3269,1190.75,428.3269,1202.75,428.3269,1196.75,410.3269" style="stroke:#181818;stroke-width:1;"/><text fill="#000000" font-family="sans-serif" font-size="12" lengthAdjust="spacing" textLength="77.6602" x="955.42" y="461.4355">&#171;realization&#187;</text></g><!--reverse link GOL_5Fk9di to OUT_AlZjX8--><g class="link" data-entity-1="GOL_5Fk9di" data-entity-2="OUT_AlZjX8" data-source-line="84" data-uid="lnk64" id="link_GOL_5Fk9di_OUT_AlZjX8"><path d="M790,428.5669 C790,451.9869 790,466.6669 790,490.0769" fill="none" id="GOL_5Fk9di-backto-OUT_AlZjX8" style="stroke:#181818;stroke-width:1;"/><polygon fill="none" points="790,410.5669,784,428.5669,796,428.5669,790,410.5669" style="stroke:#181818;stroke-width:1;"/><text fill="#000000" font-family="sans-serif" font-size="12" lengthAdjust="spacing" textLength="77.6602" x="712" y="447.4555">&#171;realization&#187;</text></g><!--SRC=[hLPjSnet4FxEhr0o7RVz02q6ft76POO0fJGu4B0zhKk7aUy4f_fEKYKTBqqpqq_z0Pt-mloIhZY54qRsS4o-xTmzkoljFlkidb4Mn6b8KANopHJB8A89rgIiD964wxKWgYBI92uzy-FcyLf45bBIN23DqHtNcYSef984cd86FwYE2RhacYwm-OBQFC6KeS62o0KbI_Jnx_zGqmJLu99AWaP4S4Krb-jIoOJ1R0uHdeyrlYSHZqCYrNDqSP67x4gU2ihcZGPwNqB8yRduOdlSgUF_NWKu9jzNAsSV6dbk4zG1GJIiqFZgpHI_heMTQl78Gyd3DD1ei6H4FXhzLhpi9_NYqTjaGM8kdeZyvdnrzSVfKP47Gg4EcrD6deXVvq8EBul7lnPmQdH5WeXH-3nXbvZXEKa8Uxm78ta-LkUb3pkKQ4kwE98DcUlEiLeSADubqAkCg3TGte3gzOHrLW4XeKB363C6eT49aDIGrsJE8cKdROzkfk-MttLajL3c4LKcQeid8YOhI8bE9gp7O0v38WWB2Gk8BzKrFHk8Mg5KFHP8WZVfcgdcZ2TmFpw3Rk14mRt6QnZ_HFcoZVIBNzBJGjdwD87H2b4BMYjDfxiS80p3VL0B2spAwqlLLFNsh7xinTv2iz2CIsZSR6PqQ45Glt-9ca50bFTgANtHRRzzmAukn_5Ht3AEEsSRfq9mgNTaRiAsRFhgnpJ1J7rjSXdVx5pTGNzwziFzUKWBPBe4QTL6Nbiy0XM7Ea_O2RgIE23uZiQstBj9XhpwRbahaAJ3y1s0nl3961Cs8gaY-u5lL-UjHRruu9RaIfKT6PYm6npJSDE2_JJzvFGrE_sCxMZsFAteBIDSf4WW_WiAWc9bseWRq3-5MnZoFzxoRbJxwRxw-H9vBqDgh2K63_W-I7N04s9KO2XXvLCGewFuRmFvnXC6qwcwKOGjKKqcwvaTT71zDUrB4NQ_BPPgH63hGg9F3PqmyzQ820wzAPhnxUy_ltmynROMkrHTQS8KpMRAo7MBincTmvtoCTjwPic6ezuK_hU78rFuBr6vNDveS3d6QvxgLqW9A568IBnPXGejgOvWbEUswCfubF872Ih_6j4GbiDlaiuZNNPV4xdfHTcNGMvwKNQ_vwONPJTpllhsKCwgoaqlogwOtFIYx7R8JI_AQdeketieH_noqukoIfQRNfGLejpqeZ8XsLfUZ1M1tFIYx1JdSxA7SlYTctieXvY6buxmee___8koPGaCLl0SsiY0sc5Xo9Uix3vz_3yj0rncUZq_4VB0dxRDBaczEJEQkZyjsVm_BSUW7FRwfX96H15bipWrWgLSpbUCQwNXS0gz0WdOWXkDnz2Md0UYCyxum7PWNB3bwe7e9uvjH_P0j1tAuz5Fd3jhzu4byO2pcTb3GvytpJLTjXi2zW4yElwqX7S5OiEIlnhEWjh4S_0GqPstL1ZuWviT0dUuiGl_7m00]--></g></svg>