<svg xmlns="http://www.w3.org/2000/svg" xmlns:xlink="http://www.w3.org/1999/xlink" contentStyleType="text/css" data-diagram-type="DESCRIPTION" height="390px" preserveAspectRatio="none" style="width:2231px;height:390px;background:#FAFAFA;" version="1.1" viewBox="0 0 2231 390" width="2231px" zoomAndPan="magnify"><title>Motivation &#8212; Problem Context: Drivers, Assessments &amp; Stakeholders</title><defs/><g><rect fill="#FAFAFA" height="390" style="stroke:none;stroke-width:1;" width="2231" x="0" y="0"/><text fill="#000000" font-family="sans-serif" font-size="14" font-weight="bold" lengthAdjust="spacing" textLength="547.4766" x="834.7617" y="22.9951">Motivation &#8212; Problem Context: Drivers, Assessments &amp; Stakeholders</text><!--cluster Stakeholders--><g class="cluster" data-entity="Stakeholders" data-source-line="7" data-uid="ent0002" id="cluster_Stakeholders"><rect fill="#F7EEF9" height="92" rx="2" ry="2" style="stroke:#7B3F9A;stroke-width:1;" width="1002" x="767" y="44.2969"/><text fill="#000000" font-family="sans-serif" font-size="12" font-weight="bold" lengthAdjust="spacing" textLength="89.2852" x="1223.3574" y="57.4355">Stakeholders</text></g><!--cluster Drivers--><g class="cluster" data-entity="Drivers" data-source-line="15" data-uid="ent0008" id="cluster_Drivers"><rect fill="#F7EEF9" height="92" rx="2" ry="2" style="stroke:#7B3F9A;stroke-width:1;" width="1127" x="631" y="168.2969"/><text fill="#000000" font-family="sans-serif" font-size="12" font-weight="bold" lengthAdjust="spacing" textLength="49.0137" x="1169.9932" y="181.4355">Drivers</text></g><!--cluster Assessments--><g class="cluster" data-entity="Assessments" data-source-line="21" data-uid="ent0012" id="cluster_Assessments"><rect fill="#F7EEF9" height="92" rx="2" ry="2" style="stroke:#7B3F9A;stroke-width:1;" width="2218" x="7" y="292.2969"/><text fill="#000000" font-family="sans-serif" font-size="12" font-weight="bold" lengthAdjust="spacing" textLength="88.0605" x="1071.9697" y="305.4355">Assessments</text></g><!--entity STK_aB3dE1--><g class="entity" data-entity="STK_aB3dE1" data-source-line="8" data-uid="ent0003" id="entity_STK_aB3dE1"><rect fill="#EDD6F0" height="44" rx="2" ry="2" style="stroke:#7B3F9A;stroke-width:0.5;" width="101.8848" x="1151" y="76.2969"/><path d="M1165.65,92.4469 L1176.6,92.4469 L1180.5,98.2969 L1176.6,104.1469 L1165.65,104.1469 L1169.4,98.2969" fill="#252327"/><text fill="#000000" font-family="sans-serif" font-size="12" lengthAdjust="spacing" textLength="54.0703" x="1188.8145" y="107.4668">Architect</text></g><!--entity STK_K9xTq2--><g class="entity" data-entity="STK_K9xTq2" data-source-line="9" data-uid="ent0004" id="entity_STK_K9xTq2"><rect fill="#EDD6F0" height="44" rx="2" ry="2" style="stroke:#7B3F9A;stroke-width:0.5;" width="109.5313" x="783" y="76.2969"/><path d="M797.65,92.4469 L808.6,92.4469 L812.5,98.2969 L808.6,104.1469 L797.65,104.1469 L801.4,98.2969" fill="#252327"/><text fill="#000000" font-family="sans-serif" font-size="12" lengthAdjust="spacing" textLength="61.7168" x="820.8145" y="107.4668">Developer</text></g><!--entity STK_Zp8Lm4--><g class="entity" data-entity="STK_Zp8Lm4" data-source-line="10" data-uid="ent0005" id="entity_STK_Zp8Lm4"><rect fill="#EDD6F0" height="44" rx="2" ry="2" style="stroke:#7B3F9A;stroke-width:0.5;" width="136.8477" x="953.5" y="76.2969"/><path d="M968.15,92.4469 L979.1,92.4469 L983,98.2969 L979.1,104.1469 L968.15,104.1469 L971.9,98.2969" fill="#252327"/><text fill="#000000" font-family="sans-serif" font-size="12" lengthAdjust="spacing" textLength="89.0332" x="991.3145" y="107.4668">Product Owner</text></g><!--entity STK_4oprPM--><g class="entity" data-entity="STK_4oprPM" data-source-line="11" data-uid="ent0006" id="entity_STK_4oprPM"><rect fill="#EDD6F0" height="44" rx="2" ry="2" style="stroke:#7B3F9A;stroke-width:0.5;" width="152.1113" x="1313" y="76.2969"/><path d="M1327.65,92.4469 L1338.6,92.4469 L1342.5,98.2969 L1338.6,104.1469 L1327.65,104.1469 L1331.4,98.2969" fill="#252327"/><text fill="#000000" font-family="sans-serif" font-size="12" lengthAdjust="spacing" textLength="104.2969" x="1350.8145" y="107.4668">DevOps Engineer</text></g><!--entity STK_Rr9Ss9--><g class="entity" data-entity="STK_Rr9Ss9" data-source-line="12" data-uid="ent0007" id="entity_STK_Rr9Ss9"><rect fill="#EDD6F0" height="44" rx="2" ry="2" style="stroke:#7B3F9A;stroke-width:0.5;" width="227.9668" x="1525" y="76.2969"/><path d="M1539.65,92.4469 L1550.6,92.4469 L1554.5,98.2969 L1550.6,104.1469 L1539.65,104.1469 L1543.4,98.2969" fill="#252327"/><text fill="#000000" font-family="sans-serif" font-size="12" lengthAdjust="spacing" textLength="180.1523" x="1562.8145" y="107.4668">Upper Technical Management</text></g><!--entity DRV_GR9prv--><g class="entity" data-entity="DRV_GR9prv" data-source-line="16" data-uid="ent0009" id="entity_DRV_GR9prv"><rect fill="#EDD6F0" height="44" rx="2" ry="2" style="stroke:#7B3F9A;stroke-width:0.5;" width="383.2461" x="646.5" y="200.2969"/><ellipse cx="668.5" cy="222.2969" fill="none" rx="6.9" ry="6.9" style="stroke:#252327;stroke-width:1.95;"/><ellipse cx="668.5" cy="222.2969" fill="none" rx="2.55" ry="2.55" style="stroke:#252327;stroke-width:1.95;"/><path d="M667.525,213.7469 L667.525,218.2469 L669.475,218.2469 L669.475,213.7469" fill="#252327"/><path d="M667.525,226.3469 L667.525,230.8469 L669.475,230.8469 L669.475,226.3469" fill="#252327"/><path d="M659.95,221.3219 L664.45,221.3219 L664.45,223.2719 L659.95,223.2719" fill="#252327"/><path d="M672.55,221.3219 L677.05,221.3219 L677.05,223.2719 L672.55,223.2719" fill="#252327"/><path d="M661.81,216.9869 L663.19,215.6069 L666.34,218.7569 L664.96,220.1369" fill="#252327"/><path d="M670.66,225.8369 L672.04,224.4569 L675.19,227.6069 L673.81,228.9869" fill="#252327"/><path d="M673.81,215.6069 L675.19,216.9869 L672.04,220.1369 L670.66,218.7569" fill="#252327"/><path d="M664.96,224.4569 L666.34,225.8369 L663.19,228.9869 L661.81,227.6069" fill="#252327"/><text fill="#000000" font-family="sans-serif" font-size="12" lengthAdjust="spacing" textLength="335.4316" x="684.3145" y="231.4668">AI-Assisted Development as Dominant Production Mode</text></g><!--entity DRV_Rt6Yu2--><g class="entity" data-entity="DRV_Rt6Yu2" data-source-line="17" data-uid="ent0010" id="entity_DRV_Rt6Yu2"><rect fill="#EDD6F0" height="44" rx="2" ry="2" style="stroke:#7B3F9A;stroke-width:0.5;" width="302.6387" x="1438.5" y="200.2969"/><ellipse cx="1460.5" cy="222.2969" fill="none" rx="6.9" ry="6.9" style="stroke:#252327;stroke-width:1.95;"/><ellipse cx="1460.5" cy="222.2969" fill="none" rx="2.55" ry="2.55" style="stroke:#252327;stroke-width:1.95;"/><path d="M1459.525,213.7469 L1459.525,218.2469 L1461.475,218.2469 L1461.475,213.7469" fill="#252327"/><path d="M1459.525,226.3469 L1459.525,230.8469 L1461.475,230.8469 L1461.475,226.3469" fill="#252327"/><path d="M1451.95,221.3219 L1456.45,221.3219 L1456.45,223.2719 L1451.95,223.2719" fill="#252327"/><path d="M1464.55,221.3219 L1469.05,221.3219 L1469.05,223.2719 L1464.55,223.2719" fill="#252327"/><path d="M1453.81,216.9869 L1455.19,215.6069 L1458.34,218.7569 L1456.96,220.1369" fill="#252327"/><path d="M1462.66,225.8369 L1464.04,224.4569 L1467.19,227.6069 L1465.81,228.9869" fill="#252327"/><path d="M1465.81,215.6069 L1467.19,216.9869 L1464.04,220.1369 L1462.66,218.7569" fill="#252327"/><path d="M1456.96,224.4569 L1458.34,225.8369 L1455.19,228.9869 L1453.81,227.6069" fill="#252327"/><text fill="#000000" font-family="sans-serif" font-size="12" lengthAdjust="spacing" textLength="254.8242" x="1476.3145" y="231.4668">Increasing Autonomy of Teams &amp; Systems</text></g><!--entity DRV_Ui5Op3--><g class="entity" data-entity="DRV_Ui5Op3" data-source-line="18" data-uid="ent0011" id="entity_DRV_Ui5Op3"><rect fill="#EDD6F0" height="44" rx="2" ry="2" style="stroke:#7B3F9A;stroke-width:0.5;" width="288.6582" x="1089.5" y="200.2969"/><ellipse cx="1111.5" cy="222.2969" fill="none" rx="6.9" ry="6.9" style="stroke:#252327;stroke-width:1.95;"/><ellipse cx="1111.5" cy="222.2969" fill="none" rx="2.55" ry="2.55" style="stroke:#252327;stroke-width:1.95;"/><path d="M1110.525,213.7469 L1110.525,218.2469 L1112.475,218.2469 L1112.475,213.7469" fill="#252327"/><path d="M1110.525,226.3469 L1110.525,230.8469 L1112.475,230.8469 L1112.475,226.3469" fill="#252327"/><path d="M1102.95,221.3219 L1107.45,221.3219 L1107.45,223.2719 L1102.95,223.2719" fill="#252327"/><path d="M1115.55,221.3219 L1120.05,221.3219 L1120.05,223.2719 L1115.55,223.2719" fill="#252327"/><path d="M1104.81,216.9869 L1106.19,215.6069 L1109.34,218.7569 L1107.96,220.1369" fill="#252327"/><path d="M1113.66,225.8369 L1115.04,224.4569 L1118.19,227.6069 L1116.81,228.9869" fill="#252327"/><path d="M1116.81,215.6069 L1118.19,216.9869 L1115.04,220.1369 L1113.66,218.7569" fill="#252327"/><path d="M1107.96,224.4569 L1109.34,225.8369 L1106.19,228.9869 L1104.81,227.6069" fill="#252327"/><text fill="#000000" font-family="sans-serif" font-size="12" lengthAdjust="spacing" textLength="240.8438" x="1127.3145" y="231.4668">Rising Complexity and Interdependence</text></g><!--entity ASS_EI3FpR--><g class="entity" data-entity="ASS_EI3FpR" data-source-line="22" data-uid="ent0013" id="entity_ASS_EI3FpR"><rect fill="#EDD6F0" height="44" rx="2" ry="2" style="stroke:#7B3F9A;stroke-width:0.5;" width="446.1816" x="615" y="324.2969"/><path d="M628.75,338.7969 L645.25,338.7969 A1.5,1.5 0 0 1 646.75,340.2969 L646.75,349.2969 A1.5,1.5 0 0 1 645.25,350.7969 L634,350.7969 L631,355.2969 L632.5,350.7969 L628.75,350.7969 A1.5,1.5 0 0 1 627.25,349.2969 L627.25,340.2969 A1.5,1.5 0 0 1 628.75,338.7969" fill="#252327"/><text fill="#000000" font-family="sans-serif" font-size="12" lengthAdjust="spacing" textLength="398.3672" x="652.8145" y="355.4668">AI Code Generation Volume Outpaces Sequential Review Capacity</text></g><!--entity ASS_a6vxyj--><g class="entity" data-entity="ASS_a6vxyj" data-source-line="23" data-uid="ent0014" id="entity_ASS_a6vxyj"><rect fill="#EDD6F0" height="44" rx="2" ry="2" style="stroke:#7B3F9A;stroke-width:0.5;" width="504.1133" x="1121" y="324.2969"/><path d="M1134.75,338.7969 L1151.25,338.7969 A1.5,1.5 0 0 1 1152.75,340.2969 L1152.75,349.2969 A1.5,1.5 0 0 1 1151.25,350.7969 L1140,350.7969 L1137,355.2969 L1138.5,350.7969 L1134.75,350.7969 A1.5,1.5 0 0 1 1133.25,349.2969 L1133.25,340.2969 A1.5,1.5 0 0 1 1134.75,338.7969" fill="#252327"/><text fill="#000000" font-family="sans-serif" font-size="12" lengthAdjust="spacing" textLength="456.2988" x="1158.8145" y="355.4668">Centralized Governance Cannot Scale to Concurrent Development Contexts</text></g><!--entity ASS_s68vVo--><g class="entity" data-entity="ASS_s68vVo" data-source-line="24" data-uid="ent0015" id="entity_ASS_s68vVo"><rect fill="#EDD6F0" height="44" rx="2" ry="2" style="stroke:#7B3F9A;stroke-width:0.5;" width="531.5469" x="23" y="324.2969"/><path d="M36.75,338.7969 L53.25,338.7969 A1.5,1.5 0 0 1 54.75,340.2969 L54.75,349.2969 A1.5,1.5 0 0 1 53.25,350.7969 L42,350.7969 L39,355.2969 L40.5,350.7969 L36.75,350.7969 A1.5,1.5 0 0 1 35.25,349.2969 L35.25,340.2969 A1.5,1.5 0 0 1 36.75,338.7969" fill="#252327"/><text fill="#000000" font-family="sans-serif" font-size="12" lengthAdjust="spacing" textLength="483.7324" x="60.8145" y="355.4668">LLM-Based Agents Cannot Effectively Use Unstructured Architectural Knowledge</text></g><!--entity ASS_9YWsDh--><g class="entity" data-entity="ASS_9YWsDh" data-source-line="25" data-uid="ent0016" id="entity_ASS_9YWsDh"><rect fill="#EDD6F0" height="44" rx="2" ry="2" style="stroke:#7B3F9A;stroke-width:0.5;" width="523.9883" x="1685" y="324.2969"/><path d="M1698.75,338.7969 L1715.25,338.7969 A1.5,1.5 0 0 1 1716.75,340.2969 L1716.75,349.2969 A1.5,1.5 0 0 1 1715.25,350.7969 L1704,350.7969 L1701,355.2969 L1702.5,350.7969 L1698.75,350.7969 A1.5,1.5 0 0 1 1697.25,349.2969 L1697.25,340.2969 A1.5,1.5 0 0 1 1698.75,338.7969" fill="#252327"/><text fill="#000000" font-family="sans-serif" font-size="12" lengthAdjust="spacing" textLength="476.1738" x="1722.8145" y="355.4668">Implicit System Interdependencies Are Unmaintainable Without Explicit Models</text></g><!--link STK_aB3dE1 to STK_K9xTq2--><!--link STK_K9xTq2 to STK_Zp8Lm4--><!--link STK_Zp8Lm4 to STK_4oprPM--><!--link STK_4oprPM to STK_Rr9Ss9--><!--link DRV_GR9prv to DRV_Rt6Yu2--><!--link DRV_Rt6Yu2 to DRV_Ui5Op3--><!--link ASS_EI3FpR to ASS_a6vxyj--><!--link ASS_a6vxyj to ASS_s68vVo--><!--link ASS_s68vVo to ASS_9YWsDh--><!--link STK_aB3dE1 to DRV_GR9prv--><g class="link" data-entity-1="STK_aB3dE1" data-entity-2="DRV_GR9prv" data-source-line="38" data-uid="lnk26" id="link_STK_aB3dE1_DRV_GR9prv"><path d="M1176.5,120.5769 C1176.5,135.4469 1176.5,152.2969 1176.5,152.2969 C1176.5,152.2969 1010.5,152.2969 1010.5,152.2969 C1010.5,152.2969 1010.5,179.6369 1010.5,200.1469" fill="none" id="STK_aB3dE1-DRV_GR9prv" style="stroke:#181818;stroke-width:1;"/></g><!--link STK_aB3dE1 to DRV_Rt6Yu2--><g class="link" data-entity-1="STK_aB3dE1" data-entity-2="DRV_Rt6Yu2" data-source-line="39" data-uid="lnk27" id="link_STK_aB3dE1_DRV_Rt6Yu2"><path d="M1227.5,120.3969 C1227.5,128.7569 1227.5,136.2969 1227.5,136.2969 C1227.5,136.2969 1451.75,136.2969 1451.75,136.2969 C1451.75,136.2969 1451.75,174.6669 1451.75,200.1469" fill="none" id="STK_aB3dE1-DRV_Rt6Yu2" style="stroke:#181818;stroke-width:1;"/></g><!--link STK_aB3dE1 to DRV_Ui5Op3--><g class="link" data-entity-1="STK_aB3dE1" data-entity-2="DRV_Ui5Op3" data-source-line="40" data-uid="lnk28" id="link_STK_aB3dE1_DRV_Ui5Op3"><path d="M1202,120.4669 C1202,142.8969 1202,177.3869 1202,199.9069" fill="none" id="STK_aB3dE1-DRV_Ui5Op3" style="stroke:#181818;stroke-width:1;"/></g><!--link STK_K9xTq2 to DRV_GR9prv--><g class="link" data-entity-1="STK_K9xTq2" data-entity-2="DRV_GR9prv" data-source-line="41" data-uid="lnk29" id="link_STK_K9xTq2_DRV_GR9prv"><path d="M838,120.4669 C838,142.8969 838,177.3869 838,199.9069" fill="none" id="STK_K9xTq2-DRV_GR9prv" style="stroke:#181818;stroke-width:1;"/></g><!--link STK_Zp8Lm4 to DRV_GR9prv--><g class="link" data-entity-1="STK_Zp8Lm4" data-entity-2="DRV_GR9prv" data-source-line="42" data-uid="lnk30" id="link_STK_Zp8Lm4_DRV_GR9prv"><path d="M972.5,120.4669 C972.5,142.8969 972.5,177.3869 972.5,199.9069" fill="none" id="STK_Zp8Lm4-DRV_GR9prv" style="stroke:#181818;stroke-width:1;"/></g><!--link STK_Zp8Lm4 to DRV_Ui5Op3--><g class="link" data-entity-1="STK_Zp8Lm4" data-entity-2="DRV_Ui5Op3" data-source-line="43" data-uid="lnk31" id="link_STK_Zp8Lm4_DRV_Ui5Op3"><path d="M1082.38,120.3869 C1082.38,157.9669 1082.38,230.2969 1082.38,230.2969 C1082.38,230.2969 1084.89,230.2969 1089.28,230.2969" fill="none" id="STK_Zp8Lm4-DRV_Ui5Op3" style="stroke:#181818;stroke-width:1;"/></g><!--link STK_4oprPM to DRV_Rt6Yu2--><g class="link" data-entity-1="STK_4oprPM" data-entity-2="DRV_Rt6Yu2" data-source-line="44" data-uid="lnk32" id="link_STK_4oprPM_DRV_Rt6Yu2"><path d="M1458.38,120.4669 C1458.38,142.8969 1458.38,177.3869 1458.38,199.9069" fill="none" id="STK_4oprPM-DRV_Rt6Yu2" style="stroke:#181818;stroke-width:1;"/></g><!--link STK_4oprPM to DRV_Ui5Op3--><g class="link" data-entity-1="STK_4oprPM" data-entity-2="DRV_Ui5Op3" data-source-line="45" data-uid="lnk33" id="link_STK_4oprPM_DRV_Ui5Op3"><path d="M1356.67,120.4669 C1356.67,142.8969 1356.67,177.3869 1356.67,199.9069" fill="none" id="STK_4oprPM-DRV_Ui5Op3" style="stroke:#181818;stroke-width:1;"/></g><!--link STK_Rr9Ss9 to DRV_Rt6Yu2--><g class="link" data-entity-1="STK_Rr9Ss9" data-entity-2="DRV_Rt6Yu2" data-source-line="46" data-uid="lnk34" id="link_STK_Rr9Ss9_DRV_Rt6Yu2"><path d="M1633.25,120.4669 C1633.25,142.8969 1633.25,177.3869 1633.25,199.9069" fill="none" id="STK_Rr9Ss9-DRV_Rt6Yu2" style="stroke:#181818;stroke-width:1;"/></g><!--link DRV_GR9prv to ASS_EI3FpR--><g class="link" data-entity-1="DRV_GR9prv" data-entity-2="ASS_EI3FpR" data-source-line="48" data-uid="lnk35" id="link_DRV_GR9prv_ASS_EI3FpR"><path d="M838,244.4669 C838,266.8969 838,295.3869 838,317.9069" fill="none" id="DRV_GR9prv-to-ASS_EI3FpR" style="stroke:#181818;stroke-width:1;stroke-dasharray:7.0,7.0;"/><polygon fill="#181818" points="838,323.9069,842,314.9069,838,318.9069,834,314.9069,838,323.9069" style="stroke:#181818;stroke-width:1;"/><text fill="#000000" font-family="sans-serif" font-size="12" lengthAdjust="spacing" textLength="69.7559" x="768" y="281.3255">&#171;influence&#187;</text></g><!--link DRV_GR9prv to ASS_a6vxyj--><g class="link" data-entity-1="DRV_GR9prv" data-entity-2="ASS_a6vxyj" data-source-line="49" data-uid="lnk36" id="link_DRV_GR9prv_ASS_a6vxyj"><path d="M1029.61,215.2969 C1052.6,215.2969 1068.12,215.2969 1068.12,215.2969 C1068.12,215.2969 1068.12,339.2969 1068.12,339.2969 C1068.12,339.2969 1083.48,339.2969 1114.88,339.2969" fill="none" id="DRV_GR9prv-to-ASS_a6vxyj" style="stroke:#181818;stroke-width:1;stroke-dasharray:7.0,7.0;"/><polygon fill="#181818" points="1120.88,339.2969,1111.88,335.2969,1115.88,339.2969,1111.88,343.2969,1120.88,339.2969" style="stroke:#181818;stroke-width:1;"/><text fill="#000000" font-family="sans-serif" font-size="12" lengthAdjust="spacing" textLength="69.7559" x="998.12" y="281.5555">&#171;influence&#187;</text></g><!--link DRV_GR9prv to ASS_s68vVo--><g class="link" data-entity-1="DRV_GR9prv" data-entity-2="ASS_s68vVo" data-source-line="50" data-uid="lnk37" id="link_DRV_GR9prv_ASS_s68vVo"><path d="M646.37,222.2969 C487.99,222.2969 289,222.2969 289,222.2969 C289,222.2969 289,282.4569 289,318.1269" fill="none" id="DRV_GR9prv-to-ASS_s68vVo" style="stroke:#181818;stroke-width:1;stroke-dasharray:7.0,7.0;"/><polygon fill="#181818" points="289,324.1269,293,315.1269,289,319.1269,285,315.1269,289,324.1269" style="stroke:#181818;stroke-width:1;"/><text fill="#000000" font-family="sans-serif" font-size="12" lengthAdjust="spacing" textLength="69.7559" x="346.77" y="219.4355">&#171;influence&#187;</text></g><!--link DRV_Rt6Yu2 to ASS_a6vxyj--><g class="link" data-entity-1="DRV_Rt6Yu2" data-entity-2="ASS_a6vxyj" data-source-line="51" data-uid="lnk38" id="link_DRV_Rt6Yu2_ASS_a6vxyj"><path d="M1531.75,244.4669 C1531.75,266.8969 1531.75,295.3869 1531.75,317.9069" fill="none" id="DRV_Rt6Yu2-to-ASS_a6vxyj" style="stroke:#181818;stroke-width:1;stroke-dasharray:7.0,7.0;"/><polygon fill="#181818" points="1531.75,323.9069,1535.75,314.9069,1531.75,318.9069,1527.75,314.9069,1531.75,323.9069" style="stroke:#181818;stroke-width:1;"/><text fill="#000000" font-family="sans-serif" font-size="12" lengthAdjust="spacing" textLength="69.7559" x="1461.75" y="281.3255">&#171;influence&#187;</text></g><!--link DRV_Ui5Op3 to ASS_9YWsDh--><g class="link" data-entity-1="DRV_Ui5Op3" data-entity-2="ASS_9YWsDh" data-source-line="52" data-uid="lnk39" id="link_DRV_Ui5Op3_ASS_9YWsDh"><path d="M1292.67,244.7769 C1292.67,254.7569 1292.67,264.2969 1292.67,264.2969 C1292.67,264.2969 1722.67,264.2969 1722.67,264.2969 C1722.67,264.2969 1722.67,293.6069 1722.67,317.8869" fill="none" id="DRV_Ui5Op3-to-ASS_9YWsDh" style="stroke:#181818;stroke-width:1;stroke-dasharray:7.0,7.0;"/><polygon fill="#181818" points="1722.67,323.8869,1726.67,314.8869,1722.67,318.8869,1718.67,314.8869,1722.67,323.8869" style="stroke:#181818;stroke-width:1;"/><text fill="#000000" font-family="sans-serif" font-size="12" lengthAdjust="spacing" textLength="69.7559" x="1457.7" y="261.4355">&#171;influence&#187;</text></g><!--SRC=[dLNRRXen47tdAoPHrQT2bKkZ4AL812X22IA2a2YjAkJi3k1srzxONYwD8lKZ-eNzaewpfhkG9Shc0SdQEJDpF7DysE722s8VeLBvE6BAc_AG6InhWmgbMKQeAr4S1gMTVDmaM4PJ1p4o0YFXJXeZG_2vGizmAKebmqs0q9M6pvZz0dz__u5B9Uy23A4XXS65EO6cuZDK-WFKjKQjGnH6mtiO6FOJfpBmALOgsPfCJAZSRZQm2wUdQVssad74nQHMWuSIG2RdzDr_wgDC_eFsM82VzogV7cjGjmX3ERPe1aJLc8R1rVc8dHtuhRtYbPiumq16gBPMFgykhkxtYrUcOVgnPw0t5ozK_neTNuI7R-BTYpIqn8GBVA7-eOpKPRTu_M54Cu4hzAQ2qsVeCi4cQ0MmjLLVLGUwMdfSKuHJq5l4aAIkww1J9YLoUWd-QdEMacNGb24NZCvkxbRJNUcZxPnKIfWs-zUZThyQgLcXpXtXAMIQI4CzDbB8S0boJ0DYuTEBM1AdKESrwvkZstY_KBC-VshKa64Ku8AR9J3X4mKo01yZ53uAB_TYG_wf5nrih23pTj-oXZHzOnN4ZxodZIJln4AkPH272BtOHCn34WNUnvJ6IJvzd76SGuDHXEvZUQHr4_xrmM3KwXnyYVg5kJJeWs81_qMoQ4kQ20d1G-ecX3Gmi4ZhWcHhNgoK5KnMFCxjz3PIx6YsMFueJEhYebi-OveerITFlkdejCPZQyBKVmb3ZJ0KsYWIRAmiT6LqCTq7peMS1-XFS1irVNGykvQ5gNL8Lvpsu6IxeInEgwihIonaN1ZwCVfNW1jkfZ8c_WkNR5zNi7LgrTiRtPnQAQRs3ELlK-vJZ- -AJwQcdFNNz9YBSZwP7dDHpktIOoxA6LNg1CzGcNUR7dDHxiMbuds6oaWeFUQYt3RJOoxA3NPjhBwSYtBMslA3xahvGNUJx1voowx6_yfWfkng9Rc4dWSpcSd6SZApIwpOQAMMCH8u8N5oCGvYQvYrsZQqsyahqMutUMWdb5VMJYwuXawMkud-1m00]--></g></svg>