<svg xmlns="http://www.w3.org/2000/svg" xmlns:xlink="http://www.w3.org/1999/xlink" contentStyleType="text/css" data-diagram-type="DESCRIPTION" height="906px" preserveAspectRatio="none" style="width:2075px;height:906px;background:#FAFAFA;" version="1.1" viewBox="0 0 2075 906" width="2075px" zoomAndPan="magnify"><title>Motivation &#8212; Goals &amp; Outcomes: Success Criteria by Theme</title><defs/><g><rect fill="#FAFAFA" height="906" style="stroke:none;stroke-width:1;" width="2075" x="0" y="0"/><text fill="#000000" font-family="sans-serif" font-size="14" font-weight="bold" lengthAdjust="spacing" textLength="472.4385" x="794.2808" y="22.9951">Motivation &#8212; Goals &amp; Outcomes: Success Criteria by Theme</text><!--cluster Coherence & Validation--><g class="cluster" data-entity="Coherence &amp; Validation" data-source-line="7" data-uid="ent0002" id="cluster_Coherence &amp; Validation"><rect fill="#F7EEF9" height="196" rx="2" ry="2" style="stroke:#7B3F9A;stroke-width:1;" width="930.5" x="129" y="704.2969"/><text fill="#000000" font-family="sans-serif" font-size="12" font-weight="bold" lengthAdjust="spacing" textLength="159.3398" x="514.5801" y="717.4355">Coherence &amp; Validation</text></g><!--cluster Planning & Guidance--><g class="cluster" data-entity="Planning &amp; Guidance" data-source-line="14" data-uid="ent0007" id="cluster_Planning &amp; Guidance"><rect fill="#F7EEF9" height="196" rx="2" ry="2" style="stroke:#7B3F9A;stroke-width:1;" width="1942.5" x="112" y="484.2969"/><text fill="#000000" font-family="sans-serif" font-size="12" font-weight="bold" lengthAdjust="spacing" textLength="141.1465" x="1012.6768" y="497.4355">Planning &amp; Guidance</text></g><!--cluster Technology & Product Design--><g class="cluster" data-entity="Technology &amp; Product Design" data-source-line="24" data-uid="ent0015" id="cluster_Technology &amp; Product Design"><rect fill="#F7EEF9" height="196" rx="2" ry="2" style="stroke:#7B3F9A;stroke-width:1;" width="2057.5" x="11.5" y="264.2969"/><text fill="#000000" font-family="sans-serif" font-size="12" font-weight="bold" lengthAdjust="spacing" textLength="199.9629" x="940.2686" y="277.4355">Technology &amp; Product Design</text></g><!--cluster Governance & Scale--><g class="cluster" data-entity="Governance &amp; Scale" data-source-line="35" data-uid="ent0024" id="cluster_Governance &amp; Scale"><rect fill="#F7EEF9" height="196" rx="2" ry="2" style="stroke:#7B3F9A;stroke-width:1;" width="1049" x="7" y="44.2969"/><text fill="#000000" font-family="sans-serif" font-size="12" font-weight="bold" lengthAdjust="spacing" textLength="135.334" x="463.833" y="57.4355">Governance &amp; Scale</text></g><!--entity GOL_Po1Qw3--><g class="entity" data-entity="GOL_Po1Qw3" data-source-line="8" data-uid="ent0003" id="entity_GOL_Po1Qw3"><rect fill="#EDD6F0" height="44" rx="2" ry="2" style="stroke:#7B3F9A;stroke-width:0.5;" width="268.4668" x="145" y="840.2969"/><ellipse cx="167" cy="862.2969" fill="none" rx="7.2" ry="7.2" style="stroke:#252327;stroke-width:1.95;"/><ellipse cx="167" cy="862.2969" fill="none" rx="4.35" ry="4.35" style="stroke:#252327;stroke-width:1.95;"/><ellipse cx="167" cy="862.2969" fill="#252327" rx="1.95" ry="1.95" style="stroke:#252327;stroke-width:0.5;"/><text fill="#000000" font-family="sans-serif" font-size="12" lengthAdjust="spacing" textLength="220.6523" x="182.8145" y="871.4668">Maintain Coherence and Traceability</text></g><!--entity GOL_Lm2Bn2--><g class="entity" data-entity="GOL_Lm2Bn2" data-source-line="9" data-uid="ent0004" id="entity_GOL_Lm2Bn2"><rect fill="#EDD6F0" height="44" rx="2" ry="2" style="stroke:#7B3F9A;stroke-width:0.5;" width="266.2168" x="699" y="840.2969"/><ellipse cx="721" cy="862.2969" fill="none" rx="7.2" ry="7.2" style="stroke:#252327;stroke-width:1.95;"/><ellipse cx="721" cy="862.2969" fill="none" rx="4.35" ry="4.35" style="stroke:#252327;stroke-width:1.95;"/><ellipse cx="721" cy="862.2969" fill="#252327" rx="1.95" ry="1.95" style="stroke:#252327;stroke-width:0.5;"/><text fill="#000000" font-family="sans-serif" font-size="12" lengthAdjust="spacing" textLength="218.4023" x="736.8145" y="871.4668">Enable Cross-Stakeholder Validation</text></g><!--entity OUT_LrpdG0--><g class="entity" data-entity="OUT_LrpdG0" data-source-line="10" data-uid="ent0005" id="entity_OUT_LrpdG0"><rect fill="#EDD6F0" height="44" rx="2" ry="2" style="stroke:#7B3F9A;stroke-width:0.5;" width="256.0156" x="151" y="736.2969"/><ellipse cx="172.1" cy="759.1969" fill="none" rx="6.45" ry="6.45" style="stroke:#252327;stroke-width:1.95;"/><ellipse cx="172.1" cy="759.1969" fill="none" rx="3.3" ry="3.3" style="stroke:#252327;stroke-width:1.95;"/><path d="M176.27,756.6919 L175.13,755.1019 L179.78,751.8019 L180.92,753.3919" fill="#252327"/><path d="M176.3,757.1719 L180.05,757.1719 L180.05,759.1219 L176.3,759.1219" fill="#252327"/><ellipse cx="172.1" cy="759.1969" fill="#252327" rx="1.35" ry="1.35" style="stroke:#252327;stroke-width:0.5;"/><text fill="#000000" font-family="sans-serif" font-size="12" lengthAdjust="spacing" textLength="208.2012" x="188.8145" y="767.4668">Increased Architectural Coherence</text></g><!--entity OUT_YSRwR0--><g class="entity" data-entity="OUT_YSRwR0" data-source-line="11" data-uid="ent0006" id="entity_OUT_YSRwR0"><rect fill="#EDD6F0" height="44" rx="2" ry="2" style="stroke:#7B3F9A;stroke-width:0.5;" width="423.043" x="620.5" y="736.2969"/><ellipse cx="641.6" cy="759.1969" fill="none" rx="6.45" ry="6.45" style="stroke:#252327;stroke-width:1.95;"/><ellipse cx="641.6" cy="759.1969" fill="none" rx="3.3" ry="3.3" style="stroke:#252327;stroke-width:1.95;"/><path d="M645.77,756.6919 L644.63,755.1019 L649.28,751.8019 L650.42,753.3919" fill="#252327"/><path d="M645.8,757.1719 L649.55,757.1719 L649.55,759.1219 L645.8,759.1219" fill="#252327"/><ellipse cx="641.6" cy="759.1969" fill="#252327" rx="1.35" ry="1.35" style="stroke:#252327;stroke-width:0.5;"/><text fill="#000000" font-family="sans-serif" font-size="12" lengthAdjust="spacing" textLength="375.2285" x="658.3145" y="767.4668">Stakeholder Concerns and Hand-Off Points Explicitly Verifiable</text></g><!--entity GOL_5Fk9di--><g class="entity" data-entity="GOL_5Fk9di" data-source-line="15" data-uid="ent0008" id="entity_GOL_5Fk9di"><rect fill="#EDD6F0" height="44" rx="2" ry="2" style="stroke:#7B3F9A;stroke-width:0.5;" width="302.2227" x="128" y="516.2969"/><ellipse cx="150" cy="538.2969" fill="none" rx="7.2" ry="7.2" style="stroke:#252327;stroke-width:1.95;"/><ellipse cx="150" cy="538.2969" fill="none" rx="4.35" ry="4.35" style="stroke:#252327;stroke-width:1.95;"/><ellipse cx="150" cy="538.2969" fill="#252327" rx="1.95" ry="1.95" style="stroke:#252327;stroke-width:0.5;"/><text fill="#000000" font-family="sans-serif" font-size="12" lengthAdjust="spacing" textLength="254.4082" x="165.8145" y="547.4668">Support Architecture Planning for Humans</text></g><!--entity GOL_Iwha3--><g class="entity" data-entity="GOL_Iwha3" data-source-line="16" data-uid="ent0009" id="entity_GOL_Iwha3"><rect fill="#EDD6F0" height="44" rx="2" ry="2" style="stroke:#7B3F9A;stroke-width:0.5;" width="264.4414" x="700" y="620.2969"/><ellipse cx="722" cy="642.2969" fill="none" rx="7.2" ry="7.2" style="stroke:#252327;stroke-width:1.95;"/><ellipse cx="722" cy="642.2969" fill="none" rx="4.35" ry="4.35" style="stroke:#252327;stroke-width:1.95;"/><ellipse cx="722" cy="642.2969" fill="#252327" rx="1.95" ry="1.95" style="stroke:#252327;stroke-width:0.5;"/><text fill="#000000" font-family="sans-serif" font-size="12" lengthAdjust="spacing" textLength="216.627" x="737.8145" y="651.4668">Support Architecture Planning for AI</text></g><!--entity GOL_Gh3Jk1--><g class="entity" data-entity="GOL_Gh3Jk1" data-source-line="17" data-uid="ent0010" id="entity_GOL_Gh3Jk1"><rect fill="#EDD6F0" height="44" rx="2" ry="2" style="stroke:#7B3F9A;stroke-width:0.5;" width="311.627" x="1191" y="620.2969"/><ellipse cx="1213" cy="642.2969" fill="none" rx="7.2" ry="7.2" style="stroke:#252327;stroke-width:1.95;"/><ellipse cx="1213" cy="642.2969" fill="none" rx="4.35" ry="4.35" style="stroke:#252327;stroke-width:1.95;"/><ellipse cx="1213" cy="642.2969" fill="#252327" rx="1.95" ry="1.95" style="stroke:#252327;stroke-width:0.5;"/><text fill="#000000" font-family="sans-serif" font-size="12" lengthAdjust="spacing" textLength="263.8125" x="1228.8145" y="651.4668">Provide Development Guidance for Humans</text></g><!--entity GOL_e3nCpO--><g class="entity" data-entity="GOL_e3nCpO" data-source-line="18" data-uid="ent0011" id="entity_GOL_e3nCpO"><rect fill="#EDD6F0" height="44" rx="2" ry="2" style="stroke:#7B3F9A;stroke-width:0.5;" width="273.8457" x="1712" y="620.2969"/><ellipse cx="1734" cy="642.2969" fill="none" rx="7.2" ry="7.2" style="stroke:#252327;stroke-width:1.95;"/><ellipse cx="1734" cy="642.2969" fill="none" rx="4.35" ry="4.35" style="stroke:#252327;stroke-width:1.95;"/><ellipse cx="1734" cy="642.2969" fill="#252327" rx="1.95" ry="1.95" style="stroke:#252327;stroke-width:0.5;"/><text fill="#000000" font-family="sans-serif" font-size="12" lengthAdjust="spacing" textLength="226.0313" x="1749.8145" y="651.4668">Provide Development Guidance for AI</text></g><!--entity OUT_AlZjX8--><g class="entity" data-entity="OUT_AlZjX8" data-source-line="19" data-uid="ent0012" id="entity_OUT_AlZjX8"><rect fill="#EDD6F0" height="44" rx="2" ry="2" style="stroke:#7B3F9A;stroke-width:0.5;" width="218.498" x="723" y="516.2969"/><ellipse cx="744.1" cy="539.1969" fill="none" rx="6.45" ry="6.45" style="stroke:#252327;stroke-width:1.95;"/><ellipse cx="744.1" cy="539.1969" fill="none" rx="3.3" ry="3.3" style="stroke:#252327;stroke-width:1.95;"/><path d="M748.27,536.6919 L747.13,535.1019 L751.78,531.8019 L752.92,533.3919" fill="#252327"/><path d="M748.3,537.1719 L752.05,537.1719 L752.05,539.1219 L748.3,539.1219" fill="#252327"/><ellipse cx="744.1" cy="539.1969" fill="#252327" rx="1.35" ry="1.35" style="stroke:#252327;stroke-width:0.5;"/><text fill="#000000" font-family="sans-serif" font-size="12" lengthAdjust="spacing" textLength="170.6836" x="760.8145" y="547.4668">Reduced Planning Overhead</text></g><!--entity OUT_FXFGrO--><g class="entity" data-entity="OUT_FXFGrO" data-source-line="20" data-uid="ent0013" id="entity_OUT_FXFGrO"><rect fill="#EDD6F0" height="44" rx="2" ry="2" style="stroke:#7B3F9A;stroke-width:0.5;" width="436.2207" x="1129" y="516.2969"/><ellipse cx="1150.1" cy="539.1969" fill="none" rx="6.45" ry="6.45" style="stroke:#252327;stroke-width:1.95;"/><ellipse cx="1150.1" cy="539.1969" fill="none" rx="3.3" ry="3.3" style="stroke:#252327;stroke-width:1.95;"/><path d="M1154.27,536.6919 L1153.13,535.1019 L1157.78,531.8019 L1158.92,533.3919" fill="#252327"/><path d="M1154.3,537.1719 L1158.05,537.1719 L1158.05,539.1219 L1154.3,539.1219" fill="#252327"/><ellipse cx="1150.1" cy="539.1969" fill="#252327" rx="1.35" ry="1.35" style="stroke:#252327;stroke-width:0.5;"/><text fill="#000000" font-family="sans-serif" font-size="12" lengthAdjust="spacing" textLength="388.4063" x="1166.8145" y="547.4668">Architectural Guidance Available Without Specialist Dependency</text></g><!--entity OUT__AzP1Q--><g class="entity" data-entity="OUT__AzP1Q" data-source-line="21" data-uid="ent0014" id="entity_OUT__AzP1Q"><rect fill="#EDD6F0" height="44" rx="2" ry="2" style="stroke:#7B3F9A;stroke-width:0.5;" width="379.1035" x="1659.5" y="516.2969"/><ellipse cx="1680.6" cy="539.1969" fill="none" rx="6.45" ry="6.45" style="stroke:#252327;stroke-width:1.95;"/><ellipse cx="1680.6" cy="539.1969" fill="none" rx="3.3" ry="3.3" style="stroke:#252327;stroke-width:1.95;"/><path d="M1684.77,536.6919 L1683.63,535.1019 L1688.28,531.8019 L1689.42,533.3919" fill="#252327"/><path d="M1684.8,537.1719 L1688.55,537.1719 L1688.55,539.1219 L1684.8,539.1219" fill="#252327"/><ellipse cx="1680.6" cy="539.1969" fill="#252327" rx="1.35" ry="1.35" style="stroke:#252327;stroke-width:0.5;"/><text fill="#000000" font-family="sans-serif" font-size="12" lengthAdjust="spacing" textLength="331.2891" x="1697.3145" y="547.4668">AI Agents Produce Fewer Architecture-Drift Corrections</text></g><!--entity GOL_W6Z8pa--><g class="entity" data-entity="GOL_W6Z8pa" data-source-line="25" data-uid="ent0016" id="entity_GOL_W6Z8pa"><rect fill="#EDD6F0" height="44" rx="2" ry="2" style="stroke:#7B3F9A;stroke-width:0.5;" width="287.2285" x="135.5" y="400.2969"/><ellipse cx="157.5" cy="422.2969" fill="none" rx="7.2" ry="7.2" style="stroke:#252327;stroke-width:1.95;"/><ellipse cx="157.5" cy="422.2969" fill="none" rx="4.35" ry="4.35" style="stroke:#252327;stroke-width:1.95;"/><ellipse cx="157.5" cy="422.2969" fill="#252327" rx="1.95" ry="1.95" style="stroke:#252327;stroke-width:0.5;"/><text fill="#000000" font-family="sans-serif" font-size="12" lengthAdjust="spacing" textLength="239.4141" x="173.3145" y="431.4668">Support Technology Design for Humans</text></g><!--entity GOL_B6G__P--><g class="entity" data-entity="GOL_B6G__P" data-source-line="26" data-uid="ent0017" id="entity_GOL_B6G__P"><rect fill="#EDD6F0" height="44" rx="2" ry="2" style="stroke:#7B3F9A;stroke-width:0.5;" width="249.4473" x="707.5" y="400.2969"/><ellipse cx="729.5" cy="422.2969" fill="none" rx="7.2" ry="7.2" style="stroke:#252327;stroke-width:1.95;"/><ellipse cx="729.5" cy="422.2969" fill="none" rx="4.35" ry="4.35" style="stroke:#252327;stroke-width:1.95;"/><ellipse cx="729.5" cy="422.2969" fill="#252327" rx="1.95" ry="1.95" style="stroke:#252327;stroke-width:0.5;"/><text fill="#000000" font-family="sans-serif" font-size="12" lengthAdjust="spacing" textLength="201.6328" x="745.3145" y="431.4668">Support Technology Design for AI</text></g><!--entity GOL_hEEWS8--><g class="entity" data-entity="GOL_hEEWS8" data-source-line="27" data-uid="ent0018" id="entity_GOL_hEEWS8"><rect fill="#EDD6F0" height="44" rx="2" ry="2" style="stroke:#7B3F9A;stroke-width:0.5;" width="264.0078" x="1215" y="400.2969"/><ellipse cx="1237" cy="422.2969" fill="none" rx="7.2" ry="7.2" style="stroke:#252327;stroke-width:1.95;"/><ellipse cx="1237" cy="422.2969" fill="none" rx="4.35" ry="4.35" style="stroke:#252327;stroke-width:1.95;"/><ellipse cx="1237" cy="422.2969" fill="#252327" rx="1.95" ry="1.95" style="stroke:#252327;stroke-width:0.5;"/><text fill="#000000" font-family="sans-serif" font-size="12" lengthAdjust="spacing" textLength="216.1934" x="1252.8145" y="431.4668">Support Product Design for Humans</text></g><!--entity GOL_zBPs_y--><g class="entity" data-entity="GOL_zBPs_y" data-source-line="28" data-uid="ent0019" id="entity_GOL_zBPs_y"><rect fill="#EDD6F0" height="44" rx="2" ry="2" style="stroke:#7B3F9A;stroke-width:0.5;" width="226.2266" x="1736" y="400.2969"/><ellipse cx="1758" cy="422.2969" fill="none" rx="7.2" ry="7.2" style="stroke:#252327;stroke-width:1.95;"/><ellipse cx="1758" cy="422.2969" fill="none" rx="4.35" ry="4.35" style="stroke:#252327;stroke-width:1.95;"/><ellipse cx="1758" cy="422.2969" fill="#252327" rx="1.95" ry="1.95" style="stroke:#252327;stroke-width:0.5;"/><text fill="#000000" font-family="sans-serif" font-size="12" lengthAdjust="spacing" textLength="178.4121" x="1773.8145" y="431.4668">Support Product Design for AI</text></g><!--entity OUT_a5mNob--><g class="entity" data-entity="OUT_a5mNob" data-source-line="29" data-uid="ent0020" id="entity_OUT_a5mNob"><rect fill="#EDD6F0" height="44" rx="2" ry="2" style="stroke:#7B3F9A;stroke-width:0.5;" width="502.9121" x="27.5" y="296.2969"/><ellipse cx="48.6" cy="319.1969" fill="none" rx="6.45" ry="6.45" style="stroke:#252327;stroke-width:1.95;"/><ellipse cx="48.6" cy="319.1969" fill="none" rx="3.3" ry="3.3" style="stroke:#252327;stroke-width:1.95;"/><path d="M52.77,316.6919 L51.63,315.1019 L56.28,311.8019 L57.42,313.3919" fill="#252327"/><path d="M52.8,317.1719 L56.55,317.1719 L56.55,319.1219 L52.8,319.1219" fill="#252327"/><ellipse cx="48.6" cy="319.1969" fill="#252327" rx="1.35" ry="1.35" style="stroke:#252327;stroke-width:0.5;"/><text fill="#000000" font-family="sans-serif" font-size="12" lengthAdjust="spacing" textLength="455.0977" x="65.3145" y="327.4668">Technology Changes Validated Against Architecture Before Implementation</text></g><!--entity OUT_i_3Bi_--><g class="entity" data-entity="OUT_i_3Bi_" data-source-line="30" data-uid="ent0021" id="entity_OUT_i_3Bi_"><rect fill="#EDD6F0" height="44" rx="2" ry="2" style="stroke:#7B3F9A;stroke-width:0.5;" width="433.7773" x="615" y="296.2969"/><ellipse cx="636.1" cy="319.1969" fill="none" rx="6.45" ry="6.45" style="stroke:#252327;stroke-width:1.95;"/><ellipse cx="636.1" cy="319.1969" fill="none" rx="3.3" ry="3.3" style="stroke:#252327;stroke-width:1.95;"/><path d="M640.27,316.6919 L639.13,315.1019 L643.78,311.8019 L644.92,313.3919" fill="#252327"/><path d="M640.3,317.1719 L644.05,317.1719 L644.05,319.1219 L640.3,319.1219" fill="#252327"/><ellipse cx="636.1" cy="319.1969" fill="#252327" rx="1.35" ry="1.35" style="stroke:#252327;stroke-width:0.5;"/><text fill="#000000" font-family="sans-serif" font-size="12" lengthAdjust="spacing" textLength="385.9629" x="652.8145" y="327.4668">AI Agents Query Technology Architecture to Identify Constraints</text></g><!--entity OUT_9jS0BB--><g class="entity" data-entity="OUT_9jS0BB" data-source-line="31" data-uid="ent0022" id="entity_OUT_9jS0BB"><rect fill="#EDD6F0" height="44" rx="2" ry="2" style="stroke:#7B3F9A;stroke-width:0.5;" width="395.4453" x="1149.5" y="296.2969"/><ellipse cx="1170.6" cy="319.1969" fill="none" rx="6.45" ry="6.45" style="stroke:#252327;stroke-width:1.95;"/><ellipse cx="1170.6" cy="319.1969" fill="none" rx="3.3" ry="3.3" style="stroke:#252327;stroke-width:1.95;"/><path d="M1174.77,316.6919 L1173.63,315.1019 L1178.28,311.8019 L1179.42,313.3919" fill="#252327"/><path d="M1174.8,317.1719 L1178.55,317.1719 L1178.55,319.1219 L1174.8,319.1219" fill="#252327"/><ellipse cx="1170.6" cy="319.1969" fill="#252327" rx="1.35" ry="1.35" style="stroke:#252327;stroke-width:0.5;"/><text fill="#000000" font-family="sans-serif" font-size="12" lengthAdjust="spacing" textLength="347.6309" x="1187.3145" y="327.4668">Product Requirements Traceable to Realized Components</text></g><!--entity OUT_Cn_CVI--><g class="entity" data-entity="OUT_Cn_CVI" data-source-line="32" data-uid="ent0023" id="entity_OUT_Cn_CVI"><rect fill="#EDD6F0" height="44" rx="2" ry="2" style="stroke:#7B3F9A;stroke-width:0.5;" width="408.3418" x="1645" y="296.2969"/><ellipse cx="1666.1" cy="319.1969" fill="none" rx="6.45" ry="6.45" style="stroke:#252327;stroke-width:1.95;"/><ellipse cx="1666.1" cy="319.1969" fill="none" rx="3.3" ry="3.3" style="stroke:#252327;stroke-width:1.95;"/><path d="M1670.27,316.6919 L1669.13,315.1019 L1673.78,311.8019 L1674.92,313.3919" fill="#252327"/><path d="M1670.3,317.1719 L1674.05,317.1719 L1674.05,319.1219 L1670.3,319.1219" fill="#252327"/><ellipse cx="1666.1" cy="319.1969" fill="#252327" rx="1.35" ry="1.35" style="stroke:#252327;stroke-width:0.5;"/><text fill="#000000" font-family="sans-serif" font-size="12" lengthAdjust="spacing" textLength="360.5273" x="1682.8145" y="327.4668">AI Agents Traverse Product-Architecture Traceability Chains</text></g><!--entity GOL_Zx9Cv4--><g class="entity" data-entity="GOL_Zx9Cv4" data-source-line="36" data-uid="ent0025" id="entity_GOL_Zx9Cv4"><rect fill="#EDD6F0" height="44" rx="2" ry="2" style="stroke:#7B3F9A;stroke-width:0.5;" width="301.332" x="128.5" y="180.2969"/><ellipse cx="150.5" cy="202.2969" fill="none" rx="7.2" ry="7.2" style="stroke:#252327;stroke-width:1.95;"/><ellipse cx="150.5" cy="202.2969" fill="none" rx="4.35" ry="4.35" style="stroke:#252327;stroke-width:1.95;"/><ellipse cx="150.5" cy="202.2969" fill="#252327" rx="1.95" ry="1.95" style="stroke:#252327;stroke-width:0.5;"/><text fill="#000000" font-family="sans-serif" font-size="12" lengthAdjust="spacing" textLength="253.5176" x="166.3145" y="211.4668">Enable Architecture Management at Scale</text></g><!--entity GOL_kCcPph--><g class="entity" data-entity="GOL_kCcPph" data-source-line="37" data-uid="ent0026" id="entity_GOL_kCcPph"><rect fill="#EDD6F0" height="44" rx="2" ry="2" style="stroke:#7B3F9A;stroke-width:0.5;" width="328.4199" x="668" y="180.2969"/><ellipse cx="690" cy="202.2969" fill="none" rx="7.2" ry="7.2" style="stroke:#252327;stroke-width:1.95;"/><ellipse cx="690" cy="202.2969" fill="none" rx="4.35" ry="4.35" style="stroke:#252327;stroke-width:1.95;"/><ellipse cx="690" cy="202.2969" fill="#252327" rx="1.95" ry="1.95" style="stroke:#252327;stroke-width:0.5;"/><text fill="#000000" font-family="sans-serif" font-size="12" lengthAdjust="spacing" textLength="280.6055" x="705.8145" y="211.4668">Enable Cross-Engagement Architectural Reuse</text></g><!--entity OUT_aOcRl9--><g class="entity" data-entity="OUT_aOcRl9" data-source-line="38" data-uid="ent0027" id="entity_OUT_aOcRl9"><rect fill="#EDD6F0" height="44" rx="2" ry="2" style="stroke:#7B3F9A;stroke-width:0.5;" width="511.7891" x="23" y="76.2969"/><ellipse cx="44.1" cy="99.1969" fill="none" rx="6.45" ry="6.45" style="stroke:#252327;stroke-width:1.95;"/><ellipse cx="44.1" cy="99.1969" fill="none" rx="3.3" ry="3.3" style="stroke:#252327;stroke-width:1.95;"/><path d="M48.27,96.6919 L47.13,95.1019 L51.78,91.8019 L52.92,93.3919" fill="#252327"/><path d="M48.3,97.1719 L52.05,97.1719 L52.05,99.1219 L48.3,99.1219" fill="#252327"/><ellipse cx="44.1" cy="99.1969" fill="#252327" rx="1.35" ry="1.35" style="stroke:#252327;stroke-width:0.5;"/><text fill="#000000" font-family="sans-serif" font-size="12" lengthAdjust="spacing" textLength="463.9746" x="60.8145" y="107.4668">Architecture Governance Scales Without Proportional Coordination Overhead</text></g><!--entity OUT_edEkJa--><g class="entity" data-entity="OUT_edEkJa" data-source-line="39" data-uid="ent0028" id="entity_OUT_edEkJa"><rect fill="#EDD6F0" height="44" rx="2" ry="2" style="stroke:#7B3F9A;stroke-width:0.5;" width="416.1699" x="624" y="76.2969"/><ellipse cx="645.1" cy="99.1969" fill="none" rx="6.45" ry="6.45" style="stroke:#252327;stroke-width:1.95;"/><ellipse cx="645.1" cy="99.1969" fill="none" rx="3.3" ry="3.3" style="stroke:#252327;stroke-width:1.95;"/><path d="M649.27,96.6919 L648.13,95.1019 L652.78,91.8019 L653.92,93.3919" fill="#252327"/><path d="M649.3,97.1719 L653.05,97.1719 L653.05,99.1219 L649.3,99.1219" fill="#252327"/><ellipse cx="645.1" cy="99.1969" fill="#252327" rx="1.35" ry="1.35" style="stroke:#252327;stroke-width:0.5;"/><text fill="#000000" font-family="sans-serif" font-size="12" lengthAdjust="spacing" textLength="368.3555" x="661.8145" y="107.4668">Proven Patterns Promoted and Adopted Across Engagements</text></g><!--link GOL_Po1Qw3 to OUT_LrpdG0--><!--reverse link GOL_Po1Qw3 to OUT_LrpdG0--><g class="link" data-entity-1="GOL_Po1Qw3" data-entity-2="OUT_LrpdG0" data-source-line="70" data-uid="lnk57" id="link_GOL_Po1Qw3_OUT_LrpdG0"><path d="M237,822.2369 C237,804.5969 237,797.9569 237,780.3169" fill="none" id="GOL_Po1Qw3-backto-OUT_LrpdG0" style="stroke:#181818;stroke-width:1;"/><polygon fill="none" points="237,840.2369,243,822.2369,231,822.2369,237,840.2369" style="stroke:#181818;stroke-width:1;"/><text fill="#000000" font-family="sans-serif" font-size="12" lengthAdjust="spacing" textLength="77.6602" x="159" y="822.4155">&#171;realization&#187;</text></g><!--link GOL_Lm2Bn2 to OUT_YSRwR0--><!--reverse link GOL_Lm2Bn2 to OUT_YSRwR0--><g class="link" data-entity-1="GOL_Lm2Bn2" data-entity-2="OUT_YSRwR0" data-source-line="71" data-uid="lnk59" id="link_GOL_Lm2Bn2_OUT_YSRwR0"><path d="M788,822.2369 C788,804.5969 788,797.9569 788,780.3169" fill="none" id="GOL_Lm2Bn2-backto-OUT_YSRwR0" style="stroke:#181818;stroke-width:1;"/><polygon fill="none" points="788,840.2369,794,822.2369,782,822.2369,788,840.2369" style="stroke:#181818;stroke-width:1;"/><text fill="#000000" font-family="sans-serif" font-size="12" lengthAdjust="spacing" textLength="77.6602" x="710" y="822.4155">&#171;realization&#187;</text></g><!--link GOL_Po1Qw3 to GOL_Lm2Bn2--><!--link OUT_LrpdG0 to OUT_YSRwR0--><!--link GOL_5Fk9di to OUT_AlZjX8--><!--reverse link GOL_5Fk9di to OUT_AlZjX8--><g class="link" data-entity-1="GOL_5Fk9di" data-entity-2="OUT_AlZjX8" data-source-line="72" data-uid="lnk61" id="link_GOL_5Fk9di_OUT_AlZjX8"><path d="M448.11,538.2969 C540.69,538.2969 639.06,538.2969 722.72,538.2969" fill="none" id="GOL_5Fk9di-backto-OUT_AlZjX8" style="stroke:#181818;stroke-width:1;"/><polygon fill="none" points="430.11,538.2969,448.11,544.2969,448.11,532.2969,430.11,538.2969" style="stroke:#181818;stroke-width:1;"/><text fill="#000000" font-family="sans-serif" font-size="12" lengthAdjust="spacing" textLength="77.6602" x="498.42" y="550.4355">&#171;realization&#187;</text></g><!--link GOL_Iwha3 to OUT_AlZjX8--><!--reverse link GOL_Iwha3 to OUT_AlZjX8--><g class="link" data-entity-1="GOL_Iwha3" data-entity-2="OUT_AlZjX8" data-source-line="73" data-uid="lnk63" id="link_GOL_Iwha3_OUT_AlZjX8"><path d="M796,602.2369 C796,584.5969 796,577.9569 796,560.3169" fill="none" id="GOL_Iwha3-backto-OUT_AlZjX8" style="stroke:#181818;stroke-width:1;"/><polygon fill="none" points="796,620.2369,802,602.2369,790,602.2369,796,620.2369" style="stroke:#181818;stroke-width:1;"/><text fill="#000000" font-family="sans-serif" font-size="12" lengthAdjust="spacing" textLength="77.6602" x="718" y="602.4155">&#171;realization&#187;</text></g><!--link GOL_Gh3Jk1 to OUT_FXFGrO--><!--reverse link GOL_Gh3Jk1 to OUT_FXFGrO--><g class="link" data-entity-1="GOL_Gh3Jk1" data-entity-2="OUT_FXFGrO" data-source-line="74" data-uid="lnk65" id="link_GOL_Gh3Jk1_OUT_FXFGrO"><path d="M1295,602.2369 C1295,584.5969 1295,577.9569 1295,560.3169" fill="none" id="GOL_Gh3Jk1-backto-OUT_FXFGrO" style="stroke:#181818;stroke-width:1;"/><polygon fill="none" points="1295,620.2369,1301,602.2369,1289,602.2369,1295,620.2369" style="stroke:#181818;stroke-width:1;"/><text fill="#000000" font-family="sans-serif" font-size="12" lengthAdjust="spacing" textLength="77.6602" x="1217" y="602.4155">&#171;realization&#187;</text></g><!--link GOL_e3nCpO to OUT__AzP1Q--><!--reverse link GOL_e3nCpO to OUT__AzP1Q--><g class="link" data-entity-1="GOL_e3nCpO" data-entity-2="OUT__AzP1Q" data-source-line="75" data-uid="lnk67" id="link_GOL_e3nCpO_OUT__AzP1Q"><path d="M1804,602.2369 C1804,584.5969 1804,577.9569 1804,560.3169" fill="none" id="GOL_e3nCpO-backto-OUT__AzP1Q" style="stroke:#181818;stroke-width:1;"/><polygon fill="none" points="1804,620.2369,1810,602.2369,1798,602.2369,1804,620.2369" style="stroke:#181818;stroke-width:1;"/><text fill="#000000" font-family="sans-serif" font-size="12" lengthAdjust="spacing" textLength="77.6602" x="1726" y="602.4155">&#171;realization&#187;</text></g><!--link GOL_5Fk9di to GOL_Iwha3--><!--link GOL_Iwha3 to GOL_Gh3Jk1--><!--link GOL_Gh3Jk1 to GOL_e3nCpO--><!--link OUT_AlZjX8 to OUT_FXFGrO--><!--link OUT_FXFGrO to OUT__AzP1Q--><!--link GOL_W6Z8pa to OUT_a5mNob--><!--reverse link GOL_W6Z8pa to OUT_a5mNob--><g class="link" data-entity-1="GOL_W6Z8pa" data-entity-2="OUT_a5mNob" data-source-line="76" data-uid="lnk69" id="link_GOL_W6Z8pa_OUT_a5mNob"><path d="M232,382.2369 C232,364.5969 232,357.9569 232,340.3169" fill="none" id="GOL_W6Z8pa-backto-OUT_a5mNob" style="stroke:#181818;stroke-width:1;"/><polygon fill="none" points="232,400.2369,238,382.2369,226,382.2369,232,400.2369" style="stroke:#181818;stroke-width:1;"/><text fill="#000000" font-family="sans-serif" font-size="12" lengthAdjust="spacing" textLength="77.6602" x="154" y="382.4155">&#171;realization&#187;</text></g><!--link GOL_B6G__P to OUT_i_3Bi_--><!--reverse link GOL_B6G__P to OUT_i_3Bi_--><g class="link" data-entity-1="GOL_B6G__P" data-entity-2="OUT_i_3Bi_" data-source-line="77" data-uid="lnk71" id="link_GOL_B6G__P_OUT_i_3Bi_"><path d="M791,382.2369 C791,364.5969 791,357.9569 791,340.3169" fill="none" id="GOL_B6G__P-backto-OUT_i_3Bi_" style="stroke:#181818;stroke-width:1;"/><polygon fill="none" points="791,400.2369,797,382.2369,785,382.2369,791,400.2369" style="stroke:#181818;stroke-width:1;"/><text fill="#000000" font-family="sans-serif" font-size="12" lengthAdjust="spacing" textLength="77.6602" x="713" y="382.4155">&#171;realization&#187;</text></g><!--link GOL_hEEWS8 to OUT_9jS0BB--><!--reverse link GOL_hEEWS8 to OUT_9jS0BB--><g class="link" data-entity-1="GOL_hEEWS8" data-entity-2="OUT_9jS0BB" data-source-line="78" data-uid="lnk73" id="link_GOL_hEEWS8_OUT_9jS0BB"><path d="M1303,382.2369 C1303,364.5969 1303,357.9569 1303,340.3169" fill="none" id="GOL_hEEWS8-backto-OUT_9jS0BB" style="stroke:#181818;stroke-width:1;"/><polygon fill="none" points="1303,400.2369,1309,382.2369,1297,382.2369,1303,400.2369" style="stroke:#181818;stroke-width:1;"/><text fill="#000000" font-family="sans-serif" font-size="12" lengthAdjust="spacing" textLength="77.6602" x="1225" y="382.4155">&#171;realization&#187;</text></g><!--link GOL_zBPs_y to OUT_Cn_CVI--><!--reverse link GOL_zBPs_y to OUT_Cn_CVI--><g class="link" data-entity-1="GOL_zBPs_y" data-entity-2="OUT_Cn_CVI" data-source-line="79" data-uid="lnk75" id="link_GOL_zBPs_y_OUT_Cn_CVI"><path d="M1812,382.2369 C1812,364.5969 1812,357.9569 1812,340.3169" fill="none" id="GOL_zBPs_y-backto-OUT_Cn_CVI" style="stroke:#181818;stroke-width:1;"/><polygon fill="none" points="1812,400.2369,1818,382.2369,1806,382.2369,1812,400.2369" style="stroke:#181818;stroke-width:1;"/><text fill="#000000" font-family="sans-serif" font-size="12" lengthAdjust="spacing" textLength="77.6602" x="1734" y="382.4155">&#171;realization&#187;</text></g><!--link GOL_W6Z8pa to GOL_B6G__P--><!--link GOL_B6G__P to GOL_hEEWS8--><!--link GOL_hEEWS8 to GOL_zBPs_y--><!--link OUT_a5mNob to OUT_i_3Bi_--><!--link OUT_i_3Bi_ to OUT_9jS0BB--><!--link OUT_9jS0BB to OUT_Cn_CVI--><!--link GOL_Zx9Cv4 to OUT_aOcRl9--><!--reverse link GOL_Zx9Cv4 to OUT_aOcRl9--><g class="link" data-entity-1="GOL_Zx9Cv4" data-entity-2="OUT_aOcRl9" data-source-line="80" data-uid="lnk77" id="link_GOL_Zx9Cv4_OUT_aOcRl9"><path d="M229,162.2369 C229,144.5969 229,137.9569 229,120.3169" fill="none" id="GOL_Zx9Cv4-backto-OUT_aOcRl9" style="stroke:#181818;stroke-width:1;"/><polygon fill="none" points="229,180.2369,235,162.2369,223,162.2369,229,180.2369" style="stroke:#181818;stroke-width:1;"/><text fill="#000000" font-family="sans-serif" font-size="12" lengthAdjust="spacing" textLength="77.6602" x="151" y="162.4155">&#171;realization&#187;</text></g><!--link GOL_kCcPph to OUT_edEkJa--><!--reverse link GOL_kCcPph to OUT_edEkJa--><g class="link" data-entity-1="GOL_kCcPph" data-entity-2="OUT_edEkJa" data-source-line="81" data-uid="lnk79" id="link_GOL_kCcPph_OUT_edEkJa"><path d="M778,162.2369 C778,144.5969 778,137.9569 778,120.3169" fill="none" id="GOL_kCcPph-backto-OUT_edEkJa" style="stroke:#181818;stroke-width:1;"/><polygon fill="none" points="778,180.2369,784,162.2369,772,162.2369,778,180.2369" style="stroke:#181818;stroke-width:1;"/><text fill="#000000" font-family="sans-serif" font-size="12" lengthAdjust="spacing" textLength="77.6602" x="700" y="162.4155">&#171;realization&#187;</text></g><!--link GOL_Zx9Cv4 to GOL_kCcPph--><!--link OUT_aOcRl9 to OUT_edEkJa--><!--SRC=[hLVXJXj74FxlfzX4LV-PG2WHHDIIxHZ74TJ6ff1ILQVbRkpRSBTxsTqpCMcaF4IVi4_ItRkrzyuCjAR-0J9ePhwPsU-R6RzWF4po2CZEpgk0oZ1cATNGL1ea2Bt8GEraUPeqNk1sisIHnSuaWQacMX39Ph4c4PCGQYPuew6PJe2S2StcrFw7_FtzBz8ND57aHpBCTIXIK6_990z3K8fq9JFeZ9AR1Rc88OL6muQYV6QYlEoAsAJ6Gp2-bpHXKH7o9Ja-zW1zAVACyLchHRus2Abu7_-moZsm6NnL8KtWvxsTWsyjSaOPr-Q7U0pA8t8XQGZqXYLCBooEzJEHgIBzuMam4dldT_iReFGulJ56NIcKQauqlOLO9178jMhgAAVfwmv__JYAws8DQC132LH1HDhMJXlFNDB4LsTXd6E9DFpr8ZYLMTJVtGofMaLNcCYIgw9rxyslvd0w9IDXMgj8xqkMiD3GOK4kpHDFcMq5ciPla_7TUBVnhVRseuHoRjxLF7q_DxroDVplXv_aMIQahlO9o0fiAYHvdwUKguVlSd1oUnInhKAr1mzX1dSntOHZ8odcp8Zr7SmX4LaANAywzcGz_NZ_m-tUDf6mSc2VTxFXPXmRGvI7XikhNWtd86EW4KgVTdBzwUFXPWXrbQoAQCyfImh9NZ4TYroJIGOXCs9LsfIT0O-Cc1Pe6YSVJ_fomqBR0zAUWLMBwQsjcPp0dH5MbJ7DTqOyscXDkY6hKFYWVJ_QEryJqGM4CHU9c2sCZ4e8MuTYCxvLCLLmokXF4k_gpVLXHhS6Wx6kywOV1ADdGDIRz6GPSQztDJdS3WPMmtrdf8B5PeIgTAWR6nzGorLZLyFCB3orDeywOF213D8i0QlerL9wm31waFuYRfvByFCSvAAQNoqBSqeCZBGqcoxiLb5QslsCCvq5-nqMR9R7ikLZ-9oROoKjKdBBFYdWns3wT6-wr1Lf9ZWyXdxqQRBRwJot2mRIZ385ouIQjIvKhm_xVkmHhNTvqBqSh6czBqnaJijhQMBHjo9nTyBKyZoZdCwA9XAgFLQTljTVZhhpdvvxBFNuR0bHdzLZo1M2TjiDHrdyx2K0fDA-eY2rMW7cgQniJGkBWqh8YF7ojdroBT5XE4wEDgRf73WPKQsBkyhydGehNNjWjIEH5J8EROU8xn1E4eXwjn-e9Oa_NKdpzvX5HcX_58Txite5-jCJjN976XOh4dUyMJrTVTHrexL8vKc5uhcjlhg8_isel6PGAxUP_JM2Mha5YgNb2ooFCoGfR-BEAYmdR-Ik8by3rYYNj_-86LNIBlSgMfoRtNurebPkilhbXbgv2UXN56hbPXIMbs-3MzDOMjx8xLaiAs_abgMl5UkLgyz_n8nSUVuZPbIfhfnpUDVB4U3d4shbX8h5ylMv-UQZObcvI3NzsM_gpJzRbU-lvAqP5x9OTyKOQxKQNfPr1pSFS8SbSQiEJZd_tQ6K4Mw_97tLtaaAToYrK7TmYiSTbbIfEZYsuWvBsbGT77DnXoM5gWwEnRX3oQowWvFP8pKuEbGT78zmXv8bTGT7pmSE_m00]--></g></svg>