<svg xmlns="http://www.w3.org/2000/svg" xmlns:xlink="http://www.w3.org/1999/xlink" contentStyleType="text/css" data-diagram-type="DESCRIPTION" height="269px" preserveAspectRatio="none" style="width:4049px;height:269px;background:#FAFAFA;" version="1.1" viewBox="0 0 4049 269" width="4049px" zoomAndPan="magnify"><title>Motivation &#8212; Goal Landscape: From Problems to Goals</title><defs/><g><rect fill="#FAFAFA" height="269" style="stroke:none;stroke-width:1;" width="4049" x="0" y="0"/><text fill="#000000" font-family="sans-serif" font-size="14" font-weight="bold" lengthAdjust="spacing" textLength="432.4072" x="1801.2964" y="22.9951">Motivation &#8212; Goal Landscape: From Problems to Goals</text><!--cluster Motivating Assessments--><g class="cluster" data-entity="Motivating Assessments" data-source-line="7" data-uid="ent0002" id="cluster_Motivating Assessments"><rect fill="#F7EEF9" height="92" rx="2" ry="2" style="stroke:#7B3F9A;stroke-width:1;" width="1689" x="1393" y="44.2969"/><text fill="#000000" font-family="sans-serif" font-size="12" font-weight="bold" lengthAdjust="spacing" textLength="165.1758" x="2154.9121" y="57.4355">Motivating Assessments</text></g><!--cluster Human Stakeholder Goals--><g class="cluster" data-entity="Human Stakeholder Goals" data-source-line="14" data-uid="ent0007" id="cluster_Human Stakeholder Goals"><rect fill="#F7EEF9" height="92" rx="2" ry="2" style="stroke:#7B3F9A;stroke-width:1;" width="1704" x="7" y="168.2969"/><text fill="#000000" font-family="sans-serif" font-size="12" font-weight="bold" lengthAdjust="spacing" textLength="175.6758" x="771.1621" y="181.4355">Human Stakeholder Goals</text></g><!--cluster AI Agent Goals--><g class="cluster" data-entity="AI Agent Goals" data-source-line="22" data-uid="ent0013" id="cluster_AI Agent Goals"><rect fill="#F7EEF9" height="92" rx="2" ry="2" style="stroke:#7B3F9A;stroke-width:1;" width="1226" x="1739" y="168.2969"/><text fill="#000000" font-family="sans-serif" font-size="12" font-weight="bold" lengthAdjust="spacing" textLength="99.8496" x="2302.0752" y="181.4355">AI Agent Goals</text></g><!--cluster Governance Goals--><g class="cluster" data-entity="Governance Goals" data-source-line="29" data-uid="ent0018" id="cluster_Governance Goals"><rect fill="#F7EEF9" height="92" rx="2" ry="2" style="stroke:#7B3F9A;stroke-width:1;" width="1050" x="2993" y="168.2969"/><text fill="#000000" font-family="sans-serif" font-size="12" font-weight="bold" lengthAdjust="spacing" textLength="122.0332" x="3456.9834" y="181.4355">Governance Goals</text></g><!--entity ASS_EI3FpR--><g class="entity" data-entity="ASS_EI3FpR" data-source-line="8" data-uid="ent0003" id="entity_ASS_EI3FpR"><rect fill="#EDD6F0" height="44" rx="2" ry="2" style="stroke:#7B3F9A;stroke-width:0.5;" width="340.5488" x="1409.5" y="76.2969"/><path d="M1423.25,90.7969 L1439.75,90.7969 A1.5,1.5 0 0 1 1441.25,92.2969 L1441.25,101.2969 A1.5,1.5 0 0 1 1439.75,102.7969 L1428.5,102.7969 L1425.5,107.2969 L1427,102.7969 L1423.25,102.7969 A1.5,1.5 0 0 1 1421.75,101.2969 L1421.75,92.2969 A1.5,1.5 0 0 1 1423.25,90.7969" fill="#252327"/><text fill="#000000" font-family="sans-serif" font-size="12" lengthAdjust="spacing" textLength="292.7344" x="1447.3145" y="107.4668">AI Code Generation Outpaces Sequential Review</text></g><!--entity ASS_a6vxyj--><g class="entity" data-entity="ASS_a6vxyj" data-source-line="9" data-uid="ent0004" id="entity_ASS_a6vxyj"><rect fill="#EDD6F0" height="44" rx="2" ry="2" style="stroke:#7B3F9A;stroke-width:0.5;" width="275.4629" x="2790.5" y="76.2969"/><path d="M2804.25,90.7969 L2820.75,90.7969 A1.5,1.5 0 0 1 2822.25,92.2969 L2822.25,101.2969 A1.5,1.5 0 0 1 2820.75,102.7969 L2809.5,102.7969 L2806.5,107.2969 L2808,102.7969 L2804.25,102.7969 A1.5,1.5 0 0 1 2802.75,101.2969 L2802.75,92.2969 A1.5,1.5 0 0 1 2804.25,90.7969" fill="#252327"/><text fill="#000000" font-family="sans-serif" font-size="12" lengthAdjust="spacing" textLength="227.6484" x="2828.3145" y="107.4668">Centralized Governance Cannot Scale</text></g><!--entity ASS_s68vVo--><g class="entity" data-entity="ASS_s68vVo" data-source-line="10" data-uid="ent0005" id="entity_ASS_s68vVo"><rect fill="#EDD6F0" height="44" rx="2" ry="2" style="stroke:#7B3F9A;stroke-width:0.5;" width="384.2598" x="2346" y="76.2969"/><path d="M2359.75,90.7969 L2376.25,90.7969 A1.5,1.5 0 0 1 2377.75,92.2969 L2377.75,101.2969 A1.5,1.5 0 0 1 2376.25,102.7969 L2365,102.7969 L2362,107.2969 L2363.5,102.7969 L2359.75,102.7969 A1.5,1.5 0 0 1 2358.25,101.2969 L2358.25,92.2969 A1.5,1.5 0 0 1 2359.75,90.7969" fill="#252327"/><text fill="#000000" font-family="sans-serif" font-size="12" lengthAdjust="spacing" textLength="336.4453" x="2383.8145" y="107.4668">LLMs Cannot Use Unstructured Architectural Knowledge</text></g><!--entity ASS_9YWsDh--><g class="entity" data-entity="ASS_9YWsDh" data-source-line="11" data-uid="ent0006" id="entity_ASS_9YWsDh"><rect fill="#EDD6F0" height="44" rx="2" ry="2" style="stroke:#7B3F9A;stroke-width:0.5;" width="475.4258" x="1810.5" y="76.2969"/><path d="M1824.25,90.7969 L1840.75,90.7969 A1.5,1.5 0 0 1 1842.25,92.2969 L1842.25,101.2969 A1.5,1.5 0 0 1 1840.75,102.7969 L1829.5,102.7969 L1826.5,107.2969 L1828,102.7969 L1824.25,102.7969 A1.5,1.5 0 0 1 1822.75,101.2969 L1822.75,92.2969 A1.5,1.5 0 0 1 1824.25,90.7969" fill="#252327"/><text fill="#000000" font-family="sans-serif" font-size="12" lengthAdjust="spacing" textLength="427.6113" x="1848.3145" y="107.4668">Implicit Interdependencies Are Unmaintainable Without Explicit Models</text></g><!--entity GOL_5Fk9di--><g class="entity" data-entity="GOL_5Fk9di" data-source-line="15" data-uid="ent0008" id="entity_GOL_5Fk9di"><rect fill="#EDD6F0" height="44" rx="2" ry="2" style="stroke:#7B3F9A;stroke-width:0.5;" width="302.2227" x="23" y="200.2969"/><ellipse cx="45" cy="222.2969" fill="none" rx="7.2" ry="7.2" style="stroke:#252327;stroke-width:1.95;"/><ellipse cx="45" cy="222.2969" fill="none" rx="4.35" ry="4.35" style="stroke:#252327;stroke-width:1.95;"/><ellipse cx="45" cy="222.2969" fill="#252327" rx="1.95" ry="1.95" style="stroke:#252327;stroke-width:0.5;"/><text fill="#000000" font-family="sans-serif" font-size="12" lengthAdjust="spacing" textLength="254.4082" x="60.8145" y="231.4668">Support Architecture Planning for Humans</text></g><!--entity GOL_Gh3Jk1--><g class="entity" data-entity="GOL_Gh3Jk1" data-source-line="16" data-uid="ent0009" id="entity_GOL_Gh3Jk1"><rect fill="#EDD6F0" height="44" rx="2" ry="2" style="stroke:#7B3F9A;stroke-width:0.5;" width="311.627" x="385" y="200.2969"/><ellipse cx="407" cy="222.2969" fill="none" rx="7.2" ry="7.2" style="stroke:#252327;stroke-width:1.95;"/><ellipse cx="407" cy="222.2969" fill="none" rx="4.35" ry="4.35" style="stroke:#252327;stroke-width:1.95;"/><ellipse cx="407" cy="222.2969" fill="#252327" rx="1.95" ry="1.95" style="stroke:#252327;stroke-width:0.5;"/><text fill="#000000" font-family="sans-serif" font-size="12" lengthAdjust="spacing" textLength="263.8125" x="422.8145" y="231.4668">Provide Development Guidance for Humans</text></g><!--entity GOL_W6Z8pa--><g class="entity" data-entity="GOL_W6Z8pa" data-source-line="17" data-uid="ent0010" id="entity_GOL_W6Z8pa"><rect fill="#EDD6F0" height="44" rx="2" ry="2" style="stroke:#7B3F9A;stroke-width:0.5;" width="287.2285" x="757.5" y="200.2969"/><ellipse cx="779.5" cy="222.2969" fill="none" rx="7.2" ry="7.2" style="stroke:#252327;stroke-width:1.95;"/><ellipse cx="779.5" cy="222.2969" fill="none" rx="4.35" ry="4.35" style="stroke:#252327;stroke-width:1.95;"/><ellipse cx="779.5" cy="222.2969" fill="#252327" rx="1.95" ry="1.95" style="stroke:#252327;stroke-width:0.5;"/><text fill="#000000" font-family="sans-serif" font-size="12" lengthAdjust="spacing" textLength="239.4141" x="795.3145" y="231.4668">Support Technology Design for Humans</text></g><!--entity GOL_hEEWS8--><g class="entity" data-entity="GOL_hEEWS8" data-source-line="18" data-uid="ent0011" id="entity_GOL_hEEWS8"><rect fill="#EDD6F0" height="44" rx="2" ry="2" style="stroke:#7B3F9A;stroke-width:0.5;" width="264.0078" x="1105" y="200.2969"/><ellipse cx="1127" cy="222.2969" fill="none" rx="7.2" ry="7.2" style="stroke:#252327;stroke-width:1.95;"/><ellipse cx="1127" cy="222.2969" fill="none" rx="4.35" ry="4.35" style="stroke:#252327;stroke-width:1.95;"/><ellipse cx="1127" cy="222.2969" fill="#252327" rx="1.95" ry="1.95" style="stroke:#252327;stroke-width:0.5;"/><text fill="#000000" font-family="sans-serif" font-size="12" lengthAdjust="spacing" textLength="216.1934" x="1142.8145" y="231.4668">Support Product Design for Humans</text></g><!--entity GOL_Lm2Bn2--><g class="entity" data-entity="GOL_Lm2Bn2" data-source-line="19" data-uid="ent0012" id="entity_GOL_Lm2Bn2"><rect fill="#EDD6F0" height="44" rx="2" ry="2" style="stroke:#7B3F9A;stroke-width:0.5;" width="266.2168" x="1429" y="200.2969"/><ellipse cx="1451" cy="222.2969" fill="none" rx="7.2" ry="7.2" style="stroke:#252327;stroke-width:1.95;"/><ellipse cx="1451" cy="222.2969" fill="none" rx="4.35" ry="4.35" style="stroke:#252327;stroke-width:1.95;"/><ellipse cx="1451" cy="222.2969" fill="#252327" rx="1.95" ry="1.95" style="stroke:#252327;stroke-width:0.5;"/><text fill="#000000" font-family="sans-serif" font-size="12" lengthAdjust="spacing" textLength="218.4023" x="1466.8145" y="231.4668">Enable Cross-Stakeholder Validation</text></g><!--entity GOL_Iwha3--><g class="entity" data-entity="GOL_Iwha3" data-source-line="23" data-uid="ent0014" id="entity_GOL_Iwha3"><rect fill="#EDD6F0" height="44" rx="2" ry="2" style="stroke:#7B3F9A;stroke-width:0.5;" width="264.4414" x="2089" y="200.2969"/><ellipse cx="2111" cy="222.2969" fill="none" rx="7.2" ry="7.2" style="stroke:#252327;stroke-width:1.95;"/><ellipse cx="2111" cy="222.2969" fill="none" rx="4.35" ry="4.35" style="stroke:#252327;stroke-width:1.95;"/><ellipse cx="2111" cy="222.2969" fill="#252327" rx="1.95" ry="1.95" style="stroke:#252327;stroke-width:0.5;"/><text fill="#000000" font-family="sans-serif" font-size="12" lengthAdjust="spacing" textLength="216.627" x="2126.8145" y="231.4668">Support Architecture Planning for AI</text></g><!--entity GOL_e3nCpO--><g class="entity" data-entity="GOL_e3nCpO" data-source-line="24" data-uid="ent0015" id="entity_GOL_e3nCpO"><rect fill="#EDD6F0" height="44" rx="2" ry="2" style="stroke:#7B3F9A;stroke-width:0.5;" width="273.8457" x="1755" y="200.2969"/><ellipse cx="1777" cy="222.2969" fill="none" rx="7.2" ry="7.2" style="stroke:#252327;stroke-width:1.95;"/><ellipse cx="1777" cy="222.2969" fill="none" rx="4.35" ry="4.35" style="stroke:#252327;stroke-width:1.95;"/><ellipse cx="1777" cy="222.2969" fill="#252327" rx="1.95" ry="1.95" style="stroke:#252327;stroke-width:0.5;"/><text fill="#000000" font-family="sans-serif" font-size="12" lengthAdjust="spacing" textLength="226.0313" x="1792.8145" y="231.4668">Provide Development Guidance for AI</text></g><!--entity GOL_B6GP--><g class="entity" data-entity="GOL_B6GP" data-source-line="25" data-uid="ent0016" id="entity_GOL_B6GP"><rect fill="#EDD6F0" height="44" rx="2" ry="2" style="stroke:#7B3F9A;stroke-width:0.5;" width="249.4473" x="2413.5" y="200.2969"/><ellipse cx="2435.5" cy="222.2969" fill="none" rx="7.2" ry="7.2" style="stroke:#252327;stroke-width:1.95;"/><ellipse cx="2435.5" cy="222.2969" fill="none" rx="4.35" ry="4.35" style="stroke:#252327;stroke-width:1.95;"/><ellipse cx="2435.5" cy="222.2969" fill="#252327" rx="1.95" ry="1.95" style="stroke:#252327;stroke-width:0.5;"/><text fill="#000000" font-family="sans-serif" font-size="12" lengthAdjust="spacing" textLength="201.6328" x="2451.3145" y="231.4668">Support Technology Design for AI</text></g><!--entity GOL_zBPs_y--><g class="entity" data-entity="GOL_zBPs_y" data-source-line="26" data-uid="ent0017" id="entity_GOL_zBPs_y"><rect fill="#EDD6F0" height="44" rx="2" ry="2" style="stroke:#7B3F9A;stroke-width:0.5;" width="226.2266" x="2723" y="200.2969"/><ellipse cx="2745" cy="222.2969" fill="none" rx="7.2" ry="7.2" style="stroke:#252327;stroke-width:1.95;"/><ellipse cx="2745" cy="222.2969" fill="none" rx="4.35" ry="4.35" style="stroke:#252327;stroke-width:1.95;"/><ellipse cx="2745" cy="222.2969" fill="#252327" rx="1.95" ry="1.95" style="stroke:#252327;stroke-width:0.5;"/><text fill="#000000" font-family="sans-serif" font-size="12" lengthAdjust="spacing" textLength="178.4121" x="2760.8145" y="231.4668">Support Product Design for AI</text></g><!--entity GOL_Po1Qw3--><g class="entity" data-entity="GOL_Po1Qw3" data-source-line="30" data-uid="ent0019" id="entity_GOL_Po1Qw3"><rect fill="#EDD6F0" height="44" rx="2" ry="2" style="stroke:#7B3F9A;stroke-width:0.5;" width="268.4668" x="3009" y="200.2969"/><ellipse cx="3031" cy="222.2969" fill="none" rx="7.2" ry="7.2" style="stroke:#252327;stroke-width:1.95;"/><ellipse cx="3031" cy="222.2969" fill="none" rx="4.35" ry="4.35" style="stroke:#252327;stroke-width:1.95;"/><ellipse cx="3031" cy="222.2969" fill="#252327" rx="1.95" ry="1.95" style="stroke:#252327;stroke-width:0.5;"/><text fill="#000000" font-family="sans-serif" font-size="12" lengthAdjust="spacing" textLength="220.6523" x="3046.8145" y="231.4668">Maintain Coherence and Traceability</text></g><!--entity GOL_Zx9Cv4--><g class="entity" data-entity="GOL_Zx9Cv4" data-source-line="31" data-uid="ent0020" id="entity_GOL_Zx9Cv4"><rect fill="#EDD6F0" height="44" rx="2" ry="2" style="stroke:#7B3F9A;stroke-width:0.5;" width="301.332" x="3337.5" y="200.2969"/><ellipse cx="3359.5" cy="222.2969" fill="none" rx="7.2" ry="7.2" style="stroke:#252327;stroke-width:1.95;"/><ellipse cx="3359.5" cy="222.2969" fill="none" rx="4.35" ry="4.35" style="stroke:#252327;stroke-width:1.95;"/><ellipse cx="3359.5" cy="222.2969" fill="#252327" rx="1.95" ry="1.95" style="stroke:#252327;stroke-width:0.5;"/><text fill="#000000" font-family="sans-serif" font-size="12" lengthAdjust="spacing" textLength="253.5176" x="3375.3145" y="231.4668">Enable Architecture Management at Scale</text></g><!--entity GOL_kCcPph--><g class="entity" data-entity="GOL_kCcPph" data-source-line="32" data-uid="ent0021" id="entity_GOL_kCcPph"><rect fill="#EDD6F0" height="44" rx="2" ry="2" style="stroke:#7B3F9A;stroke-width:0.5;" width="328.4199" x="3699" y="200.2969"/><ellipse cx="3721" cy="222.2969" fill="none" rx="7.2" ry="7.2" style="stroke:#252327;stroke-width:1.95;"/><ellipse cx="3721" cy="222.2969" fill="none" rx="4.35" ry="4.35" style="stroke:#252327;stroke-width:1.95;"/><ellipse cx="3721" cy="222.2969" fill="#252327" rx="1.95" ry="1.95" style="stroke:#252327;stroke-width:0.5;"/><text fill="#000000" font-family="sans-serif" font-size="12" lengthAdjust="spacing" textLength="280.6055" x="3736.8145" y="231.4668">Enable Cross-Engagement Architectural Reuse</text></g><!--link ASS_EI3FpR to ASS_a6vxyj--><!--link ASS_a6vxyj to ASS_s68vVo--><!--link ASS_s68vVo to ASS_9YWsDh--><!--link GOL_5Fk9di to GOL_Gh3Jk1--><!--link GOL_Gh3Jk1 to GOL_W6Z8pa--><!--link GOL_W6Z8pa to GOL_hEEWS8--><!--link GOL_hEEWS8 to GOL_Lm2Bn2--><!--link GOL_Iwha3 to GOL_e3nCpO--><!--link GOL_e3nCpO to GOL_B6GP--><!--link GOL_B6GP to GOL_zBPs_y--><!--link GOL_Po1Qw3 to GOL_Zx9Cv4--><!--link GOL_Zx9Cv4 to GOL_kCcPph--><!--link ASS_EI3FpR to GOL_5Fk9di--><g class="link" data-entity-1="ASS_EI3FpR" data-entity-2="GOL_5Fk9di" data-source-line="48" data-uid="lnk34" id="link_ASS_EI3FpR_GOL_5Fk9di"><path d="M1409.35,91.2969 C1034.84,91.2969 174,91.2969 174,91.2969 C174,91.2969 174,156.6969 174,194.0769" fill="none" id="ASS_EI3FpR-to-GOL_5Fk9di" style="stroke:#181818;stroke-width:1;stroke-dasharray:7.0,7.0;"/><polygon fill="#181818" points="174,200.0769,178,191.0769,174,195.0769,170,191.0769,174,200.0769" style="stroke:#181818;stroke-width:1;"/><text fill="#000000" font-family="sans-serif" font-size="12" lengthAdjust="spacing" textLength="82.1543" x="654.29" y="88.4355">&#171;association&#187;</text></g><!--link ASS_EI3FpR to GOL_Iwha3--><g class="link" data-entity-1="ASS_EI3FpR" data-entity-2="GOL_Iwha3" data-source-line="49" data-uid="lnk35" id="link_ASS_EI3FpR_GOL_Iwha3"><path d="M1708.88,120.3269 C1708.88,138.1469 1708.88,160.2969 1708.88,160.2969 C1708.88,160.2969 2154.5,160.2969 2154.5,160.2969 C2154.5,160.2969 2154.5,176.4469 2154.5,194.2669" fill="none" id="ASS_EI3FpR-to-GOL_Iwha3" style="stroke:#181818;stroke-width:1;stroke-dasharray:7.0,7.0;"/><polygon fill="#181818" points="2154.5,200.2669,2158.5,191.2669,2154.5,195.2669,2150.5,191.2669,2154.5,200.2669" style="stroke:#181818;stroke-width:1;"/><text fill="#000000" font-family="sans-serif" font-size="12" lengthAdjust="spacing" textLength="82.1543" x="1848.69" y="157.4355">&#171;association&#187;</text></g><!--link ASS_EI3FpR to GOL_Gh3Jk1--><g class="link" data-entity-1="ASS_EI3FpR" data-entity-2="GOL_Gh3Jk1" data-source-line="50" data-uid="lnk36" id="link_ASS_EI3FpR_GOL_Gh3Jk1"><path d="M1409.3,106.2969 C1114.46,106.2969 541,106.2969 541,106.2969 C541,106.2969 541,160.5469 541,194.2069" fill="none" id="ASS_EI3FpR-to-GOL_Gh3Jk1" style="stroke:#181818;stroke-width:1;stroke-dasharray:7.0,7.0;"/><polygon fill="#181818" points="541,200.2069,545,191.2069,541,195.2069,537,191.2069,541,200.2069" style="stroke:#181818;stroke-width:1;"/><text fill="#000000" font-family="sans-serif" font-size="12" lengthAdjust="spacing" textLength="82.1543" x="845.2" y="103.4355">&#171;association&#187;</text></g><!--link ASS_EI3FpR to GOL_e3nCpO--><g class="link" data-entity-1="ASS_EI3FpR" data-entity-2="GOL_e3nCpO" data-source-line="51" data-uid="lnk37" id="link_ASS_EI3FpR_GOL_e3nCpO"><path d="M1736.62,120.4669 C1736.62,156.1369 1736.62,222.2969 1736.62,222.2969 C1736.62,222.2969 1737.67,222.2969 1748.75,222.2969" fill="none" id="ASS_EI3FpR-to-GOL_e3nCpO" style="stroke:#181818;stroke-width:1;stroke-dasharray:7.0,7.0;"/><polygon fill="#181818" points="1754.75,222.2969,1745.75,218.2969,1749.75,222.2969,1745.75,226.2969,1754.75,222.2969" style="stroke:#181818;stroke-width:1;"/><text fill="#000000" font-family="sans-serif" font-size="12" lengthAdjust="spacing" textLength="82.1543" x="1653.62" y="192.5855">&#171;association&#187;</text></g><!--link ASS_a6vxyj to GOL_Po1Qw3--><g class="link" data-entity-1="ASS_a6vxyj" data-entity-2="GOL_Po1Qw3" data-source-line="52" data-uid="lnk38" id="link_ASS_a6vxyj_GOL_Po1Qw3"><path d="M3046.67,120.4669 C3046.67,142.8969 3046.67,171.3869 3046.67,193.9069" fill="none" id="ASS_a6vxyj-to-GOL_Po1Qw3" style="stroke:#181818;stroke-width:1;stroke-dasharray:7.0,7.0;"/><polygon fill="#181818" points="3046.67,199.9069,3050.67,190.9069,3046.67,194.9069,3042.67,190.9069,3046.67,199.9069" style="stroke:#181818;stroke-width:1;"/><text fill="#000000" font-family="sans-serif" font-size="12" lengthAdjust="spacing" textLength="82.1543" x="2963.67" y="157.3255">&#171;association&#187;</text></g><!--link ASS_a6vxyj to GOL_Zx9Cv4--><g class="link" data-entity-1="ASS_a6vxyj" data-entity-2="GOL_Zx9Cv4" data-source-line="53" data-uid="lnk39" id="link_ASS_a6vxyj_GOL_Zx9Cv4"><path d="M3065.71,98.2969 C3231.52,98.2969 3488,98.2969 3488,98.2969 C3488,98.2969 3488,158.4569 3488,194.1269" fill="none" id="ASS_a6vxyj-to-GOL_Zx9Cv4" style="stroke:#181818;stroke-width:1;stroke-dasharray:7.0,7.0;"/><polygon fill="#181818" points="3488,200.1269,3492,191.1269,3488,195.1269,3484,191.1269,3488,200.1269" style="stroke:#181818;stroke-width:1;"/><text fill="#000000" font-family="sans-serif" font-size="12" lengthAdjust="spacing" textLength="82.1543" x="3244.77" y="95.4355">&#171;association&#187;</text></g><!--link ASS_s68vVo to GOL_Iwha3--><g class="link" data-entity-1="ASS_s68vVo" data-entity-2="GOL_Iwha3" data-source-line="54" data-uid="lnk40" id="link_ASS_s68vVo_GOL_Iwha3"><path d="M2350.67,120.4669 C2350.67,142.8969 2350.67,171.3869 2350.67,193.9069" fill="none" id="ASS_s68vVo-to-GOL_Iwha3" style="stroke:#181818;stroke-width:1;stroke-dasharray:7.0,7.0;"/><polygon fill="#181818" points="2350.67,199.9069,2354.67,190.9069,2350.67,194.9069,2346.67,190.9069,2350.67,199.9069" style="stroke:#181818;stroke-width:1;"/><text fill="#000000" font-family="sans-serif" font-size="12" lengthAdjust="spacing" textLength="82.1543" x="2267.67" y="157.3255">&#171;association&#187;</text></g><!--link ASS_s68vVo to GOL_e3nCpO--><g class="link" data-entity-1="ASS_s68vVo" data-entity-2="GOL_e3nCpO" data-source-line="55" data-uid="lnk41" id="link_ASS_s68vVo_GOL_e3nCpO"><path d="M2348.33,120.2969 C2348.33,146.6569 2348.33,187.2969 2348.33,187.2969 C2348.33,187.2969 1956.17,187.2969 1956.17,187.2969 C1956.17,187.2969 1956.17,187.0769 1956.17,193.9369" fill="none" id="ASS_s68vVo-to-GOL_e3nCpO" style="stroke:#181818;stroke-width:1;stroke-dasharray:7.0,7.0;"/><polygon fill="#181818" points="1956.17,199.9369,1960.17,190.9369,1956.17,194.9369,1952.17,190.9369,1956.17,199.9369" style="stroke:#181818;stroke-width:1;"/><text fill="#000000" font-family="sans-serif" font-size="12" lengthAdjust="spacing" textLength="82.1543" x="2096.43" y="184.4355">&#171;association&#187;</text></g><!--link ASS_s68vVo to GOL_B6GP--><g class="link" data-entity-1="ASS_s68vVo" data-entity-2="GOL_B6GP" data-source-line="56" data-uid="lnk42" id="link_ASS_s68vVo_GOL_B6GP"><path d="M2538,120.4669 C2538,142.8969 2538,171.3869 2538,193.9069" fill="none" id="ASS_s68vVo-to-GOL_B6GP" style="stroke:#181818;stroke-width:1;stroke-dasharray:7.0,7.0;"/><polygon fill="#181818" points="2538,199.9069,2542,190.9069,2538,194.9069,2534,190.9069,2538,199.9069" style="stroke:#181818;stroke-width:1;"/><text fill="#000000" font-family="sans-serif" font-size="12" lengthAdjust="spacing" textLength="82.1543" x="2455" y="157.3255">&#171;association&#187;</text></g><!--link ASS_9YWsDh to GOL_Po1Qw3--><g class="link" data-entity-1="ASS_9YWsDh" data-entity-2="GOL_Po1Qw3" data-source-line="57" data-uid="lnk43" id="link_ASS_9YWsDh_GOL_Po1Qw3"><path d="M2220,120.5069 C2220,133.4669 2220,147.2969 2220,147.2969 C2220,147.2969 3027.83,147.2969 3027.83,147.2969 C3027.83,147.2969 3027.83,172.0769 3027.83,194.1969" fill="none" id="ASS_9YWsDh-to-GOL_Po1Qw3" style="stroke:#181818;stroke-width:1;stroke-dasharray:7.0,7.0;"/><polygon fill="#181818" points="3027.83,200.1969,3031.83,191.1969,3027.83,195.1969,3023.83,191.1969,3027.83,200.1969" style="stroke:#181818;stroke-width:1;"/><text fill="#000000" font-family="sans-serif" font-size="12" lengthAdjust="spacing" textLength="82.1543" x="2553.97" y="144.4355">&#171;association&#187;</text></g><!--link ASS_9YWsDh to GOL_Lm2Bn2--><g class="link" data-entity-1="ASS_9YWsDh" data-entity-2="GOL_Lm2Bn2" data-source-line="58" data-uid="lnk44" id="link_ASS_9YWsDh_GOL_Lm2Bn2"><path d="M1883.33,120.6869 C1883.33,143.1069 1883.33,174.2969 1883.33,174.2969 C1883.33,174.2969 1562,174.2969 1562,174.2969 C1562,174.2969 1562,181.6469 1562,194.2669" fill="none" id="ASS_9YWsDh-to-GOL_Lm2Bn2" style="stroke:#181818;stroke-width:1;stroke-dasharray:7.0,7.0;"/><polygon fill="#181818" points="1562,200.2669,1566,191.2669,1562,195.2669,1558,191.2669,1562,200.2669" style="stroke:#181818;stroke-width:1;"/><text fill="#000000" font-family="sans-serif" font-size="12" lengthAdjust="spacing" textLength="82.1543" x="1653.49" y="171.4355">&#171;association&#187;</text></g><!--SRC=[lLNjRjem5FtFKtZL_iBKigAswf0efOmDL5RQedMQa9lS9LuTsxETK5fLsaFi2VSaSu9fGZ4L8BGVI9Ve-9xxSUwzRmZpQEm3gbJUZR3qGX9X3MMbGGBN4m6g8kA8bjwuSG6TYD12D1T8StJBjUOHyea4JnFEIYLDD0NKuveaEFs2_lx-WzeSKzJ5p5SU5d24pgHvr9VybaAaKZyfG9LAgHVC0kDWP-Q11QYX52WL0TDg1nqVvxxRaiV28Efrz5X2gF3w-ErpsAFy-QEXf_1XjxB_L4UD3cfoasCR6CXfgEUn5jW3XGRmApPuOgA-W8J0EEND_HW-h51ZC1YrEjKpSR4sTzDya9YI1_1DwWb8Xfa7g8aPuneDKkGoHbnBxYS_rsRiTdjgvlzA0RfYIilOqx4q8JJIrnhIVoRZpuoFAVZ1qX1KxI2vvck7q8a49HxHgCECu7mGm7nW7Z7rRiWqeWWJfiqF6rcW8T4XZpLgtTjNFTCigfR5TFXrg4x3qjESXZx64MPeeF4TX9pw8ASwsqH4wSEvR0Qn45pgOkq0zQcfS2hP7roYZ3qZInzFGssVTqVxPtU7Fbc3oWnAGenIJo41oaMQE6h7nCyqynfJEwn-kjlT8AbBy4B6AGycXbIHWBrACwpT70Yy0Or9p3SQN8KZRBM6WuCrE5fJ6JKbLwfSbC2rcJi_w_mYIpVQEs5xBrHa5aKZo6h-7yNJw2n6rnc7kBfDtRX8eCgQudnhcd5HdDJQ_UsenUNzuQIlHfCNFImisUrriMVtbRaZeRcWgNDpuj2bD3S4tn9Az6Gnl3xV_JAkhY_aEQdqCCC1P0t5XNinptHpVzXCtcywCYqMp2ZcpyC5nCh1TjVq-Y9RmFbTHELl8V7DalykIH3gSl60vQOJPMzCRZfHTkldMtK1LLY3kUb4sIsMcqwKtKEvwKJPFV8yj4wGdRJSTAAoOPaPJeGLV2uk9ygg8JUTADl5OWyhFX-pIhrmkj2HwJvMYdia6vzwVHb-clpASDkTbV6sR6wy5LSHRykpCjuMoestibmrNGVyrV0T-4m1RlHq45PFre6VQdOH_my0]--></g></svg>