<svg xmlns="http://www.w3.org/2000/svg" xmlns:xlink="http://www.w3.org/1999/xlink" contentStyleType="text/css" data-diagram-type="DESCRIPTION" height="1109px" preserveAspectRatio="none" style="width:1377px;height:1109px;background:#FAFAFA;" version="1.1" viewBox="0 0 1377 1109" width="1377px" zoomAndPan="magnify"><title>Promote Artifacts</title><defs/><g><rect fill="#FAFAFA" height="1109" style="stroke:none;stroke-width:1;" width="1377" x="0" y="0"/><text fill="#000000" font-family="sans-serif" font-size="14" font-weight="bold" lengthAdjust="spacing" textLength="140.1436" x="611.4282" y="22.9951">Promote Artifacts</text><!--cluster Services--><g class="cluster" data-entity="Services" data-source-line="7" data-uid="ent0002" id="cluster_Services"><rect fill="#EDE8E1" height="92" rx="2" ry="2" style="stroke:#8C7E6A;stroke-width:1;" width="258" x="444" y="44.2969"/><text fill="#000000" font-family="sans-serif" font-size="12" font-weight="bold" lengthAdjust="spacing" textLength="57.0293" x="544.4854" y="57.4355">Services</text></g><!--cluster Process--><g class="cluster" data-entity="Process" data-source-line="11" data-uid="ent0004" id="cluster_Process"><rect fill="#EDE8E1" height="943" rx="2" ry="2" style="stroke:#8C7E6A;stroke-width:1;" width="606" x="7" y="160.2969"/><text fill="#000000" font-family="sans-serif" font-size="12" font-weight="bold" lengthAdjust="spacing" textLength="52.4941" x="283.7529" y="173.4355">Process</text></g><!--cluster PRC_0Rz5Ex--><g class="cluster" data-entity="PRC_0Rz5Ex" data-source-line="12" data-uid="ent0005" id="cluster_PRC_0Rz5Ex"><rect fill="#E0D8CC" height="863" rx="2" ry="2" style="stroke:#8C7E6A;stroke-width:1;" width="542" x="39" y="208.2969"/><path d="M239.7496,216.4469 L249.1996,216.4469 L249.1996,214.4969 L255.9496,222.2969 L249.1996,230.0969 L249.1996,228.1469 L239.7496,228.1469" fill="#252327"/><text fill="#000000" font-family="sans-serif" font-size="12" font-weight="bold" lengthAdjust="spacing" textLength="120.123" x="264.0273" y="231.4668">Promote Artifacts</text></g><!--cluster Events--><g class="cluster" data-entity="Events" data-source-line="31" data-uid="ent0021" id="cluster_Events"><rect fill="#EDE8E1" height="92" rx="2" ry="2" style="stroke:#8C7E6A;stroke-width:1;" width="734" x="637" y="475.2969"/><text fill="#000000" font-family="sans-serif" font-size="12" font-weight="bold" lengthAdjust="spacing" textLength="45.5801" x="981.21" y="488.4355">Events</text></g><!--entity SRV_Uv9Wx9--><g class="entity" data-entity="SRV_Uv9Wx9" data-source-line="8" data-uid="ent0003" id="entity_SRV_Uv9Wx9"><rect fill="#E0D8CC" height="44" rx="2" ry="2" style="stroke:#8C7E6A;stroke-width:0.5;" width="225.6699" x="460" y="76.2969"/><path d="M474.8,92.4469 L485.6,92.4469 A4.2,4.2 0 0 1 485.6,104.1469 L474.8,104.1469 A4.2,4.2 0 0 1 474.8,92.4469" fill="#252327"/><text fill="#000000" font-family="sans-serif" font-size="12" lengthAdjust="spacing" textLength="3.8145" x="494" y="107.4668">&#160;</text><text fill="#000000" font-family="sans-serif" font-size="12" lengthAdjust="spacing" textLength="64.3477" x="497.8145" y="107.4668">Repository</text><text fill="#000000" font-family="sans-serif" font-size="12" lengthAdjust="spacing" textLength="3.8145" x="562.1621" y="107.4668">&#160;</text><text fill="#000000" font-family="sans-serif" font-size="12" lengthAdjust="spacing" textLength="61.5293" x="565.9766" y="107.4668">Promotion</text><text fill="#000000" font-family="sans-serif" font-size="12" lengthAdjust="spacing" textLength="3.8145" x="627.5059" y="107.4668">&#160;</text><text fill="#000000" font-family="sans-serif" font-size="12" lengthAdjust="spacing" textLength="44.3496" x="631.3203" y="107.4668">Service</text></g><!--entity FNC_Z2rrfP--><g class="entity" data-entity="FNC_Z2rrfP" data-source-line="13" data-uid="ent0006" id="entity_FNC_Z2rrfP"><rect fill="#E0D8CC" height="44" rx="2" ry="2" style="stroke:#8C7E6A;stroke-width:0.5;" width="224.6211" x="287.5" y="259.2969"/><path d="M301.85,286.8469 L301.85,277.3969 L309.5,273.9469 L317.15,277.3969 L317.15,286.8469 L309.5,283.0969" fill="#252327"/><text fill="#000000" font-family="sans-serif" font-size="12" lengthAdjust="spacing" textLength="3.8145" x="321.5" y="290.4668">&#160;</text><text fill="#000000" font-family="sans-serif" font-size="12" lengthAdjust="spacing" textLength="37.0195" x="325.3145" y="290.4668">Select</text><text fill="#000000" font-family="sans-serif" font-size="12" lengthAdjust="spacing" textLength="3.8145" x="362.334" y="290.4668">&#160;</text><text fill="#000000" font-family="sans-serif" font-size="12" lengthAdjust="spacing" textLength="50.3145" x="366.1484" y="290.4668">Artifacts</text><text fill="#000000" font-family="sans-serif" font-size="12" lengthAdjust="spacing" textLength="3.8145" x="416.4629" y="290.4668">&#160;</text><text fill="#000000" font-family="sans-serif" font-size="12" lengthAdjust="spacing" textLength="16.5" x="420.2773" y="290.4668">for</text><text fill="#000000" font-family="sans-serif" font-size="12" lengthAdjust="spacing" textLength="3.8145" x="436.7773" y="290.4668">&#160;</text><text fill="#000000" font-family="sans-serif" font-size="12" lengthAdjust="spacing" textLength="61.5293" x="440.5918" y="290.4668">Promotion</text></g><!--entity FNC_ndMgDn--><g class="entity" data-entity="FNC_ndMgDn" data-source-line="14" data-uid="ent0007" id="entity_FNC_ndMgDn"><rect fill="#E0D8CC" height="44" rx="2" ry="2" style="stroke:#8C7E6A;stroke-width:0.5;" width="208.7598" x="339.5" y="383.2969"/><path d="M353.85,410.8469 L353.85,401.3969 L361.5,397.9469 L369.15,401.3969 L369.15,410.8469 L361.5,407.0969" fill="#252327"/><text fill="#000000" font-family="sans-serif" font-size="12" lengthAdjust="spacing" textLength="3.8145" x="373.5" y="414.4668">&#160;</text><text fill="#000000" font-family="sans-serif" font-size="12" lengthAdjust="spacing" textLength="40.0137" x="377.3145" y="414.4668">Detect</text><text fill="#000000" font-family="sans-serif" font-size="12" lengthAdjust="spacing" textLength="3.8145" x="417.3281" y="414.4668">&#160;</text><text fill="#000000" font-family="sans-serif" font-size="12" lengthAdjust="spacing" textLength="61.5293" x="421.1426" y="414.4668">Promotion</text><text fill="#000000" font-family="sans-serif" font-size="12" lengthAdjust="spacing" textLength="3.8145" x="482.6719" y="414.4668">&#160;</text><text fill="#000000" font-family="sans-serif" font-size="12" lengthAdjust="spacing" textLength="51.7734" x="486.4863" y="414.4668">Conflicts</text></g><!--entity FNC_A0dOFm--><g class="entity" data-entity="FNC_A0dOFm" data-source-line="15" data-uid="ent0008" id="entity_FNC_A0dOFm"><rect fill="#E0D8CC" height="44" rx="2" ry="2" style="stroke:#8C7E6A;stroke-width:0.5;" width="215.8789" x="63" y="383.2969"/><path d="M77.35,410.8469 L77.35,401.3969 L85,397.9469 L92.65,401.3969 L92.65,410.8469 L85,407.0969" fill="#252327"/><text fill="#000000" font-family="sans-serif" font-size="12" lengthAdjust="spacing" textLength="3.8145" x="97" y="414.4668">&#160;</text><text fill="#000000" font-family="sans-serif" font-size="12" lengthAdjust="spacing" textLength="47.1328" x="100.8145" y="414.4668">Resolve</text><text fill="#000000" font-family="sans-serif" font-size="12" lengthAdjust="spacing" textLength="3.8145" x="147.9473" y="414.4668">&#160;</text><text fill="#000000" font-family="sans-serif" font-size="12" lengthAdjust="spacing" textLength="61.5293" x="151.7617" y="414.4668">Promotion</text><text fill="#000000" font-family="sans-serif" font-size="12" lengthAdjust="spacing" textLength="3.8145" x="213.291" y="414.4668">&#160;</text><text fill="#000000" font-family="sans-serif" font-size="12" lengthAdjust="spacing" textLength="51.7734" x="217.1055" y="414.4668">Conflicts</text></g><!--entity FNC_54UnNB--><g class="entity" data-entity="FNC_54UnNB" data-source-line="16" data-uid="ent0009" id="entity_FNC_54UnNB"><rect fill="#E0D8CC" height="44" rx="2" ry="2" style="stroke:#8C7E6A;stroke-width:0.5;" width="221.5625" x="195" y="507.2969"/><path d="M209.35,534.8469 L209.35,525.3969 L217,521.9469 L224.65,525.3969 L224.65,534.8469 L217,531.0969" fill="#252327"/><text fill="#000000" font-family="sans-serif" font-size="12" lengthAdjust="spacing" textLength="3.8145" x="229" y="538.4668">&#160;</text><text fill="#000000" font-family="sans-serif" font-size="12" lengthAdjust="spacing" textLength="49.2891" x="232.8145" y="538.4668">Validate</text><text fill="#000000" font-family="sans-serif" font-size="12" lengthAdjust="spacing" textLength="3.8145" x="282.1035" y="538.4668">&#160;</text><text fill="#000000" font-family="sans-serif" font-size="12" lengthAdjust="spacing" textLength="61.5293" x="285.918" y="538.4668">Promotion</text><text fill="#000000" font-family="sans-serif" font-size="12" lengthAdjust="spacing" textLength="3.8145" x="347.4473" y="538.4668">&#160;</text><text fill="#000000" font-family="sans-serif" font-size="12" lengthAdjust="spacing" textLength="55.3008" x="351.2617" y="538.4668">Selection</text></g><!--entity FNC_A_wFZl--><g class="entity" data-entity="FNC_A_wFZl" data-source-line="17" data-uid="ent0010" id="entity_FNC_A_wFZl"><rect fill="#E0D8CC" height="44" rx="2" ry="2" style="stroke:#8C7E6A;stroke-width:0.5;" width="156.8633" x="227.5" y="631.2969"/><path d="M241.85,658.8469 L241.85,649.3969 L249.5,645.9469 L257.15,649.3969 L257.15,658.8469 L249.5,655.0969" fill="#252327"/><text fill="#000000" font-family="sans-serif" font-size="12" lengthAdjust="spacing" textLength="3.8145" x="261.5" y="662.4668">&#160;</text><text fill="#000000" font-family="sans-serif" font-size="12" lengthAdjust="spacing" textLength="23.5488" x="265.3145" y="662.4668">Run</text><text fill="#000000" font-family="sans-serif" font-size="12" lengthAdjust="spacing" textLength="3.8145" x="288.8633" y="662.4668">&#160;</text><text fill="#000000" font-family="sans-serif" font-size="12" lengthAdjust="spacing" textLength="42.8789" x="292.6777" y="662.4668">Quality</text><text fill="#000000" font-family="sans-serif" font-size="12" lengthAdjust="spacing" textLength="3.8145" x="335.5566" y="662.4668">&#160;</text><text fill="#000000" font-family="sans-serif" font-size="12" lengthAdjust="spacing" textLength="34.9922" x="339.3711" y="662.4668">Gates</text></g><!--entity FNC_6xjXsw--><g class="entity" data-entity="FNC_6xjXsw" data-source-line="18" data-uid="ent0011" id="entity_FNC_6xjXsw"><rect fill="#E0D8CC" height="44" rx="2" ry="2" style="stroke:#8C7E6A;stroke-width:0.5;" width="161.5156" x="225" y="755.2969"/><path d="M239.35,782.8469 L239.35,773.3969 L247,769.9469 L254.65,773.3969 L254.65,782.8469 L247,779.0969" fill="#252327"/><text fill="#000000" font-family="sans-serif" font-size="12" lengthAdjust="spacing" textLength="3.8145" x="259" y="786.4668">&#160;</text><text fill="#000000" font-family="sans-serif" font-size="12" lengthAdjust="spacing" textLength="48.3574" x="262.8145" y="786.4668">Execute</text><text fill="#000000" font-family="sans-serif" font-size="12" lengthAdjust="spacing" textLength="3.8145" x="311.1719" y="786.4668">&#160;</text><text fill="#000000" font-family="sans-serif" font-size="12" lengthAdjust="spacing" textLength="61.5293" x="314.9863" y="786.4668">Promotion</text></g><!--entity FNC_wahMSm--><g class="entity" data-entity="FNC_wahMSm" data-source-line="19" data-uid="ent0012" id="entity_FNC_wahMSm"><rect fill="#E0D8CC" height="44" rx="2" ry="2" style="stroke:#8C7E6A;stroke-width:0.5;" width="270.4766" x="171" y="879.2969"/><path d="M185.35,906.8469 L185.35,897.3969 L193,893.9469 L200.65,897.3969 L200.65,906.8469 L193,903.0969" fill="#252327"/><text fill="#000000" font-family="sans-serif" font-size="12" lengthAdjust="spacing" textLength="3.8145" x="205" y="910.4668">&#160;</text><text fill="#000000" font-family="sans-serif" font-size="12" lengthAdjust="spacing" textLength="48.0059" x="208.8145" y="910.4668">Replace</text><text fill="#000000" font-family="sans-serif" font-size="12" lengthAdjust="spacing" textLength="3.8145" x="256.8203" y="910.4668">&#160;</text><text fill="#000000" font-family="sans-serif" font-size="12" lengthAdjust="spacing" textLength="58.248" x="260.6348" y="910.4668">Promoted</text><text fill="#000000" font-family="sans-serif" font-size="12" lengthAdjust="spacing" textLength="3.8145" x="318.8828" y="910.4668">&#160;</text><text fill="#000000" font-family="sans-serif" font-size="12" lengthAdjust="spacing" textLength="44.9004" x="322.6973" y="910.4668">Entities</text><text fill="#000000" font-family="sans-serif" font-size="12" lengthAdjust="spacing" textLength="3.8145" x="367.5977" y="910.4668">&#160;</text><text fill="#000000" font-family="sans-serif" font-size="12" lengthAdjust="spacing" textLength="25.459" x="371.4121" y="910.4668">with</text><text fill="#000000" font-family="sans-serif" font-size="12" lengthAdjust="spacing" textLength="3.8145" x="396.8711" y="910.4668">&#160;</text><text fill="#000000" font-family="sans-serif" font-size="12" lengthAdjust="spacing" textLength="30.791" x="400.6855" y="910.4668">GRFs</text></g><!--entity FNC_NGjUCa--><g class="entity" data-entity="FNC_NGjUCa" data-source-line="20" data-uid="ent0013" id="entity_FNC_NGjUCa"><rect fill="#E0D8CC" height="44" rx="2" ry="2" style="stroke:#8C7E6A;stroke-width:0.5;" width="122.8438" x="244.5" y="1003.2969"/><path d="M258.85,1030.8469 L258.85,1021.3969 L266.5,1017.9469 L274.15,1021.3969 L274.15,1030.8469 L266.5,1027.0969" fill="#252327"/><text fill="#000000" font-family="sans-serif" font-size="12" lengthAdjust="spacing" textLength="3.8145" x="278.5" y="1034.4668">&#160;</text><text fill="#000000" font-family="sans-serif" font-size="12" lengthAdjust="spacing" textLength="35.1855" x="282.3145" y="1034.4668">Verify</text><text fill="#000000" font-family="sans-serif" font-size="12" lengthAdjust="spacing" textLength="3.8145" x="317.5" y="1034.4668">&#160;</text><text fill="#000000" font-family="sans-serif" font-size="12" lengthAdjust="spacing" textLength="36.0293" x="321.3145" y="1034.4668">Model</text></g><!--entity EVT_Dm0CyE--><g class="entity" data-entity="EVT_Dm0CyE" data-source-line="32" data-uid="ent0022" id="entity_EVT_Dm0CyE"><rect fill="#E0D8CC" height="44" rx="2" ry="2" style="stroke:#8C7E6A;stroke-width:0.5;" width="196.959" x="937.5" y="507.2969"/><path d="M952.15,523.2969 L960.55,523.2969 A5.7,5.7 0 0 1 960.55,535.2969 L952.15,535.2969 L955.3,529.2969" fill="#252327"/><text fill="#000000" font-family="sans-serif" font-size="12" lengthAdjust="spacing" textLength="3.8145" x="971.5" y="538.4668">&#160;</text><text fill="#000000" font-family="sans-serif" font-size="12" lengthAdjust="spacing" textLength="61.5293" x="975.3145" y="538.4668">Promotion</text><text fill="#000000" font-family="sans-serif" font-size="12" lengthAdjust="spacing" textLength="3.8145" x="1036.8438" y="538.4668">&#160;</text><text fill="#000000" font-family="sans-serif" font-size="12" lengthAdjust="spacing" textLength="25.5293" x="1040.6582" y="538.4668">Plan</text><text fill="#000000" font-family="sans-serif" font-size="12" lengthAdjust="spacing" textLength="3.8145" x="1066.1875" y="538.4668">&#160;</text><text fill="#000000" font-family="sans-serif" font-size="12" lengthAdjust="spacing" textLength="54.457" x="1070.002" y="538.4668">Prepared</text></g><!--entity EVT_fWpwu5--><g class="entity" data-entity="EVT_fWpwu5" data-source-line="33" data-uid="ent0023" id="entity_EVT_fWpwu5"><rect fill="#E0D8CC" height="44" rx="2" ry="2" style="stroke:#8C7E6A;stroke-width:0.5;" width="223.7598" x="653" y="507.2969"/><path d="M667.65,523.2969 L676.05,523.2969 A5.7,5.7 0 0 1 676.05,535.2969 L667.65,535.2969 L670.8,529.2969" fill="#252327"/><text fill="#000000" font-family="sans-serif" font-size="12" lengthAdjust="spacing" textLength="3.8145" x="687" y="538.4668">&#160;</text><text fill="#000000" font-family="sans-serif" font-size="12" lengthAdjust="spacing" textLength="61.5293" x="690.8145" y="538.4668">Promotion</text><text fill="#000000" font-family="sans-serif" font-size="12" lengthAdjust="spacing" textLength="3.8145" x="752.3438" y="538.4668">&#160;</text><text fill="#000000" font-family="sans-serif" font-size="12" lengthAdjust="spacing" textLength="51.7734" x="756.1582" y="538.4668">Conflicts</text><text fill="#000000" font-family="sans-serif" font-size="12" lengthAdjust="spacing" textLength="3.8145" x="807.9316" y="538.4668">&#160;</text><text fill="#000000" font-family="sans-serif" font-size="12" lengthAdjust="spacing" textLength="55.0137" x="811.7461" y="538.4668">Detected</text></g><!--entity EVT_hDF1Qz--><g class="entity" data-entity="EVT_hDF1Qz" data-source-line="34" data-uid="ent0024" id="entity_EVT_hDF1Qz"><rect fill="#E0D8CC" height="44" rx="2" ry="2" style="stroke:#8C7E6A;stroke-width:0.5;" width="160.1914" x="1195" y="507.2969"/><path d="M1209.65,523.2969 L1218.05,523.2969 A5.7,5.7 0 0 1 1218.05,535.2969 L1209.65,535.2969 L1212.8,529.2969" fill="#252327"/><text fill="#000000" font-family="sans-serif" font-size="12" lengthAdjust="spacing" textLength="3.8145" x="1229" y="538.4668">&#160;</text><text fill="#000000" font-family="sans-serif" font-size="12" lengthAdjust="spacing" textLength="50.3145" x="1232.8145" y="538.4668">Artifacts</text><text fill="#000000" font-family="sans-serif" font-size="12" lengthAdjust="spacing" textLength="3.8145" x="1283.1289" y="538.4668">&#160;</text><text fill="#000000" font-family="sans-serif" font-size="12" lengthAdjust="spacing" textLength="58.248" x="1286.9434" y="538.4668">Promoted</text></g><!--link FNC_Z2rrfP to FNC_ndMgDn--><!--link FNC_Z2rrfP to FNC_ndMgDn--><g class="link" data-entity-1="FNC_Z2rrfP" data-entity-2="FNC_ndMgDn" data-source-line="47" data-uid="lnk31" id="link_FNC_Z2rrfP_FNC_ndMgDn"><path d="M454.83,303.4669 C454.83,325.8969 454.83,352.3869 454.83,374.9069" fill="none" id="FNC_Z2rrfP-to-FNC_ndMgDn" style="stroke:#000000;stroke-width:1;"/><polygon fill="#000000" points="454.83,382.9069,457.83,374.9069,451.83,374.9069,454.83,382.9069" style="stroke:#000000;stroke-width:1;"/><text fill="#000000" font-family="sans-serif" font-size="12" lengthAdjust="spacing" textLength="3.8145" x="450.83" y="340.3255">&#160;</text></g><!--link FNC_ndMgDn to FNC_A0dOFm--><!--link FNC_A0dOFm to FNC_54UnNB--><!--link FNC_A0dOFm to FNC_54UnNB--><g class="link" data-entity-1="FNC_A0dOFm" data-entity-2="FNC_54UnNB" data-source-line="52" data-uid="lnk36" id="link_FNC_A0dOFm_FNC_54UnNB"><path d="M237,427.4669 C237,449.8969 237,476.3869 237,498.9069" fill="none" id="FNC_A0dOFm-to-FNC_54UnNB" style="stroke:#000000;stroke-width:1;"/><polygon fill="#000000" points="237,506.9069,240,498.9069,234,498.9069,237,506.9069" style="stroke:#000000;stroke-width:1;"/><text fill="#000000" font-family="sans-serif" font-size="12" lengthAdjust="spacing" textLength="3.8145" x="233" y="464.3255">&#160;</text></g><!--link FNC_54UnNB to FNC_A_wFZl--><!--link FNC_54UnNB to FNC_A_wFZl--><g class="link" data-entity-1="FNC_54UnNB" data-entity-2="FNC_A_wFZl" data-source-line="53" data-uid="lnk37" id="link_FNC_54UnNB_FNC_A_wFZl"><path d="M332.17,551.4669 C332.17,573.8969 332.17,600.3869 332.17,622.9069" fill="none" id="FNC_54UnNB-to-FNC_A_wFZl" style="stroke:#000000;stroke-width:1;"/><polygon fill="#000000" points="332.17,630.9069,335.17,622.9069,329.17,622.9069,332.17,630.9069" style="stroke:#000000;stroke-width:1;"/><text fill="#000000" font-family="sans-serif" font-size="12" lengthAdjust="spacing" textLength="3.8145" x="328.17" y="588.3255">&#160;</text></g><!--link FNC_A_wFZl to FNC_6xjXsw--><!--link FNC_A_wFZl to FNC_6xjXsw--><g class="link" data-entity-1="FNC_A_wFZl" data-entity-2="FNC_6xjXsw" data-source-line="54" data-uid="lnk38" id="link_FNC_A_wFZl_FNC_6xjXsw"><path d="M332.17,675.4669 C332.17,697.8969 332.17,724.3869 332.17,746.9069" fill="none" id="FNC_A_wFZl-to-FNC_6xjXsw" style="stroke:#000000;stroke-width:1;"/><polygon fill="#000000" points="332.17,754.9069,335.17,746.9069,329.17,746.9069,332.17,754.9069" style="stroke:#000000;stroke-width:1;"/><text fill="#000000" font-family="sans-serif" font-size="12" lengthAdjust="spacing" textLength="3.8145" x="328.17" y="712.3255">&#160;</text></g><!--link FNC_6xjXsw to FNC_wahMSm--><!--link FNC_6xjXsw to FNC_wahMSm--><g class="link" data-entity-1="FNC_6xjXsw" data-entity-2="FNC_wahMSm" data-source-line="55" data-uid="lnk39" id="link_FNC_6xjXsw_FNC_wahMSm"><path d="M333,799.4669 C333,821.8969 333,848.3869 333,870.9069" fill="none" id="FNC_6xjXsw-to-FNC_wahMSm" style="stroke:#000000;stroke-width:1;"/><polygon fill="#000000" points="333,878.9069,336,870.9069,330,870.9069,333,878.9069" style="stroke:#000000;stroke-width:1;"/><text fill="#000000" font-family="sans-serif" font-size="12" lengthAdjust="spacing" textLength="3.8145" x="329" y="836.3255">&#160;</text></g><!--link FNC_wahMSm to FNC_NGjUCa--><!--link FNC_wahMSm to FNC_NGjUCa--><g class="link" data-entity-1="FNC_wahMSm" data-entity-2="FNC_NGjUCa" data-source-line="57" data-uid="lnk41" id="link_FNC_wahMSm_FNC_NGjUCa"><path d="M326.5,923.4669 C326.5,945.8969 326.5,972.3869 326.5,994.9069" fill="none" id="FNC_wahMSm-to-FNC_NGjUCa" style="stroke:#000000;stroke-width:1;"/><polygon fill="#000000" points="326.5,1002.9069,329.5,994.9069,323.5,994.9069,326.5,1002.9069" style="stroke:#000000;stroke-width:1;"/><text fill="#000000" font-family="sans-serif" font-size="12" lengthAdjust="spacing" textLength="3.8145" x="322.5" y="960.3255">&#160;</text></g><!--link EVT_Dm0CyE to EVT_fWpwu5--><!--link EVT_fWpwu5 to EVT_hDF1Qz--><!--link SRV_Uv9Wx9 to PRC_0Rz5Ex--><!--reverse link SRV_Uv9Wx9 to PRC_0Rz5Ex--><g class="link" data-entity-1="SRV_Uv9Wx9" data-entity-2="PRC_0Rz5Ex" data-source-line="44" data-uid="lnk30" id="link_SRV_Uv9Wx9_PRC_0Rz5Ex"><path d="M560.25,138.3669 C560.25,150.5369 560.25,148.68 560.25,166.0491 C560.25,174.7336 560.25,183.7246 560.25,192.6787 C560.25,197.1558 560.25,201.6236 560.25,206.0393 C560.25,206.5912 560.25,207.1424 560.25,207.6926" fill="none" id="SRV_Uv9Wx9-backto-PRC_0Rz5Ex" style="stroke:#000000;stroke-width:1;stroke-dasharray:1.0,3.0;"/><polygon fill="none" points="560.25,120.3669,554.25,138.3669,566.25,138.3669,560.25,120.3669" style="stroke:#000000;stroke-width:1;"/><text fill="#000000" font-family="sans-serif" font-size="12" lengthAdjust="spacing" textLength="3.8145" x="556.25" y="204.0755">&#160;</text></g><!--link PRC_0Rz5Ex to EVT_Dm0CyE--><!--link FNC_ndMgDn to EVT_Dm0CyE--><g class="link" data-entity-1="FNC_ndMgDn" data-entity-2="EVT_Dm0CyE" data-source-line="48" data-uid="lnk32" id="link_FNC_ndMgDn_EVT_Dm0CyE"><path d="M548.52,398.2969 C710.36,398.2969 1003.17,398.2969 1003.17,398.2969 C1003.17,398.2969 1003.17,461.6969 1003.17,499.0769" fill="none" id="FNC_ndMgDn-to-EVT_Dm0CyE" style="stroke:#000000;stroke-width:1;"/><polygon fill="#000000" points="1003.17,507.0769,1006.17,499.0769,1000.17,499.0769,1003.17,507.0769" style="stroke:#000000;stroke-width:1;"/><text fill="#000000" font-family="sans-serif" font-size="12" lengthAdjust="spacing" textLength="3.8145" x="826.23" y="395.4355">&#160;</text></g><!--link FNC_ndMgDn to EVT_fWpwu5--><g class="link" data-entity-1="FNC_ndMgDn" data-entity-2="EVT_fWpwu5" data-source-line="49" data-uid="lnk33" id="link_FNC_ndMgDn_EVT_fWpwu5"><path d="M548.52,413.2969 C605.29,413.2969 664,413.2969 664,413.2969 C664,413.2969 664,465.5469 664,499.2069" fill="none" id="FNC_ndMgDn-to-EVT_fWpwu5" style="stroke:#000000;stroke-width:1;"/><polygon fill="#000000" points="664,507.2069,667,499.2069,661,499.2069,664,507.2069" style="stroke:#000000;stroke-width:1;"/><text fill="#000000" font-family="sans-serif" font-size="12" lengthAdjust="spacing" textLength="3.8145" x="649.22" y="410.4355">&#160;</text></g><!--link EVT_Dm0CyE to FNC_54UnNB--><g class="link" data-entity-1="EVT_Dm0CyE" data-entity-2="FNC_54UnNB" data-source-line="50" data-uid="lnk34" id="link_EVT_Dm0CyE_FNC_54UnNB"><path d="M1036,551.3269 C1036,569.1469 1036,591.2969 1036,591.2969 C1036,591.2969 402,591.2969 402,591.2969 C402,591.2969 402,577.1469 402,559.3269" fill="none" id="EVT_Dm0CyE-to-FNC_54UnNB" style="stroke:#000000;stroke-width:1;"/><polygon fill="#000000" points="402,551.3269,399,559.3269,405,559.3269,402,551.3269" style="stroke:#000000;stroke-width:1;"/><text fill="#000000" font-family="sans-serif" font-size="12" lengthAdjust="spacing" textLength="3.8145" x="715" y="588.4355">&#160;</text></g><!--link EVT_fWpwu5 to FNC_A0dOFm--><g class="link" data-entity-1="EVT_fWpwu5" data-entity-2="FNC_A0dOFm" data-source-line="51" data-uid="lnk35" id="link_EVT_fWpwu5_FNC_A0dOFm"><path d="M675,507.1969 C675,485.0769 675,454.2969 675,454.2969 C675,454.2969 258,454.2969 258,454.2969 C258,454.2969 258,448.4669 258,435.5069" fill="none" id="EVT_fWpwu5-to-FNC_A0dOFm" style="stroke:#000000;stroke-width:1;"/><polygon fill="#000000" points="258,427.5069,255,435.5069,261,435.5069,258,427.5069" style="stroke:#000000;stroke-width:1;"/><text fill="#000000" font-family="sans-serif" font-size="12" lengthAdjust="spacing" textLength="3.8145" x="475.55" y="451.4355">&#160;</text></g><!--link FNC_6xjXsw to EVT_hDF1Qz--><g class="link" data-entity-1="FNC_6xjXsw" data-entity-2="EVT_hDF1Qz" data-source-line="56" data-uid="lnk40" id="link_FNC_6xjXsw_EVT_hDF1Qz"><path d="M387.37,777.2969 C620.62,777.2969 1275,777.2969 1275,777.2969 C1275,777.2969 1275,619.9969 1275,559.3069" fill="none" id="FNC_6xjXsw-to-EVT_hDF1Qz" style="stroke:#000000;stroke-width:1;"/><polygon fill="#000000" points="1275,551.3069,1272,559.3069,1278,559.3069,1275,551.3069" style="stroke:#000000;stroke-width:1;"/><text fill="#000000" font-family="sans-serif" font-size="12" lengthAdjust="spacing" textLength="3.8145" x="940.18" y="774.4355">&#160;</text></g><!--SRC=[dLLRJzim57xFhp3Lf369TZ3HII1MYVMcFS1AIc5YcY8lEMcC73jpdBO1yT_dtEeK745uYMATpzztpl6vx17cqiG3rEjzTh1m0n9Y2TrOWW0kqmZYNfI4rDepuvOqZO8I8dc494T_kPGyH1uHu4h2cML98YcWcU0Xbu3EXIG-TcLiMHa2iwKoTkOWLiI5k8FEpeOy33cR2fv4X2q70_He8LJ3ddtOEk2KznvZ5rFuTjJhFmsG3H6FYUGYBKML5wW4PlpbhoB6CPhRDyvYTNAxER6UTZnILvK_hHqgh-quz2BqZBG45bxCxA5pQ3_qnvkSkv5zah0ygJlqSw0AhTcHpuMEFDEghXLYaykXS_T527_MMce4CfFIQHrovbDIXlHIXdaNon5hBMD3pEaAtgvpVkZzd8IjTMum9PwoxjG9BUhMBDG_Nh3Bx-q3IXYwIfIQJD5KePh2SDQJEzgQVRm1Dwb7OMR_khd_5Q_VyHWHnUwsWJqqPggZ2SHeJMI0flQa8Per3YxcxtWK4CHFqGNtW9g9BwVtYo7EYNKje-xlW7WUi3-2B0FPVLv_-cX4rYf87ut8MWdeevbJFwS-6f6rfz578xAML7qq8hTPUdessSOhOBBrOCjl6SPQrZGpYjL7G8G5U1bn3YuUR7npxOp2ms4wVX_tjlFBuMCKy6-ZTT9l8w2dPLNN1jfWD3cwUb2qEeWNgTwHrmSZhkHJp_4H_M1gntOfJa4WpDo0YzZIoqXVz_YQTMiBmghjYcUWMggLW0rgtZpWB8cdA2gs3UeEK5oiFyi6wjGmpYBQrzG7jSLuW3gTJndZjGfbgRgJBK-HNtQbelkN05Fp8Py6aDTMpgtH-xfB3sfzMF0Qe9LPn_CcQ95u8xJEf9ks4LenwKdGw41bVeMrRjQpe9crDEjXq0Yjp7eQl0hLfTW8hPZq82cW_m40]--></g></svg>