<svg xmlns="http://www.w3.org/2000/svg" xmlns:xlink="http://www.w3.org/1999/xlink" contentStyleType="text/css" data-diagram-type="DESCRIPTION" height="650px" preserveAspectRatio="none" style="width:1104px;height:650px;background:#FAFAFA;" version="1.1" viewBox="0 0 1104 650" width="1104px" zoomAndPan="magnify"><title>Promote Artifact: Sub-process Decomposition</title><defs/><g><rect fill="#FAFAFA" height="650" style="stroke:none;stroke-width:1;" width="1104" x="0" y="0"/><text fill="#000000" font-family="sans-serif" font-size="14" font-weight="bold" lengthAdjust="spacing" textLength="361.5117" x="364.7139" y="22.9951">Promote Artifact: Sub-process Decomposition</text><!--cluster PRC_0Rz5Ex--><g class="cluster" data-entity="PRC_0Rz5Ex" data-source-line="10" data-uid="ent0003" id="cluster_PRC_0Rz5Ex"><rect fill="#E0D8CC" height="163" rx="2" ry="2" style="stroke:#8C7E6A;stroke-width:1;" width="854.5" x="7" y="44.2969"/><path d="M367.5709,52.4469 L377.0209,52.4469 L377.0209,50.4969 L383.7709,58.2969 L377.0209,66.0969 L377.0209,64.1469 L367.5709,64.1469" fill="#252327"/><text fill="#000000" font-family="sans-serif" font-size="12" font-weight="bold" lengthAdjust="spacing" textLength="112.9805" x="391.8486" y="67.4668">Promote Artifact</text></g><!--cluster Functions--><g class="cluster" data-entity="Functions" data-source-line="18" data-uid="ent0009" id="cluster_Functions"><path d="M634,239.2969 L702.1758,239.2969 A3,3 0 0 1 704.1758,241.2969 L711.1758,259.2656 L879,259.2656 A2,2 0 0 1 881,261.2656 L881,641.2969 A2,2 0 0 1 879,643.2969 L634,643.2969 A2,2 0 0 1 632,641.2969 L632,241.2969 A2,2 0 0 1 634,239.2969" fill="none" style="stroke:#000000;stroke-width:1.5;"/><line style="stroke:#000000;stroke-width:1.5;" x1="632" x2="711.1758" y1="259.2656" y2="259.2656"/><text fill="#000000" font-family="sans-serif" font-size="12" font-weight="bold" lengthAdjust="spacing" textLength="66.1758" x="636" y="252.4355">Functions</text></g><!--entity PRC_L8tjrh--><g class="entity" data-entity="PRC_L8tjrh" data-source-line="11" data-uid="ent0004" id="entity_PRC_L8tjrh"><rect fill="#E0D8CC" height="44" rx="2" ry="2" style="stroke:#8C7E6A;stroke-width:0.5;" width="230.9258" x="31" y="95.2969"/><path d="M44.9,111.4469 L54.35,111.4469 L54.35,109.4969 L61.1,117.2969 L54.35,125.0969 L54.35,123.1469 L44.9,123.1469" fill="#252327"/><text fill="#000000" font-family="sans-serif" font-size="12" lengthAdjust="spacing" textLength="183.1113" x="68.8145" y="126.4668">Compute Dependency Closure</text></g><!--entity PRC_00bowZ--><g class="entity" data-entity="PRC_00bowZ" data-source-line="12" data-uid="ent0005" id="entity_PRC_00bowZ"><rect fill="#E0D8CC" height="44" rx="2" ry="2" style="stroke:#8C7E6A;stroke-width:0.5;" width="156.8633" x="376.5" y="95.2969"/><path d="M390.4,111.4469 L399.85,111.4469 L399.85,109.4969 L406.6,117.2969 L399.85,125.0969 L399.85,123.1469 L390.4,123.1469" fill="#252327"/><text fill="#000000" font-family="sans-serif" font-size="12" lengthAdjust="spacing" textLength="109.0488" x="414.3145" y="126.4668">Run Quality Gates</text></g><!--entity PRC_phHJht--><g class="entity" data-entity="PRC_phHJht" data-source-line="13" data-uid="ent0006" id="entity_PRC_phHJht"><rect fill="#E0D8CC" height="44" rx="2" ry="2" style="stroke:#8C7E6A;stroke-width:0.5;" width="161.5156" x="675.5" y="95.2969"/><path d="M689.4,111.4469 L698.85,111.4469 L698.85,109.4969 L705.6,117.2969 L698.85,125.0969 L698.85,123.1469 L689.4,123.1469" fill="#252327"/><text fill="#000000" font-family="sans-serif" font-size="12" lengthAdjust="spacing" textLength="113.7012" x="713.3145" y="126.4668">Execute Promotion</text></g><!--entity FNC_BdEMPx--><g class="entity" data-entity="FNC_BdEMPx" data-source-line="19" data-uid="ent0010" id="entity_FNC_BdEMPx"><rect fill="#E0D8CC" height="44" rx="2" ry="2" style="stroke:#8C7E6A;stroke-width:0.5;" width="144.4121" x="684.5" y="583.2969"/><path d="M698.85,610.8469 L698.85,601.3969 L706.5,597.9469 L714.15,601.3969 L714.15,610.8469 L706.5,607.0969" fill="#252327"/><text fill="#000000" font-family="sans-serif" font-size="12" lengthAdjust="spacing" textLength="96.5977" x="722.3145" y="614.4668">Graph Traversal</text></g><!--entity FNC_ahr0mT--><g class="entity" data-entity="FNC_ahr0mT" data-source-line="20" data-uid="ent0011" id="entity_FNC_ahr0mT"><rect fill="#E0D8CC" height="44" rx="2" ry="2" style="stroke:#8C7E6A;stroke-width:0.5;" width="184.0742" x="664.5" y="375.2969"/><path d="M678.85,402.8469 L678.85,393.3969 L686.5,389.9469 L694.15,393.3969 L694.15,402.8469 L686.5,399.0969" fill="#252327"/><text fill="#000000" font-family="sans-serif" font-size="12" lengthAdjust="spacing" textLength="136.2598" x="702.3145" y="406.4668">Frontmatter Validation</text></g><!--entity FNC_eAkU8w--><g class="entity" data-entity="FNC_eAkU8w" data-source-line="21" data-uid="ent0012" id="entity_FNC_eAkU8w"><rect fill="#E0D8CC" height="44" rx="2" ry="2" style="stroke:#8C7E6A;stroke-width:0.5;" width="209.2578" x="652" y="479.2969"/><path d="M666.35,506.8469 L666.35,497.3969 L674,493.9469 L681.65,497.3969 L681.65,506.8469 L674,503.0969" fill="#252327"/><text fill="#000000" font-family="sans-serif" font-size="12" lengthAdjust="spacing" textLength="161.4434" x="689.8145" y="510.4668">Referential Integrity Check</text></g><!--entity FNC_B_F--><g class="entity" data-entity="FNC_B_F" data-source-line="22" data-uid="ent0013" id="entity_FNC_B_F"><rect fill="#E0D8CC" height="44" rx="2" ry="2" style="stroke:#8C7E6A;stroke-width:0.5;" width="217.0742" x="648" y="271.2969"/><path d="M662.35,298.8469 L662.35,289.3969 L670,285.9469 L677.65,289.3969 L677.65,298.8469 L670,295.0969" fill="#252327"/><text fill="#000000" font-family="sans-serif" font-size="12" lengthAdjust="spacing" textLength="169.2598" x="685.8145" y="302.4668">Attribute Schema Validation</text></g><!--entity SRV_Uv9Wx9--><g class="entity" data-entity="SRV_Uv9Wx9" data-source-line="8" data-uid="ent0002" id="entity_SRV_Uv9Wx9"><rect fill="#E0D8CC" height="44" rx="2" ry="2" style="stroke:#8C7E6A;stroke-width:0.5;" width="225.6699" x="342" y="321.2969"/><path d="M356.8,337.4469 L367.6,337.4469 A4.2,4.2 0 0 1 367.6,349.1469 L356.8,349.1469 A4.2,4.2 0 0 1 356.8,337.4469" fill="#252327"/><text fill="#000000" font-family="sans-serif" font-size="12" lengthAdjust="spacing" textLength="177.8555" x="379.8145" y="352.4668">Repository Promotion Service</text></g><!--entity EVT_Y7qmHh--><g class="entity" data-entity="EVT_Y7qmHh" data-source-line="25" data-uid="ent0014" id="entity_EVT_Y7qmHh"><rect fill="#E0D8CC" height="44" rx="2" ry="2" style="stroke:#8C7E6A;stroke-width:0.5;" width="153.9395" x="945" y="95.2969"/><path d="M959.65,111.2969 L968.05,111.2969 A5.7,5.7 0 0 1 968.05,123.2969 L959.65,123.2969 L962.8,117.2969" fill="#252327"/><text fill="#000000" font-family="sans-serif" font-size="12" lengthAdjust="spacing" textLength="106.125" x="982.8145" y="126.4668">Artifact Promoted</text></g><!--link PRC_L8tjrh to PRC_00bowZ--><!--link PRC_L8tjrh to PRC_00bowZ--><g class="link" data-entity-1="PRC_L8tjrh" data-entity-2="PRC_00bowZ" data-source-line="29" data-uid="lnk16" id="link_PRC_L8tjrh_PRC_00bowZ"><path d="M262.25,109.9669 C300.21,109.9669 335.49,109.9669 370.07,109.9669" fill="none" id="PRC_L8tjrh-to-PRC_00bowZ" style="stroke:#181818;stroke-width:1;"/><polygon fill="#181818" points="376.07,109.9669,367.07,105.9669,371.07,109.9669,367.07,113.9669,376.07,109.9669" style="stroke:#181818;stroke-width:1;"/><text fill="#000000" font-family="sans-serif" font-size="12" lengthAdjust="spacing" textLength="76.3887" x="242.16" y="122.1055">&#171;Triggering&#187;</text></g><!--link PRC_00bowZ to PRC_phHJht--><!--link PRC_00bowZ to PRC_phHJht--><g class="link" data-entity-1="PRC_00bowZ" data-entity-2="PRC_phHJht" data-source-line="31" data-uid="lnk18" id="link_PRC_00bowZ_PRC_phHJht"><path d="M533.82,102.6269 C577.35,102.6269 625.34,102.6269 669.25,102.6269" fill="none" id="PRC_00bowZ-to-PRC_phHJht" style="stroke:#181818;stroke-width:1;"/><polygon fill="#181818" points="675.25,102.6269,666.25,98.6269,670.25,102.6269,666.25,106.6269,675.25,102.6269" style="stroke:#181818;stroke-width:1;"/><text fill="#000000" font-family="sans-serif" font-size="12" lengthAdjust="spacing" textLength="76.3887" x="527.54" y="99.7655">&#171;Triggering&#187;</text></g><!--link PRC_0Rz5Ex to SRV_Uv9Wx9--><g class="link" data-entity-1="PRC_0Rz5Ex" data-entity-2="SRV_Uv9Wx9" data-source-line="27" data-uid="lnk15" id="link_PRC_0Rz5Ex_SRV_Uv9Wx9"><path d="M360,207.3871 C360,207.4913 360,207.5964 360,207.7024 C360,207.9144 360,208.1299 360,208.3488 C360,208.7867 360,209.2384 360,209.7035 C360,210.6335 360,211.617 360,212.65 C360,220.9144 360,232.3544 360,245.0569 C360,270.4619 360,282.9169 360,303.1169" fill="none" id="PRC_0Rz5Ex-to-SRV_Uv9Wx9" style="stroke:#181818;stroke-width:1;stroke-dasharray:7.0,7.0;"/><polygon fill="none" points="360,321.1169,366,303.1169,354,303.1169,360,321.1169" style="stroke:#181818;stroke-width:1;"/></g><!--link PRC_L8tjrh to FNC_BdEMPx--><g class="link" data-entity-1="PRC_L8tjrh" data-entity-2="FNC_BdEMPx" data-source-line="30" data-uid="lnk17" id="link_PRC_L8tjrh_FNC_BdEMPx"><path d="M205,139.5369 C205,234.9969 205,605.2969 205,605.2969 C205,605.2969 528.91,605.2969 678.4,605.2969" fill="none" id="PRC_L8tjrh-to-FNC_BdEMPx" style="stroke:#181818;stroke-width:1;"/><polygon fill="#181818" points="684.4,605.2969,675.4,601.2969,679.4,605.2969,675.4,609.2969,684.4,605.2969" style="stroke:#181818;stroke-width:1;"/><text fill="#000000" font-family="sans-serif" font-size="12" lengthAdjust="spacing" textLength="76.3887" x="134.82" y="617.4355">&#171;Triggering&#187;</text></g><!--link PRC_00bowZ to FNC_ahr0mT--><g class="link" data-entity-1="PRC_00bowZ" data-entity-2="FNC_ahr0mT" data-source-line="32" data-uid="lnk19" id="link_PRC_00bowZ_FNC_ahr0mT"><path d="M533.61,124.6269 C576.92,124.6269 622,124.6269 622,124.6269 C622,124.6269 622,397.2969 622,397.2969 C622,397.2969 634.72,397.2969 658.19,397.2969" fill="none" id="PRC_00bowZ-to-FNC_ahr0mT" style="stroke:#181818;stroke-width:1;"/><polygon fill="#181818" points="664.19,397.2969,655.19,393.2969,659.19,397.2969,655.19,401.2969,664.19,397.2969" style="stroke:#181818;stroke-width:1;"/><text fill="#000000" font-family="sans-serif" font-size="12" lengthAdjust="spacing" textLength="76.3887" x="545" y="250.0055">&#171;Triggering&#187;</text></g><!--link PRC_00bowZ to FNC_eAkU8w--><g class="link" data-entity-1="PRC_00bowZ" data-entity-2="FNC_eAkU8w" data-source-line="33" data-uid="lnk20" id="link_PRC_00bowZ_FNC_eAkU8w"><path d="M533.59,131.9669 C565.51,131.9669 595,131.9669 595,131.9669 C595,131.9669 595,501.2969 595,501.2969 C595,501.2969 614.89,501.2969 645.94,501.2969" fill="none" id="PRC_00bowZ-to-FNC_eAkU8w" style="stroke:#181818;stroke-width:1;"/><polygon fill="#181818" points="651.94,501.2969,642.94,497.2969,646.94,501.2969,642.94,505.2969,651.94,501.2969" style="stroke:#181818;stroke-width:1;"/><text fill="#000000" font-family="sans-serif" font-size="12" lengthAdjust="spacing" textLength="76.3887" x="596" y="326.5355">&#171;Triggering&#187;</text></g><!--link PRC_00bowZ to FNC_B_F--><g class="link" data-entity-1="PRC_00bowZ" data-entity-2="FNC_B_F" data-source-line="34" data-uid="lnk21" id="link_PRC_00bowZ_FNC_B_F"><path d="M533.55,117.2969 C592.11,117.2969 662,117.2969 662,117.2969 C662,117.2969 662,217.6469 662,265.0069" fill="none" id="PRC_00bowZ-to-FNC_B_F" style="stroke:#181818;stroke-width:1;"/><polygon fill="#181818" points="662,271.0069,666,262.0069,662,266.0069,658,262.0069,662,271.0069" style="stroke:#181818;stroke-width:1;"/><text fill="#000000" font-family="sans-serif" font-size="12" lengthAdjust="spacing" textLength="76.3887" x="585" y="142.0655">&#171;Triggering&#187;</text></g><!--link PRC_phHJht to EVT_Y7qmHh--><g class="link" data-entity-1="PRC_phHJht" data-entity-2="EVT_Y7qmHh" data-source-line="35" data-uid="lnk22" id="link_PRC_phHJht_EVT_Y7qmHh"><path d="M837.6,117.2969 C871.61,117.2969 904.97,117.2969 938.58,117.2969" fill="none" id="PRC_phHJht-to-EVT_Y7qmHh" style="stroke:#181818;stroke-width:1;"/><polygon fill="#181818" points="944.58,117.2969,935.58,113.2969,939.58,117.2969,935.58,121.2969,944.58,117.2969" style="stroke:#181818;stroke-width:1;"/><text fill="#000000" font-family="sans-serif" font-size="12" lengthAdjust="spacing" textLength="76.3887" x="814.09" y="129.4355">&#171;Triggering&#187;</text></g><!--SRC=[bPDVRzem5CNVyobkgxsIiOTgRSKYKGhjfcrYWJ9jqnGPvn9x97PcEvIixNUlGq8XRResRqJyVCwv_mwue74M8hZksu0eodX237QqGONIv2bgDysIs3bevg8uJrc5nBWmO2Ge7Z438LT83PV2SGmtCS9OoKGQXBuoV46eEOL9Dk-aIbBK6iwHoYILcfTFYhT4HFRPOU_DWrqmGRNY56yq9J5-UESUtNdWu-QPL7bbOGMW0W-Xrwj-UXuG3HD_5bojJhwlJvxr69U9QXwFinUw5LVgZlr1qFN_7GtNSEC0j90UsB8pAtsEAOeG1SrX44kTAMmq-Nni_YZMpiBF17pBICnD3XSMqitnktDv_RETyd2Dj0Z_qFX6vPHTVcB6AkyAWCulnaDRxk_DjdJg2NOVZLobT-SuAQ5B4jcWeqnibisMzf_-RwbQ3HUAf0ocYgnGQH8N5MovieJHrq5m5Ww_ZDSjbKTA2cF_jhS4Czl-a6nRzDI0CDLDfYqDV5pOCnM6anW-2eEHAaOyO4YNpIxONruTNxTqwHkZ-BmOyuGoJCYBjPm5es8uptWCLpPntQ2wgksPXONi1YirXxDfyEFzt-IIESxUeRdkhLSxwFtrwdZxMtHg1QTsWo9KN4IUznZTZRWPtIvZfLeku8leRgwlGilXl0gr7MxcgcG5j-lQK_GU]--></g></svg>