<svg xmlns="http://www.w3.org/2000/svg" xmlns:xlink="http://www.w3.org/1999/xlink" contentStyleType="text/css" data-diagram-type="DESCRIPTION" height="921px" preserveAspectRatio="none" style="width:1920px;height:921px;background:#FAFAFA;" version="1.1" viewBox="0 0 1920 921" width="1920px" zoomAndPan="magnify"><title>Guide Implementation -- Workflow</title><defs/><g><rect fill="#FAFAFA" height="921" style="stroke:none;stroke-width:1;" width="1920" x="0" y="0"/><text fill="#000000" font-family="sans-serif" font-size="14" font-weight="bold" lengthAdjust="spacing" textLength="272.1113" x="816.9443" y="22.9951">Guide Implementation -- Workflow</text><!--cluster Motivation--><g class="cluster" data-entity="Motivation" data-source-line="7" data-uid="ent0002" id="cluster_Motivation"><rect fill="#F7EEF9" height="92" rx="2" ry="2" style="stroke:#7B3F9A;stroke-width:1;" width="966" x="948" y="540.2969"/><text fill="#000000" font-family="sans-serif" font-size="12" font-weight="bold" lengthAdjust="spacing" textLength="72.5918" x="1394.7041" y="553.4355">Motivation</text></g><!--cluster Business--><g class="cluster" data-entity="Business" data-source-line="13" data-uid="ent0006" id="cluster_Business"><rect fill="#FFFDEC" height="92" rx="2" ry="2" style="stroke:#B8860B;stroke-width:1;" width="364" x="80" y="44.2969"/><text fill="#000000" font-family="sans-serif" font-size="12" font-weight="bold" lengthAdjust="spacing" textLength="59.9121" x="232.0439" y="57.4355">Business</text></g><!--cluster Common--><g class="cluster" data-entity="Common" data-source-line="18" data-uid="ent0009" id="cluster_Common"><rect fill="#EDE8E1" height="628" rx="2" ry="2" style="stroke:#8C7E6A;stroke-width:1;" width="917" x="7" y="168.2969"/><text fill="#000000" font-family="sans-serif" font-size="12" font-weight="bold" lengthAdjust="spacing" textLength="58.8457" x="436.0771" y="181.4355">Common</text></g><!--cluster PRC_GHVpDA--><g class="cluster" data-entity="PRC_GHVpDA" data-source-line="21" data-uid="ent0012" id="cluster_PRC_GHVpDA"><rect fill="#E0D8CC" height="491" rx="2" ry="2" style="stroke:#8C7E6A;stroke-width:1;" width="330" x="39" y="273.2969"/><path d="M118.3717,281.4469 L127.8217,281.4469 L127.8217,279.4969 L134.5717,287.2969 L127.8217,295.0969 L127.8217,293.1469 L118.3717,293.1469" fill="#252327"/><text fill="#000000" font-family="sans-serif" font-size="12" font-weight="bold" lengthAdjust="spacing" textLength="150.8789" x="142.6494" y="296.4668">Guide Implementation</text></g><!--cluster Application--><g class="cluster" data-entity="Application" data-source-line="31" data-uid="ent0019" id="cluster_Application"><rect fill="#E8F8FF" height="92" rx="2" ry="2" style="stroke:#0078A0;stroke-width:1;" width="616" x="1263" y="820.2969"/><text fill="#000000" font-family="sans-serif" font-size="12" font-weight="bold" lengthAdjust="spacing" textLength="76.541" x="1532.7295" y="833.4355">Application</text></g><!--entity GOL_Gh3Jk1--><g class="entity" data-entity="GOL_Gh3Jk1" data-source-line="8" data-uid="ent0003" id="entity_GOL_Gh3Jk1"><rect fill="#EDD6F0" height="44" rx="2" ry="2" style="stroke:#7B3F9A;stroke-width:0.5;" width="311.627" x="1298" y="572.2969"/><ellipse cx="1320" cy="594.2969" fill="none" rx="7.2" ry="7.2" style="stroke:#252327;stroke-width:1.95;"/><ellipse cx="1320" cy="594.2969" fill="none" rx="4.35" ry="4.35" style="stroke:#252327;stroke-width:1.95;"/><ellipse cx="1320" cy="594.2969" fill="#252327" rx="1.95" ry="1.95" style="stroke:#252327;stroke-width:0.5;"/><text fill="#000000" font-family="sans-serif" font-size="12" lengthAdjust="spacing" textLength="263.8125" x="1335.8145" y="603.4668">Provide Development Guidance for Humans</text></g><!--entity GOL_e3nCpO--><g class="entity" data-entity="GOL_e3nCpO" data-source-line="9" data-uid="ent0004" id="entity_GOL_e3nCpO"><rect fill="#EDD6F0" height="44" rx="2" ry="2" style="stroke:#7B3F9A;stroke-width:0.5;" width="273.8457" x="964" y="572.2969"/><ellipse cx="986" cy="594.2969" fill="none" rx="7.2" ry="7.2" style="stroke:#252327;stroke-width:1.95;"/><ellipse cx="986" cy="594.2969" fill="none" rx="4.35" ry="4.35" style="stroke:#252327;stroke-width:1.95;"/><ellipse cx="986" cy="594.2969" fill="#252327" rx="1.95" ry="1.95" style="stroke:#252327;stroke-width:0.5;"/><text fill="#000000" font-family="sans-serif" font-size="12" lengthAdjust="spacing" textLength="226.0313" x="1001.8145" y="603.4668">Provide Development Guidance for AI</text></g><!--entity REQ_fLpCKU--><g class="entity" data-entity="REQ_fLpCKU" data-source-line="10" data-uid="ent0005" id="entity_REQ_fLpCKU"><rect fill="#EDD6F0" height="44" rx="2" ry="2" style="stroke:#7B3F9A;stroke-width:0.5;" width="228.1016" x="1670" y="572.2969"/><path d="M1686.6,588.5969 L1698.6,588.5969 L1696.2,599.9969 L1684.2,599.9969" fill="#252327"/><text fill="#000000" font-family="sans-serif" font-size="12" lengthAdjust="spacing" textLength="180.2871" x="1707.8145" y="603.4668">Concurrent Tool-Call Handling</text></g><!--entity ACT_Pp8Qq8--><g class="entity" data-entity="ACT_Pp8Qq8" data-source-line="14" data-uid="ent0007" id="entity_ACT_Pp8Qq8"><rect fill="#FFFAC8" height="44" rx="2" ry="2" style="stroke:#B8860B;stroke-width:0.5;" width="109.5313" x="318" y="76.2969"/><ellipse cx="340" cy="92.2969" fill="none" rx="2.85" ry="2.85" style="stroke:#252327;stroke-width:1.95;"/><path d="M339.025,95.1469 L339.025,101.2969 L340.975,101.2969 L340.975,95.1469" fill="#252327"/><path d="M336.52,106.6069 L335.08,105.2869 L339.28,100.6369 L340.72,101.9569" fill="#252327"/><path d="M339.28,101.9569 L340.72,100.6369 L344.92,105.2869 L343.48,106.6069" fill="#252327"/><path d="M335.5,97.4719 L344.5,97.4719 L344.5,99.4219 L335.5,99.4219" fill="#252327"/><text fill="#000000" font-family="sans-serif" font-size="12" lengthAdjust="spacing" textLength="61.7168" x="355.8145" y="107.4668">Developer</text></g><!--entity ACT_CUvO_l--><g class="entity" data-entity="ACT_CUvO_l" data-source-line="15" data-uid="ent0008" id="entity_ACT_CUvO_l"><rect fill="#FFFAC8" height="44" rx="2" ry="2" style="stroke:#B8860B;stroke-width:0.5;" width="162.4414" x="96" y="76.2969"/><ellipse cx="118" cy="92.2969" fill="none" rx="2.85" ry="2.85" style="stroke:#252327;stroke-width:1.95;"/><path d="M117.025,95.1469 L117.025,101.2969 L118.975,101.2969 L118.975,95.1469" fill="#252327"/><path d="M114.52,106.6069 L113.08,105.2869 L117.28,100.6369 L118.72,101.9569" fill="#252327"/><path d="M117.28,101.9569 L118.72,100.6369 L122.92,105.2869 L121.48,106.6069" fill="#252327"/><path d="M113.5,97.4719 L122.5,97.4719 L122.5,99.4219 L113.5,99.4219" fill="#252327"/><text fill="#000000" font-family="sans-serif" font-size="12" lengthAdjust="spacing" textLength="114.627" x="133.8145" y="107.4668">AI Language Model</text></g><!--entity ROL_lM1u7O--><g class="entity" data-entity="ROL_lM1u7O" data-source-line="19" data-uid="ent0010" id="entity_ROL_lM1u7O"><rect fill="#E0D8CC" height="44" rx="2" ry="2" style="stroke:#8C7E6A;stroke-width:0.5;" width="109.5313" x="306" y="200.2969"/><path d="M320.5,215.5469 L332.2,215.5469 A3,3 0 0 1 335.2,218.5469 L335.2,226.0469 A3,3 0 0 1 332.2,229.0469 L320.5,229.0469" fill="#252327"/><text fill="#000000" font-family="sans-serif" font-size="12" lengthAdjust="spacing" textLength="61.7168" x="343.8145" y="231.4668">Developer</text></g><!--entity ROL_udXPfB--><g class="entity" data-entity="ROL_udXPfB" data-source-line="20" data-uid="ent0011" id="entity_ROL_udXPfB"><rect fill="#E0D8CC" height="44" rx="2" ry="2" style="stroke:#8C7E6A;stroke-width:0.5;" width="98.8965" x="139.5" y="200.2969"/><path d="M154,215.5469 L165.7,215.5469 A3,3 0 0 1 168.7,218.5469 L168.7,226.0469 A3,3 0 0 1 165.7,229.0469 L154,229.0469" fill="#252327"/><text fill="#000000" font-family="sans-serif" font-size="12" lengthAdjust="spacing" textLength="51.082" x="177.3145" y="231.4668">AI Agent</text></g><!--entity SRV_M5EG4U--><g class="entity" data-entity="SRV_M5EG4U" data-source-line="27" data-uid="ent0017" id="entity_SRV_M5EG4U"><rect fill="#E0D8CC" height="44" rx="2" ry="2" style="stroke:#8C7E6A;stroke-width:0.5;" width="251.873" x="656" y="696.2969"/><path d="M670.8,712.4469 L681.6,712.4469 A4.2,4.2 0 0 1 681.6,724.1469 L670.8,724.1469 A4.2,4.2 0 0 1 670.8,712.4469" fill="#252327"/><text fill="#000000" font-family="sans-serif" font-size="12" lengthAdjust="spacing" textLength="204.0586" x="693.8145" y="727.4668">Implementation Guidance Service</text></g><!--entity SRV_Qr8St8--><g class="entity" data-entity="SRV_Qr8St8" data-source-line="28" data-uid="ent0018" id="entity_SRV_Qr8St8"><rect fill="#E0D8CC" height="44" rx="2" ry="2" style="stroke:#8C7E6A;stroke-width:0.5;" width="202.8828" x="392.5" y="696.2969"/><path d="M407.3,712.4469 L418.1,712.4469 A4.2,4.2 0 0 1 418.1,724.1469 L407.3,724.1469 A4.2,4.2 0 0 1 407.3,712.4469" fill="#252327"/><text fill="#000000" font-family="sans-serif" font-size="12" lengthAdjust="spacing" textLength="155.0684" x="430.3145" y="727.4668">Discovery &amp; Stats Service</text></g><!--entity PRC_9jDEGV--><g class="entity" data-entity="PRC_9jDEGV" data-source-line="22" data-uid="ent0013" id="entity_PRC_9jDEGV"><rect fill="#E0D8CC" height="44" rx="2" ry="2" style="stroke:#8C7E6A;stroke-width:0.5;" width="234.7168" x="65.5" y="324.2969"/><path d="M79.4,340.4469 L88.85,340.4469 L88.85,338.4969 L95.6,346.2969 L88.85,354.0969 L88.85,352.1469 L79.4,352.1469" fill="#252327"/><text fill="#000000" font-family="sans-serif" font-size="12" lengthAdjust="spacing" textLength="186.9023" x="103.3145" y="355.4668">Receive Implementation Query</text></g><!--entity PRC_pxK4fR--><g class="entity" data-entity="PRC_pxK4fR" data-source-line="23" data-uid="ent0014" id="entity_PRC_pxK4fR"><rect fill="#E0D8CC" height="44" rx="2" ry="2" style="stroke:#8C7E6A;stroke-width:0.5;" width="230.5215" x="75.5" y="448.2969"/><path d="M89.4,464.4469 L98.85,464.4469 L98.85,462.4969 L105.6,470.2969 L98.85,478.0969 L98.85,476.1469 L89.4,476.1469" fill="#252327"/><text fill="#000000" font-family="sans-serif" font-size="12" lengthAdjust="spacing" textLength="182.707" x="113.3145" y="479.4668">Retrieve Architectural Context</text></g><!--entity PRC_dEhS8H--><g class="entity" data-entity="PRC_dEhS8H" data-source-line="24" data-uid="ent0015" id="entity_PRC_dEhS8H"><rect fill="#E0D8CC" height="44" rx="2" ry="2" style="stroke:#8C7E6A;stroke-width:0.5;" width="272.8086" x="63.5" y="572.2969"/><path d="M77.4,588.4469 L86.85,588.4469 L86.85,586.4969 L93.6,594.2969 L86.85,602.0969 L86.85,600.1469 L77.4,600.1469" fill="#252327"/><text fill="#000000" font-family="sans-serif" font-size="12" lengthAdjust="spacing" textLength="224.9941" x="101.3145" y="603.4668">Synthesize Implementation Guidance</text></g><!--entity PRC_ovDBpv--><g class="entity" data-entity="PRC_ovDBpv" data-source-line="25" data-uid="ent0016" id="entity_PRC_ovDBpv"><rect fill="#E0D8CC" height="44" rx="2" ry="2" style="stroke:#8C7E6A;stroke-width:0.5;" width="250.2324" x="75" y="696.2969"/><path d="M88.9,712.4469 L98.35,712.4469 L98.35,710.4969 L105.1,718.2969 L98.35,726.0969 L98.35,724.1469 L88.9,724.1469" fill="#252327"/><text fill="#000000" font-family="sans-serif" font-size="12" lengthAdjust="spacing" textLength="202.418" x="112.8145" y="727.4668">Deliver Implementation Guidance</text></g><!--entity APP_kRZYOA--><g class="entity" data-entity="APP_kRZYOA" data-source-line="32" data-uid="ent0020" id="entity_APP_kRZYOA"><rect fill="#CCF2FF" height="44" rx="2" ry="2" style="stroke:#0078A0;stroke-width:0.5;" width="156.793" x="1705.5" y="852.2969"/><path d="M1721.5,868.5969 L1732.6,868.5969 L1732.6,879.9969 L1721.5,879.9969" fill="#252327"/><path d="M1718.95,869.7219 L1721.5,869.7219 L1721.5,871.6719 L1718.95,871.6719" fill="#252327"/><path d="M1718.95,873.3219 L1721.5,873.3219 L1721.5,875.2719 L1718.95,875.2719" fill="#252327"/><path d="M1718.95,876.9219 L1721.5,876.9219 L1721.5,878.8719 L1718.95,878.8719" fill="#252327"/><path d="M1732.6,869.7219 L1734.7,869.7219 L1734.7,871.6719 L1732.6,871.6719" fill="#252327"/><path d="M1732.6,873.3219 L1734.7,873.3219 L1734.7,875.2719 L1732.6,875.2719" fill="#252327"/><path d="M1732.6,876.9219 L1734.7,876.9219 L1734.7,878.8719 L1732.6,878.8719" fill="#252327"/><text fill="#000000" font-family="sans-serif" font-size="12" lengthAdjust="spacing" textLength="108.9785" x="1743.3145" y="883.4668">MCP Model Server</text></g><!--entity APP_v9LvfK--><g class="entity" data-entity="APP_v9LvfK" data-source-line="33" data-uid="ent0021" id="entity_APP_v9LvfK"><rect fill="#CCF2FF" height="44" rx="2" ry="2" style="stroke:#0078A0;stroke-width:0.5;" width="129.2246" x="1279.5" y="852.2969"/><path d="M1295.5,868.5969 L1306.6,868.5969 L1306.6,879.9969 L1295.5,879.9969" fill="#252327"/><path d="M1292.95,869.7219 L1295.5,869.7219 L1295.5,871.6719 L1292.95,871.6719" fill="#252327"/><path d="M1292.95,873.3219 L1295.5,873.3219 L1295.5,875.2719 L1292.95,875.2719" fill="#252327"/><path d="M1292.95,876.9219 L1295.5,876.9219 L1295.5,878.8719 L1292.95,878.8719" fill="#252327"/><path d="M1306.6,869.7219 L1308.7,869.7219 L1308.7,871.6719 L1306.6,871.6719" fill="#252327"/><path d="M1306.6,873.3219 L1308.7,873.3219 L1308.7,875.2719 L1306.6,875.2719" fill="#252327"/><path d="M1306.6,876.9219 L1308.7,876.9219 L1308.7,878.8719 L1306.6,878.8719" fill="#252327"/><text fill="#000000" font-family="sans-serif" font-size="12" lengthAdjust="spacing" textLength="81.4102" x="1317.3145" y="883.4668">Query Engine</text></g><!--entity APP_a9k_mJ--><g class="entity" data-entity="APP_a9k_mJ" data-source-line="34" data-uid="ent0022" id="entity_APP_a9k_mJ"><rect fill="#CCF2FF" height="44" rx="2" ry="2" style="stroke:#0078A0;stroke-width:0.5;" width="176.3691" x="1469" y="852.2969"/><path d="M1485,868.5969 L1496.1,868.5969 L1496.1,879.9969 L1485,879.9969" fill="#252327"/><path d="M1482.45,869.7219 L1485,869.7219 L1485,871.6719 L1482.45,871.6719" fill="#252327"/><path d="M1482.45,873.3219 L1485,873.3219 L1485,875.2719 L1482.45,875.2719" fill="#252327"/><path d="M1482.45,876.9219 L1485,876.9219 L1485,878.8719 L1482.45,878.8719" fill="#252327"/><path d="M1496.1,869.7219 L1498.2,869.7219 L1498.2,871.6719 L1496.1,871.6719" fill="#252327"/><path d="M1496.1,873.3219 L1498.2,873.3219 L1498.2,875.2719 L1496.1,875.2719" fill="#252327"/><path d="M1496.1,876.9219 L1498.2,876.9219 L1498.2,878.8719 L1496.1,878.8719" fill="#252327"/><text fill="#000000" font-family="sans-serif" font-size="12" lengthAdjust="spacing" textLength="128.5547" x="1506.8145" y="883.4668">Write Request Queue</text></g><!--link GOL_Gh3Jk1 to GOL_e3nCpO--><!--link GOL_e3nCpO to REQ_fLpCKU--><!--link ACT_Pp8Qq8 to ACT_CUvO_l--><!--link ROL_lM1u7O to ROL_udXPfB--><!--link ROL_udXPfB to PRC_9jDEGV--><!--link PRC_9jDEGV to PRC_pxK4fR--><!--link PRC_9jDEGV to PRC_pxK4fR--><g class="link" data-entity-1="PRC_9jDEGV" data-entity-2="PRC_pxK4fR" data-source-line="61" data-uid="lnk41" id="link_PRC_9jDEGV_PRC_pxK4fR"><path d="M225.5,368.4669 C225.5,390.8969 225.5,419.3869 225.5,441.9069" fill="none" id="PRC_9jDEGV-to-PRC_pxK4fR" style="stroke:#181818;stroke-width:1;"/><polygon fill="#181818" points="225.5,447.9069,229.5,438.9069,225.5,442.9069,221.5,438.9069,225.5,447.9069" style="stroke:#181818;stroke-width:1;"/><text fill="#000000" font-family="sans-serif" font-size="12" lengthAdjust="spacing" textLength="76.3887" x="148.5" y="405.3255">&#171;Triggering&#187;</text></g><!--link PRC_pxK4fR to PRC_dEhS8H--><!--link PRC_pxK4fR to PRC_dEhS8H--><g class="link" data-entity-1="PRC_pxK4fR" data-entity-2="PRC_dEhS8H" data-source-line="62" data-uid="lnk42" id="link_PRC_pxK4fR_PRC_dEhS8H"><path d="M229.5,492.4669 C229.5,514.8969 229.5,543.3869 229.5,565.9069" fill="none" id="PRC_pxK4fR-to-PRC_dEhS8H" style="stroke:#181818;stroke-width:1;"/><polygon fill="#181818" points="229.5,571.9069,233.5,562.9069,229.5,566.9069,225.5,562.9069,229.5,571.9069" style="stroke:#181818;stroke-width:1;"/><text fill="#000000" font-family="sans-serif" font-size="12" lengthAdjust="spacing" textLength="76.3887" x="152.5" y="529.3255">&#171;Triggering&#187;</text></g><!--link PRC_dEhS8H to PRC_ovDBpv--><!--link PRC_dEhS8H to PRC_ovDBpv--><g class="link" data-entity-1="PRC_dEhS8H" data-entity-2="PRC_ovDBpv" data-source-line="63" data-uid="lnk43" id="link_PRC_dEhS8H_PRC_ovDBpv"><path d="M200,616.4669 C200,638.8969 200,667.3869 200,689.9069" fill="none" id="PRC_dEhS8H-to-PRC_ovDBpv" style="stroke:#181818;stroke-width:1;"/><polygon fill="#181818" points="200,695.9069,204,686.9069,200,690.9069,196,686.9069,200,695.9069" style="stroke:#181818;stroke-width:1;"/><text fill="#000000" font-family="sans-serif" font-size="12" lengthAdjust="spacing" textLength="76.3887" x="123" y="653.3255">&#171;Triggering&#187;</text></g><!--link PRC_ovDBpv to SRV_M5EG4U--><!--link SRV_M5EG4U to SRV_Qr8St8--><!--link APP_kRZYOA to APP_v9LvfK--><!--link APP_v9LvfK to APP_a9k_mJ--><!--link PRC_GHVpDA to GOL_Gh3Jk1--><g class="link" data-entity-1="PRC_GHVpDA" data-entity-2="GOL_Gh3Jk1" data-source-line="55" data-uid="lnk35" id="link_PRC_GHVpDA_GOL_Gh3Jk1"><path d="M369.0285,346.2969 C369.8351,346.2969 370.7003,346.2969 371.6231,346.2969 C373.4687,346.2969 375.5447,346.2969 377.843,346.2969 C387.0362,346.2969 399.7866,346.2969 415.579,346.2969 C447.1638,346.2969 490.9166,346.2969 542.7163,346.2969 C646.3156,346.2969 782.1025,346.2969 917.1075,346.2969 C1187.1175,346.2969 1454,346.2969 1454,346.2969 C1454,346.2969 1454,505.5969 1454,566.2869" fill="none" id="PRC_GHVpDA-to-GOL_Gh3Jk1" style="stroke:#181818;stroke-width:1;stroke-dasharray:7.0,7.0;"/><polygon fill="#181818" points="1454,572.2869,1458,563.2869,1454,567.2869,1450,563.2869,1454,572.2869" style="stroke:#181818;stroke-width:1;"/><text fill="#000000" font-family="sans-serif" font-size="12" lengthAdjust="spacing" textLength="69.9609" x="950.72" y="343.4355">&#171;Influence&#187;</text></g><!--link PRC_GHVpDA to GOL_e3nCpO--><g class="link" data-entity-1="PRC_GHVpDA" data-entity-2="GOL_e3nCpO" data-source-line="56" data-uid="lnk36" id="link_PRC_GHVpDA_GOL_e3nCpO"><path d="M370.2612,354.2969 C371.0476,354.2969 371.8423,354.2969 372.6452,354.2969 C379.0681,354.2969 386.0143,354.2969 393.4363,354.2969 C408.2803,354.2969 425.0273,354.2969 443.2969,354.2969 C516.375,354.2969 613.8125,354.2969 711.25,354.2969 C906.125,354.2969 1101,354.2969 1101,354.2969 C1101,354.2969 1101,506.7369 1101,566.1469" fill="none" id="PRC_GHVpDA-to-GOL_e3nCpO" style="stroke:#181818;stroke-width:1;stroke-dasharray:7.0,7.0;"/><polygon fill="#181818" points="1101,572.1469,1105,563.1469,1101,567.1469,1097,563.1469,1101,572.1469" style="stroke:#181818;stroke-width:1;"/><text fill="#000000" font-family="sans-serif" font-size="12" lengthAdjust="spacing" textLength="69.9609" x="726.65" y="351.4355">&#171;Influence&#187;</text></g><!--link ACT_Pp8Qq8 to ROL_lM1u7O--><g class="link" data-entity-1="ACT_Pp8Qq8" data-entity-2="ROL_lM1u7O" data-source-line="57" data-uid="lnk37" id="link_ACT_Pp8Qq8_ROL_lM1u7O"><path d="M367,120.4669 C367,142.8969 367,177.3869 367,199.9069" fill="none" id="ACT_Pp8Qq8-ROL_lM1u7O" style="stroke:#181818;stroke-width:1;"/><text fill="#000000" font-family="sans-serif" font-size="12" lengthAdjust="spacing" textLength="85.3359" x="281" y="157.3255">&#171;Assignment&#187;</text></g><!--link ACT_CUvO_l to ROL_udXPfB--><g class="link" data-entity-1="ACT_CUvO_l" data-entity-2="ROL_udXPfB" data-source-line="58" data-uid="lnk38" id="link_ACT_CUvO_l_ROL_udXPfB"><path d="M189,120.4669 C189,142.8969 189,177.3869 189,199.9069" fill="none" id="ACT_CUvO_l-ROL_udXPfB" style="stroke:#181818;stroke-width:1;"/><text fill="#000000" font-family="sans-serif" font-size="12" lengthAdjust="spacing" textLength="85.3359" x="103" y="157.3255">&#171;Assignment&#187;</text></g><!--link ROL_lM1u7O to PRC_GHVpDA--><g class="link" data-entity-1="ROL_lM1u7O" data-entity-2="PRC_GHVpDA" data-source-line="59" data-uid="lnk39" id="link_ROL_lM1u7O_PRC_GHVpDA"><path d="M361,244.4669 C361,248.7156 361,253.3973 361,258.3486 C361,260.8242 361,263.3671 361,265.9571 C361,267.252 361,268.5587 361,269.8746 C361,270.5325 361,271.1927 361,271.855 C361,272.1861 361,272.5177 361,272.8497" fill="none" id="ROL_lM1u7O-PRC_GHVpDA" style="stroke:#181818;stroke-width:1;"/><text fill="#000000" font-family="sans-serif" font-size="12" lengthAdjust="spacing" textLength="85.3359" x="362" y="292.3055">&#171;Assignment&#187;</text></g><!--link ROL_udXPfB to PRC_GHVpDA--><g class="link" data-entity-1="ROL_udXPfB" data-entity-2="PRC_GHVpDA" data-source-line="60" data-uid="lnk40" id="link_ROL_udXPfB_PRC_GHVpDA"><path d="M205.5,244.3269 C205.5,253.2369 205.5,263.2294 205.5,270.9944 C205.5,271.4797 205.5,271.9563 205.5,272.4234 C205.5,272.657 205.5,272.8881 205.5,273.1168 C205.5,273.174 205.5,273.231 205.5,273.2879" fill="none" id="ROL_udXPfB-PRC_GHVpDA" style="stroke:#181818;stroke-width:1;"/><text fill="#000000" font-family="sans-serif" font-size="12" lengthAdjust="spacing" textLength="85.3359" x="295.7" y="281.4355">&#171;Assignment&#187;</text></g><!--link PRC_GHVpDA to SRV_M5EG4U--><g class="link" data-entity-1="PRC_GHVpDA" data-entity-2="SRV_M5EG4U" data-source-line="64" data-uid="lnk44" id="link_PRC_GHVpDA_SRV_M5EG4U"><path d="M369.0362,361.2969 C370.0783,361.2969 371.2157,361.2969 372.445,361.2969 C374.9036,361.2969 377.7295,361.2969 380.8945,361.2969 C393.5547,361.2969 411.6406,361.2969 433.3438,361.2969 C476.75,361.2969 534.625,361.2969 592.5,361.2969 C708.25,361.2969 824,361.2969 824,361.2969 C824,361.2969 824,600.3969 824,678.2369" fill="none" id="PRC_GHVpDA-to-SRV_M5EG4U" style="stroke:#181818;stroke-width:1;stroke-dasharray:7.0,7.0;"/><polygon fill="none" points="824,696.2369,830,678.2369,818,678.2369,824,696.2369" style="stroke:#181818;stroke-width:1;"/></g><!--link PRC_GHVpDA to SRV_Qr8St8--><g class="link" data-entity-1="PRC_GHVpDA" data-entity-2="SRV_Qr8St8" data-source-line="65" data-uid="lnk45" id="link_PRC_GHVpDA_SRV_Qr8St8"><path d="M369.1266,347.2969 C369.1922,347.2969 369.258,347.2969 369.3242,347.2969 C369.4565,347.2969 369.5898,347.2969 369.7243,347.2969 C369.9931,347.2969 370.2661,347.2969 370.543,347.2969 C371.0969,347.2969 371.6663,347.2969 372.2488,347.2969 C373.4139,347.2969 374.6316,347.2969 375.8828,347.2969 C378.3852,347.2969 381.0213,347.2969 383.6375,347.2969 C394.1025,347.2969 404.25,347.2969 404.25,347.2969 C404.25,347.2969 404.25,598.3269 404.25,678.1969" fill="none" id="PRC_GHVpDA-to-SRV_Qr8St8" style="stroke:#181818;stroke-width:1;stroke-dasharray:7.0,7.0;"/><polygon fill="none" points="404.25,696.1969,410.25,678.1969,398.25,678.1969,404.25,696.1969" style="stroke:#181818;stroke-width:1;"/></g><!--reverse link REQ_fLpCKU to SRV_M5EG4U--><g class="link" data-entity-1="REQ_fLpCKU" data-entity-2="SRV_M5EG4U" data-source-line="66" data-uid="lnk47" id="link_REQ_fLpCKU_SRV_M5EG4U"><path d="M1684.2,634.4669 C1684.2,670.1369 1684.2,718.2969 1684.2,718.2969 C1684.2,718.2969 1156.7,718.2969 908.4,718.2969" fill="none" id="REQ_fLpCKU-backto-SRV_M5EG4U" style="stroke:#181818;stroke-width:1;stroke-dasharray:7.0,7.0;"/><polygon fill="none" points="1684.2,616.4669,1678.2,634.4669,1690.2,634.4669,1684.2,616.4669" style="stroke:#181818;stroke-width:1;"/></g><!--reverse link REQ_fLpCKU to SRV_Qr8St8--><g class="link" data-entity-1="REQ_fLpCKU" data-entity-2="SRV_Qr8St8" data-source-line="67" data-uid="lnk49" id="link_REQ_fLpCKU_SRV_Qr8St8"><path d="M1677.1,634.3269 C1677.1,652.1469 1677.1,656.2969 1677.1,656.2969 C1677.1,656.2969 511.75,656.2969 511.75,656.2969 C511.75,656.2969 511.75,678.4469 511.75,696.2669" fill="none" id="REQ_fLpCKU-backto-SRV_Qr8St8" style="stroke:#181818;stroke-width:1;stroke-dasharray:7.0,7.0;"/><polygon fill="none" points="1677.1,616.3269,1671.1,634.3269,1683.1,634.3269,1677.1,616.3269" style="stroke:#181818;stroke-width:1;"/></g><!--link SRV_Qr8St8 to APP_v9LvfK--><g class="link" data-entity-1="SRV_Qr8St8" data-entity-2="APP_v9LvfK" data-source-line="68" data-uid="lnk50" id="link_SRV_Qr8St8_APP_v9LvfK"><path d="M494,740.3169 C494,783.3169 494,874.2969 494,874.2969 C494,874.2969 1063.05,874.2969 1261.41,874.2969" fill="none" id="SRV_Qr8St8-to-APP_v9LvfK" style="stroke:#181818;stroke-width:1;stroke-dasharray:7.0,7.0;"/><polygon fill="none" points="1279.41,874.2969,1261.41,868.2969,1261.41,880.2969,1279.41,874.2969" style="stroke:#181818;stroke-width:1;"/></g><!--reverse link REQ_fLpCKU to APP_kRZYOA--><g class="link" data-entity-1="REQ_fLpCKU" data-entity-2="APP_kRZYOA" data-source-line="69" data-uid="lnk52" id="link_REQ_fLpCKU_APP_kRZYOA"><path d="M1784,634.7369 C1784,687.2969 1784,799.8569 1784,852.1369" fill="none" id="REQ_fLpCKU-backto-APP_kRZYOA" style="stroke:#181818;stroke-width:1;stroke-dasharray:7.0,7.0;"/><polygon fill="none" points="1784,616.7369,1778,634.7369,1790,634.7369,1784,616.7369" style="stroke:#181818;stroke-width:1;"/></g><!--reverse link REQ_fLpCKU to APP_a9k_mJ--><g class="link" data-entity-1="REQ_fLpCKU" data-entity-2="APP_a9k_mJ" data-source-line="70" data-uid="lnk54" id="link_REQ_fLpCKU_APP_a9k_mJ"><path d="M1698.4,634.7369 C1698.4,701.1769 1698.4,874.2969 1698.4,874.2969 C1698.4,874.2969 1673.93,874.2969 1645.35,874.2969" fill="none" id="REQ_fLpCKU-backto-APP_a9k_mJ" style="stroke:#181818;stroke-width:1;stroke-dasharray:7.0,7.0;"/><polygon fill="none" points="1698.4,616.7369,1692.4,634.7369,1704.4,634.7369,1698.4,616.7369" style="stroke:#181818;stroke-width:1;"/></g><!--SRC=[hLPjRzCm4FwUNs4GWayfcW3HeL4fIwjkR5MxTXjlGb58tDJCiJt7pYYm_uwTkBFRf6C5lbtav-xndP-xooD44YnJ23gTvr7CamNAOm7zGa0EgLWoM7IOpB7d2Sg0eE0h5OBc84KS9W9HeWwGm10C9L91ZdE6OGw9YFKPy7tmdlAhEQOtdgSTOf8fxECH5QYi88_1mO7z6d8g6I9PhmT-UW0u7WTFxkuM3McCVnP9ZE7RlSwhsnwOS5fgzZui8QPCyrVtYKa2mPnoS2Jpc1IQI_kgw741XkFJQBXuyUvgxtyo1STD5lY2X6oydMKAhwKgfmwsHXPIaaZEDSSvfTWFOup1KKnIh4gaQHp7ccqwE8lcfomykV1krmf-A0j4O56LO6K_hDWhT908ojUkPse0kHkqWjMN2SBpQCAwPzVTluaU78DJvI3Z388HJI6-XoMyACSHtaWvf7bUwwks7fRkb6AuFKjzQYgjtXMFzkJhyGwnL4v1fXwh6Kgc7oRpm-sXbEuIbVTQjBQEqv4DjWu-cORHyEYIzOCgwvq8fZ21g6mqzPc4VDbAjF-jFnXUxauZE59L1e662UKeUOor-WNyBbg9sFUJb_FfhaIp9H4BMA0VZPHMBTnAbWuMi-xHhcHzY5Nj-4vCjEmVib8ntMvNmWpo4YNhkjh20GnMSncpvffDBwFHgy7mvSLkF7rK95GbjGHFmKoH5VSodF7kJ7GtkZ9W3AFaJglEvyFwqt5GRSqesHoQet1IpulgRdNRjZcPwJ6PH5VJJn_7mJzGLWq11YHJi-dFTEN-QJa_-GUwzrmr2T2p7nP2ayi7iCRxLr7-JZ_6CxMLVH18GNqSBwaKRq31E8nJ06iH5U06YGKY83ClKcWFp-vBu7zUe3I5v0j7sKBuxfApPWFbB2Ux6XeePvxR6TkCPMUcDHiePoPPinLb1eerMr5c4bYp5MMws9eDbDD_rcn5cHwoCctMoqhAcgqe8u6_Lu3dETkaq-avlr3WZLBWCPbZ2OcU0Mr88ujDfAk5bDuGtzcj5JWe2fIH-YV7i_9mqURz6sXNGRwx2rkHAnNTZtILvFSSzLJGSrNm3F9gZgt9oK2DRbgXAqqPg15FA_IkjBzwhfhQZeo47A5r9DE7JZzQt1yETSdryORgZ3QRlbPtBOU_0G00]--></g></svg>