<svg xmlns="http://www.w3.org/2000/svg" xmlns:xlink="http://www.w3.org/1999/xlink" contentStyleType="text/css" data-diagram-type="DESCRIPTION" height="613px" preserveAspectRatio="none" style="width:864px;height:613px;background:#FAFAFA;" version="1.1" viewBox="0 0 864 613" width="864px" zoomAndPan="magnify"><title>Reverse Architecture &amp; Architecture Conformance Review</title><defs/><g><rect fill="#FAFAFA" height="613" style="stroke:none;stroke-width:1;" width="864" x="0" y="0"/><text fill="#000000" font-family="sans-serif" font-size="14" font-weight="bold" lengthAdjust="spacing" textLength="457.8027" x="196.0986" y="22.9951">Reverse Architecture &amp; Architecture Conformance Review</text><!--cluster Services--><g class="cluster" data-entity="Services" data-source-line="21" data-uid="ent0002" id="cluster_Services"><rect fill="#EDE8E1" height="92" rx="2" ry="2" style="stroke:#8C7E6A;stroke-width:1;" width="777" x="7" y="44.2969"/><text fill="#000000" font-family="sans-serif" font-size="12" font-weight="bold" lengthAdjust="spacing" textLength="57.0293" x="366.9854" y="57.4355">Services</text></g><!--cluster Processes--><g class="cluster" data-entity="Processes" data-source-line="29" data-uid="ent0008" id="cluster_Processes"><rect fill="#EDE8E1" height="447" rx="2" ry="2" style="stroke:#8C7E6A;stroke-width:1;" width="778" x="80" y="160.2969"/><text fill="#000000" font-family="sans-serif" font-size="12" font-weight="bold" lengthAdjust="spacing" textLength="67.7754" x="435.1123" y="173.4355">Processes</text></g><!--cluster PRC_CYgU64--><g class="cluster" data-entity="PRC_CYgU64" data-source-line="30" data-uid="ent0009" id="cluster_PRC_CYgU64"><rect fill="#E0D8CC" height="367" rx="2" ry="2" style="stroke:#8C7E6A;stroke-width:1;" width="342" x="112" y="208.2969"/><path d="M201.3033,216.4469 L210.7533,216.4469 L210.7533,214.4969 L217.5033,222.2969 L210.7533,230.0969 L210.7533,228.1469 L201.3033,228.1469" fill="#252327"/><text fill="#000000" font-family="sans-serif" font-size="12" font-weight="bold" lengthAdjust="spacing" textLength="143.0156" x="225.5811" y="231.4668">Reverse Architecture</text></g><!--cluster PRC_vlE_5j--><g class="cluster" data-entity="PRC_vlE_5j" data-source-line="37" data-uid="ent0015" id="cluster_PRC_vlE_5j"><rect fill="#E0D8CC" height="367" rx="2" ry="2" style="stroke:#8C7E6A;stroke-width:1;" width="332" x="494" y="208.2969"/><path d="M534.5279,216.4469 L543.9779,216.4469 L543.9779,214.4969 L550.7279,222.2969 L543.9779,230.0969 L543.9779,228.1469 L534.5279,228.1469" fill="#252327"/><text fill="#000000" font-family="sans-serif" font-size="12" font-weight="bold" lengthAdjust="spacing" textLength="230.5664" x="558.8057" y="231.4668">Architecture Conformance Review</text></g><!--entity SRV_GsUtNL--><g class="entity" data-entity="SRV_GsUtNL" data-source-line="22" data-uid="ent0003" id="entity_SRV_GsUtNL"><rect fill="#E0D8CC" height="44" rx="2" ry="2" style="stroke:#8C7E6A;stroke-width:0.5;" width="194.7793" x="22.5" y="76.2969"/><path d="M37.3,92.4469 L48.1,92.4469 A4.2,4.2 0 0 1 48.1,104.1469 L37.3,104.1469 A4.2,4.2 0 0 1 37.3,92.4469" fill="#252327"/><text fill="#000000" font-family="sans-serif" font-size="12" lengthAdjust="spacing" textLength="3.8145" x="56.5" y="107.4668">&#160;</text><text fill="#000000" font-family="sans-serif" font-size="12" lengthAdjust="spacing" textLength="36.0293" x="60.3145" y="107.4668">Model</text><text fill="#000000" font-family="sans-serif" font-size="12" lengthAdjust="spacing" textLength="3.8145" x="96.3438" y="107.4668">&#160;</text><text fill="#000000" font-family="sans-serif" font-size="12" lengthAdjust="spacing" textLength="58.957" x="100.1582" y="107.4668">Authoring</text><text fill="#000000" font-family="sans-serif" font-size="12" lengthAdjust="spacing" textLength="3.8145" x="159.1152" y="107.4668">&#160;</text><text fill="#000000" font-family="sans-serif" font-size="12" lengthAdjust="spacing" textLength="44.3496" x="162.9297" y="107.4668">Service</text></g><!--entity SRV_Ij6Kl6--><g class="entity" data-entity="SRV_Ij6Kl6" data-source-line="23" data-uid="ent0004" id="entity_SRV_Ij6Kl6"><rect fill="#E0D8CC" height="44" rx="2" ry="2" style="stroke:#8C7E6A;stroke-width:0.5;" width="164.334" x="278" y="76.2969"/><path d="M292.8,92.4469 L303.6,92.4469 A4.2,4.2 0 0 1 303.6,104.1469 L292.8,104.1469 A4.2,4.2 0 0 1 292.8,92.4469" fill="#252327"/><text fill="#000000" font-family="sans-serif" font-size="12" lengthAdjust="spacing" textLength="3.8145" x="312" y="107.4668">&#160;</text><text fill="#000000" font-family="sans-serif" font-size="12" lengthAdjust="spacing" textLength="68.3555" x="315.8145" y="107.4668">Verification</text><text fill="#000000" font-family="sans-serif" font-size="12" lengthAdjust="spacing" textLength="3.8145" x="384.1699" y="107.4668">&#160;</text><text fill="#000000" font-family="sans-serif" font-size="12" lengthAdjust="spacing" textLength="44.3496" x="387.9844" y="107.4668">Service</text></g><!--entity SRV_Qr8St8--><g class="entity" data-entity="SRV_Qr8St8" data-source-line="24" data-uid="ent0005" id="entity_SRV_Qr8St8"><rect fill="#E0D8CC" height="44" rx="2" ry="2" style="stroke:#8C7E6A;stroke-width:0.5;" width="265.5371" x="502" y="76.2969"/><path d="M516.8,92.4469 L527.6,92.4469 A4.2,4.2 0 0 1 527.6,104.1469 L516.8,104.1469 A4.2,4.2 0 0 1 516.8,92.4469" fill="#252327"/><text fill="#000000" font-family="sans-serif" font-size="12" lengthAdjust="spacing" textLength="3.8145" x="536" y="107.4668">&#160;</text><text fill="#000000" font-family="sans-serif" font-size="12" lengthAdjust="spacing" textLength="63.0996" x="539.8145" y="107.4668">Discovery,</text><text fill="#000000" font-family="sans-serif" font-size="12" lengthAdjust="spacing" textLength="3.8145" x="602.9141" y="107.4668">&#160;</text><text fill="#000000" font-family="sans-serif" font-size="12" lengthAdjust="spacing" textLength="55.0254" x="606.7285" y="107.4668">Querying</text><text fill="#000000" font-family="sans-serif" font-size="12" lengthAdjust="spacing" textLength="3.8145" x="661.7539" y="107.4668">&#160;</text><text fill="#000000" font-family="sans-serif" font-size="12" lengthAdjust="spacing" textLength="9.3574" x="665.5684" y="107.4668">&amp;</text><text fill="#000000" font-family="sans-serif" font-size="12" lengthAdjust="spacing" textLength="3.8145" x="674.9258" y="107.4668">&#160;</text><text fill="#000000" font-family="sans-serif" font-size="12" lengthAdjust="spacing" textLength="30.6328" x="678.7402" y="107.4668">Stats</text><text fill="#000000" font-family="sans-serif" font-size="12" lengthAdjust="spacing" textLength="3.8145" x="709.373" y="107.4668">&#160;</text><text fill="#000000" font-family="sans-serif" font-size="12" lengthAdjust="spacing" textLength="44.3496" x="713.1875" y="107.4668">Service</text></g><!--entity FNC_erPw5B--><g class="entity" data-entity="FNC_erPw5B" data-source-line="31" data-uid="ent0010" id="entity_FNC_erPw5B"><rect fill="#E0D8CC" height="44" rx="2" ry="2" style="stroke:#8C7E6A;stroke-width:0.5;" width="201.5703" x="186" y="259.2969"/><path d="M200.35,286.8469 L200.35,277.3969 L208,273.9469 L215.65,277.3969 L215.65,286.8469 L208,283.0969" fill="#252327"/><text fill="#000000" font-family="sans-serif" font-size="12" lengthAdjust="spacing" textLength="3.8145" x="220" y="290.4668">&#160;</text><text fill="#000000" font-family="sans-serif" font-size="12" lengthAdjust="spacing" textLength="45.293" x="223.8145" y="290.4668">Explore</text><text fill="#000000" font-family="sans-serif" font-size="12" lengthAdjust="spacing" textLength="3.8145" x="269.1074" y="290.4668">&#160;</text><text fill="#000000" font-family="sans-serif" font-size="12" lengthAdjust="spacing" textLength="44.748" x="272.9219" y="290.4668">System</text><text fill="#000000" font-family="sans-serif" font-size="12" lengthAdjust="spacing" textLength="3.8145" x="317.6699" y="290.4668">&#160;</text><text fill="#000000" font-family="sans-serif" font-size="12" lengthAdjust="spacing" textLength="56.0859" x="321.4844" y="290.4668">Structure</text></g><!--entity FNC_oRz6Qe--><g class="entity" data-entity="FNC_oRz6Qe" data-source-line="32" data-uid="ent0011" id="entity_FNC_oRz6Qe"><rect fill="#E0D8CC" height="44" rx="2" ry="2" style="stroke:#8C7E6A;stroke-width:0.5;" width="286.25" x="144" y="383.2969"/><path d="M158.35,410.8469 L158.35,401.3969 L166,397.9469 L173.65,401.3969 L173.65,410.8469 L166,407.0969" fill="#252327"/><text fill="#000000" font-family="sans-serif" font-size="12" lengthAdjust="spacing" textLength="3.8145" x="178" y="414.4668">&#160;</text><text fill="#000000" font-family="sans-serif" font-size="12" lengthAdjust="spacing" textLength="25.3242" x="181.8145" y="414.4668">Map</text><text fill="#000000" font-family="sans-serif" font-size="12" lengthAdjust="spacing" textLength="3.8145" x="207.1387" y="414.4668">&#160;</text><text fill="#000000" font-family="sans-serif" font-size="12" lengthAdjust="spacing" textLength="55.9336" x="210.9531" y="414.4668">Elements</text><text fill="#000000" font-family="sans-serif" font-size="12" lengthAdjust="spacing" textLength="3.8145" x="266.8867" y="414.4668">&#160;</text><text fill="#000000" font-family="sans-serif" font-size="12" lengthAdjust="spacing" textLength="12.0469" x="270.7012" y="414.4668">to</text><text fill="#000000" font-family="sans-serif" font-size="12" lengthAdjust="spacing" textLength="3.8145" x="282.748" y="414.4668">&#160;</text><text fill="#000000" font-family="sans-serif" font-size="12" lengthAdjust="spacing" textLength="73.9922" x="286.5625" y="414.4668">Architecture</text><text fill="#000000" font-family="sans-serif" font-size="12" lengthAdjust="spacing" textLength="3.8145" x="360.5547" y="414.4668">&#160;</text><text fill="#000000" font-family="sans-serif" font-size="12" lengthAdjust="spacing" textLength="55.8809" x="364.3691" y="414.4668">Concepts</text></g><!--entity FNC_SXt2mM--><g class="entity" data-entity="FNC_SXt2mM" data-source-line="33" data-uid="ent0012" id="entity_FNC_SXt2mM"><rect fill="#E0D8CC" height="44" rx="2" ry="2" style="stroke:#8C7E6A;stroke-width:0.5;" width="185.8789" x="194" y="507.2969"/><path d="M208.35,534.8469 L208.35,525.3969 L216,521.9469 L223.65,525.3969 L223.65,534.8469 L216,531.0969" fill="#252327"/><text fill="#000000" font-family="sans-serif" font-size="12" lengthAdjust="spacing" textLength="3.8145" x="228" y="538.4668">&#160;</text><text fill="#000000" font-family="sans-serif" font-size="12" lengthAdjust="spacing" textLength="36.9141" x="231.8145" y="538.4668">Check</text><text fill="#000000" font-family="sans-serif" font-size="12" lengthAdjust="spacing" textLength="3.8145" x="268.7285" y="538.4668">&#160;</text><text fill="#000000" font-family="sans-serif" font-size="12" lengthAdjust="spacing" textLength="36.0293" x="272.543" y="538.4668">Model</text><text fill="#000000" font-family="sans-serif" font-size="12" lengthAdjust="spacing" textLength="3.8145" x="308.5723" y="538.4668">&#160;</text><text fill="#000000" font-family="sans-serif" font-size="12" lengthAdjust="spacing" textLength="57.4922" x="312.3867" y="538.4668">Coverage</text></g><!--entity FNC_ns4pWw--><g class="entity" data-entity="FNC_ns4pWw" data-source-line="38" data-uid="ent0016" id="entity_FNC_ns4pWw"><rect fill="#E0D8CC" height="44" rx="2" ry="2" style="stroke:#8C7E6A;stroke-width:0.5;" width="223.291" x="562.5" y="259.2969"/><path d="M576.85,286.8469 L576.85,277.3969 L584.5,273.9469 L592.15,277.3969 L592.15,286.8469 L584.5,283.0969" fill="#252327"/><text fill="#000000" font-family="sans-serif" font-size="12" lengthAdjust="spacing" textLength="3.8145" x="596.5" y="290.4668">&#160;</text><text fill="#000000" font-family="sans-serif" font-size="12" lengthAdjust="spacing" textLength="42.9785" x="600.3145" y="290.4668">Extract</text><text fill="#000000" font-family="sans-serif" font-size="12" lengthAdjust="spacing" textLength="3.8145" x="643.293" y="290.4668">&#160;</text><text fill="#000000" font-family="sans-serif" font-size="12" lengthAdjust="spacing" textLength="73.9922" x="647.1074" y="290.4668">Architecture</text><text fill="#000000" font-family="sans-serif" font-size="12" lengthAdjust="spacing" textLength="3.8145" x="721.0996" y="290.4668">&#160;</text><text fill="#000000" font-family="sans-serif" font-size="12" lengthAdjust="spacing" textLength="50.877" x="724.9141" y="290.4668">Baseline</text></g><!--entity FNC_tFTeOT--><g class="entity" data-entity="FNC_tFTeOT" data-source-line="39" data-uid="ent0017" id="entity_FNC_tFTeOT"><rect fill="#E0D8CC" height="44" rx="2" ry="2" style="stroke:#8C7E6A;stroke-width:0.5;" width="276.248" x="526" y="383.2969"/><path d="M540.35,410.8469 L540.35,401.3969 L548,397.9469 L555.65,401.3969 L555.65,410.8469 L548,407.0969" fill="#252327"/><text fill="#000000" font-family="sans-serif" font-size="12" lengthAdjust="spacing" textLength="3.8145" x="560" y="414.4668">&#160;</text><text fill="#000000" font-family="sans-serif" font-size="12" lengthAdjust="spacing" textLength="40.5996" x="563.8145" y="414.4668">Assess</text><text fill="#000000" font-family="sans-serif" font-size="12" lengthAdjust="spacing" textLength="3.8145" x="604.4141" y="414.4668">&#160;</text><text fill="#000000" font-family="sans-serif" font-size="12" lengthAdjust="spacing" textLength="95.2852" x="608.2285" y="414.4668">Implementation</text><text fill="#000000" font-family="sans-serif" font-size="12" lengthAdjust="spacing" textLength="3.8145" x="703.5137" y="414.4668">&#160;</text><text fill="#000000" font-family="sans-serif" font-size="12" lengthAdjust="spacing" textLength="45.0762" x="707.3281" y="414.4668">Against</text><text fill="#000000" font-family="sans-serif" font-size="12" lengthAdjust="spacing" textLength="3.8145" x="752.4043" y="414.4668">&#160;</text><text fill="#000000" font-family="sans-serif" font-size="12" lengthAdjust="spacing" textLength="36.0293" x="756.2188" y="414.4668">Model</text></g><!--entity FNC_omV6nu--><g class="entity" data-entity="FNC_omV6nu" data-source-line="40" data-uid="ent0018" id="entity_FNC_omV6nu"><rect fill="#E0D8CC" height="44" rx="2" ry="2" style="stroke:#8C7E6A;stroke-width:0.5;" width="233.4043" x="547.5" y="507.2969"/><path d="M561.85,534.8469 L561.85,525.3969 L569.5,521.9469 L577.15,525.3969 L577.15,534.8469 L569.5,531.0969" fill="#252327"/><text fill="#000000" font-family="sans-serif" font-size="12" lengthAdjust="spacing" textLength="3.8145" x="581.5" y="538.4668">&#160;</text><text fill="#000000" font-family="sans-serif" font-size="12" lengthAdjust="spacing" textLength="40.3184" x="585.3145" y="538.4668">Report</text><text fill="#000000" font-family="sans-serif" font-size="12" lengthAdjust="spacing" textLength="3.8145" x="625.6328" y="538.4668">&#160;</text><text fill="#000000" font-family="sans-serif" font-size="12" lengthAdjust="spacing" textLength="73.9922" x="629.4473" y="538.4668">Architecture</text><text fill="#000000" font-family="sans-serif" font-size="12" lengthAdjust="spacing" textLength="3.8145" x="703.4395" y="538.4668">&#160;</text><text fill="#000000" font-family="sans-serif" font-size="12" lengthAdjust="spacing" textLength="63.6504" x="707.2539" y="538.4668">Deviations</text></g><!--link SRV_GsUtNL to SRV_Ij6Kl6--><!--link SRV_Ij6Kl6 to SRV_Qr8St8--><!--link FNC_erPw5B to FNC_oRz6Qe--><!--link FNC_erPw5B to FNC_oRz6Qe--><g class="link" data-entity-1="FNC_erPw5B" data-entity-2="FNC_oRz6Qe" data-source-line="56" data-uid="lnk26" id="link_FNC_erPw5B_FNC_oRz6Qe"><path d="M320.67,303.4669 C320.67,325.8969 320.67,352.3869 320.67,374.9069" fill="none" id="FNC_erPw5B-to-FNC_oRz6Qe" style="stroke:#000000;stroke-width:1;"/><polygon fill="#000000" points="320.67,382.9069,323.67,374.9069,317.67,374.9069,320.67,382.9069" style="stroke:#000000;stroke-width:1;"/><text fill="#000000" font-family="sans-serif" font-size="12" lengthAdjust="spacing" textLength="3.8145" x="316.67" y="340.3255">&#160;</text></g><!--link FNC_oRz6Qe to FNC_SXt2mM--><!--link FNC_oRz6Qe to FNC_SXt2mM--><g class="link" data-entity-1="FNC_oRz6Qe" data-entity-2="FNC_SXt2mM" data-source-line="57" data-uid="lnk27" id="link_FNC_oRz6Qe_FNC_SXt2mM"><path d="M318,427.4669 C318,449.8969 318,476.3869 318,498.9069" fill="none" id="FNC_oRz6Qe-to-FNC_SXt2mM" style="stroke:#000000;stroke-width:1;"/><polygon fill="#000000" points="318,506.9069,321,498.9069,315,498.9069,318,506.9069" style="stroke:#000000;stroke-width:1;"/><text fill="#000000" font-family="sans-serif" font-size="12" lengthAdjust="spacing" textLength="3.8145" x="314" y="464.3255">&#160;</text></g><!--link FNC_ns4pWw to FNC_tFTeOT--><!--link FNC_ns4pWw to FNC_tFTeOT--><g class="link" data-entity-1="FNC_ns4pWw" data-entity-2="FNC_tFTeOT" data-source-line="60" data-uid="lnk28" id="link_FNC_ns4pWw_FNC_tFTeOT"><path d="M711.17,303.4669 C711.17,325.8969 711.17,352.3869 711.17,374.9069" fill="none" id="FNC_ns4pWw-to-FNC_tFTeOT" style="stroke:#000000;stroke-width:1;"/><polygon fill="#000000" points="711.17,382.9069,714.17,374.9069,708.17,374.9069,711.17,382.9069" style="stroke:#000000;stroke-width:1;"/><text fill="#000000" font-family="sans-serif" font-size="12" lengthAdjust="spacing" textLength="3.8145" x="707.17" y="340.3255">&#160;</text></g><!--link FNC_tFTeOT to FNC_omV6nu--><!--link FNC_tFTeOT to FNC_omV6nu--><g class="link" data-entity-1="FNC_tFTeOT" data-entity-2="FNC_omV6nu" data-source-line="61" data-uid="lnk29" id="link_FNC_tFTeOT_FNC_omV6nu"><path d="M702.83,427.4669 C702.83,449.8969 702.83,476.3869 702.83,498.9069" fill="none" id="FNC_tFTeOT-to-FNC_omV6nu" style="stroke:#000000;stroke-width:1;"/><polygon fill="#000000" points="702.83,506.9069,705.83,498.9069,699.83,498.9069,702.83,506.9069" style="stroke:#000000;stroke-width:1;"/><text fill="#000000" font-family="sans-serif" font-size="12" lengthAdjust="spacing" textLength="3.8145" x="698.83" y="464.3255">&#160;</text></g><!--link PRC_CYgU64 to PRC_vlE_5j--><!--link SRV_GsUtNL to PRC_CYgU64--><!--link SRV_GsUtNL to PRC_CYgU64--><g class="link" data-entity-1="SRV_GsUtNL" data-entity-2="PRC_CYgU64" data-source-line="51" data-uid="lnk23" id="link_SRV_GsUtNL_PRC_CYgU64"><path d="M132.5,120.3669 C132.5,132.5369 132.5,148.68 132.5,166.0491 C132.5,174.7336 132.5,183.7246 132.5,192.6787 C132.5,197.1558 132.5,201.6236 132.5,206.0393 C132.5,206.5912 132.5,201.1424 132.5,201.6926" fill="none" id="SRV_GsUtNL-to-PRC_CYgU64" style="stroke:#000000;stroke-width:1;"/><polygon fill="#000000" points="132.5,207.6926,136.5,198.6926,132.5,202.6926,128.5,198.6926,132.5,207.6926" style="stroke:#000000;stroke-width:1;"/><text fill="#000000" font-family="sans-serif" font-size="12" lengthAdjust="spacing" textLength="3.8145" x="128.5" y="203.9555">&#160;</text></g><!--link SRV_Ij6Kl6 to PRC_vlE_5j--><g class="link" data-entity-1="SRV_Ij6Kl6" data-entity-2="PRC_vlE_5j" data-source-line="52" data-uid="lnk24" id="link_SRV_Ij6Kl6_PRC_vlE_5j"><path d="M436,120.3669 C436,169.0469 436,281.2969 436,281.2969 C436,281.2969 450.99,281.2969 466.6825,281.2969 C474.5288,281.2969 482.5506,281.2969 488.9622,281.2969 C490.5651,281.2969 492.0673,281.2969 493.441,281.2969 C493.6127,281.2969 487.7824,281.2969 487.9501,281.2969" fill="none" id="SRV_Ij6Kl6-to-PRC_vlE_5j" style="stroke:#000000;stroke-width:1;"/><polygon fill="#000000" points="493.9501,281.2969,484.9501,277.2969,488.9501,281.2969,484.9501,285.2969,493.9501,281.2969" style="stroke:#000000;stroke-width:1;"/><text fill="#000000" font-family="sans-serif" font-size="12" lengthAdjust="spacing" textLength="3.8145" x="432" y="230.7655">&#160;</text></g><!--link SRV_Qr8St8 to PRC_vlE_5j--><g class="link" data-entity-1="SRV_Qr8St8" data-entity-2="PRC_vlE_5j" data-source-line="53" data-uid="lnk25" id="link_SRV_Qr8St8_PRC_vlE_5j"><path d="M502.5,120.3669 C502.5,132.3469 502.5,148.1769 502.5,165.2364 C502.5,173.7662 502.5,182.6033 502.5,191.4203 C502.5,195.8288 502.5,200.2322 502.5,204.5897 C502.5,205.679 502.5,200.7655 502.5,201.8485" fill="none" id="SRV_Qr8St8-to-PRC_vlE_5j" style="stroke:#000000;stroke-width:1;"/><polygon fill="#000000" points="502.5,207.8485,506.5,198.8485,502.5,202.8485,498.5,198.8485,502.5,207.8485" style="stroke:#000000;stroke-width:1;"/><text fill="#000000" font-family="sans-serif" font-size="12" lengthAdjust="spacing" textLength="3.8145" x="498.5" y="197.9355">&#160;</text></g><!--SRC=[dLLjRzCm4FwUNt6hq1XIMmJQgWcDILtseWawjdOR88GYBxqb7evjRAUbJFllE2zjqjOTX4-juyVFS-Vdxhn5USZICKAt-peWAenfGWnsj465mimawgvC4-PjkN4HcycuX1WXmGYu4yQ81CPKOMYeu9vdg648GvoWqWZzxB2nUwb2s5vU-eBV2vKG7kPuYbFFosW8Zon3QuHgGaFKBJWuy4MI27wcH2efZmuFuT43g64FNYoY3CfpZpea3D-_wUuz7S90Z951FpMnK9O0Ian6NVwrd4J3Q7WRdEaRS_6n6VyjAdfFGv9TmRFavm-z3wpNZFoOwb3OwvoruIgrFra2sp0onEXdjQxK_iZiMwqgA-XyY-buZFoxeb5iEiinLGidhkHxMdBfKWdhaMvkKtbmALDNrMIy9RP8xNBe1_xNwAQtczDl53XDULwIImedloGJjlP6CrlqYRr4bIvKvWSAcTCBFq1rETqxQYmo819E62R8hKEsILQhFaHfj5jH37_thh2neXzZ-AEiSZ-h5H9jI6dqnRnD1hb0bU6QtIkXL4idSi7vrCpklqm3f_CJTXBiFVoNyqQHq2oB7X6DZF8DTyNrhlmyRQpKpzf1mtaYYneefa8_8fHhKvZarZEdr_Zfkh7U4ALGAuaTsnlCTJVLMNBRu-d2t29JfxcreAgbks3cd5aPrBfq5LlPcCsIbt3ExVlJOMI62gpzTaHxhear5bFUgV5cH_EPnwDteCl70gGI4sfVhf18SaSPDHJp7ZGnPdl5hB8hOY2rayP-JhmXig1asgcKspMjDhHQhzPmnQnirn9ouuh1kOwp2LpREubGvJautypxqZgRuSyKRNFaxDMndQgBsxK-hG9PWSwtgxvrnhBUZVyMIL58xLgfR8nalbsLJW7z0m00]--></g></svg>