<svg xmlns="http://www.w3.org/2000/svg" xmlns:xlink="http://www.w3.org/1999/xlink" contentStyleType="text/css" data-diagram-type="DESCRIPTION" height="1240.625px" preserveAspectRatio="none" style="width:3532px;height:1240px;background:#FAFAFA;" version="1.1" viewBox="0 0 3532 1240" width="3532.8125px" zoomAndPan="magnify"><title>Review Architecture Conformance -- Workflow</title><defs/><g><rect fill="#FAFAFA" height="1240.625" style="stroke:none;stroke-width:1.5625;" width="3532.8125" x="0" y="0"/><text fill="#000000" font-family="sans-serif" font-size="21.875" font-weight="bold" lengthAdjust="spacing" textLength="570.4376" x="1470.2499" y="35.9299">Review Architecture Conformance -- Workflow</text><!--cluster Motivation--><g class="cluster" data-entity="Motivation" data-source-line="23" data-uid="ent0002" id="cluster_Motivation"><rect fill="#F7EEF9" height="143.75" rx="3.125" ry="3.125" style="stroke:#7B3F9A;stroke-width:1.5625;" width="1696.875" x="1826.5625" y="650.4639"/><text fill="#000000" font-family="sans-serif" font-size="18.75" font-weight="bold" lengthAdjust="spacing" textLength="113.4247" x="2618.2877" y="670.993">Motivation</text></g><!--cluster Business--><g class="cluster" data-entity="Business" data-source-line="29" data-uid="ent0006" id="cluster_Business"><rect fill="#FFFDEC" height="143.75" rx="3.125" ry="3.125" style="stroke:#B8860B;stroke-width:1.5625;" width="556.25" x="135.9375" y="69.2139"/><text fill="#000000" font-family="sans-serif" font-size="18.75" font-weight="bold" lengthAdjust="spacing" textLength="93.6127" x="367.2562" y="89.743">Business</text></g><!--cluster Common--><g class="cluster" data-entity="Common" data-source-line="34" data-uid="ent0009" id="cluster_Common"><rect fill="#EDE8E1" height="787.5" rx="3.125" ry="3.125" style="stroke:#8C7E6A;stroke-width:1.5625;" width="1778.125" x="10.9375" y="262.9639"/><text fill="#000000" font-family="sans-serif" font-size="18.75" font-weight="bold" lengthAdjust="spacing" textLength="91.9464" x="854.0268" y="283.493">Common</text></g><!--cluster PRC_vlE--><g class="cluster" data-entity="PRC_vlE" data-source-line="37" data-uid="ent0012" id="cluster_PRC_vlE"><rect fill="#E0D8CC" height="573.4375" rx="3.125" ry="3.125" style="stroke:#8C7E6A;stroke-width:1.5625;" width="518.75" x="60.9375" y="427.0264"/><path d="M124.2624,439.7607 L139.028,439.7607 L139.028,436.7139 L149.5749,448.9014 L139.028,461.0889 L139.028,458.042 L124.2624,458.042" fill="#252327"/><text fill="#000000" font-family="sans-serif" font-size="18.75" font-weight="bold" lengthAdjust="spacing" textLength="360.26" x="162.1964" y="463.2294">Review Architecture Conformance</text></g><!--cluster Application--><g class="cluster" data-entity="Application" data-source-line="47" data-uid="ent0019" id="cluster_Application"><rect fill="#E8F8FF" height="143.75" rx="3.125" ry="3.125" style="stroke:#0078A0;stroke-width:1.5625;" width="920.3125" x="689.0625" y="1087.9639"/><text fill="#000000" font-family="sans-serif" font-size="18.75" font-weight="bold" lengthAdjust="spacing" textLength="119.5953" x="1089.4211" y="1108.493">Application</text></g><!--entity GOL_hEEWS8--><g class="entity" data-entity="GOL_hEEWS8" data-source-line="24" data-uid="ent0003" id="entity_GOL_hEEWS8"><rect fill="#EDD6F0" height="68.75" rx="3.125" ry="3.125" style="stroke:#7B3F9A;stroke-width:0.7813;" width="532.0435" x="2514.8438" y="700.4639"/><ellipse cx="2549.2188" cy="734.8389" fill="none" rx="11.25" ry="11.25" style="stroke:#252327;stroke-width:3.0469;"/><ellipse cx="2549.2188" cy="734.8389" fill="none" rx="6.7969" ry="6.7969" style="stroke:#252327;stroke-width:3.0469;"/><ellipse cx="2549.2188" cy="734.8389" fill="#252327" rx="3.0469" ry="3.0469" style="stroke:#252327;stroke-width:0.7813;"/><text fill="#000000" font-family="sans-serif" font-size="18.75" lengthAdjust="spacing" textLength="457.3334" x="2573.9288" y="749.1669">Support Product Design Evolution and Validation</text></g><!--entity GOL_W6Z8pa--><g class="entity" data-entity="GOL_W6Z8pa" data-source-line="25" data-uid="ent0004" id="entity_GOL_W6Z8pa"><rect fill="#EDD6F0" height="68.75" rx="3.125" ry="3.125" style="stroke:#7B3F9A;stroke-width:0.7813;" width="568.3258" x="1851.5625" y="700.4639"/><ellipse cx="1885.9375" cy="734.8389" fill="none" rx="11.25" ry="11.25" style="stroke:#252327;stroke-width:3.0469;"/><ellipse cx="1885.9375" cy="734.8389" fill="none" rx="6.7969" ry="6.7969" style="stroke:#252327;stroke-width:3.0469;"/><ellipse cx="1885.9375" cy="734.8389" fill="#252327" rx="3.0469" ry="3.0469" style="stroke:#252327;stroke-width:0.7813;"/><text fill="#000000" font-family="sans-serif" font-size="18.75" lengthAdjust="spacing" textLength="493.6157" x="1910.6476" y="749.1669">Support Technology Design Evolution and Validation</text></g><!--entity REQ_fLpCKU--><g class="entity" data-entity="REQ_fLpCKU" data-source-line="26" data-uid="ent0005" id="entity_REQ_fLpCKU"><rect fill="#EDD6F0" height="68.75" rx="3.125" ry="3.125" style="stroke:#7B3F9A;stroke-width:0.7813;" width="356.4087" x="3142.1875" y="700.4639"/><path d="M3168.125,725.9326 L3186.875,725.9326 L3183.125,743.7451 L3164.375,743.7451" fill="#252327"/><text fill="#000000" font-family="sans-serif" font-size="18.75" lengthAdjust="spacing" textLength="281.6986" x="3201.2726" y="749.1669">Concurrent Tool-Call Handling</text></g><!--entity ACT_Nn7Oo7--><g class="entity" data-entity="ACT_Nn7Oo7" data-source-line="30" data-uid="ent0007" id="entity_ACT_Nn7Oo7"><rect fill="#FFFAC8" height="68.75" rx="3.125" ry="3.125" style="stroke:#B8860B;stroke-width:0.7813;" width="159.1949" x="507.8125" y="119.2139"/><ellipse cx="542.1875" cy="144.2139" fill="none" rx="4.4531" ry="4.4531" style="stroke:#252327;stroke-width:3.0469;"/><path d="M540.6641,148.667 L540.6641,158.2764 L543.7109,158.2764 L543.7109,148.667" fill="#252327"/><path d="M536.75,166.5732 L534.5,164.5107 L541.0625,157.2451 L543.3125,159.3076" fill="#252327"/><path d="M541.0625,159.3076 L543.3125,157.2451 L549.875,164.5107 L547.625,166.5732" fill="#252327"/><path d="M535.1563,152.2998 L549.2188,152.2998 L549.2188,155.3467 L535.1563,155.3467" fill="#252327"/><text fill="#000000" font-family="sans-serif" font-size="18.75" lengthAdjust="spacing" textLength="84.4849" x="566.8976" y="167.9169">Architect</text></g><!--entity ACT_CUvO_l--><g class="entity" data-entity="ACT_CUvO_l" data-source-line="31" data-uid="ent0008" id="entity_ACT_CUvO_l"><rect fill="#FFFAC8" height="68.75" rx="3.125" ry="3.125" style="stroke:#B8860B;stroke-width:0.7813;" width="253.8147" x="160.9375" y="119.2139"/><ellipse cx="195.3125" cy="144.2139" fill="none" rx="4.4531" ry="4.4531" style="stroke:#252327;stroke-width:3.0469;"/><path d="M193.7891,148.667 L193.7891,158.2764 L196.8359,158.2764 L196.8359,148.667" fill="#252327"/><path d="M189.875,166.5732 L187.625,164.5107 L194.1875,157.2451 L196.4375,159.3076" fill="#252327"/><path d="M194.1875,159.3076 L196.4375,157.2451 L203,164.5107 L200.75,166.5732" fill="#252327"/><path d="M188.2813,152.2998 L202.3438,152.2998 L202.3438,155.3467 L188.2813,155.3467" fill="#252327"/><text fill="#000000" font-family="sans-serif" font-size="18.75" lengthAdjust="spacing" textLength="179.1046" x="220.0226" y="167.9169">AI Language Model</text></g><!--entity ROL_6VGCvh--><g class="entity" data-entity="ROL_6VGCvh" data-source-line="35" data-uid="ent0010" id="entity_ROL_6VGCvh"><rect fill="#E0D8CC" height="68.75" rx="3.125" ry="3.125" style="stroke:#8C7E6A;stroke-width:0.7813;" width="161.6943" x="486.7188" y="312.9639"/><path d="M509.375,336.792 L527.6563,336.792 A4.6875,4.6875 0 0 1 532.3438,341.4795 L532.3438,353.1982 A4.6875,4.6875 0 0 1 527.6563,357.8857 L509.375,357.8857" fill="#252327"/><text fill="#000000" font-family="sans-serif" font-size="18.75" lengthAdjust="spacing" textLength="86.9843" x="545.8038" y="361.6669">Reviewer</text></g><!--entity ROL_udXPfB--><g class="entity" data-entity="ROL_udXPfB" data-source-line="36" data-uid="ent0011" id="entity_ROL_udXPfB"><rect fill="#E0D8CC" height="68.75" rx="3.125" ry="3.125" style="stroke:#8C7E6A;stroke-width:0.7813;" width="154.5258" x="228.9063" y="312.9639"/><path d="M251.5625,336.792 L269.8438,336.792 A4.6875,4.6875 0 0 1 274.5313,341.4795 L274.5313,353.1982 A4.6875,4.6875 0 0 1 269.8438,357.8857 L251.5625,357.8857" fill="#252327"/><text fill="#000000" font-family="sans-serif" font-size="18.75" lengthAdjust="spacing" textLength="79.8157" x="287.9913" y="361.6669">AI Agent</text></g><!--entity SRV_EQmHDg--><g class="entity" data-entity="SRV_EQmHDg" data-source-line="42" data-uid="ent0016" id="entity_SRV_EQmHDg"><rect fill="#E0D8CC" height="68.75" rx="3.125" ry="3.125" style="stroke:#8C7E6A;stroke-width:0.7813;" width="397.2504" x="1367.1875" y="894.2139"/><path d="M1390.3125,919.4482 L1407.1875,919.4482 A6.5625,6.5625 0 0 1 1407.1875,937.7295 L1390.3125,937.7295 A6.5625,6.5625 0 0 1 1390.3125,919.4482" fill="#252327"/><text fill="#000000" font-family="sans-serif" font-size="18.75" lengthAdjust="spacing" textLength="322.5403" x="1426.2726" y="942.9169">Architecture Conformance Service</text></g><!--entity SRV_Ij6Kl6--><g class="entity" data-entity="SRV_Ij6Kl6" data-source-line="43" data-uid="ent0017" id="entity_SRV_Ij6Kl6"><rect fill="#E0D8CC" height="68.75" rx="3.125" ry="3.125" style="stroke:#8C7E6A;stroke-width:0.7813;" width="244.0094" x="617.1875" y="894.2139"/><path d="M640.3125,919.4482 L657.1875,919.4482 A6.5625,6.5625 0 0 1 657.1875,937.7295 L640.3125,937.7295 A6.5625,6.5625 0 0 1 640.3125,919.4482" fill="#252327"/><text fill="#000000" font-family="sans-serif" font-size="18.75" lengthAdjust="spacing" textLength="169.2993" x="676.2726" y="942.9169">Validation Service</text></g><!--entity SRV_Qr8St8--><g class="entity" data-entity="SRV_Qr8St8" data-source-line="44" data-uid="ent0018" id="entity_SRV_Qr8St8"><rect fill="#E0D8CC" height="68.75" rx="3.125" ry="3.125" style="stroke:#8C7E6A;stroke-width:0.7813;" width="317.0044" x="955.4688" y="894.2139"/><path d="M978.5937,919.4482 L995.4688,919.4482 A6.5625,6.5625 0 0 1 995.4688,937.7295 L978.5937,937.7295 A6.5625,6.5625 0 0 1 978.5937,919.4482" fill="#252327"/><text fill="#000000" font-family="sans-serif" font-size="18.75" lengthAdjust="spacing" textLength="242.2943" x="1014.5538" y="942.9169">Discovery &amp; Stats Service</text></g><!--entity PRC_9z9W91--><g class="entity" data-entity="PRC_9z9W91" data-source-line="38" data-uid="ent0013" id="entity_PRC_9z9W91"><rect fill="#E0D8CC" height="68.75" rx="3.125" ry="3.125" style="stroke:#8C7E6A;stroke-width:0.7813;" width="348.8922" x="124.2188" y="506.7139"/><path d="M145.9375,531.9482 L160.7031,531.9482 L160.7031,528.9014 L171.25,541.0889 L160.7031,553.2764 L160.7031,550.2295 L145.9375,550.2295" fill="#252327"/><text fill="#000000" font-family="sans-serif" font-size="18.75" lengthAdjust="spacing" textLength="274.1821" x="183.3038" y="555.4169">Extract Architecture Baseline</text></g><!--entity PRC_2LTLXq--><g class="entity" data-entity="PRC_2LTLXq" data-source-line="39" data-uid="ent0014" id="entity_PRC_2LTLXq"><rect fill="#E0D8CC" height="68.75" rx="3.125" ry="3.125" style="stroke:#8C7E6A;stroke-width:0.7813;" width="431.6376" x="98.4375" y="700.4639"/><path d="M120.1563,725.6982 L134.9219,725.6982 L134.9219,722.6514 L145.4688,734.8389 L134.9219,747.0264 L134.9219,743.9795 L120.1563,743.9795" fill="#252327"/><text fill="#000000" font-family="sans-serif" font-size="18.75" lengthAdjust="spacing" textLength="356.9275" x="157.5226" y="749.1669">Assess Implementation Against Model</text></g><!--entity PRC_YnnXpZ--><g class="entity" data-entity="PRC_YnnXpZ" data-source-line="40" data-uid="ent0015" id="entity_PRC_YnnXpZ"><rect fill="#E0D8CC" height="68.75" rx="3.125" ry="3.125" style="stroke:#8C7E6A;stroke-width:0.7813;" width="364.6942" x="132.0313" y="894.2139"/><path d="M153.75,919.4482 L168.5156,919.4482 L168.5156,916.4014 L179.0625,928.5889 L168.5156,940.7764 L168.5156,937.7295 L153.75,937.7295" fill="#252327"/><text fill="#000000" font-family="sans-serif" font-size="18.75" lengthAdjust="spacing" textLength="289.9841" x="191.1163" y="942.9169">Report Architecture Deviations</text></g><!--entity APP_ca3vm7--><g class="entity" data-entity="APP_ca3vm7" data-source-line="48" data-uid="ent0020" id="entity_APP_ca3vm7"><rect fill="#CCF2FF" height="68.75" rx="3.125" ry="3.125" style="stroke:#0078A0;stroke-width:0.7813;" width="205.3009" x="714.8438" y="1137.9639"/><path d="M739.8438,1163.4326 L757.1875,1163.4326 L757.1875,1181.2451 L739.8438,1181.2451" fill="#252327"/><path d="M735.8594,1165.1904 L739.8438,1165.1904 L739.8438,1168.2373 L735.8594,1168.2373" fill="#252327"/><path d="M735.8594,1170.8154 L739.8438,1170.8154 L739.8438,1173.8623 L735.8594,1173.8623" fill="#252327"/><path d="M735.8594,1176.4404 L739.8438,1176.4404 L739.8438,1179.4873 L735.8594,1179.4873" fill="#252327"/><path d="M757.1875,1165.1904 L760.4688,1165.1904 L760.4688,1168.2373 L757.1875,1168.2373" fill="#252327"/><path d="M757.1875,1170.8154 L760.4688,1170.8154 L760.4688,1173.8623 L757.1875,1173.8623" fill="#252327"/><path d="M757.1875,1176.4404 L760.4688,1176.4404 L760.4688,1179.4873 L757.1875,1179.4873" fill="#252327"/><text fill="#000000" font-family="sans-serif" font-size="18.75" lengthAdjust="spacing" textLength="130.5908" x="773.9288" y="1186.6669">Model Verifier</text></g><!--entity APP_v9LvfK--><g class="entity" data-entity="APP_v9LvfK" data-source-line="49" data-uid="ent0021" id="entity_APP_v9LvfK"><rect fill="#CCF2FF" height="68.75" rx="3.125" ry="3.125" style="stroke:#0078A0;stroke-width:0.7813;" width="201.9135" x="1013.2813" y="1137.9639"/><path d="M1038.2813,1163.4326 L1055.625,1163.4326 L1055.625,1181.2451 L1038.2813,1181.2451" fill="#252327"/><path d="M1034.2969,1165.1904 L1038.2813,1165.1904 L1038.2813,1168.2373 L1034.2969,1168.2373" fill="#252327"/><path d="M1034.2969,1170.8154 L1038.2813,1170.8154 L1038.2813,1173.8623 L1034.2969,1173.8623" fill="#252327"/><path d="M1034.2969,1176.4404 L1038.2813,1176.4404 L1038.2813,1179.4873 L1034.2969,1179.4873" fill="#252327"/><path d="M1055.625,1165.1904 L1058.9063,1165.1904 L1058.9063,1168.2373 L1055.625,1168.2373" fill="#252327"/><path d="M1055.625,1170.8154 L1058.9063,1170.8154 L1058.9063,1173.8623 L1055.625,1173.8623" fill="#252327"/><path d="M1055.625,1176.4404 L1058.9063,1176.4404 L1058.9063,1179.4873 L1055.625,1179.4873" fill="#252327"/><text fill="#000000" font-family="sans-serif" font-size="18.75" lengthAdjust="spacing" textLength="127.2034" x="1072.3663" y="1186.6669">Query Engine</text></g><!--entity APP_a9k_mJ--><g class="entity" data-entity="APP_a9k_mJ" data-source-line="50" data-uid="ent0022" id="entity_APP_a9k_mJ"><rect fill="#CCF2FF" height="68.75" rx="3.125" ry="3.125" style="stroke:#0078A0;stroke-width:0.7813;" width="275.5768" x="1309.375" y="1137.9639"/><path d="M1334.375,1163.4326 L1351.7188,1163.4326 L1351.7188,1181.2451 L1334.375,1181.2451" fill="#252327"/><path d="M1330.3906,1165.1904 L1334.375,1165.1904 L1334.375,1168.2373 L1330.3906,1168.2373" fill="#252327"/><path d="M1330.3906,1170.8154 L1334.375,1170.8154 L1334.375,1173.8623 L1330.3906,1173.8623" fill="#252327"/><path d="M1330.3906,1176.4404 L1334.375,1176.4404 L1334.375,1179.4873 L1330.3906,1179.4873" fill="#252327"/><path d="M1351.7188,1165.1904 L1355,1165.1904 L1355,1168.2373 L1351.7188,1168.2373" fill="#252327"/><path d="M1351.7188,1170.8154 L1355,1170.8154 L1355,1173.8623 L1351.7188,1173.8623" fill="#252327"/><path d="M1351.7188,1176.4404 L1355,1176.4404 L1355,1179.4873 L1351.7188,1179.4873" fill="#252327"/><text fill="#000000" font-family="sans-serif" font-size="18.75" lengthAdjust="spacing" textLength="200.8667" x="1368.4601" y="1186.6669">Write Request Queue</text></g><!--link GOL_hEEWS8 to GOL_W6Z8pa--><!--link GOL_W6Z8pa to REQ_fLpCKU--><!--link ACT_Nn7Oo7 to ACT_CUvO_l--><!--link ROL_6VGCvh to ROL_udXPfB--><!--link ROL_udXPfB to PRC_9z9W91--><!--link PRC_9z9W91 to PRC_2LTLXq--><!--link PRC_9z9W91 to PRC_2LTLXq--><g class="link" data-entity-1="PRC_9z9W91" data-entity-2="PRC_2LTLXq" data-source-line="77" data-uid="lnk41" id="link_PRC_9z9W91_PRC_2LTLXq"><path d="M356.5156,575.7295 C356.5156,610.7764 356.5156,655.292 356.5156,690.4795" fill="none" id="PRC_9z9W91-to-PRC_2LTLXq" style="stroke:#181818;stroke-width:1.5625;"/><polygon fill="#181818" points="356.5156,699.8545,362.7656,685.792,356.5156,692.042,350.2656,685.792,356.5156,699.8545" style="stroke:#181818;stroke-width:1.5625;"/><text fill="#000000" font-family="sans-serif" font-size="18.75" lengthAdjust="spacing" textLength="119.3573" x="236.2031" y="633.3212">&#171;Triggering&#187;</text></g><!--link PRC_2LTLXq to PRC_YnnXpZ--><!--link PRC_2LTLXq to PRC_YnnXpZ--><g class="link" data-entity-1="PRC_2LTLXq" data-entity-2="PRC_YnnXpZ" data-source-line="78" data-uid="lnk42" id="link_PRC_2LTLXq_PRC_YnnXpZ"><path d="M374.7344,769.4795 C374.7344,804.5264 374.7344,849.042 374.7344,884.2295" fill="none" id="PRC_2LTLXq-to-PRC_YnnXpZ" style="stroke:#181818;stroke-width:1.5625;"/><polygon fill="#181818" points="374.7344,893.6045,380.9844,879.542,374.7344,885.792,368.4844,879.542,374.7344,893.6045" style="stroke:#181818;stroke-width:1.5625;"/><text fill="#000000" font-family="sans-serif" font-size="18.75" lengthAdjust="spacing" textLength="119.3573" x="254.4219" y="827.0712">&#171;Triggering&#187;</text></g><!--link PRC_YnnXpZ to SRV_EQmHDg--><!--link SRV_EQmHDg to SRV_Ij6Kl6--><!--link SRV_Ij6Kl6 to SRV_Qr8St8--><!--link APP_ca3vm7 to APP_v9LvfK--><!--link APP_v9LvfK to APP_a9k_mJ--><!--link PRC_vlE to GOL_hEEWS8--><g class="link" data-entity-1="PRC_vlE" data-entity-2="GOL_hEEWS8" data-source-line="71" data-uid="lnk35" id="link_PRC_vlE_GOL_hEEWS8"><path d="M580.8137,523.9014 C583.9057,523.9014 587.4876,523.9014 591.5426,523.9014 C607.7627,523.9014 631.5521,523.9014 661.8295,523.9014 C722.3844,523.9014 808.8914,523.9014 912.6997,523.9014 C1120.3164,523.9014 1397.1387,523.9014 1673.9609,523.9014 C2227.6055,523.9014 2781.25,523.9014 2781.25,523.9014 C2781.25,523.9014 2781.25,630.7139 2781.25,690.6357" fill="none" id="PRC_vlE-to-GOL_hEEWS8" style="stroke:#181818;stroke-width:1.5625;stroke-dasharray:7.0,7.0;"/><polygon fill="#181818" points="2781.25,700.0107,2787.5,685.9482,2781.25,692.1982,2775,685.9482,2781.25,700.0107" style="stroke:#181818;stroke-width:1.5625;"/><text fill="#000000" font-family="sans-serif" font-size="18.75" lengthAdjust="spacing" textLength="109.314" x="1644.4063" y="519.4305">&#171;Influence&#187;</text></g><!--link PRC_vlE to GOL_W6Z8pa--><g class="link" data-entity-1="PRC_vlE" data-entity-2="GOL_W6Z8pa" data-source-line="72" data-uid="lnk36" id="link_PRC_vlE_GOL_W6Z8pa"><path d="M579.9302,734.8389 C580.3867,734.8389 580.8545,734.8389 581.3336,734.8389 C583.25,734.8389 585.3464,734.8389 587.6183,734.8389 C592.1621,734.8389 597.4077,734.8389 603.3181,734.8389 C626.9597,734.8389 661.2382,734.8389 703.7859,734.8389 C788.8813,734.8389 907.0537,734.8389 1039.3613,734.8389 C1303.9766,734.8389 1615.7578,734.8389 1841.9219,734.8389" fill="none" id="PRC_vlE-to-GOL_W6Z8pa" style="stroke:#181818;stroke-width:1.5625;stroke-dasharray:7.0,7.0;"/><polygon fill="#181818" points="1851.2969,734.8389,1837.2344,728.5889,1843.4844,734.8389,1837.2344,741.0889,1851.2969,734.8389" style="stroke:#181818;stroke-width:1.5625;"/><text fill="#000000" font-family="sans-serif" font-size="18.75" lengthAdjust="spacing" textLength="109.314" x="1003.0156" y="730.368">&#171;Influence&#187;</text></g><!--link ACT_Nn7Oo7 to ROL_6VGCvh--><g class="link" data-entity-1="ACT_Nn7Oo7" data-entity-2="ROL_6VGCvh" data-source-line="73" data-uid="lnk37" id="link_ACT_Nn7Oo7_ROL_6VGCvh"><path d="M577.7344,188.2295 C577.7344,223.2764 577.7344,277.167 577.7344,312.3545" fill="none" id="ACT_Nn7Oo7-ROL_6VGCvh" style="stroke:#181818;stroke-width:1.5625;"/><text fill="#000000" font-family="sans-serif" font-size="18.75" lengthAdjust="spacing" textLength="133.3374" x="443.3594" y="245.8212">&#171;Assignment&#187;</text></g><!--link ACT_CUvO_l to ROL_udXPfB--><g class="link" data-entity-1="ACT_CUvO_l" data-entity-2="ROL_udXPfB" data-source-line="74" data-uid="lnk38" id="link_ACT_CUvO_l_ROL_udXPfB"><path d="M306.25,188.2295 C306.25,223.2764 306.25,277.167 306.25,312.3545" fill="none" id="ACT_CUvO_l-ROL_udXPfB" style="stroke:#181818;stroke-width:1.5625;"/><text fill="#000000" font-family="sans-serif" font-size="18.75" lengthAdjust="spacing" textLength="133.3374" x="171.875" y="245.8212">&#171;Assignment&#187;</text></g><!--link ROL_6VGCvh to PRC_vlE--><g class="link" data-entity-1="ROL_6VGCvh" data-entity-2="PRC_vlE" data-source-line="75" data-uid="lnk39" id="link_ROL_6VGCvh_PRC_vlE"><path d="M567.7031,381.9795 C567.7031,388.7275 567.7031,396.1743 567.7031,404.0517 C567.7031,407.9903 567.7031,412.0367 567.7031,416.1571 C567.7031,418.2173 567.7031,420.2961 567.7031,422.3892 C567.7031,423.4357 567.7031,424.4858 567.7031,425.539 C567.7031,425.8023 567.7031,426.0658 567.7031,426.3295" fill="none" id="ROL_6VGCvh-PRC_vlE" style="stroke:#181818;stroke-width:1.5625;"/><text fill="#000000" font-family="sans-serif" font-size="18.75" lengthAdjust="spacing" textLength="133.3374" x="569.2656" y="456.9149">&#171;Assignment&#187;</text></g><!--link ROL_udXPfB to PRC_vlE--><g class="link" data-entity-1="ROL_udXPfB" data-entity-2="PRC_vlE" data-source-line="76" data-uid="lnk40" id="link_ROL_udXPfB_PRC_vlE"><path d="M383.8438,359.8389 C430.0156,359.8389 479.6875,359.8389 479.6875,359.8389 C479.6875,359.8389 479.6875,371.167 479.6875,388.1592 C479.6875,396.6553 479.6875,406.5674 479.6875,417.1875 C479.6875,419.8425 479.6875,422.5418 479.6875,425.2743 C479.6875,425.6158 479.6875,425.9579 479.6875,426.3005" fill="none" id="ROL_udXPfB-PRC_vlE" style="stroke:#181818;stroke-width:1.5625;"/><text fill="#000000" font-family="sans-serif" font-size="18.75" lengthAdjust="spacing" textLength="133.3374" x="481.25" y="441.3212">&#171;Assignment&#187;</text></g><!--link PRC_vlE to SRV_EQmHDg--><g class="link" data-entity-1="PRC_vlE" data-entity-2="SRV_EQmHDg" data-source-line="79" data-uid="lnk43" id="link_PRC_vlE_SRV_EQmHDg"><path d="M580.9642,541.0889 C581.9568,541.0889 583.0002,541.0889 584.0936,541.0889 C592.8405,541.0889 604.7835,541.0889 619.4576,541.0889 C648.8057,541.0889 689.0782,541.0889 736.5549,541.0889 C831.5083,541.0889 955.2783,541.0889 1078.1035,541.0889 C1323.7539,541.0889 1565.625,541.0889 1565.625,541.0889 C1565.625,541.0889 1565.625,771.2451 1565.625,866.0732" fill="none" id="PRC_vlE-to-SRV_EQmHDg" style="stroke:#181818;stroke-width:1.5625;stroke-dasharray:7.0,7.0;"/><polygon fill="none" points="1565.625,894.1982,1575,866.0732,1556.25,866.0732,1565.625,894.1982" style="stroke:#181818;stroke-width:1.5625;"/></g><!--link PRC_vlE to SRV_Ij6Kl6--><g class="link" data-entity-1="PRC_vlE" data-entity-2="SRV_Ij6Kl6" data-source-line="80" data-uid="lnk44" id="link_PRC_vlE_SRV_Ij6Kl6"><path d="M579.7471,542.6514 C579.9466,542.6514 580.1478,542.6514 580.3505,542.6514 C580.7559,542.6514 581.1677,542.6514 581.5853,542.6514 C582.4206,542.6514 583.2793,542.6514 584.1579,542.6514 C585.915,542.6514 587.7515,542.6514 589.6385,542.6514 C593.4125,542.6514 597.3882,542.6514 601.334,542.6514 C617.1172,542.6514 632.4219,542.6514 632.4219,542.6514 C632.4219,542.6514 632.4219,770.5264 632.4219,865.5264" fill="none" id="PRC_vlE-to-SRV_Ij6Kl6" style="stroke:#181818;stroke-width:1.5625;stroke-dasharray:7.0,7.0;"/><polygon fill="none" points="632.4219,893.6514,641.7969,865.5264,623.0469,865.5264,632.4219,893.6514" style="stroke:#181818;stroke-width:1.5625;"/></g><!--link PRC_vlE to SRV_Qr8St8--><g class="link" data-entity-1="PRC_vlE" data-entity-2="SRV_Qr8St8" data-source-line="81" data-uid="lnk45" id="link_PRC_vlE_SRV_Qr8St8"><path d="M579.9021,559.8389 C582.5226,559.8389 585.5347,559.8389 588.9082,559.8389 C602.4023,559.8389 621.6797,559.8389 644.8125,559.8389 C691.0781,559.8389 752.7656,559.8389 814.4531,559.8389 C937.8281,559.8389 1061.2031,559.8389 1061.2031,559.8389 C1061.2031,559.8389 1061.2031,773.9795 1061.2031,865.7764" fill="none" id="PRC_vlE-to-SRV_Qr8St8" style="stroke:#181818;stroke-width:1.5625;stroke-dasharray:7.0,7.0;"/><polygon fill="none" points="1061.2031,893.9014,1070.5781,865.7764,1051.8281,865.7764,1061.2031,893.9014" style="stroke:#181818;stroke-width:1.5625;"/></g><!--reverse link REQ_fLpCKU to SRV_EQmHDg--><g class="link" data-entity-1="REQ_fLpCKU" data-entity-2="SRV_EQmHDg" data-source-line="82" data-uid="lnk47" id="link_REQ_fLpCKU_SRV_EQmHDg"><path d="M3284.6875,797.6045 C3284.6875,853.3389 3284.6875,928.5889 3284.6875,928.5889 C3284.6875,928.5889 2216.3438,928.5889 1764.0781,928.5889" fill="none" id="REQ_fLpCKU-backto-SRV_EQmHDg" style="stroke:#181818;stroke-width:1.5625;stroke-dasharray:7.0,7.0;"/><polygon fill="none" points="3284.6875,769.4795,3275.3125,797.6045,3294.0625,797.6045,3284.6875,769.4795" style="stroke:#181818;stroke-width:1.5625;"/></g><!--reverse link REQ_fLpCKU to SRV_Qr8St8--><g class="link" data-entity-1="REQ_fLpCKU" data-entity-2="SRV_Qr8St8" data-source-line="83" data-uid="lnk49" id="link_REQ_fLpCKU_SRV_Qr8St8"><path d="M3213.4375,797.9482 C3213.4375,832.9795 3213.4375,853.5889 3213.4375,853.5889 C3213.4375,853.5889 1166.9219,853.5889 1166.9219,853.5889 C1166.9219,853.5889 1166.9219,874.4482 1166.9219,894.167" fill="none" id="REQ_fLpCKU-backto-SRV_Qr8St8" style="stroke:#181818;stroke-width:1.5625;stroke-dasharray:7.0,7.0;"/><polygon fill="none" points="3213.4375,769.8232,3204.0625,797.9482,3222.8125,797.9482,3213.4375,769.8232" style="stroke:#181818;stroke-width:1.5625;"/></g><!--link SRV_Ij6Kl6 to APP_ca3vm7--><g class="link" data-entity-1="SRV_Ij6Kl6" data-entity-2="APP_ca3vm7" data-source-line="84" data-uid="lnk50" id="link_SRV_Ij6Kl6_APP_ca3vm7"><path d="M763.5469,962.9951 C763.5469,1009.3232 763.5469,1063.1514 763.5469,1109.5889" fill="none" id="SRV_Ij6Kl6-to-APP_ca3vm7" style="stroke:#181818;stroke-width:1.5625;stroke-dasharray:7.0,7.0;"/><polygon fill="none" points="763.5469,1137.7139,772.9219,1109.5889,754.1719,1109.5889,763.5469,1137.7139" style="stroke:#181818;stroke-width:1.5625;"/></g><!--link SRV_Qr8St8 to APP_v9LvfK--><g class="link" data-entity-1="SRV_Qr8St8" data-entity-2="APP_v9LvfK" data-source-line="85" data-uid="lnk51" id="link_SRV_Qr8St8_APP_v9LvfK"><path d="M1114.0625,962.9951 C1114.0625,1009.3232 1114.0625,1063.1514 1114.0625,1109.5889" fill="none" id="SRV_Qr8St8-to-APP_v9LvfK" style="stroke:#181818;stroke-width:1.5625;stroke-dasharray:7.0,7.0;"/><polygon fill="none" points="1114.0625,1137.7139,1123.4375,1109.5889,1104.6875,1109.5889,1114.0625,1137.7139" style="stroke:#181818;stroke-width:1.5625;"/></g><!--reverse link REQ_fLpCKU to APP_a9k_mJ--><g class="link" data-entity-1="REQ_fLpCKU" data-entity-2="APP_a9k_mJ" data-source-line="86" data-uid="lnk53" id="link_REQ_fLpCKU_APP_a9k_mJ"><path d="M3355.9375,798.0264 C3355.9375,901.8389 3355.9375,1172.3389 3355.9375,1172.3389 C3355.9375,1172.3389 2023.4531,1172.3389 1584.9375,1172.3389" fill="none" id="REQ_fLpCKU-backto-APP_a9k_mJ" style="stroke:#181818;stroke-width:1.5625;stroke-dasharray:7.0,7.0;"/><polygon fill="none" points="3355.9375,769.9014,3346.5625,798.0264,3365.3125,798.0264,3355.9375,769.9014" style="stroke:#181818;stroke-width:1.5625;"/></g><!--SRC=[fLPHRzis47xNhxWLm_OahzdG92uo0uvZf5dSnR7TEEqm29n4ormeKYKffMcN_pvIOapQaequVJkHtzr7tdrtbBmZB4S2PPJ7TpY192TmyEPry0DXCIqI39tEBn4IyP9aIE5GAYmmLmyvbfsyo6WGA9w3ul0FLufda121OqKuqnj4KGmJN19y3tqJGUcjGc0OSBRW8aCinX26CEVYRa7vVH0ONyHIxVRgFLUaH2RIApWvSL_dWXSvOMcl1zy20C_ZvCVLCQDpZkWt6IEAVp_el7dimRJ8SouKZ0LFYbZ16POaPJ0iEIrCM40iWHj4IRBYD34q2v9mVZMAbiFXV7hy0iOPZfUCKvu-x4ywF_nqdAFjf1FykT09pp1JQzmwmN4XX5w66USq721AuPrcepfpXiPphDacm-jeCSe7bn-2nxKwd1QIC2obyNgodrU39tG_Lboi7Myb1Zze1QiFqn_CeZ_PqHK_Ub7q2nXfXmAb6Dxp1DCTB8CFvLL4Dwuyu5bMLwEsddVT2QTuxHoryh6eygqtRQ9rMGzlpWVbSezG-ahzLDUg6Qf8RiUBq-sXjDvZVUsMWsrjIKDYtMgUyMGGbNHONNulek4N9P1kjZMcKoInbc4xJVThTzuzs9UdBwLUWeiifvMagsxI6KE4IUKqq63xTJGRtNxUbss2gxvUkzIPJcd5Abk9FZ9sct_IH8_RApN5eYGnRc-KpQbfmORCcZNPT78J3Q-pTsVfVaHk2EqCVV7luIKzt2_q6P4nBx5uW9zWgaiZTp9SY-EfEjveo7wUKnAlPgJt-RpMz1nqH-USRSxBIY9mWmLPaBfXsrpis1YFenZzLcP7tq5uNPY435bg6s4tNTaTbOlBxw2R2wqYC4CVwuRGvCKpM57tBih-CANuMR_I8VGBnKEA7dYXteBC1KO9uBhX9DmJjIGCKbiFQJm2zsv2-DUI90bcVmkIBbNelsxERA2yLycz2GsKDyZTT6t6SjFIcGsKDuISsOgomyEPhIZR-SvieBoMTMOhodQVCrjHjeESJ9lvSf9oPYlAIk3b2WY2fyUZq-bv_r7mLillWYreWPbf_mRC2c8JvgiWuVSizDxJ2goV0lsBLV_N14uOFjfMle7sjHEk7hrMs9DuTi1yzOGzJp4LTAQJdEfnOoRNceGir6gb5LgdwR-Uhvp6kjLAOzsgmrDQfyZDfjTg3hTbqwglOt9gjhsHwFlwsvxUQb6rXFuV]--></g></svg>