<svg xmlns="http://www.w3.org/2000/svg" xmlns:xlink="http://www.w3.org/1999/xlink" contentStyleType="text/css" data-diagram-type="DESCRIPTION" height="774px" preserveAspectRatio="none" style="width:3017px;height:774px;background:#FAFAFA;" version="1.1" viewBox="0 0 3017 774" width="3017px" zoomAndPan="magnify"><title>Service Landscape</title><defs/><g><rect fill="#FAFAFA" height="774" style="stroke:none;stroke-width:1;" width="3017" x="0" y="0"/><text fill="#000000" font-family="sans-serif" font-size="14" font-weight="bold" lengthAdjust="spacing" textLength="147.0273" x="1427.9863" y="22.9951">Service Landscape</text><!--cluster GRP_ROLES--><g class="cluster" data-entity="GRP_ROLES" data-source-line="7" data-uid="ent0002" id="cluster_GRP_ROLES"><rect fill="#EDE8E1" height="108" rx="2" ry="2" style="stroke:#8C7E6A;stroke-width:1;" width="510" x="744" y="372.2969"/><text fill="#000000" font-family="sans-serif" font-size="12" font-weight="bold" lengthAdjust="spacing" textLength="116.0859" x="940.957" y="385.4355">Consuming Roles</text></g><!--cluster GRP_AUTH--><g class="cluster" data-entity="GRP_AUTH" data-source-line="15" data-uid="ent0008" id="cluster_GRP_AUTH"><rect fill="#EDE8E1" height="436" rx="2" ry="2" style="stroke:#8C7E6A;stroke-width:1;" width="313" x="7" y="44.2969"/><text fill="#000000" font-family="sans-serif" font-size="12" font-weight="bold" lengthAdjust="spacing" textLength="128.7246" x="99.1377" y="57.4355">Authoring Services</text></g><!--cluster GRP_VER--><g class="cluster" data-entity="GRP_VER" data-source-line="23" data-uid="ent0014" id="cluster_GRP_VER"><rect fill="#EDE8E1" height="436" rx="2" ry="2" style="stroke:#8C7E6A;stroke-width:1;" width="322" x="2281" y="44.2969"/><text fill="#000000" font-family="sans-serif" font-size="12" font-weight="bold" lengthAdjust="spacing" textLength="139.8457" x="2372.0771" y="57.4355">Verification Services</text></g><!--cluster GRP_PLAT--><g class="cluster" data-entity="GRP_PLAT" data-source-line="31" data-uid="ent0020" id="cluster_GRP_PLAT"><rect fill="#EDE8E1" height="436" rx="2" ry="2" style="stroke:#8C7E6A;stroke-width:1;" width="358" x="2653" y="44.2969"/><text fill="#000000" font-family="sans-serif" font-size="12" font-weight="bold" lengthAdjust="spacing" textLength="119.8359" x="2772.082" y="57.4355">Platform Services</text></g><!--cluster GRP_PRC--><g class="cluster" data-entity="GRP_PRC" data-source-line="42" data-uid="ent0028" id="cluster_GRP_PRC"><rect fill="#EDE8E1" height="108" rx="2" ry="2" style="stroke:#8C7E6A;stroke-width:1;" width="839" x="950" y="168.2969"/><text fill="#000000" font-family="sans-serif" font-size="12" font-weight="bold" lengthAdjust="spacing" textLength="133.8867" x="1302.5566" y="181.4355">Realizing Processes</text></g><!--cluster GRP_CMP--><g class="cluster" data-entity="GRP_CMP" data-source-line="50" data-uid="ent0034" id="cluster_GRP_CMP"><rect fill="#EDE8E1" height="452" rx="2" ry="2" style="stroke:#8C7E6A;stroke-width:1;" width="613" x="1628" y="316.2969"/><text fill="#000000" font-family="sans-serif" font-size="12" font-weight="bold" lengthAdjust="spacing" textLength="150.6035" x="1859.1982" y="329.4355">Realizing Components</text></g><!--cluster GRP_CMP_A--><g class="cluster" data-entity="GRP_CMP_A" data-source-line="51" data-uid="ent0035" id="cluster_GRP_CMP_A"><rect fill="#EDE8E1" height="356" rx="2" ry="2" style="stroke:#8C7E6A;stroke-width:1;" width="250" x="1689" y="372.2969"/><text fill="#000000" font-family="sans-serif" font-size="12" font-weight="bold" lengthAdjust="spacing" textLength="164.9766" x="1731.5117" y="385.4355">Authoring &amp; Verification</text></g><!--cluster GRP_CMP_B--><g class="cluster" data-entity="GRP_CMP_B" data-source-line="58" data-uid="ent0041" id="cluster_GRP_CMP_B"><rect fill="#EDE8E1" height="356" rx="2" ry="2" style="stroke:#8C7E6A;stroke-width:1;" width="222" x="1979" y="372.2969"/><text fill="#000000" font-family="sans-serif" font-size="12" font-weight="bold" lengthAdjust="spacing" textLength="129.7852" x="2025.1074" y="385.4355">Query &amp; Promotion</text></g><!--entity ROL_deMuTj--><g class="entity" data-entity="ROL_deMuTj" data-source-line="8" data-uid="ent0003" id="entity_ROL_deMuTj"><rect fill="#E0D8CC" height="44" rx="2" ry="2" style="stroke:#8C7E6A;stroke-width:0.5;" width="88.2148" x="982" y="412.2969"/><path d="M996.5,427.5469 L1008.2,427.5469 A3,3 0 0 1 1011.2,430.5469 L1011.2,438.0469 A3,3 0 0 1 1008.2,441.0469 L996.5,441.0469" fill="#252327"/><text fill="#000000" font-family="sans-serif" font-size="12" lengthAdjust="spacing" textLength="3.8145" x="1016" y="443.4668">&#160;</text><text fill="#000000" font-family="sans-serif" font-size="12" lengthAdjust="spacing" textLength="40.4004" x="1019.8145" y="443.4668">Author</text></g><!--entity ROL_udXPfB--><g class="entity" data-entity="ROL_udXPfB" data-source-line="9" data-uid="ent0004" id="entity_ROL_udXPfB"><rect fill="#E0D8CC" height="44" rx="2" ry="2" style="stroke:#8C7E6A;stroke-width:0.5;" width="98.8965" x="1130.5" y="412.2969"/><path d="M1145,427.5469 L1156.7,427.5469 A3,3 0 0 1 1159.7,430.5469 L1159.7,438.0469 A3,3 0 0 1 1156.7,441.0469 L1145,441.0469" fill="#252327"/><text fill="#000000" font-family="sans-serif" font-size="12" lengthAdjust="spacing" textLength="3.8145" x="1164.5" y="443.4668">&#160;</text><text fill="#000000" font-family="sans-serif" font-size="12" lengthAdjust="spacing" textLength="11.748" x="1168.3145" y="443.4668">AI</text><text fill="#000000" font-family="sans-serif" font-size="12" lengthAdjust="spacing" textLength="3.8145" x="1180.0625" y="443.4668">&#160;</text><text fill="#000000" font-family="sans-serif" font-size="12" lengthAdjust="spacing" textLength="35.5195" x="1183.877" y="443.4668">Agent</text></g><!--entity ROL_lM1u7O--><g class="entity" data-entity="ROL_lM1u7O" data-source-line="10" data-uid="ent0005" id="entity_ROL_lM1u7O"><rect fill="#E0D8CC" height="44" rx="2" ry="2" style="stroke:#8C7E6A;stroke-width:0.5;" width="109.5313" x="812" y="412.2969"/><path d="M826.5,427.5469 L838.2,427.5469 A3,3 0 0 1 841.2,430.5469 L841.2,438.0469 A3,3 0 0 1 838.2,441.0469 L826.5,441.0469" fill="#252327"/><text fill="#000000" font-family="sans-serif" font-size="12" lengthAdjust="spacing" textLength="3.8145" x="846" y="443.4668">&#160;</text><text fill="#000000" font-family="sans-serif" font-size="12" lengthAdjust="spacing" textLength="61.7168" x="849.8145" y="443.4668">Developer</text></g><!--entity SRV_Au1Th1--><g class="entity" data-entity="SRV_Au1Th1" data-source-line="16" data-uid="ent0009" id="entity_SRV_Au1Th1"><rect fill="#E0D8CC" height="44" rx="2" ry="2" style="stroke:#8C7E6A;stroke-width:0.5;" width="154.9355" x="96.5" y="84.2969"/><path d="M111.3,100.4469 L122.1,100.4469 A4.2,4.2 0 0 1 122.1,112.1469 L111.3,112.1469 A4.2,4.2 0 0 1 111.3,100.4469" fill="#252327"/><text fill="#000000" font-family="sans-serif" font-size="12" lengthAdjust="spacing" textLength="3.8145" x="130.5" y="115.4668">&#160;</text><text fill="#000000" font-family="sans-serif" font-size="12" lengthAdjust="spacing" textLength="58.957" x="134.3145" y="115.4668">Authoring</text><text fill="#000000" font-family="sans-serif" font-size="12" lengthAdjust="spacing" textLength="3.8145" x="193.2715" y="115.4668">&#160;</text><text fill="#000000" font-family="sans-serif" font-size="12" lengthAdjust="spacing" textLength="44.3496" x="197.0859" y="115.4668">Service</text></g><!--entity SRV_GsUtNL--><g class="entity" data-entity="SRV_GsUtNL" data-source-line="17" data-uid="ent0010" id="entity_SRV_GsUtNL"><rect fill="#E0D8CC" height="44" rx="2" ry="2" style="stroke:#8C7E6A;stroke-width:0.5;" width="194.7793" x="30.5" y="208.2969"/><path d="M45.3,224.4469 L56.1,224.4469 A4.2,4.2 0 0 1 56.1,236.1469 L45.3,236.1469 A4.2,4.2 0 0 1 45.3,224.4469" fill="#252327"/><text fill="#000000" font-family="sans-serif" font-size="12" lengthAdjust="spacing" textLength="3.8145" x="64.5" y="239.4668">&#160;</text><text fill="#000000" font-family="sans-serif" font-size="12" lengthAdjust="spacing" textLength="36.0293" x="68.3145" y="239.4668">Model</text><text fill="#000000" font-family="sans-serif" font-size="12" lengthAdjust="spacing" textLength="3.8145" x="104.3438" y="239.4668">&#160;</text><text fill="#000000" font-family="sans-serif" font-size="12" lengthAdjust="spacing" textLength="58.957" x="108.1582" y="239.4668">Authoring</text><text fill="#000000" font-family="sans-serif" font-size="12" lengthAdjust="spacing" textLength="3.8145" x="167.1152" y="239.4668">&#160;</text><text fill="#000000" font-family="sans-serif" font-size="12" lengthAdjust="spacing" textLength="44.3496" x="170.9297" y="239.4668">Service</text></g><!--entity SRV_AIGnSY--><g class="entity" data-entity="SRV_AIGnSY" data-source-line="18" data-uid="ent0011" id="entity_SRV_AIGnSY"><rect fill="#E0D8CC" height="44" rx="2" ry="2" style="stroke:#8C7E6A;stroke-width:0.5;" width="210.2715" x="78" y="412.2969"/><path d="M92.8,428.4469 L103.6,428.4469 A4.2,4.2 0 0 1 103.6,440.1469 L92.8,440.1469 A4.2,4.2 0 0 1 92.8,428.4469" fill="#252327"/><text fill="#000000" font-family="sans-serif" font-size="12" lengthAdjust="spacing" textLength="3.8145" x="112" y="443.4668">&#160;</text><text fill="#000000" font-family="sans-serif" font-size="12" lengthAdjust="spacing" textLength="51.5215" x="115.8145" y="443.4668">Diagram</text><text fill="#000000" font-family="sans-serif" font-size="12" lengthAdjust="spacing" textLength="3.8145" x="167.3359" y="443.4668">&#160;</text><text fill="#000000" font-family="sans-serif" font-size="12" lengthAdjust="spacing" textLength="58.957" x="171.1504" y="443.4668">Authoring</text><text fill="#000000" font-family="sans-serif" font-size="12" lengthAdjust="spacing" textLength="3.8145" x="230.1074" y="443.4668">&#160;</text><text fill="#000000" font-family="sans-serif" font-size="12" lengthAdjust="spacing" textLength="44.3496" x="233.9219" y="443.4668">Service</text></g><!--entity SRV_Ij6Kl6--><g class="entity" data-entity="SRV_Ij6Kl6" data-source-line="24" data-uid="ent0015" id="entity_SRV_Ij6Kl6"><rect fill="#E0D8CC" height="44" rx="2" ry="2" style="stroke:#8C7E6A;stroke-width:0.5;" width="164.334" x="2349" y="84.2969"/><path d="M2363.8,100.4469 L2374.6,100.4469 A4.2,4.2 0 0 1 2374.6,112.1469 L2363.8,112.1469 A4.2,4.2 0 0 1 2363.8,100.4469" fill="#252327"/><text fill="#000000" font-family="sans-serif" font-size="12" lengthAdjust="spacing" textLength="3.8145" x="2383" y="115.4668">&#160;</text><text fill="#000000" font-family="sans-serif" font-size="12" lengthAdjust="spacing" textLength="68.3555" x="2386.8145" y="115.4668">Verification</text><text fill="#000000" font-family="sans-serif" font-size="12" lengthAdjust="spacing" textLength="3.8145" x="2455.1699" y="115.4668">&#160;</text><text fill="#000000" font-family="sans-serif" font-size="12" lengthAdjust="spacing" textLength="44.3496" x="2458.9844" y="115.4668">Service</text></g><!--entity SRV_J8ekRD--><g class="entity" data-entity="SRV_J8ekRD" data-source-line="25" data-uid="ent0016" id="entity_SRV_J8ekRD"><rect fill="#E0D8CC" height="44" rx="2" ry="2" style="stroke:#8C7E6A;stroke-width:0.5;" width="204.1777" x="2313" y="208.2969"/><path d="M2327.8,224.4469 L2338.6,224.4469 A4.2,4.2 0 0 1 2338.6,236.1469 L2327.8,236.1469 A4.2,4.2 0 0 1 2327.8,224.4469" fill="#252327"/><text fill="#000000" font-family="sans-serif" font-size="12" lengthAdjust="spacing" textLength="3.8145" x="2347" y="239.4668">&#160;</text><text fill="#000000" font-family="sans-serif" font-size="12" lengthAdjust="spacing" textLength="36.0293" x="2350.8145" y="239.4668">Model</text><text fill="#000000" font-family="sans-serif" font-size="12" lengthAdjust="spacing" textLength="3.8145" x="2386.8438" y="239.4668">&#160;</text><text fill="#000000" font-family="sans-serif" font-size="12" lengthAdjust="spacing" textLength="68.3555" x="2390.6582" y="239.4668">Verification</text><text fill="#000000" font-family="sans-serif" font-size="12" lengthAdjust="spacing" textLength="3.8145" x="2459.0137" y="239.4668">&#160;</text><text fill="#000000" font-family="sans-serif" font-size="12" lengthAdjust="spacing" textLength="44.3496" x="2462.8281" y="239.4668">Service</text></g><!--entity SRV_vQKsM9--><g class="entity" data-entity="SRV_vQKsM9" data-source-line="26" data-uid="ent0017" id="entity_SRV_vQKsM9"><rect fill="#E0D8CC" height="44" rx="2" ry="2" style="stroke:#8C7E6A;stroke-width:0.5;" width="219.6699" x="2336" y="412.2969"/><path d="M2350.8,428.4469 L2361.6,428.4469 A4.2,4.2 0 0 1 2361.6,440.1469 L2350.8,440.1469 A4.2,4.2 0 0 1 2350.8,428.4469" fill="#252327"/><text fill="#000000" font-family="sans-serif" font-size="12" lengthAdjust="spacing" textLength="3.8145" x="2370" y="443.4668">&#160;</text><text fill="#000000" font-family="sans-serif" font-size="12" lengthAdjust="spacing" textLength="51.5215" x="2373.8145" y="443.4668">Diagram</text><text fill="#000000" font-family="sans-serif" font-size="12" lengthAdjust="spacing" textLength="3.8145" x="2425.3359" y="443.4668">&#160;</text><text fill="#000000" font-family="sans-serif" font-size="12" lengthAdjust="spacing" textLength="68.3555" x="2429.1504" y="443.4668">Verification</text><text fill="#000000" font-family="sans-serif" font-size="12" lengthAdjust="spacing" textLength="3.8145" x="2497.5059" y="443.4668">&#160;</text><text fill="#000000" font-family="sans-serif" font-size="12" lengthAdjust="spacing" textLength="44.3496" x="2501.3203" y="443.4668">Service</text></g><!--entity SRV_Qr8St8--><g class="entity" data-entity="SRV_Qr8St8" data-source-line="32" data-uid="ent0021" id="entity_SRV_Qr8St8"><rect fill="#E0D8CC" height="44" rx="2" ry="2" style="stroke:#8C7E6A;stroke-width:0.5;" width="265.5371" x="2721" y="84.2969"/><path d="M2735.8,100.4469 L2746.6,100.4469 A4.2,4.2 0 0 1 2746.6,112.1469 L2735.8,112.1469 A4.2,4.2 0 0 1 2735.8,100.4469" fill="#252327"/><text fill="#000000" font-family="sans-serif" font-size="12" lengthAdjust="spacing" textLength="3.8145" x="2755" y="115.4668">&#160;</text><text fill="#000000" font-family="sans-serif" font-size="12" lengthAdjust="spacing" textLength="63.0996" x="2758.8145" y="115.4668">Discovery,</text><text fill="#000000" font-family="sans-serif" font-size="12" lengthAdjust="spacing" textLength="3.8145" x="2821.9141" y="115.4668">&#160;</text><text fill="#000000" font-family="sans-serif" font-size="12" lengthAdjust="spacing" textLength="55.0254" x="2825.7285" y="115.4668">Querying</text><text fill="#000000" font-family="sans-serif" font-size="12" lengthAdjust="spacing" textLength="3.8145" x="2880.7539" y="115.4668">&#160;</text><text fill="#000000" font-family="sans-serif" font-size="12" lengthAdjust="spacing" textLength="9.3574" x="2884.5684" y="115.4668">&amp;</text><text fill="#000000" font-family="sans-serif" font-size="12" lengthAdjust="spacing" textLength="3.8145" x="2893.9258" y="115.4668">&#160;</text><text fill="#000000" font-family="sans-serif" font-size="12" lengthAdjust="spacing" textLength="30.6328" x="2897.7402" y="115.4668">Stats</text><text fill="#000000" font-family="sans-serif" font-size="12" lengthAdjust="spacing" textLength="3.8145" x="2928.373" y="115.4668">&#160;</text><text fill="#000000" font-family="sans-serif" font-size="12" lengthAdjust="spacing" textLength="44.3496" x="2932.1875" y="115.4668">Service</text></g><!--entity SRV_Uv9Wx9--><g class="entity" data-entity="SRV_Uv9Wx9" data-source-line="33" data-uid="ent0022" id="entity_SRV_Uv9Wx9"><rect fill="#E0D8CC" height="44" rx="2" ry="2" style="stroke:#8C7E6A;stroke-width:0.5;" width="225.6699" x="2761" y="208.2969"/><path d="M2775.8,224.4469 L2786.6,224.4469 A4.2,4.2 0 0 1 2786.6,236.1469 L2775.8,236.1469 A4.2,4.2 0 0 1 2775.8,224.4469" fill="#252327"/><text fill="#000000" font-family="sans-serif" font-size="12" lengthAdjust="spacing" textLength="3.8145" x="2795" y="239.4668">&#160;</text><text fill="#000000" font-family="sans-serif" font-size="12" lengthAdjust="spacing" textLength="64.3477" x="2798.8145" y="239.4668">Repository</text><text fill="#000000" font-family="sans-serif" font-size="12" lengthAdjust="spacing" textLength="3.8145" x="2863.1621" y="239.4668">&#160;</text><text fill="#000000" font-family="sans-serif" font-size="12" lengthAdjust="spacing" textLength="61.5293" x="2866.9766" y="239.4668">Promotion</text><text fill="#000000" font-family="sans-serif" font-size="12" lengthAdjust="spacing" textLength="3.8145" x="2928.5059" y="239.4668">&#160;</text><text fill="#000000" font-family="sans-serif" font-size="12" lengthAdjust="spacing" textLength="44.3496" x="2932.3203" y="239.4668">Service</text></g><!--entity SRV_e5MCiF--><g class="entity" data-entity="SRV_e5MCiF" data-source-line="34" data-uid="ent0023" id="entity_SRV_e5MCiF"><rect fill="#E0D8CC" height="44" rx="2" ry="2" style="stroke:#8C7E6A;stroke-width:0.5;" width="177.3594" x="2761.5" y="412.2969"/><path d="M2776.3,428.4469 L2787.1,428.4469 A4.2,4.2 0 0 1 2787.1,440.1469 L2776.3,440.1469 A4.2,4.2 0 0 1 2776.3,428.4469" fill="#252327"/><text fill="#000000" font-family="sans-serif" font-size="12" lengthAdjust="spacing" textLength="3.8145" x="2795.5" y="443.4668">&#160;</text><text fill="#000000" font-family="sans-serif" font-size="12" lengthAdjust="spacing" textLength="81.3809" x="2799.3145" y="443.4668">Configuration</text><text fill="#000000" font-family="sans-serif" font-size="12" lengthAdjust="spacing" textLength="3.8145" x="2880.6953" y="443.4668">&#160;</text><text fill="#000000" font-family="sans-serif" font-size="12" lengthAdjust="spacing" textLength="44.3496" x="2884.5098" y="443.4668">Service</text></g><!--entity PRC_U4aAdh--><g class="entity" data-entity="PRC_U4aAdh" data-source-line="43" data-uid="ent0029" id="entity_PRC_U4aAdh"><rect fill="#E0D8CC" height="44" rx="2" ry="2" style="stroke:#8C7E6A;stroke-width:0.5;" width="252.2188" x="1018" y="208.2969"/><path d="M1031.9,224.4469 L1041.35,224.4469 L1041.35,222.4969 L1048.1,230.2969 L1041.35,238.0969 L1041.35,236.1469 L1031.9,236.1469" fill="#252327"/><text fill="#000000" font-family="sans-serif" font-size="12" lengthAdjust="spacing" textLength="3.8145" x="1052" y="239.4668">&#160;</text><text fill="#000000" font-family="sans-serif" font-size="12" lengthAdjust="spacing" textLength="73.9922" x="1055.8145" y="239.4668">Architecture</text><text fill="#000000" font-family="sans-serif" font-size="12" lengthAdjust="spacing" textLength="3.8145" x="1129.8066" y="239.4668">&#160;</text><text fill="#000000" font-family="sans-serif" font-size="12" lengthAdjust="spacing" textLength="57.9199" x="1133.6211" y="239.4668">Modelling</text><text fill="#000000" font-family="sans-serif" font-size="12" lengthAdjust="spacing" textLength="3.8145" x="1191.541" y="239.4668">&#160;</text><text fill="#000000" font-family="sans-serif" font-size="12" lengthAdjust="spacing" textLength="9.3574" x="1195.3555" y="239.4668">&amp;</text><text fill="#000000" font-family="sans-serif" font-size="12" lengthAdjust="spacing" textLength="3.8145" x="1204.7129" y="239.4668">&#160;</text><text fill="#000000" font-family="sans-serif" font-size="12" lengthAdjust="spacing" textLength="51.6914" x="1208.5273" y="239.4668">Planning</text></g><!--entity PRC_GHVpDA--><g class="entity" data-entity="PRC_GHVpDA" data-source-line="44" data-uid="ent0030" id="entity_PRC_GHVpDA"><rect fill="#E0D8CC" height="44" rx="2" ry="2" style="stroke:#8C7E6A;stroke-width:0.5;" width="220.9063" x="1330.5" y="208.2969"/><path d="M1344.4,224.4469 L1353.85,224.4469 L1353.85,222.4969 L1360.6,230.2969 L1353.85,238.0969 L1353.85,236.1469 L1344.4,236.1469" fill="#252327"/><text fill="#000000" font-family="sans-serif" font-size="12" lengthAdjust="spacing" textLength="3.8145" x="1364.5" y="239.4668">&#160;</text><text fill="#000000" font-family="sans-serif" font-size="12" lengthAdjust="spacing" textLength="73.9922" x="1368.3145" y="239.4668">Architecture</text><text fill="#000000" font-family="sans-serif" font-size="12" lengthAdjust="spacing" textLength="3.8145" x="1442.3066" y="239.4668">&#160;</text><text fill="#000000" font-family="sans-serif" font-size="12" lengthAdjust="spacing" textLength="95.2852" x="1446.1211" y="239.4668">Implementation</text></g><!--entity PRC_0Rz5Ex--><g class="entity" data-entity="PRC_0Rz5Ex" data-source-line="45" data-uid="ent0031" id="entity_PRC_0Rz5Ex"><rect fill="#E0D8CC" height="44" rx="2" ry="2" style="stroke:#8C7E6A;stroke-width:0.5;" width="152.5742" x="1611.5" y="208.2969"/><path d="M1625.4,224.4469 L1634.85,224.4469 L1634.85,222.4969 L1641.6,230.2969 L1634.85,238.0969 L1634.85,236.1469 L1625.4,236.1469" fill="#252327"/><text fill="#000000" font-family="sans-serif" font-size="12" lengthAdjust="spacing" textLength="3.8145" x="1645.5" y="239.4668">&#160;</text><text fill="#000000" font-family="sans-serif" font-size="12" lengthAdjust="spacing" textLength="50.6309" x="1649.3145" y="239.4668">Promote</text><text fill="#000000" font-family="sans-serif" font-size="12" lengthAdjust="spacing" textLength="3.8145" x="1699.9453" y="239.4668">&#160;</text><text fill="#000000" font-family="sans-serif" font-size="12" lengthAdjust="spacing" textLength="50.3145" x="1703.7598" y="239.4668">Artifacts</text></g><!--entity APP_kRZYOA--><g class="entity" data-entity="APP_kRZYOA" data-source-line="52" data-uid="ent0036" id="entity_APP_kRZYOA"><rect fill="#CCF2FF" height="44" rx="2" ry="2" style="stroke:#0078A0;stroke-width:0.5;" width="156.793" x="1757.5" y="412.2969"/><path d="M1773.5,428.5969 L1784.6,428.5969 L1784.6,439.9969 L1773.5,439.9969" fill="#252327"/><path d="M1770.95,429.7219 L1773.5,429.7219 L1773.5,431.6719 L1770.95,431.6719" fill="#252327"/><path d="M1770.95,433.3219 L1773.5,433.3219 L1773.5,435.2719 L1770.95,435.2719" fill="#252327"/><path d="M1770.95,436.9219 L1773.5,436.9219 L1773.5,438.8719 L1770.95,438.8719" fill="#252327"/><path d="M1784.6,429.7219 L1786.7,429.7219 L1786.7,431.6719 L1784.6,431.6719" fill="#252327"/><path d="M1784.6,433.3219 L1786.7,433.3219 L1786.7,435.2719 L1784.6,435.2719" fill="#252327"/><path d="M1784.6,436.9219 L1786.7,436.9219 L1786.7,438.8719 L1784.6,438.8719" fill="#252327"/><text fill="#000000" font-family="sans-serif" font-size="12" lengthAdjust="spacing" textLength="3.8145" x="1791.5" y="443.4668">&#160;</text><text fill="#000000" font-family="sans-serif" font-size="12" lengthAdjust="spacing" textLength="25.9688" x="1795.3145" y="443.4668">MCP</text><text fill="#000000" font-family="sans-serif" font-size="12" lengthAdjust="spacing" textLength="3.8145" x="1821.2832" y="443.4668">&#160;</text><text fill="#000000" font-family="sans-serif" font-size="12" lengthAdjust="spacing" textLength="36.0293" x="1825.0977" y="443.4668">Model</text><text fill="#000000" font-family="sans-serif" font-size="12" lengthAdjust="spacing" textLength="3.8145" x="1861.127" y="443.4668">&#160;</text><text fill="#000000" font-family="sans-serif" font-size="12" lengthAdjust="spacing" textLength="39.3516" x="1864.9414" y="443.4668">Server</text></g><!--entity APP_kjC6ex--><g class="entity" data-entity="APP_kjC6ex" data-source-line="53" data-uid="ent0037" id="entity_APP_kjC6ex"><rect fill="#CCF2FF" height="44" rx="2" ry="2" style="stroke:#0078A0;stroke-width:0.5;" width="95.5801" x="1775" y="536.2969"/><path d="M1791,552.5969 L1802.1,552.5969 L1802.1,563.9969 L1791,563.9969" fill="#252327"/><path d="M1788.45,553.7219 L1791,553.7219 L1791,555.6719 L1788.45,555.6719" fill="#252327"/><path d="M1788.45,557.3219 L1791,557.3219 L1791,559.2719 L1788.45,559.2719" fill="#252327"/><path d="M1788.45,560.9219 L1791,560.9219 L1791,562.8719 L1788.45,562.8719" fill="#252327"/><path d="M1802.1,553.7219 L1804.2,553.7219 L1804.2,555.6719 L1802.1,555.6719" fill="#252327"/><path d="M1802.1,557.3219 L1804.2,557.3219 L1804.2,559.2719 L1802.1,559.2719" fill="#252327"/><path d="M1802.1,560.9219 L1804.2,560.9219 L1804.2,562.8719 L1802.1,562.8719" fill="#252327"/><text fill="#000000" font-family="sans-serif" font-size="12" lengthAdjust="spacing" textLength="3.8145" x="1809" y="567.4668">&#160;</text><text fill="#000000" font-family="sans-serif" font-size="12" lengthAdjust="spacing" textLength="18.6035" x="1812.8145" y="567.4668">CLI</text><text fill="#000000" font-family="sans-serif" font-size="12" lengthAdjust="spacing" textLength="3.8145" x="1831.418" y="567.4668">&#160;</text><text fill="#000000" font-family="sans-serif" font-size="12" lengthAdjust="spacing" textLength="25.3477" x="1835.2324" y="567.4668">Tool</text></g><!--entity APP_ca3vm7--><g class="entity" data-entity="APP_ca3vm7" data-source-line="54" data-uid="ent0038" id="entity_APP_ca3vm7"><rect fill="#CCF2FF" height="44" rx="2" ry="2" style="stroke:#0078A0;stroke-width:0.5;" width="131.3926" x="1757.5" y="660.2969"/><path d="M1773.5,676.5969 L1784.6,676.5969 L1784.6,687.9969 L1773.5,687.9969" fill="#252327"/><path d="M1770.95,677.7219 L1773.5,677.7219 L1773.5,679.6719 L1770.95,679.6719" fill="#252327"/><path d="M1770.95,681.3219 L1773.5,681.3219 L1773.5,683.2719 L1770.95,683.2719" fill="#252327"/><path d="M1770.95,684.9219 L1773.5,684.9219 L1773.5,686.8719 L1770.95,686.8719" fill="#252327"/><path d="M1784.6,677.7219 L1786.7,677.7219 L1786.7,679.6719 L1784.6,679.6719" fill="#252327"/><path d="M1784.6,681.3219 L1786.7,681.3219 L1786.7,683.2719 L1784.6,683.2719" fill="#252327"/><path d="M1784.6,684.9219 L1786.7,684.9219 L1786.7,686.8719 L1784.6,686.8719" fill="#252327"/><text fill="#000000" font-family="sans-serif" font-size="12" lengthAdjust="spacing" textLength="3.8145" x="1791.5" y="691.4668">&#160;</text><text fill="#000000" font-family="sans-serif" font-size="12" lengthAdjust="spacing" textLength="36.0293" x="1795.3145" y="691.4668">Model</text><text fill="#000000" font-family="sans-serif" font-size="12" lengthAdjust="spacing" textLength="3.8145" x="1831.3438" y="691.4668">&#160;</text><text fill="#000000" font-family="sans-serif" font-size="12" lengthAdjust="spacing" textLength="43.7344" x="1835.1582" y="691.4668">Verifier</text></g><!--entity APP_v9LvfK--><g class="entity" data-entity="APP_v9LvfK" data-source-line="59" data-uid="ent0042" id="entity_APP_v9LvfK"><rect fill="#CCF2FF" height="44" rx="2" ry="2" style="stroke:#0078A0;stroke-width:0.5;" width="129.2246" x="2047.5" y="412.2969"/><path d="M2063.5,428.5969 L2074.6,428.5969 L2074.6,439.9969 L2063.5,439.9969" fill="#252327"/><path d="M2060.95,429.7219 L2063.5,429.7219 L2063.5,431.6719 L2060.95,431.6719" fill="#252327"/><path d="M2060.95,433.3219 L2063.5,433.3219 L2063.5,435.2719 L2060.95,435.2719" fill="#252327"/><path d="M2060.95,436.9219 L2063.5,436.9219 L2063.5,438.8719 L2060.95,438.8719" fill="#252327"/><path d="M2074.6,429.7219 L2076.7,429.7219 L2076.7,431.6719 L2074.6,431.6719" fill="#252327"/><path d="M2074.6,433.3219 L2076.7,433.3219 L2076.7,435.2719 L2074.6,435.2719" fill="#252327"/><path d="M2074.6,436.9219 L2076.7,436.9219 L2076.7,438.8719 L2074.6,438.8719" fill="#252327"/><text fill="#000000" font-family="sans-serif" font-size="12" lengthAdjust="spacing" textLength="3.8145" x="2081.5" y="443.4668">&#160;</text><text fill="#000000" font-family="sans-serif" font-size="12" lengthAdjust="spacing" textLength="36.4688" x="2085.3145" y="443.4668">Query</text><text fill="#000000" font-family="sans-serif" font-size="12" lengthAdjust="spacing" textLength="3.8145" x="2121.7832" y="443.4668">&#160;</text><text fill="#000000" font-family="sans-serif" font-size="12" lengthAdjust="spacing" textLength="41.127" x="2125.5977" y="443.4668">Engine</text></g><!--entity APP_JOmFWy--><g class="entity" data-entity="APP_JOmFWy" data-source-line="60" data-uid="ent0043" id="entity_APP_JOmFWy"><rect fill="#CCF2FF" height="44" rx="2" ry="2" style="stroke:#0078A0;stroke-width:0.5;" width="136.3613" x="2041" y="536.2969"/><path d="M2057,552.5969 L2068.1,552.5969 L2068.1,563.9969 L2057,563.9969" fill="#252327"/><path d="M2054.45,553.7219 L2057,553.7219 L2057,555.6719 L2054.45,555.6719" fill="#252327"/><path d="M2054.45,557.3219 L2057,557.3219 L2057,559.2719 L2054.45,559.2719" fill="#252327"/><path d="M2054.45,560.9219 L2057,560.9219 L2057,562.8719 L2054.45,562.8719" fill="#252327"/><path d="M2068.1,553.7219 L2070.2,553.7219 L2070.2,555.6719 L2068.1,555.6719" fill="#252327"/><path d="M2068.1,557.3219 L2070.2,557.3219 L2070.2,559.2719 L2068.1,559.2719" fill="#252327"/><path d="M2068.1,560.9219 L2070.2,560.9219 L2070.2,562.8719 L2068.1,562.8719" fill="#252327"/><text fill="#000000" font-family="sans-serif" font-size="12" lengthAdjust="spacing" textLength="3.8145" x="2075" y="567.4668">&#160;</text><text fill="#000000" font-family="sans-serif" font-size="12" lengthAdjust="spacing" textLength="39.1699" x="2078.8145" y="567.4668">SQLite</text><text fill="#000000" font-family="sans-serif" font-size="12" lengthAdjust="spacing" textLength="3.8145" x="2117.9844" y="567.4668">&#160;</text><text fill="#000000" font-family="sans-serif" font-size="12" lengthAdjust="spacing" textLength="45.5625" x="2121.7988" y="567.4668">Indexer</text></g><!--entity APP_tIMxjr--><g class="entity" data-entity="APP_tIMxjr" data-source-line="61" data-uid="ent0044" id="entity_APP_tIMxjr"><rect fill="#CCF2FF" height="44" rx="2" ry="2" style="stroke:#0078A0;stroke-width:0.5;" width="154.2852" x="2023" y="660.2969"/><path d="M2039,676.5969 L2050.1,676.5969 L2050.1,687.9969 L2039,687.9969" fill="#252327"/><path d="M2036.45,677.7219 L2039,677.7219 L2039,679.6719 L2036.45,679.6719" fill="#252327"/><path d="M2036.45,681.3219 L2039,681.3219 L2039,683.2719 L2036.45,683.2719" fill="#252327"/><path d="M2036.45,684.9219 L2039,684.9219 L2039,686.8719 L2036.45,686.8719" fill="#252327"/><path d="M2050.1,677.7219 L2052.2,677.7219 L2052.2,679.6719 L2050.1,679.6719" fill="#252327"/><path d="M2050.1,681.3219 L2052.2,681.3219 L2052.2,683.2719 L2050.1,683.2719" fill="#252327"/><path d="M2050.1,684.9219 L2052.2,684.9219 L2052.2,686.8719 L2050.1,686.8719" fill="#252327"/><text fill="#000000" font-family="sans-serif" font-size="12" lengthAdjust="spacing" textLength="3.8145" x="2057" y="691.4668">&#160;</text><text fill="#000000" font-family="sans-serif" font-size="12" lengthAdjust="spacing" textLength="61.5293" x="2060.8145" y="691.4668">Promotion</text><text fill="#000000" font-family="sans-serif" font-size="12" lengthAdjust="spacing" textLength="3.8145" x="2122.3438" y="691.4668">&#160;</text><text fill="#000000" font-family="sans-serif" font-size="12" lengthAdjust="spacing" textLength="41.127" x="2126.1582" y="691.4668">Engine</text></g><!--link ROL_deMuTj to ROL_udXPfB--><!--link ROL_udXPfB to ROL_lM1u7O--><!--link SRV_Au1Th1 to SRV_GsUtNL--><!--link SRV_GsUtNL to SRV_Au1Th1--><g class="link" data-entity-1="SRV_GsUtNL" data-entity-2="SRV_Au1Th1" data-source-line="74" data-uid="lnk51" id="link_SRV_GsUtNL_SRV_Au1Th1"><path d="M182.5,208.1269 C182.5,185.6969 182.5,169.2069 182.5,146.6869" fill="none" id="SRV_GsUtNL-to-SRV_Au1Th1" style="stroke:#000000;stroke-width:1;"/><polygon fill="none" points="182.5,128.6869,176.5,146.6869,188.5,146.6869,182.5,128.6869" style="stroke:#000000;stroke-width:1;"/><text fill="#000000" font-family="sans-serif" font-size="12" lengthAdjust="spacing" textLength="3.8145" x="178.5" y="165.5455">&#160;</text></g><!--link SRV_GsUtNL to SRV_AIGnSY--><!--link SRV_Ij6Kl6 to SRV_J8ekRD--><!--link SRV_J8ekRD to SRV_Ij6Kl6--><g class="link" data-entity-1="SRV_J8ekRD" data-entity-2="SRV_Ij6Kl6" data-source-line="76" data-uid="lnk53" id="link_SRV_J8ekRD_SRV_Ij6Kl6"><path d="M2458.33,208.1269 C2458.33,185.6969 2458.33,169.2069 2458.33,146.6869" fill="none" id="SRV_J8ekRD-to-SRV_Ij6Kl6" style="stroke:#000000;stroke-width:1;"/><polygon fill="none" points="2458.33,128.6869,2452.33,146.6869,2464.33,146.6869,2458.33,128.6869" style="stroke:#000000;stroke-width:1;"/><text fill="#000000" font-family="sans-serif" font-size="12" lengthAdjust="spacing" textLength="3.8145" x="2454.33" y="165.5455">&#160;</text></g><!--link SRV_J8ekRD to SRV_vQKsM9--><!--link SRV_Qr8St8 to SRV_Uv9Wx9--><!--link SRV_Uv9Wx9 to SRV_e5MCiF--><!--link GRP_AUTH to GRP_VER--><!--link GRP_VER to GRP_PLAT--><!--link PRC_U4aAdh to PRC_GHVpDA--><!--link PRC_GHVpDA to PRC_0Rz5Ex--><!--link APP_kRZYOA to APP_kjC6ex--><!--link APP_kjC6ex to APP_ca3vm7--><!--link APP_v9LvfK to APP_JOmFWy--><!--link APP_JOmFWy to APP_tIMxjr--><!--link GRP_CMP_A to GRP_CMP_B--><!--link GRP_ROLES to GRP_AUTH--><!--link GRP_AUTH to GRP_PRC--><!--link GRP_PRC to GRP_CMP--><!--link SRV_AIGnSY to SRV_Au1Th1--><g class="link" data-entity-1="SRV_AIGnSY" data-entity-2="SRV_Au1Th1" data-source-line="75" data-uid="lnk52" id="link_SRV_AIGnSY_SRV_Au1Th1"><path d="M232,412.2669 C232,352.6569 232,206.6669 232,146.6669" fill="none" id="SRV_AIGnSY-to-SRV_Au1Th1" style="stroke:#000000;stroke-width:1;"/><polygon fill="none" points="232,128.6669,226,146.6669,238,146.6669,232,128.6669" style="stroke:#000000;stroke-width:1;"/><text fill="#000000" font-family="sans-serif" font-size="12" lengthAdjust="spacing" textLength="3.8145" x="228" y="267.6055">&#160;</text></g><!--link SRV_vQKsM9 to SRV_Ij6Kl6--><g class="link" data-entity-1="SRV_vQKsM9" data-entity-2="SRV_Ij6Kl6" data-source-line="77" data-uid="lnk54" id="link_SRV_vQKsM9_SRV_Ij6Kl6"><path d="M2536.5,412.0769 C2536.5,340.1469 2536.5,118.2969 2536.5,118.2969 C2536.5,118.2969 2544.71,118.2969 2531.09,118.2969" fill="none" id="SRV_vQKsM9-to-SRV_Ij6Kl6" style="stroke:#000000;stroke-width:1;"/><polygon fill="none" points="2513.09,118.2969,2531.09,124.2969,2531.09,112.2969,2513.09,118.2969" style="stroke:#000000;stroke-width:1;"/><text fill="#000000" font-family="sans-serif" font-size="12" lengthAdjust="spacing" textLength="3.8145" x="2532.5" y="250.6155">&#160;</text></g><!--link SRV_Au1Th1 to ROL_deMuTj--><g class="link" data-entity-1="SRV_Au1Th1" data-entity-2="ROL_deMuTj" data-source-line="80" data-uid="lnk55" id="link_SRV_Au1Th1_ROL_deMuTj"><path d="M251.71,119.2969 C457.33,119.2969 1000,119.2969 1000,119.2969 C1000,119.2969 1000,334.4469 1000,406.1469" fill="none" id="SRV_Au1Th1-to-ROL_deMuTj" style="stroke:#000000;stroke-width:1;"/><polygon fill="#000000" points="1000,412.1469,1004,403.1469,1000,407.1469,996,403.1469,1000,412.1469" style="stroke:#000000;stroke-width:1;"/><text fill="#000000" font-family="sans-serif" font-size="12" lengthAdjust="spacing" textLength="3.8145" x="768.28" y="116.4355">&#160;</text></g><!--link SRV_Au1Th1 to ROL_udXPfB--><g class="link" data-entity-1="SRV_Au1Th1" data-entity-2="ROL_udXPfB" data-source-line="81" data-uid="lnk56" id="link_SRV_Au1Th1_ROL_udXPfB"><path d="M238.5,128.4669 C238.5,180.5369 238.5,306.2969 238.5,306.2969 C238.5,306.2969 1155.25,306.2969 1155.25,306.2969 C1155.25,306.2969 1155.25,369.6969 1155.25,406.2969" fill="none" id="SRV_Au1Th1-to-ROL_udXPfB" style="stroke:#000000;stroke-width:1;"/><polygon fill="#000000" points="1155.25,412.2969,1159.25,403.2969,1155.25,407.2969,1151.25,403.2969,1155.25,412.2969" style="stroke:#000000;stroke-width:1;"/><text fill="#000000" font-family="sans-serif" font-size="12" lengthAdjust="spacing" textLength="3.8145" x="656.96" y="303.4355">&#160;</text></g><!--link SRV_Qr8St8 to ROL_deMuTj--><g class="link" data-entity-1="SRV_Qr8St8" data-entity-2="ROL_deMuTj" data-source-line="82" data-uid="lnk57" id="link_SRV_Qr8St8_ROL_deMuTj"><path d="M2743.86,128.3069 C2743.86,189.8569 2743.86,359.2969 2743.86,359.2969 C2743.86,359.2969 1052.67,359.2969 1052.67,359.2969 C1052.67,359.2969 1052.67,384.0769 1052.67,406.1969" fill="none" id="SRV_Qr8St8-to-ROL_deMuTj" style="stroke:#000000;stroke-width:1;"/><polygon fill="#000000" points="1052.67,412.1969,1056.67,403.1969,1052.67,407.1969,1048.67,403.1969,1052.67,412.1969" style="stroke:#000000;stroke-width:1;"/><text fill="#000000" font-family="sans-serif" font-size="12" lengthAdjust="spacing" textLength="3.8145" x="1983.31" y="356.4355">&#160;</text></g><!--link SRV_Qr8St8 to ROL_udXPfB--><g class="link" data-entity-1="SRV_Qr8St8" data-entity-2="ROL_udXPfB" data-source-line="83" data-uid="lnk58" id="link_SRV_Qr8St8_ROL_udXPfB"><path d="M2749.57,128.7369 C2749.57,195.1769 2749.57,386.2969 2749.57,386.2969 C2749.57,386.2969 1204.75,386.2969 1204.75,386.2969 C1204.75,386.2969 1204.75,393.6469 1204.75,406.2669" fill="none" id="SRV_Qr8St8-to-ROL_udXPfB" style="stroke:#000000;stroke-width:1;"/><polygon fill="#000000" points="1204.75,412.2669,1208.75,403.2669,1204.75,407.2669,1200.75,403.2669,1204.75,412.2669" style="stroke:#000000;stroke-width:1;"/><text fill="#000000" font-family="sans-serif" font-size="12" lengthAdjust="spacing" textLength="3.8145" x="2088.96" y="398.4355">&#160;</text></g><!--link SRV_Ij6Kl6 to ROL_lM1u7O--><g class="link" data-entity-1="SRV_Ij6Kl6" data-entity-2="ROL_lM1u7O" data-source-line="84" data-uid="lnk59" id="link_SRV_Ij6Kl6_ROL_lM1u7O"><path d="M2348.98,113.2969 C2024.58,113.2969 848.67,113.2969 848.67,113.2969 C848.67,113.2969 848.67,333.7069 848.67,406.2369" fill="none" id="SRV_Ij6Kl6-to-ROL_lM1u7O" style="stroke:#000000;stroke-width:1;"/><polygon fill="#000000" points="848.67,412.2369,852.67,403.2369,848.67,407.2369,844.67,403.2369,848.67,412.2369" style="stroke:#000000;stroke-width:1;"/><text fill="#000000" font-family="sans-serif" font-size="12" lengthAdjust="spacing" textLength="3.8145" x="1445.36" y="110.4355">&#160;</text></g><!--reverse link SRV_Au1Th1 to PRC_U4aAdh--><g class="link" data-entity-1="SRV_Au1Th1" data-entity-2="PRC_U4aAdh" data-source-line="87" data-uid="lnk61" id="link_SRV_Au1Th1_PRC_U4aAdh"><path d="M245,146.3569 C245,179.2369 245,219.2969 245,219.2969 C245,219.2969 769.96,219.2969 1017.58,219.2969" fill="none" id="SRV_Au1Th1-backto-PRC_U4aAdh" style="stroke:#000000;stroke-width:1;stroke-dasharray:1.0,3.0;"/><polygon fill="none" points="245,128.3569,239,146.3569,251,146.3569,245,128.3569" style="stroke:#000000;stroke-width:1;"/><text fill="#000000" font-family="sans-serif" font-size="12" lengthAdjust="spacing" textLength="3.8145" x="581.82" y="216.4355">&#160;</text></g><!--reverse link SRV_Ij6Kl6 to PRC_U4aAdh--><g class="link" data-entity-1="SRV_Ij6Kl6" data-entity-2="PRC_U4aAdh" data-source-line="88" data-uid="lnk63" id="link_SRV_Ij6Kl6_PRC_U4aAdh"><path d="M2330.87,116.2969 C2041.12,116.2969 1102,116.2969 1102,116.2969 C1102,116.2969 1102,174.8669 1102,208.0469" fill="none" id="SRV_Ij6Kl6-backto-PRC_U4aAdh" style="stroke:#000000;stroke-width:1;stroke-dasharray:1.0,3.0;"/><polygon fill="none" points="2348.87,116.2969,2330.87,110.2969,2330.87,122.2969,2348.87,116.2969" style="stroke:#000000;stroke-width:1;"/><text fill="#000000" font-family="sans-serif" font-size="12" lengthAdjust="spacing" textLength="3.8145" x="1675.56" y="113.4355">&#160;</text></g><!--reverse link SRV_Qr8St8 to PRC_U4aAdh--><g class="link" data-entity-1="SRV_Qr8St8" data-entity-2="PRC_U4aAdh" data-source-line="89" data-uid="lnk65" id="link_SRV_Qr8St8_PRC_U4aAdh"><path d="M2726.71,146.7769 C2726.71,156.7569 2726.71,148.2969 2726.71,148.2969 C2726.71,148.2969 1186,148.2969 1186,148.2969 C1186,148.2969 1186,183.6069 1186,207.8869" fill="none" id="SRV_Qr8St8-backto-PRC_U4aAdh" style="stroke:#000000;stroke-width:1;stroke-dasharray:1.0,3.0;"/><polygon fill="none" points="2726.71,128.7769,2720.71,146.7769,2732.71,146.7769,2726.71,128.7769" style="stroke:#000000;stroke-width:1;"/><text fill="#000000" font-family="sans-serif" font-size="12" lengthAdjust="spacing" textLength="3.8145" x="1932.32" y="145.4355">&#160;</text></g><!--reverse link SRV_AIGnSY to PRC_U4aAdh--><g class="link" data-entity-1="SRV_AIGnSY" data-entity-2="PRC_U4aAdh" data-source-line="90" data-uid="lnk67" id="link_SRV_AIGnSY_PRC_U4aAdh"><path d="M269.75,394.2769 C269.75,343.8369 269.75,242.2969 269.75,242.2969 C269.75,242.2969 775.7,242.2969 1017.81,242.2969" fill="none" id="SRV_AIGnSY-backto-PRC_U4aAdh" style="stroke:#000000;stroke-width:1;stroke-dasharray:1.0,3.0;"/><polygon fill="none" points="269.75,412.2769,275.75,394.2769,263.75,394.2769,269.75,412.2769" style="stroke:#000000;stroke-width:1;"/><text fill="#000000" font-family="sans-serif" font-size="12" lengthAdjust="spacing" textLength="3.8145" x="554.79" y="239.4355">&#160;</text></g><!--reverse link SRV_Qr8St8 to PRC_GHVpDA--><g class="link" data-entity-1="SRV_Qr8St8" data-entity-2="PRC_GHVpDA" data-source-line="91" data-uid="lnk69" id="link_SRV_Qr8St8_PRC_GHVpDA"><path d="M2732.43,146.3269 C2732.43,164.1469 2732.43,168.2969 2732.43,168.2969 C2732.43,168.2969 1441,168.2969 1441,168.2969 C1441,168.2969 1441,190.4469 1441,208.2669" fill="none" id="SRV_Qr8St8-backto-PRC_GHVpDA" style="stroke:#000000;stroke-width:1;stroke-dasharray:1.0,3.0;"/><polygon fill="none" points="2732.43,128.3269,2726.43,146.3269,2738.43,146.3269,2732.43,128.3269" style="stroke:#000000;stroke-width:1;"/><text fill="#000000" font-family="sans-serif" font-size="12" lengthAdjust="spacing" textLength="3.8145" x="2082.71" y="165.4355">&#160;</text></g><!--reverse link SRV_Uv9Wx9 to PRC_0Rz5Ex--><g class="link" data-entity-1="SRV_Uv9Wx9" data-entity-2="PRC_0Rz5Ex" data-source-line="92" data-uid="lnk71" id="link_SRV_Uv9Wx9_PRC_0Rz5Ex"><path d="M2820.5,270.5069 C2820.5,283.4669 2820.5,279.2969 2820.5,279.2969 C2820.5,279.2969 1761,279.2969 1761,279.2969 C1761,279.2969 1761,265.4669 1761,252.5069" fill="none" id="SRV_Uv9Wx9-backto-PRC_0Rz5Ex" style="stroke:#000000;stroke-width:1;stroke-dasharray:1.0,3.0;"/><polygon fill="none" points="2820.5,252.5069,2814.5,270.5069,2826.5,270.5069,2820.5,252.5069" style="stroke:#000000;stroke-width:1;"/><text fill="#000000" font-family="sans-serif" font-size="12" lengthAdjust="spacing" textLength="3.8145" x="2286.75" y="276.4355">&#160;</text></g><!--reverse link SRV_Au1Th1 to APP_kRZYOA--><g class="link" data-entity-1="SRV_Au1Th1" data-entity-2="APP_kRZYOA" data-source-line="95" data-uid="lnk73" id="link_SRV_Au1Th1_APP_kRZYOA"><path d="M269.54,110.2969 C597.96,110.2969 1839.5,110.2969 1839.5,110.2969 C1839.5,110.2969 1839.5,339.3569 1839.5,412.2769" fill="none" id="SRV_Au1Th1-backto-APP_kRZYOA" style="stroke:#000000;stroke-width:1;stroke-dasharray:1.0,3.0;"/><polygon fill="none" points="251.54,110.2969,269.54,116.2969,269.54,104.2969,251.54,110.2969" style="stroke:#000000;stroke-width:1;"/><text fill="#000000" font-family="sans-serif" font-size="12" lengthAdjust="spacing" textLength="3.8145" x="1192.51" y="107.4355">&#160;</text></g><!--reverse link SRV_Au1Th1 to APP_kjC6ex--><g class="link" data-entity-1="SRV_Au1Th1" data-entity-2="APP_kjC6ex" data-source-line="96" data-uid="lnk75" id="link_SRV_Au1Th1_APP_kjC6ex"><path d="M269.7,122.2969 C295.37,122.2969 299.5,122.2969 299.5,122.2969 C299.5,122.2969 299.5,566.2969 299.5,566.2969 C299.5,566.2969 1515.92,566.2969 1774.89,566.2969" fill="none" id="SRV_Au1Th1-backto-APP_kjC6ex" style="stroke:#000000;stroke-width:1;stroke-dasharray:1.0,3.0;"/><polygon fill="none" points="251.7,122.2969,269.7,128.2969,269.7,116.2969,251.7,122.2969" style="stroke:#000000;stroke-width:1;"/><text fill="#000000" font-family="sans-serif" font-size="12" lengthAdjust="spacing" textLength="3.8145" x="787.29" y="563.4355">&#160;</text></g><!--reverse link SRV_Ij6Kl6 to APP_ca3vm7--><g class="link" data-entity-1="SRV_Ij6Kl6" data-entity-2="APP_ca3vm7" data-source-line="97" data-uid="lnk77" id="link_SRV_Ij6Kl6_APP_ca3vm7"><path d="M2330.96,125.2969 C2207.31,125.2969 2005.5,125.2969 2005.5,125.2969 C2005.5,125.2969 2005.5,682.2969 2005.5,682.2969 C2005.5,682.2969 1940.95,682.2969 1888.63,682.2969" fill="none" id="SRV_Ij6Kl6-backto-APP_ca3vm7" style="stroke:#000000;stroke-width:1;stroke-dasharray:1.0,3.0;"/><polygon fill="none" points="2348.96,125.2969,2330.96,119.2969,2330.96,131.2969,2348.96,125.2969" style="stroke:#000000;stroke-width:1;"/><text fill="#000000" font-family="sans-serif" font-size="12" lengthAdjust="spacing" textLength="3.8145" x="2001.5" y="287.6455">&#160;</text></g><!--reverse link SRV_Qr8St8 to APP_v9LvfK--><g class="link" data-entity-1="SRV_Qr8St8" data-entity-2="APP_v9LvfK" data-source-line="98" data-uid="lnk79" id="link_SRV_Qr8St8_APP_v9LvfK"><path d="M2738.14,146.7069 C2738.14,170.9869 2738.14,188.2969 2738.14,188.2969 C2738.14,188.2969 2112,188.2969 2112,188.2969 C2112,188.2969 2112,351.4769 2112,412.0369" fill="none" id="SRV_Qr8St8-backto-APP_v9LvfK" style="stroke:#000000;stroke-width:1;stroke-dasharray:1.0,3.0;"/><polygon fill="none" points="2738.14,128.7069,2732.14,146.7069,2744.14,146.7069,2738.14,128.7069" style="stroke:#000000;stroke-width:1;"/><text fill="#000000" font-family="sans-serif" font-size="12" lengthAdjust="spacing" textLength="3.8145" x="2339" y="185.4355">&#160;</text></g><!--reverse link SRV_Qr8St8 to APP_JOmFWy--><g class="link" data-entity-1="SRV_Qr8St8" data-entity-2="APP_JOmFWy" data-source-line="99" data-uid="lnk81" id="link_SRV_Qr8St8_APP_JOmFWy"><path d="M2755.29,146.4069 C2755.29,237.1469 2755.29,558.2969 2755.29,558.2969 C2755.29,558.2969 2343.38,558.2969 2177.25,558.2969" fill="none" id="SRV_Qr8St8-backto-APP_JOmFWy" style="stroke:#000000;stroke-width:1;stroke-dasharray:1.0,3.0;"/><polygon fill="none" points="2755.29,128.4069,2749.29,146.4069,2761.29,146.4069,2755.29,128.4069" style="stroke:#000000;stroke-width:1;"/><text fill="#000000" font-family="sans-serif" font-size="12" lengthAdjust="spacing" textLength="3.8145" x="2677.21" y="555.4355">&#160;</text></g><!--reverse link SRV_Uv9Wx9 to APP_tIMxjr--><g class="link" data-entity-1="SRV_Uv9Wx9" data-entity-2="APP_tIMxjr" data-source-line="100" data-uid="lnk83" id="link_SRV_Uv9Wx9_APP_tIMxjr"><path d="M2962.75,270.4069 C2962.75,361.1469 2962.75,682.2969 2962.75,682.2969 C2962.75,682.2969 2389.09,682.2969 2177.32,682.2969" fill="none" id="SRV_Uv9Wx9-backto-APP_tIMxjr" style="stroke:#000000;stroke-width:1;stroke-dasharray:1.0,3.0;"/><polygon fill="none" points="2962.75,252.4069,2956.75,270.4069,2968.75,270.4069,2962.75,252.4069" style="stroke:#000000;stroke-width:1;"/><text fill="#000000" font-family="sans-serif" font-size="12" lengthAdjust="spacing" textLength="3.8145" x="2780.98" y="679.4355">&#160;</text></g><!--link PRC_U4aAdh to ROL_deMuTj--><g class="link" data-entity-1="PRC_U4aAdh" data-entity-2="ROL_deMuTj" data-source-line="103" data-uid="lnk85" id="link_PRC_U4aAdh_ROL_deMuTj"><path d="M1035.33,260.5169 C1035.33,299.7569 1035.33,360.8869 1035.33,400.1069" fill="none" id="PRC_U4aAdh-ROL_deMuTj" style="stroke:#000000;stroke-width:1;"/><polygon fill="#000000" points="1035.33,252.5169,1032.33,260.5169,1038.33,260.5169,1035.33,252.5169" style="stroke:#000000;stroke-width:1;"/><ellipse cx="1035.33" cy="406.1069" fill="#000000" rx="6" ry="6" style="stroke:#000000;stroke-width:1.5;"/><text fill="#000000" font-family="sans-serif" font-size="12" lengthAdjust="spacing" textLength="3.8145" x="1031.33" y="329.4455">&#160;</text></g><!--link PRC_U4aAdh to ROL_udXPfB--><g class="link" data-entity-1="PRC_U4aAdh" data-entity-2="ROL_udXPfB" data-source-line="104" data-uid="lnk87" id="link_PRC_U4aAdh_ROL_udXPfB"><path d="M1180,260.5169 C1180,299.7569 1180,360.8869 1180,400.1069" fill="none" id="PRC_U4aAdh-ROL_udXPfB" style="stroke:#000000;stroke-width:1;"/><polygon fill="#000000" points="1180,252.5169,1177,260.5169,1183,260.5169,1180,252.5169" style="stroke:#000000;stroke-width:1;"/><ellipse cx="1180" cy="406.1069" fill="#000000" rx="6" ry="6" style="stroke:#000000;stroke-width:1.5;"/><text fill="#000000" font-family="sans-serif" font-size="12" lengthAdjust="spacing" textLength="3.8145" x="1176" y="329.4455">&#160;</text></g><!--link PRC_GHVpDA to ROL_lM1u7O--><g class="link" data-entity-1="PRC_GHVpDA" data-entity-2="ROL_lM1u7O" data-source-line="105" data-uid="lnk89" id="link_PRC_GHVpDA_ROL_lM1u7O"><path d="M1441,260.4269 C1441,290.4269 1441,332.2969 1441,332.2969 C1441,332.2969 885.33,332.2969 885.33,332.2969 C885.33,332.2969 885.33,370.1669 885.33,400.1669" fill="none" id="PRC_GHVpDA-ROL_lM1u7O" style="stroke:#000000;stroke-width:1;"/><polygon fill="#000000" points="1441,252.4269,1438,260.4269,1444,260.4269,1441,252.4269" style="stroke:#000000;stroke-width:1;"/><ellipse cx="885.33" cy="406.1669" fill="#000000" rx="6" ry="6" style="stroke:#000000;stroke-width:1.5;"/><text fill="#000000" font-family="sans-serif" font-size="12" lengthAdjust="spacing" textLength="3.8145" x="1159.17" y="329.4355">&#160;</text></g><!--SRC=[fLZHRjis57tNLx31qAM0dItOaYP05a2rKzUDlJYodQuR1a6JQ9cfH0eYvTajykybHKcK7CQcwgUOvl4vlFUGzv9vXR0VPG449oU_k5xgBr7iCTYb3AQGi4q2wKcInP7rIeyBeqsoB22C980Hy1zXZCGWG2dq6IBOiXXY4GHJcAwG3y78mm7rlGHQba1uEEIJHps2QHOZ70A7H90UWQkh7ebZWWSfoHB-_VKry2WOE1FNkHlTJC4t2u3Qxwz-gXRb2ePlN2A2VvoUd3rT0pjZIv8AJZ4bcJYB6y1nDdjiGpG4TWWnUqwL1NzD5kzQKFNX2aOaWPfbHUFJxEqTvr9h1Dr_bYW88FutHU6ITPkQQg355NnFZOJBd8Y45yRipBazdttObVA2GvFrce8GA3vAvgdpuDhPwMnvsevvJ08O6V8Fw9pzEMh7tqTUc7gnQGJ30Pv-vWeg76L3GFx7tUP2r407AzYQPZt052sGxudpPEJNmutJrYwTXZRUuUFvRNJ-8uuPItoyW5-S_e-PPYookh-buyl241cKpf1gBMgWWnLiJTycaSSM98sDF9kCx5bRq_g8-cG5qqq7t6VyZzYhhy6KUOpkZFq-lPYoYtPQ3am8HOoa6p19IKps9dY-kloqlcmdmll00eLPkjy-U3RkeVU5Bp8UdI_L8jH01olOk7rLkTikfSMviihpfPiN7ZPsW0Ez27qLjl2SyGr0z-m1fxTh2nGSpJ8hPXd7PocKvooIku1lFepvHw5N_50ASH5t_hjd1yi3b8Pn4i6OzyBSAQt6uCD3qhVRQSYT1RaMGmlFPrJB_AlpzUncpPbLAC_iQAn03RIuWk_f1UkuMmd1FDQTtlN6astlL0DvtQXBUsXSEoTwCN5saaG5KxMqPhdjJOgIAuwDl6FeVYHLxSd4_UBy_VdEFaYqDng26I6HWTXZxnok3ukmrb1CulEztrRnsrnIXRjT2BRMfeOwOCNurFGyhyFY-9KrSf_PxmuqMmhUu11Xk3yHgylHQd5xaE3qViJB01ZY0AvDSl_nBdx_QNEGf6eufd6ouNZzc5O-oh1rFjPMfuOwOCKe35SdLTS6Sbj5EVcPPua_fRgHju4fyB3Fom6rr2jcIwRiFPecf02yO5bbhz1CSssXMpwtQ09z90fPdYXgEJ1ofutlZjM5j5ExmtR0qT6Rb-3obceCbzUcJkscjHCkxrBFuIei2gWeR20LZqL98oPmU5nVaNe_rUHUmCdtanudRnVx-UguNNnbJEfnLiLNtHBuKH59WNcW8kASHVQaF5FkF3bMxKzlnHxujXLxu6LuXl1oZ-o0ovPip2xRTATsbQlofbgqKU9K3p1AdEe4nd3P7epohEgJKIPKbJA6ozAbJPpurmElcHI5ECxJnmX8oasOyzdLfA2hdu6wuwNwStHv4ipGvNceRm-1_Wu0]--></g></svg>