<svg xmlns="http://www.w3.org/2000/svg" xmlns:xlink="http://www.w3.org/1999/xlink" contentStyleType="text/css" data-diagram-type="DESCRIPTION" height="432px" preserveAspectRatio="none" style="width:1169px;height:432px;background:#FAFAFA;" version="1.1" viewBox="0 0 1169 432" width="1169px" zoomAndPan="magnify"><title>Strategy Domain &#8212; Capabilities &amp; Courses of Action</title><defs/><g><rect fill="#FAFAFA" height="432" style="stroke:none;stroke-width:1;" width="1169" x="0" y="0"/><text fill="#000000" font-family="sans-serif" font-size="14" font-weight="bold" lengthAdjust="spacing" textLength="410.6006" x="372.1997" y="22.9951">Strategy Domain &#8212; Capabilities &amp; Courses of Action</text><!--cluster Goals (from Motivation)--><g class="cluster" data-entity="Goals (from Motivation)" data-source-line="8" data-uid="ent0002" id="cluster_Goals (from Motivation)"><rect fill="#F7EEF9" height="106" rx="2" ry="2" style="stroke:#7B3F9A;stroke-width:1;" width="1156" x="7" y="44.2969"/><text fill="#000000" font-family="sans-serif" font-size="12" font-weight="bold" lengthAdjust="spacing" textLength="161.25" x="504.375" y="57.4355">Goals (from Motivation)</text></g><!--cluster Capabilities--><g class="cluster" data-entity="Capabilities" data-source-line="16" data-uid="ent0008" id="cluster_Capabilities"><rect fill="#FAF0D9" height="106" rx="2" ry="2" style="stroke:#8B6914;stroke-width:1;" width="968" x="111" y="182.2969"/><text fill="#000000" font-family="sans-serif" font-size="12" font-weight="bold" lengthAdjust="spacing" textLength="79.6523" x="555.1738" y="195.4355">Capabilities</text></g><!--cluster Courses of Action--><g class="cluster" data-entity="Courses of Action" data-source-line="25" data-uid="ent0015" id="cluster_Courses of Action"><rect fill="#FAF0D9" height="106" rx="2" ry="2" style="stroke:#8B6914;stroke-width:1;" width="412" x="148" y="320.2969"/><text fill="#000000" font-family="sans-serif" font-size="12" font-weight="bold" lengthAdjust="spacing" textLength="118.793" x="294.6035" y="333.4355">Courses of Action</text></g><!--entity GOL_Po1Qw3--><g class="entity" data-entity="GOL_Po1Qw3" data-source-line="9" data-uid="ent0003" id="entity_GOL_Po1Qw3"><rect fill="#EDD6F0" height="57.9688" rx="2" ry="2" style="stroke:#7B3F9A;stroke-width:0.5;" width="167.8848" x="23" y="76.2969"/><ellipse cx="45" cy="98.2969" fill="none" rx="7.2" ry="7.2" style="stroke:#252327;stroke-width:1.95;"/><ellipse cx="45" cy="98.2969" fill="none" rx="4.35" ry="4.35" style="stroke:#252327;stroke-width:1.95;"/><ellipse cx="45" cy="98.2969" fill="#252327" rx="1.95" ry="1.95" style="stroke:#252327;stroke-width:0.5;"/><text fill="#000000" font-family="sans-serif" font-size="12" lengthAdjust="spacing" textLength="120.0703" x="60.8145" y="107.4668">Maintain Coherence</text><text fill="#000000" font-family="sans-serif" font-size="12" lengthAdjust="spacing" textLength="83.5488" x="33" y="121.4355">&amp; Traceability</text></g><!--entity GOL_Lm2Bn2--><g class="entity" data-entity="GOL_Lm2Bn2" data-source-line="10" data-uid="ent0004" id="entity_GOL_Lm2Bn2"><rect fill="#EDD6F0" height="57.9688" rx="2" ry="2" style="stroke:#7B3F9A;stroke-width:0.5;" width="202.2148" x="463" y="76.2969"/><ellipse cx="485" cy="98.2969" fill="none" rx="7.2" ry="7.2" style="stroke:#252327;stroke-width:1.95;"/><ellipse cx="485" cy="98.2969" fill="none" rx="4.35" ry="4.35" style="stroke:#252327;stroke-width:1.95;"/><ellipse cx="485" cy="98.2969" fill="#252327" rx="1.95" ry="1.95" style="stroke:#252327;stroke-width:0.5;"/><text fill="#000000" font-family="sans-serif" font-size="12" lengthAdjust="spacing" textLength="154.4004" x="500.8145" y="107.4668">Enable Cross-Stakeholder</text><text fill="#000000" font-family="sans-serif" font-size="12" lengthAdjust="spacing" textLength="60.1875" x="473" y="121.4355">Validation</text></g><!--entity GOL_planning--><g class="entity" data-entity="GOL_planning" data-source-line="11" data-uid="ent0005" id="entity_GOL_planning"><rect fill="#EDD6F0" height="57.9688" rx="2" ry="2" style="stroke:#7B3F9A;stroke-width:0.5;" width="150.7578" x="251.5" y="76.2969"/><ellipse cx="273.5" cy="98.2969" fill="none" rx="7.2" ry="7.2" style="stroke:#252327;stroke-width:1.95;"/><ellipse cx="273.5" cy="98.2969" fill="none" rx="4.35" ry="4.35" style="stroke:#252327;stroke-width:1.95;"/><ellipse cx="273.5" cy="98.2969" fill="#252327" rx="1.95" ry="1.95" style="stroke:#252327;stroke-width:0.5;"/><text fill="#000000" font-family="sans-serif" font-size="12" lengthAdjust="spacing" textLength="102.9434" x="289.3145" y="107.4668">Support Planning</text><text fill="#000000" font-family="sans-serif" font-size="12" lengthAdjust="spacing" textLength="87.627" x="261.5" y="121.4355">(Humans &amp; AI)</text></g><!--entity GOL_Zx9Cv4--><g class="entity" data-entity="GOL_Zx9Cv4" data-source-line="12" data-uid="ent0006" id="entity_GOL_Zx9Cv4"><rect fill="#EDD6F0" height="44" rx="2" ry="2" style="stroke:#7B3F9A;stroke-width:0.5;" width="183.8691" x="963" y="83.2969"/><ellipse cx="985" cy="105.2969" fill="none" rx="7.2" ry="7.2" style="stroke:#252327;stroke-width:1.95;"/><ellipse cx="985" cy="105.2969" fill="none" rx="4.35" ry="4.35" style="stroke:#252327;stroke-width:1.95;"/><ellipse cx="985" cy="105.2969" fill="#252327" rx="1.95" ry="1.95" style="stroke:#252327;stroke-width:0.5;"/><text fill="#000000" font-family="sans-serif" font-size="12" lengthAdjust="spacing" textLength="136.0547" x="1000.8145" y="114.4668">Enable Scalable Reuse</text></g><!--entity GOL_guidance--><g class="entity" data-entity="GOL_guidance" data-source-line="13" data-uid="ent0007" id="entity_GOL_guidance"><rect fill="#EDD6F0" height="57.9688" rx="2" ry="2" style="stroke:#7B3F9A;stroke-width:0.5;" width="177.3594" x="725.5" y="76.2969"/><ellipse cx="747.5" cy="98.2969" fill="none" rx="7.2" ry="7.2" style="stroke:#252327;stroke-width:1.95;"/><ellipse cx="747.5" cy="98.2969" fill="none" rx="4.35" ry="4.35" style="stroke:#252327;stroke-width:1.95;"/><ellipse cx="747.5" cy="98.2969" fill="#252327" rx="1.95" ry="1.95" style="stroke:#252327;stroke-width:0.5;"/><text fill="#000000" font-family="sans-serif" font-size="12" lengthAdjust="spacing" textLength="129.5449" x="763.3145" y="107.4668">Provide Development</text><text fill="#000000" font-family="sans-serif" font-size="12" lengthAdjust="spacing" textLength="148.2363" x="735.5" y="121.4355">Guidance (Humans &amp; AI)</text></g><!--entity CAP_y4xZme--><g class="entity" data-entity="CAP_y4xZme" data-source-line="17" data-uid="ent0009" id="entity_CAP_y4xZme"><rect fill="#F5DEB3" height="57.9688" rx="2" ry="2" style="stroke:#8B6914;stroke-width:0.5;" width="125.1113" x="127.5" y="214.2969"/><path d="M142.15,241.1719 L156.85,241.1719 L156.85,243.1219 L142.15,243.1219" fill="#252327"/><path d="M143.5,237.4969 L146.35,237.4969 L146.35,242.1469 L143.5,242.1469" fill="#252327"/><path d="M147.7,234.4969 L150.55,234.4969 L150.55,242.1469 L147.7,242.1469" fill="#252327"/><path d="M151.9,231.3469 L154.75,231.3469 L154.75,242.1469 L151.9,242.1469" fill="#252327"/><text fill="#000000" font-family="sans-serif" font-size="12" lengthAdjust="spacing" textLength="77.2969" x="165.3145" y="245.4668">Architectural</text><text fill="#000000" font-family="sans-serif" font-size="12" lengthAdjust="spacing" textLength="54.5859" x="137.5" y="259.4355">Modeling</text></g><!--entity CAP_gky5s4--><g class="entity" data-entity="CAP_gky5s4" data-source-line="18" data-uid="ent0010" id="entity_CAP_gky5s4"><rect fill="#F5DEB3" height="57.9688" rx="2" ry="2" style="stroke:#8B6914;stroke-width:0.5;" width="83.8438" x="313" y="214.2969"/><path d="M327.65,241.1719 L342.35,241.1719 L342.35,243.1219 L327.65,243.1219" fill="#252327"/><path d="M329,237.4969 L331.85,237.4969 L331.85,242.1469 L329,242.1469" fill="#252327"/><path d="M333.2,234.4969 L336.05,234.4969 L336.05,242.1469 L333.2,242.1469" fill="#252327"/><path d="M337.4,231.3469 L340.25,231.3469 L340.25,242.1469 L337.4,242.1469" fill="#252327"/><text fill="#000000" font-family="sans-serif" font-size="12" lengthAdjust="spacing" textLength="36.0293" x="350.8145" y="245.4668">Model</text><text fill="#000000" font-family="sans-serif" font-size="12" lengthAdjust="spacing" textLength="60.1875" x="323" y="259.4355">Validation</text></g><!--entity CAP_F4qy9O--><g class="entity" data-entity="CAP_F4qy9O" data-source-line="19" data-uid="ent0011" id="entity_CAP_F4qy9O"><rect fill="#F5DEB3" height="57.9688" rx="2" ry="2" style="stroke:#8B6914;stroke-width:0.5;" width="91.877" x="457" y="214.2969"/><path d="M471.65,241.1719 L486.35,241.1719 L486.35,243.1219 L471.65,243.1219" fill="#252327"/><path d="M473,237.4969 L475.85,237.4969 L475.85,242.1469 L473,242.1469" fill="#252327"/><path d="M477.2,234.4969 L480.05,234.4969 L480.05,242.1469 L477.2,242.1469" fill="#252327"/><path d="M481.4,231.3469 L484.25,231.3469 L484.25,242.1469 L481.4,242.1469" fill="#252327"/><text fill="#000000" font-family="sans-serif" font-size="12" lengthAdjust="spacing" textLength="44.0625" x="494.8145" y="245.4668">Artifact</text><text fill="#000000" font-family="sans-serif" font-size="12" lengthAdjust="spacing" textLength="58.957" x="467" y="259.4355">Authoring</text></g><!--entity CAP_QrHHmz--><g class="entity" data-entity="CAP_QrHHmz" data-source-line="20" data-uid="ent0012" id="entity_CAP_QrHHmz"><rect fill="#F5DEB3" height="57.9688" rx="2" ry="2" style="stroke:#8B6914;stroke-width:0.5;" width="91.877" x="609" y="214.2969"/><path d="M623.65,241.1719 L638.35,241.1719 L638.35,243.1219 L623.65,243.1219" fill="#252327"/><path d="M625,237.4969 L627.85,237.4969 L627.85,242.1469 L625,242.1469" fill="#252327"/><path d="M629.2,234.4969 L632.05,234.4969 L632.05,242.1469 L629.2,242.1469" fill="#252327"/><path d="M633.4,231.3469 L636.25,231.3469 L636.25,242.1469 L633.4,242.1469" fill="#252327"/><text fill="#000000" font-family="sans-serif" font-size="12" lengthAdjust="spacing" textLength="44.0625" x="646.8145" y="245.4668">Artifact</text><text fill="#000000" font-family="sans-serif" font-size="12" lengthAdjust="spacing" textLength="59.2852" x="619" y="259.4355">Discovery</text></g><!--entity CAP_ZnmAHe--><g class="entity" data-entity="CAP_ZnmAHe" data-source-line="21" data-uid="ent0013" id="entity_CAP_ZnmAHe"><rect fill="#F5DEB3" height="57.9688" rx="2" ry="2" style="stroke:#8B6914;stroke-width:0.5;" width="112.1621" x="761" y="214.2969"/><path d="M775.65,241.1719 L790.35,241.1719 L790.35,243.1219 L775.65,243.1219" fill="#252327"/><path d="M777,237.4969 L779.85,237.4969 L779.85,242.1469 L777,242.1469" fill="#252327"/><path d="M781.2,234.4969 L784.05,234.4969 L784.05,242.1469 L781.2,242.1469" fill="#252327"/><path d="M785.4,231.3469 L788.25,231.3469 L788.25,242.1469 L785.4,242.1469" fill="#252327"/><text fill="#000000" font-family="sans-serif" font-size="12" lengthAdjust="spacing" textLength="64.3477" x="798.8145" y="245.4668">Repository</text><text fill="#000000" font-family="sans-serif" font-size="12" lengthAdjust="spacing" textLength="72.6035" x="771" y="259.4355">Governance</text></g><!--entity CAP_0T4qjV--><g class="entity" data-entity="CAP_0T4qjV" data-source-line="22" data-uid="ent0014" id="entity_CAP_0T4qjV"><rect fill="#F5DEB3" height="57.9688" rx="2" ry="2" style="stroke:#8B6914;stroke-width:0.5;" width="129.1953" x="933.5" y="214.2969"/><path d="M948.15,241.1719 L962.85,241.1719 L962.85,243.1219 L948.15,243.1219" fill="#252327"/><path d="M949.5,237.4969 L952.35,237.4969 L952.35,242.1469 L949.5,242.1469" fill="#252327"/><path d="M953.7,234.4969 L956.55,234.4969 L956.55,242.1469 L953.7,242.1469" fill="#252327"/><path d="M957.9,231.3469 L960.75,231.3469 L960.75,242.1469 L957.9,242.1469" fill="#252327"/><text fill="#000000" font-family="sans-serif" font-size="12" lengthAdjust="spacing" textLength="81.3809" x="971.3145" y="245.4668">Configuration</text><text fill="#000000" font-family="sans-serif" font-size="12" lengthAdjust="spacing" textLength="79.0488" x="943.5" y="259.4355">Management</text></g><!--entity COA_BbjFAy--><g class="entity" data-entity="COA_BbjFAy" data-source-line="26" data-uid="ent0016" id="entity_COA_BbjFAy"><rect fill="#F5DEB3" height="57.9688" rx="2" ry="2" style="stroke:#8B6914;stroke-width:0.5;" width="175.7188" x="368" y="352.2969"/><ellipse cx="394.05" cy="370.3969" fill="none" rx="3" ry="3" style="stroke:#252327;stroke-width:1.95;"/><ellipse cx="394.05" cy="370.3969" fill="#252327" rx="1.05" ry="1.05" style="stroke:#252327;stroke-width:0.5;"/><path d="M383.49,381.2869 L382.11,379.9069 L389.16,372.8569 L390.54,374.2369" fill="#252327"/><path d="M387,372.5719 L389.85,372.5719 L389.85,374.5219 L387,374.5219" fill="#252327"/><path d="M388.875,373.5469 L388.875,376.3969 L390.825,376.3969 L390.825,373.5469" fill="#252327"/><text fill="#000000" font-family="sans-serif" font-size="12" lengthAdjust="spacing" textLength="127.9043" x="405.8145" y="383.4668">Markdown File-Based</text><text fill="#000000" font-family="sans-serif" font-size="12" lengthAdjust="spacing" textLength="57.2754" x="378" y="397.4355">Approach</text></g><!--entity COA_utgeNR--><g class="entity" data-entity="COA_utgeNR" data-source-line="27" data-uid="ent0017" id="entity_COA_utgeNR"><rect fill="#F5DEB3" height="57.9688" rx="2" ry="2" style="stroke:#8B6914;stroke-width:0.5;" width="144.2129" x="164" y="352.2969"/><ellipse cx="190.05" cy="370.3969" fill="none" rx="3" ry="3" style="stroke:#252327;stroke-width:1.95;"/><ellipse cx="190.05" cy="370.3969" fill="#252327" rx="1.05" ry="1.05" style="stroke:#252327;stroke-width:0.5;"/><path d="M179.49,381.2869 L178.11,379.9069 L185.16,372.8569 L186.54,374.2369" fill="#252327"/><path d="M183,372.5719 L185.85,372.5719 L185.85,374.5219 L183,374.5219" fill="#252327"/><path d="M184.875,373.5469 L184.875,376.3969 L186.825,376.3969 L186.825,373.5469" fill="#252327"/><text fill="#000000" font-family="sans-serif" font-size="12" lengthAdjust="spacing" textLength="96.3984" x="201.8145" y="383.4668">ArchiMate NEXT</text><text fill="#000000" font-family="sans-serif" font-size="12" lengthAdjust="spacing" textLength="112.0781" x="174" y="397.4355">Ontology Adoption</text></g><!--link GOL_Po1Qw3 to GOL_Lm2Bn2--><!--link GOL_Lm2Bn2 to GOL_planning--><!--link GOL_planning to GOL_Zx9Cv4--><!--link GOL_Zx9Cv4 to GOL_guidance--><!--link CAP_y4xZme to CAP_gky5s4--><!--link CAP_gky5s4 to CAP_F4qy9O--><!--link CAP_F4qy9O to CAP_QrHHmz--><!--link CAP_QrHHmz to CAP_ZnmAHe--><!--link CAP_ZnmAHe to CAP_0T4qjV--><!--link COA_BbjFAy to COA_utgeNR--><!--link GOL_Po1Qw3 to CAP_y4xZme--><g class="link" data-entity-1="GOL_Po1Qw3" data-entity-2="CAP_y4xZme" data-source-line="44" data-uid="lnk28" id="link_GOL_Po1Qw3_CAP_y4xZme"><path d="M143.38,134.5669 C143.38,157.9869 143.38,172.6669 143.38,196.0769" fill="none" id="GOL_Po1Qw3-to-CAP_y4xZme" style="stroke:#181818;stroke-width:1;"/><polygon fill="none" points="143.38,214.0769,149.38,196.0769,137.38,196.0769,143.38,214.0769" style="stroke:#181818;stroke-width:1;"/><text fill="#000000" font-family="sans-serif" font-size="12" lengthAdjust="spacing" textLength="77.6602" x="65.38" y="171.4555">&#171;realization&#187;</text></g><!--link GOL_Po1Qw3 to CAP_gky5s4--><g class="link" data-entity-1="GOL_Po1Qw3" data-entity-2="CAP_gky5s4" data-source-line="45" data-uid="lnk29" id="link_GOL_Po1Qw3_CAP_gky5s4"><path d="M159.25,134.4369 C159.25,160.3969 159.25,194.2969 159.25,194.2969 C159.25,194.2969 341,194.2969 341,194.2969 C341,194.2969 341,185.6769 341,196.2269" fill="none" id="GOL_Po1Qw3-to-CAP_gky5s4" style="stroke:#181818;stroke-width:1;"/><polygon fill="none" points="341,214.2269,347,196.2269,335,196.2269,341,214.2269" style="stroke:#181818;stroke-width:1;"/><text fill="#000000" font-family="sans-serif" font-size="12" lengthAdjust="spacing" textLength="77.6602" x="152.16" y="191.4355">&#171;realization&#187;</text></g><!--link GOL_Lm2Bn2 to CAP_gky5s4--><g class="link" data-entity-1="GOL_Lm2Bn2" data-entity-2="CAP_gky5s4" data-source-line="46" data-uid="lnk30" id="link_GOL_Lm2Bn2_CAP_gky5s4"><path d="M462.9,120.2969 C439.18,120.2969 420.67,120.2969 420.67,120.2969 C420.67,120.2969 420.67,229.2969 420.67,229.2969 C420.67,229.2969 428.04,229.2969 415.33,229.2969" fill="none" id="GOL_Lm2Bn2-to-CAP_gky5s4" style="stroke:#181818;stroke-width:1;"/><polygon fill="none" points="397.33,229.2969,415.33,235.2969,415.33,223.2969,397.33,229.2969" style="stroke:#181818;stroke-width:1;"/><text fill="#000000" font-family="sans-serif" font-size="12" lengthAdjust="spacing" textLength="77.6602" x="342.67" y="162.4855">&#171;realization&#187;</text></g><!--link GOL_Lm2Bn2 to CAP_QrHHmz--><g class="link" data-entity-1="GOL_Lm2Bn2" data-entity-2="CAP_QrHHmz" data-source-line="47" data-uid="lnk31" id="link_GOL_Lm2Bn2_CAP_QrHHmz"><path d="M637,134.5669 C637,157.9869 637,172.6669 637,196.0769" fill="none" id="GOL_Lm2Bn2-to-CAP_QrHHmz" style="stroke:#181818;stroke-width:1;"/><polygon fill="none" points="637,214.0769,643,196.0769,631,196.0769,637,214.0769" style="stroke:#181818;stroke-width:1;"/><text fill="#000000" font-family="sans-serif" font-size="12" lengthAdjust="spacing" textLength="77.6602" x="559" y="171.4555">&#171;realization&#187;</text></g><!--link GOL_planning to CAP_y4xZme--><g class="link" data-entity-1="GOL_planning" data-entity-2="CAP_y4xZme" data-source-line="48" data-uid="lnk32" id="link_GOL_planning_CAP_y4xZme"><path d="M280.25,134.5669 C280.25,172.6269 280.25,234.2969 280.25,234.2969 C280.25,234.2969 286.08,234.2969 270.68,234.2969" fill="none" id="GOL_planning-to-CAP_y4xZme" style="stroke:#181818;stroke-width:1;"/><polygon fill="none" points="252.68,234.2969,270.68,240.2969,270.68,228.2969,252.68,234.2969" style="stroke:#181818;stroke-width:1;"/><text fill="#000000" font-family="sans-serif" font-size="12" lengthAdjust="spacing" textLength="77.6602" x="202.25" y="210.3555">&#171;realization&#187;</text></g><!--link GOL_planning to CAP_F4qy9O--><g class="link" data-entity-1="GOL_planning" data-entity-2="CAP_F4qy9O" data-source-line="49" data-uid="lnk33" id="link_GOL_planning_CAP_F4qy9O"><path d="M402.52,105.2969 C422.61,105.2969 438.83,105.2969 438.83,105.2969 C438.83,105.2969 438.83,243.2969 438.83,243.2969 C438.83,243.2969 428.59,243.2969 438.71,243.2969" fill="none" id="GOL_planning-to-CAP_F4qy9O" style="stroke:#181818;stroke-width:1;"/><polygon fill="none" points="456.71,243.2969,438.71,237.2969,438.71,249.2969,456.71,243.2969" style="stroke:#181818;stroke-width:1;"/><text fill="#000000" font-family="sans-serif" font-size="12" lengthAdjust="spacing" textLength="77.6602" x="439.83" y="162.2155">&#171;realization&#187;</text></g><!--link GOL_Zx9Cv4 to CAP_ZnmAHe--><g class="link" data-entity-1="GOL_Zx9Cv4" data-entity-2="CAP_ZnmAHe" data-source-line="50" data-uid="lnk34" id="link_GOL_Zx9Cv4_CAP_ZnmAHe"><path d="M962.86,113.2969 C938.08,113.2969 918,113.2969 918,113.2969 C918,113.2969 918,234.2969 918,234.2969 C918,234.2969 914.36,234.2969 891.11,234.2969" fill="none" id="GOL_Zx9Cv4-to-CAP_ZnmAHe" style="stroke:#181818;stroke-width:1;"/><polygon fill="none" points="873.11,234.2969,891.11,240.2969,891.11,228.2969,873.11,234.2969" style="stroke:#181818;stroke-width:1;"/><text fill="#000000" font-family="sans-serif" font-size="12" lengthAdjust="spacing" textLength="77.6602" x="840" y="170.9455">&#171;realization&#187;</text></g><!--link GOL_guidance to CAP_QrHHmz--><g class="link" data-entity-1="GOL_guidance" data-entity-2="CAP_QrHHmz" data-source-line="51" data-uid="lnk35" id="link_GOL_guidance_CAP_QrHHmz"><path d="M743.25,134.5669 C743.25,172.6269 743.25,234.2969 743.25,234.2969 C743.25,234.2969 740.54,234.2969 719.19,234.2969" fill="none" id="GOL_guidance-to-CAP_QrHHmz" style="stroke:#181818;stroke-width:1;"/><polygon fill="none" points="701.19,234.2969,719.19,240.2969,719.19,228.2969,701.19,234.2969" style="stroke:#181818;stroke-width:1;"/><text fill="#000000" font-family="sans-serif" font-size="12" lengthAdjust="spacing" textLength="77.6602" x="665.25" y="202.5955">&#171;realization&#187;</text></g><!--reverse link CAP_y4xZme to COA_utgeNR--><g class="link" data-entity-1="CAP_y4xZme" data-entity-2="COA_utgeNR" data-source-line="54" data-uid="lnk37" id="link_CAP_y4xZme_COA_utgeNR"><path d="M193.5,290.5669 C193.5,313.9869 193.5,328.6669 193.5,352.0769" fill="none" id="CAP_y4xZme-backto-COA_utgeNR" style="stroke:#181818;stroke-width:1;"/><polygon fill="none" points="193.5,272.5669,187.5,290.5669,199.5,290.5669,193.5,272.5669" style="stroke:#181818;stroke-width:1;"/><text fill="#000000" font-family="sans-serif" font-size="12" lengthAdjust="spacing" textLength="77.6602" x="115.5" y="309.4555">&#171;realization&#187;</text></g><!--reverse link CAP_gky5s4 to COA_utgeNR--><g class="link" data-entity-1="CAP_gky5s4" data-entity-2="COA_utgeNR" data-source-line="55" data-uid="lnk39" id="link_CAP_gky5s4_COA_utgeNR"><path d="M340.5,290.5669 C340.5,328.6269 340.5,372.2969 340.5,372.2969 C340.5,372.2969 326.11,372.2969 308.01,372.2969" fill="none" id="CAP_gky5s4-backto-COA_utgeNR" style="stroke:#181818;stroke-width:1;"/><polygon fill="none" points="340.5,272.5669,334.5,290.5669,346.5,290.5669,340.5,272.5669" style="stroke:#181818;stroke-width:1;"/><text fill="#000000" font-family="sans-serif" font-size="12" lengthAdjust="spacing" textLength="77.6602" x="302" y="350.8155">&#171;realization&#187;</text></g><!--reverse link CAP_y4xZme to COA_BbjFAy--><g class="link" data-entity-1="CAP_y4xZme" data-entity-2="COA_BbjFAy" data-source-line="56" data-uid="lnk41" id="link_CAP_y4xZme_COA_BbjFAy"><path d="M223,290.5569 C223,309.3669 223,312.2969 223,312.2969 C223,312.2969 382.5,312.2969 382.5,312.2969 C382.5,312.2969 382.5,333.2269 382.5,352.0369" fill="none" id="CAP_y4xZme-backto-COA_BbjFAy" style="stroke:#181818;stroke-width:1;"/><polygon fill="none" points="223,272.5569,217,290.5569,229,290.5569,223,272.5569" style="stroke:#181818;stroke-width:1;"/><text fill="#000000" font-family="sans-serif" font-size="12" lengthAdjust="spacing" textLength="77.6602" x="224.75" y="309.4355">&#171;realization&#187;</text></g><!--reverse link CAP_F4qy9O to COA_BbjFAy--><g class="link" data-entity-1="CAP_F4qy9O" data-entity-2="COA_BbjFAy" data-source-line="57" data-uid="lnk43" id="link_CAP_F4qy9O_COA_BbjFAy"><path d="M500.5,290.5669 C500.5,313.9869 500.5,328.6669 500.5,352.0769" fill="none" id="CAP_F4qy9O-backto-COA_BbjFAy" style="stroke:#181818;stroke-width:1;"/><polygon fill="none" points="500.5,272.5669,494.5,290.5669,506.5,290.5669,500.5,272.5669" style="stroke:#181818;stroke-width:1;"/><text fill="#000000" font-family="sans-serif" font-size="12" lengthAdjust="spacing" textLength="77.6602" x="422.5" y="309.4555">&#171;realization&#187;</text></g><!--SRC=[fLNTJXf16BtdAKRJMBrOMYrUQ2p9YWfDH52CQImD6NQ7tT7P-TQPMNIr9htg0pHzGf-aC-l2Bh0ewDq7dFFzdJCVAvGxB789AfS_zR1mV1fWHIofY22Wuf38SXW5hBHIZFDO7FeffAGWH0fG7vI20BbK44THuFe7gXX17IKqnOlH0GIOSlJq-n-guH3tAQEA4edMK0qY8NK40sIdN9C4Sq_pL-k0cKJh0w6pDq7H8JQGZLMqjvTzh0k8GigzQXKzb13AqVS-ZFlkcLGFqi6CVDqiRpzMKLDtf4nNDV3rwDmXNRw6pWLso7E3iIbZQ3enbgZUEkwrOVFqziiIHGuvxcjGJO2KLaVXQ-83SudeyWlCg9lqFrlcEDZQvrjBbEb4OGX2eJR3dEjLTFbw8memDnkslstCLWXJuFAZTFHNIN168abcCr_UxTI6bINojWKCgRRP0HaI1c50kEhoUgINeoL1hypXfRZIuuHlyYOpf94H5xFAc1rFD6eRWDAKI63MvKrm2TEvJFwCyTnQpMxtuihTPK2MhfAadRP7KNxlEjwMbJTCeUW0Eth7TgHy42zCS5IvYNTQxwXmGAK3GoBYUHLEHQCHt2zTuOo48Aa24Mkdc0BSU61UaKiUs8tbXQW17r1FQsr4q79ZZZrYt3clpkVpoitLnRGJf-_R6-oOf6WDdlbJDqnSkt3BqH5bnDh7ahXQrp0KW1q_wNE2c_RQidlx_QiZEtvJpUGPD3K8dHn-F-_o5bV0G1zvsuLmRDWvTIFbaPCpiwEFoB8if3q85iCnH6eNoL0Gx2B2aZLBT4kLh- -pbsv96aOfEyF8-k5JroNyfw2UhwpywSp2GjJu_EK_52BJSvQ5XQZn6SeU_WmkzsQpi12LlhiiB4IbRoSB2r6f-REm49LQDtF6B2eJpsXdhZ1w-lCt-pkFjPNqpRfFdekSaCaurFfLpLr5jAizaiDNgtC9wPwA2IE9tqL8jrTCoCony1J5b5J9Oih8Mdb2AbSnOMIu1IVHYca1NnGi4nXPKVZgeCNmkRlFEsl1xBFmkIly3m00]--></g></svg>