<svg xmlns="http://www.w3.org/2000/svg" xmlns:xlink="http://www.w3.org/1999/xlink" contentStyleType="text/css" data-diagram-type="DESCRIPTION" height="403px" preserveAspectRatio="none" style="width:964px;height:403px;background:#FAFAFA;" version="1.1" viewBox="0 0 964 403" width="964px" zoomAndPan="magnify"><title>Technology Domain &#8212; Infrastructure &amp; Runtime</title><defs/><g><rect fill="#FAFAFA" height="403" style="stroke:none;stroke-width:1;" width="964" x="0" y="0"/><text fill="#000000" font-family="sans-serif" font-size="14" font-weight="bold" lengthAdjust="spacing" textLength="378.2393" x="285.8804" y="22.9951">Technology Domain &#8212; Infrastructure &amp; Runtime</text><!--cluster NOD_4EFX7z--><g class="cluster" data-entity="NOD_4EFX7z" data-source-line="8" data-uid="ent0002" id="cluster_NOD_4EFX7z"><rect fill="#CCFFCC" height="103" rx="2" ry="2" style="stroke:#2E7D32;stroke-width:1;" width="926" x="7" y="164.2969"/><path d="M383.7939,173.1969 L393.9939,173.1969 L393.9939,183.0969 L383.7939,183.0969" fill="#252327"/><path d="M393.3489,173.9169 L394.6389,172.4769 L397.6389,175.1769 L396.3489,176.6169" fill="#252327"/><path d="M396.0189,175.8969 L396.0189,185.7969 L397.9689,185.7969 L397.9689,175.8969" fill="#252327"/><path d="M396.3489,185.0769 L397.6389,186.5169 L394.6389,189.2169 L393.3489,187.7769" fill="#252327"/><path d="M383.1489,183.8169 L384.4389,182.3769 L387.4389,185.0769 L386.1489,186.5169" fill="#252327"/><path d="M386.7939,184.8219 L396.9939,184.8219 L396.9939,186.7719 L386.7939,186.7719" fill="#252327"/><path d="M393.0189,173.1969 L393.0189,183.0969 L394.9689,183.0969 L394.9689,173.1969" fill="#252327"/><text fill="#000000" font-family="sans-serif" font-size="12" font-weight="bold" lengthAdjust="spacing" textLength="156.2344" x="405.9717" y="187.4668">Developer Workstation</text></g><!--cluster Technology Services--><g class="cluster" data-entity="Technology Services" data-source-line="17" data-uid="ent0008" id="cluster_Technology Services"><rect fill="#E8FFEE" height="96" rx="2" ry="2" style="stroke:#2E7D32;stroke-width:1;" width="296" x="237" y="44.2969"/><text fill="#000000" font-family="sans-serif" font-size="12" font-weight="bold" lengthAdjust="spacing" textLength="138.7441" x="315.6279" y="57.4355">Technology Services</text></g><!--cluster Application Components\n(from Application)--><g class="cluster" data-entity="Application Components\n(from Application)" data-source-line="30" data-uid="ent0014" id="cluster_Application Components\n(from Application)"><rect fill="#E8F8FF" height="106" rx="2" ry="2" style="stroke:#0078A0;stroke-width:1;" width="726" x="232" y="291.2969"/><text fill="#000000" font-family="sans-serif" font-size="12" font-weight="bold" lengthAdjust="spacing" textLength="165.2109" x="512.3945" y="304.4355">Application Components</text><text fill="#000000" font-family="sans-serif" font-size="12" font-weight="bold" lengthAdjust="spacing" textLength="123.5742" x="533.2129" y="318.4043">(from Application)</text></g><!--entity SSW_o7a0ad--><g class="entity" data-entity="SSW_o7a0ad" data-source-line="9" data-uid="ent0003" id="entity_SSW_o7a0ad"><rect fill="#CCFFCC" height="44" rx="2" ry="2" style="stroke:#2E7D32;stroke-width:0.5;" width="129.998" x="634" y="207.2969"/><ellipse cx="654.8" cy="229.2969" fill="none" rx="4.95" ry="4.95" style="stroke:#252327;stroke-width:1.95;"/><ellipse cx="658.7" cy="230.4969" fill="none" rx="4.95" ry="4.95" style="stroke:#252327;stroke-width:1.95;"/><text fill="#000000" font-family="sans-serif" font-size="12" lengthAdjust="spacing" textLength="82.1836" x="671.8145" y="238.4668">Python 3.13+</text></g><!--entity SSW_xVrBYD--><g class="entity" data-entity="SSW_xVrBYD" data-source-line="10" data-uid="ent0004" id="entity_SSW_xVrBYD"><rect fill="#CCFFCC" height="44" rx="2" ry="2" style="stroke:#2E7D32;stroke-width:0.5;" width="148.8125" x="424.5" y="207.2969"/><ellipse cx="445.3" cy="229.2969" fill="none" rx="4.95" ry="4.95" style="stroke:#252327;stroke-width:1.95;"/><ellipse cx="449.2" cy="230.4969" fill="none" rx="4.95" ry="4.95" style="stroke:#252327;stroke-width:1.95;"/><text fill="#000000" font-family="sans-serif" font-size="12" lengthAdjust="spacing" textLength="100.998" x="462.3145" y="238.4668">PlantUML Engine</text></g><!--entity SSW_TzzVd--><g class="entity" data-entity="SSW_TzzVd" data-source-line="11" data-uid="ent0005" id="entity_SSW_TzzVd"><rect fill="#CCFFCC" height="44" rx="2" ry="2" style="stroke:#2E7D32;stroke-width:0.5;" width="93.1719" x="824.5" y="207.2969"/><ellipse cx="845.3" cy="229.2969" fill="none" rx="4.95" ry="4.95" style="stroke:#252327;stroke-width:1.95;"/><ellipse cx="849.2" cy="230.4969" fill="none" rx="4.95" ry="4.95" style="stroke:#252327;stroke-width:1.95;"/><text fill="#000000" font-family="sans-serif" font-size="12" lengthAdjust="spacing" textLength="45.3574" x="862.3145" y="238.4668">Git VCS</text></g><!--entity ART_YsLpM8--><g class="entity" data-entity="ART_YsLpM8" data-source-line="13" data-uid="ent0006" id="entity_ART_YsLpM8"><rect fill="#CCFFCC" height="44" rx="2" ry="2" style="stroke:#2E7D32;stroke-width:0.5;" width="133.3145" x="231.5" y="207.2969"/><path d="M247.5,222.5469 L256.2,222.5469 L259.5,225.8469 L259.5,236.0469 L247.5,236.0469" fill="#252327"/><path d="M255.225,222.5469 L255.225,225.8469 L257.175,225.8469 L257.175,222.5469" fill="#252327"/><path d="M256.2,224.8719 L259.5,224.8719 L259.5,226.8219 L256.2,226.8219" fill="#252327"/><text fill="#000000" font-family="sans-serif" font-size="12" lengthAdjust="spacing" textLength="85.5" x="269.3145" y="238.4668">Git Repository</text></g><!--entity ART_FtioFJ--><g class="entity" data-entity="ART_FtioFJ" data-source-line="14" data-uid="ent0007" id="entity_ART_FtioFJ"><rect fill="#CCFFCC" height="44" rx="2" ry="2" style="stroke:#2E7D32;stroke-width:0.5;" width="148.0566" x="23" y="207.2969"/><path d="M39,222.5469 L47.7,222.5469 L51,225.8469 L51,236.0469 L39,236.0469" fill="#252327"/><path d="M46.725,222.5469 L46.725,225.8469 L48.675,225.8469 L48.675,222.5469" fill="#252327"/><path d="M47.7,224.8719 L51,224.8719 L51,226.8219 L47.7,226.8219" fill="#252327"/><text fill="#000000" font-family="sans-serif" font-size="12" lengthAdjust="spacing" textLength="100.2422" x="60.8145" y="238.4668">SQLite Database</text></g><!--entity TSV_MSy15f--><g class="entity" data-entity="TSV_MSy15f" data-source-line="18" data-uid="ent0009" id="entity_TSV_MSy15f"><rect fill="#CCFFCC" height="47.9375" rx="2" ry="2" style="stroke:#2E7D32;stroke-width:0.5;" width="89.5156" x="253" y="76.2969"/><text fill="#000000" font-family="sans-serif" font-size="12" lengthAdjust="spacing" textLength="69.5156" x="263" y="97.4355">File System</text><text fill="#000000" font-family="sans-serif" font-size="12" lengthAdjust="spacing" textLength="44.3496" x="263" y="111.4043">Service</text></g><!--entity TSV_WluY9K--><g class="entity" data-entity="TSV_WluY9K" data-source-line="19" data-uid="ent0010" id="entity_TSV_WluY9K"><rect fill="#CCFFCC" height="47.9375" rx="2" ry="2" style="stroke:#2E7D32;stroke-width:0.5;" width="112.5137" x="403.5" y="76.2969"/><text fill="#000000" font-family="sans-serif" font-size="12" lengthAdjust="spacing" textLength="92.5137" x="413.5" y="97.4355">Version Control</text><text fill="#000000" font-family="sans-serif" font-size="12" lengthAdjust="spacing" textLength="44.3496" x="413.5" y="111.4043">Service</text></g><!--entity APP_ca3vm7--><g class="entity" data-entity="APP_ca3vm7" data-source-line="31" data-uid="ent0015" id="entity_APP_ca3vm7"><rect fill="#CCF2FF" height="44" rx="2" ry="2" style="stroke:#0078A0;stroke-width:0.5;" width="131.3926" x="633.5" y="337.2969"/><path d="M649.5,353.5969 L660.6,353.5969 L660.6,364.9969 L649.5,364.9969" fill="#252327"/><path d="M646.95,354.7219 L649.5,354.7219 L649.5,356.6719 L646.95,356.6719" fill="#252327"/><path d="M646.95,358.3219 L649.5,358.3219 L649.5,360.2719 L646.95,360.2719" fill="#252327"/><path d="M646.95,361.9219 L649.5,361.9219 L649.5,363.8719 L646.95,363.8719" fill="#252327"/><path d="M660.6,354.7219 L662.7,354.7219 L662.7,356.6719 L660.6,356.6719" fill="#252327"/><path d="M660.6,358.3219 L662.7,358.3219 L662.7,360.2719 L660.6,360.2719" fill="#252327"/><path d="M660.6,361.9219 L662.7,361.9219 L662.7,363.8719 L660.6,363.8719" fill="#252327"/><text fill="#000000" font-family="sans-serif" font-size="12" lengthAdjust="spacing" textLength="83.5781" x="671.3145" y="368.4668">Model Verifier</text></g><!--entity APP_JOmFWy--><g class="entity" data-entity="APP_JOmFWy" data-source-line="32" data-uid="ent0016" id="entity_APP_JOmFWy"><rect fill="#CCF2FF" height="44" rx="2" ry="2" style="stroke:#0078A0;stroke-width:0.5;" width="136.3613" x="248" y="337.2969"/><path d="M264,353.5969 L275.1,353.5969 L275.1,364.9969 L264,364.9969" fill="#252327"/><path d="M261.45,354.7219 L264,354.7219 L264,356.6719 L261.45,356.6719" fill="#252327"/><path d="M261.45,358.3219 L264,358.3219 L264,360.2719 L261.45,360.2719" fill="#252327"/><path d="M261.45,361.9219 L264,361.9219 L264,363.8719 L261.45,363.8719" fill="#252327"/><path d="M275.1,354.7219 L277.2,354.7219 L277.2,356.6719 L275.1,356.6719" fill="#252327"/><path d="M275.1,358.3219 L277.2,358.3219 L277.2,360.2719 L275.1,360.2719" fill="#252327"/><path d="M275.1,361.9219 L277.2,361.9219 L277.2,363.8719 L275.1,363.8719" fill="#252327"/><text fill="#000000" font-family="sans-serif" font-size="12" lengthAdjust="spacing" textLength="88.5469" x="285.8145" y="368.4668">SQLite Indexer</text></g><!--entity APP_v9LvfK--><g class="entity" data-entity="APP_v9LvfK" data-source-line="33" data-uid="ent0017" id="entity_APP_v9LvfK"><rect fill="#CCF2FF" height="44" rx="2" ry="2" style="stroke:#0078A0;stroke-width:0.5;" width="129.2246" x="444.5" y="337.2969"/><path d="M460.5,353.5969 L471.6,353.5969 L471.6,364.9969 L460.5,364.9969" fill="#252327"/><path d="M457.95,354.7219 L460.5,354.7219 L460.5,356.6719 L457.95,356.6719" fill="#252327"/><path d="M457.95,358.3219 L460.5,358.3219 L460.5,360.2719 L457.95,360.2719" fill="#252327"/><path d="M457.95,361.9219 L460.5,361.9219 L460.5,363.8719 L457.95,363.8719" fill="#252327"/><path d="M471.6,354.7219 L473.7,354.7219 L473.7,356.6719 L471.6,356.6719" fill="#252327"/><path d="M471.6,358.3219 L473.7,358.3219 L473.7,360.2719 L471.6,360.2719" fill="#252327"/><path d="M471.6,361.9219 L473.7,361.9219 L473.7,363.8719 L471.6,363.8719" fill="#252327"/><text fill="#000000" font-family="sans-serif" font-size="12" lengthAdjust="spacing" textLength="81.4102" x="482.3145" y="368.4668">Query Engine</text></g><!--entity APP_kRZYOA--><g class="entity" data-entity="APP_kRZYOA" data-source-line="34" data-uid="ent0018" id="entity_APP_kRZYOA"><rect fill="#CCF2FF" height="44" rx="2" ry="2" style="stroke:#0078A0;stroke-width:0.5;" width="116.9492" x="824.5" y="337.2969"/><path d="M840.5,353.5969 L851.6,353.5969 L851.6,364.9969 L840.5,364.9969" fill="#252327"/><path d="M837.95,354.7219 L840.5,354.7219 L840.5,356.6719 L837.95,356.6719" fill="#252327"/><path d="M837.95,358.3219 L840.5,358.3219 L840.5,360.2719 L837.95,360.2719" fill="#252327"/><path d="M837.95,361.9219 L840.5,361.9219 L840.5,363.8719 L837.95,363.8719" fill="#252327"/><path d="M851.6,354.7219 L853.7,354.7219 L853.7,356.6719 L851.6,356.6719" fill="#252327"/><path d="M851.6,358.3219 L853.7,358.3219 L853.7,360.2719 L851.6,360.2719" fill="#252327"/><path d="M851.6,361.9219 L853.7,361.9219 L853.7,363.8719 L851.6,363.8719" fill="#252327"/><text fill="#000000" font-family="sans-serif" font-size="12" lengthAdjust="spacing" textLength="69.1348" x="862.3145" y="368.4668">MCP Server</text></g><!--link SSW_TzzVd to TSV_WluY9K--><g class="link" data-entity-1="SSW_TzzVd" data-entity-2="TSV_WluY9K" data-source-line="23" data-uid="lnk11" id="link_SSW_TzzVd_TSV_WluY9K"><path d="M871,207.1169 C871,170.2369 871,100.2969 871,100.2969 C871,100.2969 647.46,100.2969 534.72,100.2969" fill="none" id="SSW_TzzVd-to-TSV_WluY9K" style="stroke:#181818;stroke-width:1;"/><polygon fill="none" points="516.72,100.2969,534.72,106.2969,534.72,94.2969,516.72,100.2969" style="stroke:#181818;stroke-width:1;"/><text fill="#000000" font-family="sans-serif" font-size="12" lengthAdjust="spacing" textLength="77.6602" x="669.27" y="97.4355">&#171;realization&#187;</text></g><!--link TSV_MSy15f to ART_YsLpM8--><g class="link" data-entity-1="TSV_MSy15f" data-entity-2="ART_YsLpM8" data-source-line="26" data-uid="lnk12" id="link_TSV_MSy15f_ART_YsLpM8"><path d="M298,124.5569 C298,148.3569 298,178.3069 298,201.2969" fill="none" id="TSV_MSy15f-to-ART_YsLpM8" style="stroke:#181818;stroke-width:1;"/><polygon fill="#181818" points="298,207.2969,302,198.2969,298,202.2969,294,198.2969,298,207.2969" style="stroke:#181818;stroke-width:1;"/><text fill="#000000" font-family="sans-serif" font-size="12" lengthAdjust="spacing" textLength="32.1563" x="265" y="163.0655">hosts</text></g><!--link TSV_MSy15f to ART_FtioFJ--><g class="link" data-entity-1="TSV_MSy15f" data-entity-2="ART_FtioFJ" data-source-line="27" data-uid="lnk13" id="link_TSV_MSy15f_ART_FtioFJ"><path d="M252.89,100.2969 C193.63,100.2969 97,100.2969 97,100.2969 C97,100.2969 97,164.2369 97,201.1169" fill="none" id="TSV_MSy15f-to-ART_FtioFJ" style="stroke:#181818;stroke-width:1;"/><polygon fill="#181818" points="97,207.1169,101,198.1169,97,202.1169,93,198.1169,97,207.1169" style="stroke:#181818;stroke-width:1;"/><text fill="#000000" font-family="sans-serif" font-size="12" lengthAdjust="spacing" textLength="32.1563" x="88.53" y="97.4355">hosts</text></g><!--link TSV_MSy15f to TSV_WluY9K--><!--link SSW_o7a0ad to APP_ca3vm7--><g class="link" data-entity-1="SSW_o7a0ad" data-entity-2="APP_ca3vm7" data-source-line="41" data-uid="lnk20" id="link_SSW_o7a0ad_APP_ca3vm7"><path d="M720.67,251.3469 C720.67,275.2569 720.67,307.1869 720.67,331.1369" fill="none" id="SSW_o7a0ad-to-APP_ca3vm7" style="stroke:#181818;stroke-width:1;"/><polygon fill="#181818" points="720.67,337.1369,724.67,328.1369,720.67,332.1369,716.67,328.1369,720.67,337.1369" style="stroke:#181818;stroke-width:1;"/><text fill="#000000" font-family="sans-serif" font-size="12" lengthAdjust="spacing" textLength="26.3965" x="693.67" y="291.3855">runs</text></g><!--link SSW_o7a0ad to APP_JOmFWy--><g class="link" data-entity-1="SSW_o7a0ad" data-entity-2="APP_JOmFWy" data-source-line="42" data-uid="lnk21" id="link_SSW_o7a0ad_APP_JOmFWy"><path d="M677.33,251.3069 C677.33,270.1569 677.33,294.2969 677.33,294.2969 C677.33,294.2969 374.25,294.2969 374.25,294.2969 C374.25,294.2969 374.25,312.4369 374.25,331.2869" fill="none" id="SSW_o7a0ad-to-APP_JOmFWy" style="stroke:#181818;stroke-width:1;"/><polygon fill="#181818" points="374.25,337.2869,378.25,328.2869,374.25,332.2869,370.25,328.2869,374.25,337.2869" style="stroke:#181818;stroke-width:1;"/><text fill="#000000" font-family="sans-serif" font-size="12" lengthAdjust="spacing" textLength="26.3965" x="498.79" y="291.4355">runs</text></g><!--link SSW_o7a0ad to APP_v9LvfK--><g class="link" data-entity-1="SSW_o7a0ad" data-entity-2="APP_v9LvfK" data-source-line="43" data-uid="lnk22" id="link_SSW_o7a0ad_APP_v9LvfK"><path d="M633.98,229.2969 C617.07,229.2969 603.5,229.2969 603.5,229.2969 C603.5,229.2969 603.5,359.2969 603.5,359.2969 C603.5,359.2969 596.21,359.2969 579.6,359.2969" fill="none" id="SSW_o7a0ad-to-APP_v9LvfK" style="stroke:#181818;stroke-width:1;"/><polygon fill="#181818" points="573.6,359.2969,582.6,363.2969,578.6,359.2969,582.6,355.2969,573.6,359.2969" style="stroke:#181818;stroke-width:1;"/><text fill="#000000" font-family="sans-serif" font-size="12" lengthAdjust="spacing" textLength="26.3965" x="576.5" y="291.1455">runs</text></g><!--link SSW_o7a0ad to APP_kRZYOA--><g class="link" data-entity-1="SSW_o7a0ad" data-entity-2="APP_kRZYOA" data-source-line="44" data-uid="lnk23" id="link_SSW_o7a0ad_APP_kRZYOA"><path d="M764.02,229.2969 C780.93,229.2969 794.5,229.2969 794.5,229.2969 C794.5,229.2969 794.5,359.2969 794.5,359.2969 C794.5,359.2969 802,359.2969 818.46,359.2969" fill="none" id="SSW_o7a0ad-to-APP_kRZYOA" style="stroke:#181818;stroke-width:1;"/><polygon fill="#181818" points="824.46,359.2969,815.46,355.2969,819.46,359.2969,815.46,363.2969,824.46,359.2969" style="stroke:#181818;stroke-width:1;"/><text fill="#000000" font-family="sans-serif" font-size="12" lengthAdjust="spacing" textLength="26.3965" x="767.5" y="291.1755">runs</text></g><!--link APP_JOmFWy to ART_FtioFJ--><g class="link" data-entity-1="APP_JOmFWy" data-entity-2="ART_FtioFJ" data-source-line="45" data-uid="lnk24" id="link_APP_JOmFWy_ART_FtioFJ"><path d="M247.91,359.2969 C183.62,359.2969 97,359.2969 97,359.2969 C97,359.2969 97,294.4369 97,257.3469" fill="none" id="APP_JOmFWy-to-ART_FtioFJ" style="stroke:#181818;stroke-width:1;"/><polygon fill="#181818" points="97,251.3469,93,260.3469,97,256.3469,101,260.3469,97,251.3469" style="stroke:#181818;stroke-width:1;"/><text fill="#000000" font-family="sans-serif" font-size="12" lengthAdjust="spacing" textLength="36.4219" x="81.48" y="356.4355">writes</text></g><!--SRC=[fLN_Jjim4Fu_Jt6WQHkQqWrrY85OfQwb26YXD5sxRaoLIIwDHM97jbD86T8UOa-u9vdJX3I1KZ7ufrAJxuVlxZjdZJBRZno4IkNzc0ZRem5HQ4g50hcAGvILC0fyOsqvRkB7ePT13CL3K1mkk58y08SAj1NbJB-WoaVee-qnxlD934qU4ChWx-y_SCXSGQGIaQqYWV0QUX5JD433IEY4JJHpVUzLRZa-uGxUI9lu-7cpidLRWoPEqUSX2XXoSIaLIKpNOMylGTPgG2ISd3R77_TRtxPdS6C0FA9inRhimEAkkYAYxD6DbSSPL2kRrNU9T1cQcbZMSCotoGVYFC_29qnzxRHXdqqemrKkrmFnPTHybii1LJ1eMAlK-xFPm34ULwyBHLrYgmUwFGovf8gBE96_WwN2zLv_F9BjiFFfFuMjipPL24sYo0MHk5ovfKVUEZ9kIw4fvCr2CQKsoeIzU7mWU1HIDj4wzrBHeletxSyvoyXbRlOmFKBV6emxLhovvPPb1YYapY8qE5E2-q-L6lhHQESugUPDTWYGsPGW57nA7PGWivACV6HW_geL-B2hNGGIdyxc6r6h9NftlTC2Ub3eW3wUgwkLSnzZKGcOPgqmDQtcSQdaCaJQ_HoHk8IXJ-svBTWy23b3fYtVka9V3CMNplmYs00HiUGaAczASP15GYDNEsSFv3RcwLZyVtp0fTWj2BbwAO8TVO_ue8T9NOhYdaTEoTBOxOvjKfq6soymp39_o1oyVehXqMdG6iOlC3oBKCI5YsUrtNIdFNMFNzBGHdU-aa-fxRBtVNHQJvV1D4seHugRFebvf7P1XZhW3g2FmJnWLrHv-hiooUOk4qOfiJyywZZ8VWewyPHPt3R3MDpVQRBpIUfawtpAPO2qyoi0QQzM0DBwxW05pGVRTILqAAJn3m00]--></g></svg>