<svg xmlns="http://www.w3.org/2000/svg" xmlns:xlink="http://www.w3.org/1999/xlink" contentStyleType="text/css" data-diagram-type="DESCRIPTION" height="404px" preserveAspectRatio="none" style="width:1760px;height:404px;background:#FAFAFA;" version="1.1" viewBox="0 0 1760 404" width="1760px" zoomAndPan="magnify"><title>The Forces Shaping This System</title><defs/><g><rect fill="#FAFAFA" height="404" style="stroke:none;stroke-width:1;" width="1760" x="0" y="0"/><text fill="#000000" font-family="sans-serif" font-size="14" font-weight="bold" lengthAdjust="spacing" textLength="255.9922" x="745.0039" y="22.9951">The Forces Shaping This System</text><!--cluster Stakeholders--><g class="cluster" data-entity="Stakeholders" data-source-line="7" data-uid="ent0002" id="cluster_Stakeholders"><rect fill="#F7EEF9" height="92" rx="2" ry="2" style="stroke:#7B3F9A;stroke-width:1;" width="1002" x="77" y="44.2969"/><text fill="#000000" font-family="sans-serif" font-size="12" font-weight="bold" lengthAdjust="spacing" textLength="89.2852" x="533.3574" y="57.4355">Stakeholders</text></g><!--cluster Industry Forces--><g class="cluster" data-entity="Industry Forces" data-source-line="19" data-uid="ent0012" id="cluster_Industry Forces"><rect fill="#F7EEF9" height="92" rx="2" ry="2" style="stroke:#7B3F9A;stroke-width:1;" width="1714" x="7" y="168.2969"/><text fill="#000000" font-family="sans-serif" font-size="12" font-weight="bold" lengthAdjust="spacing" textLength="105.6914" x="811.1543" y="181.4355">Industry Forces</text></g><!--cluster Problem Assessments--><g class="cluster" data-entity="Problem Assessments" data-source-line="29" data-uid="ent0020" id="cluster_Problem Assessments"><rect fill="#F7EEF9" height="106" rx="2" ry="2" style="stroke:#7B3F9A;stroke-width:1;" width="1746" x="8" y="292.2969"/><text fill="#000000" font-family="sans-serif" font-size="12" font-weight="bold" lengthAdjust="spacing" textLength="148.541" x="806.7295" y="305.4355">Problem Assessments</text></g><!--entity STK_aB3dE1--><g class="entity" data-entity="STK_aB3dE1" data-source-line="8" data-uid="ent0003" id="entity_STK_aB3dE1"><rect fill="#EDD6F0" height="44" rx="2" ry="2" style="stroke:#7B3F9A;stroke-width:0.5;" width="101.8848" x="461" y="76.2969"/><path d="M475.65,92.4469 L486.6,92.4469 L490.5,98.2969 L486.6,104.1469 L475.65,104.1469 L479.4,98.2969" fill="#252327"/><text fill="#000000" font-family="sans-serif" font-size="12" lengthAdjust="spacing" textLength="3.8145" x="495" y="107.4668">&#160;</text><text fill="#000000" font-family="sans-serif" font-size="12" lengthAdjust="spacing" textLength="54.0703" x="498.8145" y="107.4668">Architect</text></g><!--entity STK_K9xTq2--><g class="entity" data-entity="STK_K9xTq2" data-source-line="9" data-uid="ent0004" id="entity_STK_K9xTq2"><rect fill="#EDD6F0" height="44" rx="2" ry="2" style="stroke:#7B3F9A;stroke-width:0.5;" width="109.5313" x="93" y="76.2969"/><path d="M107.65,92.4469 L118.6,92.4469 L122.5,98.2969 L118.6,104.1469 L107.65,104.1469 L111.4,98.2969" fill="#252327"/><text fill="#000000" font-family="sans-serif" font-size="12" lengthAdjust="spacing" textLength="3.8145" x="127" y="107.4668">&#160;</text><text fill="#000000" font-family="sans-serif" font-size="12" lengthAdjust="spacing" textLength="61.7168" x="130.8145" y="107.4668">Developer</text></g><!--entity STK_Rr9Ss9--><g class="entity" data-entity="STK_Rr9Ss9" data-source-line="10" data-uid="ent0005" id="entity_STK_Rr9Ss9"><rect fill="#EDD6F0" height="44" rx="2" ry="2" style="stroke:#7B3F9A;stroke-width:0.5;" width="227.9668" x="623" y="76.2969"/><path d="M637.65,92.4469 L648.6,92.4469 L652.5,98.2969 L648.6,104.1469 L637.65,104.1469 L641.4,98.2969" fill="#252327"/><text fill="#000000" font-family="sans-serif" font-size="12" lengthAdjust="spacing" textLength="3.8145" x="657" y="107.4668">&#160;</text><text fill="#000000" font-family="sans-serif" font-size="12" lengthAdjust="spacing" textLength="36.334" x="660.8145" y="107.4668">Upper</text><text fill="#000000" font-family="sans-serif" font-size="12" lengthAdjust="spacing" textLength="3.8145" x="697.1484" y="107.4668">&#160;</text><text fill="#000000" font-family="sans-serif" font-size="12" lengthAdjust="spacing" textLength="57.1406" x="700.9629" y="107.4668">Technical</text><text fill="#000000" font-family="sans-serif" font-size="12" lengthAdjust="spacing" textLength="3.8145" x="758.1035" y="107.4668">&#160;</text><text fill="#000000" font-family="sans-serif" font-size="12" lengthAdjust="spacing" textLength="79.0488" x="761.918" y="107.4668">Management</text></g><!--entity STK_4oprPM--><g class="entity" data-entity="STK_4oprPM" data-source-line="11" data-uid="ent0006" id="entity_STK_4oprPM"><rect fill="#EDD6F0" height="44" rx="2" ry="2" style="stroke:#7B3F9A;stroke-width:0.5;" width="152.1113" x="911" y="76.2969"/><path d="M925.65,92.4469 L936.6,92.4469 L940.5,98.2969 L936.6,104.1469 L925.65,104.1469 L929.4,98.2969" fill="#252327"/><text fill="#000000" font-family="sans-serif" font-size="12" lengthAdjust="spacing" textLength="3.8145" x="945" y="107.4668">&#160;</text><text fill="#000000" font-family="sans-serif" font-size="12" lengthAdjust="spacing" textLength="47.0391" x="948.8145" y="107.4668">DevOps</text><text fill="#000000" font-family="sans-serif" font-size="12" lengthAdjust="spacing" textLength="3.8145" x="995.8535" y="107.4668">&#160;</text><text fill="#000000" font-family="sans-serif" font-size="12" lengthAdjust="spacing" textLength="53.4434" x="999.668" y="107.4668">Engineer</text></g><!--entity STK_Zp8Lm4--><g class="entity" data-entity="STK_Zp8Lm4" data-source-line="12" data-uid="ent0007" id="entity_STK_Zp8Lm4"><rect fill="#EDD6F0" height="44" rx="2" ry="2" style="stroke:#7B3F9A;stroke-width:0.5;" width="136.8477" x="263.5" y="76.2969"/><path d="M278.15,92.4469 L289.1,92.4469 L293,98.2969 L289.1,104.1469 L278.15,104.1469 L281.9,98.2969" fill="#252327"/><text fill="#000000" font-family="sans-serif" font-size="12" lengthAdjust="spacing" textLength="3.8145" x="297.5" y="107.4668">&#160;</text><text fill="#000000" font-family="sans-serif" font-size="12" lengthAdjust="spacing" textLength="46.0371" x="301.3145" y="107.4668">Product</text><text fill="#000000" font-family="sans-serif" font-size="12" lengthAdjust="spacing" textLength="3.8145" x="347.3516" y="107.4668">&#160;</text><text fill="#000000" font-family="sans-serif" font-size="12" lengthAdjust="spacing" textLength="39.1816" x="351.166" y="107.4668">Owner</text></g><!--entity DRV_GR9prv--><g class="entity" data-entity="DRV_GR9prv" data-source-line="20" data-uid="ent0013" id="entity_DRV_GR9prv"><rect fill="#EDD6F0" height="44" rx="2" ry="2" style="stroke:#7B3F9A;stroke-width:0.5;" width="383.2461" x="22.5" y="200.2969"/><ellipse cx="44.5" cy="222.2969" fill="none" rx="6.9" ry="6.9" style="stroke:#252327;stroke-width:1.95;"/><ellipse cx="44.5" cy="222.2969" fill="none" rx="2.55" ry="2.55" style="stroke:#252327;stroke-width:1.95;"/><path d="M43.525,213.7469 L43.525,218.2469 L45.475,218.2469 L45.475,213.7469" fill="#252327"/><path d="M43.525,226.3469 L43.525,230.8469 L45.475,230.8469 L45.475,226.3469" fill="#252327"/><path d="M35.95,221.3219 L40.45,221.3219 L40.45,223.2719 L35.95,223.2719" fill="#252327"/><path d="M48.55,221.3219 L53.05,221.3219 L53.05,223.2719 L48.55,223.2719" fill="#252327"/><path d="M37.81,216.9869 L39.19,215.6069 L42.34,218.7569 L40.96,220.1369" fill="#252327"/><path d="M46.66,225.8369 L48.04,224.4569 L51.19,227.6069 L49.81,228.9869" fill="#252327"/><path d="M49.81,215.6069 L51.19,216.9869 L48.04,220.1369 L46.66,218.7569" fill="#252327"/><path d="M40.96,224.4569 L42.34,225.8369 L39.19,228.9869 L37.81,227.6069" fill="#252327"/><text fill="#000000" font-family="sans-serif" font-size="12" lengthAdjust="spacing" textLength="3.8145" x="56.5" y="231.4668">&#160;</text><text fill="#000000" font-family="sans-serif" font-size="12" lengthAdjust="spacing" textLength="66.082" x="60.3145" y="231.4668">AI-Assisted</text><text fill="#000000" font-family="sans-serif" font-size="12" lengthAdjust="spacing" textLength="3.8145" x="126.3965" y="231.4668">&#160;</text><text fill="#000000" font-family="sans-serif" font-size="12" lengthAdjust="spacing" textLength="80.7832" x="130.2109" y="231.4668">Development</text><text fill="#000000" font-family="sans-serif" font-size="12" lengthAdjust="spacing" textLength="3.8145" x="210.9941" y="231.4668">&#160;</text><text fill="#000000" font-family="sans-serif" font-size="12" lengthAdjust="spacing" textLength="13.6055" x="214.8086" y="231.4668">as</text><text fill="#000000" font-family="sans-serif" font-size="12" lengthAdjust="spacing" textLength="3.8145" x="228.4141" y="231.4668">&#160;</text><text fill="#000000" font-family="sans-serif" font-size="12" lengthAdjust="spacing" textLength="58.875" x="232.2285" y="231.4668">Dominant</text><text fill="#000000" font-family="sans-serif" font-size="12" lengthAdjust="spacing" textLength="3.8145" x="291.1035" y="231.4668">&#160;</text><text fill="#000000" font-family="sans-serif" font-size="12" lengthAdjust="spacing" textLength="64.3184" x="294.918" y="231.4668">Production</text><text fill="#000000" font-family="sans-serif" font-size="12" lengthAdjust="spacing" textLength="3.8145" x="359.2363" y="231.4668">&#160;</text><text fill="#000000" font-family="sans-serif" font-size="12" lengthAdjust="spacing" textLength="32.6953" x="363.0508" y="231.4668">Mode</text></g><!--entity DRV_Rt6Yu2--><g class="entity" data-entity="DRV_Rt6Yu2" data-source-line="21" data-uid="ent0014" id="entity_DRV_Rt6Yu2"><rect fill="#EDD6F0" height="44" rx="2" ry="2" style="stroke:#7B3F9A;stroke-width:0.5;" width="411.4824" x="465.5" y="200.2969"/><ellipse cx="487.5" cy="222.2969" fill="none" rx="6.9" ry="6.9" style="stroke:#252327;stroke-width:1.95;"/><ellipse cx="487.5" cy="222.2969" fill="none" rx="2.55" ry="2.55" style="stroke:#252327;stroke-width:1.95;"/><path d="M486.525,213.7469 L486.525,218.2469 L488.475,218.2469 L488.475,213.7469" fill="#252327"/><path d="M486.525,226.3469 L486.525,230.8469 L488.475,230.8469 L488.475,226.3469" fill="#252327"/><path d="M478.95,221.3219 L483.45,221.3219 L483.45,223.2719 L478.95,223.2719" fill="#252327"/><path d="M491.55,221.3219 L496.05,221.3219 L496.05,223.2719 L491.55,223.2719" fill="#252327"/><path d="M480.81,216.9869 L482.19,215.6069 L485.34,218.7569 L483.96,220.1369" fill="#252327"/><path d="M489.66,225.8369 L491.04,224.4569 L494.19,227.6069 L492.81,228.9869" fill="#252327"/><path d="M492.81,215.6069 L494.19,216.9869 L491.04,220.1369 L489.66,218.7569" fill="#252327"/><path d="M483.96,224.4569 L485.34,225.8369 L482.19,228.9869 L480.81,227.6069" fill="#252327"/><text fill="#000000" font-family="sans-serif" font-size="12" lengthAdjust="spacing" textLength="3.8145" x="499.5" y="231.4668">&#160;</text><text fill="#000000" font-family="sans-serif" font-size="12" lengthAdjust="spacing" textLength="62.2207" x="503.3145" y="231.4668">Increasing</text><text fill="#000000" font-family="sans-serif" font-size="12" lengthAdjust="spacing" textLength="3.8145" x="565.5352" y="231.4668">&#160;</text><text fill="#000000" font-family="sans-serif" font-size="12" lengthAdjust="spacing" textLength="50.8887" x="569.3496" y="231.4668">Demand</text><text fill="#000000" font-family="sans-serif" font-size="12" lengthAdjust="spacing" textLength="3.8145" x="620.2383" y="231.4668">&#160;</text><text fill="#000000" font-family="sans-serif" font-size="12" lengthAdjust="spacing" textLength="16.5" x="624.0527" y="231.4668">for</text><text fill="#000000" font-family="sans-serif" font-size="12" lengthAdjust="spacing" textLength="3.8145" x="640.5527" y="231.4668">&#160;</text><text fill="#000000" font-family="sans-serif" font-size="12" lengthAdjust="spacing" textLength="30.0117" x="644.3672" y="231.4668">More</text><text fill="#000000" font-family="sans-serif" font-size="12" lengthAdjust="spacing" textLength="3.8145" x="674.3789" y="231.4668">&#160;</text><text fill="#000000" font-family="sans-serif" font-size="12" lengthAdjust="spacing" textLength="61.5996" x="678.1934" y="231.4668">Autonomy</text><text fill="#000000" font-family="sans-serif" font-size="12" lengthAdjust="spacing" textLength="3.8145" x="739.793" y="231.4668">&#160;</text><text fill="#000000" font-family="sans-serif" font-size="12" lengthAdjust="spacing" textLength="11.5664" x="743.6074" y="231.4668">of</text><text fill="#000000" font-family="sans-serif" font-size="12" lengthAdjust="spacing" textLength="3.8145" x="755.1738" y="231.4668">&#160;</text><text fill="#000000" font-family="sans-serif" font-size="12" lengthAdjust="spacing" textLength="40.0078" x="758.9883" y="231.4668">Teams</text><text fill="#000000" font-family="sans-serif" font-size="12" lengthAdjust="spacing" textLength="3.8145" x="798.9961" y="231.4668">&#160;</text><text fill="#000000" font-family="sans-serif" font-size="12" lengthAdjust="spacing" textLength="9.3574" x="802.8105" y="231.4668">&amp;</text><text fill="#000000" font-family="sans-serif" font-size="12" lengthAdjust="spacing" textLength="3.8145" x="812.168" y="231.4668">&#160;</text><text fill="#000000" font-family="sans-serif" font-size="12" lengthAdjust="spacing" textLength="51" x="815.9824" y="231.4668">Systems</text></g><!--entity DRV_Ui5Op3--><g class="entity" data-entity="DRV_Ui5Op3" data-source-line="22" data-uid="ent0015" id="entity_DRV_Ui5Op3"><rect fill="#EDD6F0" height="44" rx="2" ry="2" style="stroke:#7B3F9A;stroke-width:0.5;" width="332.627" x="1371.5" y="200.2969"/><ellipse cx="1393.5" cy="222.2969" fill="none" rx="6.9" ry="6.9" style="stroke:#252327;stroke-width:1.95;"/><ellipse cx="1393.5" cy="222.2969" fill="none" rx="2.55" ry="2.55" style="stroke:#252327;stroke-width:1.95;"/><path d="M1392.525,213.7469 L1392.525,218.2469 L1394.475,218.2469 L1394.475,213.7469" fill="#252327"/><path d="M1392.525,226.3469 L1392.525,230.8469 L1394.475,230.8469 L1394.475,226.3469" fill="#252327"/><path d="M1384.95,221.3219 L1389.45,221.3219 L1389.45,223.2719 L1384.95,223.2719" fill="#252327"/><path d="M1397.55,221.3219 L1402.05,221.3219 L1402.05,223.2719 L1397.55,223.2719" fill="#252327"/><path d="M1386.81,216.9869 L1388.19,215.6069 L1391.34,218.7569 L1389.96,220.1369" fill="#252327"/><path d="M1395.66,225.8369 L1397.04,224.4569 L1400.19,227.6069 L1398.81,228.9869" fill="#252327"/><path d="M1398.81,215.6069 L1400.19,216.9869 L1397.04,220.1369 L1395.66,218.7569" fill="#252327"/><path d="M1389.96,224.4569 L1391.34,225.8369 L1388.19,228.9869 L1386.81,227.6069" fill="#252327"/><text fill="#000000" font-family="sans-serif" font-size="12" lengthAdjust="spacing" textLength="3.8145" x="1405.5" y="231.4668">&#160;</text><text fill="#000000" font-family="sans-serif" font-size="12" lengthAdjust="spacing" textLength="36.4805" x="1409.3145" y="231.4668">Rising</text><text fill="#000000" font-family="sans-serif" font-size="12" lengthAdjust="spacing" textLength="3.8145" x="1445.7949" y="231.4668">&#160;</text><text fill="#000000" font-family="sans-serif" font-size="12" lengthAdjust="spacing" textLength="53.373" x="1449.6094" y="231.4668">Software</text><text fill="#000000" font-family="sans-serif" font-size="12" lengthAdjust="spacing" textLength="3.8145" x="1502.9824" y="231.4668">&#160;</text><text fill="#000000" font-family="sans-serif" font-size="12" lengthAdjust="spacing" textLength="67.9863" x="1506.7969" y="231.4668">Complexity</text><text fill="#000000" font-family="sans-serif" font-size="12" lengthAdjust="spacing" textLength="3.8145" x="1574.7832" y="231.4668">&#160;</text><text fill="#000000" font-family="sans-serif" font-size="12" lengthAdjust="spacing" textLength="9.3574" x="1578.5977" y="231.4668">&amp;</text><text fill="#000000" font-family="sans-serif" font-size="12" lengthAdjust="spacing" textLength="3.8145" x="1587.9551" y="231.4668">&#160;</text><text fill="#000000" font-family="sans-serif" font-size="12" lengthAdjust="spacing" textLength="102.3574" x="1591.7695" y="231.4668">Interdependence</text></g><!--entity DRV_CuhLPB--><g class="entity" data-entity="DRV_CuhLPB" data-source-line="23" data-uid="ent0016" id="entity_DRV_CuhLPB"><rect fill="#EDD6F0" height="44" rx="2" ry="2" style="stroke:#7B3F9A;stroke-width:0.5;" width="373.8125" x="937" y="200.2969"/><ellipse cx="959" cy="222.2969" fill="none" rx="6.9" ry="6.9" style="stroke:#252327;stroke-width:1.95;"/><ellipse cx="959" cy="222.2969" fill="none" rx="2.55" ry="2.55" style="stroke:#252327;stroke-width:1.95;"/><path d="M958.025,213.7469 L958.025,218.2469 L959.975,218.2469 L959.975,213.7469" fill="#252327"/><path d="M958.025,226.3469 L958.025,230.8469 L959.975,230.8469 L959.975,226.3469" fill="#252327"/><path d="M950.45,221.3219 L954.95,221.3219 L954.95,223.2719 L950.45,223.2719" fill="#252327"/><path d="M963.05,221.3219 L967.55,221.3219 L967.55,223.2719 L963.05,223.2719" fill="#252327"/><path d="M952.31,216.9869 L953.69,215.6069 L956.84,218.7569 L955.46,220.1369" fill="#252327"/><path d="M961.16,225.8369 L962.54,224.4569 L965.69,227.6069 L964.31,228.9869" fill="#252327"/><path d="M964.31,215.6069 L965.69,216.9869 L962.54,220.1369 L961.16,218.7569" fill="#252327"/><path d="M955.46,224.4569 L956.84,225.8369 L953.69,228.9869 L952.31,227.6069" fill="#252327"/><text fill="#000000" font-family="sans-serif" font-size="12" lengthAdjust="spacing" textLength="3.8145" x="971" y="231.4668">&#160;</text><text fill="#000000" font-family="sans-serif" font-size="12" lengthAdjust="spacing" textLength="31.3594" x="974.8145" y="231.4668">Need</text><text fill="#000000" font-family="sans-serif" font-size="12" lengthAdjust="spacing" textLength="3.8145" x="1006.1738" y="231.4668">&#160;</text><text fill="#000000" font-family="sans-serif" font-size="12" lengthAdjust="spacing" textLength="12.0469" x="1009.9883" y="231.4668">to</text><text fill="#000000" font-family="sans-serif" font-size="12" lengthAdjust="spacing" textLength="3.8145" x="1022.0352" y="231.4668">&#160;</text><text fill="#000000" font-family="sans-serif" font-size="12" lengthAdjust="spacing" textLength="47.8594" x="1025.8496" y="231.4668">Balance</text><text fill="#000000" font-family="sans-serif" font-size="12" lengthAdjust="spacing" textLength="3.8145" x="1073.709" y="231.4668">&#160;</text><text fill="#000000" font-family="sans-serif" font-size="12" lengthAdjust="spacing" textLength="58.6641" x="1077.5234" y="231.4668">Increased</text><text fill="#000000" font-family="sans-serif" font-size="12" lengthAdjust="spacing" textLength="3.8145" x="1136.1875" y="231.4668">&#160;</text><text fill="#000000" font-family="sans-serif" font-size="12" lengthAdjust="spacing" textLength="61.5996" x="1140.002" y="231.4668">Autonomy</text><text fill="#000000" font-family="sans-serif" font-size="12" lengthAdjust="spacing" textLength="3.8145" x="1201.6016" y="231.4668">&#160;</text><text fill="#000000" font-family="sans-serif" font-size="12" lengthAdjust="spacing" textLength="25.459" x="1205.416" y="231.4668">with</text><text fill="#000000" font-family="sans-serif" font-size="12" lengthAdjust="spacing" textLength="3.8145" x="1230.875" y="231.4668">&#160;</text><text fill="#000000" font-family="sans-serif" font-size="12" lengthAdjust="spacing" textLength="66.123" x="1234.6895" y="231.4668">Integration</text></g><!--entity ASS_EI3FpR--><g class="entity" data-entity="ASS_EI3FpR" data-source-line="30" data-uid="ent0021" id="entity_ASS_EI3FpR"><rect fill="#EDD6F0" height="57.9688" rx="2" ry="2" style="stroke:#7B3F9A;stroke-width:0.5;" width="411.623" x="887" y="324.2969"/><path d="M900.75,338.7969 L917.25,338.7969 A1.5,1.5 0 0 1 918.75,340.2969 L918.75,349.2969 A1.5,1.5 0 0 1 917.25,350.7969 L906,350.7969 L903,355.2969 L904.5,350.7969 L900.75,350.7969 A1.5,1.5 0 0 1 899.25,349.2969 L899.25,340.2969 A1.5,1.5 0 0 1 900.75,338.7969" fill="#252327"/><text fill="#000000" font-family="sans-serif" font-size="12" lengthAdjust="spacing" textLength="3.8145" x="921" y="355.4668">&#160;</text><text fill="#000000" font-family="sans-serif" font-size="12" lengthAdjust="spacing" textLength="11.748" x="924.8145" y="355.4668">AI</text><text fill="#000000" font-family="sans-serif" font-size="12" lengthAdjust="spacing" textLength="3.8145" x="936.5625" y="355.4668">&#160;</text><text fill="#000000" font-family="sans-serif" font-size="12" lengthAdjust="spacing" textLength="30.7207" x="940.377" y="355.4668">Code</text><text fill="#000000" font-family="sans-serif" font-size="12" lengthAdjust="spacing" textLength="3.8145" x="971.0977" y="355.4668">&#160;</text><text fill="#000000" font-family="sans-serif" font-size="12" lengthAdjust="spacing" textLength="66.9434" x="974.9121" y="355.4668">Generation</text><text fill="#000000" font-family="sans-serif" font-size="12" lengthAdjust="spacing" textLength="3.8145" x="1041.8555" y="355.4668">&#160;</text><text fill="#000000" font-family="sans-serif" font-size="12" lengthAdjust="spacing" textLength="45.5625" x="1045.6699" y="355.4668">Volume</text><text fill="#000000" font-family="sans-serif" font-size="12" lengthAdjust="spacing" textLength="3.8145" x="1091.2324" y="355.4668">&#160;</text><text fill="#000000" font-family="sans-serif" font-size="12" lengthAdjust="spacing" textLength="56.959" x="1095.0469" y="355.4668">Outpaces</text><text fill="#000000" font-family="sans-serif" font-size="12" lengthAdjust="spacing" textLength="3.8145" x="1152.0059" y="355.4668">&#160;</text><text fill="#000000" font-family="sans-serif" font-size="12" lengthAdjust="spacing" textLength="77.2969" x="1155.8203" y="355.4668">Architectural</text><text fill="#000000" font-family="sans-serif" font-size="12" lengthAdjust="spacing" textLength="3.8145" x="1233.1172" y="355.4668">&#160;</text><text fill="#000000" font-family="sans-serif" font-size="12" lengthAdjust="spacing" textLength="51.6914" x="1236.9316" y="355.4668">Planning</text><text fill="#000000" font-family="sans-serif" font-size="12" lengthAdjust="spacing" textLength="22.5762" x="1029.8115" y="369.4355">and</text><text fill="#000000" font-family="sans-serif" font-size="12" lengthAdjust="spacing" textLength="3.8145" x="1052.3877" y="369.4355">&#160;</text><text fill="#000000" font-family="sans-serif" font-size="12" lengthAdjust="spacing" textLength="43.3535" x="1056.2021" y="369.4355">Review</text><text fill="#000000" font-family="sans-serif" font-size="12" lengthAdjust="spacing" textLength="3.8145" x="1099.5557" y="369.4355">&#160;</text><text fill="#000000" font-family="sans-serif" font-size="12" lengthAdjust="spacing" textLength="52.4414" x="1103.3701" y="369.4355">Capacity</text></g><!--entity ASS_s68vVo--><g class="entity" data-entity="ASS_s68vVo" data-source-line="31" data-uid="ent0022" id="entity_ASS_s68vVo"><rect fill="#EDD6F0" height="57.9688" rx="2" ry="2" style="stroke:#7B3F9A;stroke-width:0.5;" width="380.6563" x="23.5" y="324.2969"/><path d="M37.25,338.7969 L53.75,338.7969 A1.5,1.5 0 0 1 55.25,340.2969 L55.25,349.2969 A1.5,1.5 0 0 1 53.75,350.7969 L42.5,350.7969 L39.5,355.2969 L41,350.7969 L37.25,350.7969 A1.5,1.5 0 0 1 35.75,349.2969 L35.75,340.2969 A1.5,1.5 0 0 1 37.25,338.7969" fill="#252327"/><text fill="#000000" font-family="sans-serif" font-size="12" lengthAdjust="spacing" textLength="3.8145" x="57.5" y="355.4668">&#160;</text><text fill="#000000" font-family="sans-serif" font-size="12" lengthAdjust="spacing" textLength="64.8926" x="61.3145" y="355.4668">LLM-Based</text><text fill="#000000" font-family="sans-serif" font-size="12" lengthAdjust="spacing" textLength="3.8145" x="126.207" y="355.4668">&#160;</text><text fill="#000000" font-family="sans-serif" font-size="12" lengthAdjust="spacing" textLength="41.7715" x="130.0215" y="355.4668">Agents</text><text fill="#000000" font-family="sans-serif" font-size="12" lengthAdjust="spacing" textLength="3.8145" x="171.793" y="355.4668">&#160;</text><text fill="#000000" font-family="sans-serif" font-size="12" lengthAdjust="spacing" textLength="42.9902" x="175.6074" y="355.4668">Cannot</text><text fill="#000000" font-family="sans-serif" font-size="12" lengthAdjust="spacing" textLength="3.8145" x="218.5977" y="355.4668">&#160;</text><text fill="#000000" font-family="sans-serif" font-size="12" lengthAdjust="spacing" textLength="62.9707" x="222.4121" y="355.4668">Effectively</text><text fill="#000000" font-family="sans-serif" font-size="12" lengthAdjust="spacing" textLength="3.8145" x="285.3828" y="355.4668">&#160;</text><text fill="#000000" font-family="sans-serif" font-size="12" lengthAdjust="spacing" textLength="22.418" x="289.1973" y="355.4668">Use</text><text fill="#000000" font-family="sans-serif" font-size="12" lengthAdjust="spacing" textLength="3.8145" x="311.6152" y="355.4668">&#160;</text><text fill="#000000" font-family="sans-serif" font-size="12" lengthAdjust="spacing" textLength="78.7266" x="315.4297" y="355.4668">Unstructured</text><text fill="#000000" font-family="sans-serif" font-size="12" lengthAdjust="spacing" textLength="77.2969" x="140.29" y="369.4355">Architectural</text><text fill="#000000" font-family="sans-serif" font-size="12" lengthAdjust="spacing" textLength="3.8145" x="217.5869" y="369.4355">&#160;</text><text fill="#000000" font-family="sans-serif" font-size="12" lengthAdjust="spacing" textLength="65.9648" x="221.4014" y="369.4355">Knowledge</text></g><!--entity ASS_a6vxyj--><g class="entity" data-entity="ASS_a6vxyj" data-source-line="32" data-uid="ent0023" id="entity_ASS_a6vxyj"><rect fill="#EDD6F0" height="57.9688" rx="2" ry="2" style="stroke:#7B3F9A;stroke-width:0.5;" width="362.2285" x="465" y="324.2969"/><path d="M478.75,338.7969 L495.25,338.7969 A1.5,1.5 0 0 1 496.75,340.2969 L496.75,349.2969 A1.5,1.5 0 0 1 495.25,350.7969 L484,350.7969 L481,355.2969 L482.5,350.7969 L478.75,350.7969 A1.5,1.5 0 0 1 477.25,349.2969 L477.25,340.2969 A1.5,1.5 0 0 1 478.75,338.7969" fill="#252327"/><text fill="#000000" font-family="sans-serif" font-size="12" lengthAdjust="spacing" textLength="3.8145" x="499" y="355.4668">&#160;</text><text fill="#000000" font-family="sans-serif" font-size="12" lengthAdjust="spacing" textLength="68.3262" x="502.8145" y="355.4668">Centralized</text><text fill="#000000" font-family="sans-serif" font-size="12" lengthAdjust="spacing" textLength="3.8145" x="571.1406" y="355.4668">&#160;</text><text fill="#000000" font-family="sans-serif" font-size="12" lengthAdjust="spacing" textLength="72.6035" x="574.9551" y="355.4668">Governance</text><text fill="#000000" font-family="sans-serif" font-size="12" lengthAdjust="spacing" textLength="3.8145" x="647.5586" y="355.4668">&#160;</text><text fill="#000000" font-family="sans-serif" font-size="12" lengthAdjust="spacing" textLength="42.9902" x="651.373" y="355.4668">Cannot</text><text fill="#000000" font-family="sans-serif" font-size="12" lengthAdjust="spacing" textLength="3.8145" x="694.3633" y="355.4668">&#160;</text><text fill="#000000" font-family="sans-serif" font-size="12" lengthAdjust="spacing" textLength="32.2852" x="698.1777" y="355.4668">Scale</text><text fill="#000000" font-family="sans-serif" font-size="12" lengthAdjust="spacing" textLength="3.8145" x="730.4629" y="355.4668">&#160;</text><text fill="#000000" font-family="sans-serif" font-size="12" lengthAdjust="spacing" textLength="12.0469" x="734.2773" y="355.4668">to</text><text fill="#000000" font-family="sans-serif" font-size="12" lengthAdjust="spacing" textLength="3.8145" x="746.3242" y="355.4668">&#160;</text><text fill="#000000" font-family="sans-serif" font-size="12" lengthAdjust="spacing" textLength="67.0898" x="750.1387" y="355.4668">Concurrent</text><text fill="#000000" font-family="sans-serif" font-size="12" lengthAdjust="spacing" textLength="80.7832" x="577.0791" y="369.4355">Development</text><text fill="#000000" font-family="sans-serif" font-size="12" lengthAdjust="spacing" textLength="3.8145" x="657.8623" y="369.4355">&#160;</text><text fill="#000000" font-family="sans-serif" font-size="12" lengthAdjust="spacing" textLength="53.4727" x="661.6768" y="369.4355">Contexts</text></g><!--entity ASS_9YWsDh--><g class="entity" data-entity="ASS_9YWsDh" data-source-line="33" data-uid="ent0024" id="entity_ASS_9YWsDh"><rect fill="#EDD6F0" height="57.9688" rx="2" ry="2" style="stroke:#7B3F9A;stroke-width:0.5;" width="379.4961" x="1359.5" y="324.2969"/><path d="M1373.25,338.7969 L1389.75,338.7969 A1.5,1.5 0 0 1 1391.25,340.2969 L1391.25,349.2969 A1.5,1.5 0 0 1 1389.75,350.7969 L1378.5,350.7969 L1375.5,355.2969 L1377,350.7969 L1373.25,350.7969 A1.5,1.5 0 0 1 1371.75,349.2969 L1371.75,340.2969 A1.5,1.5 0 0 1 1373.25,338.7969" fill="#252327"/><text fill="#000000" font-family="sans-serif" font-size="12" lengthAdjust="spacing" textLength="3.8145" x="1393.5" y="355.4668">&#160;</text><text fill="#000000" font-family="sans-serif" font-size="12" lengthAdjust="spacing" textLength="44.1504" x="1397.3145" y="355.4668">Implicit</text><text fill="#000000" font-family="sans-serif" font-size="12" lengthAdjust="spacing" textLength="3.8145" x="1441.4648" y="355.4668">&#160;</text><text fill="#000000" font-family="sans-serif" font-size="12" lengthAdjust="spacing" textLength="44.748" x="1445.2793" y="355.4668">System</text><text fill="#000000" font-family="sans-serif" font-size="12" lengthAdjust="spacing" textLength="3.8145" x="1490.0273" y="355.4668">&#160;</text><text fill="#000000" font-family="sans-serif" font-size="12" lengthAdjust="spacing" textLength="111.9434" x="1493.8418" y="355.4668">Interdependencies</text><text fill="#000000" font-family="sans-serif" font-size="12" lengthAdjust="spacing" textLength="3.8145" x="1605.7852" y="355.4668">&#160;</text><text fill="#000000" font-family="sans-serif" font-size="12" lengthAdjust="spacing" textLength="20.5254" x="1609.5996" y="355.4668">Are</text><text fill="#000000" font-family="sans-serif" font-size="12" lengthAdjust="spacing" textLength="3.8145" x="1630.125" y="355.4668">&#160;</text><text fill="#000000" font-family="sans-serif" font-size="12" lengthAdjust="spacing" textLength="95.0566" x="1633.9395" y="355.4668">Unmaintainable</text><text fill="#000000" font-family="sans-serif" font-size="12" lengthAdjust="spacing" textLength="47.1621" x="1478.9092" y="369.4355">Without</text><text fill="#000000" font-family="sans-serif" font-size="12" lengthAdjust="spacing" textLength="3.8145" x="1526.0713" y="369.4355">&#160;</text><text fill="#000000" font-family="sans-serif" font-size="12" lengthAdjust="spacing" textLength="43.6055" x="1529.8857" y="369.4355">Explicit</text><text fill="#000000" font-family="sans-serif" font-size="12" lengthAdjust="spacing" textLength="3.8145" x="1573.4912" y="369.4355">&#160;</text><text fill="#000000" font-family="sans-serif" font-size="12" lengthAdjust="spacing" textLength="42.2813" x="1577.3057" y="369.4355">Models</text></g><!--link STK_aB3dE1 to STK_K9xTq2--><!--link STK_K9xTq2 to STK_Rr9Ss9--><!--link STK_Rr9Ss9 to STK_4oprPM--><!--link STK_4oprPM to STK_Zp8Lm4--><!--link DRV_GR9prv to DRV_Rt6Yu2--><!--link DRV_Rt6Yu2 to DRV_Ui5Op3--><!--link DRV_Ui5Op3 to DRV_CuhLPB--><!--link ASS_EI3FpR to ASS_s68vVo--><!--link ASS_s68vVo to ASS_a6vxyj--><!--link ASS_a6vxyj to ASS_9YWsDh--><!--link STK_Zp8Lm4 to DRV_GR9prv--><!--link STK_Zp8Lm4 to DRV_GR9prv--><g class="link" data-entity-1="STK_Zp8Lm4" data-entity-2="DRV_GR9prv" data-source-line="51" data-uid="lnk37" id="link_STK_Zp8Lm4_DRV_GR9prv"><path d="M318.3,120.4669 C318.3,142.8969 318.3,177.3869 318.3,199.9069" fill="none" id="STK_Zp8Lm4-DRV_GR9prv-1" style="stroke:#000000;stroke-width:1;"/><text fill="#000000" font-family="sans-serif" font-size="12" lengthAdjust="spacing" textLength="82.1543" x="235.3" y="157.3255">&#171;association&#187;</text></g><!--link DRV_CuhLPB to ASS_EI3FpR--><!--link DRV_CuhLPB to ASS_EI3FpR--><g class="link" data-entity-1="DRV_CuhLPB" data-entity-2="ASS_EI3FpR" data-source-line="58" data-uid="lnk42" id="link_DRV_CuhLPB_ASS_EI3FpR"><path d="M1178.33,244.5169 C1178.33,266.4169 1178.33,293.9969 1178.33,318.0569" fill="none" id="DRV_CuhLPB-to-ASS_EI3FpR" style="stroke:#000000;stroke-width:1;"/><polygon fill="#000000" points="1178.33,324.0569,1182.33,315.0569,1178.33,319.0569,1174.33,315.0569,1178.33,324.0569" style="stroke:#000000;stroke-width:1;"/><text fill="#000000" font-family="sans-serif" font-size="12" lengthAdjust="spacing" textLength="69.7559" x="1108.33" y="281.4255">&#171;influence&#187;</text></g><!--link STK_aB3dE1 to DRV_GR9prv--><g class="link" data-entity-1="STK_aB3dE1" data-entity-2="DRV_GR9prv" data-source-line="44" data-uid="lnk30" id="link_STK_aB3dE1_DRV_GR9prv"><path d="M460.76,98.2969 C450.34,98.2969 442.5,98.2969 442.5,98.2969 C442.5,98.2969 442.5,211.2969 442.5,211.2969 C442.5,211.2969 427.66,211.2969 405.53,211.2969" fill="none" id="STK_aB3dE1-DRV_GR9prv" style="stroke:#000000;stroke-width:1;"/><text fill="#000000" font-family="sans-serif" font-size="12" lengthAdjust="spacing" textLength="82.1543" x="359.5" y="161.2855">&#171;association&#187;</text></g><!--link STK_aB3dE1 to DRV_Rt6Yu2--><g class="link" data-entity-1="STK_aB3dE1" data-entity-2="DRV_Rt6Yu2" data-source-line="45" data-uid="lnk31" id="link_STK_aB3dE1_DRV_Rt6Yu2"><path d="M498,120.4669 C498,142.8969 498,177.3869 498,199.9069" fill="none" id="STK_aB3dE1-DRV_Rt6Yu2" style="stroke:#000000;stroke-width:1;"/><text fill="#000000" font-family="sans-serif" font-size="12" lengthAdjust="spacing" textLength="82.1543" x="499" y="157.3255">&#171;association&#187;</text></g><!--link STK_aB3dE1 to DRV_Ui5Op3--><g class="link" data-entity-1="STK_aB3dE1" data-entity-2="DRV_Ui5Op3" data-source-line="46" data-uid="lnk32" id="link_STK_aB3dE1_DRV_Ui5Op3"><path d="M530.5,120.3969 C530.5,128.7569 530.5,136.2969 530.5,136.2969 C530.5,136.2969 1571.3,136.2969 1571.3,136.2969 C1571.3,136.2969 1571.3,174.6669 1571.3,200.1469" fill="none" id="STK_aB3dE1-DRV_Ui5Op3" style="stroke:#000000;stroke-width:1;"/><text fill="#000000" font-family="sans-serif" font-size="12" lengthAdjust="spacing" textLength="82.1543" x="991.88" y="133.4355">&#171;association&#187;</text></g><!--link STK_K9xTq2 to DRV_GR9prv--><g class="link" data-entity-1="STK_K9xTq2" data-entity-2="DRV_GR9prv" data-source-line="47" data-uid="lnk33" id="link_STK_K9xTq2_DRV_GR9prv"><path d="M148,120.4669 C148,142.8969 148,177.3869 148,199.9069" fill="none" id="STK_K9xTq2-DRV_GR9prv" style="stroke:#000000;stroke-width:1;"/><text fill="#000000" font-family="sans-serif" font-size="12" lengthAdjust="spacing" textLength="82.1543" x="65" y="157.3255">&#171;association&#187;</text></g><!--link STK_Rr9Ss9 to DRV_Rt6Yu2--><g class="link" data-entity-1="STK_Rr9Ss9" data-entity-2="DRV_Rt6Yu2" data-source-line="48" data-uid="lnk34" id="link_STK_Rr9Ss9_DRV_Rt6Yu2"><path d="M737,120.4669 C737,142.8969 737,177.3869 737,199.9069" fill="none" id="STK_Rr9Ss9-DRV_Rt6Yu2" style="stroke:#000000;stroke-width:1;"/><text fill="#000000" font-family="sans-serif" font-size="12" lengthAdjust="spacing" textLength="82.1543" x="654" y="157.3255">&#171;association&#187;</text></g><!--link STK_4oprPM to DRV_Rt6Yu2--><g class="link" data-entity-1="STK_4oprPM" data-entity-2="DRV_Rt6Yu2" data-source-line="49" data-uid="lnk35" id="link_STK_4oprPM_DRV_Rt6Yu2"><path d="M910.96,106.2969 C887.64,106.2969 868,106.2969 868,106.2969 C868,106.2969 868,166.5469 868,200.2069" fill="none" id="STK_4oprPM-DRV_Rt6Yu2" style="stroke:#000000;stroke-width:1;"/><text fill="#000000" font-family="sans-serif" font-size="12" lengthAdjust="spacing" textLength="82.1543" x="785" y="143.9055">&#171;association&#187;</text></g><!--link STK_4oprPM to DRV_Ui5Op3--><g class="link" data-entity-1="STK_4oprPM" data-entity-2="DRV_Ui5Op3" data-source-line="50" data-uid="lnk36" id="link_STK_4oprPM_DRV_Ui5Op3"><path d="M1063.26,98.2969 C1235.14,98.2969 1637.9,98.2969 1637.9,98.2969 C1637.9,98.2969 1637.9,164.4569 1637.9,200.1269" fill="none" id="STK_4oprPM-DRV_Ui5Op3" style="stroke:#000000;stroke-width:1;"/><text fill="#000000" font-family="sans-serif" font-size="12" lengthAdjust="spacing" textLength="82.1543" x="1318.5" y="95.4355">&#171;association&#187;</text></g><!--link STK_Zp8Lm4 to DRV_Ui5Op3--><g class="link" data-entity-1="STK_Zp8Lm4" data-entity-2="DRV_Ui5Op3" data-source-line="52" data-uid="lnk38" id="link_STK_Zp8Lm4_DRV_Ui5Op3"><path d="M345.7,120.4469 C345.7,140.9569 345.7,168.2969 345.7,168.2969 C345.7,168.2969 1504.7,168.2969 1504.7,168.2969 C1504.7,168.2969 1504.7,185.1469 1504.7,200.0169" fill="none" id="STK_Zp8Lm4-DRV_Ui5Op3" style="stroke:#000000;stroke-width:1;"/><text fill="#000000" font-family="sans-serif" font-size="12" lengthAdjust="spacing" textLength="82.1543" x="834.14" y="165.4355">&#171;association&#187;</text></g><!--link DRV_GR9prv to ASS_EI3FpR--><g class="link" data-entity-1="DRV_GR9prv" data-entity-2="ASS_EI3FpR" data-source-line="55" data-uid="lnk39" id="link_DRV_GR9prv_ASS_EI3FpR"><path d="M214,244.3269 C214,262.1469 214,284.2969 214,284.2969 C214,284.2969 895,284.2969 895,284.2969 C895,284.2969 895,299.2269 895,318.0369" fill="none" id="DRV_GR9prv-to-ASS_EI3FpR" style="stroke:#000000;stroke-width:1;"/><polygon fill="#000000" points="895,324.0369,899,315.0369,895,319.0369,891,315.0369,895,324.0369" style="stroke:#000000;stroke-width:1;"/><text fill="#000000" font-family="sans-serif" font-size="12" lengthAdjust="spacing" textLength="69.7559" x="484.39" y="281.4355">&#171;influence&#187;</text></g><!--link DRV_GR9prv to ASS_a6vxyj--><g class="link" data-entity-1="DRV_GR9prv" data-entity-2="ASS_a6vxyj" data-source-line="56" data-uid="lnk40" id="link_DRV_GR9prv_ASS_a6vxyj"><path d="M405.73,233.2969 C417.07,233.2969 424,233.2969 424,233.2969 C424,233.2969 424,344.2969 424,344.2969 C424,344.2969 434.72,344.2969 458.98,344.2969" fill="none" id="DRV_GR9prv-to-ASS_a6vxyj" style="stroke:#000000;stroke-width:1;"/><polygon fill="#000000" points="464.98,344.2969,455.98,340.2969,459.98,344.2969,455.98,348.2969,464.98,344.2969" style="stroke:#000000;stroke-width:1;"/><text fill="#000000" font-family="sans-serif" font-size="12" lengthAdjust="spacing" textLength="69.7559" x="354" y="297.2855">&#171;influence&#187;</text></g><!--link DRV_GR9prv to ASS_s68vVo--><g class="link" data-entity-1="DRV_GR9prv" data-entity-2="ASS_s68vVo" data-source-line="57" data-uid="lnk41" id="link_DRV_GR9prv_ASS_s68vVo"><path d="M118.75,244.5169 C118.75,266.4169 118.75,293.9969 118.75,318.0569" fill="none" id="DRV_GR9prv-to-ASS_s68vVo" style="stroke:#000000;stroke-width:1;"/><polygon fill="#000000" points="118.75,324.0569,122.75,315.0569,118.75,319.0569,114.75,315.0569,118.75,324.0569" style="stroke:#000000;stroke-width:1;"/><text fill="#000000" font-family="sans-serif" font-size="12" lengthAdjust="spacing" textLength="69.7559" x="48.75" y="281.4255">&#171;influence&#187;</text></g><!--link DRV_Rt6Yu2 to ASS_a6vxyj--><g class="link" data-entity-1="DRV_Rt6Yu2" data-entity-2="ASS_a6vxyj" data-source-line="59" data-uid="lnk43" id="link_DRV_Rt6Yu2_ASS_a6vxyj"><path d="M586,244.5169 C586,266.4169 586,293.9969 586,318.0569" fill="none" id="DRV_Rt6Yu2-to-ASS_a6vxyj" style="stroke:#000000;stroke-width:1;"/><polygon fill="#000000" points="586,324.0569,590,315.0569,586,319.0569,582,315.0569,586,324.0569" style="stroke:#000000;stroke-width:1;"/><text fill="#000000" font-family="sans-serif" font-size="12" lengthAdjust="spacing" textLength="69.7559" x="587" y="281.4255">&#171;influence&#187;</text></g><!--link DRV_Ui5Op3 to ASS_9YWsDh--><g class="link" data-entity-1="DRV_Ui5Op3" data-entity-2="ASS_9YWsDh" data-source-line="60" data-uid="lnk44" id="link_DRV_Ui5Op3_ASS_9YWsDh"><path d="M1538,244.5169 C1538,266.4169 1538,293.9969 1538,318.0569" fill="none" id="DRV_Ui5Op3-to-ASS_9YWsDh" style="stroke:#000000;stroke-width:1;"/><polygon fill="#000000" points="1538,324.0569,1542,315.0569,1538,319.0569,1534,315.0569,1538,324.0569" style="stroke:#000000;stroke-width:1;"/><text fill="#000000" font-family="sans-serif" font-size="12" lengthAdjust="spacing" textLength="69.7559" x="1468" y="281.4255">&#171;influence&#187;</text></g><!--SRC=[dLLjJzim4FwUNt6RfkrJcHWReXEh12r35NIW5fYsQQfCSasy9NPcEsqpn7_VENL8W9GrVAXqZHxVSo_FtRtWme-p065hw-sKAJ_Y2JFOqGOLIfEdgBVIB8cz5ysuCCxJo46CJC58k9R6o0G2hj0tN0hFCzp421SHmcUfVDGmYLZAHKYVEFt9YIpnF0jd8YJaoubXlp6ISO1AluJz_P4qVCwiisCbC_kqruCR3w3sPl_LNLJJsliRxRCOFsrlVRZjmO5567fZdTP0v8rH81SdKtQu4nnjj_Sym3d6CaMrrlD9TtdnvrrxpvSfUOKBz2F1wJECc60X9YZM9p5MtOdkFYk9irJ3aGYvm2TIUIzJTJvgx_zSoI3p3Pmjn1FUlwTxfybxxzQh-W6T7n4F0XG_5GyZqwaNj38RKQuMbTc8SXbLPYFAHLPNwb04cJOgTyf-ZbW7YiyVwdJOET2Qqrm4fR9imss51ZBXWf7jYaaqC981MkQLfrKb1-EhwV6ucwfvA-QXy1KoROTpW0aJ0Soa8WA5S90PAMIIWvoH75cYuRMRNTr4FZQxtx9thSZ7l22Uo9bPC6BiooIDSSbDJbH3GIifm1G5TSLlpFUIVpXBTrfHVa4gCIsjGnOpybhcJn_lqbrm4nNieIgwsiJSpwBJyqFIR5NsHmgg5QKo6r4kZyfiH3dEkXf94zSn9a3YGQsjP9wboEhv0rLIH-W272EDR-4EhcIS9GXdcKcPNUnt2pPJjAhEgQR2TjJgQ8npZWleCq9IHsrS5S-gaWUJoVHekFCv7RUExVHqr3bSzIsqQHEF4DB0qMnchn2DK0wN6k5IqBHcDZuBlHVjYP2B68CGruMcT_VcLx9rQ7twGFxvNs8ybYGRKIZD1JYnIAl0lXH-ffGTy_h8qsU3orKVcu9Yk_Db_gjrK4EQB4vzS1FyOBfuqKfRhOHnOUZ7I5VmbIP1PbJKfNji5q-yDhJkjwzw4D5GL7rz9EHQNIkp4UKIhSn6bEFqtgmowiGif-j9HJV5yQJAHr9fhzhcbPT0BaIdlZUh8Ni8gWcLc6fNZ5BNqkV5S6ZRrQ1O5FhUBQkJm4SgNkrHhzS0TQjY4wZR5ytGyank441vApS8e3oOhQ5FnbfsPuDOxqFNUgLEhTOsS36BCtj4W5OOgtRblUtTwTNQNBYxUqRE6f1EbHiWdSgRaANU_izUte__ivStn25N8_88-Gy0]--></g></svg>