<svg xmlns="http://www.w3.org/2000/svg" xmlns:xlink="http://www.w3.org/1999/xlink" contentStyleType="text/css" data-diagram-type="DESCRIPTION" height="636px" preserveAspectRatio="none" style="width:1711px;height:636px;background:#FAFAFA;" version="1.1" viewBox="0 0 1711 636" width="1711px" zoomAndPan="magnify"><?plantuml 1.2026.3?><defs/><g><rect fill="#FAFAFA" height="636" style="stroke:none;stroke-width:1;" width="1711" x="0" y="0"/><g class="title" data-source-line="70"><text fill="#000000" font-family="'Helvetica Neue, Helvetica, Arial, sans-serif'" font-size="14" font-weight="700" lengthAdjust="spacing" textLength="117.7012" x="793.1494" y="22.9951">Capability Map</text></g><!--cluster Capabilities--><g class="cluster" data-qualified-name="Capabilities" data-source-line="72" id="ent0002"><rect fill="#FAF0D9" height="90" rx="2" ry="2" style="stroke:#8B6914;stroke-width:1;" width="1690" x="7" y="44.2969"/><text fill="#000000" font-family="'Helvetica Neue, Helvetica, Arial, sans-serif'" font-size="12" font-weight="700" lengthAdjust="spacing" textLength="79.6523" x="812.1738" y="57.4355">Capabilities</text></g><!--cluster Resources--><g class="cluster" data-qualified-name="Resources" data-source-line="84" id="ent0012"><rect fill="#FAF0D9" height="456" rx="2" ry="2" style="stroke:#8B6914;stroke-width:1;" width="320" x="349" y="166.2969"/><text fill="#000000" font-family="'Helvetica Neue, Helvetica, Arial, sans-serif'" font-size="12" font-weight="700" lengthAdjust="spacing" textLength="69.6211" x="474.1895" y="179.4355">Resources</text></g><!--entity CAP_pLMHKe--><g class="entity" data-qualified-name="Capabilities.CAP_pLMHKe" data-source-line="73" id="ent0003"><rect fill="#F5DEB3" height="42.1538" rx="2" ry="2" style="stroke:#8B6914;stroke-width:0.5;" width="272.6031" x="349.5" y="76.2969"/><path d="M363.7923,101.8738 L377.3615,101.8738 L377.3615,103.6738 L363.7923,103.6738" fill="#252327"/><path d="M365.0385,98.4815 L367.6692,98.4815 L367.6692,102.7738 L365.0385,102.7738" fill="#252327"/><path d="M368.9154,95.7123 L371.5462,95.7123 L371.5462,102.7738 L368.9154,102.7738" fill="#252327"/><path d="M372.7923,92.8046 L375.4231,92.8046 L375.4231,102.7738 L372.7923,102.7738" fill="#252327"/><text fill="#000000" font-family="'Helvetica Neue, Helvetica, Arial, sans-serif'" font-size="12" lengthAdjust="spacing" textLength="226.6348" x="385.4683" y="105.6206">Architecture Knowledge Management</text></g><!--entity CAP_db4AQh--><g class="entity" data-qualified-name="Capabilities.CAP_db4AQh" data-source-line="74" id="ent0004"><rect fill="#F5DEB3" height="42.1538" rx="2" ry="2" style="stroke:#8B6914;stroke-width:0.5;" width="286.2671" x="1395" y="76.2969"/><path d="M1409.2923,101.8738 L1422.8615,101.8738 L1422.8615,103.6738 L1409.2923,103.6738" fill="#252327"/><path d="M1410.5385,98.4815 L1413.1692,98.4815 L1413.1692,102.7738 L1410.5385,102.7738" fill="#252327"/><path d="M1414.4154,95.7123 L1417.0462,95.7123 L1417.0462,102.7738 L1414.4154,102.7738" fill="#252327"/><path d="M1418.2923,92.8046 L1420.9231,92.8046 L1420.9231,102.7738 L1418.2923,102.7738" fill="#252327"/><text fill="#000000" font-family="'Helvetica Neue, Helvetica, Arial, sans-serif'" font-size="12" lengthAdjust="spacing" textLength="240.2988" x="1430.9683" y="105.6206">Agent-Native Architecture Collaboration</text></g><!--entity CAP_FMvdNM--><g class="entity" data-qualified-name="Capabilities.CAP_FMvdNM" data-source-line="75" id="ent0005"><rect fill="#F5DEB3" height="42.1538" rx="2" ry="2" style="stroke:#8B6914;stroke-width:0.5;" width="230.146" x="1105" y="76.2969"/><path d="M1119.2923,101.8738 L1132.8615,101.8738 L1132.8615,103.6738 L1119.2923,103.6738" fill="#252327"/><path d="M1120.5385,98.4815 L1123.1692,98.4815 L1123.1692,102.7738 L1120.5385,102.7738" fill="#252327"/><path d="M1124.4154,95.7123 L1127.0462,95.7123 L1127.0462,102.7738 L1124.4154,102.7738" fill="#252327"/><path d="M1128.2923,92.8046 L1130.9231,92.8046 L1130.9231,102.7738 L1128.2923,102.7738" fill="#252327"/><text fill="#000000" font-family="'Helvetica Neue, Helvetica, Arial, sans-serif'" font-size="12" lengthAdjust="spacing" textLength="184.1777" x="1140.9683" y="105.6206">Tiered Knowledge Governance</text></g><!--entity CAP_Eb_x83--><g class="entity" data-qualified-name="Capabilities.CAP_Eb_x83" data-source-line="76" id="ent0006"><rect fill="#F5DEB3" height="42.1538" rx="2" ry="2" style="stroke:#8B6914;stroke-width:0.5;" width="361.5425" x="683" y="76.2969"/><path d="M697.2923,101.8738 L710.8615,101.8738 L710.8615,103.6738 L697.2923,103.6738" fill="#252327"/><path d="M698.5385,98.4815 L701.1692,98.4815 L701.1692,102.7738 L698.5385,102.7738" fill="#252327"/><path d="M702.4154,95.7123 L705.0462,95.7123 L705.0462,102.7738 L702.4154,102.7738" fill="#252327"/><path d="M706.2923,92.8046 L708.9231,92.8046 L708.9231,102.7738 L706.2923,102.7738" fill="#252327"/><text fill="#000000" font-family="'Helvetica Neue, Helvetica, Arial, sans-serif'" font-size="12" lengthAdjust="spacing" textLength="315.5742" x="718.9683" y="105.6206">Integrated Safety, Security &amp; Compliance Assurance</text></g><!--entity CAP_0kQIHh--><g class="entity" data-qualified-name="Capabilities.CAP_0kQIHh" data-source-line="77" id="ent0007"><rect fill="#F5DEB3" height="42.1538" rx="2" ry="2" style="stroke:#8B6914;stroke-width:0.5;" width="266.2632" x="23" y="76.2969"/><path d="M37.2923,101.8738 L50.8615,101.8738 L50.8615,103.6738 L37.2923,103.6738" fill="#252327"/><path d="M38.5385,98.4815 L41.1692,98.4815 L41.1692,102.7738 L38.5385,102.7738" fill="#252327"/><path d="M42.4154,95.7123 L45.0462,95.7123 L45.0462,102.7738 L42.4154,102.7738" fill="#252327"/><path d="M46.2923,92.8046 L48.9231,92.8046 L48.9231,102.7738 L46.2923,102.7738" fill="#252327"/><text fill="#000000" font-family="'Helvetica Neue, Helvetica, Arial, sans-serif'" font-size="12" lengthAdjust="spacing" textLength="220.2949" x="58.9683" y="105.6206">Architecture Analysis &amp; Visualization</text></g><!--entity RES_JnWnY1--><g class="entity" data-qualified-name="Resources.RES_JnWnY1" data-source-line="85" id="ent0013"><rect fill="#F5DEB3" height="42.1538" rx="2" ry="2" style="stroke:#8B6914;stroke-width:0.5;" width="285.8745" x="365" y="198.2969"/><path d="M379.1538,213.8353 L393,213.8353 L393,224.9123 L379.1538,224.9123" fill="#252327" style="stroke:none;stroke-width:0.5;"/><path d="M379.1538,216.3969 L393,216.3969 L393,218.1969 L379.1538,218.1969" fill="#252327"/><path d="M382.4077,213.8353 L382.4077,224.9123 L384.2077,224.9123 L384.2077,213.8353" fill="#252327"/><text fill="#000000" font-family="'Helvetica Neue, Helvetica, Arial, sans-serif'" font-size="12" lengthAdjust="spacing" textLength="239.9063" x="400.9683" y="227.6206">Recursive Self-Model (ENG-ARCH-REPO)</text></g><!--entity RES_dz41en--><g class="entity" data-qualified-name="Resources.RES_dz41en" data-source-line="86" id="ent0014"><rect fill="#F5DEB3" height="42.1538" rx="2" ry="2" style="stroke:#8B6914;stroke-width:0.5;" width="288.3179" x="365" y="320.2969"/><path d="M379.1538,335.8353 L393,335.8353 L393,346.9123 L379.1538,346.9123" fill="#252327" style="stroke:none;stroke-width:0.5;"/><path d="M379.1538,338.3969 L393,338.3969 L393,340.1969 L379.1538,340.1969" fill="#252327"/><path d="M382.4077,335.8353 L382.4077,346.9123 L384.2077,346.9123 L384.2077,335.8353" fill="#252327"/><text fill="#000000" font-family="'Helvetica Neue, Helvetica, Arial, sans-serif'" font-size="12" lengthAdjust="spacing" textLength="242.3496" x="400.9683" y="349.6206">Enterprise Architecture Knowledge Base</text></g><!--entity RES_0mpHI_--><g class="entity" data-qualified-name="Resources.RES_0mpHI_" data-source-line="87" id="ent0015"><rect fill="#F5DEB3" height="42.1538" rx="2" ry="2" style="stroke:#8B6914;stroke-width:0.5;" width="210.9742" x="403.5" y="442.2969"/><path d="M417.6538,457.8353 L431.5,457.8353 L431.5,468.9123 L417.6538,468.9123" fill="#252327" style="stroke:none;stroke-width:0.5;"/><path d="M417.6538,460.3969 L431.5,460.3969 L431.5,462.1969 L417.6538,462.1969" fill="#252327"/><path d="M420.9077,457.8353 L420.9077,468.9123 L422.7077,468.9123 L422.7077,457.8353" fill="#252327"/><text fill="#000000" font-family="'Helvetica Neue, Helvetica, Arial, sans-serif'" font-size="12" lengthAdjust="spacing" textLength="165.0059" x="439.4683" y="471.6206">Assurance Knowledge Base</text></g><!--entity RES_H7YRYJ--><g class="entity" data-qualified-name="Resources.RES_H7YRYJ" data-source-line="88" id="ent0016"><rect fill="#F5DEB3" height="42.1538" rx="2" ry="2" style="stroke:#8B6914;stroke-width:0.5;" width="272.4331" x="381" y="564.2969"/><path d="M395.1538,579.8353 L409,579.8353 L409,590.9123 L395.1538,590.9123" fill="#252327" style="stroke:none;stroke-width:0.5;"/><path d="M395.1538,582.3969 L409,582.3969 L409,584.1969 L395.1538,584.1969" fill="#252327"/><path d="M398.4077,579.8353 L398.4077,590.9123 L400.2077,590.9123 L400.2077,579.8353" fill="#252327"/><text fill="#000000" font-family="'Helvetica Neue, Helvetica, Arial, sans-serif'" font-size="12" lengthAdjust="spacing" textLength="226.4648" x="416.9683" y="593.6206">Modelling &amp; Method Guidance Corpus</text></g><!--link CAP_pLMHKe to CAP_db4AQh--><!--link CAP_db4AQh to CAP_FMvdNM--><!--link CAP_FMvdNM to CAP_Eb_x83--><!--link CAP_Eb_x83 to CAP_0kQIHh--><!--link RES_JnWnY1 to RES_dz41en--><!--link RES_dz41en to RES_0mpHI_--><!--link RES_0mpHI_ to RES_H7YRYJ--><!--link CAP_0kQIHh to RES_JnWnY1--><!--reverse link CAP_pLMHKe to RES_JnWnY1--><g class="link" data-entity-1="ent0003" data-entity-2="ent0013" data-link-type="dependency" data-source-line="96" id="lnk22"><path d="M493.75,124.5469 C493.75,146.9369 493.75,175.9869 493.75,198.2869" fill="none" id="CAP_pLMHKe-backto-RES_JnWnY1" style="stroke:#181818;stroke-width:1;"/><polygon fill="#181818" points="493.75,118.5469,489.75,127.5469,493.75,123.5469,497.75,127.5469,493.75,118.5469" style="stroke:#181818;stroke-width:1;"/></g><!--reverse link CAP_pLMHKe to RES_dz41en--><g class="link" data-entity-1="ent0003" data-entity-2="ent0014" data-link-type="dependency" data-source-line="97" id="lnk24"><path d="M357.25,124.5269 C357.25,183.8869 357.25,341.2969 357.25,341.2969 C357.25,341.2969 360.09,341.2969 364.98,341.2969" fill="none" id="CAP_pLMHKe-backto-RES_dz41en" style="stroke:#181818;stroke-width:1;"/><polygon fill="#181818" points="357.25,118.5269,353.25,127.5269,357.25,123.5269,361.25,127.5269,357.25,118.5269" style="stroke:#181818;stroke-width:1;"/></g><!--reverse link CAP_db4AQh to RES_H7YRYJ--><g class="link" data-entity-1="ent0004" data-entity-2="ent0016" data-link-type="dependency" data-source-line="98" id="lnk26"><path d="M1538,124.5669 C1538,219.3169 1538,592.2969 1538,592.2969 C1538,592.2969 931.08,592.2969 653.11,592.2969" fill="none" id="CAP_db4AQh-backto-RES_H7YRYJ" style="stroke:#181818;stroke-width:1;"/><polygon fill="#181818" points="1538,118.5669,1534,127.5669,1538,123.5669,1542,127.5669,1538,118.5669" style="stroke:#181818;stroke-width:1;"/></g><!--reverse link CAP_FMvdNM to RES_dz41en--><g class="link" data-entity-1="ent0005" data-entity-2="ent0014" data-link-type="dependency" data-source-line="99" id="lnk28"><path d="M1220,124.5269 C1220,183.8869 1220,341.2969 1220,341.2969 C1220,341.2969 861.13,341.2969 653.31,341.2969" fill="none" id="CAP_FMvdNM-backto-RES_dz41en" style="stroke:#181818;stroke-width:1;"/><polygon fill="#181818" points="1220,118.5269,1216,127.5269,1220,123.5269,1224,127.5269,1220,118.5269" style="stroke:#181818;stroke-width:1;"/></g><!--reverse link CAP_Eb_x83 to RES_0mpHI_--><g class="link" data-entity-1="ent0006" data-entity-2="ent0015" data-link-type="dependency" data-source-line="100" id="lnk30"><path d="M803.67,124.5569 C803.67,202.6669 803.67,463.2969 803.67,463.2969 C803.67,463.2969 699.1,463.2969 614.55,463.2969" fill="none" id="CAP_Eb_x83-backto-RES_0mpHI_" style="stroke:#181818;stroke-width:1;"/><polygon fill="#181818" points="803.67,118.5569,799.67,127.5569,803.67,123.5569,807.67,127.5569,803.67,118.5569" style="stroke:#181818;stroke-width:1;"/></g><!--reverse link CAP_Eb_x83 to RES_H7YRYJ--><g class="link" data-entity-1="ent0006" data-entity-2="ent0016" data-link-type="dependency" data-source-line="101" id="lnk32"><path d="M924.33,124.5869 C924.33,217.6769 924.33,578.2969 924.33,578.2969 C924.33,578.2969 771.62,578.2969 653.2,578.2969" fill="none" id="CAP_Eb_x83-backto-RES_H7YRYJ" style="stroke:#181818;stroke-width:1;"/><polygon fill="#181818" points="924.33,118.5869,920.33,127.5869,924.33,123.5869,928.33,127.5869,924.33,118.5869" style="stroke:#181818;stroke-width:1;"/></g><?plantuml-src xLPjRzis4FxkNt5JXwu5B4L-ZJF40PpKYTFMMMjt7O9XC6ZfB16XIO6Kx2HT__kEYMBBc-pDsRwji67Gl7lut3iPyn31fAXHfNS9LYhcXik4QJQ746Si4-cvakaLcoCu0nGBJ7d0u0ephCBgVnLwcZDH1SEaSGrgFdFA3nhpUuHQlI0qCGlLaii8PamOB4YqocGOA2rHGxEmFsN1JVGWF5D2QNXnthEVekc2IxJkWD9fh0e2gK8qc43RBn8nUMCtEtxbExALi312CVcaUHIHBp9wDTDgNeLKLK6mAOhNO3V0TKzeRmCpGYRuFKkvabj0dlVxBjJavsGFu1ZrOY_xUiQeWE-optLtO2RlSPO-2pZYKRm7CWZGcAs1-8jRbt8cCfG1xeOKKev1ocGayFXud6gMOdHtGIMLK31FJk1B1U2qfChyDqTMedI8Ej_jdBQFQitAr_Ap0vQmAHSylTjwQkjD_xIntwaQZSfqWCyyC_xMyjzQ_blB_vzQtYIQfmZVCnt4V4w-JzPcmh5PH70x5z9qdJXDanyF3fRBfRTiU4f71tNVzmz8mu45n-MfkkqwFlXGQzFNEJbEM1f3s7M63Qz6kpMltegFl8w_g7aDVs0txnsOSI6wpejwgzwe7pe71LJJyttea7vSyuxyXTKVsBsTe3RfGti5QbcG_RiJTEIrVMXwXpdeqAlx0xjN1hB-dfG4xIaB_rN8e1dN_4Ldq20Z_cG53MYjRh3hI2Lnmv663LdBwxG8IykdGFzDp5fUemKsieiE_SGMz7bRe1_ThwGgeGw2gKfJwgUGstAalYO1JmN2sRg2XYofL5RL2ivAnD4uiBNV2eZZqjByOW8ci5lpMbzFwBuXXPGWcKPu9zLIO1WXSKiMuHnbQfaskeyPEEjzc2JlXuDtk3zVH6UwLpJB5hX9Jjr5aqRfXp6tZJMSDdiVuxrPFt6wbyE2VnTgWLeo6dJRcCw7Y_1gk3VJfQIKsBo4C6OpkZkhCCOWqpQXByd7UIAufGMQwPdUPK1_EhdjDFvTGdkIYJl33L5_vYPRNOxREFsRZvU3c4RREiFW_afFcn3bRzhUF6un3UjbgLOUmlMoL2ltSxqirSejA_R3A9yRpsY6fv6p4RcHpPEnTJb6CNE7zC8HyAf_TU7sHcS3TzJ_yDDhIrMuDIXie_vuybR-8gzhUzBrgL8q3KE3svhmb1ai9mplcpMKUnAkAkuVKVZpP70vsPFY8MR2la5VmX3fnHZ2HSR31z8pfPFCb9CD3gz7rs-fxjRHN5S1lMgbMtHxlInJoWrVBykKSi9rPPKfvMcj_42sI_aufys6YLb2ByF2D2nQLYPxf2t8yaOgnUNjKtHa9SkRflJCNFO7?></g></svg>