<svg xmlns="http://www.w3.org/2000/svg" xmlns:xlink="http://www.w3.org/1999/xlink" contentStyleType="text/css" data-diagram-type="DESCRIPTION" height="815px" preserveAspectRatio="none" style="width:1487px;height:815px;background:#FAFAFA;" version="1.1" viewBox="0 0 1487 815" width="1487px" zoomAndPan="magnify"><?plantuml 1.2026.3?><defs/><g><rect fill="#FAFAFA" height="815" style="stroke:none;stroke-width:1;" width="1487" x="0" y="0"/><g class="title" data-source-line="94"><text fill="#000000" font-family="'Helvetica Neue, Helvetica, Arial, sans-serif'" font-size="14" font-weight="700" lengthAdjust="spacing" textLength="414.3809" x="532.8096" y="22.9951">Value Stream: Grow Reusable Enterprise Knowledge</text></g><!--cluster Motivation--><g class="cluster" data-qualified-name="Motivation" data-source-line="96" id="ent0002"><rect fill="#F7EEF9" height="212" rx="2" ry="2" style="stroke:#7B3F9A;stroke-width:1;" width="418" x="1055" y="44.2969"/><text fill="#000000" font-family="'Helvetica Neue, Helvetica, Arial, sans-serif'" font-size="12" font-weight="700" lengthAdjust="spacing" textLength="72.5918" x="1227.7041" y="57.4355">Motivation</text></g><!--cluster Strategy--><g class="cluster" data-qualified-name="Strategy" data-source-line="102" id="ent0006"><rect fill="#FAF0D9" height="635" rx="2" ry="2" style="stroke:#8B6914;stroke-width:1;" width="1024" x="7" y="166.2969"/><text fill="#000000" font-family="'Helvetica Neue, Helvetica, Arial, sans-serif'" font-size="12" font-weight="700" lengthAdjust="spacing" textLength="58.6816" x="489.6592" y="179.4355">Strategy</text></g><!--cluster VS_vEQEgh--><g class="cluster" data-qualified-name="Strategy.VS_vEQEgh" data-source-line="103" id="ent0007"><rect fill="#F5DEB3" height="481" rx="2" ry="2" style="stroke:#8B6914;stroke-width:1;" width="426" x="573" y="288.2969"/><path d="M648.8895,297.22 L658.5818,297.22 L662.0433,301.3738 L658.5818,305.5276 L648.8895,305.5276 L651.6587,301.3738" fill="#252327" style="stroke:none;stroke-width:1;"/><text fill="#000000" font-family="'Helvetica Neue, Helvetica, Arial, sans-serif'" font-size="12" font-weight="700" lengthAdjust="spacing" textLength="254.8125" x="671.7595" y="309.6206">Grow Reusable Enterprise Knowledge</text></g><!--entity VAL_RNfrKW--><g class="entity" data-qualified-name="Motivation.VAL_RNfrKW" data-source-line="97" id="ent0003"><rect fill="#EDD6F0" height="42.1538" rx="2" ry="2" style="stroke:#7B3F9A;stroke-width:0.5;" width="340.2027" x="1117" y="76.2969"/><ellipse cx="1138.0769" cy="97.3738" fill="none" rx="6.2308" ry="6.2308" style="stroke:#252327;stroke-width:1.8;"/><path d="M1137.1769,92.5276 L1137.1769,102.22 L1138.9769,102.22 L1138.9769,92.5276" fill="#252327"/><path d="M1133.4246,95.3523 L1134.4215,93.8569 L1138.5754,96.6261 L1137.5785,98.1215" fill="#252327"/><path d="M1138.5754,98.1215 L1137.5785,96.6261 L1141.7323,93.8569 L1142.7292,95.3523" fill="#252327"/><text fill="#000000" font-family="'Helvetica Neue, Helvetica, Arial, sans-serif'" font-size="12" lengthAdjust="spacing" textLength="294.2344" x="1152.9683" y="105.6206">Compounding, Reusable Architecture Knowledge</text></g><!--entity STK_aB3dE1--><g class="entity" data-qualified-name="Motivation.STK_aB3dE1" data-source-line="98" id="ent0004"><rect fill="#EDD6F0" height="42.1538" rx="2" ry="2" style="stroke:#7B3F9A;stroke-width:0.5;" width="100.0386" x="1071" y="198.2969"/><path d="M1085.2923,213.9738 L1095.4,213.9738 L1099,219.3738 L1095.4,224.7738 L1085.2923,224.7738 L1088.7538,219.3738" fill="#252327" style="stroke:none;stroke-width:0.5;"/><text fill="#000000" font-family="'Helvetica Neue, Helvetica, Arial, sans-serif'" font-size="12" lengthAdjust="spacing" textLength="54.0703" x="1106.9683" y="227.6206">Architect</text></g><!--entity STK_Rr9Ss9--><g class="entity" data-qualified-name="Motivation.STK_Rr9Ss9" data-source-line="99" id="ent0005"><rect fill="#EDD6F0" height="42.1538" rx="2" ry="2" style="stroke:#7B3F9A;stroke-width:0.5;" width="226.1206" x="1231" y="198.2969"/><path d="M1245.2923,213.9738 L1255.4,213.9738 L1259,219.3738 L1255.4,224.7738 L1245.2923,224.7738 L1248.7538,219.3738" fill="#252327" style="stroke:none;stroke-width:0.5;"/><text fill="#000000" font-family="'Helvetica Neue, Helvetica, Arial, sans-serif'" font-size="12" lengthAdjust="spacing" textLength="180.1523" x="1266.9683" y="227.6206">Upper Technical Management</text></g><!--entity CAP_pLMHKe--><g class="entity" data-qualified-name="Strategy.CAP_pLMHKe" data-source-line="112" id="ent0015"><rect fill="#F5DEB3" height="42.1538" rx="2" ry="2" style="stroke:#8B6914;stroke-width:0.5;" width="272.6031" x="23.5" y="198.2969"/><path d="M37.7923,223.8738 L51.3615,223.8738 L51.3615,225.6738 L37.7923,225.6738" fill="#252327"/><path d="M39.0385,220.4815 L41.6692,220.4815 L41.6692,224.7738 L39.0385,224.7738" fill="#252327"/><path d="M42.9154,217.7123 L45.5462,217.7123 L45.5462,224.7738 L42.9154,224.7738" fill="#252327"/><path d="M46.7923,214.8046 L49.4231,214.8046 L49.4231,224.7738 L46.7923,224.7738" fill="#252327"/><text fill="#000000" font-family="'Helvetica Neue, Helvetica, Arial, sans-serif'" font-size="12" lengthAdjust="spacing" textLength="226.6348" x="59.4683" y="227.6206">Architecture Knowledge Management</text></g><!--entity CAP_db4AQh--><g class="entity" data-qualified-name="Strategy.CAP_db4AQh" data-source-line="113" id="ent0016"><rect fill="#F5DEB3" height="42.1538" rx="2" ry="2" style="stroke:#8B6914;stroke-width:0.5;" width="286.2671" x="647" y="198.2969"/><path d="M661.2923,223.8738 L674.8615,223.8738 L674.8615,225.6738 L661.2923,225.6738" fill="#252327"/><path d="M662.5385,220.4815 L665.1692,220.4815 L665.1692,224.7738 L662.5385,224.7738" fill="#252327"/><path d="M666.4154,217.7123 L669.0462,217.7123 L669.0462,224.7738 L666.4154,224.7738" fill="#252327"/><path d="M670.2923,214.8046 L672.9231,214.8046 L672.9231,224.7738 L670.2923,224.7738" fill="#252327"/><text fill="#000000" font-family="'Helvetica Neue, Helvetica, Arial, sans-serif'" font-size="12" lengthAdjust="spacing" textLength="240.2988" x="682.9683" y="227.6206">Agent-Native Architecture Collaboration</text></g><!--entity CAP_0kQIHh--><g class="entity" data-qualified-name="Strategy.CAP_0kQIHh" data-source-line="114" id="ent0017"><rect fill="#F5DEB3" height="42.1538" rx="2" ry="2" style="stroke:#8B6914;stroke-width:0.5;" width="266.2632" x="271" y="337.2969"/><path d="M285.2923,362.8738 L298.8615,362.8738 L298.8615,364.6738 L285.2923,364.6738" fill="#252327"/><path d="M286.5385,359.4815 L289.1692,359.4815 L289.1692,363.7738 L286.5385,363.7738" fill="#252327"/><path d="M290.4154,356.7123 L293.0462,356.7123 L293.0462,363.7738 L290.4154,363.7738" fill="#252327"/><path d="M294.2923,353.8046 L296.9231,353.8046 L296.9231,363.7738 L294.2923,363.7738" fill="#252327"/><text fill="#000000" font-family="'Helvetica Neue, Helvetica, Arial, sans-serif'" font-size="12" lengthAdjust="spacing" textLength="220.2949" x="306.9683" y="366.6206">Architecture Analysis &amp; Visualization</text></g><!--entity CAP_FMvdNM--><g class="entity" data-qualified-name="Strategy.CAP_FMvdNM" data-source-line="115" id="ent0018"><rect fill="#F5DEB3" height="42.1538" rx="2" ry="2" style="stroke:#8B6914;stroke-width:0.5;" width="230.146" x="357" y="198.2969"/><path d="M371.2923,223.8738 L384.8615,223.8738 L384.8615,225.6738 L371.2923,225.6738" fill="#252327"/><path d="M372.5385,220.4815 L375.1692,220.4815 L375.1692,224.7738 L372.5385,224.7738" fill="#252327"/><path d="M376.4154,217.7123 L379.0462,217.7123 L379.0462,224.7738 L376.4154,224.7738" fill="#252327"/><path d="M380.2923,214.8046 L382.9231,214.8046 L382.9231,224.7738 L380.2923,224.7738" fill="#252327"/><text fill="#000000" font-family="'Helvetica Neue, Helvetica, Arial, sans-serif'" font-size="12" lengthAdjust="spacing" textLength="184.1777" x="392.9683" y="227.6206">Tiered Knowledge Governance</text></g><!--entity VS_qCeB0R--><g class="entity" data-qualified-name="Strategy.VS_vEQEgh.VS_qCeB0R" data-source-line="104" id="ent0008"><rect fill="#F5DEB3" height="42.1538" rx="2" ry="2" style="stroke:#8B6914;stroke-width:0.5;" width="334.3316" x="597" y="337.2969"/><path d="M610.4615,354.22 L620.1538,354.22 L623.6154,358.3738 L620.1538,362.5276 L610.4615,362.5276 L613.2308,358.3738" fill="#252327" style="stroke:none;stroke-width:0.5;"/><text fill="#000000" font-family="'Helvetica Neue, Helvetica, Arial, sans-serif'" font-size="12" lengthAdjust="spacing" textLength="288.3633" x="632.9683" y="366.6206">Author Architecture Content in the Engagement</text></g><!--entity VS_CCdGX1--><g class="entity" data-qualified-name="Strategy.VS_vEQEgh.VS_CCdGX1" data-source-line="105" id="ent0009"><rect fill="#F5DEB3" height="42.1538" rx="2" ry="2" style="stroke:#8B6914;stroke-width:0.5;" width="292.355" x="618" y="459.2969"/><path d="M631.4615,476.22 L641.1538,476.22 L644.6154,480.3738 L641.1538,484.5276 L631.4615,484.5276 L634.2308,480.3738" fill="#252327" style="stroke:none;stroke-width:0.5;"/><text fill="#000000" font-family="'Helvetica Neue, Helvetica, Arial, sans-serif'" font-size="12" lengthAdjust="spacing" textLength="246.3867" x="653.9683" y="488.6206">Validate &amp; Review Promotion Candidates</text></g><!--entity VS_shr_q3--><g class="entity" data-qualified-name="Strategy.VS_vEQEgh.VS_shr_q3" data-source-line="106" id="ent0010"><rect fill="#F5DEB3" height="42.1538" rx="2" ry="2" style="stroke:#8B6914;stroke-width:0.5;" width="228.3062" x="650" y="581.2969"/><path d="M663.4615,598.22 L673.1538,598.22 L676.6154,602.3738 L673.1538,606.5276 L663.4615,606.5276 L666.2308,602.3738" fill="#252327" style="stroke:none;stroke-width:0.5;"/><text fill="#000000" font-family="'Helvetica Neue, Helvetica, Arial, sans-serif'" font-size="12" lengthAdjust="spacing" textLength="182.3379" x="685.9683" y="610.6206">Promote to the Enterprise Tier</text></g><!--entity VS__JarbD--><g class="entity" data-qualified-name="Strategy.VS_vEQEgh.VS__JarbD" data-source-line="107" id="ent0011"><rect fill="#F5DEB3" height="42.1538" rx="2" ry="2" style="stroke:#8B6914;stroke-width:0.5;" width="348.2593" x="597" y="703.2969"/><path d="M610.4615,720.22 L620.1538,720.22 L623.6154,724.3738 L620.1538,728.5276 L610.4615,728.5276 L613.2308,724.3738" fill="#252327" style="stroke:none;stroke-width:0.5;"/><text fill="#000000" font-family="'Helvetica Neue, Helvetica, Arial, sans-serif'" font-size="12" lengthAdjust="spacing" textLength="302.291" x="632.9683" y="732.6206">Reuse Enterprise Knowledge Across Engagements</text></g><!--link VS_qCeB0R to VS_CCdGX1--><!--link VS_qCeB0R to VS_CCdGX1--><g class="link" data-entity-1="ent0008" data-entity-2="ent0009" data-link-type="dependency" data-source-line="132" id="lnk32"><path d="M812.67,379.5469 C812.67,401.9369 812.67,430.9869 812.67,453.2869" fill="none" id="VS_qCeB0R-to-VS_CCdGX1" style="stroke:#181818;stroke-width:1;stroke-dasharray:7,7;"/><polygon fill="#181818" points="812.67,459.2869,816.67,450.2869,812.67,454.2869,808.67,450.2869,812.67,459.2869" style="stroke:#181818;stroke-width:1;"/></g><!--link VS_CCdGX1 to VS_shr_q3--><!--link VS_CCdGX1 to VS_shr_q3--><g class="link" data-entity-1="ent0009" data-entity-2="ent0010" data-link-type="dependency" data-source-line="133" id="lnk33"><path d="M802,501.5469 C802,523.9369 802,552.9869 802,575.2869" fill="none" id="VS_CCdGX1-to-VS_shr_q3" style="stroke:#181818;stroke-width:1;stroke-dasharray:7,7;"/><polygon fill="#181818" points="802,581.2869,806,572.2869,802,576.2869,798,572.2869,802,581.2869" style="stroke:#181818;stroke-width:1;"/></g><!--link VS_shr_q3 to VS__JarbD--><!--link VS_shr_q3 to VS__JarbD--><g class="link" data-entity-1="ent0010" data-entity-2="ent0011" data-link-type="dependency" data-source-line="134" id="lnk34"><path d="M802,623.5469 C802,645.9369 802,674.9869 802,697.2869" fill="none" id="VS_shr_q3-to-VS__JarbD" style="stroke:#181818;stroke-width:1;stroke-dasharray:7,7;"/><polygon fill="#181818" points="802,703.2869,806,694.2869,802,698.2869,798,694.2869,802,703.2869" style="stroke:#181818;stroke-width:1;"/></g><!--link CAP_pLMHKe to VS_qCeB0R--><g class="link" data-entity-1="ent0015" data-entity-2="ent0008" data-link-type="dependency" data-source-line="119" id="lnk19"><path d="M283.75,240.2969 C283.75,260.9169 283.75,289.2969 283.75,289.2969 C283.75,289.2969 622,289.2969 622,289.2969 C622,289.2969 622,310.9269 622,331.2169" fill="none" id="CAP_pLMHKe-to-VS_qCeB0R" style="stroke:#181818;stroke-width:1;"/><polygon fill="#181818" points="622,337.2169,626,328.2169,622,332.2169,618,328.2169,622,337.2169" style="stroke:#181818;stroke-width:1;"/></g><!--link CAP_pLMHKe to VS__JarbD--><g class="link" data-entity-1="ent0015" data-entity-2="ent0011" data-link-type="dependency" data-source-line="120" id="lnk20"><path d="M147.25,240.3269 C147.25,336.6669 147.25,731.2969 147.25,731.2969 C147.25,731.2969 406.29,731.2969 590.84,731.2969" fill="none" id="CAP_pLMHKe-to-VS__JarbD" style="stroke:#181818;stroke-width:1;"/><polygon fill="#181818" points="596.84,731.2969,587.84,727.2969,591.84,731.2969,587.84,735.2969,596.84,731.2969" style="stroke:#181818;stroke-width:1;"/></g><!--link CAP_db4AQh to VS_qCeB0R--><g class="link" data-entity-1="ent0016" data-entity-2="ent0008" data-link-type="dependency" data-source-line="121" id="lnk21"><path d="M789,240.4069 C789,266.5369 789,304.7669 789,330.9869" fill="none" id="CAP_db4AQh-to-VS_qCeB0R" style="stroke:#181818;stroke-width:1;"/><polygon fill="#181818" points="789,336.9869,793,327.9869,789,331.9869,785,327.9869,789,336.9869" style="stroke:#181818;stroke-width:1;"/></g><!--link CAP_FMvdNM to VS_vEQEgh--><g class="link" data-entity-1="ent0018" data-entity-2="ent0007" data-link-type="dependency" data-source-line="122" id="lnk22"><path d="M577,240.3269 C577,246.7444 577,254.3539 577,262.7572 C577,266.9588 577,271.3589 577,275.9076 C577,278.182 577,280.4935 577,282.836 C577,284.0072 577,285.1862 577,286.3721 C577,286.9651 577,281.5598 577,282.1561" fill="none" id="CAP_FMvdNM-to-VS_vEQEgh" style="stroke:#181818;stroke-width:1;"/><polygon fill="#181818" points="577,288.1561,581,279.1561,577,283.1561,573,279.1561,577,288.1561" style="stroke:#181818;stroke-width:1;"/></g><!--link CAP_FMvdNM to VS_CCdGX1--><g class="link" data-entity-1="ent0018" data-entity-2="ent0009" data-link-type="dependency" data-source-line="123" id="lnk23"><path d="M567,240.5169 C567,301.5669 567,473.2969 567,473.2969 C567,473.2969 582.85,473.2969 611.99,473.2969" fill="none" id="CAP_FMvdNM-to-VS_CCdGX1" style="stroke:#181818;stroke-width:1;"/><polygon fill="#181818" points="617.99,473.2969,608.99,469.2969,612.99,473.2969,608.99,477.2969,617.99,473.2969" style="stroke:#181818;stroke-width:1;"/></g><!--link CAP_FMvdNM to VS_shr_q3--><g class="link" data-entity-1="ent0018" data-entity-2="ent0010" data-link-type="dependency" data-source-line="124" id="lnk24"><path d="M557,240.4369 C557,320.7269 557,602.2969 557,602.2969 C557,602.2969 595.92,602.2969 643.9,602.2969" fill="none" id="CAP_FMvdNM-to-VS_shr_q3" style="stroke:#181818;stroke-width:1;"/><polygon fill="#181818" points="649.9,602.2969,640.9,598.2969,644.9,602.2969,640.9,606.2969,649.9,602.2969" style="stroke:#181818;stroke-width:1;"/></g><!--link CAP_FMvdNM to VS__JarbD--><g class="link" data-entity-1="ent0018" data-entity-2="ent0011" data-link-type="dependency" data-source-line="125" id="lnk25"><path d="M547,240.3769 C547,335.1669 547,717.2969 547,717.2969 C547,717.2969 561.93,717.2969 590.99,717.2969" fill="none" id="CAP_FMvdNM-to-VS__JarbD" style="stroke:#181818;stroke-width:1;"/><polygon fill="#181818" points="596.99,717.2969,587.99,713.2969,591.99,717.2969,587.99,721.2969,596.99,717.2969" style="stroke:#181818;stroke-width:1;"/></g><!--link CAP_0kQIHh to VS_CCdGX1--><g class="link" data-entity-1="ent0017" data-entity-2="ent0009" data-link-type="dependency" data-source-line="126" id="lnk26"><path d="M404,379.3069 C404,415.8669 404,487.2969 404,487.2969 C404,487.2969 512.1,487.2969 611.83,487.2969" fill="none" id="CAP_0kQIHh-to-VS_CCdGX1" style="stroke:#181818;stroke-width:1;"/><polygon fill="#181818" points="617.83,487.2969,608.83,483.2969,612.83,487.2969,608.83,491.2969,617.83,487.2969" style="stroke:#181818;stroke-width:1;"/></g><!--link STK_Rr9Ss9 to VS_vEQEgh--><g class="link" data-entity-1="ent0005" data-entity-2="ent0007" data-link-type="association" data-source-line="127" id="lnk27"><path d="M1344,240.4069 C1344,279.2969 1344,358.2969 1344,358.2969 C1344,358.2969 1259.8375,358.2969 1173.7025,358.2969 C1130.635,358.2969 1087.0744,358.2969 1053.2944,358.2969 C1036.4044,358.2969 1021.9595,358.2969 1011.2441,358.2969 C1008.5652,358.2969 1006.1194,358.2969 1003.9268,358.2969 C1002.8305,358.2969 1001.7974,358.2969 1000.8302,358.2969 C1000.3466,358.2969 999.8794,358.2969 999.429,358.2969" fill="none" id="STK_Rr9Ss9-VS_vEQEgh" style="stroke:#181818;stroke-width:1;"/></g><!--link VAL_RNfrKW to STK_Rr9Ss9--><g class="link" data-entity-1="ent0003" data-entity-2="ent0005" data-link-type="association" data-source-line="128" id="lnk28"><path d="M1344,118.5469 C1344,140.9369 1344,175.9869 1344,198.2869" fill="none" id="VAL_RNfrKW-STK_Rr9Ss9" style="stroke:#181818;stroke-width:1;"/></g><!--link STK_aB3dE1 to VS_vEQEgh--><g class="link" data-entity-1="ent0004" data-entity-2="ent0007" data-link-type="association" data-source-line="129" id="lnk29"><path d="M1070.74,219.2969 C1034.16,219.2969 991,219.2969 991,219.2969 C991,219.2969 991,251.9094 991,285.5406 C991,286.0661 991,286.5919 991,287.1177 C991,287.3806 991,287.6436 991,287.9066" fill="none" id="STK_aB3dE1-VS_vEQEgh" style="stroke:#181818;stroke-width:1;"/></g><!--link VAL_RNfrKW to STK_aB3dE1--><g class="link" data-entity-1="ent0003" data-entity-2="ent0004" data-link-type="association" data-source-line="130" id="lnk30"><path d="M1144,118.5469 C1144,140.9369 1144,175.9869 1144,198.2869" fill="none" id="VAL_RNfrKW-STK_aB3dE1" style="stroke:#181818;stroke-width:1;"/></g><!--link VS_vEQEgh to VAL_RNfrKW--><g class="link" data-entity-1="ent0007" data-entity-2="ent0003" data-link-type="association" data-source-line="131" id="lnk31"><path d="M967.5,286.9775 C967.5,283.2976 967.5,279.5381 967.5,275.7148 C967.5,260.4219 967.5,244.1094 967.5,227.7969 C967.5,162.5469 967.5,97.2969 967.5,97.2969 C967.5,97.2969 1040.66,97.2969 1116.96,97.2969" fill="none" id="VS_vEQEgh-VAL_RNfrKW" style="stroke:#181818;stroke-width:1;"/></g><?plantuml-src xLVhRzis4F_kl-Ac3di0aI9PbXz37C1sxARB0ssSPWE6mM0aMY8Yaoufsqsx_kyxAgeaEvOpf_ss844Ytlj-TpoI4Gieg8HAAfBxEQtLr1tZSoB9308w9Oiu6GcUN98P1UEKnakQC9_09LtG0yZN1z2JZCG7e0XNfgAIJOtjXiRi4mMdNcAgY0HYnNW8Kn8hMk98iU21BoId4Xeb-YtnxyAKEH2naF1grDC_vT1ZngbE1uHC8b5YS15GHUVGjCkE2B_JnBPT-m5ZHLsuel7aMh8mn5nu-CjKYja19E80Od9Burz14y0qZv6sfdD5ISm-aOG9Ng5aMV_iqfgyd--XEAPokLTyFQM4ptR5PvexT2RdT9eyI_6AXT4UchvFbQe4ub5QR_WqNb3kqzqgfP9JFo4yZEdHqOL8s38DyZKsrHpXF3w6ppM0_gC-Qms7euxc21bGcL5RVNVKwTM-RBS-JYH9Q7Z_fEtUo3vvPBlTRtQSHfLjdyp9BOjPSbzfrJiPzjtzhAg4tD58n2XVPNPuSj8SsVi1iIHOeUzkSA8IISdicVb7ByFlPVYz3B-NuVT_77vgBbb2uKSY_OZDi4wJ0b8uKiiGFivYhhf6b2JptmuFLwkLjN8j8SF3kctRXoXXm9BHLLzyx1essE0qyTSuFfgJ98AWQroubeDKnwfxKSTgsql7SkrJJVnam9J5STTuLVVgRhrb79Qq6fPjGnlb8yVgs4ijVwffEvMQA0_DNCdJIdgvKwbZDMreMArCgMNLxLDDswQayptU0bgfOxuVQXYK4xKizznneHsRTQi9hjNHq9rx-Dt603SYn6DCYZlQDRZWT5UyQUTyMwG-atvCmKTosm3_FlqdkqR3ylAuqZ3oe3QYD5SiIAAkWVsmLW_CsCFKFLqAMnV5jM_qyebsQJQmybu3eN6Ru5cDvdbRVxNqLqjpsyZTQIELrr8FygccO-lFr1osCFAR5LPs8ftjqU_K6dNB0ozgnVg_QwP_8nENflkVEwAMi0IBTvEsmJWDxZV00Rt2isIXo2toXXolH9YEed36nIgcGOXtetpwW56S6WRiE4DA6aURk7nMFebfrx6yBySm4BEv7boeUb24qTCQ2TfOo58WskFNSKeKtFJE9rUNKtdsHxN3qXPTSvixq3RN9pzQ7b-VJKZV3ORE_fRVp-Su3gwf7t6y8SPmGJW9wOpoQbTNiZDM7PpBPQ2_7g1Qg-8mtGLordnheJrTwXpXudpHG8ydo-6xOHYbNlVtsrlWPLIk5tM0bsB411Y79DB1X2MKjeRmOK3xzjMp0i2EPm5Am4-Oljvcy1PlHqBtBGm8DfzcgahFWq7m-a_dMPuV_52yX6LfvfXVCoehFQf8JZwup_AewxkzkD3pfL2gX7LrofFVYRmzIGF8eGVpBtmr1PJ_BVMbrjo09bzjaoibbA-soUL-lrJtTt5NsRwbrsR6nlvRkpfYgeFUsydy_EBqZExlBqIRvYLEloNTxEqOB-52vcDoczVWjj5x5trRbZrEudl55FRr3LEB_35LvTE-U_VcT7-VkbLfKCBqjLXIoGc-EweyZIwMmUM57ca_wwtEqH_6fMe5tkahhTZMZnbPAnHORT5uSFELyJ2ajZ2oBdtCoDhoCQFa_06q3LF5sDQlkC9tSIPfUccu5qVAKmhPmLCCNIrV77N5TjIFkoAYOljbz2otOhjbz2orVm40?></g></svg>