<svg xmlns="http://www.w3.org/2000/svg" xmlns:xlink="http://www.w3.org/1999/xlink" contentStyleType="text/css" data-diagram-type="DESCRIPTION" height="676px" preserveAspectRatio="none" style="width:1113px;height:676px;background:#FAFAFA;" version="1.1" viewBox="0 0 1113 676" width="1113px" zoomAndPan="magnify"><?plantuml 1.2026.3?><defs/><g><rect fill="#FAFAFA" height="676" style="stroke:none;stroke-width:1;" width="1113" x="0" y="0"/><g class="title" data-source-line="94"><text fill="#000000" font-family="'Helvetica Neue, Helvetica, Arial, sans-serif'" font-size="14" font-weight="700" lengthAdjust="spacing" textLength="268.5908" x="418.7046" y="22.9951">Value Stream: Adopt the Platform</text></g><!--cluster Motivation--><g class="cluster" data-qualified-name="Motivation" data-source-line="96" id="ent0002"><rect fill="#F7EEF9" height="212" rx="2" ry="2" style="stroke:#7B3F9A;stroke-width:1;" width="208" x="891" y="288.2969"/><text fill="#000000" font-family="'Helvetica Neue, Helvetica, Arial, sans-serif'" font-size="12" font-weight="700" lengthAdjust="spacing" textLength="72.5918" x="958.7041" y="301.4355">Motivation</text></g><!--cluster Strategy--><g class="cluster" data-qualified-name="Strategy" data-source-line="101" id="ent0005"><rect fill="#FAF0D9" height="618" rx="2" ry="2" style="stroke:#8B6914;stroke-width:1;" width="734" x="7" y="44.2969"/><text fill="#000000" font-family="'Helvetica Neue, Helvetica, Arial, sans-serif'" font-size="12" font-weight="700" lengthAdjust="spacing" textLength="58.6816" x="344.6592" y="57.4355">Strategy</text></g><!--cluster VS_klQ_6_--><g class="cluster" data-qualified-name="Strategy.VS_klQ_6_" data-source-line="102" id="ent0006"><rect fill="#F5DEB3" height="481" rx="2" ry="2" style="stroke:#8B6914;stroke-width:1;" width="338" x="333" y="149.2969"/><path d="M427.3709,158.22 L437.0633,158.22 L440.5248,162.3738 L437.0633,166.5276 L427.3709,166.5276 L430.1402,162.3738" fill="#252327" style="stroke:none;stroke-width:1;"/><text fill="#000000" font-family="'Helvetica Neue, Helvetica, Arial, sans-serif'" font-size="12" font-weight="700" lengthAdjust="spacing" textLength="129.8496" x="450.241" y="170.6206">Adopt the Platform</text></g><!--entity VAL_bisnF2--><g class="entity" data-qualified-name="Motivation.VAL_bisnF2" data-source-line="97" id="ent0003"><rect fill="#EDD6F0" height="42.1538" rx="2" ry="2" style="stroke:#7B3F9A;stroke-width:0.5;" width="176.48" x="907" y="320.2969"/><ellipse cx="928.0769" cy="341.3738" fill="none" rx="6.2308" ry="6.2308" style="stroke:#252327;stroke-width:1.8;"/><path d="M927.1769,336.5276 L927.1769,346.22 L928.9769,346.22 L928.9769,336.5276" fill="#252327"/><path d="M923.4246,339.3523 L924.4215,337.8569 L928.5754,340.6261 L927.5785,342.1215" fill="#252327"/><path d="M928.5754,342.1215 L927.5785,340.6261 L931.7323,337.8569 L932.7292,339.3523" fill="#252327"/><text fill="#000000" font-family="'Helvetica Neue, Helvetica, Arial, sans-serif'" font-size="12" lengthAdjust="spacing" textLength="130.5117" x="942.9683" y="349.6206">Low-Friction Adoption</text></g><!--entity STK_KNwgP7--><g class="entity" data-qualified-name="Motivation.STK_KNwgP7" data-source-line="98" id="ent0004"><rect fill="#EDD6F0" height="42.1538" rx="2" ry="2" style="stroke:#7B3F9A;stroke-width:0.5;" width="148.4078" x="914" y="442.2969"/><path d="M928.2923,457.9738 L938.4,457.9738 L942,463.3738 L938.4,468.7738 L928.2923,468.7738 L931.7538,463.3738" fill="#252327" style="stroke:none;stroke-width:0.5;"/><text fill="#000000" font-family="'Helvetica Neue, Helvetica, Arial, sans-serif'" font-size="12" lengthAdjust="spacing" textLength="102.4395" x="949.9683" y="471.6206">Platform Adopter</text></g><!--entity CAP_pLMHKe--><g class="entity" data-qualified-name="Strategy.CAP_pLMHKe" data-source-line="111" id="ent0014"><rect fill="#F5DEB3" height="42.1538" rx="2" ry="2" style="stroke:#8B6914;stroke-width:0.5;" width="272.6031" x="451.5" y="76.2969"/><path d="M465.7923,101.8738 L479.3615,101.8738 L479.3615,103.6738 L465.7923,103.6738" fill="#252327"/><path d="M467.0385,98.4815 L469.6692,98.4815 L469.6692,102.7738 L467.0385,102.7738" fill="#252327"/><path d="M470.9154,95.7123 L473.5462,95.7123 L473.5462,102.7738 L470.9154,102.7738" fill="#252327"/><path d="M474.7923,92.8046 L477.4231,92.8046 L477.4231,102.7738 L474.7923,102.7738" fill="#252327"/><text fill="#000000" font-family="'Helvetica Neue, Helvetica, Arial, sans-serif'" font-size="12" lengthAdjust="spacing" textLength="226.6348" x="487.4683" y="105.6206">Architecture Knowledge Management</text></g><!--entity CAP_db4AQh--><g class="entity" data-qualified-name="Strategy.CAP_db4AQh" data-source-line="112" id="ent0015"><rect fill="#F5DEB3" height="42.1538" rx="2" ry="2" style="stroke:#8B6914;stroke-width:0.5;" width="286.2671" x="23" y="320.2969"/><path d="M37.2923,345.8738 L50.8615,345.8738 L50.8615,347.6738 L37.2923,347.6738" fill="#252327"/><path d="M38.5385,342.4815 L41.1692,342.4815 L41.1692,346.7738 L38.5385,346.7738" fill="#252327"/><path d="M42.4154,339.7123 L45.0462,339.7123 L45.0462,346.7738 L42.4154,346.7738" fill="#252327"/><path d="M46.2923,336.8046 L48.9231,336.8046 L48.9231,346.7738 L46.2923,346.7738" fill="#252327"/><text fill="#000000" font-family="'Helvetica Neue, Helvetica, Arial, sans-serif'" font-size="12" lengthAdjust="spacing" textLength="240.2988" x="58.9683" y="349.6206">Agent-Native Architecture Collaboration</text></g><!--entity VS_Io9UQd--><g class="entity" data-qualified-name="Strategy.VS_klQ_6_.VS_Io9UQd" data-source-line="103" id="ent0007"><rect fill="#F5DEB3" height="42.1538" rx="2" ry="2" style="stroke:#8B6914;stroke-width:0.5;" width="245.6968" x="357" y="198.2969"/><path d="M370.4615,215.22 L380.1538,215.22 L383.6154,219.3738 L380.1538,223.5276 L370.4615,223.5276 L373.2308,219.3738" fill="#252327" style="stroke:none;stroke-width:0.5;"/><text fill="#000000" font-family="'Helvetica Neue, Helvetica, Arial, sans-serif'" font-size="12" lengthAdjust="spacing" textLength="199.7285" x="392.9683" y="227.6206">Discover &amp; Evaluate the Platform</text></g><!--entity VS_Az7GVi--><g class="entity" data-qualified-name="Strategy.VS_klQ_6_.VS_Az7GVi" data-source-line="104" id="ent0008"><rect fill="#F5DEB3" height="42.1538" rx="2" ry="2" style="stroke:#8B6914;stroke-width:0.5;" width="235.6421" x="369" y="320.2969"/><path d="M382.4615,337.22 L392.1538,337.22 L395.6154,341.3738 L392.1538,345.5276 L382.4615,345.5276 L385.2308,341.3738" fill="#252327" style="stroke:none;stroke-width:0.5;"/><text fill="#000000" font-family="'Helvetica Neue, Helvetica, Arial, sans-serif'" font-size="12" lengthAdjust="spacing" textLength="189.6738" x="404.9683" y="349.6206">Install &amp; Configure the Platform</text></g><!--entity VS_CBbqVO--><g class="entity" data-qualified-name="Strategy.VS_klQ_6_.VS_CBbqVO" data-source-line="105" id="ent0009"><rect fill="#F5DEB3" height="42.1538" rx="2" ry="2" style="stroke:#8B6914;stroke-width:0.5;" width="209.1753" x="382.5" y="442.2969"/><path d="M395.9615,459.22 L405.6538,459.22 L409.1154,463.3738 L405.6538,467.5276 L395.9615,467.5276 L398.7308,463.3738" fill="#252327" style="stroke:none;stroke-width:0.5;"/><text fill="#000000" font-family="'Helvetica Neue, Helvetica, Arial, sans-serif'" font-size="12" lengthAdjust="spacing" textLength="163.207" x="418.4683" y="471.6206">Import Authoring Guidance</text></g><!--entity VS_lVJLuL--><g class="entity" data-qualified-name="Strategy.VS_klQ_6_.VS_lVJLuL" data-source-line="106" id="ent0010"><rect fill="#F5DEB3" height="42.1538" rx="2" ry="2" style="stroke:#8B6914;stroke-width:0.5;" width="215.8023" x="379" y="564.2969"/><path d="M392.4615,581.22 L402.1538,581.22 L405.6154,585.3738 L402.1538,589.5276 L392.4615,589.5276 L395.2308,585.3738" fill="#252327" style="stroke:none;stroke-width:0.5;"/><text fill="#000000" font-family="'Helvetica Neue, Helvetica, Arial, sans-serif'" font-size="12" lengthAdjust="spacing" textLength="169.834" x="414.9683" y="593.6206">Model the First Engagement</text></g><!--link VS_Io9UQd to VS_Az7GVi--><!--link VS_Io9UQd to VS_Az7GVi--><g class="link" data-entity-1="ent0007" data-entity-2="ent0008" data-link-type="dependency" data-source-line="124" id="lnk24"><path d="M525,240.5469 C525,262.9369 525,291.9869 525,314.2869" fill="none" id="VS_Io9UQd-to-VS_Az7GVi" style="stroke:#181818;stroke-width:1;stroke-dasharray:7,7;"/><polygon fill="#181818" points="525,320.2869,529,311.2869,525,315.2869,521,311.2869,525,320.2869" style="stroke:#181818;stroke-width:1;"/></g><!--link VS_Az7GVi to VS_CBbqVO--><!--link VS_Az7GVi to VS_CBbqVO--><g class="link" data-entity-1="ent0008" data-entity-2="ent0009" data-link-type="dependency" data-source-line="125" id="lnk25"><path d="M521.83,362.5469 C521.83,384.9369 521.83,413.9869 521.83,436.2869" fill="none" id="VS_Az7GVi-to-VS_CBbqVO" style="stroke:#181818;stroke-width:1;stroke-dasharray:7,7;"/><polygon fill="#181818" points="521.83,442.2869,525.83,433.2869,521.83,437.2869,517.83,433.2869,521.83,442.2869" style="stroke:#181818;stroke-width:1;"/></g><!--link VS_CBbqVO to VS_lVJLuL--><!--link VS_CBbqVO to VS_lVJLuL--><g class="link" data-entity-1="ent0009" data-entity-2="ent0010" data-link-type="dependency" data-source-line="126" id="lnk26"><path d="M521.83,484.5469 C521.83,506.9369 521.83,535.9869 521.83,558.2869" fill="none" id="VS_CBbqVO-to-VS_lVJLuL" style="stroke:#181818;stroke-width:1;stroke-dasharray:7,7;"/><polygon fill="#181818" points="521.83,564.2869,525.83,555.2869,521.83,559.2869,517.83,555.2869,521.83,564.2869" style="stroke:#181818;stroke-width:1;"/></g><!--link CAP_pLMHKe to VS_klQ_6_--><g class="link" data-entity-1="ent0014" data-entity-2="ent0006" data-link-type="dependency" data-source-line="116" id="lnk16"><path d="M663,118.5469 C663,126.8769 663,136.9575 663,147.4816 C663,147.8104 663,148.1397 663,148.4695 C663,148.6343 663,142.7993 663,142.9643" fill="none" id="CAP_pLMHKe-to-VS_klQ_6_" style="stroke:#181818;stroke-width:1;"/><polygon fill="#181818" points="663,148.9643,667,139.9643,663,143.9643,659,139.9643,663,148.9643" style="stroke:#181818;stroke-width:1;"/></g><!--link CAP_pLMHKe to VS_Az7GVi--><g class="link" data-entity-1="ent0014" data-entity-2="ent0008" data-link-type="dependency" data-source-line="117" id="lnk17"><path d="M624,118.6969 C624,179.3969 624,348.2969 624,348.2969 C624,348.2969 622.6,348.2969 611.24,348.2969" fill="none" id="CAP_pLMHKe-to-VS_Az7GVi" style="stroke:#181818;stroke-width:1;"/><polygon fill="#181818" points="605.24,348.2969,614.24,352.2969,610.24,348.2969,614.24,344.2969,605.24,348.2969" style="stroke:#181818;stroke-width:1;"/></g><!--link CAP_pLMHKe to VS_lVJLuL--><g class="link" data-entity-1="ent0014" data-entity-2="ent0010" data-link-type="dependency" data-source-line="118" id="lnk18"><path d="M643,118.5769 C643,212.5069 643,585.2969 643,585.2969 C643,585.2969 627.97,585.2969 601.35,585.2969" fill="none" id="CAP_pLMHKe-to-VS_lVJLuL" style="stroke:#181818;stroke-width:1;"/><polygon fill="#181818" points="595.35,585.2969,604.35,589.2969,600.35,585.2969,604.35,581.2969,595.35,585.2969" style="stroke:#181818;stroke-width:1;"/></g><!--link CAP_db4AQh to VS_CBbqVO--><g class="link" data-entity-1="ent0015" data-entity-2="ent0009" data-link-type="dependency" data-source-line="119" id="lnk19"><path d="M213.67,362.5469 C213.67,397.4969 213.67,463.2969 213.67,463.2969 C213.67,463.2969 299.33,463.2969 376.49,463.2969" fill="none" id="CAP_db4AQh-to-VS_CBbqVO" style="stroke:#181818;stroke-width:1;"/><polygon fill="#181818" points="382.49,463.2969,373.49,459.2969,377.49,463.2969,373.49,467.2969,382.49,463.2969" style="stroke:#181818;stroke-width:1;"/></g><!--link CAP_db4AQh to VS_lVJLuL--><g class="link" data-entity-1="ent0015" data-entity-2="ent0010" data-link-type="dependency" data-source-line="120" id="lnk20"><path d="M118.33,362.5269 C118.33,421.8869 118.33,585.2969 118.33,585.2969 C118.33,585.2969 264.1,585.2969 372.88,585.2969" fill="none" id="CAP_db4AQh-to-VS_lVJLuL" style="stroke:#181818;stroke-width:1;"/><polygon fill="#181818" points="378.88,585.2969,369.88,581.2969,373.88,585.2969,369.88,589.2969,378.88,585.2969" style="stroke:#181818;stroke-width:1;"/></g><!--link STK_KNwgP7 to VS_klQ_6_--><g class="link" data-entity-1="ent0004" data-entity-2="ent0006" data-link-type="association" data-source-line="121" id="lnk21"><path d="M913.95,463.2969 C867.27,463.2969 815.75,463.2969 815.75,463.2969 C815.75,463.2969 815.75,219.2969 815.75,219.2969 C815.75,219.2969 779.9125,219.2969 742.955,219.2969 C724.4763,219.2969 705.7175,219.2969 691.0184,219.2969 C683.6689,219.2969 677.3343,219.2969 672.5571,219.2969 C672.2585,219.2969 671.966,219.2969 671.6797,219.2969 C671.5366,219.2969 671.395,219.2969 671.255,219.2969" fill="none" id="STK_KNwgP7-VS_klQ_6_" style="stroke:#181818;stroke-width:1;"/></g><!--link VAL_bisnF2 to STK_KNwgP7--><g class="link" data-entity-1="ent0003" data-entity-2="ent0004" data-link-type="association" data-source-line="122" id="lnk22"><path d="M988,362.5469 C988,384.9369 988,419.9869 988,442.2869" fill="none" id="VAL_bisnF2-STK_KNwgP7" style="stroke:#181818;stroke-width:1;"/></g><!--link VS_klQ_6_ to VAL_bisnF2--><g class="link" data-entity-1="ent0006" data-entity-2="ent0003" data-link-type="association" data-source-line="123" id="lnk23"><path d="M671.0989,334.2969 C671.679,334.2969 672.288,334.2969 672.9251,334.2969 C674.1994,334.2969 675.5865,334.2969 677.0804,334.2969 C680.0682,334.2969 683.4834,334.2969 687.2789,334.2969 C702.4609,334.2969 723.7281,334.2969 748.0688,334.2969 C796.75,334.2969 857.725,334.2969 906.9,334.2969" fill="none" id="VS_klQ_6_-VAL_bisnF2" style="stroke:#181818;stroke-width:1;"/></g><?plantuml-src xLTRK-9857xdLvpDREsboiH0I80feGeKr1LTbHbUjhQe9ccIBfjkfjF0wAp_VRjZJ89SHjnvMqjAqkVwdKjE7o8IO8Wb5fZB-nakbU8xmcP8e2a4U8BcLFOuarTeYi4umtI19V4HNE4vFe3iV01jGH0zW1Yns8on81DZiw41US1GhXIOSOG2lYGiX0cYCIvm19-pmEU2OG7L0dsC_BimOHvpoWLywBNrNn4w9GphS80B6V42W_40ntW6dbrqXDYT9jRjqayAgzA5Mqn7dmG9GnKB2t-R23uz0CaFWA8nfh-39e1fjXHjHUSM8qeUa2ISRL6oh7zsQOq-p_PG762ns0jVEuwvJtRXCyqTEgC-diWtATwICDf3q_Tn76zDn5fOvsn2vvZvUBTAeUJObuY551yTNN995Wd8KzLKCvNELWk-bG0wQtrMwtPx3StX8i0YfTOwJg_HBZrkjZwG0aaStd_NThjddwpPhdUyHhcwpRQFPcXCA97tMwsw9zsEiv_LMA8x776gvBUPxPwSU3rxlqGiaAhG3pSuYgN0QFh6-AFtuVS-_Dw7t_lm-pyEltWcYCJmCn9-HAQgJgCyfN0KBqBuEgKiRXgHbBEFXuVBvT9QEXONuM75jkr39M70Wk1bXtzj6ZROKFRKnsWTpP2C86WQbuvLLjIoLN6ZXbMt5sNBiSyqyS602Q6qQNoek1MdKZCE2rfLoxQXhkIZijMm5rh-JDDsAdbA7hnCoTLA-hXJgM5vDbIjMgfKiohscQPjKjBnjZOahT0nFovh2bGvgbbEl-n0dPeLomF7QkZKzLtrN5S0No1KrvZWTxXfCCxmBhn9v_mtf3uHFiNWAtBT0Fy--H9Desgv6Qu4HWRg1KfpIG8PDGtL3olrK16xAdHNbyBMHN7ieJv-frsygggyMrMfSJnmhQhNh-kdcdwgQMvTSNVQIEIrr9DyebcszMDYJhMmudjRhEpCTFgE_g3Mg5Wkk56Dwc_7JFv7fZgQpgixeYI9LCKR9cqmIC1zX7R0Pn9aXE6Q8ZdXObegPTC6ZFoMC637dL7GE7gPXs-nZoXkbYttiGLzlZHxWlZQnfFlrFJpd4Gn3DlzqPZ4h5VPRhdmxgtOVmxYoJOMslJgP5SE1fykHXTNo_2wfePXCThdMqjhRRd1TaMQLdm5q7f-isZp8Qw37epkwCt86oLUzlTpGcAVBzGa-WMwMaW9lyxhEMzylWdUvFESgTHIgbmUSpOXuLoyqcVxeNOw96_pEPsfvHRQSxNWwXqLJkSaG6e5skhik3F-ClppJSukrTfCav1wHCGIkYn48PvY9hTweyC_-lD-uYrBBfX_gTyR0MP_2xqEcYzIa9qsoHNGPwTDSfdVn-rDcj_ogosg1QHIqVMxO7n9SH1Yk4Ii4EpAqgL2FMvVZsRzoxCBlB-_KDaqhzGSMU1LvsfHKUih5zd0sUGr65VRDv5-St_LVSTmCapYKeue-GMGlL0R66dornbf5dCtpuoq3EkCL2CVANgjpttdiqpJ2uCdVz-rV3xnygRHotkEDM-Ib9uYofiYfQU0_WK0?></g></svg>