<svg xmlns="http://www.w3.org/2000/svg" xmlns:xlink="http://www.w3.org/1999/xlink" contentStyleType="text/css" data-diagram-type="DESCRIPTION" height="937px" preserveAspectRatio="none" style="width:1295px;height:937px;background:#FAFAFA;" version="1.1" viewBox="0 0 1295 937" width="1295px" zoomAndPan="magnify"><?plantuml 1.2026.3?><defs/><g><rect fill="#FAFAFA" height="937" style="stroke:none;stroke-width:1;" width="1295" x="0" y="0"/><g class="title" data-source-line="94"><text fill="#000000" font-family="'Helvetica Neue, Helvetica, Arial, sans-serif'" font-size="14" font-weight="700" lengthAdjust="spacing" textLength="315.1982" x="486.4009" y="22.9951">Value Stream: Assure a System Release</text></g><!--cluster Motivation--><g class="cluster" data-qualified-name="Motivation" data-source-line="96" id="ent0002"><rect fill="#F7EEF9" height="212" rx="2" ry="2" style="stroke:#7B3F9A;stroke-width:1;" width="488" x="793" y="44.2969"/><text fill="#000000" font-family="'Helvetica Neue, Helvetica, Arial, sans-serif'" font-size="12" font-weight="700" lengthAdjust="spacing" textLength="72.5918" x="1000.7041" y="57.4355">Motivation</text></g><!--cluster Strategy--><g class="cluster" data-qualified-name="Strategy" data-source-line="102" id="ent0006"><rect fill="#FAF0D9" height="757" rx="2" ry="2" style="stroke:#8B6914;stroke-width:1;" width="762" x="7" y="166.2969"/><text fill="#000000" font-family="'Helvetica Neue, Helvetica, Arial, sans-serif'" font-size="12" font-weight="700" lengthAdjust="spacing" textLength="58.6816" x="358.6592" y="179.4355">Strategy</text></g><!--cluster VS_fK25Bo--><g class="cluster" data-qualified-name="Strategy.VS_fK25Bo" data-source-line="103" id="ent0007"><rect fill="#F5DEB3" height="603" rx="2" ry="2" style="stroke:#8B6914;stroke-width:1;" width="386" x="313" y="288.2969"/><path d="M411.3963,297.22 L421.0886,297.22 L424.5502,301.3738 L421.0886,305.5276 L411.3963,305.5276 L414.1656,301.3738" fill="#252327" style="stroke:none;stroke-width:1;"/><text fill="#000000" font-family="'Helvetica Neue, Helvetica, Arial, sans-serif'" font-size="12" font-weight="700" lengthAdjust="spacing" textLength="169.7988" x="434.2664" y="309.6206">Assure a System Release</text></g><!--entity VAL_F6BTAd--><g class="entity" data-qualified-name="Motivation.VAL_F6BTAd" data-source-line="97" id="ent0003"><rect fill="#EDD6F0" height="42.1538" rx="2" ry="2" style="stroke:#7B3F9A;stroke-width:0.5;" width="339.23" x="925.5" y="76.2969"/><ellipse cx="946.5769" cy="97.3738" fill="none" rx="6.2308" ry="6.2308" style="stroke:#252327;stroke-width:1.8;"/><path d="M945.6769,92.5276 L945.6769,102.22 L947.4769,102.22 L947.4769,92.5276" fill="#252327"/><path d="M941.9246,95.3523 L942.9215,93.8569 L947.0754,96.6261 L946.0785,98.1215" fill="#252327"/><path d="M947.0754,98.1215 L946.0785,96.6261 L950.2323,93.8569 L951.2292,95.3523" fill="#252327"/><text fill="#000000" font-family="'Helvetica Neue, Helvetica, Arial, sans-serif'" font-size="12" lengthAdjust="spacing" textLength="293.2617" x="961.4683" y="105.6206">Provable Assurance Without Specialist Overhead</text></g><!--entity STK_r4P3gy--><g class="entity" data-qualified-name="Motivation.STK_r4P3gy" data-source-line="98" id="ent0004"><rect fill="#EDD6F0" height="42.1538" rx="2" ry="2" style="stroke:#7B3F9A;stroke-width:0.5;" width="193.6773" x="809" y="198.2969"/><path d="M823.2923,213.9738 L833.4,213.9738 L837,219.3738 L833.4,224.7738 L823.2923,224.7738 L826.7538,219.3738" fill="#252327" style="stroke:none;stroke-width:0.5;"/><text fill="#000000" font-family="'Helvetica Neue, Helvetica, Arial, sans-serif'" font-size="12" lengthAdjust="spacing" textLength="147.709" x="844.9683" y="227.6206">Safety / Security Analyst</text></g><!--entity STK_AsnqRa--><g class="entity" data-qualified-name="Motivation.STK_AsnqRa" data-source-line="99" id="ent0005"><rect fill="#EDD6F0" height="42.1538" rx="2" ry="2" style="stroke:#7B3F9A;stroke-width:0.5;" width="202.4195" x="1063" y="198.2969"/><path d="M1077.2923,213.9738 L1087.4,213.9738 L1091,219.3738 L1087.4,224.7738 L1077.2923,224.7738 L1080.7538,219.3738" fill="#252327" style="stroke:none;stroke-width:0.5;"/><text fill="#000000" font-family="'Helvetica Neue, Helvetica, Arial, sans-serif'" font-size="12" lengthAdjust="spacing" textLength="156.4512" x="1098.9683" y="227.6206">Risk &amp; Compliance Officer</text></g><!--entity CAP_Eb_x83--><g class="entity" data-qualified-name="Strategy.CAP_Eb_x83" data-source-line="114" id="ent0017"><rect fill="#F5DEB3" height="42.1538" rx="2" ry="2" style="stroke:#8B6914;stroke-width:0.5;" width="361.5425" x="53" y="198.2969"/><path d="M67.2923,223.8738 L80.8615,223.8738 L80.8615,225.6738 L67.2923,225.6738" fill="#252327"/><path d="M68.5385,220.4815 L71.1692,220.4815 L71.1692,224.7738 L68.5385,224.7738" fill="#252327"/><path d="M72.4154,217.7123 L75.0462,217.7123 L75.0462,224.7738 L72.4154,224.7738" fill="#252327"/><path d="M76.2923,214.8046 L78.9231,214.8046 L78.9231,224.7738 L76.2923,224.7738" fill="#252327"/><text fill="#000000" font-family="'Helvetica Neue, Helvetica, Arial, sans-serif'" font-size="12" lengthAdjust="spacing" textLength="315.5742" x="88.9683" y="227.6206">Integrated Safety, Security &amp; Compliance Assurance</text></g><!--entity CAP_pLMHKe--><g class="entity" data-qualified-name="Strategy.CAP_pLMHKe" data-source-line="115" id="ent0018"><rect fill="#F5DEB3" height="42.1538" rx="2" ry="2" style="stroke:#8B6914;stroke-width:0.5;" width="272.6031" x="475.5" y="198.2969"/><path d="M489.7923,223.8738 L503.3615,223.8738 L503.3615,225.6738 L489.7923,225.6738" fill="#252327"/><path d="M491.0385,220.4815 L493.6692,220.4815 L493.6692,224.7738 L491.0385,224.7738" fill="#252327"/><path d="M494.9154,217.7123 L497.5462,217.7123 L497.5462,224.7738 L494.9154,224.7738" fill="#252327"/><path d="M498.7923,214.8046 L501.4231,214.8046 L501.4231,224.7738 L498.7923,224.7738" fill="#252327"/><text fill="#000000" font-family="'Helvetica Neue, Helvetica, Arial, sans-serif'" font-size="12" lengthAdjust="spacing" textLength="226.6348" x="511.4683" y="227.6206">Architecture Knowledge Management</text></g><!--entity CAP_0kQIHh--><g class="entity" data-qualified-name="Strategy.CAP_0kQIHh" data-source-line="116" id="ent0019"><rect fill="#F5DEB3" height="42.1538" rx="2" ry="2" style="stroke:#8B6914;stroke-width:0.5;" width="266.2632" x="23" y="703.2969"/><path d="M37.2923,728.8738 L50.8615,728.8738 L50.8615,730.6738 L37.2923,730.6738" fill="#252327"/><path d="M38.5385,725.4815 L41.1692,725.4815 L41.1692,729.7738 L38.5385,729.7738" fill="#252327"/><path d="M42.4154,722.7123 L45.0462,722.7123 L45.0462,729.7738 L42.4154,729.7738" fill="#252327"/><path d="M46.2923,719.8046 L48.9231,719.8046 L48.9231,729.7738 L46.2923,729.7738" fill="#252327"/><text fill="#000000" font-family="'Helvetica Neue, Helvetica, Arial, sans-serif'" font-size="12" lengthAdjust="spacing" textLength="220.2949" x="58.9683" y="732.6206">Architecture Analysis &amp; Visualization</text></g><!--entity VS_eqoIe2--><g class="entity" data-qualified-name="Strategy.VS_fK25Bo.VS_eqoIe2" data-source-line="104" id="ent0008"><rect fill="#F5DEB3" height="42.1538" rx="2" ry="2" style="stroke:#8B6914;stroke-width:0.5;" width="293.8081" x="337" y="337.2969"/><path d="M350.4615,354.22 L360.1538,354.22 L363.6154,358.3738 L360.1538,362.5276 L350.4615,362.5276 L353.2308,358.3738" fill="#252327" style="stroke:none;stroke-width:0.5;"/><text fill="#000000" font-family="'Helvetica Neue, Helvetica, Arial, sans-serif'" font-size="12" lengthAdjust="spacing" textLength="247.8398" x="372.9683" y="366.6206">Establish the Assurance Analysis Context</text></g><!--entity VS_S4ZTiY--><g class="entity" data-qualified-name="Strategy.VS_fK25Bo.VS_S4ZTiY" data-source-line="105" id="ent0009"><rect fill="#F5DEB3" height="42.1538" rx="2" ry="2" style="stroke:#8B6914;stroke-width:0.5;" width="208.4488" x="380" y="459.2969"/><path d="M393.4615,476.22 L403.1538,476.22 L406.6154,480.3738 L403.1538,484.5276 L393.4615,484.5276 L396.2308,480.3738" fill="#252327" style="stroke:none;stroke-width:0.5;"/><text fill="#000000" font-family="'Helvetica Neue, Helvetica, Arial, sans-serif'" font-size="12" lengthAdjust="spacing" textLength="162.4805" x="415.9683" y="488.6206">Analyze Hazards &amp; Threats</text></g><!--entity VS_R_f15Z--><g class="entity" data-qualified-name="Strategy.VS_fK25Bo.VS_R_f15Z" data-source-line="106" id="ent0010"><rect fill="#F5DEB3" height="42.1538" rx="2" ry="2" style="stroke:#8B6914;stroke-width:0.5;" width="240.4995" x="364" y="581.2969"/><path d="M377.4615,598.22 L387.1538,598.22 L390.6154,602.3738 L387.1538,606.5276 L377.4615,606.5276 L380.2308,602.3738" fill="#252327" style="stroke:none;stroke-width:0.5;"/><text fill="#000000" font-family="'Helvetica Neue, Helvetica, Arial, sans-serif'" font-size="12" lengthAdjust="spacing" textLength="194.5313" x="399.9683" y="610.6206">Contextualize Supply-Chain Risk</text></g><!--entity VS_LkIafZ--><g class="entity" data-qualified-name="Strategy.VS_fK25Bo.VS_LkIafZ" data-source-line="107" id="ent0011"><rect fill="#F5DEB3" height="42.1538" rx="2" ry="2" style="stroke:#8B6914;stroke-width:0.5;" width="308.9663" x="349.5" y="703.2969"/><path d="M362.9615,720.22 L372.6538,720.22 L376.1154,724.3738 L372.6538,728.5276 L362.9615,728.5276 L365.7308,724.3738" fill="#252327" style="stroke:none;stroke-width:0.5;"/><text fill="#000000" font-family="'Helvetica Neue, Helvetica, Arial, sans-serif'" font-size="12" lengthAdjust="spacing" textLength="262.998" x="385.4683" y="732.6206">Treat Risks &amp; Track Compliance Obligations</text></g><!--entity VS_hRUzQe--><g class="entity" data-qualified-name="Strategy.VS_fK25Bo.VS_hRUzQe" data-source-line="108" id="ent0012"><rect fill="#F5DEB3" height="42.1538" rx="2" ry="2" style="stroke:#8B6914;stroke-width:0.5;" width="241.4605" x="383.5" y="825.2969"/><path d="M396.9615,842.22 L406.6538,842.22 L410.1154,846.3738 L406.6538,850.5276 L396.9615,850.5276 L399.7308,846.3738" fill="#252327" style="stroke:none;stroke-width:0.5;"/><text fill="#000000" font-family="'Helvetica Neue, Helvetica, Arial, sans-serif'" font-size="12" lengthAdjust="spacing" textLength="195.4922" x="419.4683" y="854.6206">Build &amp; Seal the Assurance Case</text></g><!--link VS_eqoIe2 to VS_S4ZTiY--><!--link VS_eqoIe2 to VS_S4ZTiY--><g class="link" data-entity-1="ent0008" data-entity-2="ent0009" data-link-type="dependency" data-source-line="133" id="lnk33"><path d="M518.67,379.5469 C518.67,401.9369 518.67,430.9869 518.67,453.2869" fill="none" id="VS_eqoIe2-to-VS_S4ZTiY" style="stroke:#181818;stroke-width:1;stroke-dasharray:7,7;"/><polygon fill="#181818" points="518.67,459.2869,522.67,450.2869,518.67,454.2869,514.67,450.2869,518.67,459.2869" style="stroke:#181818;stroke-width:1;"/></g><!--link VS_S4ZTiY to VS_R_f15Z--><!--link VS_S4ZTiY to VS_R_f15Z--><g class="link" data-entity-1="ent0009" data-entity-2="ent0010" data-link-type="dependency" data-source-line="134" id="lnk34"><path d="M518.67,501.5469 C518.67,523.9369 518.67,552.9869 518.67,575.2869" fill="none" id="VS_S4ZTiY-to-VS_R_f15Z" style="stroke:#181818;stroke-width:1;stroke-dasharray:7,7;"/><polygon fill="#181818" points="518.67,581.2869,522.67,572.2869,518.67,576.2869,514.67,572.2869,518.67,581.2869" style="stroke:#181818;stroke-width:1;"/></g><!--link VS_R_f15Z to VS_LkIafZ--><!--link VS_R_f15Z to VS_LkIafZ--><g class="link" data-entity-1="ent0010" data-entity-2="ent0011" data-link-type="dependency" data-source-line="135" id="lnk35"><path d="M524,623.5469 C524,645.9369 524,674.9869 524,697.2869" fill="none" id="VS_R_f15Z-to-VS_LkIafZ" style="stroke:#181818;stroke-width:1;stroke-dasharray:7,7;"/><polygon fill="#181818" points="524,703.2869,528,694.2869,524,698.2869,520,694.2869,524,703.2869" style="stroke:#181818;stroke-width:1;"/></g><!--link VS_LkIafZ to VS_hRUzQe--><!--link VS_LkIafZ to VS_hRUzQe--><g class="link" data-entity-1="ent0011" data-entity-2="ent0012" data-link-type="dependency" data-source-line="136" id="lnk36"><path d="M544.17,745.5469 C544.17,767.9369 544.17,796.9869 544.17,819.2869" fill="none" id="VS_LkIafZ-to-VS_hRUzQe" style="stroke:#181818;stroke-width:1;stroke-dasharray:7,7;"/><polygon fill="#181818" points="544.17,825.2869,548.17,816.2869,544.17,820.2869,540.17,816.2869,544.17,825.2869" style="stroke:#181818;stroke-width:1;"/></g><!--link CAP_pLMHKe to VS_eqoIe2--><g class="link" data-entity-1="ent0018" data-entity-2="ent0008" data-link-type="dependency" data-source-line="120" id="lnk20"><path d="M553.25,240.4069 C553.25,266.5369 553.25,304.7669 553.25,330.9869" fill="none" id="CAP_pLMHKe-to-VS_eqoIe2" style="stroke:#181818;stroke-width:1;"/><polygon fill="#181818" points="553.25,336.9869,557.25,327.9869,553.25,331.9869,549.25,327.9869,553.25,336.9869" style="stroke:#181818;stroke-width:1;"/></g><!--link CAP_Eb_x83 to VS_fK25Bo--><g class="link" data-entity-1="ent0017" data-entity-2="ent0007" data-link-type="dependency" data-source-line="121" id="lnk21"><path d="M389,240.5569 C389,253.2919 389,269.4769 389,282.4781 C389,284.1033 389,285.6787 389,287.1914 C389,287.3805 389,287.5686 389,287.7557 C389,287.8493 389,281.9426 389,282.0356" fill="none" id="CAP_Eb_x83-to-VS_fK25Bo" style="stroke:#181818;stroke-width:1;"/><polygon fill="#181818" points="389,288.0356,393,279.0356,389,283.0356,385,279.0356,389,288.0356" style="stroke:#181818;stroke-width:1;"/></g><!--link CAP_Eb_x83 to VS_eqoIe2--><g class="link" data-entity-1="ent0017" data-entity-2="ent0008" data-link-type="dependency" data-source-line="122" id="lnk22"><path d="M363,240.4069 C363,266.5369 363,304.7669 363,330.9869" fill="none" id="CAP_Eb_x83-to-VS_eqoIe2" style="stroke:#181818;stroke-width:1;"/><polygon fill="#181818" points="363,336.9869,367,327.9869,363,331.9869,359,327.9869,363,336.9869" style="stroke:#181818;stroke-width:1;"/></g><!--link CAP_Eb_x83 to VS_S4ZTiY--><g class="link" data-entity-1="ent0017" data-entity-2="ent0009" data-link-type="dependency" data-source-line="123" id="lnk23"><path d="M327.4,240.6569 C327.4,302.9869 327.4,480.2969 327.4,480.2969 C327.4,480.2969 345.06,480.2969 373.98,480.2969" fill="none" id="CAP_Eb_x83-to-VS_S4ZTiY" style="stroke:#181818;stroke-width:1;"/><polygon fill="#181818" points="379.98,480.2969,370.98,476.2969,374.98,480.2969,370.98,484.2969,379.98,480.2969" style="stroke:#181818;stroke-width:1;"/></g><!--link CAP_Eb_x83 to VS_R_f15Z--><g class="link" data-entity-1="ent0017" data-entity-2="ent0010" data-link-type="dependency" data-source-line="124" id="lnk24"><path d="M317.8,240.4369 C317.8,320.7269 317.8,602.2969 317.8,602.2969 C317.8,602.2969 331.66,602.2969 357.65,602.2969" fill="none" id="CAP_Eb_x83-to-VS_R_f15Z" style="stroke:#181818;stroke-width:1;"/><polygon fill="#181818" points="363.65,602.2969,354.65,598.2969,358.65,602.2969,354.65,606.2969,363.65,602.2969" style="stroke:#181818;stroke-width:1;"/></g><!--link CAP_Eb_x83 to VS_LkIafZ--><g class="link" data-entity-1="ent0017" data-entity-2="ent0011" data-link-type="dependency" data-source-line="125" id="lnk25"><path d="M308.2,240.3569 C308.2,335.9269 308.2,724.2969 308.2,724.2969 C308.2,724.2969 319.23,724.2969 343.25,724.2969" fill="none" id="CAP_Eb_x83-to-VS_LkIafZ" style="stroke:#181818;stroke-width:1;"/><polygon fill="#181818" points="349.25,724.2969,340.25,720.2969,344.25,724.2969,340.25,728.2969,349.25,724.2969" style="stroke:#181818;stroke-width:1;"/></g><!--link CAP_Eb_x83 to VS_hRUzQe--><g class="link" data-entity-1="ent0017" data-entity-2="ent0012" data-link-type="dependency" data-source-line="126" id="lnk26"><path d="M298.6,240.6369 C298.6,349.6569 298.6,839.2969 298.6,839.2969 C298.6,839.2969 332.62,839.2969 377.33,839.2969" fill="none" id="CAP_Eb_x83-to-VS_hRUzQe" style="stroke:#181818;stroke-width:1;"/><polygon fill="#181818" points="383.33,839.2969,374.33,835.2969,378.33,839.2969,374.33,843.2969,383.33,839.2969" style="stroke:#181818;stroke-width:1;"/></g><!--link CAP_0kQIHh to VS_hRUzQe--><g class="link" data-entity-1="ent0019" data-entity-2="ent0012" data-link-type="dependency" data-source-line="127" id="lnk27"><path d="M156,745.3069 C156,781.8669 156,853.2969 156,853.2969 C156,853.2969 276.75,853.2969 377.26,853.2969" fill="none" id="CAP_0kQIHh-to-VS_hRUzQe" style="stroke:#181818;stroke-width:1;"/><polygon fill="#181818" points="383.26,853.2969,374.26,849.2969,378.26,853.2969,374.26,857.2969,383.26,853.2969" style="stroke:#181818;stroke-width:1;"/></g><!--link STK_AsnqRa to VS_fK25Bo--><g class="link" data-entity-1="ent0005" data-entity-2="ent0007" data-link-type="association" data-source-line="128" id="lnk28"><path d="M1164,240.3269 C1164,255.4869 1164,273.2969 1164,273.2969 C1164,273.2969 674.25,273.2969 674.25,273.2969 C674.25,273.2969 674.25,278.6094 674.25,286.5781 C674.25,287.0762 674.25,287.5846 674.25,288.1027" fill="none" id="STK_AsnqRa-VS_fK25Bo" style="stroke:#181818;stroke-width:1;"/></g><!--link VAL_F6BTAd to STK_AsnqRa--><g class="link" data-entity-1="ent0003" data-entity-2="ent0005" data-link-type="association" data-source-line="129" id="lnk29"><path d="M1163.75,118.5469 C1163.75,140.9369 1163.75,175.9869 1163.75,198.2869" fill="none" id="VAL_F6BTAd-STK_AsnqRa" style="stroke:#181818;stroke-width:1;"/></g><!--link STK_r4P3gy to VS_fK25Bo--><g class="link" data-entity-1="ent0004" data-entity-2="ent0007" data-link-type="association" data-source-line="130" id="lnk30"><path d="M906,240.4069 C906,279.2969 906,358.2969 906,358.2969 C906,358.2969 855.5575,358.2969 803.5387,358.2969 C777.5294,358.2969 751.1259,358.2969 730.4367,358.2969 C720.0921,358.2969 711.1761,358.2969 704.4521,358.2969 C702.7711,358.2969 701.2271,358.2969 699.8321,358.2969 C699.6577,358.2969 699.4856,358.2969 699.3159,358.2969" fill="none" id="STK_r4P3gy-VS_fK25Bo" style="stroke:#181818;stroke-width:1;"/></g><!--link VAL_F6BTAd to STK_r4P3gy--><g class="link" data-entity-1="ent0003" data-entity-2="ent0004" data-link-type="association" data-source-line="131" id="lnk31"><path d="M964.25,118.5469 C964.25,140.9369 964.25,175.9869 964.25,198.2869" fill="none" id="VAL_F6BTAd-STK_r4P3gy" style="stroke:#181818;stroke-width:1;"/></g><!--link VS_fK25Bo to VAL_F6BTAd--><g class="link" data-entity-1="ent0007" data-entity-2="ent0003" data-link-type="association" data-source-line="132" id="lnk32"><path d="M699.454,369.2969 C701.27,369.2969 703.3574,369.2969 705.6953,369.2969 C715.0469,369.2969 728.4063,369.2969 744.4375,369.2969 C776.5,369.2969 819.25,369.2969 862,369.2969 C947.5,369.2969 1033,369.2969 1033,369.2969 C1033,369.2969 1033,182.7569 1033,118.6369" fill="none" id="VS_fK25Bo-VAL_F6BTAd" style="stroke:#181818;stroke-width:1;"/></g><?plantuml-src xHThRzfMz3k_uioTkaqAZi6OHnKYGH965D97I3EjquHkx8DzXR7Twmk4TFtlEzTrRPDWEj9-MmG2t_D-dskFEmYnH86XN4TOgSGp7aHCi3auE6KBNmx2GBvcSmHjYFuI9RSPlCO57a1sFe2UuCm_W9W5SJL6mQVQTa5ZVezGgnUGiSUSSCK35wRCZx604U4YSEnG12YWKO3VCdlc9iYJq0y5l1ZqrATekiy3LEv0AAGN5X11w62C4JIDeY8Mp1ImRLH-8bk95wxGdrmBxhhaI-3-EXNX_01aU00-kqN_Dr00g5QF2RR1SuNCv_TCyZ0eOTBrVtPnJTv7Up2EKIptigyNnw7DTzbNhUxWcOnmAf_4UCLTRmzEsyOuBWt48xVEWwc_mC36tIo5bACjMU3wU7Hq6Kg-J8pydOeged0U7yEd2a3_KPsrpiu67OK9XOCYXRRwvg3JgtpUBdqi1PFehhyfkpSmJX_9RlURdLgZJBRD8dRBVIxNfLAjqxE-kP_KMB8PUg5Fz6LYpqvFcmDZlq0i6MNeXmkSn58Wcp_HV-zv-3qFl-VXzppy_e_3Buu4bmW_Cs5xV4vvckGXXQDuwSBTt0_YhkP96RqwF5ojLlhAr4FX7jODmpWa2WsM75VzyAwh6M10hKbVxVWeOj83fwjTcdgDe3MzRdaTlMqiQxff31NmNeCfz_skzg9krSrwIpiiS3Lqmu0sqNirlMCi5VrGmNOoDOaUcXcJfPZKSITJHsyQqD1RALDBhnj31Tl6fFmztXAqGiNykAYHKJMlfPkZcWbjlrhNcs3g7HMwaKNFRJBmWOMqnaGumwuMX07kiZUfdE-prER2zX5i0hSriDV9d-Xg3TtAx4hCo8nwO6LrnHtfTJMgXuryaCSMkMwfL1WgAQPneuxVA9TcWp9lDIWqPXCilT4SjTLJIpsr5BPDs9qo4df5zOK-uQmPwZ4HHoLC-6Q9b9sHJdlq1vL6NRV0ybg--ZUhoQzNfMFL_CyLKP5SKl9kaZ8O9yQz0bfM2u70OBocwz1ShHLaT1-fP2C7j7nLQB1ZSHGuZXu6urDiCn-xDTtwV0nlHRXajqINA6Uql-0FJXUMXOHnXBGwVHvBUBD4uI5pbCwlKvJ5SDCRJGRD_dNFALTPwCmDnMCsfViH7C8OxOLGqwuNC9ySLpes5m1f6bzVJ4JZhUckzzTqnUCPl8IJS1xvFF7mpNJARHIbcdfnyF6AqNGkHlxh6bLS9IjrLzJJ4jomh2JXMPJprQA2FPvCB-fMFqnKxQ_iZ5ozfMnw8BrYkh-4dSSKe43YdIpLZX_3Swm_INUYWwxTGtRFX1DJDguz8f9ngR9nuyCr__D9ob8_5kf2IysrY29_NJtn60-IKYXLUJMPrgmFJr9vhPn9f2U-2Re4RDGRnTrDshJSuT7id4sVfhs_uBv3UiTqXt-Gt9DTvUHTlRz_XudABBrG_OlUnnmC_XRgkbnza8lij8sk4C3ij8sku6fssaQNsVUvlBVosz96ICwf15pLequwQ0xoERCn2h9GgIXjt6OfHYUzjvEpsybTszpRW9uYaCIY6lmY25S-EYx29GkOYtCCP9c-Q7GvlC3lqvUrz4kuuV4YUxChqsdCtfqFFJNlVb7T4v0OLQkLt9xaHIwV0NbWlYA-ZAOjY5AEjAeU8z8oUen8w-On8YsKt9K7Y7ocgnUztDfyVobuOVBdw-PR3EbIoeUpei_NOjvNwlqlzphlenIUEfttJGfFVSxx98MddlqB?></g></svg>