<svg xmlns="http://www.w3.org/2000/svg" xmlns:xlink="http://www.w3.org/1999/xlink" contentStyleType="text/css" data-diagram-type="DESCRIPTION" height="401px" preserveAspectRatio="none" style="width:3125px;height:401px;background:#FAFAFA;" version="1.1" viewBox="0 0 3125 401" width="3125px" zoomAndPan="magnify"><?plantuml 1.2026.3?><defs/><g><rect fill="#FAFAFA" height="401" style="stroke:none;stroke-width:1;" width="3125" x="0" y="0"/><g class="title" data-source-line="105"><text fill="#000000" font-family="'Helvetica Neue, Helvetica, Arial, sans-serif'" font-size="14" font-weight="700" lengthAdjust="spacing" textLength="147.1162" x="1485.4419" y="22.9951">Strategy Overview</text></g><!--cluster Motivation--><g class="cluster" data-qualified-name="Motivation" data-source-line="107" id="ent0002"><rect fill="#F7EEF9" height="90" rx="2" ry="2" style="stroke:#7B3F9A;stroke-width:1;" width="656" x="7" y="44.2969"/><text fill="#000000" font-family="'Helvetica Neue, Helvetica, Arial, sans-serif'" font-size="12" font-weight="700" lengthAdjust="spacing" textLength="72.5918" x="298.7041" y="57.4355">Motivation</text></g><!--cluster Strategy--><g class="cluster" data-qualified-name="Strategy" data-source-line="112" id="ent0005"><rect fill="#FAF0D9" height="334" rx="2" ry="2" style="stroke:#8B6914;stroke-width:1;" width="2424" x="687" y="44.2969"/><text fill="#000000" font-family="'Helvetica Neue, Helvetica, Arial, sans-serif'" font-size="12" font-weight="700" lengthAdjust="spacing" textLength="58.6816" x="1869.6592" y="57.4355">Strategy</text></g><!--entity OUT_LrpdG0--><g class="entity" data-qualified-name="Motivation.OUT_LrpdG0" data-source-line="108" id="ent0003"><rect fill="#EDD6F0" height="42.1538" rx="2" ry="2" style="stroke:#7B3F9A;stroke-width:0.5;" width="254.1695" x="23" y="76.2969"/><ellipse cx="43.2462" cy="98.2046" fill="none" rx="5.9538" ry="5.9538" style="stroke:#252327;stroke-width:1.8;"/><ellipse cx="43.2462" cy="98.2046" fill="none" rx="3.0462" ry="3.0462" style="stroke:#252327;stroke-width:1.8;"/><path d="M47.0954,95.8923 L46.0431,94.4246 L50.3354,91.3784 L51.3877,92.8461" fill="#252327"/><path d="M47.1231,96.3353 L50.5846,96.3353 L50.5846,98.1353 L47.1231,98.1353" fill="#252327"/><ellipse cx="43.2462" cy="98.2046" fill="#252327" rx="1.2462" ry="1.2462" style="stroke:none;stroke-width:1.8;"/><text fill="#000000" font-family="'Helvetica Neue, Helvetica, Arial, sans-serif'" font-size="12" lengthAdjust="spacing" textLength="208.2012" x="58.9683" y="105.6206">Increased Architectural Coherence</text></g><!--entity OUT_Vhhne7--><g class="entity" data-qualified-name="Motivation.OUT_Vhhne7" data-source-line="109" id="ent0004"><rect fill="#EDD6F0" height="42.1538" rx="2" ry="2" style="stroke:#7B3F9A;stroke-width:0.5;" width="309.9331" x="337" y="76.2969"/><ellipse cx="357.2462" cy="98.2046" fill="none" rx="5.9538" ry="5.9538" style="stroke:#252327;stroke-width:1.8;"/><ellipse cx="357.2462" cy="98.2046" fill="none" rx="3.0462" ry="3.0462" style="stroke:#252327;stroke-width:1.8;"/><path d="M361.0954,95.8923 L360.0431,94.4246 L364.3354,91.3784 L365.3877,92.8461" fill="#252327"/><path d="M361.1231,96.3353 L364.5846,96.3353 L364.5846,98.1353 L361.1231,98.1353" fill="#252327"/><ellipse cx="357.2462" cy="98.2046" fill="#252327" rx="1.2462" ry="1.2462" style="stroke:none;stroke-width:1.8;"/><text fill="#000000" font-family="'Helvetica Neue, Helvetica, Arial, sans-serif'" font-size="12" lengthAdjust="spacing" textLength="263.9648" x="372.9683" y="105.6206">Assurance Analysis Surfaces Modeling Gaps</text></g><!--entity CAP_pLMHKe--><g class="entity" data-qualified-name="Strategy.CAP_pLMHKe" data-source-line="113" id="ent0006"><rect fill="#F5DEB3" height="42.1538" rx="2" ry="2" style="stroke:#8B6914;stroke-width:0.5;" width="272.6031" x="1160.5" y="76.2969"/><path d="M1174.7923,101.8738 L1188.3615,101.8738 L1188.3615,103.6738 L1174.7923,103.6738" fill="#252327"/><path d="M1176.0385,98.4815 L1178.6692,98.4815 L1178.6692,102.7738 L1176.0385,102.7738" fill="#252327"/><path d="M1179.9154,95.7123 L1182.5462,95.7123 L1182.5462,102.7738 L1179.9154,102.7738" fill="#252327"/><path d="M1183.7923,92.8046 L1186.4231,92.8046 L1186.4231,102.7738 L1183.7923,102.7738" fill="#252327"/><text fill="#000000" font-family="'Helvetica Neue, Helvetica, Arial, sans-serif'" font-size="12" lengthAdjust="spacing" textLength="226.6348" x="1196.4683" y="105.6206">Architecture Knowledge Management</text></g><!--entity CAP_db4AQh--><g class="entity" data-qualified-name="Strategy.CAP_db4AQh" data-source-line="114" id="ent0007"><rect fill="#F5DEB3" height="42.1538" rx="2" ry="2" style="stroke:#8B6914;stroke-width:0.5;" width="286.2671" x="1494" y="76.2969"/><path d="M1508.2923,101.8738 L1521.8615,101.8738 L1521.8615,103.6738 L1508.2923,103.6738" fill="#252327"/><path d="M1509.5385,98.4815 L1512.1692,98.4815 L1512.1692,102.7738 L1509.5385,102.7738" fill="#252327"/><path d="M1513.4154,95.7123 L1516.0462,95.7123 L1516.0462,102.7738 L1513.4154,102.7738" fill="#252327"/><path d="M1517.2923,92.8046 L1519.9231,92.8046 L1519.9231,102.7738 L1517.2923,102.7738" fill="#252327"/><text fill="#000000" font-family="'Helvetica Neue, Helvetica, Arial, sans-serif'" font-size="12" lengthAdjust="spacing" textLength="240.2988" x="1529.9683" y="105.6206">Agent-Native Architecture Collaboration</text></g><!--entity CAP_FMvdNM--><g class="entity" data-qualified-name="Strategy.CAP_FMvdNM" data-source-line="115" id="ent0008"><rect fill="#F5DEB3" height="42.1538" rx="2" ry="2" style="stroke:#8B6914;stroke-width:0.5;" width="230.146" x="2264" y="76.2969"/><path d="M2278.2923,101.8738 L2291.8615,101.8738 L2291.8615,103.6738 L2278.2923,103.6738" fill="#252327"/><path d="M2279.5385,98.4815 L2282.1692,98.4815 L2282.1692,102.7738 L2279.5385,102.7738" fill="#252327"/><path d="M2283.4154,95.7123 L2286.0462,95.7123 L2286.0462,102.7738 L2283.4154,102.7738" fill="#252327"/><path d="M2287.2923,92.8046 L2289.9231,92.8046 L2289.9231,102.7738 L2287.2923,102.7738" fill="#252327"/><text fill="#000000" font-family="'Helvetica Neue, Helvetica, Arial, sans-serif'" font-size="12" lengthAdjust="spacing" textLength="184.1777" x="2299.9683" y="105.6206">Tiered Knowledge Governance</text></g><!--entity CAP_Eb_x83--><g class="entity" data-qualified-name="Strategy.CAP_Eb_x83" data-source-line="116" id="ent0009"><rect fill="#F5DEB3" height="42.1538" rx="2" ry="2" style="stroke:#8B6914;stroke-width:0.5;" width="361.5425" x="1842" y="76.2969"/><path d="M1856.2923,101.8738 L1869.8615,101.8738 L1869.8615,103.6738 L1856.2923,103.6738" fill="#252327"/><path d="M1857.5385,98.4815 L1860.1692,98.4815 L1860.1692,102.7738 L1857.5385,102.7738" fill="#252327"/><path d="M1861.4154,95.7123 L1864.0462,95.7123 L1864.0462,102.7738 L1861.4154,102.7738" fill="#252327"/><path d="M1865.2923,92.8046 L1867.9231,92.8046 L1867.9231,102.7738 L1865.2923,102.7738" fill="#252327"/><text fill="#000000" font-family="'Helvetica Neue, Helvetica, Arial, sans-serif'" font-size="12" lengthAdjust="spacing" textLength="315.5742" x="1877.9683" y="105.6206">Integrated Safety, Security &amp; Compliance Assurance</text></g><!--entity CAP_0kQIHh--><g class="entity" data-qualified-name="Strategy.CAP_0kQIHh" data-source-line="117" id="ent0010"><rect fill="#F5DEB3" height="42.1538" rx="2" ry="2" style="stroke:#8B6914;stroke-width:0.5;" width="266.2632" x="1697" y="198.2969"/><path d="M1711.2923,223.8738 L1724.8615,223.8738 L1724.8615,225.6738 L1711.2923,225.6738" fill="#252327"/><path d="M1712.5385,220.4815 L1715.1692,220.4815 L1715.1692,224.7738 L1712.5385,224.7738" fill="#252327"/><path d="M1716.4154,217.7123 L1719.0462,217.7123 L1719.0462,224.7738 L1716.4154,224.7738" fill="#252327"/><path d="M1720.2923,214.8046 L1722.9231,214.8046 L1722.9231,224.7738 L1720.2923,224.7738" fill="#252327"/><text fill="#000000" font-family="'Helvetica Neue, Helvetica, Arial, sans-serif'" font-size="12" lengthAdjust="spacing" textLength="220.2949" x="1732.9683" y="227.6206">Architecture Analysis &amp; Visualization</text></g><!--entity COA_jckOJG--><g class="entity" data-qualified-name="Strategy.COA_jckOJG" data-source-line="118" id="ent0011"><rect fill="#F5DEB3" height="42.1538" rx="2" ry="2" style="stroke:#8B6914;stroke-width:0.5;" width="305.2984" x="2085.5" y="198.2969"/><ellipse cx="2110.3154" cy="215.7738" fill="none" rx="2.7692" ry="2.7692" style="stroke:#252327;stroke-width:1.8;"/><ellipse cx="2110.3154" cy="215.7738" fill="#252327" rx="0.9692" ry="0.9692" style="stroke:none;stroke-width:1.8;"/><path d="M2100.5677,225.8261 L2099.2938,224.5523 L2105.8015,218.0446 L2107.0754,219.3184" fill="#252327"/><path d="M2103.8077,217.7815 L2106.4385,217.7815 L2106.4385,219.5815 L2103.8077,219.5815" fill="#252327"/><path d="M2105.5385,218.6815 L2105.5385,221.3123 L2107.3385,221.3123 L2107.3385,218.6815" fill="#252327"/><text fill="#000000" font-family="'Helvetica Neue, Helvetica, Arial, sans-serif'" font-size="12" lengthAdjust="spacing" textLength="259.3301" x="2121.4683" y="227.6206">Develop Privately, Release as Open Source</text></g><!--entity COA_FI0Xbj--><g class="entity" data-qualified-name="Strategy.COA_FI0Xbj" data-source-line="119" id="ent0012"><rect fill="#F5DEB3" height="42.1538" rx="2" ry="2" style="stroke:#8B6914;stroke-width:0.5;" width="271.2788" x="703.5" y="198.2969"/><ellipse cx="728.3154" cy="215.7738" fill="none" rx="2.7692" ry="2.7692" style="stroke:#252327;stroke-width:1.8;"/><ellipse cx="728.3154" cy="215.7738" fill="#252327" rx="0.9692" ry="0.9692" style="stroke:none;stroke-width:1.8;"/><path d="M718.5677,225.8261 L717.2938,224.5523 L723.8015,218.0446 L725.0754,219.3184" fill="#252327"/><path d="M721.8077,217.7815 L724.4385,217.7815 L724.4385,219.5815 L721.8077,219.5815" fill="#252327"/><path d="M723.5385,218.6815 L723.5385,221.3123 L725.3385,221.3123 L725.3385,218.6815" fill="#252327"/><text fill="#000000" font-family="'Helvetica Neue, Helvetica, Arial, sans-serif'" font-size="12" lengthAdjust="spacing" textLength="225.3105" x="739.4683" y="227.6206">Dogfood via the Recursive Self-Model</text></g><!--entity COA_F9mwVZ--><g class="entity" data-qualified-name="Strategy.COA_F9mwVZ" data-source-line="120" id="ent0013"><rect fill="#F5DEB3" height="42.1538" rx="2" ry="2" style="stroke:#8B6914;stroke-width:0.5;" width="352.7417" x="1097.5" y="198.2969"/><ellipse cx="1122.3154" cy="215.7738" fill="none" rx="2.7692" ry="2.7692" style="stroke:#252327;stroke-width:1.8;"/><ellipse cx="1122.3154" cy="215.7738" fill="#252327" rx="0.9692" ry="0.9692" style="stroke:none;stroke-width:1.8;"/><path d="M1112.5677,225.8261 L1111.2938,224.5523 L1117.8015,218.0446 L1119.0754,219.3184" fill="#252327"/><path d="M1115.8077,217.7815 L1118.4385,217.7815 L1118.4385,219.5815 L1115.8077,219.5815" fill="#252327"/><path d="M1117.5385,218.6815 L1117.5385,221.3123 L1119.3385,221.3123 L1119.3385,218.6815" fill="#252327"/><text fill="#000000" font-family="'Helvetica Neue, Helvetica, Arial, sans-serif'" font-size="12" lengthAdjust="spacing" textLength="306.7734" x="1133.4683" y="227.6206">Guidance-First, License-Separated Method Content</text></g><!--entity RES_JnWnY1--><g class="entity" data-qualified-name="Strategy.RES_JnWnY1" data-source-line="121" id="ent0014"><rect fill="#F5DEB3" height="42.1538" rx="2" ry="2" style="stroke:#8B6914;stroke-width:0.5;" width="285.8745" x="703" y="320.2969"/><path d="M717.1538,335.8353 L731,335.8353 L731,346.9123 L717.1538,346.9123" fill="#252327" style="stroke:none;stroke-width:0.5;"/><path d="M717.1538,338.3969 L731,338.3969 L731,340.1969 L717.1538,340.1969" fill="#252327"/><path d="M720.4077,335.8353 L720.4077,346.9123 L722.2077,346.9123 L722.2077,335.8353" fill="#252327"/><text fill="#000000" font-family="'Helvetica Neue, Helvetica, Arial, sans-serif'" font-size="12" lengthAdjust="spacing" textLength="239.9063" x="738.9683" y="349.6206">Recursive Self-Model (ENG-ARCH-REPO)</text></g><!--entity RES_dz41en--><g class="entity" data-qualified-name="Strategy.RES_dz41en" data-source-line="122" id="ent0015"><rect fill="#F5DEB3" height="42.1538" rx="2" ry="2" style="stroke:#8B6914;stroke-width:0.5;" width="288.3179" x="1049" y="320.2969"/><path d="M1063.1538,335.8353 L1077,335.8353 L1077,346.9123 L1063.1538,346.9123" fill="#252327" style="stroke:none;stroke-width:0.5;"/><path d="M1063.1538,338.3969 L1077,338.3969 L1077,340.1969 L1063.1538,340.1969" fill="#252327"/><path d="M1066.4077,335.8353 L1066.4077,346.9123 L1068.2077,346.9123 L1068.2077,335.8353" fill="#252327"/><text fill="#000000" font-family="'Helvetica Neue, Helvetica, Arial, sans-serif'" font-size="12" lengthAdjust="spacing" textLength="242.3496" x="1084.9683" y="349.6206">Enterprise Architecture Knowledge Base</text></g><!--entity RES_0mpHI_--><g class="entity" data-qualified-name="Strategy.RES_0mpHI_" data-source-line="123" id="ent0016"><rect fill="#F5DEB3" height="42.1538" rx="2" ry="2" style="stroke:#8B6914;stroke-width:0.5;" width="210.9742" x="1741.5" y="320.2969"/><path d="M1755.6538,335.8353 L1769.5,335.8353 L1769.5,346.9123 L1755.6538,346.9123" fill="#252327" style="stroke:none;stroke-width:0.5;"/><path d="M1755.6538,338.3969 L1769.5,338.3969 L1769.5,340.1969 L1755.6538,340.1969" fill="#252327"/><path d="M1758.9077,335.8353 L1758.9077,346.9123 L1760.7077,346.9123 L1760.7077,335.8353" fill="#252327"/><text fill="#000000" font-family="'Helvetica Neue, Helvetica, Arial, sans-serif'" font-size="12" lengthAdjust="spacing" textLength="165.0059" x="1777.4683" y="349.6206">Assurance Knowledge Base</text></g><!--entity RES_H7YRYJ--><g class="entity" data-qualified-name="Strategy.RES_H7YRYJ" data-source-line="124" id="ent0017"><rect fill="#F5DEB3" height="42.1538" rx="2" ry="2" style="stroke:#8B6914;stroke-width:0.5;" width="272.4331" x="2233" y="320.2969"/><path d="M2247.1538,335.8353 L2261,335.8353 L2261,346.9123 L2247.1538,346.9123" fill="#252327" style="stroke:none;stroke-width:0.5;"/><path d="M2247.1538,338.3969 L2261,338.3969 L2261,340.1969 L2247.1538,340.1969" fill="#252327"/><path d="M2250.4077,335.8353 L2250.4077,346.9123 L2252.2077,346.9123 L2252.2077,335.8353" fill="#252327"/><text fill="#000000" font-family="'Helvetica Neue, Helvetica, Arial, sans-serif'" font-size="12" lengthAdjust="spacing" textLength="226.4648" x="2268.9683" y="349.6206">Modelling &amp; Method Guidance Corpus</text></g><!--entity VS_VZ_P2h--><g class="entity" data-qualified-name="Strategy.VS_VZ_P2h" data-source-line="125" id="ent0018"><rect fill="#F5DEB3" height="42.1538" rx="2" ry="2" style="stroke:#8B6914;stroke-width:0.5;" width="284.4449" x="1397" y="320.2969"/><path d="M1410.4615,337.22 L1420.1538,337.22 L1423.6154,341.3738 L1420.1538,345.5276 L1410.4615,345.5276 L1413.2308,341.3738" fill="#252327" style="stroke:none;stroke-width:0.5;"/><text fill="#000000" font-family="'Helvetica Neue, Helvetica, Arial, sans-serif'" font-size="12" lengthAdjust="spacing" textLength="238.4766" x="1432.9683" y="349.6206">Deliver an Architecture-Aligned Change</text></g><!--entity VS_fK25Bo--><g class="entity" data-qualified-name="Strategy.VS_fK25Bo" data-source-line="126" id="ent0019"><rect fill="#F5DEB3" height="42.1538" rx="2" ry="2" style="stroke:#8B6914;stroke-width:0.5;" width="197.5738" x="2565" y="320.2969"/><path d="M2578.4615,337.22 L2588.1538,337.22 L2591.6154,341.3738 L2588.1538,345.5276 L2578.4615,345.5276 L2581.2308,341.3738" fill="#252327" style="stroke:none;stroke-width:0.5;"/><text fill="#000000" font-family="'Helvetica Neue, Helvetica, Arial, sans-serif'" font-size="12" lengthAdjust="spacing" textLength="151.6055" x="2600.9683" y="349.6206">Assure a System Release</text></g><!--entity VS_vEQEgh--><g class="entity" data-qualified-name="Strategy.VS_vEQEgh" data-source-line="127" id="ent0020"><rect fill="#F5DEB3" height="42.1538" rx="2" ry="2" style="stroke:#8B6914;stroke-width:0.5;" width="271.7593" x="2823" y="320.2969"/><path d="M2836.4615,337.22 L2846.1538,337.22 L2849.6154,341.3738 L2846.1538,345.5276 L2836.4615,345.5276 L2839.2308,341.3738" fill="#252327" style="stroke:none;stroke-width:0.5;"/><text fill="#000000" font-family="'Helvetica Neue, Helvetica, Arial, sans-serif'" font-size="12" lengthAdjust="spacing" textLength="225.791" x="2858.9683" y="349.6206">Grow Reusable Enterprise Knowledge</text></g><!--entity VS_klQ_6_--><g class="entity" data-qualified-name="Strategy.VS_klQ_6_" data-source-line="128" id="ent0021"><rect fill="#F5DEB3" height="42.1538" rx="2" ry="2" style="stroke:#8B6914;stroke-width:0.5;" width="159.5992" x="2013" y="320.2969"/><path d="M2026.4615,337.22 L2036.1538,337.22 L2039.6154,341.3738 L2036.1538,345.5276 L2026.4615,345.5276 L2029.2308,341.3738" fill="#252327" style="stroke:none;stroke-width:0.5;"/><text fill="#000000" font-family="'Helvetica Neue, Helvetica, Arial, sans-serif'" font-size="12" lengthAdjust="spacing" textLength="113.6309" x="2048.9683" y="349.6206">Adopt the Platform</text></g><!--link OUT_LrpdG0 to OUT_Vhhne7--><!--link CAP_pLMHKe to CAP_db4AQh--><!--link CAP_db4AQh to CAP_FMvdNM--><!--link CAP_FMvdNM to CAP_Eb_x83--><!--link CAP_Eb_x83 to CAP_0kQIHh--><!--link CAP_0kQIHh to COA_jckOJG--><!--link COA_jckOJG to COA_FI0Xbj--><!--link COA_FI0Xbj to COA_F9mwVZ--><!--link COA_F9mwVZ to RES_JnWnY1--><!--link RES_JnWnY1 to RES_dz41en--><!--link RES_dz41en to RES_0mpHI_--><!--link RES_0mpHI_ to RES_H7YRYJ--><!--link RES_H7YRYJ to VS_VZ_P2h--><!--link VS_VZ_P2h to VS_fK25Bo--><!--link VS_fK25Bo to VS_vEQEgh--><!--link VS_vEQEgh to VS_klQ_6_--><!--link RES_JnWnY1 to CAP_pLMHKe--><g class="link" data-entity-1="ent0014" data-entity-2="ent0006" data-link-type="dependency" data-source-line="151" id="lnk38"><path d="M979.33,320.1569 C979.33,260.1769 979.33,93.2969 979.33,93.2969 C979.33,93.2969 1068.34,93.2969 1154.44,93.2969" fill="none" id="RES_JnWnY1-to-CAP_pLMHKe" style="stroke:#181818;stroke-width:1;"/><polygon fill="#181818" points="1160.44,93.2969,1151.44,89.2969,1155.44,93.2969,1151.44,97.2969,1160.44,93.2969" style="stroke:#181818;stroke-width:1;"/></g><!--link RES_dz41en to CAP_pLMHKe--><g class="link" data-entity-1="ent0015" data-entity-2="ent0006" data-link-type="dependency" data-source-line="152" id="lnk39"><path d="M1073.25,319.9769 C1073.25,262.7969 1073.25,110.2969 1073.25,110.2969 C1073.25,110.2969 1107.81,110.2969 1154.4,110.2969" fill="none" id="RES_dz41en-to-CAP_pLMHKe" style="stroke:#181818;stroke-width:1;"/><polygon fill="#181818" points="1160.4,110.2969,1151.4,106.2969,1155.4,110.2969,1151.4,114.2969,1160.4,110.2969" style="stroke:#181818;stroke-width:1;"/></g><!--link CAP_pLMHKe to COA_FI0Xbj--><g class="link" data-entity-1="ent0006" data-entity-2="ent0012" data-link-type="extension" data-source-line="153" id="lnk40"><path d="M1160.21,85.2969 C1025.25,85.2969 839,85.2969 839,85.2969 C839,85.2969 839,142.2769 839,180.0669" fill="none" id="CAP_pLMHKe-to-COA_FI0Xbj" style="stroke:#181818;stroke-width:1;stroke-dasharray:7,7;"/><polygon fill="none" points="839,198.0669,845,180.0669,833,180.0669,839,198.0669" style="stroke:#181818;stroke-width:1;"/></g><!--link CAP_pLMHKe to VS_klQ_6_--><g class="link" data-entity-1="ent0006" data-entity-2="ent0021" data-link-type="dependency" data-source-line="154" id="lnk41"><path d="M1297,118.3769 C1297,138.6669 1297,166.2969 1297,166.2969 C1297,166.2969 2037.17,166.2969 2037.17,166.2969 C2037.17,166.2969 2037.17,267.6469 2037.17,314.1869" fill="none" id="CAP_pLMHKe-to-VS_klQ_6_" style="stroke:#181818;stroke-width:1;"/><polygon fill="#181818" points="2037.17,320.1869,2041.17,311.1869,2037.17,315.1869,2033.17,311.1869,2037.17,320.1869" style="stroke:#181818;stroke-width:1;"/></g><!--link COA_F9mwVZ to CAP_db4AQh--><g class="link" data-entity-1="ent0013" data-entity-2="ent0007" data-link-type="dependency" data-source-line="155" id="lnk42"><path d="M1442,198.2069 C1442,165.0069 1442,104.2969 1442,104.2969 C1442,104.2969 1458.26,104.2969 1487.74,104.2969" fill="none" id="COA_F9mwVZ-to-CAP_db4AQh" style="stroke:#181818;stroke-width:1;"/><polygon fill="#181818" points="1493.74,104.2969,1484.74,100.2969,1488.74,104.2969,1484.74,108.2969,1493.74,104.2969" style="stroke:#181818;stroke-width:1;"/></g><!--link RES_H7YRYJ to CAP_db4AQh--><g class="link" data-entity-1="ent0017" data-entity-2="ent0007" data-link-type="dependency" data-source-line="156" id="lnk43"><path d="M2296,320.2569 C2296,306.2069 2296,290.2969 2296,290.2969 C2296,290.2969 1689,290.2969 1689,290.2969 C1689,290.2969 1689,174.3369 1689,124.3169" fill="none" id="RES_H7YRYJ-to-CAP_db4AQh" style="stroke:#181818;stroke-width:1;"/><polygon fill="#181818" points="1689,118.3169,1685,127.3169,1689,123.3169,1693,127.3169,1689,118.3169" style="stroke:#181818;stroke-width:1;"/></g><!--link CAP_db4AQh to VS_VZ_P2h--><g class="link" data-entity-1="ent0007" data-entity-2="ent0018" data-link-type="dependency" data-source-line="157" id="lnk44"><path d="M1587.5,118.5269 C1587.5,164.7869 1587.5,268.2369 1587.5,314.2969" fill="none" id="CAP_db4AQh-to-VS_VZ_P2h" style="stroke:#181818;stroke-width:1;"/><polygon fill="#181818" points="1587.5,320.2969,1591.5,311.2969,1587.5,315.2969,1583.5,311.2969,1587.5,320.2969" style="stroke:#181818;stroke-width:1;"/></g><!--link RES_dz41en to CAP_FMvdNM--><g class="link" data-entity-1="ent0015" data-entity-2="ent0008" data-link-type="dependency" data-source-line="158" id="lnk45"><path d="M1217.25,320.0169 C1217.25,296.0169 1217.25,260.2969 1217.25,260.2969 C1217.25,260.2969 2442.25,260.2969 2442.25,260.2969 C2442.25,260.2969 2442.25,168.7869 2442.25,124.6069" fill="none" id="RES_dz41en-to-CAP_FMvdNM" style="stroke:#181818;stroke-width:1;"/><polygon fill="#181818" points="2442.25,118.6069,2438.25,127.6069,2442.25,123.6069,2446.25,127.6069,2442.25,118.6069" style="stroke:#181818;stroke-width:1;"/></g><!--link CAP_FMvdNM to VS_vEQEgh--><g class="link" data-entity-1="ent0008" data-entity-2="ent0020" data-link-type="dependency" data-source-line="159" id="lnk46"><path d="M2494.28,97.2969 C2663.43,97.2969 2959,97.2969 2959,97.2969 C2959,97.2969 2959,254.7069 2959,314.0669" fill="none" id="CAP_FMvdNM-to-VS_vEQEgh" style="stroke:#181818;stroke-width:1;"/><polygon fill="#181818" points="2959,320.0669,2963,311.0669,2959,315.0669,2955,311.0669,2959,320.0669" style="stroke:#181818;stroke-width:1;"/></g><!--link RES_0mpHI_ to CAP_Eb_x83--><g class="link" data-entity-1="ent0016" data-entity-2="ent0009" data-link-type="dependency" data-source-line="160" id="lnk47"><path d="M1952.78,341.2969 C1973,341.2969 1988,341.2969 1988,341.2969 C1988,341.2969 1988,183.8869 1988,124.5269" fill="none" id="RES_0mpHI_-to-CAP_Eb_x83" style="stroke:#181818;stroke-width:1;"/><polygon fill="#181818" points="1988,118.5269,1984,127.5269,1988,123.5269,1992,127.5269,1988,118.5269" style="stroke:#181818;stroke-width:1;"/></g><!--link RES_H7YRYJ to CAP_Eb_x83--><g class="link" data-entity-1="ent0017" data-entity-2="ent0009" data-link-type="dependency" data-source-line="161" id="lnk48"><path d="M2359,319.9669 C2359,302.3669 2359,280.2969 2359,280.2969 C2359,280.2969 2061.33,280.2969 2061.33,280.2969 C2061.33,280.2969 2061.33,172.9169 2061.33,124.6469" fill="none" id="RES_H7YRYJ-to-CAP_Eb_x83" style="stroke:#181818;stroke-width:1;"/><polygon fill="#181818" points="2061.33,118.6469,2057.33,127.6469,2061.33,123.6469,2065.33,127.6469,2061.33,118.6469" style="stroke:#181818;stroke-width:1;"/></g><!--link CAP_Eb_x83 to COA_FI0Xbj--><g class="link" data-entity-1="ent0009" data-entity-2="ent0012" data-link-type="extension" data-source-line="162" id="lnk49"><path d="M1882.33,118.3869 C1882.33,126.6969 1882.33,134.2969 1882.33,134.2969 C1882.33,134.2969 906.75,134.2969 906.75,134.2969 C906.75,134.2969 906.75,155.1169 906.75,180.2869" fill="none" id="CAP_Eb_x83-to-COA_FI0Xbj" style="stroke:#181818;stroke-width:1;stroke-dasharray:7,7;"/><polygon fill="none" points="906.75,198.2869,912.75,180.2869,900.75,180.2869,906.75,198.2869" style="stroke:#181818;stroke-width:1;"/></g><!--link CAP_Eb_x83 to VS_fK25Bo--><g class="link" data-entity-1="ent0009" data-entity-2="ent0019" data-link-type="dependency" data-source-line="163" id="lnk50"><path d="M2144.75,118.3069 C2144.75,143.4769 2144.75,182.2969 2144.75,182.2969 C2144.75,182.2969 2697,182.2969 2697,182.2969 C2697,182.2969 2697,270.9269 2697,314.1869" fill="none" id="CAP_Eb_x83-to-VS_fK25Bo" style="stroke:#181818;stroke-width:1;"/><polygon fill="#181818" points="2697,320.1869,2701,311.1869,2697,315.1869,2693,311.1869,2697,320.1869" style="stroke:#181818;stroke-width:1;"/></g><!--link CAP_0kQIHh to VS_VZ_P2h--><g class="link" data-entity-1="ent0010" data-entity-2="ent0018" data-link-type="dependency" data-source-line="164" id="lnk51"><path d="M1719.25,240.5469 C1719.25,275.4969 1719.25,341.2969 1719.25,341.2969 C1719.25,341.2969 1709.36,341.2969 1687.02,341.2969" fill="none" id="CAP_0kQIHh-to-VS_VZ_P2h" style="stroke:#181818;stroke-width:1;"/><polygon fill="#181818" points="1681.02,341.2969,1690.02,345.2969,1686.02,341.2969,1690.02,337.2969,1681.02,341.2969" style="stroke:#181818;stroke-width:1;"/></g><!--link COA_jckOJG to VS_klQ_6_--><g class="link" data-entity-1="ent0011" data-entity-2="ent0021" data-link-type="dependency" data-source-line="165" id="lnk52"><path d="M2143.83,240.5469 C2143.83,262.9369 2143.83,291.9869 2143.83,314.2869" fill="none" id="COA_jckOJG-to-VS_klQ_6_" style="stroke:#181818;stroke-width:1;"/><polygon fill="#181818" points="2143.83,320.2869,2147.83,311.2869,2143.83,315.2869,2139.83,311.2869,2143.83,320.2869" style="stroke:#181818;stroke-width:1;"/></g><!--link RES_JnWnY1 to COA_FI0Xbj--><g class="link" data-entity-1="ent0014" data-entity-2="ent0012" data-link-type="dependency" data-source-line="166" id="lnk53"><path d="M793.83,320.0469 C793.83,297.6569 793.83,268.6069 793.83,246.3069" fill="none" id="RES_JnWnY1-to-COA_FI0Xbj" style="stroke:#181818;stroke-width:1;"/><polygon fill="#181818" points="793.83,240.3069,789.83,249.3069,793.83,245.3069,797.83,249.3069,793.83,240.3069" style="stroke:#181818;stroke-width:1;"/></g><!--reverse link OUT_LrpdG0 to COA_FI0Xbj--><g class="link" data-entity-1="ent0003" data-entity-2="ent0012" data-link-type="dependency" data-source-line="167" id="lnk55"><path d="M150,124.5469 C150,159.4969 150,219.2969 150,219.2969 C150,219.2969 502.56,219.2969 703.29,219.2969" fill="none" id="OUT_LrpdG0-backto-COA_FI0Xbj" style="stroke:#181818;stroke-width:1;stroke-dasharray:7,7;"/><polygon fill="#181818" points="150,118.5469,146,127.5469,150,123.5469,154,127.5469,150,118.5469" style="stroke:#181818;stroke-width:1;"/></g><!--reverse link OUT_Vhhne7 to COA_FI0Xbj--><g class="link" data-entity-1="ent0004" data-entity-2="ent0012" data-link-type="extension" data-source-line="168" id="lnk57"><path d="M665.14,102.2969 C729.42,102.2969 771.25,102.2969 771.25,102.2969 C771.25,102.2969 771.25,164.3969 771.25,198.1069" fill="none" id="OUT_Vhhne7-backto-COA_FI0Xbj" style="stroke:#181818;stroke-width:1;stroke-dasharray:7,7;"/><polygon fill="none" points="647.14,102.2969,665.14,108.2969,665.14,96.2969,647.14,102.2969" style="stroke:#181818;stroke-width:1;"/></g><?plantuml-src xLXjS-As5lxEhpZNlREtdOaTOzux2JCaWP1Tyh9XctPxvmwZs0AxCP974h3Pjl_z7Xc3JR3PmkPZ9XcGvVEcypmwEi8FF0fIKK6vUevegIIV0XOHGQRWqJ6PXQh7cReXKmf6duPpgWANm0sTqIDOFnz1HmGaF099c3Gb5S7Oo3Sq3BvIA3kPbz8d7by4R09Z4agQUIFuZ7ak5umAg6Rc7udxD8bVdlEG2_YXrz5_sT33W56z7E12-JppWd6FIXf1tSuw8kn9JpRjqhymLjI5UngEFebWCi6riCcFOy6dHw3u4OJaaOO_WPu0qspZt8REFILXy9MeWBC29SlwQvVMw9Te3yKX5VEzukj8oTrWLtockKDdDA1ZTP3YVJ3nzz1qNIfbOIAsbdN5nk6CCfVkLib0Jbr5s2Ia9oVNN0NpECXB95M4wMotuSyImDaMpnhTRg-btt3XKP7CDiuglLQdz7U-zQ4IHD79ypTjTthsnPRjvbczLQuMsNP9H1w3C53FXLPh5zspofvM-Kn8EkBZ4N5rLbxJDfyfbqzfaSdknKMzP--NO44b1kpIrmnpJf1D8wa49TC3xPOKZv1oyCYLGW9wWJQFsIpvRmNthU2-5TotWljMS5-ruCf818h2lubm_M2A51YbQC69d4_WopHayjJmbOf-FZvUB1RMec9nCJbsRDi-HWa3vW5TdF4lfuODDfJh-6-qJoAYVF1EZUkALSRPikNK_9RLjETbgsBtzUHN0yP169uQFpWrf-8qZEECLjMoRMYYl5-sMlPSo_Vrt4wbEif3VQrKqqhwSQTIowhRKBKQYLB3Sko-dijJqkjjvoNj1Hc_BtLk8DoGWelJPTjg6E0-dnergsg0E3KS0vAu66VKm4DHy2UQHfbCc8l0KpuQi2ewy9qczVFcKjTMbpxoRMOGhcFa3duE7AjHrM0tgeE6LQr2mxAhWwPLgUEeLVy6U7OCNcs9GqoJ-hSGHxHgQBgcvLiQmOhze1_t0I_PxQ-6MKEdLUUtQTNZ_5OnNzy9sfPDnpgC2ElC8GtAJSntgp9eMLK7QbQpCK0GQmuWdZYiM4vJxulAJW3GZ6E3Xi5tbZ0WRF5adjgk5LcjWrXOXEgguBvM5OEgNxRdpRvEnyuuDtS6SheMSzh6uQhsVOFKDQjI0rtivatyM9AwgFOLBJzxDhnI2X1VgFcDK7zNpFZJD_7H_2SfMSPPKe52_5VT1jpETMT85wNI-bW38-rq3DZHzsGqJhPtyv_I9I4zBLkrlzjmnLpCWwGUNW1GJg7cJ90GphcFDmhinxIZzD0d4cv_-JGQYCYxjFVpXBqaMaQBq64aV9Q1XE5CZ0dsYN2DJNseRn2N99Av7Xzydz66lWTbNAwIfJKAshI20DEZV3F6D0SKFZ2-2AateN1D69dGAMLAUzfesZ2yyyxTA1fSzp_G_VrDqAPvWnZEwQPpx4Qm_ULY3NQUL--nsldex-trKu3GUfdrNN8a6oC9sdcUUjTpx-PwRqzN327Hk7Wm96Eyq1t1aBepeLkeTxZ6QHG6Iqgio54KGFTnzALP-Jv0rxnx1m-1dArlR4K-xQUFL_rTwNtHscnulg1p6kAL_KxeFKf3N3hUS_HMYoaTKGR3k0h7thSxTXt3RMVqX_jq-_xoq1ZuPCovXyMBWFBrHGjpBpNNXZGSc_6ks-s-TsN_zlZ7WUulPu6dCJLxWP3g20Q1Ivcavf3gVbsJufhYvTv38Y1FairL74fhkdZulJYKrQcs4KBUYk77xisbsRa_xvlttRlRdxJRp1q4tTrtXwFtx5VskRodkowkG-218sbHAJb30kGxzBvMovJjwJ0jgl_4XJsD-bUZFLt4EOkByxiLNYjW4JWHpMI-itxZy_tdzyNEiiVmYvqJ8c022Dj8eja9Wmb3qfpxQ2rUuOjR7Zf-68uUVX_TEVu1VkDSukw4uRDKTBhQheMEnX-SsXa_m14UKGkqFfFa4NKod5bZMEXptltOdHoqE8z7AYu2To5HOowcXJwUme-Z-aWVjVy1qpIXCrFS3Capdia_0xPJb7Y0gT77eOH5eFo0mIGvTQNMAAKj0fZ_zGFFe-n_GlzyP6RFylJSt9BA76xfC5SgEPZIOQvKSdgamroffDwdmssfj2Admroff72cmtofPKrBXrjIcLAK3dEbalgH3dEbaXAG3dEbahsR3hUaqess7kN997jaFSgJIJYz7kN999pKbCJ3WYr_-fORAJ7RsKuicuRDDndQnJ_8Pj7AC1ALKhzPW19h2JspATfyaoNkqbYIi9pGSbYyL4boauKhKKaedUD_c-nvwrpjWwMV1ASizJTYph9z8pCl4SYblZMBh7Rsul3YtL_jR5tuFm00?></g></svg>