<svg xmlns="http://www.w3.org/2000/svg" xmlns:xlink="http://www.w3.org/1999/xlink" contentStyleType="text/css" data-diagram-type="DESCRIPTION" height="937px" preserveAspectRatio="none" style="width:1343px;height:937px;background:#FAFAFA;" version="1.1" viewBox="0 0 1343 937" width="1343px" zoomAndPan="magnify"><?plantuml 1.2026.3?><defs/><g><rect fill="#FAFAFA" height="937" style="stroke:none;stroke-width:1;" width="1343" x="0" y="0"/><g class="title" data-source-line="94"><text fill="#000000" font-family="'Helvetica Neue, Helvetica, Arial, sans-serif'" font-size="14" font-weight="700" lengthAdjust="spacing" textLength="430.6436" x="452.6782" y="22.9951">Value Stream: Deliver an Architecture-Aligned Change</text></g><!--cluster Motivation--><g class="cluster" data-qualified-name="Motivation" data-source-line="96" id="ent0002"><rect fill="#F7EEF9" height="212" rx="2" ry="2" style="stroke:#7B3F9A;stroke-width:1;" width="316" x="1013" y="44.2969"/><text fill="#000000" font-family="'Helvetica Neue, Helvetica, Arial, sans-serif'" font-size="12" font-weight="700" lengthAdjust="spacing" textLength="72.5918" x="1134.7041" y="57.4355">Motivation</text></g><!--cluster Strategy--><g class="cluster" data-qualified-name="Strategy" data-source-line="102" id="ent0006"><rect fill="#FAF0D9" height="757" rx="2" ry="2" style="stroke:#8B6914;stroke-width:1;" width="978" x="7" y="166.2969"/><text fill="#000000" font-family="'Helvetica Neue, Helvetica, Arial, sans-serif'" font-size="12" font-weight="700" lengthAdjust="spacing" textLength="58.6816" x="466.6592" y="179.4355">Strategy</text></g><!--cluster VS_VZ_P2h--><g class="cluster" data-qualified-name="Strategy.VS_VZ_P2h" data-source-line="103" id="ent0007"><rect fill="#F5DEB3" height="603" rx="2" ry="2" style="stroke:#8B6914;stroke-width:1;" width="494" x="364" y="288.2969"/><path d="M466.9198,297.22 L476.6121,297.22 L480.0736,301.3738 L476.6121,305.5276 L466.9198,305.5276 L469.689,301.3738" fill="#252327" style="stroke:none;stroke-width:1;"/><text fill="#000000" font-family="'Helvetica Neue, Helvetica, Arial, sans-serif'" font-size="12" font-weight="700" lengthAdjust="spacing" textLength="268.752" x="489.7898" y="309.6206">Deliver an Architecture-Aligned Change</text></g><!--entity VAL_LK3Cht--><g class="entity" data-qualified-name="Motivation.VAL_LK3Cht" data-source-line="97" id="ent0003"><rect fill="#EDD6F0" height="42.1538" rx="2" ry="2" style="stroke:#7B3F9A;stroke-width:0.5;" width="283.1792" x="1029.5" y="76.2969"/><ellipse cx="1050.5769" cy="97.3738" fill="none" rx="6.2308" ry="6.2308" style="stroke:#252327;stroke-width:1.8;"/><path d="M1049.6769,92.5276 L1049.6769,102.22 L1051.4769,102.22 L1051.4769,92.5276" fill="#252327"/><path d="M1045.9246,95.3523 L1046.9215,93.8569 L1051.0754,96.6261 L1050.0785,98.1215" fill="#252327"/><path d="M1051.0754,98.1215 L1050.0785,96.6261 L1054.2323,93.8569 L1055.2292,95.3523" fill="#252327"/><text fill="#000000" font-family="'Helvetica Neue, Helvetica, Arial, sans-serif'" font-size="12" lengthAdjust="spacing" textLength="237.2109" x="1065.4683" y="105.6206">Architectural Clarity at Agentic Velocity</text></g><!--entity STK_K9xTq2--><g class="entity" data-qualified-name="Motivation.STK_K9xTq2" data-source-line="98" id="ent0004"><rect fill="#EDD6F0" height="42.1538" rx="2" ry="2" style="stroke:#7B3F9A;stroke-width:0.5;" width="107.6851" x="1029" y="198.2969"/><path d="M1043.2923,213.9738 L1053.4,213.9738 L1057,219.3738 L1053.4,224.7738 L1043.2923,224.7738 L1046.7538,219.3738" fill="#252327" style="stroke:none;stroke-width:0.5;"/><text fill="#000000" font-family="'Helvetica Neue, Helvetica, Arial, sans-serif'" font-size="12" lengthAdjust="spacing" textLength="61.7168" x="1064.9683" y="227.6206">Developer</text></g><!--entity STK_aB3dE1--><g class="entity" data-qualified-name="Motivation.STK_aB3dE1" data-source-line="99" id="ent0005"><rect fill="#EDD6F0" height="42.1538" rx="2" ry="2" style="stroke:#7B3F9A;stroke-width:0.5;" width="100.0386" x="1197" y="198.2969"/><path d="M1211.2923,213.9738 L1221.4,213.9738 L1225,219.3738 L1221.4,224.7738 L1211.2923,224.7738 L1214.7538,219.3738" fill="#252327" style="stroke:none;stroke-width:0.5;"/><text fill="#000000" font-family="'Helvetica Neue, Helvetica, Arial, sans-serif'" font-size="12" lengthAdjust="spacing" textLength="54.0703" x="1232.9683" y="227.6206">Architect</text></g><!--entity CAP_pLMHKe--><g class="entity" data-qualified-name="Strategy.CAP_pLMHKe" data-source-line="114" id="ent0017"><rect fill="#F5DEB3" height="42.1538" rx="2" ry="2" style="stroke:#8B6914;stroke-width:0.5;" width="272.6031" x="23.5" y="198.2969"/><path d="M37.7923,223.8738 L51.3615,223.8738 L51.3615,225.6738 L37.7923,225.6738" fill="#252327"/><path d="M39.0385,220.4815 L41.6692,220.4815 L41.6692,224.7738 L39.0385,224.7738" fill="#252327"/><path d="M42.9154,217.7123 L45.5462,217.7123 L45.5462,224.7738 L42.9154,224.7738" fill="#252327"/><path d="M46.7923,214.8046 L49.4231,214.8046 L49.4231,224.7738 L46.7923,224.7738" fill="#252327"/><text fill="#000000" font-family="'Helvetica Neue, Helvetica, Arial, sans-serif'" font-size="12" lengthAdjust="spacing" textLength="226.6348" x="59.4683" y="227.6206">Architecture Knowledge Management</text></g><!--entity CAP_db4AQh--><g class="entity" data-qualified-name="Strategy.CAP_db4AQh" data-source-line="115" id="ent0018"><rect fill="#F5DEB3" height="42.1538" rx="2" ry="2" style="stroke:#8B6914;stroke-width:0.5;" width="286.2671" x="357" y="198.2969"/><path d="M371.2923,223.8738 L384.8615,223.8738 L384.8615,225.6738 L371.2923,225.6738" fill="#252327"/><path d="M372.5385,220.4815 L375.1692,220.4815 L375.1692,224.7738 L372.5385,224.7738" fill="#252327"/><path d="M376.4154,217.7123 L379.0462,217.7123 L379.0462,224.7738 L376.4154,224.7738" fill="#252327"/><path d="M380.2923,214.8046 L382.9231,214.8046 L382.9231,224.7738 L380.2923,224.7738" fill="#252327"/><text fill="#000000" font-family="'Helvetica Neue, Helvetica, Arial, sans-serif'" font-size="12" lengthAdjust="spacing" textLength="240.2988" x="392.9683" y="227.6206">Agent-Native Architecture Collaboration</text></g><!--entity CAP_0kQIHh--><g class="entity" data-qualified-name="Strategy.CAP_0kQIHh" data-source-line="116" id="ent0019"><rect fill="#F5DEB3" height="42.1538" rx="2" ry="2" style="stroke:#8B6914;stroke-width:0.5;" width="266.2632" x="703" y="198.2969"/><path d="M717.2923,223.8738 L730.8615,223.8738 L730.8615,225.6738 L717.2923,225.6738" fill="#252327"/><path d="M718.5385,220.4815 L721.1692,220.4815 L721.1692,224.7738 L718.5385,224.7738" fill="#252327"/><path d="M722.4154,217.7123 L725.0462,217.7123 L725.0462,224.7738 L722.4154,224.7738" fill="#252327"/><path d="M726.2923,214.8046 L728.9231,214.8046 L728.9231,224.7738 L726.2923,224.7738" fill="#252327"/><text fill="#000000" font-family="'Helvetica Neue, Helvetica, Arial, sans-serif'" font-size="12" lengthAdjust="spacing" textLength="220.2949" x="738.9683" y="227.6206">Architecture Analysis &amp; Visualization</text></g><!--entity CAP_FMvdNM--><g class="entity" data-qualified-name="Strategy.CAP_FMvdNM" data-source-line="117" id="ent0020"><rect fill="#F5DEB3" height="42.1538" rx="2" ry="2" style="stroke:#8B6914;stroke-width:0.5;" width="230.146" x="23" y="703.2969"/><path d="M37.2923,728.8738 L50.8615,728.8738 L50.8615,730.6738 L37.2923,730.6738" fill="#252327"/><path d="M38.5385,725.4815 L41.1692,725.4815 L41.1692,729.7738 L38.5385,729.7738" fill="#252327"/><path d="M42.4154,722.7123 L45.0462,722.7123 L45.0462,729.7738 L42.4154,729.7738" fill="#252327"/><path d="M46.2923,719.8046 L48.9231,719.8046 L48.9231,729.7738 L46.2923,729.7738" fill="#252327"/><text fill="#000000" font-family="'Helvetica Neue, Helvetica, Arial, sans-serif'" font-size="12" lengthAdjust="spacing" textLength="184.1777" x="58.9683" y="732.6206">Tiered Knowledge Governance</text></g><!--entity VS__fm4gq--><g class="entity" data-qualified-name="Strategy.VS_VZ_P2h.VS__fm4gq" data-source-line="104" id="ent0008"><rect fill="#F5DEB3" height="42.1538" rx="2" ry="2" style="stroke:#8B6914;stroke-width:0.5;" width="271.3785" x="518.5" y="337.2969"/><path d="M531.9615,354.22 L541.6538,354.22 L545.1154,358.3738 L541.6538,362.5276 L531.9615,362.5276 L534.7308,358.3738" fill="#252327" style="stroke:none;stroke-width:0.5;"/><text fill="#000000" font-family="'Helvetica Neue, Helvetica, Arial, sans-serif'" font-size="12" lengthAdjust="spacing" textLength="225.4102" x="554.4683" y="366.6206">Scope &amp; Plan an Architecture Change</text></g><!--entity VS_xrSjjJ--><g class="entity" data-qualified-name="Strategy.VS_VZ_P2h.VS_xrSjjJ" data-source-line="105" id="ent0009"><rect fill="#F5DEB3" height="42.1538" rx="2" ry="2" style="stroke:#8B6914;stroke-width:0.5;" width="298.1382" x="458" y="459.2969"/><path d="M471.4615,476.22 L481.1538,476.22 L484.6154,480.3738 L481.1538,484.5276 L471.4615,484.5276 L474.2308,480.3738" fill="#252327" style="stroke:none;stroke-width:0.5;"/><text fill="#000000" font-family="'Helvetica Neue, Helvetica, Arial, sans-serif'" font-size="12" lengthAdjust="spacing" textLength="252.1699" x="493.9683" y="488.6206">Model &amp; Validate the Architectural Design</text></g><!--entity VS_C4pV9I--><g class="entity" data-qualified-name="Strategy.VS_VZ_P2h.VS_C4pV9I" data-source-line="106" id="ent0010"><rect fill="#F5DEB3" height="42.1538" rx="2" ry="2" style="stroke:#8B6914;stroke-width:0.5;" width="281.9078" x="466" y="581.2969"/><path d="M479.4615,598.22 L489.1538,598.22 L492.6154,602.3738 L489.1538,606.5276 L479.4615,606.5276 L482.2308,602.3738" fill="#252327" style="stroke:none;stroke-width:0.5;"/><text fill="#000000" font-family="'Helvetica Neue, Helvetica, Arial, sans-serif'" font-size="12" lengthAdjust="spacing" textLength="235.9395" x="501.9683" y="610.6206">Implement with Architectural Guidance</text></g><!--entity VS_z1Yg0V--><g class="entity" data-qualified-name="Strategy.VS_VZ_P2h.VS_z1Yg0V" data-source-line="107" id="ent0011"><rect fill="#F5DEB3" height="42.1538" rx="2" ry="2" style="stroke:#8B6914;stroke-width:0.5;" width="236.5796" x="488.5" y="703.2969"/><path d="M501.9615,720.22 L511.6538,720.22 L515.1154,724.3738 L511.6538,728.5276 L501.9615,728.5276 L504.7308,724.3738" fill="#252327" style="stroke:none;stroke-width:0.5;"/><text fill="#000000" font-family="'Helvetica Neue, Helvetica, Arial, sans-serif'" font-size="12" lengthAdjust="spacing" textLength="190.6113" x="524.4683" y="732.6206">Confirm Architecture Alignment</text></g><!--entity VS_nf_e3Y--><g class="entity" data-qualified-name="Strategy.VS_VZ_P2h.VS_nf_e3Y" data-source-line="108" id="ent0012"><rect fill="#F5DEB3" height="42.1538" rx="2" ry="2" style="stroke:#8B6914;stroke-width:0.5;" width="437.8433" x="388" y="825.2969"/><path d="M401.4615,842.22 L411.1538,842.22 L414.6154,846.3738 L411.1538,850.5276 L401.4615,850.5276 L404.2308,846.3738" fill="#252327" style="stroke:none;stroke-width:0.5;"/><text fill="#000000" font-family="'Helvetica Neue, Helvetica, Arial, sans-serif'" font-size="12" lengthAdjust="spacing" textLength="391.875" x="423.9683" y="854.6206">Feed Implementation Learnings Back into the Architecture Model</text></g><!--link VS__fm4gq to VS_xrSjjJ--><!--link VS__fm4gq to VS_xrSjjJ--><g class="link" data-entity-1="ent0008" data-entity-2="ent0009" data-link-type="dependency" data-source-line="136" id="lnk36"><path d="M676.83,379.5469 C676.83,401.9369 676.83,430.9869 676.83,453.2869" fill="none" id="VS__fm4gq-to-VS_xrSjjJ" style="stroke:#181818;stroke-width:1;stroke-dasharray:7,7;"/><polygon fill="#181818" points="676.83,459.2869,680.83,450.2869,676.83,454.2869,672.83,450.2869,676.83,459.2869" style="stroke:#181818;stroke-width:1;"/></g><!--link VS_xrSjjJ to VS_C4pV9I--><!--link VS_xrSjjJ to VS_C4pV9I--><g class="link" data-entity-1="ent0009" data-entity-2="ent0010" data-link-type="dependency" data-source-line="137" id="lnk37"><path d="M654,501.5469 C654,523.9369 654,552.9869 654,575.2869" fill="none" id="VS_xrSjjJ-to-VS_C4pV9I" style="stroke:#181818;stroke-width:1;stroke-dasharray:7,7;"/><polygon fill="#181818" points="654,581.2869,658,572.2869,654,576.2869,650,572.2869,654,581.2869" style="stroke:#181818;stroke-width:1;"/></g><!--link VS_C4pV9I to VS_z1Yg0V--><!--link VS_C4pV9I to VS_z1Yg0V--><g class="link" data-entity-1="ent0010" data-entity-2="ent0011" data-link-type="dependency" data-source-line="138" id="lnk38"><path d="M646.5,623.5469 C646.5,645.9369 646.5,674.9869 646.5,697.2869" fill="none" id="VS_C4pV9I-to-VS_z1Yg0V" style="stroke:#181818;stroke-width:1;stroke-dasharray:7,7;"/><polygon fill="#181818" points="646.5,703.2869,650.5,694.2869,646.5,698.2869,642.5,694.2869,646.5,703.2869" style="stroke:#181818;stroke-width:1;"/></g><!--link VS_z1Yg0V to VS_nf_e3Y--><!--link VS_z1Yg0V to VS_nf_e3Y--><g class="link" data-entity-1="ent0011" data-entity-2="ent0012" data-link-type="dependency" data-source-line="139" id="lnk39"><path d="M646.5,745.5469 C646.5,767.9369 646.5,796.9869 646.5,819.2869" fill="none" id="VS_z1Yg0V-to-VS_nf_e3Y" style="stroke:#181818;stroke-width:1;stroke-dasharray:7,7;"/><polygon fill="#181818" points="646.5,825.2869,650.5,816.2869,646.5,820.2869,642.5,816.2869,646.5,825.2869" style="stroke:#181818;stroke-width:1;"/></g><!--link CAP_pLMHKe to VS__fm4gq--><g class="link" data-entity-1="ent0017" data-entity-2="ent0008" data-link-type="dependency" data-source-line="121" id="lnk21"><path d="M285.62,240.4069 C285.62,279.2969 285.62,358.2969 285.62,358.2969 C285.62,358.2969 407.36,358.2969 512.4,358.2969" fill="none" id="CAP_pLMHKe-to-VS__fm4gq" style="stroke:#181818;stroke-width:1;"/><polygon fill="#181818" points="518.4,358.2969,509.4,354.2969,513.4,358.2969,509.4,362.2969,518.4,358.2969" style="stroke:#181818;stroke-width:1;"/></g><!--link CAP_pLMHKe to VS_xrSjjJ--><g class="link" data-entity-1="ent0017" data-entity-2="ent0009" data-link-type="dependency" data-source-line="122" id="lnk22"><path d="M274.75,240.6569 C274.75,302.9869 274.75,480.2969 274.75,480.2969 C274.75,480.2969 363.56,480.2969 451.88,480.2969" fill="none" id="CAP_pLMHKe-to-VS_xrSjjJ" style="stroke:#181818;stroke-width:1;"/><polygon fill="#181818" points="457.88,480.2969,448.88,476.2969,452.88,480.2969,448.88,484.2969,457.88,480.2969" style="stroke:#181818;stroke-width:1;"/></g><!--link CAP_pLMHKe to VS_nf_e3Y--><g class="link" data-entity-1="ent0017" data-entity-2="ent0012" data-link-type="dependency" data-source-line="123" id="lnk23"><path d="M263.88,240.5169 C263.88,350.0469 263.88,846.2969 263.88,846.2969 C263.88,846.2969 314.5,846.2969 381.75,846.2969" fill="none" id="CAP_pLMHKe-to-VS_nf_e3Y" style="stroke:#181818;stroke-width:1;"/><polygon fill="#181818" points="387.75,846.2969,378.75,842.2969,382.75,846.2969,378.75,850.2969,387.75,846.2969" style="stroke:#181818;stroke-width:1;"/></g><!--link CAP_db4AQh to VS_VZ_P2h--><g class="link" data-entity-1="ent0018" data-entity-2="ent0007" data-link-type="dependency" data-source-line="124" id="lnk24"><path d="M498.33,240.3269 C498.33,246.7444 498.33,254.3539 498.33,262.7572 C498.33,266.9588 498.33,271.3589 498.33,275.9076 C498.33,278.182 498.33,280.4935 498.33,282.836 C498.33,284.0072 498.33,285.1862 498.33,286.3721 C498.33,286.9651 498.33,281.5598 498.33,282.1561" fill="none" id="CAP_db4AQh-to-VS_VZ_P2h" style="stroke:#181818;stroke-width:1;"/><polygon fill="#181818" points="498.33,288.1561,502.33,279.1561,498.33,283.1561,494.33,279.1561,498.33,288.1561" style="stroke:#181818;stroke-width:1;"/></g><!--link CAP_db4AQh to VS__fm4gq--><g class="link" data-entity-1="ent0018" data-entity-2="ent0008" data-link-type="dependency" data-source-line="125" id="lnk25"><path d="M580.75,240.4069 C580.75,266.5369 580.75,304.7669 580.75,330.9869" fill="none" id="CAP_db4AQh-to-VS__fm4gq" style="stroke:#181818;stroke-width:1;"/><polygon fill="#181818" points="580.75,336.9869,584.75,327.9869,580.75,331.9869,576.75,327.9869,580.75,336.9869" style="stroke:#181818;stroke-width:1;"/></g><!--link CAP_db4AQh to VS_xrSjjJ--><g class="link" data-entity-1="ent0018" data-entity-2="ent0009" data-link-type="dependency" data-source-line="126" id="lnk26"><path d="M478.17,240.6569 C478.17,289.7169 478.17,404.0169 478.17,453.0069" fill="none" id="CAP_db4AQh-to-VS_xrSjjJ" style="stroke:#181818;stroke-width:1;"/><polygon fill="#181818" points="478.17,459.0069,482.17,450.0069,478.17,454.0069,474.17,450.0069,478.17,459.0069" style="stroke:#181818;stroke-width:1;"/></g><!--link CAP_db4AQh to VS_C4pV9I--><g class="link" data-entity-1="ent0018" data-entity-2="ent0010" data-link-type="dependency" data-source-line="127" id="lnk27"><path d="M434.67,240.4369 C434.67,320.7269 434.67,602.2969 434.67,602.2969 C434.67,602.2969 441.37,602.2969 459.87,602.2969" fill="none" id="CAP_db4AQh-to-VS_C4pV9I" style="stroke:#181818;stroke-width:1;"/><polygon fill="#181818" points="465.87,602.2969,456.87,598.2969,460.87,602.2969,456.87,606.2969,465.87,602.2969" style="stroke:#181818;stroke-width:1;"/></g><!--link CAP_FMvdNM to VS_nf_e3Y--><g class="link" data-entity-1="ent0020" data-entity-2="ent0012" data-link-type="dependency" data-source-line="128" id="lnk28"><path d="M253.13,724.2969 C327.83,724.2969 411.33,724.2969 411.33,724.2969 C411.33,724.2969 411.33,784.0969 411.33,819.0469" fill="none" id="CAP_FMvdNM-to-VS_nf_e3Y" style="stroke:#181818;stroke-width:1;"/><polygon fill="#181818" points="411.33,825.0469,415.33,816.0469,411.33,820.0469,407.33,816.0469,411.33,825.0469" style="stroke:#181818;stroke-width:1;"/></g><!--link CAP_0kQIHh to VS_VZ_P2h--><g class="link" data-entity-1="ent0019" data-entity-2="ent0007" data-link-type="dependency" data-source-line="129" id="lnk29"><path d="M850,240.4069 C850,249.6719 850,261.215 850,273.4245 C850,276.4769 850,279.5709 850,282.6814 C850,284.2367 850,285.7961 850,287.3564 C850,287.5514 850,281.7465 850,281.9416" fill="none" id="CAP_0kQIHh-to-VS_VZ_P2h" style="stroke:#181818;stroke-width:1;"/><polygon fill="#181818" points="850,287.9416,854,278.9416,850,282.9416,846,278.9416,850,287.9416" style="stroke:#181818;stroke-width:1;"/></g><!--link CAP_0kQIHh to VS_z1Yg0V--><g class="link" data-entity-1="ent0019" data-entity-2="ent0011" data-link-type="dependency" data-source-line="130" id="lnk30"><path d="M807.75,240.3569 C807.75,335.9269 807.75,724.2969 807.75,724.2969 C807.75,724.2969 774.98,724.2969 731.52,724.2969" fill="none" id="CAP_0kQIHh-to-VS_z1Yg0V" style="stroke:#181818;stroke-width:1;"/><polygon fill="#181818" points="725.52,724.2969,734.52,728.2969,730.52,724.2969,734.52,720.2969,725.52,724.2969" style="stroke:#181818;stroke-width:1;"/></g><!--link STK_K9xTq2 to VS_VZ_P2h--><g class="link" data-entity-1="ent0004" data-entity-2="ent0007" data-link-type="association" data-source-line="131" id="lnk31"><path d="M1083,240.4069 C1083,279.2969 1083,358.2969 1083,358.2969 C1083,358.2969 1028.3325,358.2969 971.9575,358.2969 C943.77,358.2969 915.1556,358.2969 892.7344,358.2969 C881.5238,358.2969 871.8614,358.2969 864.5748,358.2969 C862.7532,358.2969 861.08,358.2969 859.5683,358.2969 C859.1904,358.2969 858.8225,358.2969 858.465,358.2969" fill="none" id="STK_K9xTq2-VS_VZ_P2h" style="stroke:#181818;stroke-width:1;"/></g><!--link VAL_LK3Cht to STK_K9xTq2--><g class="link" data-entity-1="ent0003" data-entity-2="ent0004" data-link-type="association" data-source-line="132" id="lnk32"><path d="M1083.25,118.5469 C1083.25,140.9369 1083.25,175.9869 1083.25,198.2869" fill="none" id="VAL_LK3Cht-STK_K9xTq2" style="stroke:#181818;stroke-width:1;"/></g><!--link STK_aB3dE1 to VS_VZ_P2h--><g class="link" data-entity-1="ent0005" data-entity-2="ent0007" data-link-type="association" data-source-line="133" id="lnk33"><path d="M1247,240.5569 C1247,279.7269 1247,359.2969 1247,359.2969 C1247,359.2969 1149.295,359.2969 1050.8263,359.2969 C1001.5919,359.2969 952.1666,359.2969 914.668,359.2969 C895.9187,359.2969 880.1511,359.2969 868.8798,359.2969 C866.062,359.2969 863.5252,359.2969 861.2931,359.2969 C860.1771,359.2969 859.1372,359.2969 858.1765,359.2969" fill="none" id="STK_aB3dE1-VS_VZ_P2h" style="stroke:#181818;stroke-width:1;"/></g><!--link VAL_LK3Cht to STK_aB3dE1--><g class="link" data-entity-1="ent0003" data-entity-2="ent0005" data-link-type="association" data-source-line="134" id="lnk34"><path d="M1247,118.5469 C1247,140.9369 1247,175.9869 1247,198.2869" fill="none" id="VAL_LK3Cht-STK_aB3dE1" style="stroke:#181818;stroke-width:1;"/></g><!--link VS_VZ_P2h to VAL_LK3Cht--><g class="link" data-entity-1="ent0007" data-entity-2="ent0003" data-link-type="association" data-source-line="135" id="lnk35"><path d="M858.1117,347.2969 C858.4441,347.2969 858.78,347.2969 859.1194,347.2969 C861.8344,347.2969 864.7706,347.2969 867.908,347.2969 C874.1826,347.2969 881.2617,347.2969 888.9844,347.2969 C919.875,347.2969 961.0625,347.2969 1002.25,347.2969 C1084.625,347.2969 1167,347.2969 1167,347.2969 C1167,347.2969 1167,179.0669 1167,118.6069" fill="none" id="VS_VZ_P2h-VAL_LK3Cht" style="stroke:#181818;stroke-width:1;"/></g><?plantuml-src xLTjJzj84FwUNx7ddkv5miQ9yreHf90Gu0YeRRX8lTCfMko9lMMpJjUR1EZrlz-iCROJuj3GVZi40k_CpZppjZEx0VE0H0eaXEfk1gLITCF4Z4ew9HvCw9ohVYZK9Pq2CKw1Bq0nbv9BcCCUITTxf2CPvNiaeY8o8v1iOcnMD6JtGCgL73CAg1SkcV39XF88SXmPpeNdXbA09DKS_PgwDtxCx8OybEHDlwD_ygPp9a2xGqAfWZ374A474Sn8tSu3KN6ZYKsxz1FQYhBa0_3nbMI-Zxu8_xU93ATxH8LxXDDhuByJJI2cUOYq5PaFG3cxfug5ea38ilxT9ZN-SxQ3u13aOYVxEb4KkcoRVQQvHMOyW8bwaU07vWSxIBekH55X89wuTIOcV0x2XUqYkPI3gwZmEHmSN8IABM8ZJx2ePXZEmqFofKJ8qPCwQnmVzrkQ4qeFP49j73dzLgVqTRFseP9KWN_thEvEt-uzqTqyghVArIBTBftHQyQPkYlKMkiT7pcxQOqKlO4WvBY_IErnhrVlsxi5Oa4nGpzSuJXI4kZqXVu7hytljVczDh_NvlT_R7xHJ385v6SgtO1DCK_ZBAJa85huv7RAHTGs0gLcR_VtbykbjNIiKFhx5Tkszt67GHOCbaVXRTkmYKtATVmr3WzcL0N4QniNZbL6Qjcgr8AMrRGNPSknJpNntY0JnddRU5EfLPnAmzZFILKjsoPDt1-KhPQzqFjFDMshK1ttategLDD2UhbLg6NLRLAr6ebGmwhOfvgsIKZxUxWXQBcA-N5HGwFAGSDo1cM7DBbPiUh4iLewT8CQVZVHm3KBSOp9y0RQXWW5RBCthfplizHbqkL0N2Gt3UBUnVzaswXQjTIks8pKg3KhpINpLD0si1vMye4Urz3rcaw5hPFYs2EzVAPSwbNCVAsAeN7gf6PLwuEc_chehuRcDf6xLKUyN-zws1zBbctz6Ql34aP-lK3BraWdP_G7bKR5gf5QqE3wlsF6VmCJbwRppHLHKanXyaPn6GnZuzwI7d2sm0Ac0YypQB_2JZENO7OuymLuf1jWty7xKTg1Y95D3eDicICvYOFrs7o9NCgXNRPgNm_pk9IJBgTIzo6gICS7WVSiCWAE0rNTQRZ7VaeZCkeCneDpfnkeOhJS6Lt1xC42bSv0QfshhHyr3w_En-UjswlFbTqrfzuKQgP7ZdTSnZwS3-hZmDHI1SDpMq2JOblpyLjIcmOrcoawjiFnwA_nkqeG8--EFNGnkEGNyeuZ-fe1pm6F9zEg__b5i1Tup-K8YpNEFDn9L01hzTM32Dql1B-Lmq-V_dWH-Dbqnc6A9KkM34_jAkp970t2creXSBSw6xNENWJS3SM4oUbgaECiQsiA4U_B7trxz2B4Fc3zfFx6fvyCW4g1rHh5zn72X0hNmmyF2IgqI4p6u7oCBKhhW9X_usFD0_6Fr7TfSor9wMhJlbnCqzMcVRb8fAjD-rBxlXOVn-mgLTJaW9oBSCd1yp4UL50V7jEqShF5a7GxxyQpmSNfEUoEftkdUOcfMQob06-3-4O8PTh1Dw5wrzNE--3xlEm8okyY5kdpoA9v-jOhmhHltf-TxevvnV0Lx-LYUX9YrnEFXsqJKlzYuLrUw0xygpuy0l7GhgYKnJj-H6Qzw2aZAS6dZAH6iY0-CXxwwGP63cELaSDOPIHrdRco0VmXcXl0Lnb9wMSJJpzBCu5incfwRYvcW-mvWMJSPHD5xyz6TtRGzMirypexs0azSJexo0azyI0xk0azYSL_?></g></svg>