<svg xmlns="http://www.w3.org/2000/svg" xmlns:xlink="http://www.w3.org/1999/xlink" contentStyleType="text/css" data-diagram-type="CLASS" height="542px" preserveAspectRatio="none" style="width:1391px;height:542px;background:#FFFFFF;" version="1.1" viewBox="0 0 1391 542" width="1391px" zoomAndPan="magnify"><?plantuml 1.2026.3?><defs/><g><g class="title" data-source-line="1"><text fill="#000000" font-family="sans-serif" font-size="14" font-weight="700" lengthAdjust="spacing" textLength="209.4463" x="587.438" y="22.9951">Artifact Persistence Model</text></g><!--class _CLF_1782085920_ShZ_Qq_artifact--><g class="entity" data-qualified-name="_CLF_1782085920_ShZ_Qq_artifact" data-source-line="4" id="ent0002"><rect fill="#F1F1F1" height="129.4844" rx="2.5" ry="2.5" style="stroke:#181818;stroke-width:0.5;" width="220.0449" x="810" y="233.2969"/><ellipse cx="890.0693" cy="249.2969" fill="#A9DCDF" rx="11" ry="11" style="stroke:#181818;stroke-width:1;"/><path d="M885.2412,255.0469 L888.585,242.8594 L891.7256,242.8594 L895.1006,255.0469 L892.6318,255.0469 L891.8975,252.0313 L888.3818,252.0313 L887.6318,255.0469 L885.2412,255.0469 Z M889.6475,247 L888.8975,250 L891.4131,250 L890.6943,247 Q890.5537,246.4219 890.4287,245.875 Q890.3037,245.3125 890.1631,244.7344 Q890.0537,245.3125 889.9131,245.875 Q889.7725,246.4219 889.6475,247 Z " fill="#000000"/><text fill="#000000" font-family="sans-serif" font-size="14" font-style="italic" lengthAdjust="spacing" textLength="51.4063" x="910.5693" y="254.1436">Artifact</text><line style="stroke:#181818;stroke-width:0.5;" x1="811" x2="1029.0449" y1="265.2969" y2="265.2969"/><g data-visibility-modifier="PUBLIC_FIELD"><ellipse cx="821" cy="278.9453" fill="none" rx="3" ry="3" style="stroke:#038048;stroke-width:1;"/></g><text fill="#000000" font-family="sans-serif" font-size="14" lengthAdjust="spacing" textLength="160.624" x="830" y="282.292">artifact_id : String {id}</text><g data-visibility-modifier="PUBLIC_FIELD"><ellipse cx="821" cy="295.2422" fill="none" rx="3" ry="3" style="stroke:#038048;stroke-width:1;"/></g><text fill="#000000" font-family="sans-serif" font-size="14" lengthAdjust="spacing" textLength="95.1016" x="830" y="298.5889">name : String</text><g data-visibility-modifier="PUBLIC_FIELD"><ellipse cx="821" cy="311.5391" fill="none" rx="3" ry="3" style="stroke:#038048;stroke-width:1;"/></g><text fill="#000000" font-family="sans-serif" font-size="14" lengthAdjust="spacing" textLength="98.417" x="830" y="314.8857">status : String</text><g data-visibility-modifier="PUBLIC_FIELD"><ellipse cx="821" cy="327.8359" fill="none" rx="3" ry="3" style="stroke:#038048;stroke-width:1;"/></g><text fill="#000000" font-family="sans-serif" font-size="14" lengthAdjust="spacing" textLength="106.6748" x="830" y="331.1826">version : String</text><g data-visibility-modifier="PUBLIC_FIELD"><ellipse cx="821" cy="344.1328" fill="none" rx="3" ry="3" style="stroke:#038048;stroke-width:1;"/></g><text fill="#000000" font-family="sans-serif" font-size="14" lengthAdjust="spacing" textLength="194.0449" x="830" y="347.4795">path : String {unique:path}</text><line style="stroke:#181818;stroke-width:0.5;" x1="811" x2="1029.0449" y1="354.7813" y2="354.7813"/></g><g class="entity" data-qualified-name="GMN3" data-source-line="12" id="ent0004"><path d="M1065.5,285.2969 L1065.5,294.2969 L1030.19,298.2969 L1065.5,302.2969 L1065.5,310.4297 A0,0 0 0 0 1065.5,310.4297 L1224.5044,310.4297 A0,0 0 0 0 1224.5044,310.4297 L1224.5044,295.2969 L1214.5044,285.2969 L1065.5,285.2969 A0,0 0 0 0 1065.5,285.2969" fill="#FEFFDD" style="stroke:#181818;stroke-width:0.5;"/><path d="M1214.5044,285.2969 L1214.5044,295.2969 L1224.5044,295.2969 L1214.5044,285.2969" fill="#FEFFDD" style="stroke:#181818;stroke-width:0.5;"/><text fill="#000000" font-family="sans-serif" font-size="13" lengthAdjust="spacing" textLength="138.0044" x="1071.5" y="302.3638">&#171;unique path&#187; (path)</text></g><!--class _CLF_1782085920_wrZtUi_entity--><g class="entity" data-qualified-name="_CLF_1782085920_wrZtUi_entity" data-source-line="15" id="ent0006"><rect fill="#F1F1F1" height="80.5938" rx="2.5" ry="2.5" style="stroke:#181818;stroke-width:0.5;" width="259.8848" x="643" y="68.2969"/><ellipse cx="748.2563" cy="84.2969" fill="#ADD1B2" rx="11" ry="11" style="stroke:#181818;stroke-width:1;"/><path d="M747.7251,91.2188 Q745.9751,91.2188 744.8345,90.4844 Q743.7095,89.7344 743.147,88.3906 Q742.6001,87.0313 742.6001,85.2344 Q742.6001,83.2031 743.2563,81.75 Q743.9126,80.2969 745.1938,79.5156 Q746.4751,78.7344 748.3501,78.7344 Q749.2407,78.7344 749.9126,78.9219 Q750.5845,79.0938 751.272,79.4375 L750.4595,81.4531 Q749.8345,81.1406 749.2876,81.0156 Q748.7563,80.8906 748.272,80.8906 Q747.1001,80.8906 746.397,81.4219 Q745.6938,81.9531 745.397,82.9063 Q745.1001,83.8594 745.1001,85.125 Q745.1001,87.1406 745.8188,88.1094 Q746.5376,89.0625 748.1313,89.0625 Q748.7251,89.0625 749.3501,88.9063 Q749.9751,88.75 750.8032,88.375 L750.8032,90.5938 Q750.0688,90.9063 749.272,91.0625 Q748.4907,91.2188 747.7251,91.2188 Z " fill="#000000"/><text fill="#000000" font-family="sans-serif" font-size="14" lengthAdjust="spacing" textLength="40.8721" x="768.7563" y="89.1436">Entity</text><line style="stroke:#181818;stroke-width:0.5;" x1="644" x2="901.8848" y1="100.2969" y2="100.2969"/><g data-visibility-modifier="PUBLIC_FIELD"><ellipse cx="654" cy="113.9453" fill="none" rx="3" ry="3" style="stroke:#038048;stroke-width:1;"/></g><text fill="#000000" font-family="sans-serif" font-size="14" lengthAdjust="spacing" textLength="107.8301" x="663" y="117.292">domain : String</text><g data-visibility-modifier="PUBLIC_FIELD"><ellipse cx="654" cy="130.2422" fill="none" rx="3" ry="3" style="stroke:#038048;stroke-width:1;"/></g><text fill="#000000" font-family="sans-serif" font-size="14" lengthAdjust="spacing" textLength="233.8848" x="663" y="133.5889">element_class : String {optional}</text><line style="stroke:#181818;stroke-width:0.5;" x1="644" x2="901.8848" y1="140.8906" y2="140.8906"/></g><!--class _CLF_1782085920_LEgkrJ_connection--><g class="entity" data-qualified-name="_CLF_1782085920_LEgkrJ_connection" data-source-line="20" id="ent0007"><rect fill="#F1F1F1" height="129.4844" rx="2.5" ry="2.5" style="stroke:#181818;stroke-width:0.5;" width="261.9629" x="7" y="44.2969"/><ellipse cx="94.124" cy="60.2969" fill="#ADD1B2" rx="11" ry="11" style="stroke:#181818;stroke-width:1;"/><path d="M93.5928,67.2188 Q91.8428,67.2188 90.7021,66.4844 Q89.5771,65.7344 89.0146,64.3906 Q88.4678,63.0313 88.4678,61.2344 Q88.4678,59.2031 89.124,57.75 Q89.7803,56.2969 91.0615,55.5156 Q92.3428,54.7344 94.2178,54.7344 Q95.1084,54.7344 95.7803,54.9219 Q96.4521,55.0938 97.1396,55.4375 L96.3271,57.4531 Q95.7021,57.1406 95.1553,57.0156 Q94.624,56.8906 94.1396,56.8906 Q92.9678,56.8906 92.2646,57.4219 Q91.5615,57.9531 91.2646,58.9063 Q90.9678,59.8594 90.9678,61.125 Q90.9678,63.1406 91.6865,64.1094 Q92.4053,65.0625 93.999,65.0625 Q94.5928,65.0625 95.2178,64.9063 Q95.8428,64.75 96.6709,64.375 L96.6709,66.5938 Q95.9365,66.9063 95.1396,67.0625 Q94.3584,67.2188 93.5928,67.2188 Z " fill="#000000"/><text fill="#000000" font-family="sans-serif" font-size="14" lengthAdjust="spacing" textLength="79.2148" x="114.624" y="65.1436">Connection</text><line style="stroke:#181818;stroke-width:0.5;" x1="8" x2="267.9629" y1="76.2969" y2="76.2969"/><g data-visibility-modifier="PUBLIC_FIELD"><ellipse cx="18" cy="89.9453" fill="none" rx="3" ry="3" style="stroke:#038048;stroke-width:1;"/></g><text fill="#000000" font-family="sans-serif" font-size="14" lengthAdjust="spacing" textLength="157.0146" x="27" y="93.292">source_id : String {id}</text><g data-visibility-modifier="PUBLIC_FIELD"><ellipse cx="18" cy="106.2422" fill="none" rx="3" ry="3" style="stroke:#038048;stroke-width:1;"/></g><text fill="#000000" font-family="sans-serif" font-size="14" lengthAdjust="spacing" textLength="153.0293" x="27" y="109.5889">target_id : String {id}</text><g data-visibility-modifier="PUBLIC_FIELD"><ellipse cx="18" cy="122.5391" fill="none" rx="3" ry="3" style="stroke:#038048;stroke-width:1;"/></g><text fill="#000000" font-family="sans-serif" font-size="14" lengthAdjust="spacing" textLength="162.7227" x="27" y="125.8857">conn_type : String {id}</text><g data-visibility-modifier="PUBLIC_FIELD"><ellipse cx="18" cy="138.8359" fill="none" rx="3" ry="3" style="stroke:#038048;stroke-width:1;"/></g><text fill="#000000" font-family="sans-serif" font-size="14" lengthAdjust="spacing" textLength="235.9629" x="27" y="142.1826">src_cardinality : String {optional}</text><g data-visibility-modifier="PUBLIC_FIELD"><ellipse cx="18" cy="155.1328" fill="none" rx="3" ry="3" style="stroke:#038048;stroke-width:1;"/></g><text fill="#000000" font-family="sans-serif" font-size="14" lengthAdjust="spacing" textLength="235.0811" x="27" y="158.4795">tgt_cardinality : String {optional}</text><line style="stroke:#181818;stroke-width:0.5;" x1="8" x2="267.9629" y1="165.7813" y2="165.7813"/></g><g class="entity" data-qualified-name="GMN8" data-source-line="28" id="ent0009"><path d="M304,96.2969 L304,105.2969 L269.18,109.2969 L304,113.2969 L304,121.4297 A0,0 0 0 0 304,121.4297 L608.3721,121.4297 A0,0 0 0 0 608.3721,121.4297 L608.3721,106.2969 L598.3721,96.2969 L304,96.2969 A0,0 0 0 0 304,96.2969" fill="#FEFFDD" style="stroke:#181818;stroke-width:0.5;"/><path d="M598.3721,96.2969 L598.3721,106.2969 L608.3721,106.2969 L598.3721,96.2969" fill="#FEFFDD" style="stroke:#181818;stroke-width:0.5;"/><text fill="#000000" font-family="sans-serif" font-size="13" lengthAdjust="spacing" textLength="283.3721" x="310" y="113.3638">&#171;identity&#187; (source_id, conn_type, target_id)</text></g><!--class _CLF_1782085920_ntOKAT_diagram--><g class="entity" data-qualified-name="_CLF_1782085920_ntOKAT_diagram" data-source-line="31" id="ent0011"><rect fill="#F1F1F1" height="96.8906" rx="2.5" ry="2.5" style="stroke:#181818;stroke-width:0.5;" width="258.0459" x="938" y="60.2969"/><ellipse cx="1032.7188" cy="76.2969" fill="#ADD1B2" rx="11" ry="11" style="stroke:#181818;stroke-width:1;"/><path d="M1032.1875,83.2188 Q1030.4375,83.2188 1029.2969,82.4844 Q1028.1719,81.7344 1027.6094,80.3906 Q1027.0625,79.0313 1027.0625,77.2344 Q1027.0625,75.2031 1027.7188,73.75 Q1028.375,72.2969 1029.6563,71.5156 Q1030.9375,70.7344 1032.8125,70.7344 Q1033.7031,70.7344 1034.375,70.9219 Q1035.0469,71.0938 1035.7344,71.4375 L1034.9219,73.4531 Q1034.2969,73.1406 1033.75,73.0156 Q1033.2188,72.8906 1032.7344,72.8906 Q1031.5625,72.8906 1030.8594,73.4219 Q1030.1563,73.9531 1029.8594,74.9063 Q1029.5625,75.8594 1029.5625,77.125 Q1029.5625,79.1406 1030.2813,80.1094 Q1031,81.0625 1032.5938,81.0625 Q1033.1875,81.0625 1033.8125,80.9063 Q1034.4375,80.75 1035.2656,80.375 L1035.2656,82.5938 Q1034.5313,82.9063 1033.7344,83.0625 Q1032.9531,83.2188 1032.1875,83.2188 Z " fill="#000000"/><text fill="#000000" font-family="sans-serif" font-size="14" lengthAdjust="spacing" textLength="60.1084" x="1053.2188" y="81.1436">Diagram</text><line style="stroke:#181818;stroke-width:0.5;" x1="939" x2="1195.0459" y1="92.2969" y2="92.2969"/><g data-visibility-modifier="PUBLIC_FIELD"><ellipse cx="949" cy="105.9453" fill="none" rx="3" ry="3" style="stroke:#038048;stroke-width:1;"/></g><text fill="#000000" font-family="sans-serif" font-size="14" lengthAdjust="spacing" textLength="151.8877" x="958" y="109.292">diagram_type : String</text><g data-visibility-modifier="PUBLIC_FIELD"><ellipse cx="949" cy="122.2422" fill="none" rx="3" ry="3" style="stroke:#038048;stroke-width:1;"/></g><text fill="#000000" font-family="sans-serif" font-size="14" lengthAdjust="spacing" textLength="90.6855" x="958" y="125.5889">puml : String</text><g data-visibility-modifier="PUBLIC_FIELD"><ellipse cx="949" cy="138.5391" fill="none" rx="3" ry="3" style="stroke:#038048;stroke-width:1;"/></g><text fill="#000000" font-family="sans-serif" font-size="14" lengthAdjust="spacing" textLength="232.0459" x="958" y="141.8857">rendered_png : String {optional}</text><line style="stroke:#181818;stroke-width:0.5;" x1="939" x2="1195.0459" y1="149.1875" y2="149.1875"/></g><!--class _CLF_1782085920_5QwRvq_document--><g class="entity" data-qualified-name="_CLF_1782085920_5QwRvq_document" data-source-line="37" id="ent0012"><rect fill="#F1F1F1" height="80.5938" rx="2.5" ry="2.5" style="stroke:#181818;stroke-width:0.5;" width="144.8223" x="1231.5" y="68.2969"/><ellipse cx="1264.6318" cy="84.2969" fill="#ADD1B2" rx="11" ry="11" style="stroke:#181818;stroke-width:1;"/><path d="M1264.1006,91.2188 Q1262.3506,91.2188 1261.21,90.4844 Q1260.085,89.7344 1259.5225,88.3906 Q1258.9756,87.0313 1258.9756,85.2344 Q1258.9756,83.2031 1259.6318,81.75 Q1260.2881,80.2969 1261.5693,79.5156 Q1262.8506,78.7344 1264.7256,78.7344 Q1265.6162,78.7344 1266.2881,78.9219 Q1266.96,79.0938 1267.6475,79.4375 L1266.835,81.4531 Q1266.21,81.1406 1265.6631,81.0156 Q1265.1318,80.8906 1264.6475,80.8906 Q1263.4756,80.8906 1262.7725,81.4219 Q1262.0693,81.9531 1261.7725,82.9063 Q1261.4756,83.8594 1261.4756,85.125 Q1261.4756,87.1406 1262.1943,88.1094 Q1262.9131,89.0625 1264.5068,89.0625 Q1265.1006,89.0625 1265.7256,88.9063 Q1266.3506,88.75 1267.1787,88.375 L1267.1787,90.5938 Q1266.4443,90.9063 1265.6475,91.0625 Q1264.8662,91.2188 1264.1006,91.2188 Z " fill="#000000"/><text fill="#000000" font-family="sans-serif" font-size="14" lengthAdjust="spacing" textLength="72.5293" x="1282.6611" y="89.1436">Document</text><line style="stroke:#181818;stroke-width:0.5;" x1="1232.5" x2="1375.3223" y1="100.2969" y2="100.2969"/><g data-visibility-modifier="PUBLIC_FIELD"><ellipse cx="1242.5" cy="113.9453" fill="none" rx="3" ry="3" style="stroke:#038048;stroke-width:1;"/></g><text fill="#000000" font-family="sans-serif" font-size="14" lengthAdjust="spacing" textLength="118.8223" x="1251.5" y="117.292">doc_type : String</text><g data-visibility-modifier="PUBLIC_FIELD"><ellipse cx="1242.5" cy="130.2422" fill="none" rx="3" ry="3" style="stroke:#038048;stroke-width:1;"/></g><text fill="#000000" font-family="sans-serif" font-size="14" lengthAdjust="spacing" textLength="90.0225" x="1251.5" y="133.5889">body : String</text><line style="stroke:#181818;stroke-width:0.5;" x1="1232.5" x2="1375.3223" y1="140.8906" y2="140.8906"/></g><!--class _CLF_1782085920_GKQcVR_frontmatter--><g class="entity" data-qualified-name="_CLF_1782085920_GKQcVR_frontmatter" data-source-line="42" id="ent0013"><rect fill="#F1F1F1" height="105.1563" rx="2.5" ry="2.5" style="stroke:#181818;stroke-width:0.5;" width="281.6846" x="598" y="422.2969"/><ellipse cx="692.4419" cy="442.4297" fill="#ADD1B2" rx="11" ry="11" style="stroke:#181818;stroke-width:1;"/><path d="M691.9106,449.3516 Q690.1606,449.3516 689.02,448.6172 Q687.895,447.8672 687.3325,446.5234 Q686.7856,445.1641 686.7856,443.3672 Q686.7856,441.3359 687.4419,439.8828 Q688.0981,438.4297 689.3794,437.6484 Q690.6606,436.8672 692.5356,436.8672 Q693.4263,436.8672 694.0981,437.0547 Q694.77,437.2266 695.4575,437.5703 L694.645,439.5859 Q694.02,439.2734 693.4731,439.1484 Q692.9419,439.0234 692.4575,439.0234 Q691.2856,439.0234 690.5825,439.5547 Q689.8794,440.0859 689.5825,441.0391 Q689.2856,441.9922 689.2856,443.2578 Q689.2856,445.2734 690.0044,446.2422 Q690.7231,447.1953 692.3169,447.1953 Q692.9106,447.1953 693.5356,447.0391 Q694.1606,446.8828 694.9888,446.5078 L694.9888,448.7266 Q694.2544,449.0391 693.4575,449.1953 Q692.6763,449.3516 691.9106,449.3516 Z " fill="#000000"/><text fill="#000000" font-family="sans-serif" font-size="12" font-style="italic" lengthAdjust="spacing" textLength="68.6484" x="720.7681" y="438.4355">&#171;datatype&#187;</text><text fill="#000000" font-family="sans-serif" font-size="14" lengthAdjust="spacing" textLength="84.3008" x="712.9419" y="454.2607">Frontmatter</text><line style="stroke:#181818;stroke-width:0.5;" x1="599" x2="878.6846" y1="462.5625" y2="462.5625"/><g data-visibility-modifier="PUBLIC_FIELD"><ellipse cx="609" cy="476.2109" fill="none" rx="3" ry="3" style="stroke:#038048;stroke-width:1;"/></g><text fill="#000000" font-family="sans-serif" font-size="14" lengthAdjust="spacing" textLength="144.0811" x="618" y="479.5576">artifact_type : String</text><g data-visibility-modifier="PUBLIC_FIELD"><ellipse cx="609" cy="492.5078" fill="none" rx="3" ry="3" style="stroke:#038048;stroke-width:1;"/></g><text fill="#000000" font-family="sans-serif" font-size="14" lengthAdjust="spacing" textLength="144.7305" x="618" y="495.8545">keywords : String [*]</text><g data-visibility-modifier="PUBLIC_FIELD"><ellipse cx="609" cy="508.8047" fill="none" rx="3" ry="3" style="stroke:#038048;stroke-width:1;"/></g><text fill="#000000" font-family="sans-serif" font-size="14" lengthAdjust="spacing" textLength="255.6846" x="618" y="512.1514">provenance_note : String {optional}</text><line style="stroke:#181818;stroke-width:0.5;" x1="599" x2="878.6846" y1="519.4531" y2="519.4531"/></g><g class="entity" data-qualified-name="GMN19" data-source-line="54" id="ent0020"><path d="M915.5,462.2969 L915.5,487.4297 A0,0 0 0 0 915.5,487.4297 L1288.3633,487.4297 A0,0 0 0 0 1288.3633,487.4297 L1288.3633,472.2969 L1278.3633,462.2969 L976.75,462.2969 L972.75,362.4469 L968.75,462.2969 L915.5,462.2969 A0,0 0 0 0 915.5,462.2969" fill="#FEFFDD" style="stroke:#181818;stroke-width:0.5;"/><path d="M1278.3633,462.2969 L1278.3633,472.2969 L1288.3633,472.2969 L1278.3633,462.2969" fill="#FEFFDD" style="stroke:#181818;stroke-width:0.5;"/><text fill="#000000" font-family="sans-serif" font-size="13" lengthAdjust="spacing" textLength="351.8633" x="921.5" y="479.3638">GeneralizationSet &#171;artifact-kind&#187; {complete, disjoint}</text></g><!--link _CLF_1782085920_wrZtUi_entity to _CLF_1782085920_ShZ_Qq_artifact--><g class="link" data-entity-1="ent0006" data-entity-2="ent0002" data-link-type="extension" data-source-line="48" id="lnk14"><path codeLine="48" d="M872,149.3469 C872,173.7469 872,187.3669 872,215.1569" fill="none" id="_CLF_1782085920_wrZtUi_entity-to-_CLF_1782085920_ShZ_Qq_artifact" style="stroke:#181818;stroke-width:1;"/><polygon fill="none" points="872,233.1569,878,215.1569,866,215.1569,872,233.1569" style="stroke:#181818;stroke-width:1;"/></g><!--link _CLF_1782085920_LEgkrJ_connection to _CLF_1782085920_ShZ_Qq_artifact--><g class="link" data-entity-1="ent0007" data-entity-2="ent0002" data-link-type="extension" data-source-line="49" id="lnk15"><path codeLine="49" d="M269.4,165.2969 C472.88,165.2969 841,165.2969 841,165.2969 C841,165.2969 841,181.4669 841,215.0969" fill="none" id="_CLF_1782085920_LEgkrJ_connection-to-_CLF_1782085920_ShZ_Qq_artifact" style="stroke:#181818;stroke-width:1;"/><polygon fill="none" points="841,233.0969,847,215.0969,835,215.0969,841,233.0969" style="stroke:#181818;stroke-width:1;"/></g><!--link _CLF_1782085920_ntOKAT_diagram to _CLF_1782085920_ShZ_Qq_artifact--><g class="link" data-entity-1="ent0011" data-entity-2="ent0002" data-link-type="extension" data-source-line="50" id="lnk16"><path codeLine="50" d="M984,157.4669 C984,180.5469 984,190.4369 984,215.2469" fill="none" id="_CLF_1782085920_ntOKAT_diagram-to-_CLF_1782085920_ShZ_Qq_artifact" style="stroke:#181818;stroke-width:1;"/><polygon fill="none" points="984,233.2469,990,215.2469,978,215.2469,984,233.2469" style="stroke:#181818;stroke-width:1;"/></g><!--link _CLF_1782085920_5QwRvq_document to _CLF_1782085920_ShZ_Qq_artifact--><g class="link" data-entity-1="ent0012" data-entity-2="ent0002" data-link-type="extension" data-source-line="51" id="lnk17"><path codeLine="51" d="M1260,149.5269 C1260,194.0969 1260,259.2969 1260,259.2969 C1260,259.2969 1147.67,259.2969 1048.39,259.2969" fill="none" id="_CLF_1782085920_5QwRvq_document-to-_CLF_1782085920_ShZ_Qq_artifact" style="stroke:#181818;stroke-width:1;"/><polygon fill="none" points="1030.39,259.2969,1048.39,265.2969,1048.39,253.2969,1030.39,259.2969" style="stroke:#181818;stroke-width:1;"/></g><!--reverse link _CLF_1782085920_ShZ_Qq_artifact to _CLF_1782085920_GKQcVR_frontmatter--><g class="link" data-entity-1="ent0002" data-entity-2="ent0013" data-link-type="composition" data-source-line="52" id="lnk18"><path codeLine="52" d="M845,374.4469 C845,394.0969 845,403.4469 845,422.2069" fill="none" id="_CLF_1782085920_ShZ_Qq_artifact-backto-_CLF_1782085920_GKQcVR_frontmatter" style="stroke:#181818;stroke-width:1;"/><polygon fill="#181818" points="845,362.4469,841,368.4469,845,374.4469,849,368.4469,845,362.4469" style="stroke:#181818;stroke-width:1;"/><text fill="#000000" font-family="sans-serif" font-size="13" lengthAdjust="spacing" textLength="8.271" x="850.7457" y="411.1976">1</text></g><?plantuml-src dLNBRjim4BphAmYVsZG2aW11qo0m4EG5D2bQnqqFAGg29jSoQucKoPKDn_KNvHDwyvU5b2pB3oKEV1AqNCtExknGA346ScvGTXb7yWECbHP1SI3Vj80ui7sfKcPOGcAf0CSf46smfuE0TImQ_n6FcRMaKO8q2BE4NjnTqyFF9qS79yTVZWvek_T8MmFAoaAJW91Ff7obKf1JqaOZLKGcKappKyKIM8JpY4M6cLsD3JrbhLQ3ASFU4cAcv223Kn-T1jD0QGHYPDH3ehlRg0Qpv-Bp77Jsdtpmpuy1A44yK13C-xzIA75Ss_t8FEA3f91dp7iNEc5oZJR4aBWaMY1M_7MAhaKMU_9bkGkj570VhorvTnNrpLVA5rdpibPdXaFzm96P25uHmmFHNFxDCsiuvSm8wIZw1kk8v_WHRitRfiv6NquVAOh9Ud4M_UrNbFUhpcfqkvGiSljTEqM5ts_FVr9Hf9JA5M-hqoZMBalYrOXnvS20eAbhysr1BpNFlFgrH8vRe_lXW8fvpcA7U0sBZXRLR9SAN1kjC668O6fhtDos-AzxsgtIoDcPOCvphaIpkUxPpS9z68-q4KkR-tllJp4OeuUWcBjMQ2xlAvDuspTX-A-vrQtRVR0JpDeYx8Inhk5E8EiNwLuOaiPXunrY5iRgQ4ITlEVUkm45nXdrYVcnjG79xBay3DrVGJYxJRXEqXZGMKn8-rTBXTFAOIy0?></g></svg>