<svg xmlns="http://www.w3.org/2000/svg" xmlns:xlink="http://www.w3.org/1999/xlink" contentStyleType="text/css" data-diagram-type="DESCRIPTION" height="1564px" preserveAspectRatio="none" style="width:1233px;height:1564px;background:#FAFAFA;" version="1.1" viewBox="0 0 1233 1564" width="1233px" zoomAndPan="magnify"><?plantuml 1.2026.3?><defs/><g><rect fill="#FAFAFA" height="1564" style="stroke:none;stroke-width:1;" width="1233" x="0" y="0"/><g class="title" data-source-line="61"><text fill="#000000" font-family="'Helvetica Neue, Helvetica, Arial, sans-serif'" font-size="14" font-weight="700" lengthAdjust="spacing" textLength="415.0713" x="405.8323" y="22.9951">What We Are Trying to Achieve &#8212; Goals &amp; Outcomes</text></g><!--entity GOL_FCfDuc--><g class="entity" data-qualified-name="GOL_FCfDuc" data-source-line="65" id="ent0002"><rect fill="#EDD6F0" height="42.1538" rx="2" ry="2" style="stroke:#7B3F9A;stroke-width:0.5;" width="427.7652" x="137" y="44.2969"/><ellipse cx="158.0769" cy="65.3738" fill="none" rx="6.6462" ry="6.6462" style="stroke:#252327;stroke-width:1.8;"/><ellipse cx="158.0769" cy="65.3738" fill="none" rx="4.0154" ry="4.0154" style="stroke:#252327;stroke-width:1.8;"/><ellipse cx="158.0769" cy="65.3738" fill="#252327" rx="1.8" ry="1.8" style="stroke:none;stroke-width:1.8;"/><text fill="#000000" font-family="'Helvetica Neue, Helvetica, Arial, sans-serif'" font-size="12" lengthAdjust="spacing" textLength="381.7969" x="172.9683" y="73.6206">Achieve Unity of Effort Across Autonomous, Agentic SDLC Work</text></g><!--entity GOL_5Fk9di--><g class="entity" data-qualified-name="GOL_5Fk9di" data-source-line="67" id="ent0003"><rect fill="#EDD6F0" height="42.1538" rx="2" ry="2" style="stroke:#7B3F9A;stroke-width:0.5;" width="434.4917" x="288" y="166.2969"/><ellipse cx="309.0769" cy="187.3738" fill="none" rx="6.6462" ry="6.6462" style="stroke:#252327;stroke-width:1.8;"/><ellipse cx="309.0769" cy="187.3738" fill="none" rx="4.0154" ry="4.0154" style="stroke:#252327;stroke-width:1.8;"/><ellipse cx="309.0769" cy="187.3738" fill="#252327" rx="1.8" ry="1.8" style="stroke:none;stroke-width:1.8;"/><text fill="#000000" font-family="'Helvetica Neue, Helvetica, Arial, sans-serif'" font-size="12" lengthAdjust="spacing" textLength="388.5234" x="323.9683" y="195.6206">Speed Up Architectural Planning &amp; Governance for Agentic Work</text></g><!--entity OUT_AlZjX8--><g class="entity" data-qualified-name="OUT_AlZjX8" data-source-line="68" id="ent0004"><rect fill="#EDD6F0" height="42.1538" rx="2" ry="2" style="stroke:#7B3F9A;stroke-width:0.5;" width="306.2417" x="312" y="288.2969"/><ellipse cx="332.2462" cy="310.2046" fill="none" rx="5.9538" ry="5.9538" style="stroke:#252327;stroke-width:1.8;"/><ellipse cx="332.2462" cy="310.2046" fill="none" rx="3.0462" ry="3.0462" style="stroke:#252327;stroke-width:1.8;"/><path d="M336.0954,307.8923 L335.0431,306.4246 L339.3354,303.3784 L340.3877,304.8461" fill="#252327"/><path d="M336.1231,308.3353 L339.5846,308.3353 L339.5846,310.1353 L336.1231,310.1353" fill="#252327"/><ellipse cx="332.2462" cy="310.2046" fill="#252327" rx="1.2462" ry="1.2462" style="stroke:none;stroke-width:1.8;"/><text fill="#000000" font-family="'Helvetica Neue, Helvetica, Arial, sans-serif'" font-size="12" lengthAdjust="spacing" textLength="260.2734" x="347.9683" y="317.6206">Reduced Planning &amp; Governance Overhead</text></g><!--entity OUT_JZMIk3--><g class="entity" data-qualified-name="OUT_JZMIk3" data-source-line="69" id="ent0005"><rect fill="#EDD6F0" height="42.1538" rx="2" ry="2" style="stroke:#7B3F9A;stroke-width:0.5;" width="394.7007" x="678.5" y="288.2969"/><ellipse cx="698.7462" cy="310.2046" fill="none" rx="5.9538" ry="5.9538" style="stroke:#252327;stroke-width:1.8;"/><ellipse cx="698.7462" cy="310.2046" fill="none" rx="3.0462" ry="3.0462" style="stroke:#252327;stroke-width:1.8;"/><path d="M702.5954,307.8923 L701.5431,306.4246 L705.8354,303.3784 L706.8877,304.8461" fill="#252327"/><path d="M702.6231,308.3353 L706.0846,308.3353 L706.0846,310.1353 L702.6231,310.1353" fill="#252327"/><ellipse cx="698.7462" cy="310.2046" fill="#252327" rx="1.2462" ry="1.2462" style="stroke:none;stroke-width:1.8;"/><text fill="#000000" font-family="'Helvetica Neue, Helvetica, Arial, sans-serif'" font-size="12" lengthAdjust="spacing" textLength="348.7324" x="714.4683" y="317.6206">AI Agents Efficiently Discover &amp; Edit Architecture Artifacts</text></g><!--entity GOL_Lm2Bn2--><g class="entity" data-qualified-name="GOL_Lm2Bn2" data-source-line="71" id="ent0006"><rect fill="#EDD6F0" height="42.1538" rx="2" ry="2" style="stroke:#7B3F9A;stroke-width:0.5;" width="403.9234" x="175" y="410.2969"/><ellipse cx="196.0769" cy="431.3738" fill="none" rx="6.6462" ry="6.6462" style="stroke:#252327;stroke-width:1.8;"/><ellipse cx="196.0769" cy="431.3738" fill="none" rx="4.0154" ry="4.0154" style="stroke:#252327;stroke-width:1.8;"/><ellipse cx="196.0769" cy="431.3738" fill="#252327" rx="1.8" ry="1.8" style="stroke:none;stroke-width:1.8;"/><text fill="#000000" font-family="'Helvetica Neue, Helvetica, Arial, sans-serif'" font-size="12" lengthAdjust="spacing" textLength="357.9551" x="210.9683" y="439.6206">Plan Collaboratively in a Unified, Staged Repository System</text></g><!--entity OUT_YSRwR0--><g class="entity" data-qualified-name="OUT_YSRwR0" data-source-line="72" id="ent0007"><rect fill="#EDD6F0" height="42.1538" rx="2" ry="2" style="stroke:#7B3F9A;stroke-width:0.5;" width="421.1968" x="166.5" y="532.2969"/><ellipse cx="186.7462" cy="554.2046" fill="none" rx="5.9538" ry="5.9538" style="stroke:#252327;stroke-width:1.8;"/><ellipse cx="186.7462" cy="554.2046" fill="none" rx="3.0462" ry="3.0462" style="stroke:#252327;stroke-width:1.8;"/><path d="M190.5954,551.8923 L189.5431,550.4246 L193.8354,547.3784 L194.8877,548.8461" fill="#252327"/><path d="M190.6231,552.3353 L194.0846,552.3353 L194.0846,554.1353 L190.6231,554.1353" fill="#252327"/><ellipse cx="186.7462" cy="554.2046" fill="#252327" rx="1.2462" ry="1.2462" style="stroke:none;stroke-width:1.8;"/><text fill="#000000" font-family="'Helvetica Neue, Helvetica, Arial, sans-serif'" font-size="12" lengthAdjust="spacing" textLength="375.2285" x="202.4683" y="561.6206">Stakeholder Concerns and Hand-Off Points Explicitly Verifiable</text></g><!--entity OUT_620dTh--><g class="entity" data-qualified-name="OUT_620dTh" data-source-line="73" id="ent0008"><rect fill="#EDD6F0" height="42.1538" rx="2" ry="2" style="stroke:#7B3F9A;stroke-width:0.5;" width="450.441" x="648" y="532.2969"/><ellipse cx="668.2462" cy="554.2046" fill="none" rx="5.9538" ry="5.9538" style="stroke:#252327;stroke-width:1.8;"/><ellipse cx="668.2462" cy="554.2046" fill="none" rx="3.0462" ry="3.0462" style="stroke:#252327;stroke-width:1.8;"/><path d="M672.0954,551.8923 L671.0431,550.4246 L675.3354,547.3784 L676.3877,548.8461" fill="#252327"/><path d="M672.1231,552.3353 L675.5846,552.3353 L675.5846,554.1353 L672.1231,554.1353" fill="#252327"/><ellipse cx="668.2462" cy="554.2046" fill="#252327" rx="1.2462" ry="1.2462" style="stroke:none;stroke-width:1.8;"/><text fill="#000000" font-family="'Helvetica Neue, Helvetica, Arial, sans-serif'" font-size="12" lengthAdjust="spacing" textLength="404.4727" x="683.9683" y="561.6206">Engagements Plan Concurrently Against a Shared, Staged Baseline</text></g><!--entity GOL_Gh3Jk1--><g class="entity" data-qualified-name="GOL_Gh3Jk1" data-source-line="75" id="ent0009"><rect fill="#EDD6F0" height="42.1538" rx="2" ry="2" style="stroke:#7B3F9A;stroke-width:0.5;" width="467.48" x="44.5" y="654.2969"/><ellipse cx="65.5769" cy="675.3738" fill="none" rx="6.6462" ry="6.6462" style="stroke:#252327;stroke-width:1.8;"/><ellipse cx="65.5769" cy="675.3738" fill="none" rx="4.0154" ry="4.0154" style="stroke:#252327;stroke-width:1.8;"/><ellipse cx="65.5769" cy="675.3738" fill="#252327" rx="1.8" ry="1.8" style="stroke:none;stroke-width:1.8;"/><text fill="#000000" font-family="'Helvetica Neue, Helvetica, Arial, sans-serif'" font-size="12" lengthAdjust="spacing" textLength="421.5117" x="80.4683" y="683.6206">Provide Independent Read-Access to Architecture for Teams &amp; Agents</text></g><!--entity OUT_FXFGrO--><g class="entity" data-qualified-name="OUT_FXFGrO" data-source-line="76" id="ent0010"><rect fill="#EDD6F0" height="42.1538" rx="2" ry="2" style="stroke:#7B3F9A;stroke-width:0.5;" width="434.3745" x="53" y="776.2969"/><ellipse cx="73.2462" cy="798.2046" fill="none" rx="5.9538" ry="5.9538" style="stroke:#252327;stroke-width:1.8;"/><ellipse cx="73.2462" cy="798.2046" fill="none" rx="3.0462" ry="3.0462" style="stroke:#252327;stroke-width:1.8;"/><path d="M77.0954,795.8923 L76.0431,794.4246 L80.3354,791.3784 L81.3877,792.8461" fill="#252327"/><path d="M77.1231,796.3353 L80.5846,796.3353 L80.5846,798.1353 L77.1231,798.1353" fill="#252327"/><ellipse cx="73.2462" cy="798.2046" fill="#252327" rx="1.2462" ry="1.2462" style="stroke:none;stroke-width:1.8;"/><text fill="#000000" font-family="'Helvetica Neue, Helvetica, Arial, sans-serif'" font-size="12" lengthAdjust="spacing" textLength="388.4063" x="88.9683" y="805.6206">Architectural Guidance Available Without Specialist Dependency</text></g><!--entity OUT__AzP1Q--><g class="entity" data-qualified-name="OUT__AzP1Q" data-source-line="77" id="ent0011"><rect fill="#EDD6F0" height="42.1538" rx="2" ry="2" style="stroke:#7B3F9A;stroke-width:0.5;" width="377.2574" x="547.5" y="776.2969"/><ellipse cx="567.7462" cy="798.2046" fill="none" rx="5.9538" ry="5.9538" style="stroke:#252327;stroke-width:1.8;"/><ellipse cx="567.7462" cy="798.2046" fill="none" rx="3.0462" ry="3.0462" style="stroke:#252327;stroke-width:1.8;"/><path d="M571.5954,795.8923 L570.5431,794.4246 L574.8354,791.3784 L575.8877,792.8461" fill="#252327"/><path d="M571.6231,796.3353 L575.0846,796.3353 L575.0846,798.1353 L571.6231,798.1353" fill="#252327"/><ellipse cx="567.7462" cy="798.2046" fill="#252327" rx="1.2462" ry="1.2462" style="stroke:none;stroke-width:1.8;"/><text fill="#000000" font-family="'Helvetica Neue, Helvetica, Arial, sans-serif'" font-size="12" lengthAdjust="spacing" textLength="331.2891" x="583.4683" y="805.6206">AI Agents Produce Fewer Architecture-Drift Corrections</text></g><!--entity GOL_Xwvgpb--><g class="entity" data-qualified-name="GOL_Xwvgpb" data-source-line="79" id="ent0012"><rect fill="#EDD6F0" height="42.1538" rx="2" ry="2" style="stroke:#7B3F9A;stroke-width:0.5;" width="402.2593" x="43" y="898.2969"/><ellipse cx="64.0769" cy="919.3738" fill="none" rx="6.6462" ry="6.6462" style="stroke:#252327;stroke-width:1.8;"/><ellipse cx="64.0769" cy="919.3738" fill="none" rx="4.0154" ry="4.0154" style="stroke:#252327;stroke-width:1.8;"/><ellipse cx="64.0769" cy="919.3738" fill="#252327" rx="1.8" ry="1.8" style="stroke:none;stroke-width:1.8;"/><text fill="#000000" font-family="'Helvetica Neue, Helvetica, Arial, sans-serif'" font-size="12" lengthAdjust="spacing" textLength="356.291" x="78.9683" y="927.6206">Enable Fast Feedback from Implementation to Architecture</text></g><!--entity OUT_a5mNob--><g class="entity" data-qualified-name="OUT_a5mNob" data-source-line="80" id="ent0013"><rect fill="#EDD6F0" height="42.1538" rx="2" ry="2" style="stroke:#7B3F9A;stroke-width:0.5;" width="427.9937" x="30" y="1020.2969"/><ellipse cx="50.2462" cy="1042.2046" fill="none" rx="5.9538" ry="5.9538" style="stroke:#252327;stroke-width:1.8;"/><ellipse cx="50.2462" cy="1042.2046" fill="none" rx="3.0462" ry="3.0462" style="stroke:#252327;stroke-width:1.8;"/><path d="M54.0954,1039.8923 L53.0431,1038.4246 L57.3354,1035.3784 L58.3877,1036.8461" fill="#252327"/><path d="M54.1231,1040.3353 L57.5846,1040.3353 L57.5846,1042.1353 L54.1231,1042.1353" fill="#252327"/><ellipse cx="50.2462" cy="1042.2046" fill="#252327" rx="1.2462" ry="1.2462" style="stroke:none;stroke-width:1.8;"/><text fill="#000000" font-family="'Helvetica Neue, Helvetica, Arial, sans-serif'" font-size="12" lengthAdjust="spacing" textLength="382.0254" x="65.9683" y="1049.6206">Changes Validated Against Architecture Before Implementation</text></g><!--entity OUT_g7PM4Y--><g class="entity" data-qualified-name="OUT_g7PM4Y" data-source-line="81" id="ent0014"><rect fill="#EDD6F0" height="42.1538" rx="2" ry="2" style="stroke:#7B3F9A;stroke-width:0.5;" width="397.1441" x="518.5" y="1020.2969"/><ellipse cx="538.7462" cy="1042.2046" fill="none" rx="5.9538" ry="5.9538" style="stroke:#252327;stroke-width:1.8;"/><ellipse cx="538.7462" cy="1042.2046" fill="none" rx="3.0462" ry="3.0462" style="stroke:#252327;stroke-width:1.8;"/><path d="M542.5954,1039.8923 L541.5431,1038.4246 L545.8354,1035.3784 L546.8877,1036.8461" fill="#252327"/><path d="M542.6231,1040.3353 L546.0846,1040.3353 L546.0846,1042.1353 L542.6231,1042.1353" fill="#252327"/><ellipse cx="538.7462" cy="1042.2046" fill="#252327" rx="1.2462" ry="1.2462" style="stroke:none;stroke-width:1.8;"/><text fill="#000000" font-family="'Helvetica Neue, Helvetica, Arial, sans-serif'" font-size="12" lengthAdjust="spacing" textLength="351.1758" x="554.4683" y="1049.6206">Implementation Changes Fed Back, Reviewed &amp; Promoted</text></g><!--entity GOL_Po1Qw3--><g class="entity" data-qualified-name="GOL_Po1Qw3" data-source-line="83" id="ent0015"><rect fill="#EDD6F0" height="42.1538" rx="2" ry="2" style="stroke:#7B3F9A;stroke-width:0.5;" width="266.6206" x="110.5" y="1142.2969"/><ellipse cx="131.5769" cy="1163.3738" fill="none" rx="6.6462" ry="6.6462" style="stroke:#252327;stroke-width:1.8;"/><ellipse cx="131.5769" cy="1163.3738" fill="none" rx="4.0154" ry="4.0154" style="stroke:#252327;stroke-width:1.8;"/><ellipse cx="131.5769" cy="1163.3738" fill="#252327" rx="1.8" ry="1.8" style="stroke:none;stroke-width:1.8;"/><text fill="#000000" font-family="'Helvetica Neue, Helvetica, Arial, sans-serif'" font-size="12" lengthAdjust="spacing" textLength="220.6523" x="146.4683" y="1171.6206">Maintain Coherence and Traceability</text></g><!--entity OUT_9jS0BB--><g class="entity" data-qualified-name="OUT_9jS0BB" data-source-line="84" id="ent0016"><rect fill="#EDD6F0" height="42.1538" rx="2" ry="2" style="stroke:#7B3F9A;stroke-width:0.5;" width="343.7476" x="72" y="1264.2969"/><ellipse cx="92.2462" cy="1286.2046" fill="none" rx="5.9538" ry="5.9538" style="stroke:#252327;stroke-width:1.8;"/><ellipse cx="92.2462" cy="1286.2046" fill="none" rx="3.0462" ry="3.0462" style="stroke:#252327;stroke-width:1.8;"/><path d="M96.0954,1283.8923 L95.0431,1282.4246 L99.3354,1279.3784 L100.3877,1280.8461" fill="#252327"/><path d="M96.1231,1284.3353 L99.5846,1284.3353 L99.5846,1286.1353 L96.1231,1286.1353" fill="#252327"/><ellipse cx="92.2462" cy="1286.2046" fill="#252327" rx="1.2462" ry="1.2462" style="stroke:none;stroke-width:1.8;"/><text fill="#000000" font-family="'Helvetica Neue, Helvetica, Arial, sans-serif'" font-size="12" lengthAdjust="spacing" textLength="297.7793" x="107.9683" y="1293.6206">Requirements Traceable to Realized Components</text></g><!--entity OUT_LrpdG0--><g class="entity" data-qualified-name="OUT_LrpdG0" data-source-line="85" id="ent0017"><rect fill="#EDD6F0" height="42.1538" rx="2" ry="2" style="stroke:#7B3F9A;stroke-width:0.5;" width="254.1695" x="476" y="1264.2969"/><ellipse cx="496.2462" cy="1286.2046" fill="none" rx="5.9538" ry="5.9538" style="stroke:#252327;stroke-width:1.8;"/><ellipse cx="496.2462" cy="1286.2046" fill="none" rx="3.0462" ry="3.0462" style="stroke:#252327;stroke-width:1.8;"/><path d="M500.0954,1283.8923 L499.0431,1282.4246 L503.3354,1279.3784 L504.3877,1280.8461" fill="#252327"/><path d="M500.1231,1284.3353 L503.5846,1284.3353 L503.5846,1286.1353 L500.1231,1286.1353" fill="#252327"/><ellipse cx="496.2462" cy="1286.2046" fill="#252327" rx="1.2462" ry="1.2462" style="stroke:none;stroke-width:1.8;"/><text fill="#000000" font-family="'Helvetica Neue, Helvetica, Arial, sans-serif'" font-size="12" lengthAdjust="spacing" textLength="208.2012" x="511.9683" y="1293.6206">Increased Architectural Coherence</text></g><!--entity OUT_aOcRl9--><g class="entity" data-qualified-name="OUT_aOcRl9" data-source-line="86" id="ent0018"><rect fill="#EDD6F0" height="42.1538" rx="2" ry="2" style="stroke:#7B3F9A;stroke-width:0.5;" width="429.2359" x="790.5" y="1264.2969"/><ellipse cx="810.7462" cy="1286.2046" fill="none" rx="5.9538" ry="5.9538" style="stroke:#252327;stroke-width:1.8;"/><ellipse cx="810.7462" cy="1286.2046" fill="none" rx="3.0462" ry="3.0462" style="stroke:#252327;stroke-width:1.8;"/><path d="M814.5954,1283.8923 L813.5431,1282.4246 L817.8354,1279.3784 L818.8877,1280.8461" fill="#252327"/><path d="M814.6231,1284.3353 L818.0846,1284.3353 L818.0846,1286.1353 L814.6231,1286.1353" fill="#252327"/><ellipse cx="810.7462" cy="1286.2046" fill="#252327" rx="1.2462" ry="1.2462" style="stroke:none;stroke-width:1.8;"/><text fill="#000000" font-family="'Helvetica Neue, Helvetica, Arial, sans-serif'" font-size="12" lengthAdjust="spacing" textLength="383.2676" x="826.4683" y="1293.6206">Architecture Governance Scales Without Proportional Overhead</text></g><!--entity GOL_kCcPph--><g class="entity" data-qualified-name="GOL_kCcPph" data-source-line="88" id="ent0019"><rect fill="#EDD6F0" height="42.1538" rx="2" ry="2" style="stroke:#7B3F9A;stroke-width:0.5;" width="326.5738" x="613.5" y="1386.2969"/><ellipse cx="634.5769" cy="1407.3738" fill="none" rx="6.6462" ry="6.6462" style="stroke:#252327;stroke-width:1.8;"/><ellipse cx="634.5769" cy="1407.3738" fill="none" rx="4.0154" ry="4.0154" style="stroke:#252327;stroke-width:1.8;"/><ellipse cx="634.5769" cy="1407.3738" fill="#252327" rx="1.8" ry="1.8" style="stroke:none;stroke-width:1.8;"/><text fill="#000000" font-family="'Helvetica Neue, Helvetica, Arial, sans-serif'" font-size="12" lengthAdjust="spacing" textLength="280.6055" x="649.4683" y="1415.6206">Enable Cross-Engagement Architectural Reuse</text></g><!--entity OUT_edEkJa--><g class="entity" data-qualified-name="OUT_edEkJa" data-source-line="89" id="ent0020"><rect fill="#EDD6F0" height="42.1538" rx="2" ry="2" style="stroke:#7B3F9A;stroke-width:0.5;" width="414.3238" x="570" y="1508.2969"/><ellipse cx="590.2462" cy="1530.2046" fill="none" rx="5.9538" ry="5.9538" style="stroke:#252327;stroke-width:1.8;"/><ellipse cx="590.2462" cy="1530.2046" fill="none" rx="3.0462" ry="3.0462" style="stroke:#252327;stroke-width:1.8;"/><path d="M594.0954,1527.8923 L593.0431,1526.4246 L597.3354,1523.3784 L598.3877,1524.8461" fill="#252327"/><path d="M594.1231,1528.3353 L597.5846,1528.3353 L597.5846,1530.1353 L594.1231,1530.1353" fill="#252327"/><ellipse cx="590.2462" cy="1530.2046" fill="#252327" rx="1.2462" ry="1.2462" style="stroke:none;stroke-width:1.8;"/><text fill="#000000" font-family="'Helvetica Neue, Helvetica, Arial, sans-serif'" font-size="12" lengthAdjust="spacing" textLength="368.3555" x="605.9683" y="1537.6206">Proven Patterns Promoted and Adopted Across Engagements</text></g><!--link GOL_FCfDuc to GOL_5Fk9di--><!--link GOL_FCfDuc to GOL_5Fk9di--><g class="link" data-entity-1="ent0002" data-entity-2="ent0003" data-link-type="association" data-source-line="111" id="lnk39"><path d="M472.67,86.5469 C472.67,108.9369 472.67,143.9869 472.67,166.2869" fill="none" id="GOL_FCfDuc-GOL_5Fk9di-1" style="stroke:#181818;stroke-width:1;"/></g><!--link GOL_5Fk9di to OUT_AlZjX8--><!--reverse link GOL_5Fk9di to OUT_AlZjX8--><g class="link" data-entity-1="ent0003" data-entity-2="ent0004" data-link-type="extension" data-source-line="118" id="lnk46"><path d="M516,226.5469 C516,248.9369 516,265.9869 516,288.2869" fill="none" id="GOL_5Fk9di-backto-OUT_AlZjX8" style="stroke:#181818;stroke-width:1;"/><polygon fill="none" points="516,208.5469,510,226.5469,522,226.5469,516,208.5469" style="stroke:#181818;stroke-width:1;"/></g><!--link OUT_AlZjX8 to OUT_JZMIk3--><!--link OUT_AlZjX8 to GOL_Lm2Bn2--><!--link GOL_Lm2Bn2 to OUT_YSRwR0--><!--reverse link GOL_Lm2Bn2 to OUT_YSRwR0--><g class="link" data-entity-1="ent0006" data-entity-2="ent0007" data-link-type="extension" data-source-line="120" id="lnk50"><path d="M444.33,470.5469 C444.33,492.9369 444.33,509.9869 444.33,532.2869" fill="none" id="GOL_Lm2Bn2-backto-OUT_YSRwR0" style="stroke:#181818;stroke-width:1;"/><polygon fill="none" points="444.33,452.5469,438.33,470.5469,450.33,470.5469,444.33,452.5469" style="stroke:#181818;stroke-width:1;"/></g><!--link OUT_YSRwR0 to OUT_620dTh--><!--link OUT_YSRwR0 to GOL_Gh3Jk1--><!--link GOL_Gh3Jk1 to OUT_FXFGrO--><!--reverse link GOL_Gh3Jk1 to OUT_FXFGrO--><g class="link" data-entity-1="ent0009" data-entity-2="ent0010" data-link-type="extension" data-source-line="122" id="lnk54"><path d="M342.33,714.5469 C342.33,736.9369 342.33,753.9869 342.33,776.2869" fill="none" id="GOL_Gh3Jk1-backto-OUT_FXFGrO" style="stroke:#181818;stroke-width:1;"/><polygon fill="none" points="342.33,696.5469,336.33,714.5469,348.33,714.5469,342.33,696.5469" style="stroke:#181818;stroke-width:1;"/></g><!--link OUT_FXFGrO to OUT__AzP1Q--><!--link OUT_FXFGrO to GOL_Xwvgpb--><!--link GOL_Xwvgpb to OUT_a5mNob--><!--reverse link GOL_Xwvgpb to OUT_a5mNob--><g class="link" data-entity-1="ent0012" data-entity-2="ent0013" data-link-type="extension" data-source-line="124" id="lnk58"><path d="M311,958.5469 C311,980.9369 311,997.9869 311,1020.2869" fill="none" id="GOL_Xwvgpb-backto-OUT_a5mNob" style="stroke:#181818;stroke-width:1;"/><polygon fill="none" points="311,940.5469,305,958.5469,317,958.5469,311,940.5469" style="stroke:#181818;stroke-width:1;"/></g><!--link OUT_a5mNob to OUT_g7PM4Y--><!--link OUT_a5mNob to GOL_Po1Qw3--><!--link GOL_Po1Qw3 to OUT_9jS0BB--><!--reverse link GOL_Po1Qw3 to OUT_9jS0BB--><g class="link" data-entity-1="ent0015" data-entity-2="ent0016" data-link-type="extension" data-source-line="126" id="lnk62"><path d="M288.5,1202.5469 C288.5,1224.9369 288.5,1241.9869 288.5,1264.2869" fill="none" id="GOL_Po1Qw3-backto-OUT_9jS0BB" style="stroke:#181818;stroke-width:1;"/><polygon fill="none" points="288.5,1184.5469,282.5,1202.5469,294.5,1202.5469,288.5,1184.5469" style="stroke:#181818;stroke-width:1;"/></g><!--link OUT_9jS0BB to OUT_LrpdG0--><!--link OUT_LrpdG0 to OUT_aOcRl9--><!--link OUT_9jS0BB to GOL_kCcPph--><!--link GOL_kCcPph to OUT_edEkJa--><!--reverse link GOL_kCcPph to OUT_edEkJa--><g class="link" data-entity-1="ent0019" data-entity-2="ent0020" data-link-type="extension" data-source-line="130" id="lnk70"><path d="M831.5,1446.5469 C831.5,1468.9369 831.5,1485.9869 831.5,1508.2869" fill="none" id="GOL_kCcPph-backto-OUT_edEkJa" style="stroke:#181818;stroke-width:1;"/><polygon fill="none" points="831.5,1428.5469,825.5,1446.5469,837.5,1446.5469,831.5,1428.5469" style="stroke:#181818;stroke-width:1;"/></g><!--link GOL_FCfDuc to GOL_Lm2Bn2--><g class="link" data-entity-1="ent0002" data-entity-2="ent0006" data-link-type="association" data-source-line="112" id="lnk40"><path d="M231.5,86.5569 C231.5,151.2469 231.5,345.2169 231.5,409.9769" fill="none" id="GOL_FCfDuc-GOL_Lm2Bn2" style="stroke:#181818;stroke-width:1;"/></g><!--link GOL_FCfDuc to GOL_Gh3Jk1--><g class="link" data-entity-1="ent0002" data-entity-2="ent0009" data-link-type="association" data-source-line="113" id="lnk41"><path d="M151.75,86.6469 C151.75,181.0169 151.75,560.1069 151.75,654.1169" fill="none" id="GOL_FCfDuc-GOL_Gh3Jk1" style="stroke:#181818;stroke-width:1;"/></g><!--link GOL_FCfDuc to GOL_Xwvgpb--><g class="link" data-entity-1="ent0002" data-entity-2="ent0012" data-link-type="association" data-source-line="114" id="lnk42"><path d="M136.87,76.2969 C81.19,76.2969 36.5,76.2969 36.5,76.2969 C36.5,76.2969 36.5,919.2969 36.5,919.2969 C36.5,919.2969 38.81,919.2969 42.94,919.2969" fill="none" id="GOL_FCfDuc-GOL_Xwvgpb" style="stroke:#181818;stroke-width:1;"/></g><!--link GOL_FCfDuc to GOL_Po1Qw3--><g class="link" data-entity-1="ent0002" data-entity-2="ent0015" data-link-type="association" data-source-line="115" id="lnk43"><path d="M136.81,65.2969 C72.17,65.2969 18,65.2969 18,65.2969 C18,65.2969 18,1163.2969 18,1163.2969 C18,1163.2969 61.45,1163.2969 110.25,1163.2969" fill="none" id="GOL_FCfDuc-GOL_Po1Qw3" style="stroke:#181818;stroke-width:1;"/></g><!--link GOL_FCfDuc to GOL_kCcPph--><g class="link" data-entity-1="ent0002" data-entity-2="ent0019" data-link-type="association" data-source-line="116" id="lnk44"><path d="M136.92,55.2969 C66.55,55.2969 6,55.2969 6,55.2969 C6,55.2969 6,1414.2969 6,1414.2969 C6,1414.2969 387.17,1414.2969 613.49,1414.2969" fill="none" id="GOL_FCfDuc-GOL_kCcPph" style="stroke:#181818;stroke-width:1;"/></g><!--reverse link GOL_5Fk9di to OUT_JZMIk3--><g class="link" data-entity-1="ent0003" data-entity-2="ent0005" data-link-type="extension" data-source-line="119" id="lnk48"><path d="M700.25,226.5469 C700.25,248.9369 700.25,265.9869 700.25,288.2869" fill="none" id="GOL_5Fk9di-backto-OUT_JZMIk3" style="stroke:#181818;stroke-width:1;"/><polygon fill="none" points="700.25,208.5469,694.25,226.5469,706.25,226.5469,700.25,208.5469" style="stroke:#181818;stroke-width:1;"/></g><!--reverse link GOL_Lm2Bn2 to OUT_620dTh--><g class="link" data-entity-1="ent0006" data-entity-2="ent0008" data-link-type="extension" data-source-line="121" id="lnk52"><path d="M597.3,431.2969 C644.48,431.2969 663.25,431.2969 663.25,431.2969 C663.25,431.2969 663.25,497.0969 663.25,532.0469" fill="none" id="GOL_Lm2Bn2-backto-OUT_620dTh" style="stroke:#181818;stroke-width:1;"/><polygon fill="none" points="579.3,431.2969,597.3,437.2969,597.3,425.2969,579.3,431.2969" style="stroke:#181818;stroke-width:1;"/></g><!--reverse link GOL_Gh3Jk1 to OUT__AzP1Q--><g class="link" data-entity-1="ent0009" data-entity-2="ent0011" data-link-type="extension" data-source-line="123" id="lnk56"><path d="M499.25,714.3869 C499.25,747.5869 499.25,790.2969 499.25,790.2969 C499.25,790.2969 519.17,790.2969 547.45,790.2969" fill="none" id="GOL_Gh3Jk1-backto-OUT__AzP1Q" style="stroke:#181818;stroke-width:1;"/><polygon fill="none" points="499.25,696.3869,493.25,714.3869,505.25,714.3869,499.25,696.3869" style="stroke:#181818;stroke-width:1;"/></g><!--reverse link GOL_Xwvgpb to OUT_g7PM4Y--><g class="link" data-entity-1="ent0012" data-entity-2="ent0014" data-link-type="extension" data-source-line="125" id="lnk60"><path d="M463.11,919.2969 C512.24,919.2969 533,919.2969 533,919.2969 C533,919.2969 533,985.0969 533,1020.0469" fill="none" id="GOL_Xwvgpb-backto-OUT_g7PM4Y" style="stroke:#181818;stroke-width:1;"/><polygon fill="none" points="445.11,919.2969,463.11,925.2969,463.11,913.2969,445.11,919.2969" style="stroke:#181818;stroke-width:1;"/></g><!--reverse link GOL_FCfDuc to OUT_aOcRl9--><g class="link" data-entity-1="ent0002" data-entity-2="ent0018" data-link-type="extension" data-source-line="127" id="lnk64"><path d="M583.08,65.2969 C822.38,65.2969 1158.75,65.2969 1158.75,65.2969 C1158.75,65.2969 1158.75,1102.1169 1158.75,1264.1169" fill="none" id="GOL_FCfDuc-backto-OUT_aOcRl9" style="stroke:#181818;stroke-width:1;"/><polygon fill="none" points="565.08,65.2969,583.08,71.2969,583.08,59.2969,565.08,65.2969" style="stroke:#181818;stroke-width:1;"/></g><!--reverse link GOL_Po1Qw3 to OUT_aOcRl9--><g class="link" data-entity-1="ent0015" data-entity-2="ent0018" data-link-type="extension" data-source-line="128" id="lnk66"><path d="M395.65,1156.2969 C574.92,1156.2969 853,1156.2969 853,1156.2969 C853,1156.2969 853,1227.7269 853,1264.2869" fill="none" id="GOL_Po1Qw3-backto-OUT_aOcRl9" style="stroke:#181818;stroke-width:1;"/><polygon fill="none" points="377.65,1156.2969,395.65,1162.2969,395.65,1150.2969,377.65,1156.2969" style="stroke:#181818;stroke-width:1;"/></g><!--reverse link GOL_Po1Qw3 to OUT_LrpdG0--><g class="link" data-entity-1="ent0015" data-entity-2="ent0017" data-link-type="extension" data-source-line="129" id="lnk68"><path d="M395.67,1170.2969 C449.68,1170.2969 481.5,1170.2969 481.5,1170.2969 C481.5,1170.2969 481.5,1231.0069 481.5,1264.2069" fill="none" id="GOL_Po1Qw3-backto-OUT_LrpdG0" style="stroke:#181818;stroke-width:1;"/><polygon fill="none" points="377.67,1170.2969,395.67,1176.2969,395.67,1164.2969,377.67,1170.2969" style="stroke:#181818;stroke-width:1;"/></g><?plantuml-src xLZhRjis5FxlfpXpXsu5BCMMSosI0Cx5QOgqIUtqjc4868coMCkaHb9stMt07c9Fk2VPeKn7iaC7TROV-r4aiIaUybo-SrKI5b5Gcaegz3IZjPeQCfuHIKOGqPZagUuAhb-J4ONw2vgEgMOXWTSqfmsuUsv0HpAIDa0HhZn59OlhRaPzzeL2AwWGLK8YCM5y03595QrGfCXv50h9gOJDoluj2OU3WdWiKY7XIRTZVgggfunJOmu8gHDH8N0HKKKps6vM1H4-D9kxpTftg2lUXHvDRwub6mpG5ZxuCPPYr00j6f2IMve-0xC1ddU8UmjtUfIax0lHJF0Lbtp_zuTktRpDrhZOftAybduTfKJ87jBFynwuStD1O_seYpqsIDQu6OPKgPL0t3FhdCTfJdb87xvISJaDDU63bExl3mH93m_Xjnh0qN9adPwSR7URXY9aHANTtJbgT_SwjJ_S_4IkGp6YZsIPVCl7R_duBH__D_ceCiaqXU-931Cs8fhU6FrWNuq7y7cKSdLGJxJEdcziJ2OJVzBsXHni1CrcSmDFr67CwEH8V3weDw49hMtyhH_kXqo6AOKGjtVh44wBBtbGt_Jn6sAMfWTrBZYjOo6GOaWFwa-2hQ0TxCmtl0cBT79GR_dj-iPgVe6_zv_oCsJBRed1dB-Rdu7Yq86azSn_1kQElsdLzRSjeEr_2y0zde4VF8fdHdG2qK7zLQlfjtPXszzhN-pvcm5i-Rix5wt0tmgWxM_Zikq7kx3fxxI_BAEzn2PemeuVR2Lujpb6CSqNnQRhsaCMcIXvj5Uro32JuLPeZNaTCPDuM5zgDSqq2doV40tlAVOZ2jToQjeAdkvW1D0nXR___0lEC9qKF8NBMJ2eMkq7U4UbQMCfS28brginVGuwmUunfh887sIJSwQddeWz6iVOLQ18Iy6HVTOmXpbG4YQWyblCQyOnteeZo3qMQIecD8BRwOohbOmFgAmiQZy5fk77UO1YuH8Jt545YuOzKnHIG0sHbcVF_DfTqO7w_bB1-4sXEVIWvM_zSNXd_bjZ0eWOJcScT48fb89EhWKN8v4hxEC3oX4Aw9zS7CDx8OTrkAkGHC7PvSLDzpW-oSFQLqllPnHjVvkXJ_2CnbkvHEYkKiAv0VOfkWHnvWJBDs8bxtHmYz_g3lSYjagwHN11WHwDyX1LS4kyn5L2IMGabQKRXLs-lRxff3zz-h2xZh3E-Kn_PK1c8SDbEeKJfa8Z4aMVHkZf2XGcLZMBIQYLKuMNFxqw7xQ_7cvZ9M1NmVOdPh6CyXd6ZN5_p6ZKWBuc0yIZHpEXc1Po2lqfZe2Z-s1VZ88Z7gnZF_8UqaIasDfG2mHOSWM4H_02FxpBE8OhmGfuFcSfucFGUMS6HaPkK-f4u6E_D-arrr7Yb0_Gmb7X1ei73tCfPyxe30ZZIYCY_OJ82Y17H54pEJgrs0wQqNMoXX-a69lP-fn7DAFumJKYJY9lDjiKPQaQ1IRohoaPcTeqYw3xxZXBsY-7hRN2SI7dpd8M5K7V6HEM6i3XFSC1ETScIt5KIndYScBr3QTE8BeVkcVoyd4vWQ2ON8GkdM1yLEttJZ06D3fAsehkpeQRpfUhrfklzy8fBwpi4hIhYtN8l3lCHiBpKPOM8J8hgqlkk8_zXybuaDskO_PnWWUnpBz3M2Cy5Dr5teBZZoYwdYxfupIUR8rUYxLKM39ohb6t2FPmsC28D4CEFZurlXa9rD8fUh1pzMhpuzVZ_WeDrVY73atmtTB4d2a2rvA4bDoo51lHVOYlHElDfBrUQVyrnn5WbkcMETv3PyvUgT2mOp7ASAhWAyhhtgT-y-XeBKnvYFrO6NSk9DUTfKuv5pABpfgFJ5rQRLXzSqRT9IwwBSDcZkv57HviPkGoxALxQ-VEiHaIlBAaBfdTexbofClmEBpAadNiDGKJfwWhedNHDERnM0HE9n9PaK6paQLIu9scqkXq-9AOqSx3byiBCiKJpsSZd6DmAtRCFm5WenpEYcUI6bqmUN1gG4wrSlu1x-U4HLWbVud4X7lLqQHSBX-gZ1JbiZmapJkoL-twhbEbFDkTowLBdksUvT8fptOtrwbIdcq_vT8bpxQ7SkcKP-kuwrGfpvRSSkcIPujYkNJAi_NBTQgKP-jFkNJ9imMZN3hbsNGlbyvJDYDTl4gjR2QLIvTMyu2l1kYze5maLA9daL1nyoAXuez5GWMuHOBLVI6Eyypx_R2gMXdlAuZpY2o9LlSoSbSGvx5L4grnPGok8CwZf2HQwyjeMa6SUx8aMdXAZrU9zdNAJQpSd8UHapXpVvLeaVy7?></g></svg>