<svg xmlns="http://www.w3.org/2000/svg" xmlns:xlink="http://www.w3.org/1999/xlink" contentStyleType="text/css" data-diagram-type="DESCRIPTION" height="1615px" preserveAspectRatio="none" style="width:2616px;height:1615px;background:#FAFAFA;" version="1.1" viewBox="0 0 2616 1615" width="2616px" zoomAndPan="magnify"><?plantuml 1.2026.3?><defs/><g><rect fill="#FAFAFA" height="1615" style="stroke:none;stroke-width:1;" width="2616" x="0" y="0"/><g class="title" data-source-line="122"><text fill="#000000" font-family="'Helvetica Neue, Helvetica, Arial, sans-serif'" font-size="14" font-weight="700" lengthAdjust="spacing" textLength="383.8174" x="1112.5913" y="22.9951">Motivation Chain: From Drivers to Requirements</text></g><!--cluster Drivers--><g class="cluster" data-qualified-name="Drivers" data-source-line="124" id="ent0002"><rect fill="#F7EEF9" height="90" rx="2" ry="2" style="stroke:#7B3F9A;stroke-width:1;" width="1122" x="1480" y="44.2969"/><text fill="#000000" font-family="'Helvetica Neue, Helvetica, Arial, sans-serif'" font-size="12" font-weight="700" lengthAdjust="spacing" textLength="49.0137" x="2016.4932" y="57.4355">Drivers</text></g><!--cluster Assessments--><g class="cluster" data-qualified-name="Assessments" data-source-line="132" id="ent0008"><rect fill="#F7EEF9" height="456" rx="2" ry="2" style="stroke:#7B3F9A;stroke-width:1;" width="572" x="1396" y="166.2969"/><text fill="#000000" font-family="'Helvetica Neue, Helvetica, Arial, sans-serif'" font-size="12" font-weight="700" lengthAdjust="spacing" textLength="88.0605" x="1637.9697" y="179.4355">Assessments</text></g><!--cluster Goals--><g class="cluster" data-qualified-name="Goals" data-source-line="142" id="ent0016"><rect fill="#F7EEF9" height="212" rx="2" ry="2" style="stroke:#7B3F9A;stroke-width:1;" width="1256" x="737" y="654.2969"/><text fill="#000000" font-family="'Helvetica Neue, Helvetica, Arial, sans-serif'" font-size="12" font-weight="700" lengthAdjust="spacing" textLength="37.4473" x="1346.2764" y="667.4355">Goals</text></g><!--cluster Outcomes--><g class="cluster" data-qualified-name="Outcomes" data-source-line="152" id="ent0024"><rect fill="#F7EEF9" height="578" rx="2" ry="2" style="stroke:#7B3F9A;stroke-width:1;" width="462" x="1107" y="898.2969"/><text fill="#000000" font-family="'Helvetica Neue, Helvetica, Arial, sans-serif'" font-size="12" font-weight="700" lengthAdjust="spacing" textLength="67.623" x="1304.1885" y="911.4355">Outcomes</text></g><!--cluster Requirements--><g class="cluster" data-qualified-name="Requirements" data-source-line="164" id="ent0034"><rect fill="#F7EEF9" height="90" rx="2" ry="2" style="stroke:#7B3F9A;stroke-width:1;" width="1390" x="7" y="1508.2969"/><text fill="#000000" font-family="'Helvetica Neue, Helvetica, Arial, sans-serif'" font-size="12" font-weight="700" lengthAdjust="spacing" textLength="94.7461" x="654.627" y="1521.4355">Requirements</text></g><!--entity DRV_GR9prv--><g class="entity" data-qualified-name="Drivers.DRV_GR9prv" data-source-line="125" id="ent0003"><rect fill="#EDD6F0" height="42.1538" rx="2" ry="2" style="stroke:#7B3F9A;stroke-width:0.5;" width="381.3999" x="1843.5" y="76.2969"/><ellipse cx="1864.5769" cy="97.3738" fill="none" rx="6.3692" ry="6.3692" style="stroke:#252327;stroke-width:1.8;"/><ellipse cx="1864.5769" cy="97.3738" fill="none" rx="2.3538" ry="2.3538" style="stroke:#252327;stroke-width:1.8;"/><path d="M1863.6769,89.4815 L1863.6769,93.6353 L1865.4769,93.6353 L1865.4769,89.4815" fill="#252327"/><path d="M1863.6769,101.1123 L1863.6769,105.2661 L1865.4769,105.2661 L1865.4769,101.1123" fill="#252327"/><path d="M1856.6846,96.4738 L1860.8385,96.4738 L1860.8385,98.2738 L1856.6846,98.2738" fill="#252327"/><path d="M1868.3154,96.4738 L1872.4692,96.4738 L1872.4692,98.2738 L1868.3154,98.2738" fill="#252327"/><path d="M1858.4015,92.4723 L1859.6754,91.1984 L1862.5831,94.1061 L1861.3092,95.38" fill="#252327"/><path d="M1866.5708,100.6415 L1867.8446,99.3676 L1870.7523,102.2753 L1869.4785,103.5492" fill="#252327"/><path d="M1869.4785,91.1984 L1870.7523,92.4723 L1867.8446,95.38 L1866.5708,94.1061" fill="#252327"/><path d="M1861.3092,99.3676 L1862.5831,100.6415 L1859.6754,103.5492 L1858.4015,102.2753" fill="#252327"/><text fill="#000000" font-family="'Helvetica Neue, Helvetica, Arial, sans-serif'" font-size="12" lengthAdjust="spacing" textLength="335.4316" x="1879.4683" y="105.6206">AI-Assisted Development as Dominant Production Mode</text></g><!--entity DRV_Rt6Yu2--><g class="entity" data-qualified-name="Drivers.DRV_Rt6Yu2" data-source-line="126" id="ent0004"><rect fill="#EDD6F0" height="42.1538" rx="2" ry="2" style="stroke:#7B3F9A;stroke-width:0.5;" width="300.7925" x="2284.5" y="76.2969"/><ellipse cx="2305.5769" cy="97.3738" fill="none" rx="6.3692" ry="6.3692" style="stroke:#252327;stroke-width:1.8;"/><ellipse cx="2305.5769" cy="97.3738" fill="none" rx="2.3538" ry="2.3538" style="stroke:#252327;stroke-width:1.8;"/><path d="M2304.6769,89.4815 L2304.6769,93.6353 L2306.4769,93.6353 L2306.4769,89.4815" fill="#252327"/><path d="M2304.6769,101.1123 L2304.6769,105.2661 L2306.4769,105.2661 L2306.4769,101.1123" fill="#252327"/><path d="M2297.6846,96.4738 L2301.8385,96.4738 L2301.8385,98.2738 L2297.6846,98.2738" fill="#252327"/><path d="M2309.3154,96.4738 L2313.4692,96.4738 L2313.4692,98.2738 L2309.3154,98.2738" fill="#252327"/><path d="M2299.4015,92.4723 L2300.6754,91.1984 L2303.5831,94.1061 L2302.3092,95.38" fill="#252327"/><path d="M2307.5708,100.6415 L2308.8446,99.3676 L2311.7523,102.2753 L2310.4785,103.5492" fill="#252327"/><path d="M2310.4785,91.1984 L2311.7523,92.4723 L2308.8446,95.38 L2307.5708,94.1061" fill="#252327"/><path d="M2302.3092,99.3676 L2303.5831,100.6415 L2300.6754,103.5492 L2299.4015,102.2753" fill="#252327"/><text fill="#000000" font-family="'Helvetica Neue, Helvetica, Arial, sans-serif'" font-size="12" lengthAdjust="spacing" textLength="254.8242" x="2320.4683" y="105.6206">Increasing Autonomy of Teams &amp; Systems</text></g><!--entity DRV_Ui5Op3--><g class="entity" data-qualified-name="Drivers.DRV_Ui5Op3" data-source-line="127" id="ent0005"><rect fill="#EDD6F0" height="42.1538" rx="2" ry="2" style="stroke:#7B3F9A;stroke-width:0.5;" width="286.812" x="1496.5" y="76.2969"/><ellipse cx="1517.5769" cy="97.3738" fill="none" rx="6.3692" ry="6.3692" style="stroke:#252327;stroke-width:1.8;"/><ellipse cx="1517.5769" cy="97.3738" fill="none" rx="2.3538" ry="2.3538" style="stroke:#252327;stroke-width:1.8;"/><path d="M1516.6769,89.4815 L1516.6769,93.6353 L1518.4769,93.6353 L1518.4769,89.4815" fill="#252327"/><path d="M1516.6769,101.1123 L1516.6769,105.2661 L1518.4769,105.2661 L1518.4769,101.1123" fill="#252327"/><path d="M1509.6846,96.4738 L1513.8385,96.4738 L1513.8385,98.2738 L1509.6846,98.2738" fill="#252327"/><path d="M1521.3154,96.4738 L1525.4692,96.4738 L1525.4692,98.2738 L1521.3154,98.2738" fill="#252327"/><path d="M1511.4015,92.4723 L1512.6754,91.1984 L1515.5831,94.1061 L1514.3092,95.38" fill="#252327"/><path d="M1519.5708,100.6415 L1520.8446,99.3676 L1523.7523,102.2753 L1522.4785,103.5492" fill="#252327"/><path d="M1522.4785,91.1984 L1523.7523,92.4723 L1520.8446,95.38 L1519.5708,94.1061" fill="#252327"/><path d="M1514.3092,99.3676 L1515.5831,100.6415 L1512.6754,103.5492 L1511.4015,102.2753" fill="#252327"/><text fill="#000000" font-family="'Helvetica Neue, Helvetica, Arial, sans-serif'" font-size="12" lengthAdjust="spacing" textLength="240.8438" x="1532.4683" y="105.6206">Rising Complexity and Interdependence</text></g><!--entity ASS_CK90bp--><g class="entity" data-qualified-name="Assessments.ASS_CK90bp" data-source-line="133" id="ent0009"><rect fill="#EDD6F0" height="42.1538" rx="2" ry="2" style="stroke:#7B3F9A;stroke-width:0.5;" width="376.4429" x="1576" y="198.2969"/><path d="M1589.4615,212.4507 L1604.6923,212.4507 A1.3846,1.3846 0 0 1 1606.0769,213.8353 L1606.0769,222.143 A1.3846,1.3846 0 0 1 1604.6923,223.5276 L1594.3077,223.5276 L1591.5385,227.6815 L1592.9231,223.5276 L1589.4615,223.5276 A1.3846,1.3846 0 0 1 1588.0769,222.143 L1588.0769,213.8353 A1.3846,1.3846 0 0 1 1589.4615,212.4507" fill="#252327" style="stroke:none;stroke-width:0.5;"/><text fill="#000000" font-family="'Helvetica Neue, Helvetica, Arial, sans-serif'" font-size="12" lengthAdjust="spacing" textLength="330.4746" x="1611.9683" y="227.6206">Autonomy at Agentic Velocity Threatens Unity of Effort</text></g><!--entity ASS_EI3FpR--><g class="entity" data-qualified-name="Assessments.ASS_EI3FpR" data-source-line="134" id="ent0010"><rect fill="#EDD6F0" height="42.1538" rx="2" ry="2" style="stroke:#7B3F9A;stroke-width:0.5;" width="539.5913" x="1412" y="320.2969"/><path d="M1425.4615,334.4507 L1440.6923,334.4507 A1.3846,1.3846 0 0 1 1442.0769,335.8353 L1442.0769,344.143 A1.3846,1.3846 0 0 1 1440.6923,345.5276 L1430.3077,345.5276 L1427.5385,349.6815 L1428.9231,345.5276 L1425.4615,345.5276 A1.3846,1.3846 0 0 1 1424.0769,344.143 L1424.0769,335.8353 A1.3846,1.3846 0 0 1 1425.4615,334.4507" fill="#252327" style="stroke:none;stroke-width:0.5;"/><text fill="#000000" font-family="'Helvetica Neue, Helvetica, Arial, sans-serif'" font-size="12" lengthAdjust="spacing" textLength="493.623" x="1447.9683" y="349.6206">AI Code Generation Volume Outpaces Architectural Planning and Review Capacity</text></g><!--entity ASS_s68vVo--><g class="entity" data-qualified-name="Assessments.ASS_s68vVo" data-source-line="135" id="ent0011"><rect fill="#EDD6F0" height="42.1538" rx="2" ry="2" style="stroke:#7B3F9A;stroke-width:0.5;" width="529.7007" x="1420" y="442.2969"/><path d="M1433.4615,456.4507 L1448.6923,456.4507 A1.3846,1.3846 0 0 1 1450.0769,457.8353 L1450.0769,466.143 A1.3846,1.3846 0 0 1 1448.6923,467.5276 L1438.3077,467.5276 L1435.5385,471.6815 L1436.9231,467.5276 L1433.4615,467.5276 A1.3846,1.3846 0 0 1 1432.0769,466.143 L1432.0769,457.8353 A1.3846,1.3846 0 0 1 1433.4615,456.4507" fill="#252327" style="stroke:none;stroke-width:0.5;"/><text fill="#000000" font-family="'Helvetica Neue, Helvetica, Arial, sans-serif'" font-size="12" lengthAdjust="spacing" textLength="483.7324" x="1455.9683" y="471.6206">LLM-Based Agents Cannot Effectively Use Unstructured Architectural Knowledge</text></g><!--entity ASS_a6vxyj--><g class="entity" data-qualified-name="Assessments.ASS_a6vxyj" data-source-line="136" id="ent0012"><rect fill="#EDD6F0" height="42.1538" rx="2" ry="2" style="stroke:#7B3F9A;stroke-width:0.5;" width="502.2671" x="1450" y="564.2969"/><path d="M1463.4615,578.4507 L1478.6923,578.4507 A1.3846,1.3846 0 0 1 1480.0769,579.8353 L1480.0769,588.143 A1.3846,1.3846 0 0 1 1478.6923,589.5276 L1468.3077,589.5276 L1465.5385,593.6815 L1466.9231,589.5276 L1463.4615,589.5276 A1.3846,1.3846 0 0 1 1462.0769,588.143 L1462.0769,579.8353 A1.3846,1.3846 0 0 1 1463.4615,578.4507" fill="#252327" style="stroke:none;stroke-width:0.5;"/><text fill="#000000" font-family="'Helvetica Neue, Helvetica, Arial, sans-serif'" font-size="12" lengthAdjust="spacing" textLength="456.2988" x="1485.9683" y="593.6206">Centralized Governance Cannot Scale to Concurrent Development Contexts</text></g><!--entity GOL_FCfDuc--><g class="entity" data-qualified-name="Goals.GOL_FCfDuc" data-source-line="143" id="ent0017"><rect fill="#EDD6F0" height="42.1538" rx="2" ry="2" style="stroke:#7B3F9A;stroke-width:0.5;" width="427.7652" x="1487" y="686.2969"/><ellipse cx="1508.0769" cy="707.3738" fill="none" rx="6.6462" ry="6.6462" style="stroke:#252327;stroke-width:1.8;"/><ellipse cx="1508.0769" cy="707.3738" fill="none" rx="4.0154" ry="4.0154" style="stroke:#252327;stroke-width:1.8;"/><ellipse cx="1508.0769" cy="707.3738" fill="#252327" rx="1.8" ry="1.8" style="stroke:none;stroke-width:1.8;"/><text fill="#000000" font-family="'Helvetica Neue, Helvetica, Arial, sans-serif'" font-size="12" lengthAdjust="spacing" textLength="381.7969" x="1522.9683" y="715.6206">Achieve Unity of Effort Across Autonomous, Agentic SDLC Work</text></g><!--entity GOL_5Fk9di--><g class="entity" data-qualified-name="Goals.GOL_5Fk9di" data-source-line="144" id="ent0018"><rect fill="#EDD6F0" height="42.1538" rx="2" ry="2" style="stroke:#7B3F9A;stroke-width:0.5;" width="434.4917" x="1081" y="808.2969"/><ellipse cx="1102.0769" cy="829.3738" fill="none" rx="6.6462" ry="6.6462" style="stroke:#252327;stroke-width:1.8;"/><ellipse cx="1102.0769" cy="829.3738" fill="none" rx="4.0154" ry="4.0154" style="stroke:#252327;stroke-width:1.8;"/><ellipse cx="1102.0769" cy="829.3738" fill="#252327" rx="1.8" ry="1.8" style="stroke:none;stroke-width:1.8;"/><text fill="#000000" font-family="'Helvetica Neue, Helvetica, Arial, sans-serif'" font-size="12" lengthAdjust="spacing" textLength="388.5234" x="1116.9683" y="837.6206">Speed Up Architectural Planning &amp; Governance for Agentic Work</text></g><!--entity GOL_Xwvgpb--><g class="entity" data-qualified-name="Goals.GOL_Xwvgpb" data-source-line="145" id="ent0019"><rect fill="#EDD6F0" height="42.1538" rx="2" ry="2" style="stroke:#7B3F9A;stroke-width:0.5;" width="402.2593" x="1575" y="808.2969"/><ellipse cx="1596.0769" cy="829.3738" fill="none" rx="6.6462" ry="6.6462" style="stroke:#252327;stroke-width:1.8;"/><ellipse cx="1596.0769" cy="829.3738" fill="none" rx="4.0154" ry="4.0154" style="stroke:#252327;stroke-width:1.8;"/><ellipse cx="1596.0769" cy="829.3738" fill="#252327" rx="1.8" ry="1.8" style="stroke:none;stroke-width:1.8;"/><text fill="#000000" font-family="'Helvetica Neue, Helvetica, Arial, sans-serif'" font-size="12" lengthAdjust="spacing" textLength="356.291" x="1610.9683" y="837.6206">Enable Fast Feedback from Implementation to Architecture</text></g><!--entity GOL_Po1Qw3--><g class="entity" data-qualified-name="Goals.GOL_Po1Qw3" data-source-line="146" id="ent0020"><rect fill="#EDD6F0" height="42.1538" rx="2" ry="2" style="stroke:#7B3F9A;stroke-width:0.5;" width="266.6206" x="753.5" y="808.2969"/><ellipse cx="774.5769" cy="829.3738" fill="none" rx="6.6462" ry="6.6462" style="stroke:#252327;stroke-width:1.8;"/><ellipse cx="774.5769" cy="829.3738" fill="none" rx="4.0154" ry="4.0154" style="stroke:#252327;stroke-width:1.8;"/><ellipse cx="774.5769" cy="829.3738" fill="#252327" rx="1.8" ry="1.8" style="stroke:none;stroke-width:1.8;"/><text fill="#000000" font-family="'Helvetica Neue, Helvetica, Arial, sans-serif'" font-size="12" lengthAdjust="spacing" textLength="220.6523" x="789.4683" y="837.6206">Maintain Coherence and Traceability</text></g><!--entity OUT_AlZjX8--><g class="entity" data-qualified-name="Outcomes.OUT_AlZjX8" data-source-line="153" id="ent0025"><rect fill="#EDD6F0" height="42.1538" rx="2" ry="2" style="stroke:#7B3F9A;stroke-width:0.5;" width="306.2417" x="1123" y="930.2969"/><ellipse cx="1143.2462" cy="952.2046" fill="none" rx="5.9538" ry="5.9538" style="stroke:#252327;stroke-width:1.8;"/><ellipse cx="1143.2462" cy="952.2046" fill="none" rx="3.0462" ry="3.0462" style="stroke:#252327;stroke-width:1.8;"/><path d="M1147.0954,949.8923 L1146.0431,948.4246 L1150.3354,945.3784 L1151.3877,946.8461" fill="#252327"/><path d="M1147.1231,950.3353 L1150.5846,950.3353 L1150.5846,952.1353 L1147.1231,952.1353" fill="#252327"/><ellipse cx="1143.2462" cy="952.2046" fill="#252327" rx="1.2462" ry="1.2462" style="stroke:none;stroke-width:1.8;"/><text fill="#000000" font-family="'Helvetica Neue, Helvetica, Arial, sans-serif'" font-size="12" lengthAdjust="spacing" textLength="260.2734" x="1158.9683" y="959.6206">Reduced Planning &amp; Governance Overhead</text></g><!--entity OUT_JZMIk3--><g class="entity" data-qualified-name="Outcomes.OUT_JZMIk3" data-source-line="154" id="ent0026"><rect fill="#EDD6F0" height="42.1538" rx="2" ry="2" style="stroke:#7B3F9A;stroke-width:0.5;" width="394.7007" x="1123.5" y="1052.2969"/><ellipse cx="1143.7462" cy="1074.2046" fill="none" rx="5.9538" ry="5.9538" style="stroke:#252327;stroke-width:1.8;"/><ellipse cx="1143.7462" cy="1074.2046" fill="none" rx="3.0462" ry="3.0462" style="stroke:#252327;stroke-width:1.8;"/><path d="M1147.5954,1071.8923 L1146.5431,1070.4246 L1150.8354,1067.3784 L1151.8877,1068.8461" fill="#252327"/><path d="M1147.6231,1072.3353 L1151.0846,1072.3353 L1151.0846,1074.1353 L1147.6231,1074.1353" fill="#252327"/><ellipse cx="1143.7462" cy="1074.2046" fill="#252327" rx="1.2462" ry="1.2462" style="stroke:none;stroke-width:1.8;"/><text fill="#000000" font-family="'Helvetica Neue, Helvetica, Arial, sans-serif'" font-size="12" lengthAdjust="spacing" textLength="348.7324" x="1159.4683" y="1081.6206">AI Agents Efficiently Discover &amp; Edit Architecture Artifacts</text></g><!--entity OUT_g7PM4Y--><g class="entity" data-qualified-name="Outcomes.OUT_g7PM4Y" data-source-line="155" id="ent0027"><rect fill="#EDD6F0" height="42.1538" rx="2" ry="2" style="stroke:#7B3F9A;stroke-width:0.5;" width="397.1441" x="1139.5" y="1174.2969"/><ellipse cx="1159.7462" cy="1196.2046" fill="none" rx="5.9538" ry="5.9538" style="stroke:#252327;stroke-width:1.8;"/><ellipse cx="1159.7462" cy="1196.2046" fill="none" rx="3.0462" ry="3.0462" style="stroke:#252327;stroke-width:1.8;"/><path d="M1163.5954,1193.8923 L1162.5431,1192.4246 L1166.8354,1189.3784 L1167.8877,1190.8461" fill="#252327"/><path d="M1163.6231,1194.3353 L1167.0846,1194.3353 L1167.0846,1196.1353 L1163.6231,1196.1353" fill="#252327"/><ellipse cx="1159.7462" cy="1196.2046" fill="#252327" rx="1.2462" ry="1.2462" style="stroke:none;stroke-width:1.8;"/><text fill="#000000" font-family="'Helvetica Neue, Helvetica, Arial, sans-serif'" font-size="12" lengthAdjust="spacing" textLength="351.1758" x="1175.4683" y="1203.6206">Implementation Changes Fed Back, Reviewed &amp; Promoted</text></g><!--entity OUT_aOcRl9--><g class="entity" data-qualified-name="Outcomes.OUT_aOcRl9" data-source-line="156" id="ent0028"><rect fill="#EDD6F0" height="42.1538" rx="2" ry="2" style="stroke:#7B3F9A;stroke-width:0.5;" width="429.2359" x="1123.5" y="1296.2969"/><ellipse cx="1143.7462" cy="1318.2046" fill="none" rx="5.9538" ry="5.9538" style="stroke:#252327;stroke-width:1.8;"/><ellipse cx="1143.7462" cy="1318.2046" fill="none" rx="3.0462" ry="3.0462" style="stroke:#252327;stroke-width:1.8;"/><path d="M1147.5954,1315.8923 L1146.5431,1314.4246 L1150.8354,1311.3784 L1151.8877,1312.8461" fill="#252327"/><path d="M1147.6231,1316.3353 L1151.0846,1316.3353 L1151.0846,1318.1353 L1147.6231,1318.1353" fill="#252327"/><ellipse cx="1143.7462" cy="1318.2046" fill="#252327" rx="1.2462" ry="1.2462" style="stroke:none;stroke-width:1.8;"/><text fill="#000000" font-family="'Helvetica Neue, Helvetica, Arial, sans-serif'" font-size="12" lengthAdjust="spacing" textLength="383.2676" x="1159.4683" y="1325.6206">Architecture Governance Scales Without Proportional Overhead</text></g><!--entity OUT_LrpdG0--><g class="entity" data-qualified-name="Outcomes.OUT_LrpdG0" data-source-line="157" id="ent0029"><rect fill="#EDD6F0" height="42.1538" rx="2" ry="2" style="stroke:#7B3F9A;stroke-width:0.5;" width="254.1695" x="1123" y="1418.2969"/><ellipse cx="1143.2462" cy="1440.2046" fill="none" rx="5.9538" ry="5.9538" style="stroke:#252327;stroke-width:1.8;"/><ellipse cx="1143.2462" cy="1440.2046" fill="none" rx="3.0462" ry="3.0462" style="stroke:#252327;stroke-width:1.8;"/><path d="M1147.0954,1437.8923 L1146.0431,1436.4246 L1150.3354,1433.3784 L1151.3877,1434.8461" fill="#252327"/><path d="M1147.1231,1438.3353 L1150.5846,1438.3353 L1150.5846,1440.1353 L1147.1231,1440.1353" fill="#252327"/><ellipse cx="1143.2462" cy="1440.2046" fill="#252327" rx="1.2462" ry="1.2462" style="stroke:none;stroke-width:1.8;"/><text fill="#000000" font-family="'Helvetica Neue, Helvetica, Arial, sans-serif'" font-size="12" lengthAdjust="spacing" textLength="208.2012" x="1158.9683" y="1447.6206">Increased Architectural Coherence</text></g><!--entity REQ_peinbQ--><g class="entity" data-qualified-name="Requirements.REQ_peinbQ" data-source-line="165" id="ent0035"><rect fill="#EDD6F0" height="42.1538" rx="2" ry="2" style="stroke:#7B3F9A;stroke-width:0.5;" width="233.6617" x="549" y="1540.2969"/><path d="M565.0923,1556.1123 L576.1692,1556.1123 L573.9538,1566.6353 L562.8769,1566.6353" fill="#252327" style="stroke:none;stroke-width:0.5;"/><text fill="#000000" font-family="'Helvetica Neue, Helvetica, Arial, sans-serif'" font-size="12" lengthAdjust="spacing" textLength="187.6934" x="584.9683" y="1569.6206">Tool Interfaces: MCP, CLI, REST</text></g><!--entity REQ_m117_R--><g class="entity" data-qualified-name="Requirements.REQ_m117_R" data-source-line="166" id="ent0036"><rect fill="#EDD6F0" height="42.1538" rx="2" ry="2" style="stroke:#7B3F9A;stroke-width:0.5;" width="211.6128" x="843" y="1540.2969"/><path d="M859.0923,1556.1123 L870.1692,1556.1123 L867.9538,1566.6353 L856.8769,1566.6353" fill="#252327" style="stroke:none;stroke-width:0.5;"/><text fill="#000000" font-family="'Helvetica Neue, Helvetica, Arial, sans-serif'" font-size="12" lengthAdjust="spacing" textLength="165.6445" x="878.9683" y="1569.6206">Write Access Only via Tools</text></g><!--entity REQ_Cc2Dd2--><g class="entity" data-qualified-name="Requirements.REQ_Cc2Dd2" data-source-line="167" id="ent0037"><rect fill="#EDD6F0" height="42.1538" rx="2" ry="2" style="stroke:#7B3F9A;stroke-width:0.5;" width="203.398" x="22.5" y="1540.2969"/><path d="M38.5923,1556.1123 L49.6692,1556.1123 L47.4538,1566.6353 L36.3769,1566.6353" fill="#252327" style="stroke:none;stroke-width:0.5;"/><text fill="#000000" font-family="'Helvetica Neue, Helvetica, Arial, sans-serif'" font-size="12" lengthAdjust="spacing" textLength="157.4297" x="58.4683" y="1569.6206">Semantic Full-Text Search</text></g><!--entity REQ_eBAa26--><g class="entity" data-qualified-name="Requirements.REQ_eBAa26" data-source-line="168" id="ent0038"><rect fill="#EDD6F0" height="42.1538" rx="2" ry="2" style="stroke:#7B3F9A;stroke-width:0.5;" width="265.062" x="1115.5" y="1540.2969"/><path d="M1131.5923,1556.1123 L1142.6692,1556.1123 L1140.4538,1566.6353 L1129.3769,1566.6353" fill="#252327" style="stroke:none;stroke-width:0.5;"/><text fill="#000000" font-family="'Helvetica Neue, Helvetica, Arial, sans-serif'" font-size="12" lengthAdjust="spacing" textLength="219.0938" x="1151.4683" y="1569.6206">Graph-Based Relationship Discovery</text></g><!--entity REQ_s5B3gB--><g class="entity" data-qualified-name="Requirements.REQ_s5B3gB" data-source-line="169" id="ent0039"><rect fill="#EDD6F0" height="42.1538" rx="2" ry="2" style="stroke:#7B3F9A;stroke-width:0.5;" width="202.8003" x="285.5" y="1540.2969"/><path d="M301.5923,1556.1123 L312.6692,1556.1123 L310.4538,1566.6353 L299.3769,1566.6353" fill="#252327" style="stroke:none;stroke-width:0.5;"/><text fill="#000000" font-family="'Helvetica Neue, Helvetica, Arial, sans-serif'" font-size="12" lengthAdjust="spacing" textLength="156.832" x="321.4683" y="1569.6206">Metadata-Based Querying</text></g><!--link DRV_GR9prv to DRV_Rt6Yu2--><!--link DRV_Rt6Yu2 to DRV_Ui5Op3--><!--link ASS_CK90bp to ASS_EI3FpR--><!--link ASS_EI3FpR to ASS_s68vVo--><!--link ASS_s68vVo to ASS_a6vxyj--><!--link GOL_FCfDuc to GOL_5Fk9di--><!--link GOL_FCfDuc to GOL_5Fk9di--><g class="link" data-entity-1="ent0017" data-entity-2="ent0018" data-link-type="association" data-source-line="195" id="lnk60"><path d="M1505.67,728.5469 C1505.67,750.9369 1505.67,785.9869 1505.67,808.2869" fill="none" id="GOL_FCfDuc-GOL_5Fk9di-1" style="stroke:#181818;stroke-width:1;"/></g><!--link GOL_5Fk9di to GOL_Xwvgpb--><!--link GOL_Xwvgpb to GOL_Po1Qw3--><!--link OUT_AlZjX8 to OUT_JZMIk3--><!--link OUT_JZMIk3 to OUT_g7PM4Y--><!--link OUT_g7PM4Y to OUT_aOcRl9--><!--link OUT_aOcRl9 to OUT_LrpdG0--><!--link REQ_peinbQ to REQ_m117_R--><!--link REQ_m117_R to REQ_Cc2Dd2--><!--link REQ_Cc2Dd2 to REQ_eBAa26--><!--link REQ_eBAa26 to REQ_s5B3gB--><!--link DRV_Ui5Op3 to ASS_CK90bp--><!--link DRV_Ui5Op3 to ASS_CK90bp--><g class="link" data-entity-1="ent0005" data-entity-2="ent0009" data-link-type="dependency" data-source-line="183" id="lnk50"><path d="M1714.33,118.5469 C1714.33,140.9369 1714.33,169.9869 1714.33,192.2869" fill="none" id="DRV_Ui5Op3-to-ASS_CK90bp" style="stroke:#181818;stroke-width:1;stroke-dasharray:7,7;"/><polygon fill="#181818" points="1714.33,198.2869,1718.33,189.2869,1714.33,193.2869,1710.33,189.2869,1714.33,198.2869" style="stroke:#181818;stroke-width:1;"/></g><!--link ASS_a6vxyj to GOL_FCfDuc--><!--link ASS_a6vxyj to GOL_FCfDuc--><g class="link" data-entity-1="ent0012" data-entity-2="ent0017" data-link-type="association" data-source-line="193" id="lnk59"><path d="M1772.33,606.5469 C1772.33,628.9369 1772.33,663.9869 1772.33,686.2869" fill="none" id="ASS_a6vxyj-GOL_FCfDuc-1" style="stroke:#181818;stroke-width:1;"/></g><!--link GOL_Po1Qw3 to OUT_AlZjX8--><!--link OUT_LrpdG0 to REQ_peinbQ--><!--link DRV_GR9prv to ASS_CK90bp--><g class="link" data-entity-1="ent0003" data-entity-2="ent0009" data-link-type="dependency" data-source-line="181" id="lnk48"><path d="M1897.75,118.5469 C1897.75,140.9369 1897.75,169.9869 1897.75,192.2869" fill="none" id="DRV_GR9prv-to-ASS_CK90bp" style="stroke:#181818;stroke-width:1;stroke-dasharray:7,7;"/><polygon fill="#181818" points="1897.75,198.2869,1901.75,189.2869,1897.75,193.2869,1893.75,189.2869,1897.75,198.2869" style="stroke:#181818;stroke-width:1;"/></g><!--link DRV_Rt6Yu2 to ASS_CK90bp--><g class="link" data-entity-1="ent0004" data-entity-2="ent0009" data-link-type="dependency" data-source-line="182" id="lnk49"><path d="M2384.83,118.3869 C2384.83,151.5869 2384.83,212.2969 2384.83,212.2969 C2384.83,212.2969 2141.07,212.2969 1958.38,212.2969" fill="none" id="DRV_Rt6Yu2-to-ASS_CK90bp" style="stroke:#181818;stroke-width:1;stroke-dasharray:7,7;"/><polygon fill="#181818" points="1952.38,212.2969,1961.38,216.2969,1957.38,212.2969,1961.38,208.2969,1952.38,212.2969" style="stroke:#181818;stroke-width:1;"/></g><!--link DRV_GR9prv to ASS_EI3FpR--><g class="link" data-entity-1="ent0003" data-entity-2="ent0010" data-link-type="dependency" data-source-line="184" id="lnk51"><path d="M1964.5,118.3269 C1964.5,176.3269 1964.5,334.2969 1964.5,334.2969 C1964.5,334.2969 1966.09,334.2969 1958.36,334.2969" fill="none" id="DRV_GR9prv-to-ASS_EI3FpR" style="stroke:#181818;stroke-width:1;stroke-dasharray:7,7;"/><polygon fill="#181818" points="1952.36,334.2969,1961.36,338.2969,1957.36,334.2969,1961.36,330.2969,1952.36,334.2969" style="stroke:#181818;stroke-width:1;"/></g><!--link DRV_GR9prv to ASS_s68vVo--><g class="link" data-entity-1="ent0003" data-entity-2="ent0011" data-link-type="dependency" data-source-line="185" id="lnk52"><path d="M1968.67,118.5569 C1968.67,196.6669 1968.67,463.2969 1968.67,463.2969 C1968.67,463.2969 1967.74,463.2969 1956.05,463.2969" fill="none" id="DRV_GR9prv-to-ASS_s68vVo" style="stroke:#181818;stroke-width:1;stroke-dasharray:7,7;"/><polygon fill="#181818" points="1950.05,463.2969,1959.05,467.2969,1955.05,463.2969,1959.05,459.2969,1950.05,463.2969" style="stroke:#181818;stroke-width:1;"/></g><!--link DRV_GR9prv to ASS_a6vxyj--><g class="link" data-entity-1="ent0003" data-entity-2="ent0012" data-link-type="dependency" data-source-line="186" id="lnk53"><path d="M1972.83,118.5869 C1972.83,211.6769 1972.83,578.2969 1972.83,578.2969 C1972.83,578.2969 1971.16,578.2969 1958.4,578.2969" fill="none" id="DRV_GR9prv-to-ASS_a6vxyj" style="stroke:#181818;stroke-width:1;stroke-dasharray:7,7;"/><polygon fill="#181818" points="1952.4,578.2969,1961.4,582.2969,1957.4,578.2969,1961.4,574.2969,1952.4,578.2969" style="stroke:#181818;stroke-width:1;"/></g><!--link DRV_Rt6Yu2 to ASS_a6vxyj--><g class="link" data-entity-1="ent0004" data-entity-2="ent0012" data-link-type="dependency" data-source-line="187" id="lnk54"><path d="M2485.17,118.5669 C2485.17,213.3169 2485.17,592.2969 2485.17,592.2969 C2485.17,592.2969 2187.48,592.2969 1958.08,592.2969" fill="none" id="DRV_Rt6Yu2-to-ASS_a6vxyj" style="stroke:#181818;stroke-width:1;stroke-dasharray:7,7;"/><polygon fill="#181818" points="1952.08,592.2969,1961.08,596.2969,1957.08,592.2969,1961.08,588.2969,1952.08,592.2969" style="stroke:#181818;stroke-width:1;"/></g><!--link ASS_CK90bp to GOL_FCfDuc--><g class="link" data-entity-1="ent0009" data-entity-2="ent0017" data-link-type="association" data-source-line="189" id="lnk55"><path d="M1952.39,226.2969 C1957.45,226.2969 1960.33,226.2969 1960.33,226.2969 C1960.33,226.2969 1960.33,707.2969 1960.33,707.2969 C1960.33,707.2969 1942.04,707.2969 1915.16,707.2969" fill="none" id="ASS_CK90bp-GOL_FCfDuc" style="stroke:#181818;stroke-width:1;"/></g><!--link ASS_EI3FpR to GOL_5Fk9di--><g class="link" data-entity-1="ent0010" data-entity-2="ent0018" data-link-type="association" data-source-line="190" id="lnk56"><path d="M1416,362.5769 C1416,443.0269 1416,728.0069 1416,808.1769" fill="none" id="ASS_EI3FpR-GOL_5Fk9di" style="stroke:#181818;stroke-width:1;"/></g><!--link ASS_EI3FpR to GOL_Xwvgpb--><g class="link" data-entity-1="ent0010" data-entity-2="ent0019" data-link-type="association" data-source-line="191" id="lnk57"><path d="M1952.29,348.2969 C1954.81,348.2969 1956.17,348.2969 1956.17,348.2969 C1956.17,348.2969 1956.17,714.9169 1956.17,808.0069" fill="none" id="ASS_EI3FpR-GOL_Xwvgpb" style="stroke:#181818;stroke-width:1;"/></g><!--link ASS_s68vVo to GOL_5Fk9di--><g class="link" data-entity-1="ent0011" data-entity-2="ent0018" data-link-type="association" data-source-line="192" id="lnk58"><path d="M1435,484.5569 C1435,549.2469 1435,743.2169 1435,807.9769" fill="none" id="ASS_s68vVo-GOL_5Fk9di" style="stroke:#181818;stroke-width:1;"/></g><!--link GOL_FCfDuc to GOL_Xwvgpb--><g class="link" data-entity-1="ent0017" data-entity-2="ent0019" data-link-type="association" data-source-line="196" id="lnk61"><path d="M1745,728.5469 C1745,750.9369 1745,785.9869 1745,808.2869" fill="none" id="GOL_FCfDuc-GOL_Xwvgpb" style="stroke:#181818;stroke-width:1;"/></g><!--link GOL_Po1Qw3 to GOL_FCfDuc--><g class="link" data-entity-1="ent0020" data-entity-2="ent0017" data-link-type="association" data-source-line="197" id="lnk62"><path d="M887,808.0469 C887,773.0969 887,707.2969 887,707.2969 C887,707.2969 1245.69,707.2969 1486.87,707.2969" fill="none" id="GOL_Po1Qw3-GOL_FCfDuc" style="stroke:#181818;stroke-width:1;"/></g><!--reverse link GOL_5Fk9di to OUT_AlZjX8--><g class="link" data-entity-1="ent0018" data-entity-2="ent0025" data-link-type="extension" data-source-line="199" id="lnk64"><path d="M1276,868.5469 C1276,890.9369 1276,907.9869 1276,930.2869" fill="none" id="GOL_5Fk9di-backto-OUT_AlZjX8" style="stroke:#181818;stroke-width:1;"/><polygon fill="none" points="1276,850.5469,1270,868.5469,1282,868.5469,1276,850.5469" style="stroke:#181818;stroke-width:1;"/></g><!--reverse link GOL_5Fk9di to OUT_JZMIk3--><g class="link" data-entity-1="ent0018" data-entity-2="ent0026" data-link-type="extension" data-source-line="200" id="lnk66"><path d="M1472,868.5269 C1472,914.7869 1472,1006.2369 1472,1052.2969" fill="none" id="GOL_5Fk9di-backto-OUT_JZMIk3" style="stroke:#181818;stroke-width:1;"/><polygon fill="none" points="1472,850.5269,1466,868.5269,1478,868.5269,1472,850.5269" style="stroke:#181818;stroke-width:1;"/></g><!--reverse link GOL_Xwvgpb to OUT_g7PM4Y--><g class="link" data-entity-1="ent0019" data-entity-2="ent0027" data-link-type="extension" data-source-line="201" id="lnk68"><path d="M1556.83,836.2969 C1528.88,836.2969 1527.5,836.2969 1527.5,836.2969 C1527.5,836.2969 1527.5,1097.2269 1527.5,1174.1769" fill="none" id="GOL_Xwvgpb-backto-OUT_g7PM4Y" style="stroke:#181818;stroke-width:1;"/><polygon fill="none" points="1574.83,836.2969,1556.83,830.2969,1556.83,842.2969,1574.83,836.2969" style="stroke:#181818;stroke-width:1;"/></g><!--reverse link GOL_FCfDuc to OUT_aOcRl9--><g class="link" data-entity-1="ent0017" data-entity-2="ent0028" data-link-type="extension" data-source-line="202" id="lnk70"><path d="M1544.5,746.6469 C1544.5,841.0169 1544.5,1202.1069 1544.5,1296.1169" fill="none" id="GOL_FCfDuc-backto-OUT_aOcRl9" style="stroke:#181818;stroke-width:1;"/><polygon fill="none" points="1544.5,728.6469,1538.5,746.6469,1550.5,746.6469,1544.5,728.6469" style="stroke:#181818;stroke-width:1;"/></g><!--reverse link GOL_Po1Qw3 to OUT_LrpdG0--><g class="link" data-entity-1="ent0020" data-entity-2="ent0029" data-link-type="extension" data-source-line="203" id="lnk72"><path d="M931.75,868.4069 C931.75,975.1269 931.75,1432.2969 931.75,1432.2969 C931.75,1432.2969 1034.2,1432.2969 1122.85,1432.2969" fill="none" id="GOL_Po1Qw3-backto-OUT_LrpdG0" style="stroke:#181818;stroke-width:1;"/><polygon fill="none" points="931.75,850.4069,925.75,868.4069,937.75,868.4069,931.75,850.4069" style="stroke:#181818;stroke-width:1;"/></g><!--reverse link OUT_AlZjX8 to REQ_peinbQ--><g class="link" data-entity-1="ent0025" data-entity-2="ent0035" data-link-type="extension" data-source-line="205" id="lnk74"><path d="M1104.84,958.2969 C953,958.2969 760.88,958.2969 760.88,958.2969 C760.88,958.2969 760.88,1433.4669 760.88,1540.1869" fill="none" id="OUT_AlZjX8-backto-REQ_peinbQ" style="stroke:#181818;stroke-width:1;"/><polygon fill="none" points="1122.84,958.2969,1104.84,952.2969,1104.84,964.2969,1122.84,958.2969" style="stroke:#181818;stroke-width:1;"/></g><!--reverse link OUT_JZMIk3 to REQ_peinbQ--><g class="link" data-entity-1="ent0026" data-entity-2="ent0035" data-link-type="extension" data-source-line="206" id="lnk76"><path d="M1105.4,1073.2969 C946.72,1073.2969 768.25,1073.2969 768.25,1073.2969 C768.25,1073.2969 768.25,1446.0869 768.25,1540.0169" fill="none" id="OUT_JZMIk3-backto-REQ_peinbQ" style="stroke:#181818;stroke-width:1;"/><polygon fill="none" points="1123.4,1073.2969,1105.4,1067.2969,1105.4,1079.2969,1123.4,1073.2969" style="stroke:#181818;stroke-width:1;"/></g><!--reverse link OUT_JZMIk3 to REQ_m117_R--><g class="link" data-entity-1="ent0026" data-entity-2="ent0036" data-link-type="extension" data-source-line="207" id="lnk78"><path d="M1105.12,1080.2969 C1057.33,1080.2969 1037.75,1080.2969 1037.75,1080.2969 C1037.75,1080.2969 1037.75,1446.9169 1037.75,1540.0069" fill="none" id="OUT_JZMIk3-backto-REQ_m117_R" style="stroke:#181818;stroke-width:1;"/><polygon fill="none" points="1123.12,1080.2969,1105.12,1074.2969,1105.12,1086.2969,1123.12,1080.2969" style="stroke:#181818;stroke-width:1;"/></g><!--reverse link OUT_JZMIk3 to REQ_Cc2Dd2--><g class="link" data-entity-1="ent0026" data-entity-2="ent0037" data-link-type="extension" data-source-line="208" id="lnk80"><path d="M1105.25,1059.2969 C757.32,1059.2969 90.17,1059.2969 90.17,1059.2969 C90.17,1059.2969 90.17,1444.4969 90.17,1540.0469" fill="none" id="OUT_JZMIk3-backto-REQ_Cc2Dd2" style="stroke:#181818;stroke-width:1;"/><polygon fill="none" points="1123.25,1059.2969,1105.25,1053.2969,1105.25,1065.2969,1123.25,1059.2969" style="stroke:#181818;stroke-width:1;"/></g><!--reverse link OUT_JZMIk3 to REQ_eBAa26--><g class="link" data-entity-1="ent0026" data-entity-2="ent0038" data-link-type="extension" data-source-line="209" id="lnk82"><path d="M1105.46,1087.2969 C1105.46,1087.2969 1119.25,1447.7769 1119.25,1540.0069" fill="none" id="OUT_JZMIk3-backto-REQ_eBAa26" style="stroke:#181818;stroke-width:1;"/><polygon fill="none" points="1123.46,1087.2969,1105.46,1081.2969,1105.46,1093.2969,1123.46,1087.2969" style="stroke:#181818;stroke-width:1;"/></g><!--reverse link OUT_JZMIk3 to REQ_s5B3gB--><g class="link" data-entity-1="ent0026" data-entity-2="ent0039" data-link-type="extension" data-source-line="210" id="lnk84"><path d="M1105.39,1066.2969 C822.33,1066.2969 353.17,1066.2969 353.17,1066.2969 C353.17,1066.2969 353.17,1445.2769 353.17,1540.0269" fill="none" id="OUT_JZMIk3-backto-REQ_s5B3gB" style="stroke:#181818;stroke-width:1;"/><polygon fill="none" points="1123.39,1066.2969,1105.39,1060.2969,1105.39,1072.2969,1123.39,1066.2969" style="stroke:#181818;stroke-width:1;"/></g><?plantuml-src xLbjS-8u4lxEhz2nLrDxLS41cxTC9QaY13Av9PiC99dTlRgY55jWROpaasH8PdV_-xMCmI88vfp9VKib8RBwxL6hkzKo8Gq8aee8mjLpJ4eb-KXPZ0MUeO1CS1AfFcVgPpmZgFo9H7EYg8_HpoGX1sZzV80wWkBe04dCP4KIGITbkw8H_KfGpJM8CiG1Nr0sHHCSIM9G14zOu7F1Y41rO_u1-u_JbDZb4HVeXtv7_vZG8yg8NWxYGeNS830U44bYrAoQXZ1xr9FjQkblW1LaqP14urj1frDO2vl-E15yTe0KFq0HVY3HFv2UG9NAASnjo0m9ZkXNh2XdEuGSvyzzKkExk83WY8Xv8NmTARbFz-6hLFR8Z0TaebubEAJJi82axnCfTpfYQrcNR18bXFbaluYnvSHNc4qZSdnynHMTfo0l8AXYSEVfAVgZXD3PLforUht-aQPm4H2HpRRElFvHf_INNJkM4bOo8qpjqjexFs_sgyMq1eBEYNXBZLEEexVKnnFbynbvIvM2_2UXWdo7ByFtOcSMk_TqU4-7ztHuJuVtT5YgZGLL1FqT2p-aCwp8EDyUT2pdK_GqYvWyAOTAnHyF3nUBXRFm72wcXswrMZq4ZZAQKx8uuqydvIggebeJVikdnp5M8GfEobUkqq1UMAlX6ggXb4F_p9lvSmL6dvfHnKKUF7YVGC8aLchtTLEuKljQHcX2e-Ya_8FRS3stLOQK5loHd9GPPwHyU7giaPrQbhUCa-zRca-57n7amtIxZFpdz9yuATUTvXfOYcEDwWNCoe86AZmfrnnFOzsbh-QqNgLlxVgMupMGwtZLkUTKgo6Gg_Vw4VotwRujeLhLQPbIwVDUCQqNQTbGIysrrATlsahLlfJwjYtFQTHHtQat1_e3wST1qsaqKSDfrWVw0-d7lJgEd7fTBzDh3j9Ff2S6DLShhDMqnlGJfJFx5v7ofI2MuYcofL8DOv2QqgZsgabXfo3IfIoXfUjBjGxIHQUsR6fsnRkkOl-lQ6-_QRIxpj4RPuzNtbiba5tVBazczVlDdDbowXbSNJPIXthVwu0jdQxZVby9WJ2ijI6CZpmTnYw4SRkbmxm1nTffmj1pt3P4VClxLgAxEj7THWYoUQAxraJVjo8T9M-ugyOH-aRd7QGi-CCDsxe4j7N6jiDA-ty-iXIFuTgE7hXIS8aFg3xkeHChbHHLu9EyDqFT45Fs4VNrPVyyFTQabXpcAvAbqhfRGEMCfupsT7W6-_7MgVc7z754Jg04_NMAEfULZfGKMka0dPCvYNYSEX5BTCvdb64OtmWU92bym1qGRNdTfsc-uVtuOdWKYtaXovVC5mHBtK9t4iKPdpqZFa6t1Cya-e16pu1f9ct6XghvQ-8MCZQagQ4kdyKHUQBg6M4M00IuGGGa9YpGRs1ijkveuphseCNALuag_uBh1qZyM-WtGnKJKpwqScNQpEtih1krLsrftkTjRklAerYXpXIer4VtiBc-Nlfj28vNX4bqn_GpUBqtcS2TGmFOwEl12PtHQDpzwQZw41S7SGaEXtlQ1O6xq3BOxtcKGF6zJbICVGBQjGu5MXC11znDX1dJ-wGtPqXqWg8k1av0kGjRxzBhnyF2s0Q3gyePbX3rgNias66CA-q8dQcG2C_eJXBm4EHtel5frWsqFp6-Y4Wm9RkWoMPxViyBG-l2XD1lLS7Y1OTeX2JqoGhWI7Fg0j7bp4-4qCbg9YvCA_Aq32ORADoSFpt_3W6TRsmUgd2bPHNJhVdGnfGjC1_Qc3A3PinVG3VpgcZNRT1cY0455lyoa65US2bNQS0JUR1EWz7ve8k-SF6e0MItG_3DnVLWtEzEpXE_WFbHJ62Jxk9TSVp1t400jWPXjz_eFnu5j83z7iCFmDJ7Kg4-GD7l69QlZIzreTCxlymxY1S38jas_SjYFeqV2fY-WbDBmHy4N4Y4BfzfrjuAo6lyGACiPJUjtF3QvuMkfhctj-gauOXyQENACET3ArTcquo_wsKF-AeGpFh7pTE5mFa8WM3VzsiOXGG7sbh-zW0ySdrtE-v4l_t-IxkOEQYhMT62QAS-XI5KgtCgVMqKZFS2gZRs6nuKdM1_MHQsGFppjwlBHwyOY1S11bqCcq91xuCRzDkBWwn-m-C7tK3CE7GOLkFJrirL_TU27Z3NPhWwBOuIVQ4g135jDuPg0FWWAVTk0xxsXz5HGGyi6vYjSs6T45PB0n475rL8WNptNrPDOqloeOqfSrq-j35bIyk7DgOCbPaaPWFwcaGnMl8Djzro7Yqxhubk0JwYg-xD0UeEBY5aUgDRRMhpXHWuRjZxF8u9PG-VYzlxajuLbb_BeMi6cJAdE4KXTzgQrMgjyR2uhH6PuRI-zvCegjp2EGnJMcodfQxldWTkSKiN0iTXri4CIPJkYmnfl2u3ppjDahCETfl5JLuHXGEiS6RrSm9680fssf6DCszw1f6UxzvMWJQSdG-jN9cZyg6LArjRFhHoPSXAUKjkQroohZVlOLuo6Ir3Vj3OiYihydcYlMGoujkyQEZlVWqankN2GiaMOg6yq9QrTXPArizPA5aJPq6mQk_CTdB3DMOBkN6wRnEo0zti9xSaLbknOMEZdzXg8JO9HjUmsh5DNMPXJkBAdwUcFhCWMuchGfmJCuDc0Sw9cL4pD7BYgdKn4sX9DQBAJipE3pEfhCHLBbc9gnIo4fT9P27-5m00?></g></svg>