<svg xmlns="http://www.w3.org/2000/svg" xmlns:xlink="http://www.w3.org/1999/xlink" contentStyleType="text/css" data-diagram-type="DESCRIPTION" height="401px" preserveAspectRatio="none" style="width:5366px;height:401px;background:#FAFAFA;" version="1.1" viewBox="0 0 5366 401" width="5366px" zoomAndPan="magnify"><?plantuml 1.2026.3?><defs/><g><rect fill="#FAFAFA" height="401" style="stroke:none;stroke-width:1;" width="5366" x="0" y="0"/><g class="title" data-source-line="69"><text fill="#000000" font-family="'Helvetica Neue, Helvetica, Arial, sans-serif'" font-size="14" font-weight="700" lengthAdjust="spacing" textLength="415.0713" x="2471.9644" y="22.9951">What We Are Trying to Achieve &#8212; Goals &amp; Outcomes</text></g><!--cluster Goals--><g class="cluster" data-qualified-name="Goals" data-source-line="71" id="ent0002"><rect fill="#F7EEF9" height="212" rx="2" ry="2" style="stroke:#7B3F9A;stroke-width:1;" width="2635" x="1600" y="44.2969"/><text fill="#000000" font-family="'Helvetica Neue, Helvetica, Arial, sans-serif'" font-size="12" font-weight="700" lengthAdjust="spacing" textLength="37.4473" x="2898.7764" y="57.4355">Goals</text></g><!--cluster Outcomes--><g class="cluster" data-qualified-name="Outcomes" data-source-line="87" id="ent0016"><rect fill="#F7EEF9" height="90" rx="2" ry="2" style="stroke:#7B3F9A;stroke-width:1;" width="5345" x="7" y="288.2969"/><text fill="#000000" font-family="'Helvetica Neue, Helvetica, Arial, sans-serif'" font-size="12" font-weight="700" lengthAdjust="spacing" textLength="67.623" x="2645.6885" y="301.4355">Outcomes</text></g><!--entity GOL_FCfDuc--><g class="entity" data-qualified-name="Goals.GOL_FCfDuc" data-source-line="72" id="ent0003"><rect fill="#EDD6F0" height="42.1538" rx="2" ry="2" style="stroke:#7B3F9A;stroke-width:0.5;" width="427.7652" x="3168" y="76.2969"/><ellipse cx="3189.0769" cy="97.3738" fill="none" rx="6.6462" ry="6.6462" style="stroke:#252327;stroke-width:1.8;"/><ellipse cx="3189.0769" cy="97.3738" fill="none" rx="4.0154" ry="4.0154" style="stroke:#252327;stroke-width:1.8;"/><ellipse cx="3189.0769" cy="97.3738" fill="#252327" rx="1.8" ry="1.8" style="stroke:none;stroke-width:1.8;"/><text fill="#000000" font-family="'Helvetica Neue, Helvetica, Arial, sans-serif'" font-size="12" lengthAdjust="spacing" textLength="381.7969" x="3203.9683" y="105.6206">Achieve Unity of Effort Across Autonomous, Agentic SDLC Work</text></g><!--entity GOL_5Fk9di--><g class="entity" data-qualified-name="Goals.GOL_5Fk9di" data-source-line="73" id="ent0004"><rect fill="#EDD6F0" height="42.1538" rx="2" ry="2" style="stroke:#7B3F9A;stroke-width:0.5;" width="434.4917" x="3785" y="198.2969"/><ellipse cx="3806.0769" cy="219.3738" fill="none" rx="6.6462" ry="6.6462" style="stroke:#252327;stroke-width:1.8;"/><ellipse cx="3806.0769" cy="219.3738" fill="none" rx="4.0154" ry="4.0154" style="stroke:#252327;stroke-width:1.8;"/><ellipse cx="3806.0769" cy="219.3738" fill="#252327" rx="1.8" ry="1.8" style="stroke:none;stroke-width:1.8;"/><text fill="#000000" font-family="'Helvetica Neue, Helvetica, Arial, sans-serif'" font-size="12" lengthAdjust="spacing" textLength="388.5234" x="3820.9683" y="227.6206">Speed Up Architectural Planning &amp; Governance for Agentic Work</text></g><!--entity GOL_Lm2Bn2--><g class="entity" data-qualified-name="Goals.GOL_Lm2Bn2" data-source-line="74" id="ent0005"><rect fill="#EDD6F0" height="42.1538" rx="2" ry="2" style="stroke:#7B3F9A;stroke-width:0.5;" width="403.9234" x="1616" y="198.2969"/><ellipse cx="1637.0769" cy="219.3738" fill="none" rx="6.6462" ry="6.6462" style="stroke:#252327;stroke-width:1.8;"/><ellipse cx="1637.0769" cy="219.3738" fill="none" rx="4.0154" ry="4.0154" style="stroke:#252327;stroke-width:1.8;"/><ellipse cx="1637.0769" cy="219.3738" fill="#252327" rx="1.8" ry="1.8" style="stroke:none;stroke-width:1.8;"/><text fill="#000000" font-family="'Helvetica Neue, Helvetica, Arial, sans-serif'" font-size="12" lengthAdjust="spacing" textLength="357.9551" x="1651.9683" y="227.6206">Plan Collaboratively in a Unified, Staged Repository System</text></g><!--entity GOL_Gh3Jk1--><g class="entity" data-qualified-name="Goals.GOL_Gh3Jk1" data-source-line="75" id="ent0006"><rect fill="#EDD6F0" height="42.1538" rx="2" ry="2" style="stroke:#7B3F9A;stroke-width:0.5;" width="467.48" x="2080.5" y="198.2969"/><ellipse cx="2101.5769" cy="219.3738" fill="none" rx="6.6462" ry="6.6462" style="stroke:#252327;stroke-width:1.8;"/><ellipse cx="2101.5769" cy="219.3738" fill="none" rx="4.0154" ry="4.0154" style="stroke:#252327;stroke-width:1.8;"/><ellipse cx="2101.5769" cy="219.3738" fill="#252327" rx="1.8" ry="1.8" style="stroke:none;stroke-width:1.8;"/><text fill="#000000" font-family="'Helvetica Neue, Helvetica, Arial, sans-serif'" font-size="12" lengthAdjust="spacing" textLength="421.5117" x="2116.4683" y="227.6206">Provide Independent Read-Access to Architecture for Teams &amp; Agents</text></g><!--entity GOL_Xwvgpb--><g class="entity" data-qualified-name="Goals.GOL_Xwvgpb" data-source-line="76" id="ent0007"><rect fill="#EDD6F0" height="42.1538" rx="2" ry="2" style="stroke:#7B3F9A;stroke-width:0.5;" width="402.2593" x="2608" y="198.2969"/><ellipse cx="2629.0769" cy="219.3738" fill="none" rx="6.6462" ry="6.6462" style="stroke:#252327;stroke-width:1.8;"/><ellipse cx="2629.0769" cy="219.3738" fill="none" rx="4.0154" ry="4.0154" style="stroke:#252327;stroke-width:1.8;"/><ellipse cx="2629.0769" cy="219.3738" fill="#252327" rx="1.8" ry="1.8" style="stroke:none;stroke-width:1.8;"/><text fill="#000000" font-family="'Helvetica Neue, Helvetica, Arial, sans-serif'" font-size="12" lengthAdjust="spacing" textLength="356.291" x="2643.9683" y="227.6206">Enable Fast Feedback from Implementation to Architecture</text></g><!--entity GOL_Po1Qw3--><g class="entity" data-qualified-name="Goals.GOL_Po1Qw3" data-source-line="77" id="ent0008"><rect fill="#EDD6F0" height="42.1538" rx="2" ry="2" style="stroke:#7B3F9A;stroke-width:0.5;" width="266.6206" x="3070.5" y="198.2969"/><ellipse cx="3091.5769" cy="219.3738" fill="none" rx="6.6462" ry="6.6462" style="stroke:#252327;stroke-width:1.8;"/><ellipse cx="3091.5769" cy="219.3738" fill="none" rx="4.0154" ry="4.0154" style="stroke:#252327;stroke-width:1.8;"/><ellipse cx="3091.5769" cy="219.3738" fill="#252327" rx="1.8" ry="1.8" style="stroke:none;stroke-width:1.8;"/><text fill="#000000" font-family="'Helvetica Neue, Helvetica, Arial, sans-serif'" font-size="12" lengthAdjust="spacing" textLength="220.6523" x="3106.4683" y="227.6206">Maintain Coherence and Traceability</text></g><!--entity GOL_kCcPph--><g class="entity" data-qualified-name="Goals.GOL_kCcPph" data-source-line="78" id="ent0009"><rect fill="#EDD6F0" height="42.1538" rx="2" ry="2" style="stroke:#7B3F9A;stroke-width:0.5;" width="326.5738" x="3397.5" y="198.2969"/><ellipse cx="3418.5769" cy="219.3738" fill="none" rx="6.6462" ry="6.6462" style="stroke:#252327;stroke-width:1.8;"/><ellipse cx="3418.5769" cy="219.3738" fill="none" rx="4.0154" ry="4.0154" style="stroke:#252327;stroke-width:1.8;"/><ellipse cx="3418.5769" cy="219.3738" fill="#252327" rx="1.8" ry="1.8" style="stroke:none;stroke-width:1.8;"/><text fill="#000000" font-family="'Helvetica Neue, Helvetica, Arial, sans-serif'" font-size="12" lengthAdjust="spacing" textLength="280.6055" x="3433.4683" y="227.6206">Enable Cross-Engagement Architectural Reuse</text></g><!--entity OUT_AlZjX8--><g class="entity" data-qualified-name="Outcomes.OUT_AlZjX8" data-source-line="88" id="ent0017"><rect fill="#EDD6F0" height="42.1538" rx="2" ry="2" style="stroke:#7B3F9A;stroke-width:0.5;" width="306.2417" x="4085" y="320.2969"/><ellipse cx="4105.2462" cy="342.2046" fill="none" rx="5.9538" ry="5.9538" style="stroke:#252327;stroke-width:1.8;"/><ellipse cx="4105.2462" cy="342.2046" fill="none" rx="3.0462" ry="3.0462" style="stroke:#252327;stroke-width:1.8;"/><path d="M4109.0954,339.8923 L4108.0431,338.4246 L4112.3354,335.3784 L4113.3877,336.8461" fill="#252327"/><path d="M4109.1231,340.3353 L4112.5846,340.3353 L4112.5846,342.1353 L4109.1231,342.1353" fill="#252327"/><ellipse cx="4105.2462" cy="342.2046" fill="#252327" rx="1.2462" ry="1.2462" style="stroke:none;stroke-width:1.8;"/><text fill="#000000" font-family="'Helvetica Neue, Helvetica, Arial, sans-serif'" font-size="12" lengthAdjust="spacing" textLength="260.2734" x="4120.9683" y="349.6206">Reduced Planning &amp; Governance Overhead</text></g><!--entity OUT_JZMIk3--><g class="entity" data-qualified-name="Outcomes.OUT_JZMIk3" data-source-line="89" id="ent0018"><rect fill="#EDD6F0" height="42.1538" rx="2" ry="2" style="stroke:#7B3F9A;stroke-width:0.5;" width="394.7007" x="4451.5" y="320.2969"/><ellipse cx="4471.7462" cy="342.2046" fill="none" rx="5.9538" ry="5.9538" style="stroke:#252327;stroke-width:1.8;"/><ellipse cx="4471.7462" cy="342.2046" fill="none" rx="3.0462" ry="3.0462" style="stroke:#252327;stroke-width:1.8;"/><path d="M4475.5954,339.8923 L4474.5431,338.4246 L4478.8354,335.3784 L4479.8877,336.8461" fill="#252327"/><path d="M4475.6231,340.3353 L4479.0846,340.3353 L4479.0846,342.1353 L4475.6231,342.1353" fill="#252327"/><ellipse cx="4471.7462" cy="342.2046" fill="#252327" rx="1.2462" ry="1.2462" style="stroke:none;stroke-width:1.8;"/><text fill="#000000" font-family="'Helvetica Neue, Helvetica, Arial, sans-serif'" font-size="12" lengthAdjust="spacing" textLength="348.7324" x="4487.4683" y="349.6206">AI Agents Efficiently Discover &amp; Edit Architecture Artifacts</text></g><!--entity OUT_YSRwR0--><g class="entity" data-qualified-name="Outcomes.OUT_YSRwR0" data-source-line="90" id="ent0019"><rect fill="#EDD6F0" height="42.1538" rx="2" ry="2" style="stroke:#7B3F9A;stroke-width:0.5;" width="421.1968" x="23.5" y="320.2969"/><ellipse cx="43.7462" cy="342.2046" fill="none" rx="5.9538" ry="5.9538" style="stroke:#252327;stroke-width:1.8;"/><ellipse cx="43.7462" cy="342.2046" fill="none" rx="3.0462" ry="3.0462" style="stroke:#252327;stroke-width:1.8;"/><path d="M47.5954,339.8923 L46.5431,338.4246 L50.8354,335.3784 L51.8877,336.8461" fill="#252327"/><path d="M47.6231,340.3353 L51.0846,340.3353 L51.0846,342.1353 L47.6231,342.1353" fill="#252327"/><ellipse cx="43.7462" cy="342.2046" fill="#252327" rx="1.2462" ry="1.2462" style="stroke:none;stroke-width:1.8;"/><text fill="#000000" font-family="'Helvetica Neue, Helvetica, Arial, sans-serif'" font-size="12" lengthAdjust="spacing" textLength="375.2285" x="59.4683" y="349.6206">Stakeholder Concerns and Hand-Off Points Explicitly Verifiable</text></g><!--entity OUT_FXFGrO--><g class="entity" data-qualified-name="Outcomes.OUT_FXFGrO" data-source-line="91" id="ent0020"><rect fill="#EDD6F0" height="42.1538" rx="2" ry="2" style="stroke:#7B3F9A;stroke-width:0.5;" width="434.3745" x="1015" y="320.2969"/><ellipse cx="1035.2462" cy="342.2046" fill="none" rx="5.9538" ry="5.9538" style="stroke:#252327;stroke-width:1.8;"/><ellipse cx="1035.2462" cy="342.2046" fill="none" rx="3.0462" ry="3.0462" style="stroke:#252327;stroke-width:1.8;"/><path d="M1039.0954,339.8923 L1038.0431,338.4246 L1042.3354,335.3784 L1043.3877,336.8461" fill="#252327"/><path d="M1039.1231,340.3353 L1042.5846,340.3353 L1042.5846,342.1353 L1039.1231,342.1353" fill="#252327"/><ellipse cx="1035.2462" cy="342.2046" fill="#252327" rx="1.2462" ry="1.2462" style="stroke:none;stroke-width:1.8;"/><text fill="#000000" font-family="'Helvetica Neue, Helvetica, Arial, sans-serif'" font-size="12" lengthAdjust="spacing" textLength="388.4063" x="1050.9683" y="349.6206">Architectural Guidance Available Without Specialist Dependency</text></g><!--entity OUT__AzP1Q--><g class="entity" data-qualified-name="Outcomes.OUT__AzP1Q" data-source-line="92" id="ent0021"><rect fill="#EDD6F0" height="42.1538" rx="2" ry="2" style="stroke:#7B3F9A;stroke-width:0.5;" width="377.2574" x="1509.5" y="320.2969"/><ellipse cx="1529.7462" cy="342.2046" fill="none" rx="5.9538" ry="5.9538" style="stroke:#252327;stroke-width:1.8;"/><ellipse cx="1529.7462" cy="342.2046" fill="none" rx="3.0462" ry="3.0462" style="stroke:#252327;stroke-width:1.8;"/><path d="M1533.5954,339.8923 L1532.5431,338.4246 L1536.8354,335.3784 L1537.8877,336.8461" fill="#252327"/><path d="M1533.6231,340.3353 L1537.0846,340.3353 L1537.0846,342.1353 L1533.6231,342.1353" fill="#252327"/><ellipse cx="1529.7462" cy="342.2046" fill="#252327" rx="1.2462" ry="1.2462" style="stroke:none;stroke-width:1.8;"/><text fill="#000000" font-family="'Helvetica Neue, Helvetica, Arial, sans-serif'" font-size="12" lengthAdjust="spacing" textLength="331.2891" x="1545.4683" y="349.6206">AI Agents Produce Fewer Architecture-Drift Corrections</text></g><!--entity OUT_a5mNob--><g class="entity" data-qualified-name="Outcomes.OUT_a5mNob" data-source-line="93" id="ent0022"><rect fill="#EDD6F0" height="42.1538" rx="2" ry="2" style="stroke:#7B3F9A;stroke-width:0.5;" width="427.9937" x="1947" y="320.2969"/><ellipse cx="1967.2462" cy="342.2046" fill="none" rx="5.9538" ry="5.9538" style="stroke:#252327;stroke-width:1.8;"/><ellipse cx="1967.2462" cy="342.2046" fill="none" rx="3.0462" ry="3.0462" style="stroke:#252327;stroke-width:1.8;"/><path d="M1971.0954,339.8923 L1970.0431,338.4246 L1974.3354,335.3784 L1975.3877,336.8461" fill="#252327"/><path d="M1971.1231,340.3353 L1974.5846,340.3353 L1974.5846,342.1353 L1971.1231,342.1353" fill="#252327"/><ellipse cx="1967.2462" cy="342.2046" fill="#252327" rx="1.2462" ry="1.2462" style="stroke:none;stroke-width:1.8;"/><text fill="#000000" font-family="'Helvetica Neue, Helvetica, Arial, sans-serif'" font-size="12" lengthAdjust="spacing" textLength="382.0254" x="1982.9683" y="349.6206">Changes Validated Against Architecture Before Implementation</text></g><!--entity OUT_g7PM4Y--><g class="entity" data-qualified-name="Outcomes.OUT_g7PM4Y" data-source-line="94" id="ent0023"><rect fill="#EDD6F0" height="42.1538" rx="2" ry="2" style="stroke:#7B3F9A;stroke-width:0.5;" width="397.1441" x="2435.5" y="320.2969"/><ellipse cx="2455.7462" cy="342.2046" fill="none" rx="5.9538" ry="5.9538" style="stroke:#252327;stroke-width:1.8;"/><ellipse cx="2455.7462" cy="342.2046" fill="none" rx="3.0462" ry="3.0462" style="stroke:#252327;stroke-width:1.8;"/><path d="M2459.5954,339.8923 L2458.5431,338.4246 L2462.8354,335.3784 L2463.8877,336.8461" fill="#252327"/><path d="M2459.6231,340.3353 L2463.0846,340.3353 L2463.0846,342.1353 L2459.6231,342.1353" fill="#252327"/><ellipse cx="2455.7462" cy="342.2046" fill="#252327" rx="1.2462" ry="1.2462" style="stroke:none;stroke-width:1.8;"/><text fill="#000000" font-family="'Helvetica Neue, Helvetica, Arial, sans-serif'" font-size="12" lengthAdjust="spacing" textLength="351.1758" x="2471.4683" y="349.6206">Implementation Changes Fed Back, Reviewed &amp; Promoted</text></g><!--entity OUT_9jS0BB--><g class="entity" data-qualified-name="Outcomes.OUT_9jS0BB" data-source-line="95" id="ent0024"><rect fill="#EDD6F0" height="42.1538" rx="2" ry="2" style="stroke:#7B3F9A;stroke-width:0.5;" width="343.7476" x="3207" y="320.2969"/><ellipse cx="3227.2462" cy="342.2046" fill="none" rx="5.9538" ry="5.9538" style="stroke:#252327;stroke-width:1.8;"/><ellipse cx="3227.2462" cy="342.2046" fill="none" rx="3.0462" ry="3.0462" style="stroke:#252327;stroke-width:1.8;"/><path d="M3231.0954,339.8923 L3230.0431,338.4246 L3234.3354,335.3784 L3235.3877,336.8461" fill="#252327"/><path d="M3231.1231,340.3353 L3234.5846,340.3353 L3234.5846,342.1353 L3231.1231,342.1353" fill="#252327"/><ellipse cx="3227.2462" cy="342.2046" fill="#252327" rx="1.2462" ry="1.2462" style="stroke:none;stroke-width:1.8;"/><text fill="#000000" font-family="'Helvetica Neue, Helvetica, Arial, sans-serif'" font-size="12" lengthAdjust="spacing" textLength="297.7793" x="3242.9683" y="349.6206">Requirements Traceable to Realized Components</text></g><!--entity OUT_aOcRl9--><g class="entity" data-qualified-name="Outcomes.OUT_aOcRl9" data-source-line="96" id="ent0025"><rect fill="#EDD6F0" height="42.1538" rx="2" ry="2" style="stroke:#7B3F9A;stroke-width:0.5;" width="429.2359" x="4906.5" y="320.2969"/><ellipse cx="4926.7462" cy="342.2046" fill="none" rx="5.9538" ry="5.9538" style="stroke:#252327;stroke-width:1.8;"/><ellipse cx="4926.7462" cy="342.2046" fill="none" rx="3.0462" ry="3.0462" style="stroke:#252327;stroke-width:1.8;"/><path d="M4930.5954,339.8923 L4929.5431,338.4246 L4933.8354,335.3784 L4934.8877,336.8461" fill="#252327"/><path d="M4930.6231,340.3353 L4934.0846,340.3353 L4934.0846,342.1353 L4930.6231,342.1353" fill="#252327"/><ellipse cx="4926.7462" cy="342.2046" fill="#252327" rx="1.2462" ry="1.2462" style="stroke:none;stroke-width:1.8;"/><text fill="#000000" font-family="'Helvetica Neue, Helvetica, Arial, sans-serif'" font-size="12" lengthAdjust="spacing" textLength="383.2676" x="4942.4683" y="349.6206">Architecture Governance Scales Without Proportional Overhead</text></g><!--entity OUT_LrpdG0--><g class="entity" data-qualified-name="Outcomes.OUT_LrpdG0" data-source-line="97" id="ent0026"><rect fill="#EDD6F0" height="42.1538" rx="2" ry="2" style="stroke:#7B3F9A;stroke-width:0.5;" width="254.1695" x="2893" y="320.2969"/><ellipse cx="2913.2462" cy="342.2046" fill="none" rx="5.9538" ry="5.9538" style="stroke:#252327;stroke-width:1.8;"/><ellipse cx="2913.2462" cy="342.2046" fill="none" rx="3.0462" ry="3.0462" style="stroke:#252327;stroke-width:1.8;"/><path d="M2917.0954,339.8923 L2916.0431,338.4246 L2920.3354,335.3784 L2921.3877,336.8461" fill="#252327"/><path d="M2917.1231,340.3353 L2920.5846,340.3353 L2920.5846,342.1353 L2917.1231,342.1353" fill="#252327"/><ellipse cx="2913.2462" cy="342.2046" fill="#252327" rx="1.2462" ry="1.2462" style="stroke:none;stroke-width:1.8;"/><text fill="#000000" font-family="'Helvetica Neue, Helvetica, Arial, sans-serif'" font-size="12" lengthAdjust="spacing" textLength="208.2012" x="2928.9683" y="349.6206">Increased Architectural Coherence</text></g><!--entity OUT_edEkJa--><g class="entity" data-qualified-name="Outcomes.OUT_edEkJa" data-source-line="98" id="ent0027"><rect fill="#EDD6F0" height="42.1538" rx="2" ry="2" style="stroke:#7B3F9A;stroke-width:0.5;" width="414.3238" x="3611" y="320.2969"/><ellipse cx="3631.2462" cy="342.2046" fill="none" rx="5.9538" ry="5.9538" style="stroke:#252327;stroke-width:1.8;"/><ellipse cx="3631.2462" cy="342.2046" fill="none" rx="3.0462" ry="3.0462" style="stroke:#252327;stroke-width:1.8;"/><path d="M3635.0954,339.8923 L3634.0431,338.4246 L3638.3354,335.3784 L3639.3877,336.8461" fill="#252327"/><path d="M3635.1231,340.3353 L3638.5846,340.3353 L3638.5846,342.1353 L3635.1231,342.1353" fill="#252327"/><ellipse cx="3631.2462" cy="342.2046" fill="#252327" rx="1.2462" ry="1.2462" style="stroke:none;stroke-width:1.8;"/><text fill="#000000" font-family="'Helvetica Neue, Helvetica, Arial, sans-serif'" font-size="12" lengthAdjust="spacing" textLength="368.3555" x="3646.9683" y="349.6206">Proven Patterns Promoted and Adopted Across Engagements</text></g><!--entity OUT_620dTh--><g class="entity" data-qualified-name="Outcomes.OUT_620dTh" data-source-line="99" id="ent0028"><rect fill="#EDD6F0" height="42.1538" rx="2" ry="2" style="stroke:#7B3F9A;stroke-width:0.5;" width="450.441" x="505" y="320.2969"/><ellipse cx="525.2462" cy="342.2046" fill="none" rx="5.9538" ry="5.9538" style="stroke:#252327;stroke-width:1.8;"/><ellipse cx="525.2462" cy="342.2046" fill="none" rx="3.0462" ry="3.0462" style="stroke:#252327;stroke-width:1.8;"/><path d="M529.0954,339.8923 L528.0431,338.4246 L532.3354,335.3784 L533.3877,336.8461" fill="#252327"/><path d="M529.1231,340.3353 L532.5846,340.3353 L532.5846,342.1353 L529.1231,342.1353" fill="#252327"/><ellipse cx="525.2462" cy="342.2046" fill="#252327" rx="1.2462" ry="1.2462" style="stroke:none;stroke-width:1.8;"/><text fill="#000000" font-family="'Helvetica Neue, Helvetica, Arial, sans-serif'" font-size="12" lengthAdjust="spacing" textLength="404.4727" x="540.9683" y="349.6206">Engagements Plan Concurrently Against a Shared, Staged Baseline</text></g><!--link GOL_FCfDuc to GOL_5Fk9di--><!--link GOL_FCfDuc to GOL_5Fk9di--><g class="link" data-entity-1="ent0003" data-entity-2="ent0004" data-link-type="association" data-source-line="115" id="lnk41"><path d="M3596.1,108.2969 C3749.7,108.2969 3929.67,108.2969 3929.67,108.2969 C3929.67,108.2969 3929.67,165.9469 3929.67,198.1569" fill="none" id="GOL_FCfDuc-GOL_5Fk9di-1" style="stroke:#181818;stroke-width:1;"/></g><!--link GOL_5Fk9di to GOL_Lm2Bn2--><!--link GOL_Lm2Bn2 to GOL_Gh3Jk1--><!--link GOL_Gh3Jk1 to GOL_Xwvgpb--><!--link GOL_Xwvgpb to GOL_Po1Qw3--><!--link GOL_Po1Qw3 to GOL_kCcPph--><!--link OUT_AlZjX8 to OUT_JZMIk3--><!--link OUT_JZMIk3 to OUT_YSRwR0--><!--link OUT_YSRwR0 to OUT_FXFGrO--><!--link OUT_FXFGrO to OUT__AzP1Q--><!--link OUT__AzP1Q to OUT_a5mNob--><!--link OUT_a5mNob to OUT_g7PM4Y--><!--link OUT_g7PM4Y to OUT_9jS0BB--><!--link OUT_9jS0BB to OUT_aOcRl9--><!--link OUT_aOcRl9 to OUT_LrpdG0--><!--link OUT_LrpdG0 to OUT_edEkJa--><!--link OUT_edEkJa to OUT_620dTh--><!--link GOL_kCcPph to OUT_AlZjX8--><!--link GOL_FCfDuc to GOL_Lm2Bn2--><g class="link" data-entity-1="ent0003" data-entity-2="ent0005" data-link-type="association" data-source-line="116" id="lnk42"><path d="M3167.81,87.2969 C2739.47,87.2969 1818,87.2969 1818,87.2969 C1818,87.2969 1818,160.7769 1818,198.0869" fill="none" id="GOL_FCfDuc-GOL_Lm2Bn2" style="stroke:#181818;stroke-width:1;"/></g><!--link GOL_FCfDuc to GOL_Gh3Jk1--><g class="link" data-entity-1="ent0003" data-entity-2="ent0006" data-link-type="association" data-source-line="117" id="lnk43"><path d="M3167.8,97.2969 C2856.03,97.2969 2314,97.2969 2314,97.2969 C2314,97.2969 2314,163.0969 2314,198.0469" fill="none" id="GOL_FCfDuc-GOL_Gh3Jk1" style="stroke:#181818;stroke-width:1;"/></g><!--link GOL_FCfDuc to GOL_Xwvgpb--><g class="link" data-entity-1="ent0003" data-entity-2="ent0007" data-link-type="association" data-source-line="118" id="lnk44"><path d="M3167.82,108.2969 C3005.07,108.2969 2809,108.2969 2809,108.2969 C2809,108.2969 2809,165.9469 2809,198.1569" fill="none" id="GOL_FCfDuc-GOL_Xwvgpb" style="stroke:#181818;stroke-width:1;"/></g><!--link GOL_Po1Qw3 to GOL_FCfDuc--><g class="link" data-entity-1="ent0008" data-entity-2="ent0003" data-link-type="association" data-source-line="119" id="lnk45"><path d="M3252.75,198.0469 C3252.75,175.6569 3252.75,140.6069 3252.75,118.3069" fill="none" id="GOL_Po1Qw3-GOL_FCfDuc" style="stroke:#181818;stroke-width:1;"/></g><!--link GOL_kCcPph to GOL_FCfDuc--><g class="link" data-entity-1="ent0009" data-entity-2="ent0003" data-link-type="association" data-source-line="120" id="lnk46"><path d="M3496.75,198.0469 C3496.75,175.6569 3496.75,140.6069 3496.75,118.3069" fill="none" id="GOL_kCcPph-GOL_FCfDuc" style="stroke:#181818;stroke-width:1;"/></g><!--reverse link GOL_5Fk9di to OUT_AlZjX8--><g class="link" data-entity-1="ent0004" data-entity-2="ent0017" data-link-type="extension" data-source-line="122" id="lnk48"><path d="M4174.33,258.5469 C4174.33,280.9369 4174.33,297.9869 4174.33,320.2869" fill="none" id="GOL_5Fk9di-backto-OUT_AlZjX8" style="stroke:#181818;stroke-width:1;"/><polygon fill="none" points="4174.33,240.5469,4168.33,258.5469,4180.33,258.5469,4174.33,240.5469" style="stroke:#181818;stroke-width:1;"/></g><!--reverse link GOL_5Fk9di to OUT_JZMIk3--><g class="link" data-entity-1="ent0004" data-entity-2="ent0018" data-link-type="extension" data-source-line="123" id="lnk50"><path d="M4237.24,219.2969 C4425.2,219.2969 4649,219.2969 4649,219.2969 C4649,219.2969 4649,285.0969 4649,320.0469" fill="none" id="GOL_5Fk9di-backto-OUT_JZMIk3" style="stroke:#181818;stroke-width:1;"/><polygon fill="none" points="4219.24,219.2969,4237.24,225.2969,4237.24,213.2969,4219.24,219.2969" style="stroke:#181818;stroke-width:1;"/></g><!--reverse link GOL_Lm2Bn2 to OUT_YSRwR0--><g class="link" data-entity-1="ent0005" data-entity-2="ent0019" data-link-type="extension" data-source-line="124" id="lnk52"><path d="M1597.78,212.2969 C1170.75,212.2969 234,212.2969 234,212.2969 C234,212.2969 234,283.7269 234,320.2869" fill="none" id="GOL_Lm2Bn2-backto-OUT_YSRwR0" style="stroke:#181818;stroke-width:1;"/><polygon fill="none" points="1615.78,212.2969,1597.78,206.2969,1597.78,218.2969,1615.78,212.2969" style="stroke:#181818;stroke-width:1;"/></g><!--reverse link GOL_Gh3Jk1 to OUT_FXFGrO--><g class="link" data-entity-1="ent0006" data-entity-2="ent0020" data-link-type="extension" data-source-line="125" id="lnk54"><path d="M2154.12,258.4069 C2154.12,273.9169 2154.12,274.2969 2154.12,274.2969 C2154.12,274.2969 1232,274.2969 1232,274.2969 C1232,274.2969 1232,300.4669 1232,320.0969" fill="none" id="GOL_Gh3Jk1-backto-OUT_FXFGrO" style="stroke:#181818;stroke-width:1;"/><polygon fill="none" points="2154.12,240.4069,2148.12,258.4069,2160.12,258.4069,2154.12,240.4069" style="stroke:#181818;stroke-width:1;"/></g><!--reverse link GOL_Gh3Jk1 to OUT__AzP1Q--><g class="link" data-entity-1="ent0006" data-entity-2="ent0021" data-link-type="extension" data-source-line="126" id="lnk56"><path d="M2227.75,258.5769 C2227.75,282.5769 2227.75,300.2969 2227.75,300.2969 C2227.75,300.2969 1751.25,300.2969 1751.25,300.2969 C1751.25,300.2969 1751.25,309.9169 1751.25,319.8369" fill="none" id="GOL_Gh3Jk1-backto-OUT__AzP1Q" style="stroke:#181818;stroke-width:1;"/><polygon fill="none" points="2227.75,240.5769,2221.75,258.5769,2233.75,258.5769,2227.75,240.5769" style="stroke:#181818;stroke-width:1;"/></g><!--reverse link GOL_Xwvgpb to OUT_a5mNob--><g class="link" data-entity-1="ent0007" data-entity-2="ent0022" data-link-type="extension" data-source-line="127" id="lnk58"><path d="M2664.12,258.5969 C2664.12,284.6469 2664.12,307.2969 2664.12,307.2969 C2664.12,307.2969 2301.38,307.2969 2301.38,307.2969 C2301.38,307.2969 2301.38,313.1269 2301.38,319.9569" fill="none" id="GOL_Xwvgpb-backto-OUT_a5mNob" style="stroke:#181818;stroke-width:1;"/><polygon fill="none" points="2664.12,240.5969,2658.12,258.5969,2670.12,258.5969,2664.12,240.5969" style="stroke:#181818;stroke-width:1;"/></g><!--reverse link GOL_Xwvgpb to OUT_g7PM4Y--><g class="link" data-entity-1="ent0007" data-entity-2="ent0023" data-link-type="extension" data-source-line="128" id="lnk60"><path d="M2720.25,258.5469 C2720.25,280.9369 2720.25,297.9869 2720.25,320.2869" fill="none" id="GOL_Xwvgpb-backto-OUT_g7PM4Y" style="stroke:#181818;stroke-width:1;"/><polygon fill="none" points="2720.25,240.5469,2714.25,258.5469,2726.25,258.5469,2720.25,240.5469" style="stroke:#181818;stroke-width:1;"/></g><!--reverse link GOL_Po1Qw3 to OUT_9jS0BB--><g class="link" data-entity-1="ent0008" data-entity-2="ent0024" data-link-type="extension" data-source-line="129" id="lnk62"><path d="M3272.25,258.5469 C3272.25,280.9369 3272.25,297.9869 3272.25,320.2869" fill="none" id="GOL_Po1Qw3-backto-OUT_9jS0BB" style="stroke:#181818;stroke-width:1;"/><polygon fill="none" points="3272.25,240.5469,3266.25,258.5469,3278.25,258.5469,3272.25,240.5469" style="stroke:#181818;stroke-width:1;"/></g><!--reverse link GOL_FCfDuc to OUT_aOcRl9--><g class="link" data-entity-1="ent0003" data-entity-2="ent0025" data-link-type="extension" data-source-line="130" id="lnk64"><path d="M3614.05,87.2969 C4087.51,87.2969 5163.9,87.2969 5163.9,87.2969 C5163.9,87.2969 5163.9,259.0269 5163.9,320.0769" fill="none" id="GOL_FCfDuc-backto-OUT_aOcRl9" style="stroke:#181818;stroke-width:1;"/><polygon fill="none" points="3596.05,87.2969,3614.05,93.2969,3614.05,81.2969,3596.05,87.2969" style="stroke:#181818;stroke-width:1;"/></g><!--reverse link GOL_Po1Qw3 to OUT_aOcRl9--><g class="link" data-entity-1="ent0008" data-entity-2="ent0025" data-link-type="extension" data-source-line="131" id="lnk66"><path d="M3304.88,258.4669 C3304.88,258.4669 5078.1,254.2969 5078.1,254.2969 C5078.1,254.2969 5078.1,294.4869 5078.1,320.2369" fill="none" id="GOL_Po1Qw3-backto-OUT_aOcRl9" style="stroke:#181818;stroke-width:1;"/><polygon fill="none" points="3304.88,240.4669,3298.88,258.4669,3310.88,258.4669,3304.88,240.4669" style="stroke:#181818;stroke-width:1;"/></g><!--reverse link GOL_Po1Qw3 to OUT_LrpdG0--><g class="link" data-entity-1="ent0008" data-entity-2="ent0026" data-link-type="extension" data-source-line="132" id="lnk68"><path d="M3089.62,258.5469 C3089.62,280.9369 3089.62,297.9869 3089.62,320.2869" fill="none" id="GOL_Po1Qw3-backto-OUT_LrpdG0" style="stroke:#181818;stroke-width:1;"/><polygon fill="none" points="3089.62,240.5469,3083.62,258.5469,3095.62,258.5469,3089.62,240.5469" style="stroke:#181818;stroke-width:1;"/></g><!--reverse link GOL_kCcPph to OUT_edEkJa--><g class="link" data-entity-1="ent0009" data-entity-2="ent0027" data-link-type="extension" data-source-line="133" id="lnk70"><path d="M3679.1,258.5469 C3679.1,280.9369 3679.1,297.9869 3679.1,320.2869" fill="none" id="GOL_kCcPph-backto-OUT_edEkJa" style="stroke:#181818;stroke-width:1;"/><polygon fill="none" points="3679.1,240.5469,3673.1,258.5469,3685.1,258.5469,3679.1,240.5469" style="stroke:#181818;stroke-width:1;"/></g><!--link OUT_620dTh to GOL_Lm2Bn2--><g class="link" data-entity-1="ent0028" data-entity-2="ent0005" data-link-type="extension" data-source-line="134" id="lnk71"><path d="M655,320.2069 C655,287.0069 655,226.2969 655,226.2969 C655,226.2969 1264.63,226.2969 1597.75,226.2969" fill="none" id="OUT_620dTh-to-GOL_Lm2Bn2" style="stroke:#181818;stroke-width:1;stroke-dasharray:7,7;"/><polygon fill="none" points="1615.75,226.2969,1597.75,220.2969,1597.75,232.2969,1615.75,226.2969" style="stroke:#181818;stroke-width:1;"/></g><?plantuml-src xLZlJjj84F-UfvXpJzLLIapY024dWXGWeLHGQ0AbxUc45diJRsFl-jRhfA6jT0znJtXFShEEWvraGJ9ttwu2mR0pEpCxyvi_mMSUXLXHIOMQHxHIYIUCHqII43mw8acW-eAhjoIaOBscmPGgvX9uInDQXOU_gz2LZ0HLY0cFQp6LR6IP5GtPFOM6Ks36Fl74ZF4nZ4WGqm97YeHxhf2SIjWkdDyHTp9EcKSY419UzBlwg-Xwm3ZLpm4XbIyA32uy6jC8Tkj5GuHFzE5UlV8J-eftOK23sol9ncDy2n__Cf8Yh88ILGZ87GrUWJw0Mkq0prRk32W9s3rHJF17BjdsjwTktLv79IuEgPoMygyRny9bJ_bNgprnv_QCZjIpBWxOs2znqtLf73yQY8rddV9Ha53kqgUl559ENKNuEA3x--T2iMdgv0c2Ai9m7Xp0rmh0uGREMhrUlwqvGdfKPgUjmsQ_tQryDsiV2n8yfgztVBpRhvVJ9nBbYf0-KwN_ezf_LFkFQl-VL7iSIQOe_4oawxEGA7gh_OFzU3g6Bs70uuxbAnNzkhKrcytiMTCMShpbrElrBPImOChex51ywLXrg4DZ5x-jWtsNIJUWuEBndWNkFFqbEzQsZRzXn8AWOt71gOLjHee9xLWld1sdwRIM1xKPyvJViHfsqzfwN9zZj_zJVPgTgLjJiDHlrgT3SM28P9QP_ooOBNixSzVUpGBQ_BS1sD3fsCwpT4P4-U1rhFD6tMximQxTRfwrxMq7Tkozrbd3iNSSQDgxI3PjPm-sxLRpVZtQQsgSEhHiPyV7k_Kfcgc_JWzDrvvwaKR9ixEgH8Hz0kw4KjWrFAOB3nj3fQAOGeCtFb5mGt7QKRYISpsqKBgB2A1J2d__-HUSO3d5y18k5c28AvM7sWKhPLhmHCif2E-l5UdNs2K1xJJidUy73oQlELDp42FeZKOuwl1SYZY6Rg845w58OfpCOyfnHiFm-Em8ReISQ0UohaHYEBauk-qVZOuJjuJvOKIf1zSH1W9b5DvA9BQHou1mheFo4kCmfP8JxCY0ZZquORQ_qv-qFLR2lZO4sDkmnGk9SPpIO0wC0z416J7gLM6eo1Xz7D18n4m9EOVX7DUSSDFwMUWSSgUCTIccUciwvHwDAFxW2kqGhxQOMYaayhWi0d15IQXnaGOYtdJYn6--cJHAED7Zv0w5-YHMqCTiwALeCUjEmoYW8Pf90RRkpQRf3xFfEBehOVgSC5JET0Pyt1jrZWdti228IyaT2n2IcrOkHUFTh5d-WKSQqBKU7sCwzQFM83UWIMnuq-J8lOny77WvlA7s6-wwcApVfLv5QaNavQHHAaD8JXgbiXJcf54gYtPE6gMoQEMaKIfxPR75BFlESxfCDi1MiZ2WNk9Y7PbB-m8f7v6lhUMB2URWulhgjXjy-lnXhvovxcbM8RgXCPSXYPLzp69N6qNZFO-frUhgIiL6n5qKrOOJRpwTdqwQvPp0rZ6XlWXmVqA8upibZrE4lyOVjOlH22u5Itty4WNef7RnlVxCmpHYZMvy70vcWth9MAm0_IHXNXhpxfIm82sD6uQVRHAbkp5ksG73Jd2SDIHtRdIZ_w5_8Y-UcnBiUneCs6vc69bY4ch7-7g5mPBPm3GduxPxVzbuLyxyaO-2D8Rt-40FXJpq1djFl8Q2GufTbgxrFgCJP2TyA-xAER7MKfS-zT4RlO5NiKpqDeT_ljHH2WNwQJG-RbsURtyiMu9_9BY8X6aEiYQBzx2lBpusejKZ4KQus_17Yg3zULW_F7ms-cYnv8TQ9dx07husmiK3eu8OVR8Ta0jt4BHBnfsxaf9O9tsb61u6Zz7IcOoyavB5fcSwvN19b4hBVPd5jEwxdeXIv2ssgtmOcSDDlTxa3Ibdlw1pkTrmDy5oIXlW4l84XZwHXVNc48EZ_zTXz6FNgNjNUWZctNXZZ1HwP4uQfR8MbfD6gQp3vAHHAci4EMcKoYer9urIMKdbf54gAu6SD5jSO3GdZL8PldBIA9MX82UDKbcEAlaupyKyCUEruYXTsMOs5fXLHc5dMMKKrfHLHc4pMUuSjUB7WwABAumLV2LHxTj1qRKYh8pC9PfoPkPx4KGvC_E_Y1qZSmcPd9azi8WK8tC9a9oPhMD5NEJCB0fcPk7c4Yj6vX8YEJDRxWp_7innKos4gmgMzQho3m00?></g></svg>