<svg xmlns="http://www.w3.org/2000/svg" xmlns:xlink="http://www.w3.org/1999/xlink" contentStyleType="text/css" data-diagram-type="DESCRIPTION" height="1564px" preserveAspectRatio="none" style="width:1829px;height:1564px;background:#FAFAFA;" version="1.1" viewBox="0 0 1829 1564" width="1829px" zoomAndPan="magnify"><?plantuml 1.2026.3?><defs/><g><rect fill="#FAFAFA" height="1564" style="stroke:none;stroke-width:1;" width="1829" x="0" y="0"/><g class="title" data-source-line="61"><text fill="#000000" font-family="'Helvetica Neue, Helvetica, Arial, sans-serif'" font-size="14" font-weight="700" lengthAdjust="spacing" textLength="415.0713" x="703.8323" y="22.9951">What We Are Trying to Achieve &#8212; Goals &amp; Outcomes</text></g><!--entity GOL_5Fk9di--><g class="entity" data-qualified-name="GOL_5Fk9di" data-source-line="65" id="ent0002"><rect fill="#EDD6F0" height="42.1538" rx="2" ry="2" style="stroke:#7B3F9A;stroke-width:0.5;" width="434.4917" x="448" y="654.2969"/><ellipse cx="469.0769" cy="675.3738" fill="none" rx="6.6462" ry="6.6462" style="stroke:#252327;stroke-width:1.8;"/><ellipse cx="469.0769" cy="675.3738" fill="none" rx="4.0154" ry="4.0154" style="stroke:#252327;stroke-width:1.8;"/><ellipse cx="469.0769" cy="675.3738" fill="#252327" rx="1.8" ry="1.8" style="stroke:none;stroke-width:1.8;"/><text fill="#000000" font-family="'Helvetica Neue, Helvetica, Arial, sans-serif'" font-size="12" lengthAdjust="spacing" textLength="388.5234" x="483.9683" y="683.6206">Speed Up Architectural Planning &amp; Governance for Agentic Work</text></g><!--entity OUT_AlZjX8--><g class="entity" data-qualified-name="OUT_AlZjX8" data-source-line="66" id="ent0003"><rect fill="#EDD6F0" height="42.1538" rx="2" ry="2" style="stroke:#7B3F9A;stroke-width:0.5;" width="306.2417" x="296" y="776.2969"/><ellipse cx="316.2462" cy="798.2046" fill="none" rx="5.9538" ry="5.9538" style="stroke:#252327;stroke-width:1.8;"/><ellipse cx="316.2462" cy="798.2046" fill="none" rx="3.0462" ry="3.0462" style="stroke:#252327;stroke-width:1.8;"/><path d="M320.0954,795.8923 L319.0431,794.4246 L323.3354,791.3784 L324.3877,792.8461" fill="#252327"/><path d="M320.1231,796.3353 L323.5846,796.3353 L323.5846,798.1353 L320.1231,798.1353" fill="#252327"/><ellipse cx="316.2462" cy="798.2046" fill="#252327" rx="1.2462" ry="1.2462" style="stroke:none;stroke-width:1.8;"/><text fill="#000000" font-family="'Helvetica Neue, Helvetica, Arial, sans-serif'" font-size="12" lengthAdjust="spacing" textLength="260.2734" x="331.9683" y="805.6206">Reduced Planning &amp; Governance Overhead</text></g><!--entity OUT_JZMIk3--><g class="entity" data-qualified-name="OUT_JZMIk3" data-source-line="67" id="ent0004"><rect fill="#EDD6F0" height="42.1538" rx="2" ry="2" style="stroke:#7B3F9A;stroke-width:0.5;" width="394.7007" x="662.5" y="776.2969"/><ellipse cx="682.7462" cy="798.2046" fill="none" rx="5.9538" ry="5.9538" style="stroke:#252327;stroke-width:1.8;"/><ellipse cx="682.7462" cy="798.2046" fill="none" rx="3.0462" ry="3.0462" style="stroke:#252327;stroke-width:1.8;"/><path d="M686.5954,795.8923 L685.5431,794.4246 L689.8354,791.3784 L690.8877,792.8461" fill="#252327"/><path d="M686.6231,796.3353 L690.0846,796.3353 L690.0846,798.1353 L686.6231,798.1353" fill="#252327"/><ellipse cx="682.7462" cy="798.2046" fill="#252327" rx="1.2462" ry="1.2462" style="stroke:none;stroke-width:1.8;"/><text fill="#000000" font-family="'Helvetica Neue, Helvetica, Arial, sans-serif'" font-size="12" lengthAdjust="spacing" textLength="348.7324" x="698.4683" y="805.6206">AI Agents Efficiently Discover &amp; Edit Architecture Artifacts</text></g><!--entity GOL_Lm2Bn2--><g class="entity" data-qualified-name="GOL_Lm2Bn2" data-source-line="69" id="ent0005"><rect fill="#EDD6F0" height="42.1538" rx="2" ry="2" style="stroke:#7B3F9A;stroke-width:0.5;" width="403.9234" x="281" y="898.2969"/><ellipse cx="302.0769" cy="919.3738" fill="none" rx="6.6462" ry="6.6462" style="stroke:#252327;stroke-width:1.8;"/><ellipse cx="302.0769" cy="919.3738" fill="none" rx="4.0154" ry="4.0154" style="stroke:#252327;stroke-width:1.8;"/><ellipse cx="302.0769" cy="919.3738" fill="#252327" rx="1.8" ry="1.8" style="stroke:none;stroke-width:1.8;"/><text fill="#000000" font-family="'Helvetica Neue, Helvetica, Arial, sans-serif'" font-size="12" lengthAdjust="spacing" textLength="357.9551" x="316.9683" y="927.6206">Plan Collaboratively in a Unified, Staged Repository System</text></g><!--entity OUT_YSRwR0--><g class="entity" data-qualified-name="OUT_YSRwR0" data-source-line="70" id="ent0006"><rect fill="#EDD6F0" height="42.1538" rx="2" ry="2" style="stroke:#7B3F9A;stroke-width:0.5;" width="421.1968" x="272.5" y="1020.2969"/><ellipse cx="292.7462" cy="1042.2046" fill="none" rx="5.9538" ry="5.9538" style="stroke:#252327;stroke-width:1.8;"/><ellipse cx="292.7462" cy="1042.2046" fill="none" rx="3.0462" ry="3.0462" style="stroke:#252327;stroke-width:1.8;"/><path d="M296.5954,1039.8923 L295.5431,1038.4246 L299.8354,1035.3784 L300.8877,1036.8461" fill="#252327"/><path d="M296.6231,1040.3353 L300.0846,1040.3353 L300.0846,1042.1353 L296.6231,1042.1353" fill="#252327"/><ellipse cx="292.7462" cy="1042.2046" fill="#252327" rx="1.2462" ry="1.2462" style="stroke:none;stroke-width:1.8;"/><text fill="#000000" font-family="'Helvetica Neue, Helvetica, Arial, sans-serif'" font-size="12" lengthAdjust="spacing" textLength="375.2285" x="308.4683" y="1049.6206">Stakeholder Concerns and Hand-Off Points Explicitly Verifiable</text></g><!--entity OUT_620dTh--><g class="entity" data-qualified-name="OUT_620dTh" data-source-line="71" id="ent0007"><rect fill="#EDD6F0" height="42.1538" rx="2" ry="2" style="stroke:#7B3F9A;stroke-width:0.5;" width="450.441" x="754" y="1020.2969"/><ellipse cx="774.2462" cy="1042.2046" fill="none" rx="5.9538" ry="5.9538" style="stroke:#252327;stroke-width:1.8;"/><ellipse cx="774.2462" cy="1042.2046" fill="none" rx="3.0462" ry="3.0462" style="stroke:#252327;stroke-width:1.8;"/><path d="M778.0954,1039.8923 L777.0431,1038.4246 L781.3354,1035.3784 L782.3877,1036.8461" fill="#252327"/><path d="M778.1231,1040.3353 L781.5846,1040.3353 L781.5846,1042.1353 L778.1231,1042.1353" fill="#252327"/><ellipse cx="774.2462" cy="1042.2046" fill="#252327" rx="1.2462" ry="1.2462" style="stroke:none;stroke-width:1.8;"/><text fill="#000000" font-family="'Helvetica Neue, Helvetica, Arial, sans-serif'" font-size="12" lengthAdjust="spacing" textLength="404.4727" x="789.9683" y="1049.6206">Engagements Plan Concurrently Against a Shared, Staged Baseline</text></g><!--entity GOL_Gh3Jk1--><g class="entity" data-qualified-name="GOL_Gh3Jk1" data-source-line="73" id="ent0008"><rect fill="#EDD6F0" height="42.1538" rx="2" ry="2" style="stroke:#7B3F9A;stroke-width:0.5;" width="467.48" x="199.5" y="1142.2969"/><ellipse cx="220.5769" cy="1163.3738" fill="none" rx="6.6462" ry="6.6462" style="stroke:#252327;stroke-width:1.8;"/><ellipse cx="220.5769" cy="1163.3738" fill="none" rx="4.0154" ry="4.0154" style="stroke:#252327;stroke-width:1.8;"/><ellipse cx="220.5769" cy="1163.3738" fill="#252327" rx="1.8" ry="1.8" style="stroke:none;stroke-width:1.8;"/><text fill="#000000" font-family="'Helvetica Neue, Helvetica, Arial, sans-serif'" font-size="12" lengthAdjust="spacing" textLength="421.5117" x="235.4683" y="1171.6206">Provide Independent Read-Access to Architecture for Teams &amp; Agents</text></g><!--entity OUT_FXFGrO--><g class="entity" data-qualified-name="OUT_FXFGrO" data-source-line="74" id="ent0009"><rect fill="#EDD6F0" height="42.1538" rx="2" ry="2" style="stroke:#7B3F9A;stroke-width:0.5;" width="434.3745" x="216" y="1264.2969"/><ellipse cx="236.2462" cy="1286.2046" fill="none" rx="5.9538" ry="5.9538" style="stroke:#252327;stroke-width:1.8;"/><ellipse cx="236.2462" cy="1286.2046" fill="none" rx="3.0462" ry="3.0462" style="stroke:#252327;stroke-width:1.8;"/><path d="M240.0954,1283.8923 L239.0431,1282.4246 L243.3354,1279.3784 L244.3877,1280.8461" fill="#252327"/><path d="M240.1231,1284.3353 L243.5846,1284.3353 L243.5846,1286.1353 L240.1231,1286.1353" fill="#252327"/><ellipse cx="236.2462" cy="1286.2046" fill="#252327" rx="1.2462" ry="1.2462" style="stroke:none;stroke-width:1.8;"/><text fill="#000000" font-family="'Helvetica Neue, Helvetica, Arial, sans-serif'" font-size="12" lengthAdjust="spacing" textLength="388.4063" x="251.9683" y="1293.6206">Architectural Guidance Available Without Specialist Dependency</text></g><!--entity OUT__AzP1Q--><g class="entity" data-qualified-name="OUT__AzP1Q" data-source-line="75" id="ent0010"><rect fill="#EDD6F0" height="42.1538" rx="2" ry="2" style="stroke:#7B3F9A;stroke-width:0.5;" width="377.2574" x="710.5" y="1264.2969"/><ellipse cx="730.7462" cy="1286.2046" fill="none" rx="5.9538" ry="5.9538" style="stroke:#252327;stroke-width:1.8;"/><ellipse cx="730.7462" cy="1286.2046" fill="none" rx="3.0462" ry="3.0462" style="stroke:#252327;stroke-width:1.8;"/><path d="M734.5954,1283.8923 L733.5431,1282.4246 L737.8354,1279.3784 L738.8877,1280.8461" fill="#252327"/><path d="M734.6231,1284.3353 L738.0846,1284.3353 L738.0846,1286.1353 L734.6231,1286.1353" fill="#252327"/><ellipse cx="730.7462" cy="1286.2046" fill="#252327" rx="1.2462" ry="1.2462" style="stroke:none;stroke-width:1.8;"/><text fill="#000000" font-family="'Helvetica Neue, Helvetica, Arial, sans-serif'" font-size="12" lengthAdjust="spacing" textLength="331.2891" x="746.4683" y="1293.6206">AI Agents Produce Fewer Architecture-Drift Corrections</text></g><!--entity GOL_Xwvgpb--><g class="entity" data-qualified-name="GOL_Xwvgpb" data-source-line="77" id="ent0011"><rect fill="#EDD6F0" height="42.1538" rx="2" ry="2" style="stroke:#7B3F9A;stroke-width:0.5;" width="402.2593" x="232" y="1386.2969"/><ellipse cx="253.0769" cy="1407.3738" fill="none" rx="6.6462" ry="6.6462" style="stroke:#252327;stroke-width:1.8;"/><ellipse cx="253.0769" cy="1407.3738" fill="none" rx="4.0154" ry="4.0154" style="stroke:#252327;stroke-width:1.8;"/><ellipse cx="253.0769" cy="1407.3738" fill="#252327" rx="1.8" ry="1.8" style="stroke:none;stroke-width:1.8;"/><text fill="#000000" font-family="'Helvetica Neue, Helvetica, Arial, sans-serif'" font-size="12" lengthAdjust="spacing" textLength="356.291" x="267.9683" y="1415.6206">Enable Fast Feedback from Implementation to Architecture</text></g><!--entity OUT_a5mNob--><g class="entity" data-qualified-name="OUT_a5mNob" data-source-line="78" id="ent0012"><rect fill="#EDD6F0" height="42.1538" rx="2" ry="2" style="stroke:#7B3F9A;stroke-width:0.5;" width="427.9937" x="7" y="1508.2969"/><ellipse cx="27.2462" cy="1530.2046" fill="none" rx="5.9538" ry="5.9538" style="stroke:#252327;stroke-width:1.8;"/><ellipse cx="27.2462" cy="1530.2046" fill="none" rx="3.0462" ry="3.0462" style="stroke:#252327;stroke-width:1.8;"/><path d="M31.0954,1527.8923 L30.0431,1526.4246 L34.3354,1523.3784 L35.3877,1524.8461" fill="#252327"/><path d="M31.1231,1528.3353 L34.5846,1528.3353 L34.5846,1530.1353 L31.1231,1530.1353" fill="#252327"/><ellipse cx="27.2462" cy="1530.2046" fill="#252327" rx="1.2462" ry="1.2462" style="stroke:none;stroke-width:1.8;"/><text fill="#000000" font-family="'Helvetica Neue, Helvetica, Arial, sans-serif'" font-size="12" lengthAdjust="spacing" textLength="382.0254" x="42.9683" y="1537.6206">Changes Validated Against Architecture Before Implementation</text></g><!--entity OUT_g7PM4Y--><g class="entity" data-qualified-name="OUT_g7PM4Y" data-source-line="79" id="ent0013"><rect fill="#EDD6F0" height="42.1538" rx="2" ry="2" style="stroke:#7B3F9A;stroke-width:0.5;" width="397.1441" x="495.5" y="1508.2969"/><ellipse cx="515.7462" cy="1530.2046" fill="none" rx="5.9538" ry="5.9538" style="stroke:#252327;stroke-width:1.8;"/><ellipse cx="515.7462" cy="1530.2046" fill="none" rx="3.0462" ry="3.0462" style="stroke:#252327;stroke-width:1.8;"/><path d="M519.5954,1527.8923 L518.5431,1526.4246 L522.8354,1523.3784 L523.8877,1524.8461" fill="#252327"/><path d="M519.6231,1528.3353 L523.0846,1528.3353 L523.0846,1530.1353 L519.6231,1530.1353" fill="#252327"/><ellipse cx="515.7462" cy="1530.2046" fill="#252327" rx="1.2462" ry="1.2462" style="stroke:none;stroke-width:1.8;"/><text fill="#000000" font-family="'Helvetica Neue, Helvetica, Arial, sans-serif'" font-size="12" lengthAdjust="spacing" textLength="351.1758" x="531.4683" y="1537.6206">Implementation Changes Fed Back, Reviewed &amp; Promoted</text></g><!--entity GOL_Po1Qw3--><g class="entity" data-qualified-name="GOL_Po1Qw3" data-source-line="81" id="ent0014"><rect fill="#EDD6F0" height="42.1538" rx="2" ry="2" style="stroke:#7B3F9A;stroke-width:0.5;" width="266.6206" x="951.5" y="44.2969"/><ellipse cx="972.5769" cy="65.3738" fill="none" rx="6.6462" ry="6.6462" style="stroke:#252327;stroke-width:1.8;"/><ellipse cx="972.5769" cy="65.3738" fill="none" rx="4.0154" ry="4.0154" style="stroke:#252327;stroke-width:1.8;"/><ellipse cx="972.5769" cy="65.3738" fill="#252327" rx="1.8" ry="1.8" style="stroke:none;stroke-width:1.8;"/><text fill="#000000" font-family="'Helvetica Neue, Helvetica, Arial, sans-serif'" font-size="12" lengthAdjust="spacing" textLength="220.6523" x="987.4683" y="73.6206">Maintain Coherence and Traceability</text></g><!--entity OUT_9jS0BB--><g class="entity" data-qualified-name="OUT_9jS0BB" data-source-line="82" id="ent0015"><rect fill="#EDD6F0" height="42.1538" rx="2" ry="2" style="stroke:#7B3F9A;stroke-width:0.5;" width="343.7476" x="913" y="166.2969"/><ellipse cx="933.2462" cy="188.2046" fill="none" rx="5.9538" ry="5.9538" style="stroke:#252327;stroke-width:1.8;"/><ellipse cx="933.2462" cy="188.2046" fill="none" rx="3.0462" ry="3.0462" style="stroke:#252327;stroke-width:1.8;"/><path d="M937.0954,185.8923 L936.0431,184.4246 L940.3354,181.3784 L941.3877,182.8461" fill="#252327"/><path d="M937.1231,186.3353 L940.5846,186.3353 L940.5846,188.1353 L937.1231,188.1353" fill="#252327"/><ellipse cx="933.2462" cy="188.2046" fill="#252327" rx="1.2462" ry="1.2462" style="stroke:none;stroke-width:1.8;"/><text fill="#000000" font-family="'Helvetica Neue, Helvetica, Arial, sans-serif'" font-size="12" lengthAdjust="spacing" textLength="297.7793" x="948.9683" y="195.6206">Requirements Traceable to Realized Components</text></g><!--entity OUT_LrpdG0--><g class="entity" data-qualified-name="OUT_LrpdG0" data-source-line="83" id="ent0016"><rect fill="#EDD6F0" height="42.1538" rx="2" ry="2" style="stroke:#7B3F9A;stroke-width:0.5;" width="254.1695" x="1317" y="166.2969"/><ellipse cx="1337.2462" cy="188.2046" fill="none" rx="5.9538" ry="5.9538" style="stroke:#252327;stroke-width:1.8;"/><ellipse cx="1337.2462" cy="188.2046" fill="none" rx="3.0462" ry="3.0462" style="stroke:#252327;stroke-width:1.8;"/><path d="M1341.0954,185.8923 L1340.0431,184.4246 L1344.3354,181.3784 L1345.3877,182.8461" fill="#252327"/><path d="M1341.1231,186.3353 L1344.5846,186.3353 L1344.5846,188.1353 L1341.1231,188.1353" fill="#252327"/><ellipse cx="1337.2462" cy="188.2046" fill="#252327" rx="1.2462" ry="1.2462" style="stroke:none;stroke-width:1.8;"/><text fill="#000000" font-family="'Helvetica Neue, Helvetica, Arial, sans-serif'" font-size="12" lengthAdjust="spacing" textLength="208.2012" x="1352.9683" y="195.6206">Increased Architectural Coherence</text></g><!--entity OUT_aOcRl9--><g class="entity" data-qualified-name="OUT_aOcRl9" data-source-line="84" id="ent0017"><rect fill="#EDD6F0" height="42.1538" rx="2" ry="2" style="stroke:#7B3F9A;stroke-width:0.5;" width="429.2359" x="1386.5" y="654.2969"/><ellipse cx="1406.7462" cy="676.2046" fill="none" rx="5.9538" ry="5.9538" style="stroke:#252327;stroke-width:1.8;"/><ellipse cx="1406.7462" cy="676.2046" fill="none" rx="3.0462" ry="3.0462" style="stroke:#252327;stroke-width:1.8;"/><path d="M1410.5954,673.8923 L1409.5431,672.4246 L1413.8354,669.3784 L1414.8877,670.8461" fill="#252327"/><path d="M1410.6231,674.3353 L1414.0846,674.3353 L1414.0846,676.1353 L1410.6231,676.1353" fill="#252327"/><ellipse cx="1406.7462" cy="676.2046" fill="#252327" rx="1.2462" ry="1.2462" style="stroke:none;stroke-width:1.8;"/><text fill="#000000" font-family="'Helvetica Neue, Helvetica, Arial, sans-serif'" font-size="12" lengthAdjust="spacing" textLength="383.2676" x="1422.4683" y="683.6206">Architecture Governance Scales Without Proportional Overhead</text></g><!--entity GOL_kCcPph--><g class="entity" data-qualified-name="GOL_kCcPph" data-source-line="86" id="ent0018"><rect fill="#EDD6F0" height="42.1538" rx="2" ry="2" style="stroke:#7B3F9A;stroke-width:0.5;" width="326.5738" x="999.5" y="288.2969"/><ellipse cx="1020.5769" cy="309.3738" fill="none" rx="6.6462" ry="6.6462" style="stroke:#252327;stroke-width:1.8;"/><ellipse cx="1020.5769" cy="309.3738" fill="none" rx="4.0154" ry="4.0154" style="stroke:#252327;stroke-width:1.8;"/><ellipse cx="1020.5769" cy="309.3738" fill="#252327" rx="1.8" ry="1.8" style="stroke:none;stroke-width:1.8;"/><text fill="#000000" font-family="'Helvetica Neue, Helvetica, Arial, sans-serif'" font-size="12" lengthAdjust="spacing" textLength="280.6055" x="1035.4683" y="317.6206">Enable Cross-Engagement Architectural Reuse</text></g><!--entity OUT_edEkJa--><g class="entity" data-qualified-name="OUT_edEkJa" data-source-line="87" id="ent0019"><rect fill="#EDD6F0" height="42.1538" rx="2" ry="2" style="stroke:#7B3F9A;stroke-width:0.5;" width="414.3238" x="1035" y="410.2969"/><ellipse cx="1055.2462" cy="432.2046" fill="none" rx="5.9538" ry="5.9538" style="stroke:#252327;stroke-width:1.8;"/><ellipse cx="1055.2462" cy="432.2046" fill="none" rx="3.0462" ry="3.0462" style="stroke:#252327;stroke-width:1.8;"/><path d="M1059.0954,429.8923 L1058.0431,428.4246 L1062.3354,425.3784 L1063.3877,426.8461" fill="#252327"/><path d="M1059.1231,430.3353 L1062.5846,430.3353 L1062.5846,432.1353 L1059.1231,432.1353" fill="#252327"/><ellipse cx="1055.2462" cy="432.2046" fill="#252327" rx="1.2462" ry="1.2462" style="stroke:none;stroke-width:1.8;"/><text fill="#000000" font-family="'Helvetica Neue, Helvetica, Arial, sans-serif'" font-size="12" lengthAdjust="spacing" textLength="368.3555" x="1070.9683" y="439.6206">Proven Patterns Promoted and Adopted Across Engagements</text></g><!--entity GOL_FCfDuc--><g class="entity" data-qualified-name="GOL_FCfDuc" data-source-line="89" id="ent0020"><rect fill="#EDD6F0" height="42.1538" rx="2" ry="2" style="stroke:#7B3F9A;stroke-width:0.5;" width="427.7652" x="863" y="532.2969"/><ellipse cx="884.0769" cy="553.3738" fill="none" rx="6.6462" ry="6.6462" style="stroke:#252327;stroke-width:1.8;"/><ellipse cx="884.0769" cy="553.3738" fill="none" rx="4.0154" ry="4.0154" style="stroke:#252327;stroke-width:1.8;"/><ellipse cx="884.0769" cy="553.3738" fill="#252327" rx="1.8" ry="1.8" style="stroke:none;stroke-width:1.8;"/><text fill="#000000" font-family="'Helvetica Neue, Helvetica, Arial, sans-serif'" font-size="12" lengthAdjust="spacing" textLength="381.7969" x="898.9683" y="561.6206">Achieve Unity of Effort Across Autonomous, Agentic SDLC Work</text></g><!--link GOL_5Fk9di to OUT_AlZjX8--><!--reverse link GOL_5Fk9di to OUT_AlZjX8--><g class="link" data-entity-1="ent0002" data-entity-2="ent0003" data-link-type="extension" data-source-line="118" id="lnk46"><path d="M550.67,714.5469 C550.67,736.9369 550.67,753.9869 550.67,776.2869" fill="none" id="GOL_5Fk9di-backto-OUT_AlZjX8" style="stroke:#181818;stroke-width:1;"/><polygon fill="none" points="550.67,696.5469,544.67,714.5469,556.67,714.5469,550.67,696.5469" style="stroke:#181818;stroke-width:1;"/></g><!--link OUT_AlZjX8 to OUT_JZMIk3--><!--link OUT_AlZjX8 to GOL_Lm2Bn2--><!--link GOL_Lm2Bn2 to OUT_YSRwR0--><!--reverse link GOL_Lm2Bn2 to OUT_YSRwR0--><g class="link" data-entity-1="ent0005" data-entity-2="ent0006" data-link-type="extension" data-source-line="120" id="lnk50"><path d="M550.33,958.5469 C550.33,980.9369 550.33,997.9869 550.33,1020.2869" fill="none" id="GOL_Lm2Bn2-backto-OUT_YSRwR0" style="stroke:#181818;stroke-width:1;"/><polygon fill="none" points="550.33,940.5469,544.33,958.5469,556.33,958.5469,550.33,940.5469" style="stroke:#181818;stroke-width:1;"/></g><!--link OUT_YSRwR0 to OUT_620dTh--><!--link OUT_YSRwR0 to GOL_Gh3Jk1--><!--link GOL_Gh3Jk1 to OUT_FXFGrO--><!--reverse link GOL_Gh3Jk1 to OUT_FXFGrO--><g class="link" data-entity-1="ent0008" data-entity-2="ent0009" data-link-type="extension" data-source-line="122" id="lnk54"><path d="M505.33,1202.5469 C505.33,1224.9369 505.33,1241.9869 505.33,1264.2869" fill="none" id="GOL_Gh3Jk1-backto-OUT_FXFGrO" style="stroke:#181818;stroke-width:1;"/><polygon fill="none" points="505.33,1184.5469,499.33,1202.5469,511.33,1202.5469,505.33,1184.5469" style="stroke:#181818;stroke-width:1;"/></g><!--link OUT_FXFGrO to OUT__AzP1Q--><!--link OUT_FXFGrO to GOL_Xwvgpb--><!--link GOL_Xwvgpb to OUT_a5mNob--><!--reverse link GOL_Xwvgpb to OUT_a5mNob--><g class="link" data-entity-1="ent0011" data-entity-2="ent0012" data-link-type="extension" data-source-line="124" id="lnk58"><path d="M367.33,1446.5469 C367.33,1468.9369 367.33,1485.9869 367.33,1508.2869" fill="none" id="GOL_Xwvgpb-backto-OUT_a5mNob" style="stroke:#181818;stroke-width:1;"/><polygon fill="none" points="367.33,1428.5469,361.33,1446.5469,373.33,1446.5469,367.33,1428.5469" style="stroke:#181818;stroke-width:1;"/></g><!--link OUT_a5mNob to OUT_g7PM4Y--><!--link OUT_a5mNob to GOL_Po1Qw3--><!--link GOL_Po1Qw3 to OUT_9jS0BB--><!--reverse link GOL_Po1Qw3 to OUT_9jS0BB--><g class="link" data-entity-1="ent0014" data-entity-2="ent0015" data-link-type="extension" data-source-line="126" id="lnk62"><path d="M1129.5,104.5469 C1129.5,126.9369 1129.5,143.9869 1129.5,166.2869" fill="none" id="GOL_Po1Qw3-backto-OUT_9jS0BB" style="stroke:#181818;stroke-width:1;"/><polygon fill="none" points="1129.5,86.5469,1123.5,104.5469,1135.5,104.5469,1129.5,86.5469" style="stroke:#181818;stroke-width:1;"/></g><!--link OUT_9jS0BB to OUT_LrpdG0--><!--link OUT_LrpdG0 to OUT_aOcRl9--><!--link OUT_9jS0BB to GOL_kCcPph--><!--link GOL_kCcPph to OUT_edEkJa--><!--reverse link GOL_kCcPph to OUT_edEkJa--><g class="link" data-entity-1="ent0018" data-entity-2="ent0019" data-link-type="extension" data-source-line="130" id="lnk70"><path d="M1229.33,348.5469 C1229.33,370.9369 1229.33,387.9869 1229.33,410.2869" fill="none" id="GOL_kCcPph-backto-OUT_edEkJa" style="stroke:#181818;stroke-width:1;"/><polygon fill="none" points="1229.33,330.5469,1223.33,348.5469,1235.33,348.5469,1229.33,330.5469" style="stroke:#181818;stroke-width:1;"/></g><!--link OUT_edEkJa to GOL_FCfDuc--><!--link GOL_FCfDuc to GOL_5Fk9di--><g class="link" data-entity-1="ent0020" data-entity-2="ent0002" data-link-type="association" data-source-line="111" id="lnk39"><path d="M872.5,574.5469 C872.5,596.9369 872.5,631.9869 872.5,654.2869" fill="none" id="GOL_FCfDuc-GOL_5Fk9di" style="stroke:#181818;stroke-width:1;"/></g><!--link GOL_FCfDuc to GOL_Lm2Bn2--><g class="link" data-entity-1="ent0020" data-entity-2="ent0005" data-link-type="association" data-source-line="112" id="lnk40"><path d="M1130.75,574.4169 C1130.75,651.3669 1130.75,912.2969 1130.75,912.2969 C1130.75,912.2969 875.34,912.2969 685.29,912.2969" fill="none" id="GOL_FCfDuc-GOL_Lm2Bn2" style="stroke:#181818;stroke-width:1;"/></g><!--link GOL_FCfDuc to GOL_Gh3Jk1--><g class="link" data-entity-1="ent0020" data-entity-2="ent0008" data-link-type="association" data-source-line="113" id="lnk41"><path d="M1233,574.6469 C1233,682.6169 1233,1163.2969 1233,1163.2969 C1233,1163.2969 902.67,1163.2969 666.54,1163.2969" fill="none" id="GOL_FCfDuc-GOL_Gh3Jk1" style="stroke:#181818;stroke-width:1;"/></g><!--link GOL_FCfDuc to GOL_Xwvgpb--><g class="link" data-entity-1="ent0020" data-entity-2="ent0011" data-link-type="association" data-source-line="114" id="lnk42"><path d="M1262,574.4069 C1262,705.9169 1262,1407.2969 1262,1407.2969 C1262,1407.2969 879.57,1407.2969 634.21,1407.2969" fill="none" id="GOL_FCfDuc-GOL_Xwvgpb" style="stroke:#181818;stroke-width:1;"/></g><!--link GOL_Po1Qw3 to GOL_FCfDuc--><g class="link" data-entity-1="ent0014" data-entity-2="ent0020" data-link-type="association" data-source-line="115" id="lnk43"><path d="M951.42,72.2969 C916.28,72.2969 888,72.2969 888,72.2969 C888,72.2969 888,438.9169 888,532.0069" fill="none" id="GOL_Po1Qw3-GOL_FCfDuc" style="stroke:#181818;stroke-width:1;"/></g><!--link GOL_kCcPph to GOL_FCfDuc--><g class="link" data-entity-1="ent0018" data-entity-2="ent0020" data-link-type="association" data-source-line="116" id="lnk44"><path d="M1017.25,330.5269 C1017.25,376.7869 1017.25,486.2369 1017.25,532.2969" fill="none" id="GOL_kCcPph-GOL_FCfDuc" style="stroke:#181818;stroke-width:1;"/></g><!--reverse link GOL_5Fk9di to OUT_JZMIk3--><g class="link" data-entity-1="ent0002" data-entity-2="ent0004" data-link-type="extension" data-source-line="119" id="lnk48"><path d="M772.25,714.5469 C772.25,736.9369 772.25,753.9869 772.25,776.2869" fill="none" id="GOL_5Fk9di-backto-OUT_JZMIk3" style="stroke:#181818;stroke-width:1;"/><polygon fill="none" points="772.25,696.5469,766.25,714.5469,778.25,714.5469,772.25,696.5469" style="stroke:#181818;stroke-width:1;"/></g><!--reverse link GOL_Lm2Bn2 to OUT_620dTh--><g class="link" data-entity-1="ent0005" data-entity-2="ent0007" data-link-type="extension" data-source-line="121" id="lnk52"><path d="M703.09,926.2969 C811.78,926.2969 905.75,926.2969 905.75,926.2969 C905.75,926.2969 905.75,987.0069 905.75,1020.2069" fill="none" id="GOL_Lm2Bn2-backto-OUT_620dTh" style="stroke:#181818;stroke-width:1;"/><polygon fill="none" points="685.09,926.2969,703.09,932.2969,703.09,920.2969,685.09,926.2969" style="stroke:#181818;stroke-width:1;"/></g><!--reverse link GOL_Gh3Jk1 to OUT__AzP1Q--><g class="link" data-entity-1="ent0008" data-entity-2="ent0010" data-link-type="extension" data-source-line="123" id="lnk56"><path d="M658.25,1202.3869 C658.25,1235.5869 658.25,1278.2969 658.25,1278.2969 C658.25,1278.2969 680.03,1278.2969 710.49,1278.2969" fill="none" id="GOL_Gh3Jk1-backto-OUT__AzP1Q" style="stroke:#181818;stroke-width:1;"/><polygon fill="none" points="658.25,1184.3869,652.25,1202.3869,664.25,1202.3869,658.25,1184.3869" style="stroke:#181818;stroke-width:1;"/></g><!--reverse link GOL_Xwvgpb to OUT_g7PM4Y--><g class="link" data-entity-1="ent0011" data-entity-2="ent0013" data-link-type="extension" data-source-line="125" id="lnk60"><path d="M564.75,1446.5469 C564.75,1468.9369 564.75,1485.9869 564.75,1508.2869" fill="none" id="GOL_Xwvgpb-backto-OUT_g7PM4Y" style="stroke:#181818;stroke-width:1;"/><polygon fill="none" points="564.75,1428.5469,558.75,1446.5469,570.75,1446.5469,564.75,1428.5469" style="stroke:#181818;stroke-width:1;"/></g><!--reverse link GOL_FCfDuc to OUT_aOcRl9--><g class="link" data-entity-1="ent0020" data-entity-2="ent0017" data-link-type="extension" data-source-line="127" id="lnk64"><path d="M1309.35,553.2969 C1377.6,553.2969 1417.75,553.2969 1417.75,553.2969 C1417.75,553.2969 1417.75,619.0969 1417.75,654.0469" fill="none" id="GOL_FCfDuc-backto-OUT_aOcRl9" style="stroke:#181818;stroke-width:1;"/><polygon fill="none" points="1291.35,553.2969,1309.35,559.2969,1309.35,547.2969,1291.35,553.2969" style="stroke:#181818;stroke-width:1;"/></g><!--reverse link GOL_Po1Qw3 to OUT_aOcRl9--><g class="link" data-entity-1="ent0014" data-entity-2="ent0017" data-link-type="extension" data-source-line="128" id="lnk66"><path d="M1236.86,58.2969 C1415.95,58.2969 1693.25,58.2969 1693.25,58.2969 C1693.25,58.2969 1693.25,545.5669 1693.25,654.0569" fill="none" id="GOL_Po1Qw3-backto-OUT_aOcRl9" style="stroke:#181818;stroke-width:1;"/><polygon fill="none" points="1218.86,58.2969,1236.86,64.2969,1236.86,52.2969,1218.86,58.2969" style="stroke:#181818;stroke-width:1;"/></g><!--reverse link GOL_Po1Qw3 to OUT_LrpdG0--><g class="link" data-entity-1="ent0014" data-entity-2="ent0016" data-link-type="extension" data-source-line="129" id="lnk68"><path d="M1236.68,72.2969 C1338.75,72.2969 1444,72.2969 1444,72.2969 C1444,72.2969 1444,133.0069 1444,166.2069" fill="none" id="GOL_Po1Qw3-backto-OUT_LrpdG0" style="stroke:#181818;stroke-width:1;"/><polygon fill="none" points="1218.68,72.2969,1236.68,78.2969,1236.68,66.2969,1218.68,72.2969" style="stroke:#181818;stroke-width:1;"/></g><?plantuml-src xLZhRXev5FxFKvobgsuhmGI6NAia4hcGfagR5DBhQXKvCmV6PR1dRG-4NgHzY7t2VP8zXY4p41ELR7_iZoe9U7piS_tEPHBn444RL2ZDEC5IIVUvI9XY0mYnozBOjAGmhzW0eVmSuo4Q7Z1uXIbMuFQv0at5MLm1pOIkQbIyMtOpwl3F27M_GDGH2-M8YnvqMQonG54o5M4WbK05wuNzQnRqUnFYeOobWaUjflqfgXvpWTOSaCf4ia0GCaID2MpMYeAOwDlDxLhf5zALxa8RuwjBnNiziaNqddIL75J0o0h4x1hZfs0te5hTfxsvEsraCV_C39TYoINF-thVhQitoGeNEwY6A-dNr5e6_3xzgjLxxboTOTSyw6ARzw8LRWO1QhtK4NVCEXNTE4KHuFrN2Y77m33HYt5tjoTPlByFNqe01ul8EZuwscpLB4Mg45MsktNGQEqqIz_S_6Hg0Zd01xACVkRZptpycO__ctpKYU86uLUcWeWFcC4hgn_iwc4FRWQnq7lbo9ZasThQQ3JoHWrFgjwQNwlLrkX46OOSHmVoPgzSWnhKD-ctlByRS1N4205jRvSX64--r5vvtQDlwF8utYiBAR1CXK39FkwL7_aRViFVccrKHpmqqLwvxZNAQylv-TxE3-LdoHcx1GOp_cv-rXNx3azcaVbXpjporZDrlStCeOt_we0xF7tFVn3FX9a8mhtoothDgs_3fhVJEDlnrdtOyBQtpkg-j-53mzkaPSFpjs7TssfyNlJs0Xk_1bkUln7HtTgGnDIUJpPTr-wpoABamL4rCg5CXcjf3ELro6tYKNqfbGmt9F1Tn0oyG-f729TgRDiAdMuI0d28yCzVVyC9fPE6nt0-1OCkbNw3jwXi6uj1CAMeNWtn6I0B8fZaNbV6iHnX2DTZC17rbEmcFP0mDQdT2Dp0and0gF384UreucrPLB9Jar8898EeYUJ2MFtIv2arpgaPcaodWa6ovkpqIhVr1Sgx2xNXYoRDSQ_kRNpRXqw2TFbDGWwWCuPkfOfCk8YP45ROOx9_Y4emgfLac89c3qcD0Dv9rI_3RJLa6axEpwusMlsTa2-Jdfaxfq0RmpGW5TmIpsaL8GkjfBnEah3pDvTNpVZZf_VRgmXhdaxrrt3SxVA0qp8Umn7NWHL9eez32al15HOOXdTPOBHJXHSVNvxs6wNlThUr4gY4Kw-HK-2GV4uXXZU2Tpc65UWOrYD_j36HcXkfnj0PqxmrkEliiu5_8FnLx2VUVOnaJ7s4j207Aq8G4o4yfu_gURSB5nPbv9wR92R_ME-yjTCPPzSnEZtmeTCUjMkhA74iUcJXO1A6p1yYI9MQ1gFPOrneGnxfH4mL77B0DDenpQd5fbyBBwCLug3aq0wofoB41Eb36F8u2wlJGM9I0ueeiCY_H3QmXM2AeBlXE8aQB_hrbU0ubtCdAGyde6yE6O-jm-4TfsaqDJPBQIwAEVdbADCt63iTqNhVEb7d3yi9SehDHMZXYF1HjBzwH1Wm52YLbKztDbmrFr_KNtz_58x5nCeM8xjQL8Vie3wTlqu7IJo1oBG2BeJZhk_VZuQzv7eLimyZEaWr-IsvDQH3uItovW9_W1HwND37QJpR6BoIAwcmOEHCezO4x46_GeYq4mKzFhQn6KZIqYcwjtNnSlt3z_lz9Hbgw8y26j6BdCMSBGANYWN8hddCpVYkYoza_VMeiLff_pEbVZlDz8mvtQDWJjzVoB13EKYeXOibvNNdKwTsSB2IJqL0hLFRSCubrwsbJZbdAWbFQWzCNImsh8uzesyJbyAMq2ibXPTqkBUPiVEW7U-id3k7IcfTpKlgWjbjJBKZNVg7mKKIhMAlBPWeu88PCsaQCpnEWDCCPJB9eC1gKopmJbCnFEw_ODzlwcmQenPfnY2xjdcJKsVYcgcHWhH9TULsEkaSdHqk6L5QXzsZDB1JN9NU8y_OcFHxDXtSx7jznOvimivY-TnMsBVpdC0RCxr074hvs0FLtoCUKct-8vGZKItEAFaoFwJi6swrE4QuJarP5TfzldJ9ozfnldJAozgbwrGkB-jd-T8bB-it-T8fBsiChbEvlAo6vqkNlApAvakdlAmWkaxbyhA2bYzTyh8Ab2-TyhBwaI-Tfx8KT_7AjSfICr-wjCeoA5-wECs0dg_jFquAK_fTGW5YyuG25kO9XQ3Dd3WdlMZ7l5f5iAT9zUj-KRKyAPOGPx3DYPdkERoN46S0p8cPSJbGbn1dKCg9cVKvv9OGP-7EYHduSbWKYPcBtCJ2pHdMdCGPC79Y1gr_0G00?></g></svg>