<svg xmlns="http://www.w3.org/2000/svg" xmlns:xlink="http://www.w3.org/1999/xlink" contentStyleType="text/css" data-diagram-type="DESCRIPTION" height="514px" preserveAspectRatio="none" style="width:2096px;height:514px;background:#FAFAFA;" version="1.1" viewBox="0 0 2096 514" width="2096px" zoomAndPan="magnify"><?plantuml 1.2026.3?><defs/><g><rect fill="#FAFAFA" height="514" style="stroke:none;stroke-width:1;" width="2096" x="0" y="0"/><g class="title" data-source-line="96"><text fill="#000000" font-family="'Helvetica Neue, Helvetica, Arial, sans-serif'" font-size="14" font-weight="700" lengthAdjust="spacing" textLength="499.4609" x="794.7695" y="22.9951">The Story in One View: Unity of Effort under Agentic Autonomy</text></g><!--cluster Forces--><g class="cluster" data-qualified-name="Forces" data-source-line="98" id="ent0002"><rect fill="#F7EEF9" height="90" rx="2" ry="2" style="stroke:#7B3F9A;stroke-width:1;" width="1121" x="412" y="44.2969"/><text fill="#000000" font-family="'Helvetica Neue, Helvetica, Arial, sans-serif'" font-size="12" font-weight="700" lengthAdjust="spacing" textLength="44.7539" x="950.123" y="57.4355">Forces</text></g><!--cluster Key Tension--><g class="cluster" data-qualified-name="Key Tension" data-source-line="106" id="ent0008"><rect fill="#F7EEF9" height="90" rx="2" ry="2" style="stroke:#7B3F9A;stroke-width:1;" width="1570" x="7" y="166.2969"/><text fill="#000000" font-family="'Helvetica Neue, Helvetica, Arial, sans-serif'" font-size="12" font-weight="700" lengthAdjust="spacing" textLength="82.3477" x="750.8262" y="179.4355">Key Tension</text></g><!--cluster Apex Intent--><g class="cluster" data-qualified-name="Apex Intent" data-source-line="114" id="ent0014"><rect fill="#F7EEF9" height="90" rx="2" ry="2" style="stroke:#7B3F9A;stroke-width:1;" width="460" x="644" y="288.2969"/><text fill="#000000" font-family="'Helvetica Neue, Helvetica, Arial, sans-serif'" font-size="12" font-weight="700" lengthAdjust="spacing" textLength="79.0957" x="834.4521" y="301.4355">Apex Intent</text></g><!--cluster How We Get There--><g class="cluster" data-qualified-name="How We Get There" data-source-line="118" id="ent0016"><rect fill="#F7EEF9" height="90" rx="2" ry="2" style="stroke:#7B3F9A;stroke-width:1;" width="1920" x="162" y="410.2969"/><text fill="#000000" font-family="'Helvetica Neue, Helvetica, Arial, sans-serif'" font-size="12" font-weight="700" lengthAdjust="spacing" textLength="125.9297" x="1059.0352" y="423.4355">How We Get There</text></g><!--entity DRV_GR9prv--><g class="entity" data-qualified-name="Forces.DRV_GR9prv" data-source-line="99" id="ent0003"><rect fill="#EDD6F0" height="42.1538" rx="2" ry="2" style="stroke:#7B3F9A;stroke-width:0.5;" width="381.3999" x="427.5" y="76.2969"/><ellipse cx="448.5769" cy="97.3738" fill="none" rx="6.3692" ry="6.3692" style="stroke:#252327;stroke-width:1.8;"/><ellipse cx="448.5769" cy="97.3738" fill="none" rx="2.3538" ry="2.3538" style="stroke:#252327;stroke-width:1.8;"/><path d="M447.6769,89.4815 L447.6769,93.6353 L449.4769,93.6353 L449.4769,89.4815" fill="#252327"/><path d="M447.6769,101.1123 L447.6769,105.2661 L449.4769,105.2661 L449.4769,101.1123" fill="#252327"/><path d="M440.6846,96.4738 L444.8385,96.4738 L444.8385,98.2738 L440.6846,98.2738" fill="#252327"/><path d="M452.3154,96.4738 L456.4692,96.4738 L456.4692,98.2738 L452.3154,98.2738" fill="#252327"/><path d="M442.4015,92.4723 L443.6754,91.1984 L446.5831,94.1061 L445.3092,95.38" fill="#252327"/><path d="M450.5708,100.6415 L451.8446,99.3676 L454.7523,102.2753 L453.4785,103.5492" fill="#252327"/><path d="M453.4785,91.1984 L454.7523,92.4723 L451.8446,95.38 L450.5708,94.1061" fill="#252327"/><path d="M445.3092,99.3676 L446.5831,100.6415 L443.6754,103.5492 L442.4015,102.2753" fill="#252327"/><text fill="#000000" font-family="'Helvetica Neue, Helvetica, Arial, sans-serif'" font-size="12" lengthAdjust="spacing" textLength="335.4316" x="463.4683" y="105.6206">AI-Assisted Development as Dominant Production Mode</text></g><!--entity DRV_Rt6Yu2--><g class="entity" data-qualified-name="Forces.DRV_Rt6Yu2" data-source-line="100" id="ent0004"><rect fill="#EDD6F0" height="42.1538" rx="2" ry="2" style="stroke:#7B3F9A;stroke-width:0.5;" width="300.7925" x="868.5" y="76.2969"/><ellipse cx="889.5769" cy="97.3738" fill="none" rx="6.3692" ry="6.3692" style="stroke:#252327;stroke-width:1.8;"/><ellipse cx="889.5769" cy="97.3738" fill="none" rx="2.3538" ry="2.3538" style="stroke:#252327;stroke-width:1.8;"/><path d="M888.6769,89.4815 L888.6769,93.6353 L890.4769,93.6353 L890.4769,89.4815" fill="#252327"/><path d="M888.6769,101.1123 L888.6769,105.2661 L890.4769,105.2661 L890.4769,101.1123" fill="#252327"/><path d="M881.6846,96.4738 L885.8385,96.4738 L885.8385,98.2738 L881.6846,98.2738" fill="#252327"/><path d="M893.3154,96.4738 L897.4692,96.4738 L897.4692,98.2738 L893.3154,98.2738" fill="#252327"/><path d="M883.4015,92.4723 L884.6754,91.1984 L887.5831,94.1061 L886.3092,95.38" fill="#252327"/><path d="M891.5708,100.6415 L892.8446,99.3676 L895.7523,102.2753 L894.4785,103.5492" fill="#252327"/><path d="M894.4785,91.1984 L895.7523,92.4723 L892.8446,95.38 L891.5708,94.1061" fill="#252327"/><path d="M886.3092,99.3676 L887.5831,100.6415 L884.6754,103.5492 L883.4015,102.2753" fill="#252327"/><text fill="#000000" font-family="'Helvetica Neue, Helvetica, Arial, sans-serif'" font-size="12" lengthAdjust="spacing" textLength="254.8242" x="904.4683" y="105.6206">Increasing Autonomy of Teams &amp; Systems</text></g><!--entity DRV_Ui5Op3--><g class="entity" data-qualified-name="Forces.DRV_Ui5Op3" data-source-line="101" id="ent0005"><rect fill="#EDD6F0" height="42.1538" rx="2" ry="2" style="stroke:#7B3F9A;stroke-width:0.5;" width="286.812" x="1229.5" y="76.2969"/><ellipse cx="1250.5769" cy="97.3738" fill="none" rx="6.3692" ry="6.3692" style="stroke:#252327;stroke-width:1.8;"/><ellipse cx="1250.5769" cy="97.3738" fill="none" rx="2.3538" ry="2.3538" style="stroke:#252327;stroke-width:1.8;"/><path d="M1249.6769,89.4815 L1249.6769,93.6353 L1251.4769,93.6353 L1251.4769,89.4815" fill="#252327"/><path d="M1249.6769,101.1123 L1249.6769,105.2661 L1251.4769,105.2661 L1251.4769,101.1123" fill="#252327"/><path d="M1242.6846,96.4738 L1246.8385,96.4738 L1246.8385,98.2738 L1242.6846,98.2738" fill="#252327"/><path d="M1254.3154,96.4738 L1258.4692,96.4738 L1258.4692,98.2738 L1254.3154,98.2738" fill="#252327"/><path d="M1244.4015,92.4723 L1245.6754,91.1984 L1248.5831,94.1061 L1247.3092,95.38" fill="#252327"/><path d="M1252.5708,100.6415 L1253.8446,99.3676 L1256.7523,102.2753 L1255.4785,103.5492" fill="#252327"/><path d="M1255.4785,91.1984 L1256.7523,92.4723 L1253.8446,95.38 L1252.5708,94.1061" fill="#252327"/><path d="M1247.3092,99.3676 L1248.5831,100.6415 L1245.6754,103.5492 L1244.4015,102.2753" fill="#252327"/><text fill="#000000" font-family="'Helvetica Neue, Helvetica, Arial, sans-serif'" font-size="12" lengthAdjust="spacing" textLength="240.8438" x="1265.4683" y="105.6206">Rising Complexity and Interdependence</text></g><!--entity ASS_CK90bp--><g class="entity" data-qualified-name="Key Tension.ASS_CK90bp" data-source-line="107" id="ent0009"><rect fill="#EDD6F0" height="42.1538" rx="2" ry="2" style="stroke:#7B3F9A;stroke-width:0.5;" width="376.4429" x="1185" y="198.2969"/><path d="M1198.4615,212.4507 L1213.6923,212.4507 A1.3846,1.3846 0 0 1 1215.0769,213.8353 L1215.0769,222.143 A1.3846,1.3846 0 0 1 1213.6923,223.5276 L1203.3077,223.5276 L1200.5385,227.6815 L1201.9231,223.5276 L1198.4615,223.5276 A1.3846,1.3846 0 0 1 1197.0769,222.143 L1197.0769,213.8353 A1.3846,1.3846 0 0 1 1198.4615,212.4507" fill="#252327" style="stroke:none;stroke-width:0.5;"/><text fill="#000000" font-family="'Helvetica Neue, Helvetica, Arial, sans-serif'" font-size="12" lengthAdjust="spacing" textLength="330.4746" x="1220.9683" y="227.6206">Autonomy at Agentic Velocity Threatens Unity of Effort</text></g><!--entity ASS_EI3FpR--><g class="entity" data-qualified-name="Key Tension.ASS_EI3FpR" data-source-line="108" id="ent0010"><rect fill="#EDD6F0" height="42.1538" rx="2" ry="2" style="stroke:#7B3F9A;stroke-width:0.5;" width="539.5913" x="23" y="198.2969"/><path d="M36.4615,212.4507 L51.6923,212.4507 A1.3846,1.3846 0 0 1 53.0769,213.8353 L53.0769,222.143 A1.3846,1.3846 0 0 1 51.6923,223.5276 L41.3077,223.5276 L38.5385,227.6815 L39.9231,223.5276 L36.4615,223.5276 A1.3846,1.3846 0 0 1 35.0769,222.143 L35.0769,213.8353 A1.3846,1.3846 0 0 1 36.4615,212.4507" fill="#252327" style="stroke:none;stroke-width:0.5;"/><text fill="#000000" font-family="'Helvetica Neue, Helvetica, Arial, sans-serif'" font-size="12" lengthAdjust="spacing" textLength="493.623" x="58.9683" y="227.6206">AI Code Generation Volume Outpaces Architectural Planning and Review Capacity</text></g><!--entity ASS_a6vxyj--><g class="entity" data-qualified-name="Key Tension.ASS_a6vxyj" data-source-line="109" id="ent0011"><rect fill="#EDD6F0" height="42.1538" rx="2" ry="2" style="stroke:#7B3F9A;stroke-width:0.5;" width="502.2671" x="623" y="198.2969"/><path d="M636.4615,212.4507 L651.6923,212.4507 A1.3846,1.3846 0 0 1 653.0769,213.8353 L653.0769,222.143 A1.3846,1.3846 0 0 1 651.6923,223.5276 L641.3077,223.5276 L638.5385,227.6815 L639.9231,223.5276 L636.4615,223.5276 A1.3846,1.3846 0 0 1 635.0769,222.143 L635.0769,213.8353 A1.3846,1.3846 0 0 1 636.4615,212.4507" fill="#252327" style="stroke:none;stroke-width:0.5;"/><text fill="#000000" font-family="'Helvetica Neue, Helvetica, Arial, sans-serif'" font-size="12" lengthAdjust="spacing" textLength="456.2988" x="658.9683" y="227.6206">Centralized Governance Cannot Scale to Concurrent Development Contexts</text></g><!--entity GOL_FCfDuc--><g class="entity" data-qualified-name="Apex Intent.GOL_FCfDuc" data-source-line="115" id="ent0015"><rect fill="#EDD6F0" height="42.1538" rx="2" ry="2" style="stroke:#7B3F9A;stroke-width:0.5;" width="427.7652" x="660" y="320.2969"/><ellipse cx="681.0769" cy="341.3738" fill="none" rx="6.6462" ry="6.6462" style="stroke:#252327;stroke-width:1.8;"/><ellipse cx="681.0769" cy="341.3738" fill="none" rx="4.0154" ry="4.0154" style="stroke:#252327;stroke-width:1.8;"/><ellipse cx="681.0769" cy="341.3738" fill="#252327" rx="1.8" ry="1.8" style="stroke:none;stroke-width:1.8;"/><text fill="#000000" font-family="'Helvetica Neue, Helvetica, Arial, sans-serif'" font-size="12" lengthAdjust="spacing" textLength="381.7969" x="695.9683" y="349.6206">Achieve Unity of Effort Across Autonomous, Agentic SDLC Work</text></g><!--entity GOL_5Fk9di--><g class="entity" data-qualified-name="How We Get There.GOL_5Fk9di" data-source-line="119" id="ent0017"><rect fill="#EDD6F0" height="42.1538" rx="2" ry="2" style="stroke:#7B3F9A;stroke-width:0.5;" width="434.4917" x="178" y="442.2969"/><ellipse cx="199.0769" cy="463.3738" fill="none" rx="6.6462" ry="6.6462" style="stroke:#252327;stroke-width:1.8;"/><ellipse cx="199.0769" cy="463.3738" fill="none" rx="4.0154" ry="4.0154" style="stroke:#252327;stroke-width:1.8;"/><ellipse cx="199.0769" cy="463.3738" fill="#252327" rx="1.8" ry="1.8" style="stroke:none;stroke-width:1.8;"/><text fill="#000000" font-family="'Helvetica Neue, Helvetica, Arial, sans-serif'" font-size="12" lengthAdjust="spacing" textLength="388.5234" x="213.9683" y="471.6206">Speed Up Architectural Planning &amp; Governance for Agentic Work</text></g><!--entity GOL_Lm2Bn2--><g class="entity" data-qualified-name="How We Get There.GOL_Lm2Bn2" data-source-line="120" id="ent0018"><rect fill="#EDD6F0" height="42.1538" rx="2" ry="2" style="stroke:#7B3F9A;stroke-width:0.5;" width="403.9234" x="672" y="442.2969"/><ellipse cx="693.0769" cy="463.3738" fill="none" rx="6.6462" ry="6.6462" style="stroke:#252327;stroke-width:1.8;"/><ellipse cx="693.0769" cy="463.3738" fill="none" rx="4.0154" ry="4.0154" style="stroke:#252327;stroke-width:1.8;"/><ellipse cx="693.0769" cy="463.3738" fill="#252327" rx="1.8" ry="1.8" style="stroke:none;stroke-width:1.8;"/><text fill="#000000" font-family="'Helvetica Neue, Helvetica, Arial, sans-serif'" font-size="12" lengthAdjust="spacing" textLength="357.9551" x="707.9683" y="471.6206">Plan Collaboratively in a Unified, Staged Repository System</text></g><!--entity GOL_Gh3Jk1--><g class="entity" data-qualified-name="How We Get There.GOL_Gh3Jk1" data-source-line="121" id="ent0019"><rect fill="#EDD6F0" height="42.1538" rx="2" ry="2" style="stroke:#7B3F9A;stroke-width:0.5;" width="467.48" x="1136.5" y="442.2969"/><ellipse cx="1157.5769" cy="463.3738" fill="none" rx="6.6462" ry="6.6462" style="stroke:#252327;stroke-width:1.8;"/><ellipse cx="1157.5769" cy="463.3738" fill="none" rx="4.0154" ry="4.0154" style="stroke:#252327;stroke-width:1.8;"/><ellipse cx="1157.5769" cy="463.3738" fill="#252327" rx="1.8" ry="1.8" style="stroke:none;stroke-width:1.8;"/><text fill="#000000" font-family="'Helvetica Neue, Helvetica, Arial, sans-serif'" font-size="12" lengthAdjust="spacing" textLength="421.5117" x="1172.4683" y="471.6206">Provide Independent Read-Access to Architecture for Teams &amp; Agents</text></g><!--entity GOL_Xwvgpb--><g class="entity" data-qualified-name="How We Get There.GOL_Xwvgpb" data-source-line="122" id="ent0020"><rect fill="#EDD6F0" height="42.1538" rx="2" ry="2" style="stroke:#7B3F9A;stroke-width:0.5;" width="402.2593" x="1664" y="442.2969"/><ellipse cx="1685.0769" cy="463.3738" fill="none" rx="6.6462" ry="6.6462" style="stroke:#252327;stroke-width:1.8;"/><ellipse cx="1685.0769" cy="463.3738" fill="none" rx="4.0154" ry="4.0154" style="stroke:#252327;stroke-width:1.8;"/><ellipse cx="1685.0769" cy="463.3738" fill="#252327" rx="1.8" ry="1.8" style="stroke:none;stroke-width:1.8;"/><text fill="#000000" font-family="'Helvetica Neue, Helvetica, Arial, sans-serif'" font-size="12" lengthAdjust="spacing" textLength="356.291" x="1699.9683" y="471.6206">Enable Fast Feedback from Implementation to Architecture</text></g><!--link DRV_GR9prv to DRV_Rt6Yu2--><!--link DRV_Rt6Yu2 to DRV_Ui5Op3--><!--link ASS_CK90bp to ASS_EI3FpR--><!--link ASS_EI3FpR to ASS_a6vxyj--><!--link GOL_5Fk9di to GOL_Lm2Bn2--><!--link GOL_Lm2Bn2 to GOL_Gh3Jk1--><!--link GOL_Gh3Jk1 to GOL_Xwvgpb--><!--link DRV_Ui5Op3 to ASS_CK90bp--><!--link DRV_Ui5Op3 to ASS_CK90bp--><g class="link" data-entity-1="ent0005" data-entity-2="ent0009" data-link-type="dependency" data-source-line="134" id="lnk29"><path d="M1420.83,118.5469 C1420.83,140.9369 1420.83,169.9869 1420.83,192.2869" fill="none" id="DRV_Ui5Op3-to-ASS_CK90bp" style="stroke:#181818;stroke-width:1;stroke-dasharray:7,7;"/><polygon fill="#181818" points="1420.83,198.2869,1424.83,189.2869,1420.83,193.2869,1416.83,189.2869,1420.83,198.2869" style="stroke:#181818;stroke-width:1;"/></g><!--link ASS_a6vxyj to GOL_FCfDuc--><!--link ASS_a6vxyj to GOL_FCfDuc--><g class="link" data-entity-1="ent0011" data-entity-2="ent0015" data-link-type="association" data-source-line="141" id="lnk35"><path d="M945.33,240.5469 C945.33,262.9369 945.33,297.9869 945.33,320.2869" fill="none" id="ASS_a6vxyj-GOL_FCfDuc-1" style="stroke:#181818;stroke-width:1;"/></g><!--link GOL_FCfDuc to GOL_5Fk9di--><!--link GOL_FCfDuc to GOL_5Fk9di--><g class="link" data-entity-1="ent0015" data-entity-2="ent0017" data-link-type="association" data-source-line="143" id="lnk36"><path d="M668,362.5469 C668,397.4969 668,463.2969 668,463.2969 C668,463.2969 644.88,463.2969 612.1,463.2969" fill="none" id="GOL_FCfDuc-GOL_5Fk9di-1" style="stroke:#181818;stroke-width:1;"/></g><!--link DRV_GR9prv to ASS_CK90bp--><g class="link" data-entity-1="ent0003" data-entity-2="ent0009" data-link-type="dependency" data-source-line="132" id="lnk27"><path d="M746.67,118.4869 C746.67,131.3469 746.67,145.2969 746.67,145.2969 C746.67,145.2969 1214.67,145.2969 1214.67,145.2969 C1214.67,145.2969 1214.67,170.4069 1214.67,192.2869" fill="none" id="DRV_GR9prv-to-ASS_CK90bp" style="stroke:#181818;stroke-width:1;stroke-dasharray:7,7;"/><polygon fill="#181818" points="1214.67,198.2869,1218.67,189.2869,1214.67,193.2869,1210.67,189.2869,1214.67,198.2869" style="stroke:#181818;stroke-width:1;"/></g><!--link DRV_Rt6Yu2 to ASS_CK90bp--><g class="link" data-entity-1="ent0004" data-entity-2="ent0009" data-link-type="dependency" data-source-line="133" id="lnk28"><path d="M1153,118.5469 C1153,153.4969 1153,219.2969 1153,219.2969 C1153,219.2969 1159.7,219.2969 1178.99,219.2969" fill="none" id="DRV_Rt6Yu2-to-ASS_CK90bp" style="stroke:#181818;stroke-width:1;stroke-dasharray:7,7;"/><polygon fill="#181818" points="1184.99,219.2969,1175.99,215.2969,1179.99,219.2969,1175.99,223.2969,1184.99,219.2969" style="stroke:#181818;stroke-width:1;"/></g><!--link DRV_GR9prv to ASS_EI3FpR--><g class="link" data-entity-1="ent0003" data-entity-2="ent0010" data-link-type="dependency" data-source-line="135" id="lnk30"><path d="M472.67,118.5469 C472.67,140.9369 472.67,169.9869 472.67,192.2869" fill="none" id="DRV_GR9prv-to-ASS_EI3FpR" style="stroke:#181818;stroke-width:1;stroke-dasharray:7,7;"/><polygon fill="#181818" points="472.67,198.2869,476.67,189.2869,472.67,193.2869,468.67,189.2869,472.67,198.2869" style="stroke:#181818;stroke-width:1;"/></g><!--link DRV_GR9prv to ASS_a6vxyj--><g class="link" data-entity-1="ent0003" data-entity-2="ent0011" data-link-type="dependency" data-source-line="136" id="lnk31"><path d="M684.83,118.5469 C684.83,140.9369 684.83,169.9869 684.83,192.2869" fill="none" id="DRV_GR9prv-to-ASS_a6vxyj" style="stroke:#181818;stroke-width:1;stroke-dasharray:7,7;"/><polygon fill="#181818" points="684.83,198.2869,688.83,189.2869,684.83,193.2869,680.83,189.2869,684.83,198.2869" style="stroke:#181818;stroke-width:1;"/></g><!--link DRV_Rt6Yu2 to ASS_a6vxyj--><g class="link" data-entity-1="ent0004" data-entity-2="ent0011" data-link-type="dependency" data-source-line="137" id="lnk32"><path d="M996.75,118.5469 C996.75,140.9369 996.75,169.9869 996.75,192.2869" fill="none" id="DRV_Rt6Yu2-to-ASS_a6vxyj" style="stroke:#181818;stroke-width:1;stroke-dasharray:7,7;"/><polygon fill="#181818" points="996.75,198.2869,1000.75,189.2869,996.75,193.2869,992.75,189.2869,996.75,198.2869" style="stroke:#181818;stroke-width:1;"/></g><!--link ASS_CK90bp to GOL_FCfDuc--><g class="link" data-entity-1="ent0009" data-entity-2="ent0015" data-link-type="association" data-source-line="139" id="lnk33"><path d="M1373,240.3869 C1373,273.5869 1373,334.2969 1373,334.2969 C1373,334.2969 1223.5,334.2969 1088.15,334.2969" fill="none" id="ASS_CK90bp-GOL_FCfDuc" style="stroke:#181818;stroke-width:1;"/></g><!--link ASS_EI3FpR to GOL_FCfDuc--><g class="link" data-entity-1="ent0010" data-entity-2="ent0015" data-link-type="association" data-source-line="140" id="lnk34"><path d="M370.5,240.5469 C370.5,275.4969 370.5,341.2969 370.5,341.2969 C370.5,341.2969 522.7,341.2969 659.74,341.2969" fill="none" id="ASS_EI3FpR-GOL_FCfDuc" style="stroke:#181818;stroke-width:1;"/></g><!--link GOL_FCfDuc to GOL_Lm2Bn2--><g class="link" data-entity-1="ent0015" data-entity-2="ent0018" data-link-type="association" data-source-line="144" id="lnk37"><path d="M874,362.5469 C874,384.9369 874,419.9869 874,442.2869" fill="none" id="GOL_FCfDuc-GOL_Lm2Bn2" style="stroke:#181818;stroke-width:1;"/></g><!--link GOL_FCfDuc to GOL_Gh3Jk1--><g class="link" data-entity-1="ent0015" data-entity-2="ent0019" data-link-type="association" data-source-line="145" id="lnk38"><path d="M1082,362.3869 C1082,395.5869 1082,456.2969 1082,456.2969 C1082,456.2969 1104.15,456.2969 1136.17,456.2969" fill="none" id="GOL_FCfDuc-GOL_Gh3Jk1" style="stroke:#181818;stroke-width:1;"/></g><!--link GOL_FCfDuc to GOL_Xwvgpb--><g class="link" data-entity-1="ent0015" data-entity-2="ent0020" data-link-type="association" data-source-line="146" id="lnk39"><path d="M1088.12,348.2969 C1379.48,348.2969 1865,348.2969 1865,348.2969 C1865,348.2969 1865,409.0069 1865,442.2069" fill="none" id="GOL_FCfDuc-GOL_Xwvgpb" style="stroke:#181818;stroke-width:1;"/></g><?plantuml-src xLXjR-964FxEhvZwgggLOWTZ8CSfH28a9EbnbnCakLPL5Mti1MynkzRk0k6kzzyxQzwMO3YHfXygHKIElRCpyypCixDhnooYe3ILLEXfIWi5DM0y9P8C8Q8zCafqIt3zaGmfE9Sq6LFDGW8VwOWUmFBv01gIaUG05E7ALLIodfDlgCk-KF1Bbb35918JnllG8ucYbaIA4Oz28JcLKBR67qWuw6V2faY4X3UjXldPq1F6gGa7XDIni0HSH5JH5Af5sn7X0pFujbZu0R6YBdHeSdyZMR-FiV3-ppqfXWUWnG4av84clu0P0DSzmR4rdGub2Vj2D1DyYvBd_RrBw_ustKEnI-LuBtmDfKJ8Tk5ptHqwzstQqyzIxB1-l8Tc65AbjYPY8wmhtaj6b8TqjufLSXfgmli9FJx-83GRPo0la5GfflFa1BuM04utU7PqVjwg6OcG4PNpqQFJe5Lh5BxbMoTAOIH3olKsg-TdPzLMSJ-haMHZAb_IOb-Gv9dsujSMOhUGLvAzakoLPFzBagbKCatXHoB3c0s9flUheE5OZVlmE4ougZknrkcxmyF9PE9D0a_8_c6fM2mUuWm7nenEJiLZtIb24Vmg_ZadnodHCKHrvqF9gq0G-pxnmOTiXlcDgwjd5-ykgubRWW0VWalKi8MkVrUsbLt_YmFGOqbITzwKAgMWTEJWGf5YGEiE5vmwXoV71jb9JdYpxF-xq48cmuH2YCDl7GYdsJzPTyfUTGaimx54zGIcEs6HZkkExmK6wpPxldVqB7lBr1zvGGLANb0S1rwn6AEuU6SUCN_hwTjGyelUaQsLFUzKCtR1wCP6QsoqBh_hApFxLElxlWAlKeQoLwwspGNCOxlgLQfGyQhbjhc0UTnfe-QLooRCeDhEhc06sdx96FHzOp6xGZQoEuXiNWPYffuXcnarCDgPAuDgfvaCTWOY2sK6BOilizhEWivyvPdPndVJ6_uhjhzzKRQNlDeBhvx0sTab8D_UB9DQf7X-XWUXDPwc8sRQBMupXO9c6htTn1IwMiWfC0xNU2Q_mzIzWrlEz1H43yvxFTpW0FimDfj67xif2w4nqeABuRHGM3PlS5f2uidVWHsRcJNxUAELVLKXIMWTUV7j11fNBhw2C3mrH716npGHQTR9YO8pCMISuFqdAQ9H5Wnym3tNU5vkIMPUv-x-ebDBvNWlprSyb9GeSrfOX6doS4F9KC5Fq9qYfg7ASzRHrTz7fRsSTLZcg2c6QK8VJSe9Zn027fOYcb9CEhuOvVcwPPNhDC1zRnKbk7_WIGir_fJcXSsrCQrkSsVDhTdLV4-d63DNcDtdb7Ir-QwNTP5HefTakiFYXYRqcnWJhz7dK_OP06j764n2ezkzRxwl5H_I_K5SOSBnI7f1yTYNnGHt8XdXyVDwf5E29CQp9jhGQ7KaiUjyIWZdfawcE1rgcWiq2Sv4bDkmdLy5hRIpDxOc3aZpHG5vVo6mvCZqaA8tpeM6hfbfLdDJy70afLaHzkh0OKqVjTe6YbJ7ZzE_a3Mhx6tmmGA_kisTDRTciwQHqiUClbm_XpMcnw-N2YKOtqOxQeHIABMWanYfWoMTkcVj9dmMSc00p0-K6Fx5TVk-rUoTZK8CtuPyAIRmsP11cruewOlWxgOK2tYRRYFIJtPnCQ8b-dpWbTQW5h4z_1j7o8Oa8G_2K1mfaZLuOZBPOpGwmAPF-jJGEHMAPHl0hBLjUcyFIwUyj8ztASRcdU-ABvgOHZyaScVVXWo1hRpC4h3ehraYr2Q8YpZuTU3l0UASamUSr29AGmkhOLxfPb-KhaopDGjZjlQVeDbq_Tjat4yVa3QhKcoi1ojFgzlSMVD0LhUvi-O-2wlkl9g6xxBSjHlWQZ4-dMInVdMRDsdEC7ixCH_UB2VM5f8ZcMFCaJonDcyjEP9vEydnisWqTjTQYyrkL1k2HMRM16lfM4l1fi2gwxh0AkMwO5wzVm00?></g></svg>