<svg xmlns="http://www.w3.org/2000/svg" xmlns:xlink="http://www.w3.org/1999/xlink" contentStyleType="text/css" data-diagram-type="ACTIVITY" height="349px" preserveAspectRatio="none" style="width:273px;height:349px;background:#FFFFFF;" version="1.1" viewBox="0 0 273 349" width="273px" zoomAndPan="magnify"><?plantuml 1.2026.3?><defs/><g><g class="title" data-source-line="1"><text fill="#000000" font-family="sans-serif" font-size="14" font-weight="700" lengthAdjust="spacing" textLength="87.0146" x="92.2271" y="32.9951">Order Flow</text></g><ellipse cx="122.2344" cy="62.2969" fill="#222222" rx="10" ry="10" style="stroke:#222222;stroke-width:1;"/><rect fill="#F1F1F1" height="33.9688" rx="12.5" ry="12.5" style="stroke:#181818;stroke-width:0.5;" width="212.4688" x="16" y="140.6992"/><text fill="#000000" font-family="sans-serif" font-size="12" lengthAdjust="spacing" textLength="64.3008" x="26" y="161.8379">Ship Order</text><a href="arch://APC@1.orders" target="_top" title="arch://APC@1.orders" xlink:actuate="onRequest" xlink:href="arch://APC@1.orders" xlink:show="new" xlink:title="arch://APC@1.orders" xlink:type="simple"><text fill="#0000FF" font-family="sans-serif" font-size="12" lengthAdjust="spacing" text-decoration="underline" textLength="124.3535" x="94.1152" y="161.8379">arch://APC@1.orders</text></a><rect fill="#F1F1F1" height="33.9688" rx="12.5" ry="12.5" style="stroke:#181818;stroke-width:0.5;" width="137.2578" x="53.6055" y="209.668"/><text fill="#000000" font-family="sans-serif" font-size="12" lengthAdjust="spacing" textLength="59.8359" x="63.6055" y="230.8066">Log Event</text><a href="arch://a2" target="_top" title="arch://a2" xlink:actuate="onRequest" xlink:href="arch://a2" xlink:show="new" xlink:title="arch://a2" xlink:type="simple"><text fill="#0000FF" font-family="sans-serif" font-size="12" lengthAdjust="spacing" text-decoration="underline" textLength="53.6074" x="127.2559" y="230.8066">arch://a2</text></a><polygon fill="#F1F1F1" points="66.375,92.2969,178.0938,92.2969,190.0938,104.2969,178.0938,116.2969,66.375,116.2969,54.375,104.2969,66.375,92.2969" style="stroke:#181818;stroke-width:0.5;"/><text fill="#000000" font-family="sans-serif" font-size="11" lengthAdjust="spacing" textLength="19.0083" x="126.2344" y="126.5073">yes</text><text fill="#000000" font-family="sans-serif" font-size="11" lengthAdjust="spacing" textLength="58.8403" x="66.375" y="108.105">Approved?</text><a href="arch://d1" target="_top" title="arch://d1" xlink:actuate="onRequest" xlink:href="arch://d1" xlink:show="new" xlink:title="arch://d1" xlink:type="simple"><text fill="#0000FF" font-family="sans-serif" font-size="11" lengthAdjust="spacing" text-decoration="underline" textLength="49.3818" x="128.7119" y="108.105">arch://d1</text></a><text fill="#000000" font-family="sans-serif" font-size="11" lengthAdjust="spacing" textLength="13.7017" x="190.0938" y="101.7026">no</text><polygon fill="#F1F1F1" points="122.2344,263.6367,134.2344,275.6367,122.2344,287.6367,110.2344,275.6367,122.2344,263.6367" style="stroke:#181818;stroke-width:0.5;"/><ellipse cx="122.2344" cy="318.6367" fill="none" rx="11" ry="11" style="stroke:#222222;stroke-width:1;"/><ellipse cx="122.2344" cy="318.6367" fill="#222222" rx="6" ry="6" style="stroke:#222222;stroke-width:1;"/><line style="stroke:#181818;stroke-width:1;" x1="122.2344" x2="122.2344" y1="174.668" y2="209.668"/><polygon fill="#181818" points="118.2344,199.668,122.2344,209.668,126.2344,199.668,122.2344,203.668" style="stroke:#181818;stroke-width:1;"/><line style="stroke:#181818;stroke-width:1;" x1="122.2344" x2="122.2344" y1="116.2969" y2="140.6992"/><polygon fill="#181818" points="118.2344,130.6992,122.2344,140.6992,126.2344,130.6992,122.2344,134.6992" style="stroke:#181818;stroke-width:1;"/><line style="stroke:#181818;stroke-width:1;" x1="190.0938" x2="238.4688" y1="104.2969" y2="104.2969"/><polygon fill="#181818" points="234.4688,182.168,238.4688,192.168,242.4688,182.168,238.4688,186.168" style="stroke:#181818;stroke-width:1;"/><line style="stroke:#181818;stroke-width:1;" x1="238.4688" x2="238.4688" y1="104.2969" y2="275.6367"/><line style="stroke:#181818;stroke-width:1;" x1="238.4688" x2="134.2344" y1="275.6367" y2="275.6367"/><polygon fill="#181818" points="144.2344,271.6367,134.2344,275.6367,144.2344,279.6367,140.2344,275.6367" style="stroke:#181818;stroke-width:1;"/><line style="stroke:#181818;stroke-width:1;" x1="122.2344" x2="122.2344" y1="243.6367" y2="263.6367"/><polygon fill="#181818" points="118.2344,253.6367,122.2344,263.6367,126.2344,253.6367,122.2344,257.6367" style="stroke:#181818;stroke-width:1;"/><line style="stroke:#181818;stroke-width:1;" x1="122.2344" x2="122.2344" y1="72.2969" y2="92.2969"/><polygon fill="#181818" points="118.2344,82.2969,122.2344,92.2969,126.2344,82.2969,122.2344,86.2969" style="stroke:#181818;stroke-width:1;"/><line style="stroke:#181818;stroke-width:1;" x1="122.2344" x2="122.2344" y1="287.6367" y2="307.6367"/><polygon fill="#181818" points="118.2344,297.6367,122.2344,307.6367,126.2344,297.6367,122.2344,301.6367" style="stroke:#181818;stroke-width:1;"/><?plantuml-src HOsn2W8n40Nx_OejayRZB6EXXsWbA5WUAOBPCu6G3SboujzBGBITDxoHA8dmMZrLF2T-0JHnLG3YWcegfV9AVe_pxEeZc67mexKQ9L16zQQcmTn3BD-3dpNTZeTnmnqsQtTWBlp4qqfP_exRzeLI8rIPDL3sSUbvBXy0?></g></svg>