<svg xmlns="http://www.w3.org/2000/svg" xmlns:xlink="http://www.w3.org/1999/xlink" contentStyleType="text/css" data-diagram-type="DESCRIPTION" height="344px" preserveAspectRatio="none" style="width:1190px;height:344px;background:#FAFAFA;" version="1.1" viewBox="0 0 1190 344" width="1190px" zoomAndPan="magnify"><?plantuml 1.2026.3?><defs/><g><rect fill="#FAFAFA" height="344" style="stroke:none;stroke-width:1;" width="1190" x="0" y="0"/><g class="title" data-source-line="37"><text fill="#000000" font-family="'Helvetica Neue, Helvetica, Arial, sans-serif'" font-size="14" font-weight="700" lengthAdjust="spacing" textLength="340.915" x="421.5003" y="22.9951">Datatype Diagram Type -- Application View</text></g><!--entity REQ_TbcGSB--><g class="entity" data-qualified-name="REQ_TbcGSB" data-source-line="40" id="ent0002"><rect fill="#EDD6F0" height="33.9688" rx="2" ry="2" style="stroke:#7B3F9A;stroke-width:0.5;" width="267.9512" x="7" y="292.2969"/><text fill="#000000" font-family="'Helvetica Neue, Helvetica, Arial, sans-serif'" font-size="12" lengthAdjust="spacing" textLength="247.9512" x="17" y="313.4355">Datatype (UML Class) Diagram Authoring</text></g><!--entity REQ_sbkuwf--><g class="entity" data-qualified-name="REQ_sbkuwf" data-source-line="41" id="ent0003"><rect fill="#EDD6F0" height="33.9688" rx="2" ry="2" style="stroke:#7B3F9A;stroke-width:0.5;" width="305.7266" x="335" y="292.2969"/><text fill="#000000" font-family="'Helvetica Neue, Helvetica, Arial, sans-serif'" font-size="12" lengthAdjust="spacing" textLength="285.7266" x="345" y="313.4355">Datatype-Data Object Relationship Consistency</text></g><!--entity FNC_halAQt--><g class="entity" data-qualified-name="FNC_halAQt" data-source-line="44" id="ent0004"><rect fill="#E0D8CC" height="42.1538" rx="2" ry="2" style="stroke:#8C7E6A;stroke-width:0.5;" width="384.7984" x="701.5" y="288.2969"/><path d="M715.5154,314.4969 L715.5154,305.7738 L722.5769,302.5892 L729.6385,305.7738 L729.6385,314.4969 L722.5769,311.0353" fill="#252327" style="stroke:none;stroke-width:0.5;"/><text fill="#000000" font-family="'Helvetica Neue, Helvetica, Arial, sans-serif'" font-size="12" lengthAdjust="spacing" textLength="338.8301" x="737.4683" y="317.6206">Validate Datatype-Data Object Relationship Consistency</text></g><!--entity APP_yNhgdh--><g class="entity" data-qualified-name="APP_yNhgdh" data-source-line="47" id="ent0005"><rect fill="#CCF2FF" height="42.1538" rx="2" ry="2" style="stroke:#0078A0;stroke-width:0.5;" width="139.5015" x="621" y="44.2969"/><path d="M636.5385,60.1123 L646.7846,60.1123 L646.7846,70.6353 L636.5385,70.6353" fill="#252327" style="stroke:none;stroke-width:0.5;"/><path d="M634.1846,61.1507 L636.5385,61.1507 L636.5385,62.9507 L634.1846,62.9507" fill="#252327"/><path d="M634.1846,64.4738 L636.5385,64.4738 L636.5385,66.2738 L634.1846,66.2738" fill="#252327"/><path d="M634.1846,67.7969 L636.5385,67.7969 L636.5385,69.5969 L634.1846,69.5969" fill="#252327"/><path d="M646.7846,61.1507 L648.7231,61.1507 L648.7231,62.9507 L646.7846,62.9507" fill="#252327"/><path d="M646.7846,64.4738 L648.7231,64.4738 L648.7231,66.2738 L646.7846,66.2738" fill="#252327"/><path d="M646.7846,67.7969 L648.7231,67.7969 L648.7231,69.5969 L646.7846,69.5969" fill="#252327"/><text fill="#000000" font-family="'Helvetica Neue, Helvetica, Arial, sans-serif'" font-size="12" lengthAdjust="spacing" textLength="93.5332" x="656.9683" y="73.6206">Module Catalog</text></g><!--entity APP_n8Pikk--><g class="entity" data-qualified-name="APP_n8Pikk" data-source-line="48" id="ent0006"><rect fill="#CCF2FF" height="42.1538" rx="2" ry="2" style="stroke:#0078A0;stroke-width:0.5;" width="237.4585" x="565.5" y="166.2969"/><path d="M581.0385,182.1123 L591.2846,182.1123 L591.2846,192.6353 L581.0385,192.6353" fill="#252327" style="stroke:none;stroke-width:0.5;"/><path d="M578.6846,183.1507 L581.0385,183.1507 L581.0385,184.9507 L578.6846,184.9507" fill="#252327"/><path d="M578.6846,186.4738 L581.0385,186.4738 L581.0385,188.2738 L578.6846,188.2738" fill="#252327"/><path d="M578.6846,189.7969 L581.0385,189.7969 L581.0385,191.5969 L578.6846,191.5969" fill="#252327"/><path d="M591.2846,183.1507 L593.2231,183.1507 L593.2231,184.9507 L591.2846,184.9507" fill="#252327"/><path d="M591.2846,186.4738 L593.2231,186.4738 L593.2231,188.2738 L591.2846,188.2738" fill="#252327"/><path d="M591.2846,189.7969 L593.2231,189.7969 L593.2231,191.5969 L591.2846,191.5969" fill="#252327"/><text fill="#000000" font-family="'Helvetica Neue, Helvetica, Arial, sans-serif'" font-size="12" lengthAdjust="spacing" textLength="191.4902" x="601.4683" y="195.6206">Datatype Diagram Type Module</text></g><!--entity APP_ca3vm7--><g class="entity" data-qualified-name="APP_ca3vm7" data-source-line="49" id="ent0007"><rect fill="#CCF2FF" height="42.1538" rx="2" ry="2" style="stroke:#0078A0;stroke-width:0.5;" width="129.5464" x="825" y="44.2969"/><path d="M840.5385,60.1123 L850.7846,60.1123 L850.7846,70.6353 L840.5385,70.6353" fill="#252327" style="stroke:none;stroke-width:0.5;"/><path d="M838.1846,61.1507 L840.5385,61.1507 L840.5385,62.9507 L838.1846,62.9507" fill="#252327"/><path d="M838.1846,64.4738 L840.5385,64.4738 L840.5385,66.2738 L838.1846,66.2738" fill="#252327"/><path d="M838.1846,67.7969 L840.5385,67.7969 L840.5385,69.5969 L838.1846,69.5969" fill="#252327"/><path d="M850.7846,61.1507 L852.7231,61.1507 L852.7231,62.9507 L850.7846,62.9507" fill="#252327"/><path d="M850.7846,64.4738 L852.7231,64.4738 L852.7231,66.2738 L850.7846,66.2738" fill="#252327"/><path d="M850.7846,67.7969 L852.7231,67.7969 L852.7231,69.5969 L850.7846,69.5969" fill="#252327"/><text fill="#000000" font-family="'Helvetica Neue, Helvetica, Arial, sans-serif'" font-size="12" lengthAdjust="spacing" textLength="83.5781" x="860.9683" y="73.6206">Model Verifier</text></g><!--entity APP_yaxrWl--><g class="entity" data-qualified-name="APP_yaxrWl" data-source-line="50" id="ent0008"><rect fill="#CCF2FF" height="42.1538" rx="2" ry="2" style="stroke:#0078A0;stroke-width:0.5;" width="161.4156" x="1015.5" y="44.2969"/><path d="M1031.0385,60.1123 L1041.2846,60.1123 L1041.2846,70.6353 L1031.0385,70.6353" fill="#252327" style="stroke:none;stroke-width:0.5;"/><path d="M1028.6846,61.1507 L1031.0385,61.1507 L1031.0385,62.9507 L1028.6846,62.9507" fill="#252327"/><path d="M1028.6846,64.4738 L1031.0385,64.4738 L1031.0385,66.2738 L1028.6846,66.2738" fill="#252327"/><path d="M1028.6846,67.7969 L1031.0385,67.7969 L1031.0385,69.5969 L1028.6846,69.5969" fill="#252327"/><path d="M1041.2846,61.1507 L1043.2231,61.1507 L1043.2231,62.9507 L1041.2846,62.9507" fill="#252327"/><path d="M1041.2846,64.4738 L1043.2231,64.4738 L1043.2231,66.2738 L1041.2846,66.2738" fill="#252327"/><path d="M1041.2846,67.7969 L1043.2231,67.7969 L1043.2231,69.5969 L1041.2846,69.5969" fill="#252327"/><text fill="#000000" font-family="'Helvetica Neue, Helvetica, Arial, sans-serif'" font-size="12" lengthAdjust="spacing" textLength="115.4473" x="1051.4683" y="73.6206">PlantUML Renderer</text></g><!--link REQ_TbcGSB to REQ_sbkuwf--><!--link APP_yNhgdh to APP_ca3vm7--><!--link APP_ca3vm7 to APP_yaxrWl--><!--link APP_n8Pikk to REQ_TbcGSB--><g class="link" data-entity-1="ent0006" data-entity-2="ent0002" data-link-type="extension" data-source-line="56" id="lnk13"><path d="M565.17,187.2969 C405.37,187.2969 141,187.2969 141,187.2969 C141,187.2969 141,240.4469 141,274.0769" fill="none" id="APP_n8Pikk-to-REQ_TbcGSB" style="stroke:#181818;stroke-width:1;stroke-dasharray:7,7;"/><polygon fill="none" points="141,292.0769,147,274.0769,135,274.0769,141,292.0769" style="stroke:#181818;stroke-width:1;"/></g><!--reverse link APP_yNhgdh to APP_n8Pikk--><g class="link" data-entity-1="ent0005" data-entity-2="ent0006" data-link-type="aggregation" data-source-line="57" id="lnk14"><path d="M691,98.5469 C691,120.9369 691,143.9869 691,166.2869" fill="none" id="APP_yNhgdh-backto-APP_n8Pikk" style="stroke:#181818;stroke-width:1;"/><polygon fill="none" points="691,86.5469,687,92.5469,691,98.5469,695,92.5469,691,86.5469" style="stroke:#181818;stroke-width:1;"/></g><!--link APP_n8Pikk to FNC_halAQt--><g class="link" data-entity-1="ent0006" data-entity-2="ent0004" data-link-type="association" data-source-line="58" id="lnk15"><path d="M752,208.5469 C752,230.9369 752,265.9869 752,288.2869" fill="none" id="APP_n8Pikk-FNC_halAQt" style="stroke:#181818;stroke-width:1;"/></g><!--link APP_ca3vm7 to FNC_halAQt--><g class="link" data-entity-1="ent0007" data-entity-2="ent0004" data-link-type="dependency" data-source-line="59" id="lnk16"><path d="M890,86.5269 C890,132.7869 890,236.2369 890,282.2969" fill="none" id="APP_ca3vm7-to-FNC_halAQt" style="stroke:#181818;stroke-width:1;"/><polygon fill="#181818" points="890,288.2969,894,279.2969,890,283.2969,886,279.2969,890,288.2969" style="stroke:#181818;stroke-width:1;"/></g><?plantuml-src hLPjS-8s4FxkNx7rTQQN6MoCUJ5qW1bYGjEP99SZkVH3fyC8Ux5LPCcL1IIvtdy_cQHW2518Ep03sjNpx2FjQgMOXWYPGeb2FQLe6DcKyfH8aa284p9ZQY2ukY49Wdc9R8wA1WHkS8ObM8rBq9EKi19aX6TMXf9EpDr4T_GPeU8Md5bCGh6WF889OHaMF5BCU1W8oL52hM0Vas0QBPs-O4B2Xq4l_nIbCyenNmu8gM9HS70HOeOfD9nY8CAdkR7f63zehHeBGsIZUqcZIA-5HnydKYGbKA84Z8oHdK5k0ClgQji6PeY4qMUYgE1xGBRzzo7Kw4jw0l0EvVmaVRqi4m4zfC-o3c16LpXHxm8EQHIVW0m2pBAz6_5cMR_o2PiX3_0mf91o31JX4SDscwGfqpMyL1c891KSkUfsuQi1SBvTQhu_S0U3t2DaYFBLwZXUi-SOttO7cCnuaBFluxnm-atVt-Pi-jv5exUFK-9VCoenEI3rejzl39njMk-yEcWjQLD95SAFH0OnJOZ2qSwDW7OsZ-0nOJphcB5IwS_bycAni1TLMyYex3gEKzOpJ9XJN9oBnuxfW0ELXlwQtNPAL0nXnxokGSrsOy-kpJsxSLbxDW4cbB6E-S6jkrNNCtKFacAA7PFhi6Qv07NjggFHhNfSiJrdNj73ozocEJOfte0yktewg6Lx9u4g5RksqbTxHIsDHy1U5PuAUzNuhx0yCzqTcVwd8l-dvBfs2xG6xw5krwwQKBKhh6vNG6_Tl65NjQLbkqTa_4Mj4ga-gZ0MIkc36zAywBLKmr1KCOG-KMJPsVkKHFcXkCy7keFqrjKB3rgkOVm4rqBH-T9ahCuEc2kAZr-khy1d9ClELdIzcRumyfvlmlOf8naCBpwFxiV1BtVdkmYj_0zy6l-fNNbRMaREOfg2ht-flcLvyBINDnjFPuj9BjiNIR8fkRqZUL-pW33iLEpwjouyw0iar5uuMKkXEsaXWnj_51FM-wno8OKztQTcPzFOa7Ojmfb6-LeF4yjjtTTnTVpUxUtewIQEmlZz0NUNo8kC8yBpvYsTJl_JUf71G_u8eYYF21YGwZpntX_mbX6kyb8U8jUD_gYOJ-HH_iOCOrtGOFqUqp14_eVChsghM9FhhBoPLLZ0cdSzY-dtmiOaO_kLjDxoKk5ubS0qpufnXMKLixFzbYcoh6jupV8IVVaYAfJuTm00?></g></svg>