<svg xmlns="http://www.w3.org/2000/svg" xmlns:xlink="http://www.w3.org/1999/xlink" contentStyleType="text/css" data-diagram-type="ACTIVITY" height="511px" preserveAspectRatio="none" style="width:1540px;height:511px;background:#FFFFFF;" version="1.1" viewBox="0 0 1540 511" width="1540px" zoomAndPan="magnify"><?plantuml 1.2026.3?><defs/><g><g class="title" data-source-line="1"><text fill="#000000" font-family="sans-serif" font-size="14" font-weight="700" lengthAdjust="spacing" textLength="446.9814" x="545.8162" y="32.9951">Promote Engagement Work to the Enterprise Repository</text></g><rect fill="none" height="20.9531" style="stroke:none;stroke-width:1;" width="1493.6138" x="20" y="55.042"/><ellipse cx="339.6025" cy="90.9951" fill="#222222" rx="10" ry="10" style="stroke:#222222;stroke-width:1;"/><rect fill="#F1F1F1" height="33.9688" rx="12.5" ry="12.5" style="stroke:#181818;stroke-width:0.5;" width="323" x="178.1025" y="120.9951"/><text fill="#000000" font-family="sans-serif" font-size="12" lengthAdjust="spacing" textLength="245.5781" x="188.1025" y="142.1338">Select entities &amp; connections to promote</text><a href="arch://a1" target="_top" title="arch://a1" xlink:actuate="onRequest" xlink:href="arch://a1" xlink:show="new" xlink:title="arch://a1" xlink:type="simple"><text fill="#0000FF" font-family="sans-serif" font-size="12" lengthAdjust="spacing" text-decoration="underline" textLength="53.6074" x="437.4951" y="142.1338">arch://a1</text></a><rect fill="#F1F1F1" height="33.9688" rx="12.5" ry="12.5" style="stroke:#181818;stroke-width:0.5;" width="292.1094" x="26" y="380.8701"/><text fill="#000000" font-family="sans-serif" font-size="12" lengthAdjust="spacing" textLength="214.6875" x="36" y="402.0088">Submit branch for review (open PR)</text><a href="arch://a5" target="_top" title="arch://a5" xlink:actuate="onRequest" xlink:href="arch://a5" xlink:show="new" xlink:title="arch://a5" xlink:type="simple"><text fill="#0000FF" font-family="sans-serif" font-size="12" lengthAdjust="spacing" text-decoration="underline" textLength="53.6074" x="254.502" y="402.0088">arch://a5</text></a><line style="stroke:#000000;stroke-width:1.5;" x1="20" x2="20" y1="55.042" y2="490.8389"/><rect fill="#F1F1F1" height="33.9688" rx="12.5" ry="12.5" style="stroke:#181818;stroke-width:0.5;" width="462.1074" x="600.6943" y="174.9639"/><text fill="#000000" font-family="sans-serif" font-size="12" lengthAdjust="spacing" textLength="384.6855" x="610.6943" y="196.1025">Detect &amp; resolve name/id conflicts (accept / enterprise / merge)</text><a href="arch://a2" target="_top" title="arch://a2" xlink:actuate="onRequest" xlink:href="arch://a2" xlink:show="new" xlink:title="arch://a2" xlink:type="simple"><text fill="#0000FF" font-family="sans-serif" font-size="12" lengthAdjust="spacing" text-decoration="underline" textLength="53.6074" x="999.1943" y="196.1025">arch://a2</text></a><rect fill="#F1F1F1" height="33.9688" rx="12.5" ry="12.5" style="stroke:#181818;stroke-width:0.5;" width="306.1953" x="511.1025" y="326.9014"/><text fill="#000000" font-family="sans-serif" font-size="12" lengthAdjust="spacing" textLength="228.7734" x="521.1025" y="348.04">Promote to enterprise working branch</text><a href="arch://a4" target="_top" title="arch://a4" xlink:actuate="onRequest" xlink:href="arch://a4" xlink:show="new" xlink:title="arch://a4" xlink:type="simple"><text fill="#0000FF" font-family="sans-serif" font-size="12" lengthAdjust="spacing" text-decoration="underline" textLength="53.6074" x="753.6904" y="348.04">arch://a4</text></a><rect fill="#F1F1F1" height="33.9688" rx="12.5" ry="12.5" style="stroke:#181818;stroke-width:0.5;" width="323.9961" x="837.2979" y="326.9014"/><text fill="#000000" font-family="sans-serif" font-size="12" lengthAdjust="spacing" textLength="246.5742" x="847.2979" y="348.04">Block promotion with per-violation errors</text><a href="arch://a6" target="_top" title="arch://a6" xlink:actuate="onRequest" xlink:href="arch://a6" xlink:show="new" xlink:title="arch://a6" xlink:type="simple"><text fill="#0000FF" font-family="sans-serif" font-size="12" lengthAdjust="spacing" text-decoration="underline" textLength="53.6074" x="1097.6865" y="348.04">arch://a6</text></a><ellipse cx="831.748" cy="479.8389" fill="none" rx="11" ry="11" style="stroke:#222222;stroke-width:1;"/><ellipse cx="831.748" cy="479.8389" fill="#222222" rx="6" ry="6" style="stroke:#222222;stroke-width:1;"/><line style="stroke:#000000;stroke-width:1.5;" x1="505.1025" x2="505.1025" y1="55.042" y2="490.8389"/><rect fill="#F1F1F1" height="33.9688" rx="12.5" ry="12.5" style="stroke:#181818;stroke-width:0.5;" width="336.459" x="1171.2939" y="228.9326"/><text fill="#000000" font-family="sans-serif" font-size="12" lengthAdjust="spacing" textLength="259.0371" x="1181.2939" y="250.0713">Check engagement schemata &#8839; enterprise</text><a href="arch://a3" target="_top" title="arch://a3" xlink:actuate="onRequest" xlink:href="arch://a3" xlink:show="new" xlink:title="arch://a3" xlink:type="simple"><text fill="#0000FF" font-family="sans-serif" font-size="12" lengthAdjust="spacing" text-decoration="underline" textLength="53.6074" x="1444.1455" y="250.0713">arch://a3</text></a><polygon fill="#F1F1F1" points="1210.0156,282.9014,1469.0313,282.9014,1481.0313,294.9014,1469.0313,306.9014,1210.0156,306.9014,1198.0156,294.9014,1210.0156,282.9014" style="stroke:#181818;stroke-width:0.5;"/><text fill="#000000" font-family="sans-serif" font-size="11" lengthAdjust="spacing" textLength="206.1372" x="1210.0156" y="298.7095">Engagement schemata &#8839; enterprise?</text><a href="arch://d1" target="_top" title="arch://d1" xlink:actuate="onRequest" xlink:href="arch://d1" xlink:show="new" xlink:title="arch://d1" xlink:type="simple"><text fill="#0000FF" font-family="sans-serif" font-size="11" lengthAdjust="spacing" text-decoration="underline" textLength="49.3818" x="1419.6494" y="298.7095">arch://d1</text></a><text fill="#000000" font-family="sans-serif" font-size="11" lengthAdjust="spacing" textLength="19.0083" x="1179.0073" y="292.3071">yes</text><text fill="#000000" font-family="sans-serif" font-size="11" lengthAdjust="spacing" textLength="13.7017" x="1481.0313" y="292.3071">no</text><polygon fill="#F1F1F1" points="1339.5234,424.8389,1351.5234,436.8389,1339.5234,448.8389,1327.5234,436.8389,1339.5234,424.8389" style="stroke:#181818;stroke-width:0.5;"/><line style="stroke:#000000;stroke-width:1.5;" x1="1165.2939" x2="1165.2939" y1="55.042" y2="490.8389"/><line style="stroke:#000000;stroke-width:1.5;" x1="1511.7529" x2="1511.7529" y1="55.042" y2="490.8389"/><line style="stroke:#181818;stroke-width:1;" x1="339.6025" x2="339.6025" y1="100.9951" y2="120.9951"/><polygon fill="#181818" points="335.6025,110.9951,339.6025,120.9951,343.6025,110.9951,339.6025,114.9951" style="stroke:#181818;stroke-width:1;"/><line style="stroke:#181818;stroke-width:1;" x1="1339.5234" x2="1339.5234" y1="262.9014" y2="282.9014"/><polygon fill="#181818" points="1335.5234,272.9014,1339.5234,282.9014,1343.5234,272.9014,1339.5234,276.9014" style="stroke:#181818;stroke-width:1;"/><line style="stroke:#181818;stroke-width:1;" x1="339.6025" x2="339.6025" y1="154.9639" y2="159.9639"/><line style="stroke:#181818;stroke-width:1;" x1="339.6025" x2="831.748" y1="159.9639" y2="159.9639"/><line style="stroke:#181818;stroke-width:1;" x1="831.748" x2="831.748" y1="159.9639" y2="174.9639"/><polygon fill="#181818" points="827.748,164.9639,831.748,174.9639,835.748,164.9639,831.748,168.9639" style="stroke:#181818;stroke-width:1;"/><line style="stroke:#181818;stroke-width:1;" x1="831.748" x2="831.748" y1="208.9326" y2="213.9326"/><line style="stroke:#181818;stroke-width:1;" x1="831.748" x2="1339.5234" y1="213.9326" y2="213.9326"/><line style="stroke:#181818;stroke-width:1;" x1="1339.5234" x2="1339.5234" y1="213.9326" y2="228.9326"/><polygon fill="#181818" points="1335.5234,218.9326,1339.5234,228.9326,1343.5234,218.9326,1339.5234,222.9326" style="stroke:#181818;stroke-width:1;"/><line style="stroke:#181818;stroke-width:1;" x1="664.2002" x2="664.2002" y1="360.8701" y2="365.8701"/><line style="stroke:#181818;stroke-width:1;" x1="664.2002" x2="172.0547" y1="365.8701" y2="365.8701"/><line style="stroke:#181818;stroke-width:1;" x1="172.0547" x2="172.0547" y1="365.8701" y2="380.8701"/><polygon fill="#181818" points="168.0547,370.8701,172.0547,380.8701,176.0547,370.8701,172.0547,374.8701" style="stroke:#181818;stroke-width:1;"/><line style="stroke:#181818;stroke-width:1;" x1="1198.0156" x2="664.2002" y1="294.9014" y2="294.9014"/><line style="stroke:#181818;stroke-width:1;" x1="664.2002" x2="664.2002" y1="294.9014" y2="326.9014"/><polygon fill="#181818" points="660.2002,316.9014,664.2002,326.9014,668.2002,316.9014,664.2002,320.9014" style="stroke:#181818;stroke-width:1;"/><line style="stroke:#181818;stroke-width:1;" x1="1481.0313" x2="1493.0313" y1="294.9014" y2="294.9014"/><line style="stroke:#181818;stroke-width:1;" x1="1493.0313" x2="1493.0313" y1="294.9014" y2="312.9014"/><line style="stroke:#181818;stroke-width:1;" x1="1493.0313" x2="999.2959" y1="312.9014" y2="312.9014"/><line style="stroke:#181818;stroke-width:1;" x1="999.2959" x2="999.2959" y1="312.9014" y2="326.9014"/><polygon fill="#181818" points="995.2959,316.9014,999.2959,326.9014,1003.2959,316.9014,999.2959,320.9014" style="stroke:#181818;stroke-width:1;"/><line style="stroke:#181818;stroke-width:1;" x1="172.0547" x2="172.0547" y1="414.8389" y2="436.8389"/><line style="stroke:#181818;stroke-width:1;" x1="172.0547" x2="1327.5234" y1="436.8389" y2="436.8389"/><polygon fill="#181818" points="1317.5234,432.8389,1327.5234,436.8389,1317.5234,440.8389,1321.5234,436.8389" style="stroke:#181818;stroke-width:1;"/><line style="stroke:#181818;stroke-width:1;" x1="999.2959" x2="999.2959" y1="360.8701" y2="418.8389"/><line style="stroke:#181818;stroke-width:1;" x1="999.2959" x2="1369.5234" y1="418.8389" y2="418.8389"/><line style="stroke:#181818;stroke-width:1;" x1="1369.5234" x2="1369.5234" y1="418.8389" y2="436.8389"/><line style="stroke:#181818;stroke-width:1;" x1="1369.5234" x2="1351.5234" y1="436.8389" y2="436.8389"/><polygon fill="#181818" points="1361.5234,432.8389,1351.5234,436.8389,1361.5234,440.8389,1357.5234,436.8389" style="stroke:#181818;stroke-width:1;"/><line style="stroke:#181818;stroke-width:1;" x1="1339.5234" x2="1339.5234" y1="448.8389" y2="453.8389"/><line style="stroke:#181818;stroke-width:1;" x1="1339.5234" x2="831.748" y1="453.8389" y2="453.8389"/><line style="stroke:#181818;stroke-width:1;" x1="831.748" x2="831.748" y1="453.8389" y2="468.8389"/><polygon fill="#181818" points="827.748,458.8389,831.748,468.8389,835.748,458.8389,831.748,462.8389" style="stroke:#181818;stroke-width:1;"/><text fill="#000000" font-family="sans-serif" font-size="18" lengthAdjust="spacing" textLength="154.7314" x="185.1855" y="71.75">Author / AI Agent</text><text fill="#000000" font-family="sans-serif" font-size="18" lengthAdjust="spacing" textLength="194.3174" x="738.0396" y="71.75">Architecture Backend</text><text fill="#000000" font-family="sans-serif" font-size="18" lengthAdjust="spacing" textLength="65.6016" x="1305.7227" y="71.75">Verifier</text><?plantuml-src XPAzRi9G38NtF8MdAWnLrD-13XMq3DqGIEs062uN9x58hYDV0q9YhzJ7x9FKWL8YLLN7dCJVEJwEabO8O-6Q5M4K2bTWZK7XZMK5og1bAojA8nGH9jXm96NP9Sb-iDQI1J8OlC2WiAbz4jM99ab_YXLw1TD82IDSWESGJ28EiUKstvQpcHDVzhFCNStd3yQq9rBxS2q8G-TN69RxfF-ChMOOmSZL1Y6u6ZDQjjYy8gyHKkSzDcfny9mtWngbm5x7v_hWyuf2EQ4O-wb4lxAXdzsZBx5swk3puxqBEpDkMWRba8x-dNeyZorjnLxRQ81qXx7tvxQdUrXF7VkjdOH20GjnmPUTDBV7vdvVepzTBshIqqHkhmKtX5j8kR4KuqctcBiMWvKvfO7_3ZUisEewti-k2LlI4XgKomrnvGuIYh343lh-W0vBoXFxHRZv0W00?></g></svg>