<svg xmlns="http://www.w3.org/2000/svg" xmlns:xlink="http://www.w3.org/1999/xlink" contentStyleType="text/css" data-diagram-type="ACTIVITY" height="511px" preserveAspectRatio="none" style="width:1282px;height:511px;background:#FFFFFF;" version="1.1" viewBox="0 0 1282 511" width="1282px" zoomAndPan="magnify"><?plantuml 1.2026.3?><defs/><g><g class="title" data-source-line="3"><text fill="#000000" font-family="sans-serif" font-size="14" font-weight="700" lengthAdjust="spacing" textLength="446.9814" x="416.6169" y="32.9951">Promote Engagement Work to the Enterprise Repository</text></g><rect fill="none" height="20.9531" style="stroke:none;stroke-width:1;" width="1235.2153" x="20" y="55.042"/><ellipse cx="282.1807" cy="90.9951" fill="#222222" rx="10" ry="10" style="stroke:#222222;stroke-width:1;"/><rect fill="#F1F1F1" height="33.9688" rx="12.5" ry="12.5" style="stroke:#181818;stroke-width:0.5;" width="265.5781" x="149.3916" y="120.9951"/><a href="arch://a1" target="_top" title="arch://a1" xlink:actuate="onRequest" xlink:href="arch://a1" xlink:show="new" xlink:title="arch://a1" xlink:type="simple"><text fill="#252327" font-family="sans-serif" font-size="12" lengthAdjust="spacing" textLength="245.5781" x="159.3916" y="142.1338">Select entities &amp; connections to promote</text></a><rect fill="#F1F1F1" height="33.9688" rx="12.5" ry="12.5" style="stroke:#181818;stroke-width:0.5;" width="234.6875" x="26" y="380.8701"/><a href="arch://a5" target="_top" title="arch://a5" xlink:actuate="onRequest" xlink:href="arch://a5" xlink:show="new" xlink:title="arch://a5" xlink:type="simple"><text fill="#252327" font-family="sans-serif" font-size="12" lengthAdjust="spacing" textLength="214.6875" x="36" y="402.0088">Submit branch for review (open PR)</text></a><line style="stroke:#000000;stroke-width:1.5;" x1="20" x2="20" y1="55.042" y2="490.8389"/><rect fill="#F1F1F1" height="33.9688" rx="12.5" ry="12.5" style="stroke:#181818;stroke-width:0.5;" width="404.6855" x="485.8506" y="174.9639"/><a href="arch://a2" target="_top" title="arch://a2" xlink:actuate="onRequest" xlink:href="arch://a2" xlink:show="new" xlink:title="arch://a2" xlink:type="simple"><text fill="#252327" font-family="sans-serif" font-size="12" lengthAdjust="spacing" textLength="384.6855" x="495.8506" y="196.1025">Detect &amp; resolve name/id conflicts (accept / enterprise / merge)</text></a><rect fill="#F1F1F1" height="33.9688" rx="12.5" ry="12.5" style="stroke:#181818;stroke-width:0.5;" width="248.7734" x="424.9697" y="326.9014"/><a href="arch://a4" target="_top" title="arch://a4" xlink:actuate="onRequest" xlink:href="arch://a4" xlink:show="new" xlink:title="arch://a4" xlink:type="simple"><text fill="#252327" font-family="sans-serif" font-size="12" lengthAdjust="spacing" textLength="228.7734" x="434.9697" y="348.04">Promote to enterprise working branch</text></a><rect fill="#F1F1F1" height="33.9688" rx="12.5" ry="12.5" style="stroke:#181818;stroke-width:0.5;" width="266.5742" x="693.7432" y="326.9014"/><a href="arch://a6" target="_top" title="arch://a6" xlink:actuate="onRequest" xlink:href="arch://a6" xlink:show="new" xlink:title="arch://a6" xlink:type="simple"><text fill="#252327" font-family="sans-serif" font-size="12" lengthAdjust="spacing" textLength="246.5742" x="703.7432" y="348.04">Block promotion with per-violation errors</text></a><ellipse cx="688.1934" cy="479.8389" fill="none" rx="11" ry="11" style="stroke:#222222;stroke-width:1;"/><ellipse cx="688.1934" cy="479.8389" fill="#222222" rx="6" ry="6" style="stroke:#222222;stroke-width:1;"/><line style="stroke:#000000;stroke-width:1.5;" x1="418.9697" x2="418.9697" y1="55.042" y2="490.8389"/><rect fill="#F1F1F1" height="33.9688" rx="12.5" ry="12.5" style="stroke:#181818;stroke-width:0.5;" width="279.0371" x="970.3174" y="228.9326"/><a href="arch://a3" target="_top" title="arch://a3" xlink:actuate="onRequest" xlink:href="arch://a3" xlink:show="new" xlink:title="arch://a3" xlink:type="simple"><text fill="#252327" font-family="sans-serif" font-size="12" lengthAdjust="spacing" textLength="259.0371" x="980.3174" y="250.0713">Check engagement schemata &#8839; enterprise</text></a><polygon fill="#F1F1F1" points="1006.7673,282.9014,1212.9045,282.9014,1224.9045,294.9014,1212.9045,306.9014,1006.7673,306.9014,994.7673,294.9014,1006.7673,282.9014" style="stroke:#181818;stroke-width:0.5;"/><a href="arch://d1" target="_top" title="arch://d1" xlink:actuate="onRequest" xlink:href="arch://d1" xlink:show="new" xlink:title="arch://d1" xlink:type="simple"><text fill="#252327" font-family="sans-serif" font-size="11" lengthAdjust="spacing" textLength="206.1372" x="1006.7673" y="298.7095">Engagement schemata &#8839; enterprise?</text></a><text fill="#000000" font-family="sans-serif" font-size="11" lengthAdjust="spacing" textLength="19.0083" x="975.759" y="292.3071">yes</text><text fill="#000000" font-family="sans-serif" font-size="11" lengthAdjust="spacing" textLength="13.7017" x="1224.9045" y="292.3071">no</text><polygon fill="#F1F1F1" points="1109.8359,424.8389,1121.8359,436.8389,1109.8359,448.8389,1097.8359,436.8389,1109.8359,424.8389" style="stroke:#181818;stroke-width:0.5;"/><line style="stroke:#000000;stroke-width:1.5;" x1="964.3174" x2="964.3174" y1="55.042" y2="490.8389"/><line style="stroke:#000000;stroke-width:1.5;" x1="1253.3545" x2="1253.3545" y1="55.042" y2="490.8389"/><line style="stroke:#181818;stroke-width:1;" x1="282.1807" x2="282.1807" y1="100.9951" y2="120.9951"/><polygon fill="#181818" points="278.1807,110.9951,282.1807,120.9951,286.1807,110.9951,282.1807,114.9951" style="stroke:#181818;stroke-width:1;"/><line style="stroke:#181818;stroke-width:1;" x1="1109.8359" x2="1109.8359" y1="262.9014" y2="282.9014"/><polygon fill="#181818" points="1105.8359,272.9014,1109.8359,282.9014,1113.8359,272.9014,1109.8359,276.9014" style="stroke:#181818;stroke-width:1;"/><line style="stroke:#181818;stroke-width:1;" x1="282.1807" x2="282.1807" y1="154.9639" y2="159.9639"/><line style="stroke:#181818;stroke-width:1;" x1="282.1807" x2="688.1934" y1="159.9639" y2="159.9639"/><line style="stroke:#181818;stroke-width:1;" x1="688.1934" x2="688.1934" y1="159.9639" y2="174.9639"/><polygon fill="#181818" points="684.1934,164.9639,688.1934,174.9639,692.1934,164.9639,688.1934,168.9639" style="stroke:#181818;stroke-width:1;"/><line style="stroke:#181818;stroke-width:1;" x1="688.1934" x2="688.1934" y1="208.9326" y2="213.9326"/><line style="stroke:#181818;stroke-width:1;" x1="688.1934" x2="1109.8359" y1="213.9326" y2="213.9326"/><line style="stroke:#181818;stroke-width:1;" x1="1109.8359" x2="1109.8359" y1="213.9326" y2="228.9326"/><polygon fill="#181818" points="1105.8359,218.9326,1109.8359,228.9326,1113.8359,218.9326,1109.8359,222.9326" style="stroke:#181818;stroke-width:1;"/><line style="stroke:#181818;stroke-width:1;" x1="549.3564" x2="549.3564" y1="360.8701" y2="365.8701"/><line style="stroke:#181818;stroke-width:1;" x1="549.3564" x2="143.3438" y1="365.8701" y2="365.8701"/><line style="stroke:#181818;stroke-width:1;" x1="143.3438" x2="143.3438" y1="365.8701" y2="380.8701"/><polygon fill="#181818" points="139.3438,370.8701,143.3438,380.8701,147.3438,370.8701,143.3438,374.8701" style="stroke:#181818;stroke-width:1;"/><line style="stroke:#181818;stroke-width:1;" x1="994.7673" x2="549.3564" y1="294.9014" y2="294.9014"/><line style="stroke:#181818;stroke-width:1;" x1="549.3564" x2="549.3564" y1="294.9014" y2="326.9014"/><polygon fill="#181818" points="545.3564,316.9014,549.3564,326.9014,553.3564,316.9014,549.3564,320.9014" style="stroke:#181818;stroke-width:1;"/><line style="stroke:#181818;stroke-width:1;" x1="1224.9045" x2="1236.9045" y1="294.9014" y2="294.9014"/><line style="stroke:#181818;stroke-width:1;" x1="1236.9045" x2="1236.9045" y1="294.9014" y2="312.9014"/><line style="stroke:#181818;stroke-width:1;" x1="1236.9045" x2="827.0303" y1="312.9014" y2="312.9014"/><line style="stroke:#181818;stroke-width:1;" x1="827.0303" x2="827.0303" y1="312.9014" y2="326.9014"/><polygon fill="#181818" points="823.0303,316.9014,827.0303,326.9014,831.0303,316.9014,827.0303,320.9014" style="stroke:#181818;stroke-width:1;"/><line style="stroke:#181818;stroke-width:1;" x1="143.3438" x2="143.3438" y1="414.8389" y2="436.8389"/><line style="stroke:#181818;stroke-width:1;" x1="143.3438" x2="1097.8359" y1="436.8389" y2="436.8389"/><polygon fill="#181818" points="1087.8359,432.8389,1097.8359,436.8389,1087.8359,440.8389,1091.8359,436.8389" style="stroke:#181818;stroke-width:1;"/><line style="stroke:#181818;stroke-width:1;" x1="827.0303" x2="827.0303" y1="360.8701" y2="418.8389"/><line style="stroke:#181818;stroke-width:1;" x1="827.0303" x2="1139.8359" y1="418.8389" y2="418.8389"/><line style="stroke:#181818;stroke-width:1;" x1="1139.8359" x2="1139.8359" y1="418.8389" y2="436.8389"/><line style="stroke:#181818;stroke-width:1;" x1="1139.8359" x2="1121.8359" y1="436.8389" y2="436.8389"/><polygon fill="#181818" points="1131.8359,432.8389,1121.8359,436.8389,1131.8359,440.8389,1127.8359,436.8389" style="stroke:#181818;stroke-width:1;"/><line style="stroke:#181818;stroke-width:1;" x1="1109.8359" x2="1109.8359" y1="448.8389" y2="453.8389"/><line style="stroke:#181818;stroke-width:1;" x1="1109.8359" x2="688.1934" y1="453.8389" y2="453.8389"/><line style="stroke:#181818;stroke-width:1;" x1="688.1934" x2="688.1934" y1="453.8389" y2="468.8389"/><polygon fill="#181818" points="684.1934,458.8389,688.1934,468.8389,692.1934,458.8389,688.1934,462.8389" style="stroke:#181818;stroke-width:1;"/><text fill="#000000" font-family="sans-serif" font-size="18" lengthAdjust="spacing" textLength="154.7314" x="142.1191" y="71.75">Author / AI Agent</text><text fill="#000000" font-family="sans-serif" font-size="18" lengthAdjust="spacing" textLength="194.3174" x="594.4849" y="71.75">Architecture Backend</text><text fill="#000000" font-family="sans-serif" font-size="18" lengthAdjust="spacing" textLength="65.6016" x="1076.0352" y="71.75">Verifier</text><?plantuml-src ZLB1Qjj04BthAmO2HJu44QTfm3qK9-sXjv3GvX1ysAn6qg3LZfWTsnXyB_GpyoKPoS5H287SbfbzRzwyDwcbs3jn7JIx7YLGRAyviC39_69-Fh_CqliFVs8vFX0g5n9cIXeGReGxLeHViNOrTXWLxbbQK0PjXhAYz489uHPxJgGikopRBzVQsBW2bhzXMHjgdoLrebcsU7Xmufj5KRWpkCE0Ni7wf8G9le3d6Ar47DCmep-CNws-6wV1IAsv5eGhvrkCvNxADuUVEFIDHZ1ns214rs51vK1R1VAQ87VUOwyc3L-r5z2Xr3WRv_n5eOfGtd2VmtM3lZNGqOVa6-oSEdZw_sz2Dd1G1VaHMvvDtVi0zMErcWsEHiXtc6QVsFRhCHlpQRBBrkAXMCEZkEYRWtFlqvWGNS3T-h4ZVK50PLy5DuHRoBatHJUtep5eLm5vvC-8-mPNWSskGtwM9cn96x1JEzqG1pUMK8GbZTInf2gp4-7-6G00?></g></svg>