<svg xmlns="http://www.w3.org/2000/svg" xmlns:xlink="http://www.w3.org/1999/xlink" contentStyleType="text/css" data-diagram-type="DESCRIPTION" height="514px" preserveAspectRatio="none" style="width:2259px;height:514px;background:#FAFAFA;" version="1.1" viewBox="0 0 2259 514" width="2259px" zoomAndPan="magnify"><?plantuml 1.2026.3?><defs/><g><rect fill="#FAFAFA" height="514" style="stroke:none;stroke-width:1;" width="2259" x="0" y="0"/><g class="title" data-source-line="156"><text fill="#000000" font-family="'Helvetica Neue, Helvetica, Arial, sans-serif'" font-size="14" font-weight="700" lengthAdjust="spacing" textLength="373.8027" x="939.0986" y="22.9951">One Enterprise Repository, Many Engagements</text></g><!--cluster Motivation--><g class="cluster" data-qualified-name="Motivation" data-source-line="158" id="ent0002"><rect fill="#F7EEF9" height="334" rx="2" ry="2" style="stroke:#7B3F9A;stroke-width:1;" width="823" x="7" y="44.2969"/><text fill="#000000" font-family="'Helvetica Neue, Helvetica, Arial, sans-serif'" font-size="12" font-weight="700" lengthAdjust="spacing" textLength="72.5918" x="382.2041" y="57.4355">Motivation</text></g><!--cluster Common--><g class="cluster" data-qualified-name="Common" data-source-line="166" id="ent0008"><rect fill="#EDE8E1" height="212" rx="2" ry="2" style="stroke:#8C7E6A;stroke-width:1;" width="256" x="854" y="44.2969"/><text fill="#000000" font-family="'Helvetica Neue, Helvetica, Arial, sans-serif'" font-size="12" font-weight="700" lengthAdjust="spacing" textLength="58.8457" x="952.5771" y="57.4355">Common</text></g><!--cluster Business--><g class="cluster" data-qualified-name="Business" data-source-line="171" id="ent0011"><rect fill="#FFFDEC" height="90" rx="2" ry="2" style="stroke:#B8860B;stroke-width:1;" width="208" x="1260" y="166.2969"/><text fill="#000000" font-family="'Helvetica Neue, Helvetica, Arial, sans-serif'" font-size="12" font-weight="700" lengthAdjust="spacing" textLength="59.9121" x="1334.0439" y="179.4355">Business</text></g><!--cluster Team / Project A--><g class="cluster" data-qualified-name="Team . Project A" data-source-line="175" id="ent0013"><rect fill="#FFFDEC" height="212" rx="2" ry="2" style="stroke:#B8860B;stroke-width:1;" width="457" x="950" y="288.2969"/><text fill="#000000" font-family="'Helvetica Neue, Helvetica, Arial, sans-serif'" font-size="12" font-weight="700" lengthAdjust="spacing" textLength="111.1875" x="1122.9063" y="301.4355">Team / Project A</text></g><!--cluster Team / Project B--><g class="cluster" data-qualified-name="Team . Project B" data-source-line="182" id="ent0018"><rect fill="#FFFDEC" height="90" rx="2" ry="2" style="stroke:#B8860B;stroke-width:1;" width="709" x="1536" y="288.2969"/><text fill="#000000" font-family="'Helvetica Neue, Helvetica, Arial, sans-serif'" font-size="12" font-weight="700" lengthAdjust="spacing" textLength="111.0469" x="1834.9766" y="301.4355">Team / Project B</text></g><!--cluster Application--><g class="cluster" data-qualified-name="Application" data-source-line="189" id="ent0023"><rect fill="#E8F8FF" height="90" rx="2" ry="2" style="stroke:#0078A0;stroke-width:1;" width="244" x="1436" y="410.2969"/><text fill="#000000" font-family="'Helvetica Neue, Helvetica, Arial, sans-serif'" font-size="12" font-weight="700" lengthAdjust="spacing" textLength="76.541" x="1519.7295" y="423.4355">Application</text></g><!--entity REQ_kOU3al--><g class="entity" data-qualified-name="Motivation.REQ_kOU3al" data-source-line="159" id="ent0003"><rect fill="#EDD6F0" height="42.1538" rx="2" ry="2" style="stroke:#7B3F9A;stroke-width:0.5;" width="180.9273" x="81.5" y="76.2969"/><path d="M97.5923,92.1123 L108.6692,92.1123 L106.4538,102.6353 L95.3769,102.6353" fill="#252327" style="stroke:none;stroke-width:0.5;"/><text fill="#000000" font-family="'Helvetica Neue, Helvetica, Arial, sans-serif'" font-size="12" lengthAdjust="spacing" textLength="134.959" x="117.4683" y="105.6206">Two-Tiered Repository</text></g><!--entity REQ_Gg4Hh4--><g class="entity" data-qualified-name="Motivation.REQ_Gg4Hh4" data-source-line="160" id="ent0004"><rect fill="#EDD6F0" height="42.1538" rx="2" ry="2" style="stroke:#7B3F9A;stroke-width:0.5;" width="179.4859" x="322.5" y="76.2969"/><path d="M338.5923,92.1123 L349.6692,92.1123 L347.4538,102.6353 L336.3769,102.6353" fill="#252327" style="stroke:none;stroke-width:0.5;"/><text fill="#000000" font-family="'Helvetica Neue, Helvetica, Arial, sans-serif'" font-size="12" lengthAdjust="spacing" textLength="133.5176" x="358.4683" y="105.6206">Promotion Mechanism</text></g><!--entity OUT_edEkJa--><g class="entity" data-qualified-name="Motivation.OUT_edEkJa" data-source-line="161" id="ent0005"><rect fill="#EDD6F0" height="42.1538" rx="2" ry="2" style="stroke:#7B3F9A;stroke-width:0.5;" width="414.3238" x="23" y="198.2969"/><ellipse cx="43.2462" cy="220.2046" fill="none" rx="5.9538" ry="5.9538" style="stroke:#252327;stroke-width:1.8;"/><ellipse cx="43.2462" cy="220.2046" fill="none" rx="3.0462" ry="3.0462" style="stroke:#252327;stroke-width:1.8;"/><path d="M47.0954,217.8923 L46.0431,216.4246 L50.3354,213.3784 L51.3877,214.8461" fill="#252327"/><path d="M47.1231,218.3353 L50.5846,218.3353 L50.5846,220.1353 L47.1231,220.1353" fill="#252327"/><ellipse cx="43.2462" cy="220.2046" fill="#252327" rx="1.2462" ry="1.2462" style="stroke:none;stroke-width:1.8;"/><text fill="#000000" font-family="'Helvetica Neue, Helvetica, Arial, sans-serif'" font-size="12" lengthAdjust="spacing" textLength="368.3555" x="58.9683" y="227.6206">Proven Patterns Promoted and Adopted Across Engagements</text></g><!--entity GOL_kCcPph--><g class="entity" data-qualified-name="Motivation.GOL_kCcPph" data-source-line="162" id="ent0006"><rect fill="#EDD6F0" height="42.1538" rx="2" ry="2" style="stroke:#7B3F9A;stroke-width:0.5;" width="326.5738" x="22.5" y="320.2969"/><ellipse cx="43.5769" cy="341.3738" fill="none" rx="6.6462" ry="6.6462" style="stroke:#252327;stroke-width:1.8;"/><ellipse cx="43.5769" cy="341.3738" fill="none" rx="4.0154" ry="4.0154" style="stroke:#252327;stroke-width:1.8;"/><ellipse cx="43.5769" cy="341.3738" fill="#252327" rx="1.8" ry="1.8" style="stroke:none;stroke-width:1.8;"/><text fill="#000000" font-family="'Helvetica Neue, Helvetica, Arial, sans-serif'" font-size="12" lengthAdjust="spacing" textLength="280.6055" x="58.4683" y="349.6206">Enable Cross-Engagement Architectural Reuse</text></g><!--entity GOL_Lm2Bn2--><g class="entity" data-qualified-name="Motivation.GOL_Lm2Bn2" data-source-line="163" id="ent0007"><rect fill="#EDD6F0" height="42.1538" rx="2" ry="2" style="stroke:#7B3F9A;stroke-width:0.5;" width="403.9234" x="410" y="320.2969"/><ellipse cx="431.0769" cy="341.3738" fill="none" rx="6.6462" ry="6.6462" style="stroke:#252327;stroke-width:1.8;"/><ellipse cx="431.0769" cy="341.3738" fill="none" rx="4.0154" ry="4.0154" style="stroke:#252327;stroke-width:1.8;"/><ellipse cx="431.0769" cy="341.3738" fill="#252327" rx="1.8" ry="1.8" style="stroke:none;stroke-width:1.8;"/><text fill="#000000" font-family="'Helvetica Neue, Helvetica, Arial, sans-serif'" font-size="12" lengthAdjust="spacing" textLength="357.9551" x="445.9683" y="349.6206">Plan Collaboratively in a Unified, Staged Repository System</text></g><!--entity PRC_0Rz5Ex--><g class="entity" data-qualified-name="Common.PRC_0Rz5Ex" data-source-line="167" id="ent0009"><rect fill="#E0D8CC" height="42.1538" rx="2" ry="2" style="stroke:#8C7E6A;stroke-width:0.5;" width="150.7281" x="924.5" y="76.2969"/><path d="M938.1,91.9738 L946.8231,91.9738 L946.8231,90.1738 L953.0538,97.3738 L946.8231,104.5738 L946.8231,102.7738 L938.1,102.7738" fill="#252327" style="stroke:none;stroke-width:0.5;"/><text fill="#000000" font-family="'Helvetica Neue, Helvetica, Arial, sans-serif'" font-size="12" lengthAdjust="spacing" textLength="104.7598" x="960.4683" y="105.6206">Promote Artifacts</text></g><!--entity SRV_Uv9Wx9--><g class="entity" data-qualified-name="Common.SRV_Uv9Wx9" data-source-line="168" id="ent0010"><rect fill="#E0D8CC" height="42.1538" rx="2" ry="2" style="stroke:#8C7E6A;stroke-width:0.5;" width="223.8238" x="870" y="198.2969"/><path d="M884.4308,213.9738 L894.4,213.9738 A3.8769,3.8769 0 0 1 894.4,224.7738 L884.4308,224.7738 A3.8769,3.8769 0 0 1 884.4308,213.9738" fill="#252327" style="stroke:none;stroke-width:0.5;"/><text fill="#000000" font-family="'Helvetica Neue, Helvetica, Arial, sans-serif'" font-size="12" lengthAdjust="spacing" textLength="177.8555" x="905.9683" y="227.6206">Repository Promotion Service</text></g><!--entity BOB_6Uok0b--><g class="entity" data-qualified-name="Business.BOB_6Uok0b" data-source-line="172" id="ent0012"><rect fill="#FFFAC8" height="42.1538" rx="2" ry="2" style="stroke:#B8860B;stroke-width:0.5;" width="175.8589" x="1276" y="198.2969"/><path d="M1290.0154,214.1123 L1304.1385,214.1123 L1304.1385,215.9123 L1290.0154,215.9123" fill="#252327"/><path d="M1290.0154,222.8353 L1304.1385,222.8353 L1304.1385,224.6353 L1290.0154,224.6353" fill="#252327"/><path d="M1290.0154,215.9123 L1290.0154,222.8353 L1291.8154,222.8353 L1291.8154,215.9123" fill="#252327"/><path d="M1302.3385,215.9123 L1302.3385,222.8353 L1304.1385,222.8353 L1304.1385,215.9123" fill="#252327"/><path d="M1290.0154,216.12 L1304.1385,216.12 L1304.1385,217.92 L1290.0154,217.92" fill="#252327"/><text fill="#000000" font-family="'Helvetica Neue, Helvetica, Arial, sans-serif'" font-size="12" lengthAdjust="spacing" textLength="129.8906" x="1311.9683" y="227.6206">Enterprise Repository</text></g><!--entity BOB_so7gfN--><g class="entity" data-qualified-name="Team . Project A.BOB_so7gfN" data-source-line="176" id="ent0014"><rect fill="#FFFAC8" height="42.1538" rx="2" ry="2" style="stroke:#B8860B;stroke-width:0.5;" width="190.6714" x="1178.5" y="320.2969"/><path d="M1192.5154,336.1123 L1206.6385,336.1123 L1206.6385,337.9123 L1192.5154,337.9123" fill="#252327"/><path d="M1192.5154,344.8353 L1206.6385,344.8353 L1206.6385,346.6353 L1192.5154,346.6353" fill="#252327"/><path d="M1192.5154,337.9123 L1192.5154,344.8353 L1194.3154,344.8353 L1194.3154,337.9123" fill="#252327"/><path d="M1204.8385,337.9123 L1204.8385,344.8353 L1206.6385,344.8353 L1206.6385,337.9123" fill="#252327"/><path d="M1192.5154,338.12 L1206.6385,338.12 L1206.6385,339.92 L1192.5154,339.92" fill="#252327"/><text fill="#000000" font-family="'Helvetica Neue, Helvetica, Arial, sans-serif'" font-size="12" lengthAdjust="spacing" textLength="144.7031" x="1214.4683" y="349.6206">Engagement Repository</text></g><!--entity ACT_Nn7Oo7--><g class="entity" data-qualified-name="Team . Project A.ACT_Nn7Oo7" data-source-line="177" id="ent0015"><rect fill="#FFFAC8" height="42.1538" rx="2" ry="2" style="stroke:#B8860B;stroke-width:0.5;" width="100.0386" x="966" y="442.2969"/><ellipse cx="987.0769" cy="457.8353" fill="none" rx="2.6308" ry="2.6308" style="stroke:#252327;stroke-width:1.8;"/><path d="M986.1769,460.4661 L986.1769,466.143 L987.9769,466.143 L987.9769,460.4661" fill="#252327"/><path d="M983.8646,471.0446 L982.5354,469.8261 L986.4123,465.5338 L987.7415,466.7523" fill="#252327"/><path d="M986.4123,466.7523 L987.7415,465.5338 L991.6185,469.8261 L990.2892,471.0446" fill="#252327"/><path d="M982.9231,462.6123 L991.2308,462.6123 L991.2308,464.4123 L982.9231,464.4123" fill="#252327"/><text fill="#000000" font-family="'Helvetica Neue, Helvetica, Arial, sans-serif'" font-size="12" lengthAdjust="spacing" textLength="54.0703" x="1001.9683" y="471.6206">Architect</text></g><!--entity ACT_Pp8Qq8--><g class="entity" data-qualified-name="Team . Project A.ACT_Pp8Qq8" data-source-line="178" id="ent0016"><rect fill="#FFFAC8" height="42.1538" rx="2" ry="2" style="stroke:#B8860B;stroke-width:0.5;" width="107.6851" x="1126" y="442.2969"/><ellipse cx="1147.0769" cy="457.8353" fill="none" rx="2.6308" ry="2.6308" style="stroke:#252327;stroke-width:1.8;"/><path d="M1146.1769,460.4661 L1146.1769,466.143 L1147.9769,466.143 L1147.9769,460.4661" fill="#252327"/><path d="M1143.8646,471.0446 L1142.5354,469.8261 L1146.4123,465.5338 L1147.7415,466.7523" fill="#252327"/><path d="M1146.4123,466.7523 L1147.7415,465.5338 L1151.6185,469.8261 L1150.2892,471.0446" fill="#252327"/><path d="M1142.9231,462.6123 L1151.2308,462.6123 L1151.2308,464.4123 L1142.9231,464.4123" fill="#252327"/><text fill="#000000" font-family="'Helvetica Neue, Helvetica, Arial, sans-serif'" font-size="12" lengthAdjust="spacing" textLength="61.7168" x="1161.9683" y="471.6206">Developer</text></g><!--entity ROL_udXPfB--><g class="entity" data-qualified-name="Team . Project A.ROL_udXPfB" data-source-line="179" id="ent0017"><rect fill="#E0D8CC" height="42.1538" rx="2" ry="2" style="stroke:#8C7E6A;stroke-width:0.5;" width="97.0503" x="1294.5" y="442.2969"/><path d="M1308.6538,457.143 L1319.4538,457.143 A2.7692,2.7692 0 0 1 1322.2231,459.9123 L1322.2231,466.8353 A2.7692,2.7692 0 0 1 1319.4538,469.6046 L1308.6538,469.6046" fill="#252327" style="stroke:none;stroke-width:0.5;"/><text fill="#000000" font-family="'Helvetica Neue, Helvetica, Arial, sans-serif'" font-size="12" lengthAdjust="spacing" textLength="51.082" x="1330.4683" y="471.6206">AI Agent</text></g><!--entity BOB_so7gfN__2--><g class="entity" data-qualified-name="Team . Project B.BOB_so7gfN__2" data-source-line="183" id="ent0019"><rect fill="#FFFAC8" height="42.1538" rx="2" ry="2" style="stroke:#B8860B;stroke-width:0.5;" width="190.6714" x="1552.5" y="320.2969"/><path d="M1566.5154,336.1123 L1580.6385,336.1123 L1580.6385,337.9123 L1566.5154,337.9123" fill="#252327"/><path d="M1566.5154,344.8353 L1580.6385,344.8353 L1580.6385,346.6353 L1566.5154,346.6353" fill="#252327"/><path d="M1566.5154,337.9123 L1566.5154,344.8353 L1568.3154,344.8353 L1568.3154,337.9123" fill="#252327"/><path d="M1578.8385,337.9123 L1578.8385,344.8353 L1580.6385,344.8353 L1580.6385,337.9123" fill="#252327"/><path d="M1566.5154,338.12 L1580.6385,338.12 L1580.6385,339.92 L1566.5154,339.92" fill="#252327"/><text fill="#000000" font-family="'Helvetica Neue, Helvetica, Arial, sans-serif'" font-size="12" lengthAdjust="spacing" textLength="144.7031" x="1588.4683" y="349.6206">Engagement Repository</text></g><!--entity ACT_Nn7Oo7__2--><g class="entity" data-qualified-name="Team . Project B.ACT_Nn7Oo7__2" data-source-line="184" id="ent0020"><rect fill="#FFFAC8" height="42.1538" rx="2" ry="2" style="stroke:#B8860B;stroke-width:0.5;" width="100.0386" x="1804" y="320.2969"/><ellipse cx="1825.0769" cy="335.8353" fill="none" rx="2.6308" ry="2.6308" style="stroke:#252327;stroke-width:1.8;"/><path d="M1824.1769,338.4661 L1824.1769,344.143 L1825.9769,344.143 L1825.9769,338.4661" fill="#252327"/><path d="M1821.8646,349.0446 L1820.5354,347.8261 L1824.4123,343.5338 L1825.7415,344.7523" fill="#252327"/><path d="M1824.4123,344.7523 L1825.7415,343.5338 L1829.6185,347.8261 L1828.2892,349.0446" fill="#252327"/><path d="M1820.9231,340.6123 L1829.2308,340.6123 L1829.2308,342.4123 L1820.9231,342.4123" fill="#252327"/><text fill="#000000" font-family="'Helvetica Neue, Helvetica, Arial, sans-serif'" font-size="12" lengthAdjust="spacing" textLength="54.0703" x="1839.9683" y="349.6206">Architect</text></g><!--entity ACT_Pp8Qq8__2--><g class="entity" data-qualified-name="Team . Project B.ACT_Pp8Qq8__2" data-source-line="185" id="ent0021"><rect fill="#FFFAC8" height="42.1538" rx="2" ry="2" style="stroke:#B8860B;stroke-width:0.5;" width="107.6851" x="1964" y="320.2969"/><ellipse cx="1985.0769" cy="335.8353" fill="none" rx="2.6308" ry="2.6308" style="stroke:#252327;stroke-width:1.8;"/><path d="M1984.1769,338.4661 L1984.1769,344.143 L1985.9769,344.143 L1985.9769,338.4661" fill="#252327"/><path d="M1981.8646,349.0446 L1980.5354,347.8261 L1984.4123,343.5338 L1985.7415,344.7523" fill="#252327"/><path d="M1984.4123,344.7523 L1985.7415,343.5338 L1989.6185,347.8261 L1988.2892,349.0446" fill="#252327"/><path d="M1980.9231,340.6123 L1989.2308,340.6123 L1989.2308,342.4123 L1980.9231,342.4123" fill="#252327"/><text fill="#000000" font-family="'Helvetica Neue, Helvetica, Arial, sans-serif'" font-size="12" lengthAdjust="spacing" textLength="61.7168" x="1999.9683" y="349.6206">Developer</text></g><!--entity ROL_udXPfB__2--><g class="entity" data-qualified-name="Team . Project B.ROL_udXPfB__2" data-source-line="186" id="ent0022"><rect fill="#E0D8CC" height="42.1538" rx="2" ry="2" style="stroke:#8C7E6A;stroke-width:0.5;" width="97.0503" x="2132.5" y="320.2969"/><path d="M2146.6538,335.143 L2157.4538,335.143 A2.7692,2.7692 0 0 1 2160.2231,337.9123 L2160.2231,344.8353 A2.7692,2.7692 0 0 1 2157.4538,347.6046 L2146.6538,347.6046" fill="#252327" style="stroke:none;stroke-width:0.5;"/><text fill="#000000" font-family="'Helvetica Neue, Helvetica, Arial, sans-serif'" font-size="12" lengthAdjust="spacing" textLength="51.082" x="2168.4683" y="349.6206">AI Agent</text></g><!--entity DOB_4dO6js--><g class="entity" data-qualified-name="Application.DOB_4dO6js" data-source-line="190" id="ent0024"><rect fill="#CCF2FF" height="42.1538" rx="2" ry="2" style="stroke:#0078A0;stroke-width:0.5;" width="212.9078" x="1451.5" y="442.2969"/><path d="M1465.6538,457.5584 L1479.5,457.5584 L1479.5,459.3584 L1465.6538,459.3584" fill="#252327"/><path d="M1465.6538,467.3892 L1479.5,467.3892 L1479.5,469.1892 L1465.6538,469.1892" fill="#252327"/><path d="M1465.6538,459.3584 L1465.6538,467.3892 L1467.4538,467.3892 L1467.4538,459.3584" fill="#252327"/><path d="M1477.7,459.3584 L1477.7,467.3892 L1479.5,467.3892 L1479.5,459.3584" fill="#252327"/><path d="M1465.6538,459.1507 L1479.5,459.1507 L1479.5,460.9507 L1465.6538,460.9507" fill="#252327"/><text fill="#000000" font-family="'Helvetica Neue, Helvetica, Arial, sans-serif'" font-size="12" lengthAdjust="spacing" textLength="166.9395" x="1487.4683" y="471.6206">Global Entity Reference File</text></g><!--link REQ_kOU3al to REQ_Gg4Hh4--><!--link REQ_Gg4Hh4 to OUT_edEkJa--><!--link REQ_Gg4Hh4 to OUT_edEkJa--><g class="link" data-entity-1="ent0004" data-entity-2="ent0005" data-link-type="extension" data-source-line="218" id="lnk49"><path d="M398.83,118.5469 C398.83,140.9369 398.83,157.9869 398.83,180.2869" fill="none" id="REQ_Gg4Hh4-to-OUT_edEkJa" style="stroke:#181818;stroke-width:1;stroke-dasharray:7,7;"/><polygon fill="none" points="398.83,198.2869,404.83,180.2869,392.83,180.2869,398.83,198.2869" style="stroke:#181818;stroke-width:1;"/></g><!--link OUT_edEkJa to GOL_kCcPph--><!--link OUT_edEkJa to GOL_kCcPph--><g class="link" data-entity-1="ent0005" data-entity-2="ent0006" data-link-type="extension" data-source-line="217" id="lnk48"><path d="M240.67,240.5469 C240.67,262.9369 240.67,279.9869 240.67,302.2869" fill="none" id="OUT_edEkJa-to-GOL_kCcPph" style="stroke:#181818;stroke-width:1;stroke-dasharray:7,7;"/><polygon fill="none" points="240.67,320.2869,246.67,302.2869,234.67,302.2869,240.67,320.2869" style="stroke:#181818;stroke-width:1;"/></g><!--link GOL_kCcPph to GOL_Lm2Bn2--><!--link PRC_0Rz5Ex to SRV_Uv9Wx9--><!--link PRC_0Rz5Ex to SRV_Uv9Wx9--><g class="link" data-entity-1="ent0009" data-entity-2="ent0010" data-link-type="extension" data-source-line="220" id="lnk51"><path d="M1025.17,118.5469 C1025.17,140.9369 1025.17,157.9869 1025.17,180.2869" fill="none" id="PRC_0Rz5Ex-to-SRV_Uv9Wx9" style="stroke:#181818;stroke-width:1;stroke-dasharray:7,7;"/><polygon fill="none" points="1025.17,198.2869,1031.17,180.2869,1019.17,180.2869,1025.17,198.2869" style="stroke:#181818;stroke-width:1;"/></g><!--link BOB_so7gfN to ACT_Nn7Oo7--><!--link ACT_Nn7Oo7 to BOB_so7gfN--><g class="link" data-entity-1="ent0015" data-entity-2="ent0014" data-link-type="dependency" data-source-line="209" id="lnk38"><path d="M1032.67,442.2069 C1032.67,409.0069 1032.67,348.2969 1032.67,348.2969 C1032.67,348.2969 1104.89,348.2969 1172.27,348.2969" fill="none" id="ACT_Nn7Oo7-to-BOB_so7gfN" style="stroke:#181818;stroke-width:1;"/><polygon fill="#181818" points="1178.27,348.2969,1169.27,344.2969,1173.27,348.2969,1169.27,352.2969,1178.27,348.2969" style="stroke:#181818;stroke-width:1;"/></g><!--link ACT_Nn7Oo7 to ACT_Pp8Qq8--><!--link ACT_Pp8Qq8 to ROL_udXPfB--><!--link BOB_so7gfN__2 to ACT_Nn7Oo7__2--><!--link ACT_Nn7Oo7__2 to ACT_Pp8Qq8__2--><!--link ACT_Pp8Qq8__2 to ROL_udXPfB__2--><!--link BOB_6Uok0b to BOB_so7gfN--><!--link BOB_6Uok0b to BOB_so7gfN--><g class="link" data-entity-1="ent0012" data-entity-2="ent0014" data-link-type="association" data-source-line="212" id="lnk41"><path d="M1338.33,240.5469 C1338.33,262.9369 1338.33,297.9869 1338.33,320.2869" fill="none" id="BOB_6Uok0b-BOB_so7gfN-1" style="stroke:#181818;stroke-width:1;"/><text fill="#000000" font-family="'Helvetica Neue, Helvetica, Arial, sans-serif'" font-size="12" lengthAdjust="spacing" textLength="672.1641" x="665.33" y="277.5555">1 -&gt; 1..* | An enterprise repository serves and receives promotions from one or more engagement repositories.</text></g><!--link BOB_so7gfN to BOB_so7gfN__2--><!--link ACT_Pp8Qq8 to BOB_so7gfN--><g class="link" data-entity-1="ent0016" data-entity-2="ent0014" data-link-type="dependency" data-source-line="210" id="lnk39"><path d="M1206.25,442.0469 C1206.25,419.6569 1206.25,390.6069 1206.25,368.3069" fill="none" id="ACT_Pp8Qq8-to-BOB_so7gfN" style="stroke:#181818;stroke-width:1;"/><polygon fill="#181818" points="1206.25,362.3069,1202.25,371.3069,1206.25,367.3069,1210.25,371.3069,1206.25,362.3069" style="stroke:#181818;stroke-width:1;"/></g><!--link PRC_0Rz5Ex to BOB_6Uok0b--><g class="link" data-entity-1="ent0009" data-entity-2="ent0012" data-link-type="dependency" data-source-line="211" id="lnk40"><path d="M1075.86,90.2969 C1182.54,90.2969 1364,90.2969 1364,90.2969 C1364,90.2969 1364,155.7269 1364,192.2869" fill="none" id="PRC_0Rz5Ex-to-BOB_6Uok0b" style="stroke:#181818;stroke-width:1;"/><polygon fill="#181818" points="1364,198.2869,1368,189.2869,1364,193.2869,1360,189.2869,1364,198.2869" style="stroke:#181818;stroke-width:1;"/></g><!--link BOB_6Uok0b to DOB_4dO6js--><g class="link" data-entity-1="ent0012" data-entity-2="ent0024" data-link-type="association" data-source-line="213" id="lnk43"><path d="M1421.5,240.5269 C1421.5,299.8869 1421.5,463.2969 1421.5,463.2969 C1421.5,463.2969 1434.01,463.2969 1451.46,463.2969" fill="none" id="BOB_6Uok0b-DOB_4dO6js" style="stroke:#181818;stroke-width:1;"/></g><!--link PRC_0Rz5Ex to BOB_so7gfN--><g class="link" data-entity-1="ent0009" data-entity-2="ent0014" data-link-type="dependency" data-source-line="214" id="lnk44"><path d="M1075.67,104.2969 C1141.78,104.2969 1227.25,104.2969 1227.25,104.2969 C1227.25,104.2969 1227.25,256.2669 1227.25,314.2669" fill="none" id="PRC_0Rz5Ex-to-BOB_so7gfN" style="stroke:#181818;stroke-width:1;"/><polygon fill="#181818" points="1227.25,320.2669,1231.25,311.2669,1227.25,315.2669,1223.25,311.2669,1227.25,320.2669" style="stroke:#181818;stroke-width:1;"/></g><!--link BOB_so7gfN to DOB_4dO6js--><g class="link" data-entity-1="ent0014" data-entity-2="ent0024" data-link-type="association" data-source-line="215" id="lnk46"><path d="M1369.81,348.2969 C1432.27,348.2969 1502.25,348.2969 1502.25,348.2969 C1502.25,348.2969 1502.25,409.0069 1502.25,442.2069" fill="none" id="BOB_so7gfN-DOB_4dO6js" style="stroke:#181818;stroke-width:1;"/></g><!--link ROL_udXPfB to BOB_so7gfN--><g class="link" data-entity-1="ent0017" data-entity-2="ent0014" data-link-type="association" data-source-line="216" id="lnk47"><path d="M1332,442.0469 C1332,419.6569 1332,384.6069 1332,362.3069" fill="none" id="ROL_udXPfB-BOB_so7gfN" style="stroke:#181818;stroke-width:1;"/></g><!--link REQ_kOU3al to OUT_edEkJa--><g class="link" data-entity-1="ent0003" data-entity-2="ent0005" data-link-type="extension" data-source-line="219" id="lnk50"><path d="M172,118.5469 C172,140.9369 172,157.9869 172,180.2869" fill="none" id="REQ_kOU3al-to-OUT_edEkJa" style="stroke:#181818;stroke-width:1;stroke-dasharray:7,7;"/><polygon fill="none" points="172,198.2869,178,180.2869,166,180.2869,172,198.2869" style="stroke:#181818;stroke-width:1;"/></g><!--reverse link REQ_Gg4Hh4 to SRV_Uv9Wx9--><g class="link" data-entity-1="ent0004" data-entity-2="ent0010" data-link-type="extension" data-source-line="221" id="lnk53"><path d="M519.57,97.2969 C659.78,97.2969 897.25,97.2969 897.25,97.2969 C897.25,97.2969 897.25,163.0969 897.25,198.0469" fill="none" id="REQ_Gg4Hh4-backto-SRV_Uv9Wx9" style="stroke:#181818;stroke-width:1;stroke-dasharray:7,7;"/><polygon fill="none" points="501.57,97.2969,519.57,103.2969,519.57,91.2969,501.57,97.2969" style="stroke:#181818;stroke-width:1;"/></g><?plantuml-src xLdhR-Cs4l_klu9L3-XT4IcoNfONIG3RiNTxo6xIFBO770u6BT4M6vbKATdUfEt_VaDPiUY7b3XnWNu8zX6AvCpyE4yE4z6Ge3GZWl3i8I6DHdfFMO85dgAGZF4ipWQSPL_mb23j4udd9AC1Hb_8Z1oXrVSHwWYAuoEKOfRgAH5qhErcT4CV2MfQoc8QuP0lA9kWCOvJegm8FcDXm0KZ0ZdA_0W7zvDyiSTZBj3tWuxyeqAFAIFoE8YBBEBA0kCXIKc2F5CLXDczdFJDndU05MZHDOc7ju9E9d0MDlddMF3f4Shu4OhnYCJ_Gd82wVePpAtHN1CSqqUSKSugY0pZZpgguLso1-4D4VEzy7NIb0Uq3f-krz0CByWuUnNXDPr4Ur060KdJIaLi7UidDevdX0MadaGnEGaop2OnEJdf94aCFYnHVWIlIa2VPsVezmP2tKr7w_i3Vp2GAro4H1IpfjdoEsRZpztikxCKKARfSxm7Wy5vlxV9k-lxdjcjujtZq-aBK9_t_NvpaxFVQ_MzJXNdppoZynVfPD3gzmVjJUwjhZreLt8V5JePuY3ZeaOZdPw_dqPMdFdeLvWz9EiGP_WPjhtUmDhNFoOSnzMME_S6vdwwvRCiu5DoI9Q9u38SArcQvtwljvz_2VBRZ0eo9Imx95B1Ot98cAdChy5hMKRljVMzjhxNrlVQ-bvRtslhUsqzQ6rD4q4pWlw1HH3HASx8SDtnqKawdw1lqvYbfrgKPSc7u-F5Oc4iR8EBoR5bckOnxD3Gd995btyxrKnaegO7VxMpau2A82OeW6bVGy73gUPeI9ngJQEj8JIcSNogCSw81kLTy7jogdrlkPPjjPucz0KDiqWIsDhnsKc2imY5fzhdbc6xo3NQvjmnccO4o-PN-Vce5LoV-AX4hk7vg6aRhdFX62qBQhpXUHSjmxLGst2z2zzmODqq7AUMJKwGRrjIvBJDfc7v1KTOiwsbe6Vmc2Pg6OuRUJ2QoqDyadExYAIIp-gijOpwjvbhXSm2LIB7i42p9lo_X6Ozfz-S2WZSLv2vG3MNXt-ofLjF1FhszwSgH7dkIm1MgLn9iWTIjoqTmOO3ILXFdc1NUC8w5H2qNq7cGjI0uloLufhFghkrFrKkoZ7Qxai0LgbR5fz3Po4_pqAEuRyg2rNnirwPrQhuoUKDFQquBldlvbUboQBi7aoPaBeAk8PNADH-gmAsU5g6zRPI0QxNz95djEsBjk5OuCH-wm8IDIHns_1WQClC3GN1hey0cJ0WMrjkPCcia_joFhcBhEv4qaiEQDNYvdEmpE-1BffGaUolbk77ZY7hhAKNF-Swe86CwJskZBBx43M0bNlLWK0xXYEhLUJBqWjL66f3fFjlWGXtj4FbTl0oDsePFhQGXV8jyDEQk-Mt3gDFzXlW5bV0WrKZAtS1y7KCBe3aloLkwVy-9F2jUHtcNum_umaqkcZ4impQtf3AkomqSOr6HZDG-oNqotsM4G77J6NhdF2KmatquGXznkm1rYPuadjFscYixi58Azj13TKqXmh5oMwd_3qDS4nEcuRxvncwNN3zbX91GWM95B3U7U0KNVT_7jvVtjautb_AbU1JBi6YpoI8CAFfj5B6nudpANAgPHHPVfF_d31qXJFGAqiBUN0cp4BK2NaYnvr0SCWZYdubXh9N0_cNTxT34lRl_ushvSjwlIQyp_08DlKaTxtaZZgI90CcCm4L_fhCKY855iqcIFjuUJ6yxmLNIRI7jAiOCmHTJen7N803p4dyW2X36DqnEgOaF48t6K1GxObk7jACJBUbNqojBhEWJL8TRVcY8JVlVDke05gawHrc9w29Z8wXtSeLNdQo0EBgkZSqhn_T_hTgpaNqht5MpbRwriroenHIDeqWvERww_1ktlxbMtlZf4_lGfAYuese0jD6MxBX3pk2MuhOVXW1SDtBxj2xu_VcQ0FSBO4--5WUBx-9TmuDSkMdBmIPyjPa_EK5qlA-UatOAXBM13mzF07_Jkzs-8MrBddhLVpF2KG1JuYeut-L-3__vjVaBgY9wwX_Gfq9A2ZFLCj73PcY86ncuN-knjrwUtN_7lOQ3gs_scIl5R67rMf5x6quoMtTTihxioIgVewkWA2qp6j8FiPy1BaVCWBD7i1mOoYq32uo0nhdQMhzFHD0deFXdF3I-pML27z0kgwZpYpZUemVe59zG70v8dXPrt8la7blKc1CvVP6MQUH_j-8XY5X_nFovLzNosivtDgb5C5okBLBALxbSEUkeiYKgNvhbvAWIy_TsgKaYNAuSrSHwkLmMnDb5A_5IerGwJLhNpMYd_Qklce0oBrb4IWtXdp1T3NprgXcFTx1RtgSiUMrCrrJbdwcSbGLjBwY6Yi7SgOMAXMkAXnzWCioR6qQne_e3zHXY9IrK9GbMrPdakPE3055gFn8difuklnr4Lof4HTeoWK1Bglaj-92IMeqod11-YpHLOmL9oZEjukmM2ejKn2gYqf0vByBLA90YQXyIGaZ9IGtbnIO-P8I2kKG6RD4BYhn-ty0?></g></svg>