<svg xmlns="http://www.w3.org/2000/svg" xmlns:xlink="http://www.w3.org/1999/xlink" contentStyleType="text/css" data-diagram-type="DESCRIPTION" height="514px" preserveAspectRatio="none" style="width:2241px;height:514px;background:#FAFAFA;" version="1.1" viewBox="0 0 2241 514" width="2241px" zoomAndPan="magnify"><?plantuml 1.2026.3?><defs/><g><rect fill="#FAFAFA" height="514" style="stroke:none;stroke-width:1;" width="2241" x="0" y="0"/><g class="title" data-source-line="156"><text fill="#000000" font-family="'Helvetica Neue, Helvetica, Arial, sans-serif'" font-size="14" font-weight="700" lengthAdjust="spacing" textLength="373.8027" x="930.0986" y="22.9951">One Enterprise Repository, Many Engagements</text></g><!--cluster Motivation--><g class="cluster" data-qualified-name="Motivation" data-source-line="158" id="ent0002"><rect fill="#F7EEF9" height="334" rx="2" ry="2" style="stroke:#7B3F9A;stroke-width:1;" width="956" x="7" y="44.2969"/><text fill="#000000" font-family="'Helvetica Neue, Helvetica, Arial, sans-serif'" font-size="12" font-weight="700" lengthAdjust="spacing" textLength="72.5918" x="448.7041" y="57.4355">Motivation</text></g><!--cluster Common--><g class="cluster" data-qualified-name="Common" data-source-line="167" id="ent0009"><rect fill="#EDE8E1" height="212" rx="2" ry="2" style="stroke:#8C7E6A;stroke-width:1;" width="256" x="991" y="44.2969"/><text fill="#000000" font-family="'Helvetica Neue, Helvetica, Arial, sans-serif'" font-size="12" font-weight="700" lengthAdjust="spacing" textLength="58.8457" x="1089.5771" y="57.4355">Common</text></g><!--cluster Business--><g class="cluster" data-qualified-name="Business" data-source-line="172" id="ent0012"><rect fill="#FFFDEC" height="90" rx="2" ry="2" style="stroke:#B8860B;stroke-width:1;" width="208" x="1397" y="166.2969"/><text fill="#000000" font-family="'Helvetica Neue, Helvetica, Arial, sans-serif'" font-size="12" font-weight="700" lengthAdjust="spacing" textLength="59.9121" x="1471.0439" y="179.4355">Business</text></g><!--cluster Team / Project A--><g class="cluster" data-qualified-name="Team . Project A" data-source-line="176" id="ent0014"><rect fill="#FFFDEC" height="212" rx="2" ry="2" style="stroke:#B8860B;stroke-width:1;" width="457" x="1011" y="288.2969"/><text fill="#000000" font-family="'Helvetica Neue, Helvetica, Arial, sans-serif'" font-size="12" font-weight="700" lengthAdjust="spacing" textLength="111.1875" x="1183.9063" y="301.4355">Team / Project A</text></g><!--cluster Team / Project B--><g class="cluster" data-qualified-name="Team . Project B" data-source-line="183" id="ent0019"><rect fill="#FFFDEC" height="212" rx="2" ry="2" style="stroke:#B8860B;stroke-width:1;" width="457" x="1770" y="288.2969"/><text fill="#000000" font-family="'Helvetica Neue, Helvetica, Arial, sans-serif'" font-size="12" font-weight="700" lengthAdjust="spacing" textLength="111.0469" x="1942.9766" y="301.4355">Team / Project B</text></g><!--cluster Application--><g class="cluster" data-qualified-name="Application" data-source-line="190" id="ent0024"><rect fill="#E8F8FF" height="90" rx="2" ry="2" style="stroke:#0078A0;stroke-width:1;" width="244" x="1497" y="410.2969"/><text fill="#000000" font-family="'Helvetica Neue, Helvetica, Arial, sans-serif'" font-size="12" font-weight="700" lengthAdjust="spacing" textLength="76.541" x="1580.7295" y="423.4355">Application</text></g><!--entity REQ_kOU3al--><g class="entity" data-qualified-name="Motivation.REQ_kOU3al" data-source-line="159" id="ent0003"><rect fill="#EDD6F0" height="42.1538" rx="2" ry="2" style="stroke:#7B3F9A;stroke-width:0.5;" width="180.9273" x="409.5" y="76.2969"/><path d="M425.5923,92.1123 L436.6692,92.1123 L434.4538,102.6353 L423.3769,102.6353" fill="#252327" style="stroke:none;stroke-width:0.5;"/><text fill="#000000" font-family="'Helvetica Neue, Helvetica, Arial, sans-serif'" font-size="12" lengthAdjust="spacing" textLength="134.959" x="445.4683" y="105.6206">Two-Tiered Repository</text></g><!--entity REQ_Gg4Hh4--><g class="entity" data-qualified-name="Motivation.REQ_Gg4Hh4" data-source-line="160" id="ent0004"><rect fill="#EDD6F0" height="42.1538" rx="2" ry="2" style="stroke:#7B3F9A;stroke-width:0.5;" width="179.4859" x="650.5" y="76.2969"/><path d="M666.5923,92.1123 L677.6692,92.1123 L675.4538,102.6353 L664.3769,102.6353" fill="#252327" style="stroke:none;stroke-width:0.5;"/><text fill="#000000" font-family="'Helvetica Neue, Helvetica, Arial, sans-serif'" font-size="12" lengthAdjust="spacing" textLength="133.5176" x="686.4683" y="105.6206">Promotion Mechanism</text></g><!--entity OUT_edEkJa--><g class="entity" data-qualified-name="Motivation.OUT_edEkJa" data-source-line="161" id="ent0005"><rect fill="#EDD6F0" height="42.1538" rx="2" ry="2" style="stroke:#7B3F9A;stroke-width:0.5;" width="414.3238" x="533" y="198.2969"/><ellipse cx="553.2462" cy="220.2046" fill="none" rx="5.9538" ry="5.9538" style="stroke:#252327;stroke-width:1.8;"/><ellipse cx="553.2462" cy="220.2046" fill="none" rx="3.0462" ry="3.0462" style="stroke:#252327;stroke-width:1.8;"/><path d="M557.0954,217.8923 L556.0431,216.4246 L560.3354,213.3784 L561.3877,214.8461" fill="#252327"/><path d="M557.1231,218.3353 L560.5846,218.3353 L560.5846,220.1353 L557.1231,220.1353" fill="#252327"/><ellipse cx="553.2462" cy="220.2046" fill="#252327" rx="1.2462" ry="1.2462" style="stroke:none;stroke-width:1.8;"/><text fill="#000000" font-family="'Helvetica Neue, Helvetica, Arial, sans-serif'" font-size="12" lengthAdjust="spacing" textLength="368.3555" x="568.9683" y="227.6206">Proven Patterns Promoted and Adopted Across Engagements</text></g><!--entity OUT_620dTh--><g class="entity" data-qualified-name="Motivation.OUT_620dTh" data-source-line="162" id="ent0006"><rect fill="#EDD6F0" height="42.1538" rx="2" ry="2" style="stroke:#7B3F9A;stroke-width:0.5;" width="450.441" x="23" y="198.2969"/><ellipse cx="43.2462" cy="220.2046" fill="none" rx="5.9538" ry="5.9538" style="stroke:#252327;stroke-width:1.8;"/><ellipse cx="43.2462" cy="220.2046" fill="none" rx="3.0462" ry="3.0462" style="stroke:#252327;stroke-width:1.8;"/><path d="M47.0954,217.8923 L46.0431,216.4246 L50.3354,213.3784 L51.3877,214.8461" fill="#252327"/><path d="M47.1231,218.3353 L50.5846,218.3353 L50.5846,220.1353 L47.1231,220.1353" fill="#252327"/><ellipse cx="43.2462" cy="220.2046" fill="#252327" rx="1.2462" ry="1.2462" style="stroke:none;stroke-width:1.8;"/><text fill="#000000" font-family="'Helvetica Neue, Helvetica, Arial, sans-serif'" font-size="12" lengthAdjust="spacing" textLength="404.4727" x="58.9683" y="227.6206">Engagements Plan Concurrently Against a Shared, Staged Baseline</text></g><!--entity GOL_kCcPph--><g class="entity" data-qualified-name="Motivation.GOL_kCcPph" data-source-line="163" id="ent0007"><rect fill="#EDD6F0" height="42.1538" rx="2" ry="2" style="stroke:#7B3F9A;stroke-width:0.5;" width="326.5738" x="510.5" y="320.2969"/><ellipse cx="531.5769" cy="341.3738" fill="none" rx="6.6462" ry="6.6462" style="stroke:#252327;stroke-width:1.8;"/><ellipse cx="531.5769" cy="341.3738" fill="none" rx="4.0154" ry="4.0154" style="stroke:#252327;stroke-width:1.8;"/><ellipse cx="531.5769" cy="341.3738" fill="#252327" rx="1.8" ry="1.8" style="stroke:none;stroke-width:1.8;"/><text fill="#000000" font-family="'Helvetica Neue, Helvetica, Arial, sans-serif'" font-size="12" lengthAdjust="spacing" textLength="280.6055" x="546.4683" y="349.6206">Enable Cross-Engagement Architectural Reuse</text></g><!--entity GOL_Lm2Bn2--><g class="entity" data-qualified-name="Motivation.GOL_Lm2Bn2" data-source-line="164" id="ent0008"><rect fill="#EDD6F0" height="42.1538" rx="2" ry="2" style="stroke:#7B3F9A;stroke-width:0.5;" width="403.9234" x="46" y="320.2969"/><ellipse cx="67.0769" cy="341.3738" fill="none" rx="6.6462" ry="6.6462" style="stroke:#252327;stroke-width:1.8;"/><ellipse cx="67.0769" cy="341.3738" fill="none" rx="4.0154" ry="4.0154" style="stroke:#252327;stroke-width:1.8;"/><ellipse cx="67.0769" cy="341.3738" fill="#252327" rx="1.8" ry="1.8" style="stroke:none;stroke-width:1.8;"/><text fill="#000000" font-family="'Helvetica Neue, Helvetica, Arial, sans-serif'" font-size="12" lengthAdjust="spacing" textLength="357.9551" x="81.9683" y="349.6206">Plan Collaboratively in a Unified, Staged Repository System</text></g><!--entity PRC_0Rz5Ex--><g class="entity" data-qualified-name="Common.PRC_0Rz5Ex" data-source-line="168" id="ent0010"><rect fill="#E0D8CC" height="42.1538" rx="2" ry="2" style="stroke:#8C7E6A;stroke-width:0.5;" width="150.7281" x="1079.5" y="76.2969"/><path d="M1093.1,91.9738 L1101.8231,91.9738 L1101.8231,90.1738 L1108.0538,97.3738 L1101.8231,104.5738 L1101.8231,102.7738 L1093.1,102.7738" fill="#252327" style="stroke:none;stroke-width:0.5;"/><text fill="#000000" font-family="'Helvetica Neue, Helvetica, Arial, sans-serif'" font-size="12" lengthAdjust="spacing" textLength="104.7598" x="1115.4683" y="105.6206">Promote Artifacts</text></g><!--entity SRV_Uv9Wx9--><g class="entity" data-qualified-name="Common.SRV_Uv9Wx9" data-source-line="169" id="ent0011"><rect fill="#E0D8CC" height="42.1538" rx="2" ry="2" style="stroke:#8C7E6A;stroke-width:0.5;" width="223.8238" x="1007" y="198.2969"/><path d="M1021.4308,213.9738 L1031.4,213.9738 A3.8769,3.8769 0 0 1 1031.4,224.7738 L1021.4308,224.7738 A3.8769,3.8769 0 0 1 1021.4308,213.9738" fill="#252327" style="stroke:none;stroke-width:0.5;"/><text fill="#000000" font-family="'Helvetica Neue, Helvetica, Arial, sans-serif'" font-size="12" lengthAdjust="spacing" textLength="177.8555" x="1042.9683" y="227.6206">Repository Promotion Service</text></g><!--entity BOB_6Uok0b--><g class="entity" data-qualified-name="Business.BOB_6Uok0b" data-source-line="173" id="ent0013"><rect fill="#FFFAC8" height="42.1538" rx="2" ry="2" style="stroke:#B8860B;stroke-width:0.5;" width="175.8589" x="1413" y="198.2969"/><path d="M1427.0154,214.1123 L1441.1385,214.1123 L1441.1385,215.9123 L1427.0154,215.9123" fill="#252327"/><path d="M1427.0154,222.8353 L1441.1385,222.8353 L1441.1385,224.6353 L1427.0154,224.6353" fill="#252327"/><path d="M1427.0154,215.9123 L1427.0154,222.8353 L1428.8154,222.8353 L1428.8154,215.9123" fill="#252327"/><path d="M1439.3385,215.9123 L1439.3385,222.8353 L1441.1385,222.8353 L1441.1385,215.9123" fill="#252327"/><path d="M1427.0154,216.12 L1441.1385,216.12 L1441.1385,217.92 L1427.0154,217.92" fill="#252327"/><text fill="#000000" font-family="'Helvetica Neue, Helvetica, Arial, sans-serif'" font-size="12" lengthAdjust="spacing" textLength="129.8906" x="1448.9683" y="227.6206">Enterprise Repository</text></g><!--entity BOB_so7gfN--><g class="entity" data-qualified-name="Team . Project A.BOB_so7gfN" data-source-line="177" id="ent0015"><rect fill="#FFFAC8" height="42.1538" rx="2" ry="2" style="stroke:#B8860B;stroke-width:0.5;" width="190.6714" x="1260.5" y="320.2969"/><path d="M1274.5154,336.1123 L1288.6385,336.1123 L1288.6385,337.9123 L1274.5154,337.9123" fill="#252327"/><path d="M1274.5154,344.8353 L1288.6385,344.8353 L1288.6385,346.6353 L1274.5154,346.6353" fill="#252327"/><path d="M1274.5154,337.9123 L1274.5154,344.8353 L1276.3154,344.8353 L1276.3154,337.9123" fill="#252327"/><path d="M1286.8385,337.9123 L1286.8385,344.8353 L1288.6385,344.8353 L1288.6385,337.9123" fill="#252327"/><path d="M1274.5154,338.12 L1288.6385,338.12 L1288.6385,339.92 L1274.5154,339.92" fill="#252327"/><text fill="#000000" font-family="'Helvetica Neue, Helvetica, Arial, sans-serif'" font-size="12" lengthAdjust="spacing" textLength="144.7031" x="1296.4683" y="349.6206">Engagement Repository</text></g><!--entity ACT_Nn7Oo7--><g class="entity" data-qualified-name="Team . Project A.ACT_Nn7Oo7" data-source-line="178" id="ent0016"><rect fill="#FFFAC8" height="42.1538" rx="2" ry="2" style="stroke:#B8860B;stroke-width:0.5;" width="100.0386" x="1027" y="442.2969"/><ellipse cx="1048.0769" cy="457.8353" fill="none" rx="2.6308" ry="2.6308" style="stroke:#252327;stroke-width:1.8;"/><path d="M1047.1769,460.4661 L1047.1769,466.143 L1048.9769,466.143 L1048.9769,460.4661" fill="#252327"/><path d="M1044.8646,471.0446 L1043.5354,469.8261 L1047.4123,465.5338 L1048.7415,466.7523" fill="#252327"/><path d="M1047.4123,466.7523 L1048.7415,465.5338 L1052.6185,469.8261 L1051.2892,471.0446" fill="#252327"/><path d="M1043.9231,462.6123 L1052.2308,462.6123 L1052.2308,464.4123 L1043.9231,464.4123" fill="#252327"/><text fill="#000000" font-family="'Helvetica Neue, Helvetica, Arial, sans-serif'" font-size="12" lengthAdjust="spacing" textLength="54.0703" x="1062.9683" y="471.6206">Architect</text></g><!--entity ACT_Pp8Qq8--><g class="entity" data-qualified-name="Team . Project A.ACT_Pp8Qq8" data-source-line="179" id="ent0017"><rect fill="#FFFAC8" height="42.1538" rx="2" ry="2" style="stroke:#B8860B;stroke-width:0.5;" width="107.6851" x="1187" y="442.2969"/><ellipse cx="1208.0769" cy="457.8353" fill="none" rx="2.6308" ry="2.6308" style="stroke:#252327;stroke-width:1.8;"/><path d="M1207.1769,460.4661 L1207.1769,466.143 L1208.9769,466.143 L1208.9769,460.4661" fill="#252327"/><path d="M1204.8646,471.0446 L1203.5354,469.8261 L1207.4123,465.5338 L1208.7415,466.7523" fill="#252327"/><path d="M1207.4123,466.7523 L1208.7415,465.5338 L1212.6185,469.8261 L1211.2892,471.0446" fill="#252327"/><path d="M1203.9231,462.6123 L1212.2308,462.6123 L1212.2308,464.4123 L1203.9231,464.4123" fill="#252327"/><text fill="#000000" font-family="'Helvetica Neue, Helvetica, Arial, sans-serif'" font-size="12" lengthAdjust="spacing" textLength="61.7168" x="1222.9683" y="471.6206">Developer</text></g><!--entity ROL_udXPfB--><g class="entity" data-qualified-name="Team . Project A.ROL_udXPfB" data-source-line="180" id="ent0018"><rect fill="#E0D8CC" height="42.1538" rx="2" ry="2" style="stroke:#8C7E6A;stroke-width:0.5;" width="97.0503" x="1355.5" y="442.2969"/><path d="M1369.6538,457.143 L1380.4538,457.143 A2.7692,2.7692 0 0 1 1383.2231,459.9123 L1383.2231,466.8353 A2.7692,2.7692 0 0 1 1380.4538,469.6046 L1369.6538,469.6046" fill="#252327" style="stroke:none;stroke-width:0.5;"/><text fill="#000000" font-family="'Helvetica Neue, Helvetica, Arial, sans-serif'" font-size="12" lengthAdjust="spacing" textLength="51.082" x="1391.4683" y="471.6206">AI Agent</text></g><!--entity BOB_so7gfN__2--><g class="entity" data-qualified-name="Team . Project B.BOB_so7gfN__2" data-source-line="184" id="ent0020"><rect fill="#FFFAC8" height="42.1538" rx="2" ry="2" style="stroke:#B8860B;stroke-width:0.5;" width="190.6714" x="1786.5" y="320.2969"/><path d="M1800.5154,336.1123 L1814.6385,336.1123 L1814.6385,337.9123 L1800.5154,337.9123" fill="#252327"/><path d="M1800.5154,344.8353 L1814.6385,344.8353 L1814.6385,346.6353 L1800.5154,346.6353" fill="#252327"/><path d="M1800.5154,337.9123 L1800.5154,344.8353 L1802.3154,344.8353 L1802.3154,337.9123" fill="#252327"/><path d="M1812.8385,337.9123 L1812.8385,344.8353 L1814.6385,344.8353 L1814.6385,337.9123" fill="#252327"/><path d="M1800.5154,338.12 L1814.6385,338.12 L1814.6385,339.92 L1800.5154,339.92" fill="#252327"/><text fill="#000000" font-family="'Helvetica Neue, Helvetica, Arial, sans-serif'" font-size="12" lengthAdjust="spacing" textLength="144.7031" x="1822.4683" y="349.6206">Engagement Repository</text></g><!--entity ACT_Nn7Oo7__2--><g class="entity" data-qualified-name="Team . Project B.ACT_Nn7Oo7__2" data-source-line="185" id="ent0021"><rect fill="#FFFAC8" height="42.1538" rx="2" ry="2" style="stroke:#B8860B;stroke-width:0.5;" width="100.0386" x="1786" y="442.2969"/><ellipse cx="1807.0769" cy="457.8353" fill="none" rx="2.6308" ry="2.6308" style="stroke:#252327;stroke-width:1.8;"/><path d="M1806.1769,460.4661 L1806.1769,466.143 L1807.9769,466.143 L1807.9769,460.4661" fill="#252327"/><path d="M1803.8646,471.0446 L1802.5354,469.8261 L1806.4123,465.5338 L1807.7415,466.7523" fill="#252327"/><path d="M1806.4123,466.7523 L1807.7415,465.5338 L1811.6185,469.8261 L1810.2892,471.0446" fill="#252327"/><path d="M1802.9231,462.6123 L1811.2308,462.6123 L1811.2308,464.4123 L1802.9231,464.4123" fill="#252327"/><text fill="#000000" font-family="'Helvetica Neue, Helvetica, Arial, sans-serif'" font-size="12" lengthAdjust="spacing" textLength="54.0703" x="1821.9683" y="471.6206">Architect</text></g><!--entity ACT_Pp8Qq8__2--><g class="entity" data-qualified-name="Team . Project B.ACT_Pp8Qq8__2" data-source-line="186" id="ent0022"><rect fill="#FFFAC8" height="42.1538" rx="2" ry="2" style="stroke:#B8860B;stroke-width:0.5;" width="107.6851" x="1946" y="442.2969"/><ellipse cx="1967.0769" cy="457.8353" fill="none" rx="2.6308" ry="2.6308" style="stroke:#252327;stroke-width:1.8;"/><path d="M1966.1769,460.4661 L1966.1769,466.143 L1967.9769,466.143 L1967.9769,460.4661" fill="#252327"/><path d="M1963.8646,471.0446 L1962.5354,469.8261 L1966.4123,465.5338 L1967.7415,466.7523" fill="#252327"/><path d="M1966.4123,466.7523 L1967.7415,465.5338 L1971.6185,469.8261 L1970.2892,471.0446" fill="#252327"/><path d="M1962.9231,462.6123 L1971.2308,462.6123 L1971.2308,464.4123 L1962.9231,464.4123" fill="#252327"/><text fill="#000000" font-family="'Helvetica Neue, Helvetica, Arial, sans-serif'" font-size="12" lengthAdjust="spacing" textLength="61.7168" x="1981.9683" y="471.6206">Developer</text></g><!--entity ROL_udXPfB__2--><g class="entity" data-qualified-name="Team . Project B.ROL_udXPfB__2" data-source-line="187" id="ent0023"><rect fill="#E0D8CC" height="42.1538" rx="2" ry="2" style="stroke:#8C7E6A;stroke-width:0.5;" width="97.0503" x="2114.5" y="442.2969"/><path d="M2128.6538,457.143 L2139.4538,457.143 A2.7692,2.7692 0 0 1 2142.2231,459.9123 L2142.2231,466.8353 A2.7692,2.7692 0 0 1 2139.4538,469.6046 L2128.6538,469.6046" fill="#252327" style="stroke:none;stroke-width:0.5;"/><text fill="#000000" font-family="'Helvetica Neue, Helvetica, Arial, sans-serif'" font-size="12" lengthAdjust="spacing" textLength="51.082" x="2150.4683" y="471.6206">AI Agent</text></g><!--entity DOB_4dO6js--><g class="entity" data-qualified-name="Application.DOB_4dO6js" data-source-line="191" id="ent0025"><rect fill="#CCF2FF" height="42.1538" rx="2" ry="2" style="stroke:#0078A0;stroke-width:0.5;" width="212.9078" x="1512.5" y="442.2969"/><path d="M1526.6538,457.5584 L1540.5,457.5584 L1540.5,459.3584 L1526.6538,459.3584" fill="#252327"/><path d="M1526.6538,467.3892 L1540.5,467.3892 L1540.5,469.1892 L1526.6538,469.1892" fill="#252327"/><path d="M1526.6538,459.3584 L1526.6538,467.3892 L1528.4538,467.3892 L1528.4538,459.3584" fill="#252327"/><path d="M1538.7,459.3584 L1538.7,467.3892 L1540.5,467.3892 L1540.5,459.3584" fill="#252327"/><path d="M1526.6538,459.1507 L1540.5,459.1507 L1540.5,460.9507 L1526.6538,460.9507" fill="#252327"/><text fill="#000000" font-family="'Helvetica Neue, Helvetica, Arial, sans-serif'" font-size="12" lengthAdjust="spacing" textLength="166.9395" x="1548.4683" y="471.6206">Global Entity Reference File</text></g><!--link REQ_kOU3al to REQ_Gg4Hh4--><!--link REQ_Gg4Hh4 to OUT_edEkJa--><!--link REQ_Gg4Hh4 to OUT_edEkJa--><g class="link" data-entity-1="ent0004" data-entity-2="ent0005" data-link-type="extension" data-source-line="220" id="lnk51"><path d="M769.83,118.5469 C769.83,140.9369 769.83,157.9869 769.83,180.2869" fill="none" id="REQ_Gg4Hh4-to-OUT_edEkJa" style="stroke:#181818;stroke-width:1;stroke-dasharray:7,7;"/><polygon fill="none" points="769.83,198.2869,775.83,180.2869,763.83,180.2869,769.83,198.2869" style="stroke:#181818;stroke-width:1;"/></g><!--link OUT_edEkJa to OUT_620dTh--><!--link OUT_620dTh to GOL_kCcPph--><!--link GOL_kCcPph to GOL_Lm2Bn2--><!--link PRC_0Rz5Ex to SRV_Uv9Wx9--><!--link PRC_0Rz5Ex to SRV_Uv9Wx9--><g class="link" data-entity-1="ent0010" data-entity-2="ent0011" data-link-type="extension" data-source-line="222" id="lnk53"><path d="M1180.17,118.5469 C1180.17,140.9369 1180.17,157.9869 1180.17,180.2869" fill="none" id="PRC_0Rz5Ex-to-SRV_Uv9Wx9" style="stroke:#181818;stroke-width:1;stroke-dasharray:7,7;"/><polygon fill="none" points="1180.17,198.2869,1186.17,180.2869,1174.17,180.2869,1180.17,198.2869" style="stroke:#181818;stroke-width:1;"/></g><!--link BOB_so7gfN to ACT_Nn7Oo7--><!--link ACT_Nn7Oo7 to BOB_so7gfN--><g class="link" data-entity-1="ent0016" data-entity-2="ent0015" data-link-type="dependency" data-source-line="211" id="lnk40"><path d="M1093.67,442.2069 C1093.67,409.0069 1093.67,348.2969 1093.67,348.2969 C1093.67,348.2969 1179.24,348.2969 1254.18,348.2969" fill="none" id="ACT_Nn7Oo7-to-BOB_so7gfN" style="stroke:#181818;stroke-width:1;"/><polygon fill="#181818" points="1260.18,348.2969,1251.18,344.2969,1255.18,348.2969,1251.18,352.2969,1260.18,348.2969" style="stroke:#181818;stroke-width:1;"/></g><!--link ACT_Nn7Oo7 to ACT_Pp8Qq8--><!--link ACT_Pp8Qq8 to ROL_udXPfB--><!--link BOB_so7gfN__2 to ACT_Nn7Oo7__2--><!--link ACT_Nn7Oo7__2 to BOB_so7gfN__2--><g class="link" data-entity-1="ent0021" data-entity-2="ent0020" data-link-type="dependency" data-source-line="226" id="lnk56"><path d="M1852.83,442.0469 C1852.83,419.6569 1852.83,390.6069 1852.83,368.3069" fill="none" id="ACT_Nn7Oo7__2-to-BOB_so7gfN__2" style="stroke:#181818;stroke-width:1;"/><polygon fill="#181818" points="1852.83,362.3069,1848.83,371.3069,1852.83,367.3069,1856.83,371.3069,1852.83,362.3069" style="stroke:#181818;stroke-width:1;"/></g><!--link ACT_Nn7Oo7__2 to ACT_Pp8Qq8__2--><!--link ACT_Pp8Qq8__2 to ROL_udXPfB__2--><!--link BOB_6Uok0b to BOB_so7gfN--><!--link BOB_6Uok0b to BOB_so7gfN--><g class="link" data-entity-1="ent0013" data-entity-2="ent0015" data-link-type="association" data-source-line="214" id="lnk43"><path d="M1438.67,240.5469 C1438.67,262.9369 1438.67,297.9869 1438.67,320.2869" fill="none" id="BOB_6Uok0b-BOB_so7gfN-1" style="stroke:#181818;stroke-width:1;"/><text fill="#000000" font-family="'Helvetica Neue, Helvetica, Arial, sans-serif'" font-size="12" lengthAdjust="spacing" textLength="672.1641" x="765.67" y="277.5555">1 -&gt; 1..* | An enterprise repository serves and receives promotions from one or more engagement repositories.</text></g><!--link BOB_so7gfN to BOB_so7gfN__2--><!--link ACT_Pp8Qq8 to BOB_so7gfN--><g class="link" data-entity-1="ent0017" data-entity-2="ent0015" data-link-type="dependency" data-source-line="212" id="lnk41"><path d="M1277.75,442.0469 C1277.75,419.6569 1277.75,390.6069 1277.75,368.3069" fill="none" id="ACT_Pp8Qq8-to-BOB_so7gfN" style="stroke:#181818;stroke-width:1;"/><polygon fill="#181818" points="1277.75,362.3069,1273.75,371.3069,1277.75,367.3069,1281.75,371.3069,1277.75,362.3069" style="stroke:#181818;stroke-width:1;"/></g><!--link PRC_0Rz5Ex to BOB_6Uok0b--><g class="link" data-entity-1="ent0010" data-entity-2="ent0013" data-link-type="dependency" data-source-line="213" id="lnk42"><path d="M1230.5,97.2969 C1332.31,97.2969 1501,97.2969 1501,97.2969 C1501,97.2969 1501,157.0969 1501,192.0469" fill="none" id="PRC_0Rz5Ex-to-BOB_6Uok0b" style="stroke:#181818;stroke-width:1;"/><polygon fill="#181818" points="1501,198.0469,1505,189.0469,1501,193.0469,1497,189.0469,1501,198.0469" style="stroke:#181818;stroke-width:1;"/></g><!--link BOB_6Uok0b to DOB_4dO6js--><g class="link" data-entity-1="ent0013" data-entity-2="ent0025" data-link-type="association" data-source-line="215" id="lnk45"><path d="M1550.75,240.5269 C1550.75,286.7869 1550.75,396.2369 1550.75,442.2969" fill="none" id="BOB_6Uok0b-DOB_4dO6js" style="stroke:#181818;stroke-width:1;"/></g><!--link PRC_0Rz5Ex to BOB_so7gfN--><g class="link" data-entity-1="ent0010" data-entity-2="ent0015" data-link-type="dependency" data-source-line="216" id="lnk46"><path d="M1230.76,108.2969 C1280.63,108.2969 1336.75,108.2969 1336.75,108.2969 C1336.75,108.2969 1336.75,256.8569 1336.75,314.2069" fill="none" id="PRC_0Rz5Ex-to-BOB_so7gfN" style="stroke:#181818;stroke-width:1;"/><polygon fill="#181818" points="1336.75,320.2069,1340.75,311.2069,1336.75,315.2069,1332.75,311.2069,1336.75,320.2069" style="stroke:#181818;stroke-width:1;"/></g><!--link BOB_so7gfN to DOB_4dO6js--><g class="link" data-entity-1="ent0015" data-entity-2="ent0025" data-link-type="association" data-source-line="217" id="lnk48"><path d="M1451.52,354.2969 C1492.71,354.2969 1531.62,354.2969 1531.62,354.2969 C1531.62,354.2969 1531.62,410.6069 1531.62,442.2769" fill="none" id="BOB_so7gfN-DOB_4dO6js" style="stroke:#181818;stroke-width:1;"/></g><!--link ROL_udXPfB to BOB_so7gfN--><g class="link" data-entity-1="ent0018" data-entity-2="ent0015" data-link-type="association" data-source-line="218" id="lnk49"><path d="M1403.5,442.0469 C1403.5,419.6569 1403.5,384.6069 1403.5,362.3069" fill="none" id="ROL_udXPfB-BOB_so7gfN" style="stroke:#181818;stroke-width:1;"/></g><!--link OUT_edEkJa to GOL_kCcPph--><g class="link" data-entity-1="ent0005" data-entity-2="ent0007" data-link-type="extension" data-source-line="219" id="lnk50"><path d="M685.25,240.5469 C685.25,262.9369 685.25,279.9869 685.25,302.2869" fill="none" id="OUT_edEkJa-to-GOL_kCcPph" style="stroke:#181818;stroke-width:1;stroke-dasharray:7,7;"/><polygon fill="none" points="685.25,320.2869,691.25,302.2869,679.25,302.2869,685.25,320.2869" style="stroke:#181818;stroke-width:1;"/></g><!--link REQ_kOU3al to OUT_edEkJa--><g class="link" data-entity-1="ent0003" data-entity-2="ent0005" data-link-type="extension" data-source-line="221" id="lnk52"><path d="M561.75,118.5469 C561.75,140.9369 561.75,157.9869 561.75,180.2869" fill="none" id="REQ_kOU3al-to-OUT_edEkJa" style="stroke:#181818;stroke-width:1;stroke-dasharray:7,7;"/><polygon fill="none" points="561.75,198.2869,567.75,180.2869,555.75,180.2869,561.75,198.2869" style="stroke:#181818;stroke-width:1;"/></g><!--reverse link REQ_Gg4Hh4 to SRV_Uv9Wx9--><g class="link" data-entity-1="ent0004" data-entity-2="ent0011" data-link-type="extension" data-source-line="223" id="lnk55"><path d="M847.75,97.2969 C937.18,97.2969 1043.25,97.2969 1043.25,97.2969 C1043.25,97.2969 1043.25,163.0969 1043.25,198.0469" fill="none" id="REQ_Gg4Hh4-backto-SRV_Uv9Wx9" style="stroke:#181818;stroke-width:1;stroke-dasharray:7,7;"/><polygon fill="none" points="829.75,97.2969,847.75,103.2969,847.75,91.2969,829.75,97.2969" style="stroke:#181818;stroke-width:1;"/></g><!--link ACT_Pp8Qq8__2 to BOB_so7gfN__2--><g class="link" data-entity-1="ent0022" data-entity-2="ent0020" data-link-type="dependency" data-source-line="227" id="lnk57"><path d="M1961.75,442.0469 C1961.75,419.6569 1961.75,390.6069 1961.75,368.3069" fill="none" id="ACT_Pp8Qq8__2-to-BOB_so7gfN__2" style="stroke:#181818;stroke-width:1;"/><polygon fill="#181818" points="1961.75,362.3069,1957.75,371.3069,1961.75,367.3069,1965.75,371.3069,1961.75,362.3069" style="stroke:#181818;stroke-width:1;"/></g><!--link ROL_udXPfB__2 to BOB_so7gfN__2--><g class="link" data-entity-1="ent0023" data-entity-2="ent0020" data-link-type="association" data-source-line="228" id="lnk58"><path d="M2163,442.0469 C2163,407.0969 2163,341.2969 2163,341.2969 C2163,341.2969 2058.99,341.2969 1977.53,341.2969" fill="none" id="ROL_udXPfB__2-BOB_so7gfN__2" style="stroke:#181818;stroke-width:1;"/></g><!--link BOB_6Uok0b to BOB_so7gfN__2--><g class="link" data-entity-1="ent0013" data-entity-2="ent0020" data-link-type="association" data-source-line="229" id="lnk59"><path d="M1569.88,240.5069 C1569.88,272.4669 1569.88,329.2969 1569.88,329.2969 C1569.88,329.2969 1694.48,329.2969 1786.23,329.2969" fill="none" id="BOB_6Uok0b-BOB_so7gfN__2" style="stroke:#181818;stroke-width:1;"/></g><!--link BOB_so7gfN__2 to DOB_4dO6js--><g class="link" data-entity-1="ent0020" data-entity-2="ent0025" data-link-type="association" data-source-line="230" id="lnk61"><path d="M1786.32,346.2969 C1734.11,346.2969 1680,346.2969 1680,346.2969 C1680,346.2969 1680,408.3969 1680,442.1069" fill="none" id="BOB_so7gfN__2-DOB_4dO6js" style="stroke:#181818;stroke-width:1;"/></g><!--link PRC_0Rz5Ex to DOB_4dO6js--><g class="link" data-entity-1="ent0010" data-entity-2="ent0025" data-link-type="dependency" data-source-line="232" id="lnk62"><path d="M1230.71,87.2969 C1365.83,87.2969 1634.5,87.2969 1634.5,87.2969 C1634.5,87.2969 1634.5,357.0969 1634.5,436.2769" fill="none" id="PRC_0Rz5Ex-to-DOB_4dO6js" style="stroke:#181818;stroke-width:1;stroke-dasharray:7,7;"/><polygon fill="#181818" points="1634.5,442.2769,1638.5,433.2769,1634.5,437.2769,1630.5,433.2769,1634.5,442.2769" style="stroke:#181818;stroke-width:1;"/></g><!--link REQ_kOU3al to OUT_620dTh--><g class="link" data-entity-1="ent0003" data-entity-2="ent0006" data-link-type="extension" data-source-line="234" id="lnk63"><path d="M441.25,118.5469 C441.25,140.9369 441.25,157.9869 441.25,180.2869" fill="none" id="REQ_kOU3al-to-OUT_620dTh" style="stroke:#181818;stroke-width:1;stroke-dasharray:7,7;"/><polygon fill="none" points="441.25,198.2869,447.25,180.2869,435.25,180.2869,441.25,198.2869" style="stroke:#181818;stroke-width:1;"/></g><!--link OUT_620dTh to GOL_Lm2Bn2--><g class="link" data-entity-1="ent0006" data-entity-2="ent0008" data-link-type="extension" data-source-line="235" id="lnk64"><path d="M248,240.5469 C248,262.9369 248,279.9869 248,302.2869" fill="none" id="OUT_620dTh-to-GOL_Lm2Bn2" style="stroke:#181818;stroke-width:1;stroke-dasharray:7,7;"/><polygon fill="none" points="248,320.2869,254,302.2869,242,302.2869,248,320.2869" style="stroke:#181818;stroke-width:1;"/></g><?plantuml-src xLdhRkEu5VxlfpZL5jZTmb9asPBbGHB0TkoPBJAJR2xJ0aLXC19jQIEBMbAs9zbTe0_H9-oJz51MBFeY9KvSe3-2J2OIUIuV3m_FXGf2du98AQSiVKXehIRkmpWXd4p1fsCoYz8XYzClP4f1-qIZEKr3Zy0NEgDrMBtNeSj34jL1a5ZeWl9mhEqMT1q-KcXOogG8YCyMOJo1COa4LMOucyM-ntXCERIKyJlYtK-ooJwB68VlXbtveqAFmfZAvG3ZQS2KYPZvLD0475DLHE9xEUYQjJyXLkI5AngDRdWucU1QuiaFOywcTKXP7I9oHwCVGGw0hf_Ys1hF5ILH-4ZIaCKbJ8RnUnNNw3RPW_6QylbU-Bf2C2-imgVh5JoZSpfENyLu5Kw2FJWzZmfHQeYjPVqKZwCPZJrQpQ9iEVLI4ayYUdpSJP88VLYY_8XUbQ0zJq_Xjnf0RzFH1kxG7Gxb3EC-vVceQRRThbdxOxVutamWIY6UapqS3iy6_KtPFTTrp5wPx3wRJb-0-cpW3XgRajr-U-1qooH_PcauVv5DXkt1ODZPbDxkDOUTKkbtkKr6n4iPhx18j-_kPv6LP7Rt2uuUKhHFKlACs7v_QEth7nD6elATEtE6vdwsPRFKOrDwI949P_8ubeeqpzn-Vp__ulJNMSZfbCRf8P5o5j53mXGoldgl5HcyvzRttFgUMzzpwtjkVS-jxxdreBbL93nCAVoPS2y8foIbetN7XsCndy2tQHIB4or8q-J3qT5YiJ0MJOFnoP5bckOHKcWm3-cYnxwTQ2QOq73mdtPwx8NSYoXuEEngu3sSQ2qD-8dMC3eQm3YCeXCjPZ7LCBrpTazFjEyissfQxQS1VH7wQI0PcjhHwN52qW3y4-rpssZQO1iTSzuo6cQ0q-PN-VgevLAVvAXCjk6uq6WQTkkyPRGjpF66uvot3Tk2Zc4xvwxHmddJQBKgnMGC6TcI8-DjD0pBpINYNDDQAde6Zsb2ssZPWODFSxc8Jt9i5vCqycdLRYrF_TksQuNCGbD2ox3GiYR-luHcFMVVZ0iPx5UmsSWrbuj_sakxcWdjxUxFbQjox9S0B3Ev4cGFPEwcT8GcBaZ2UlA4Peadh7CXG-SLR3QU6ZISkp9Surbpj_VdobIrZ8xz4e1bvfR9vz1HoCsYKCjmNnM5okHPhungPVBaz8QTLXANydVBAxDaddOFPamCNJbSmyaDsdoh0RPaMeRrjbI1hjTmmJ4wpVEEqRBGYTtsEGPg3E9Dmy77fepSc12QrIT01WoCrfOTM3BgPBwS3UvYgrgHz983xcfU-HmiyZjeYmPcfEPNot2ZbY7phANdV-Swei68wJokDcNt8Ye0AtNLWK2tZ9RCLe4hKozcOSmDWUw-1IBMQ8UAxUXbTj0sN6A11Ha9_hNcTl6kuzEdvXlWvYNWmRAHbRa0-Zf15m3vkyGj_T_50BurhkFuY_6dBC565-vOccBRwuUobiKchbPBmnJDVe7zyY1EASTb2jaw9qo4M8a-rE4pYHzmRa8ccVU8McrL1uDMj8CQL3I72iVnRgVyJNWaeYSDm_xZ56uMJBy9AQU-WaGgMEyEY82hmS-Z-ulR9edsrtB9sPH9iF2PUW69Gp4jrV5nqleKjCfrv55-K_wSnd19KhHhB79zk2OI-z3rMIAVknvd64SK-qeCHQ-6-YzkRqRK7zp_bUodNv49bn69eSzYRyOv3aGFq9sGC1Of4BWE25gw3jSfallOp0Wghybsud0iqxy9od78kc431Bb3ehvSfLuWWgvaIL78Z6EbSKLd8bEODxsexUF5-UY-xrqc-sZBbnb5v8vnTCGvnPM6CIxoDWx7eRBAmg_W-a6aTBgj_NngzM8BspNLuPStAv9uvnrB2T0yNUnmFugMICCnjdtPnXSTDOAulEgFpAj7U_2jN78UXTOaAsihVFnwIIYL5CqhAhc--ZgwdNV-zgspiTAd-od9KN9NLO9feptQy8STGKQgsBwWGN2zYzx8kMNtvjq6k1kA_VYHN5xM4NGF3NBbfoy4ALXxClxo0crPVx-cR7KIrXGyNO2X_6x_PlGbRb-mzgladr4y1IoXl4h-PUB-_AjR4KCnDw-Z_WaZ21eeYvZBonKPAl7OpFo_NuvxrVlL-__Ohz78-bzlsMjLxB5hbIhstZWfRNtlb7jmoLH-BLu2GMdTrv1yZDWTndwC267wW1itneGVOq4r3ACiJAtVgoB8Czoubd_X_28amkz1rtNepbAcH-G1CzK7m2ADacL-pRn0nhr9Zb58ybfHBu3-Zo3qVHh_ayil4BgQvel7BIeb6HUFEwdoL5ayRb4fAQvut4cLfw8Y8MnHAM6yyEyjAYMK58yxgVA0K3nkswiuwsidgaAfzAsrjmhLJxIhjme0ahP85GMXpnQnhiRd2jEiHmNqBgoMucMHBDQCfP-g4bK3hS-ecvK1ELNJcGfNLGuViBH7qePX_0L-XsuCjCYOl4ZiCeTJaRaw7ZiQofVaATcBvSSjR020SPWoJb7AAaIkf8HK6BNYK84-ItGLOyaAylNjOiodYft96TL9vTXaNowLKw2SksnAEMpAmTsSKc1cKyfHA1x1c2LoKZdbkCURQGd-ywz_Wv3VjAVCfv6qFKOHQMUnfEtMmUTaWHLb2cb0GmxCMzRKMBPj-lQQlNRuyzRycaTlcsxJpJVdodT4pdwl58FeAVuC4Sir02OPNN6FoJ8iqsLOvgkmZ6qcBb7v25lOlQw4vZfese_IjDZ3eUcux4TdiioNxYk_PgDMRzM8G88LUupXkGwB8FI2WaOYyzHANdyY1LccrpO_gXSEKbV2xnBD9gqwNuJN9Ur_0G00?></g></svg>