<svg xmlns="http://www.w3.org/2000/svg" xmlns:xlink="http://www.w3.org/1999/xlink" contentStyleType="text/css" data-diagram-type="DESCRIPTION" height="395px" preserveAspectRatio="none" style="width:1222px;height:395px;background:#FAFAFA;" version="1.1" viewBox="0 0 1222 395" width="1222px" zoomAndPan="magnify"><?plantuml 1.2026.3?><defs/><g><rect fill="#FAFAFA" height="395" style="stroke:none;stroke-width:1;" width="1222" x="0" y="0"/><g class="title" data-source-line="87"><text fill="#000000" font-family="'Helvetica Neue, Helvetica, Arial, sans-serif'" font-size="14" font-weight="700" lengthAdjust="spacing" textLength="336.0273" x="439.4863" y="22.9951">Assurance Persistence &amp; Trust Boundaries</text></g><!--cluster Application--><g class="cluster" data-qualified-name="Application" data-source-line="89" id="ent0002"><rect fill="#E8F8FF" height="212" rx="2" ry="2" style="stroke:#0078A0;stroke-width:1;" width="814" x="7" y="44.2969"/><text fill="#000000" font-family="'Helvetica Neue, Helvetica, Arial, sans-serif'" font-size="12" font-weight="700" lengthAdjust="spacing" textLength="76.541" x="375.7295" y="57.4355">Application</text></g><!--cluster Technology--><g class="cluster" data-qualified-name="Technology" data-source-line="98" id="ent0009"><rect fill="#E8FFEE" height="90" rx="2" ry="2" style="stroke:#2E7D32;stroke-width:1;" width="1057" x="151" y="288.2969"/><text fill="#000000" font-family="'Helvetica Neue, Helvetica, Arial, sans-serif'" font-size="12" font-weight="700" lengthAdjust="spacing" textLength="77.5371" x="640.7314" y="301.4355">Technology</text></g><!--entity APP_E0fzqZ--><g class="entity" data-qualified-name="Application.APP_E0fzqZ" data-source-line="90" id="ent0003"><rect fill="#CCF2FF" height="42.1538" rx="2" ry="2" style="stroke:#0078A0;stroke-width:0.5;" width="219.9859" x="585" y="76.2969"/><path d="M600.5385,92.1123 L610.7846,92.1123 L610.7846,102.6353 L600.5385,102.6353" fill="#252327" style="stroke:none;stroke-width:0.5;"/><path d="M598.1846,93.1507 L600.5385,93.1507 L600.5385,94.9507 L598.1846,94.9507" fill="#252327"/><path d="M598.1846,96.4738 L600.5385,96.4738 L600.5385,98.2738 L598.1846,98.2738" fill="#252327"/><path d="M598.1846,99.7969 L600.5385,99.7969 L600.5385,101.5969 L598.1846,101.5969" fill="#252327"/><path d="M610.7846,93.1507 L612.7231,93.1507 L612.7231,94.9507 L610.7846,94.9507" fill="#252327"/><path d="M610.7846,96.4738 L612.7231,96.4738 L612.7231,98.2738 L610.7846,98.2738" fill="#252327"/><path d="M610.7846,99.7969 L612.7231,99.7969 L612.7231,101.5969 L610.7846,101.5969" fill="#252327"/><text fill="#000000" font-family="'Helvetica Neue, Helvetica, Arial, sans-serif'" font-size="12" lengthAdjust="spacing" textLength="174.0176" x="620.9683" y="105.6206">Confidential Assurance Store</text></g><!--entity APP_GnsLC8--><g class="entity" data-qualified-name="Application.APP_GnsLC8" data-source-line="91" id="ent0004"><rect fill="#CCF2FF" height="42.1538" rx="2" ry="2" style="stroke:#0078A0;stroke-width:0.5;" width="157.1382" x="23.5" y="76.2969"/><path d="M39.0385,92.1123 L49.2846,92.1123 L49.2846,102.6353 L39.0385,102.6353" fill="#252327" style="stroke:none;stroke-width:0.5;"/><path d="M36.6846,93.1507 L39.0385,93.1507 L39.0385,94.9507 L36.6846,94.9507" fill="#252327"/><path d="M36.6846,96.4738 L39.0385,96.4738 L39.0385,98.2738 L36.6846,98.2738" fill="#252327"/><path d="M36.6846,99.7969 L39.0385,99.7969 L39.0385,101.5969 L36.6846,101.5969" fill="#252327"/><path d="M49.2846,93.1507 L51.2231,93.1507 L51.2231,94.9507 L49.2846,94.9507" fill="#252327"/><path d="M49.2846,96.4738 L51.2231,96.4738 L51.2231,98.2738 L49.2846,98.2738" fill="#252327"/><path d="M49.2846,99.7969 L51.2231,99.7969 L51.2231,101.5969 L49.2846,101.5969" fill="#252327"/><text fill="#000000" font-family="'Helvetica Neue, Helvetica, Arial, sans-serif'" font-size="12" lengthAdjust="spacing" textLength="111.1699" x="59.4683" y="105.6206">Assurance Archive</text></g><!--entity APP_e2zPs6--><g class="entity" data-qualified-name="Application.APP_e2zPs6" data-source-line="92" id="ent0005"><rect fill="#CCF2FF" height="42.1538" rx="2" ry="2" style="stroke:#0078A0;stroke-width:0.5;" width="284.0113" x="241" y="76.2969"/><path d="M256.5385,92.1123 L266.7846,92.1123 L266.7846,102.6353 L256.5385,102.6353" fill="#252327" style="stroke:none;stroke-width:0.5;"/><path d="M254.1846,93.1507 L256.5385,93.1507 L256.5385,94.9507 L254.1846,94.9507" fill="#252327"/><path d="M254.1846,96.4738 L256.5385,96.4738 L256.5385,98.2738 L254.1846,98.2738" fill="#252327"/><path d="M254.1846,99.7969 L256.5385,99.7969 L256.5385,101.5969 L254.1846,101.5969" fill="#252327"/><path d="M266.7846,93.1507 L268.7231,93.1507 L268.7231,94.9507 L266.7846,94.9507" fill="#252327"/><path d="M266.7846,96.4738 L268.7231,96.4738 L268.7231,98.2738 L266.7846,98.2738" fill="#252327"/><path d="M266.7846,99.7969 L268.7231,99.7969 L268.7231,101.5969 L266.7846,101.5969" fill="#252327"/><text fill="#000000" font-family="'Helvetica Neue, Helvetica, Arial, sans-serif'" font-size="12" lengthAdjust="spacing" textLength="238.043" x="276.9683" y="105.6206">Supply-Chain &amp; Vulnerability Connector</text></g><!--entity DOB_ApaPcg--><g class="entity" data-qualified-name="Application.DOB_ApaPcg" data-source-line="93" id="ent0006"><rect fill="#CCF2FF" height="42.1538" rx="2" ry="2" style="stroke:#0078A0;stroke-width:0.5;" width="210.9742" x="490.5" y="198.2969"/><path d="M504.6538,213.5584 L518.5,213.5584 L518.5,215.3584 L504.6538,215.3584" fill="#252327"/><path d="M504.6538,223.3892 L518.5,223.3892 L518.5,225.1892 L504.6538,225.1892" fill="#252327"/><path d="M504.6538,215.3584 L504.6538,223.3892 L506.4538,223.3892 L506.4538,215.3584" fill="#252327"/><path d="M516.7,215.3584 L516.7,223.3892 L518.5,223.3892 L518.5,215.3584" fill="#252327"/><path d="M504.6538,215.1507 L518.5,215.1507 L518.5,216.9507 L504.6538,216.9507" fill="#252327"/><text fill="#000000" font-family="'Helvetica Neue, Helvetica, Arial, sans-serif'" font-size="12" lengthAdjust="spacing" textLength="165.0059" x="526.4683" y="227.6206">Assurance Knowledge Base</text></g><!--entity DOB_H_xFye--><g class="entity" data-qualified-name="Application.DOB_H_xFye" data-source-line="94" id="ent0007"><rect fill="#CCF2FF" height="42.1538" rx="2" ry="2" style="stroke:#0078A0;stroke-width:0.5;" width="168.9038" x="22.5" y="198.2969"/><path d="M36.6538,213.5584 L50.5,213.5584 L50.5,215.3584 L36.6538,215.3584" fill="#252327"/><path d="M36.6538,223.3892 L50.5,223.3892 L50.5,225.1892 L36.6538,225.1892" fill="#252327"/><path d="M36.6538,215.3584 L36.6538,223.3892 L38.4538,223.3892 L38.4538,215.3584" fill="#252327"/><path d="M48.7,215.3584 L48.7,223.3892 L50.5,223.3892 L50.5,215.3584" fill="#252327"/><path d="M36.6538,215.1507 L50.5,215.1507 L50.5,216.9507 L36.6538,216.9507" fill="#252327"/><text fill="#000000" font-family="'Helvetica Neue, Helvetica, Arial, sans-serif'" font-size="12" lengthAdjust="spacing" textLength="122.9355" x="58.4683" y="227.6206">Assurance Audit Log</text></g><!--entity DOB_p04R7k--><g class="entity" data-qualified-name="Application.DOB_p04R7k" data-source-line="95" id="ent0008"><rect fill="#CCF2FF" height="42.1538" rx="2" ry="2" style="stroke:#0078A0;stroke-width:0.5;" width="177.9683" x="252" y="198.2969"/><path d="M266.1538,213.5584 L280,213.5584 L280,215.3584 L266.1538,215.3584" fill="#252327"/><path d="M266.1538,223.3892 L280,223.3892 L280,225.1892 L266.1538,225.1892" fill="#252327"/><path d="M266.1538,215.3584 L266.1538,223.3892 L267.9538,223.3892 L267.9538,215.3584" fill="#252327"/><path d="M278.2,215.3584 L278.2,223.3892 L280,223.3892 L280,215.3584" fill="#252327"/><path d="M266.1538,215.1507 L280,215.1507 L280,216.9507 L266.1538,216.9507" fill="#252327"/><text fill="#000000" font-family="'Helvetica Neue, Helvetica, Arial, sans-serif'" font-size="12" lengthAdjust="spacing" textLength="132" x="287.9683" y="227.6206">Security Signals Store</text></g><!--entity SSW_nhzGvk--><g class="entity" data-qualified-name="Technology.SSW_nhzGvk" data-source-line="99" id="ent0010"><rect fill="#CCFFCC" height="42.1538" rx="2" ry="2" style="stroke:#2E7D32;stroke-width:0.5;" width="108.9683" x="724.5" y="320.2969"/><ellipse cx="744.4692" cy="341.3738" fill="none" rx="4.5692" ry="4.5692" style="stroke:#252327;stroke-width:1.8;"/><ellipse cx="748.0692" cy="342.4815" fill="none" rx="4.5692" ry="4.5692" style="stroke:#252327;stroke-width:1.8;"/><text fill="#000000" font-family="'Helvetica Neue, Helvetica, Arial, sans-serif'" font-size="12" lengthAdjust="spacing" textLength="63" x="760.4683" y="349.6206">SQLCipher</text></g><!--entity SSW_OCX11y--><g class="entity" data-qualified-name="Technology.SSW_OCX11y" data-source-line="100" id="ent0011"><rect fill="#CCFFCC" height="42.1538" rx="2" ry="2" style="stroke:#2E7D32;stroke-width:0.5;" width="121.6949" x="894" y="320.2969"/><ellipse cx="913.9692" cy="341.3738" fill="none" rx="4.5692" ry="4.5692" style="stroke:#252327;stroke-width:1.8;"/><ellipse cx="917.5692" cy="342.4815" fill="none" rx="4.5692" ry="4.5692" style="stroke:#252327;stroke-width:1.8;"/><text fill="#000000" font-family="'Helvetica Neue, Helvetica, Arial, sans-serif'" font-size="12" lengthAdjust="spacing" textLength="75.7266" x="929.9683" y="349.6206">OS Keychain</text></g><!--entity SSW_kIOyT2--><g class="entity" data-qualified-name="Technology.SSW_kIOyT2" data-source-line="101" id="ent0012"><rect fill="#CCFFCC" height="42.1538" rx="2" ry="2" style="stroke:#2E7D32;stroke-width:0.5;" width="115.4019" x="1076.5" y="320.2969"/><ellipse cx="1096.4692" cy="341.3738" fill="none" rx="4.5692" ry="4.5692" style="stroke:#252327;stroke-width:1.8;"/><ellipse cx="1100.0692" cy="342.4815" fill="none" rx="4.5692" ry="4.5692" style="stroke:#252327;stroke-width:1.8;"/><text fill="#000000" font-family="'Helvetica Neue, Helvetica, Arial, sans-serif'" font-size="12" lengthAdjust="spacing" textLength="69.4336" x="1112.4683" y="349.6206">PocketBase</text></g><!--entity ART_tkNvK_--><g class="entity" data-qualified-name="Technology.ART_tkNvK_" data-source-line="102" id="ent0013"><rect fill="#CCFFCC" height="42.1538" rx="2" ry="2" style="stroke:#2E7D32;stroke-width:0.5;" width="234.189" x="430" y="320.2969"/><path d="M445.5385,335.143 L453.5692,335.143 L456.6154,338.1892 L456.6154,347.6046 L445.5385,347.6046" fill="#252327" style="stroke:none;stroke-width:0.5;"/><path d="M452.6692,335.143 L452.6692,338.1892 L454.4692,338.1892 L454.4692,335.143" fill="#252327"/><path d="M453.5692,337.2892 L456.6154,337.2892 L456.6154,339.0892 L453.5692,339.0892" fill="#252327"/><text fill="#000000" font-family="'Helvetica Neue, Helvetica, Arial, sans-serif'" font-size="12" lengthAdjust="spacing" textLength="188.2207" x="465.9683" y="349.6206">Encrypted Assurance Database</text></g><!--entity ART_X7EfZb--><g class="entity" data-qualified-name="Technology.ART_X7EfZb" data-source-line="103" id="ent0014"><rect fill="#CCFFCC" height="42.1538" rx="2" ry="2" style="stroke:#2E7D32;stroke-width:0.5;" width="203.2456" x="166.5" y="320.2969"/><path d="M182.0385,335.143 L190.0692,335.143 L193.1154,338.1892 L193.1154,347.6046 L182.0385,347.6046" fill="#252327" style="stroke:none;stroke-width:0.5;"/><path d="M189.1692,335.143 L189.1692,338.1892 L190.9692,338.1892 L190.9692,335.143" fill="#252327"/><path d="M190.0692,337.2892 L193.1154,337.2892 L193.1154,339.0892 L190.0692,339.0892" fill="#252327"/><text fill="#000000" font-family="'Helvetica Neue, Helvetica, Arial, sans-serif'" font-size="12" lengthAdjust="spacing" textLength="157.2773" x="202.4683" y="349.6206">Security Signals Database</text></g><!--link APP_E0fzqZ to APP_GnsLC8--><!--link APP_GnsLC8 to APP_e2zPs6--><!--link APP_e2zPs6 to DOB_ApaPcg--><!--link DOB_ApaPcg to DOB_H_xFye--><!--link DOB_H_xFye to DOB_p04R7k--><!--link SSW_nhzGvk to SSW_OCX11y--><!--link SSW_OCX11y to SSW_kIOyT2--><!--link SSW_kIOyT2 to ART_tkNvK_--><!--link ART_tkNvK_ to ART_X7EfZb--><!--reverse link APP_E0fzqZ to SSW_OCX11y--><g class="link" data-entity-1="ent0003" data-entity-2="ent0011" data-link-type="dependency" data-source-line="119" id="lnk25"><path d="M811.26,104.2969 C882.13,104.2969 955,104.2969 955,104.2969 C955,104.2969 955,262.2669 955,320.2669" fill="none" id="APP_E0fzqZ-backto-SSW_OCX11y" style="stroke:#181818;stroke-width:1;"/><polygon fill="#181818" points="805.26,104.2969,814.26,108.2969,810.26,104.2969,814.26,100.2969,805.26,104.2969" style="stroke:#181818;stroke-width:1;"/></g><!--reverse link APP_E0fzqZ to SSW_kIOyT2--><g class="link" data-entity-1="ent0003" data-entity-2="ent0012" data-link-type="dependency" data-source-line="120" id="lnk27"><path d="M811.21,90.2969 C941.25,90.2969 1134,90.2969 1134,90.2969 C1134,90.2969 1134,259.1969 1134,319.8969" fill="none" id="APP_E0fzqZ-backto-SSW_kIOyT2" style="stroke:#181818;stroke-width:1;"/><polygon fill="#181818" points="805.21,90.2969,814.21,94.2969,810.21,90.2969,814.21,86.2969,805.21,90.2969" style="stroke:#181818;stroke-width:1;"/></g><!--reverse link APP_E0fzqZ to SSW_nhzGvk--><g class="link" data-entity-1="ent0003" data-entity-2="ent0010" data-link-type="dependency" data-source-line="121" id="lnk29"><path d="M764.75,124.5269 C764.75,170.7869 764.75,274.2369 764.75,320.2969" fill="none" id="APP_E0fzqZ-backto-SSW_nhzGvk" style="stroke:#181818;stroke-width:1;"/><polygon fill="#181818" points="764.75,118.5269,760.75,127.5269,764.75,123.5269,768.75,127.5269,764.75,118.5269" style="stroke:#181818;stroke-width:1;"/></g><!--link APP_E0fzqZ to DOB_ApaPcg--><g class="link" data-entity-1="ent0003" data-entity-2="ent0006" data-link-type="dependency" data-source-line="122" id="lnk30"><path d="M662.67,118.5469 C662.67,140.9369 662.67,169.9869 662.67,192.2869" fill="none" id="APP_E0fzqZ-to-DOB_ApaPcg" style="stroke:#181818;stroke-width:1;"/><polygon fill="#181818" points="662.67,198.2869,666.67,189.2869,662.67,193.2869,658.67,189.2869,662.67,198.2869" style="stroke:#181818;stroke-width:1;"/></g><!--link APP_GnsLC8 to DOB_H_xFye--><g class="link" data-entity-1="ent0004" data-entity-2="ent0007" data-link-type="dependency" data-source-line="123" id="lnk31"><path d="M75.83,118.5469 C75.83,140.9369 75.83,169.9869 75.83,192.2869" fill="none" id="APP_GnsLC8-to-DOB_H_xFye" style="stroke:#181818;stroke-width:1;"/><polygon fill="#181818" points="75.83,198.2869,79.83,189.2869,75.83,193.2869,71.83,189.2869,75.83,198.2869" style="stroke:#181818;stroke-width:1;"/></g><!--link APP_e2zPs6 to DOB_p04R7k--><g class="link" data-entity-1="ent0005" data-entity-2="ent0008" data-link-type="dependency" data-source-line="124" id="lnk32"><path d="M341,118.5469 C341,140.9369 341,169.9869 341,192.2869" fill="none" id="APP_e2zPs6-to-DOB_p04R7k" style="stroke:#181818;stroke-width:1;"/><polygon fill="#181818" points="341,198.2869,345,189.2869,341,193.2869,337,189.2869,341,198.2869" style="stroke:#181818;stroke-width:1;"/></g><!--reverse link DOB_p04R7k to ART_X7EfZb--><g class="link" data-entity-1="ent0008" data-entity-2="ent0014" data-link-type="extension" data-source-line="125" id="lnk34"><path d="M310.75,258.5469 C310.75,280.9369 310.75,297.9869 310.75,320.2869" fill="none" id="DOB_p04R7k-backto-ART_X7EfZb" style="stroke:#181818;stroke-width:1;stroke-dasharray:7,7;"/><polygon fill="none" points="310.75,240.5469,304.75,258.5469,316.75,258.5469,310.75,240.5469" style="stroke:#181818;stroke-width:1;"/></g><!--reverse link DOB_ApaPcg to ART_tkNvK_--><g class="link" data-entity-1="ent0006" data-entity-2="ent0013" data-link-type="extension" data-source-line="126" id="lnk36"><path d="M577.25,258.5469 C577.25,280.9369 577.25,297.9869 577.25,320.2869" fill="none" id="DOB_ApaPcg-backto-ART_tkNvK_" style="stroke:#181818;stroke-width:1;stroke-dasharray:7,7;"/><polygon fill="none" points="577.25,240.5469,571.25,258.5469,583.25,258.5469,577.25,240.5469" style="stroke:#181818;stroke-width:1;"/></g><!--reverse link DOB_H_xFye to ART_tkNvK_--><g class="link" data-entity-1="ent0007" data-entity-2="ent0013" data-link-type="extension" data-source-line="127" id="lnk38"><path d="M179,258.6269 C179,276.2269 179,280.2969 179,280.2969 C179,280.2969 460.25,280.2969 460.25,280.2969 C460.25,280.2969 460.25,302.3669 460.25,319.9669" fill="none" id="DOB_H_xFye-backto-ART_tkNvK_" style="stroke:#181818;stroke-width:1;stroke-dasharray:7,7;"/><polygon fill="none" points="179,240.6269,173,258.6269,185,258.6269,179,240.6269" style="stroke:#181818;stroke-width:1;"/></g><?plantuml-src xLXhRnev5FtEh_1EL_kGCfDXW42gW4G9D5MpJJPakrLNAsHcBZDU1dlMDb3IxN_VQpBDEBmIadwiaaZ6zhddt8Ul7H8M0L4Q90YzoA1KKcF6CohfX4GmejDKzmJNx-W4Y7C6wGmq2obv1rCu87UV3qXRCfeU44MvSXL8Dd8s6-gp6o3bm5fK2Ot4dF6OZ6Ygm5gHOigZK4WEabIj-I4Dn_5oiIDI8ScBNjlysD9Jni6uGuJKYR0Mk8X0GKQEV9k8yh6PRFYb7r0hOiaLf8DhoU8OVU7nBoCf9WT4YmEIqY6aln8pGLotXNFtC5T0KtP3DHDy2yZp_jk56loHxG7iWvpjfQ-jb0ZPBdskkmCpE8UHVXBmYiN97iWm1AMs1cBDhJTyb4w1Xx0ROgKSGarvdCB9IJlBKgnXe_8rLbM6yMoroESI8QzM2wtRw3LwFRCYP0God_NzUgFjbxviDdyDOS9nOxnuXFLUjxjgFUZMJol1Dkkq43y8nIGJ7BZUHj3fz89zvLEfsOY6kspsEftzH4TKqu4O_WFXDvMg5jZ79WCbHdfE9JnHSKcB36k538NMM3aHCmmOtbBolLFQdVBxMVf-bXvKd4ccWVn8PPYm2TKms1XZSg9cCVaqIRbgEedMsSl3m_byxiqhdf3nOU3x_Y7kSCYCmVoL-DHqVEAJyX7-EgsJZEg4H4tdjogfUa5IzwgpkdTqLhrn21cnD6qwBu9QK0dg3fvUASRGT3ZIEeSMDF0gFgAFQqdPg_kpCduyCtDeuxw9DL3Tg-mFElRgUu7APQzwfw-QevQJZu3b2lU5vHeVX9dCj3PbEY_sRvRSYbTBQbuZ3Ro0uD_io6lib-HZhrmpLlmPmlt4kFNUVDmPZ6EluPEQvzSI0xgDXPdR9nJM6Vr6qQXule-kDD0B7uUtiipaJb-MA0GSFm5Myyh-hBPaD74p7nygelh-g2NLRPq_B71Rk5Twr_D27Z8Pfa12dAvxWKF2HTDfE4GsdOfNkIk-PQtTLTvAARfp5kcawQ0pHhPb4Gifj-Wzp-PjA4gQQRICp-ufNjGXa4kGYc4mpFWdSYsdIcEdnlPD9GDLAjqrVE9ODxT3Tbta5kRaeSR-MOKqXMRPgtrfaOxW8tn2SOtl7qjZNmi9XdBRzKiLQLzU3hh-wERVZyyHK72s3Mhs6DRNN9rt6izXxKznoyBj99HnJCBxQOglD3faATCB4nEEXeLyX1G8RYxLqNOfLfVPulPRBkOfH37WHQwMtjz_FI3HwSMhGJkZbs7y7ABsD6AQd8juAyVPu5Dl0Vjpz26SIXEvFeivleAByjb8a_dLg_hOlEejdk8LQN1RtvHRbArqb_lgVZ_li2o1PJhNdr0egj__Sy2JczUpyTCOBlhaBIn2KqmxEIuw7yhbnTCuBaKu1lsrHBPIZDzSBAw37KSZVm3SiztbeLna6YAhMaunSyESpNeYcxA_kXxeyRlPsy6UD6jbiflZGxqx-ZWqPV8pSLqNwrSBDwKBCTKl2LumG2C2AKpmF2eoPph1enpdrQ8CebHqAEB-XVyfOf_xMvglF5oxZHJ3ZRlo4ruCrtPPnxCORjoL7x1Yk75NVZwAgbpRPHLJCTouAw-7OhZkOv7EOhXnLvuGau-yHM9JLFSKJ3EtPLyCDk-cjQ_-hQxPcSCLAy9sjlALFAfsXlALF9A5UE9DC_EDtSfYxhIr-9Ljus9E-3y0?></g></svg>