<svg xmlns="http://www.w3.org/2000/svg" xmlns:xlink="http://www.w3.org/1999/xlink" contentStyleType="text/css" data-diagram-type="DESCRIPTION" height="855px" preserveAspectRatio="none" style="width:893px;height:855px;background:#FAFAFA;" version="1.1" viewBox="0 0 893 855" width="893px" zoomAndPan="magnify"><?plantuml 1.2026.3?><defs/><g><rect fill="#FAFAFA" height="855" style="stroke:none;stroke-width:1;" width="893" x="0" y="0"/><g class="title" data-source-line="70"><text fill="#000000" font-family="'Helvetica Neue, Helvetica, Arial, sans-serif'" font-size="14" font-weight="700" lengthAdjust="spacing" textLength="228.6006" x="328.6997" y="22.9951">Architecture Implementation</text></g><!--cluster Processes--><g class="cluster" data-qualified-name="Processes" data-source-line="72" id="ent0002"><rect fill="#EDE8E1" height="195" rx="2" ry="2" style="stroke:#8C7E6A;stroke-width:1;" width="582" x="297" y="44.2969"/><text fill="#000000" font-family="'Helvetica Neue, Helvetica, Arial, sans-serif'" font-size="12" font-weight="700" lengthAdjust="spacing" textLength="67.7754" x="554.1123" y="57.4355">Processes</text></g><!--cluster PRC_GHVpDA--><g class="cluster" data-qualified-name="Processes.PRC_GHVpDA" data-source-line="73" id="ent0003"><rect fill="#E0D8CC" height="115" rx="2" ry="2" style="stroke:#8C7E6A;stroke-width:1;" width="518" x="329" y="92.2969"/><path d="M412.3297,99.9738 L421.0528,99.9738 L421.0528,98.1738 L427.2836,105.3738 L421.0528,112.5738 L421.0528,110.7738 L412.3297,110.7738" fill="#252327" style="stroke:none;stroke-width:1;"/><text fill="#000000" font-family="'Helvetica Neue, Helvetica, Arial, sans-serif'" font-size="12" font-weight="700" lengthAdjust="spacing" textLength="332.209" x="435.0613" y="113.6206">Architecture Implementation &#171;Business Process&#187;</text></g><!--cluster Functions--><g class="cluster" data-qualified-name="Functions" data-source-line="78" id="ent0005"><rect fill="#EDE8E1" height="578" rx="2" ry="2" style="stroke:#8C7E6A;stroke-width:1;" width="552" x="7" y="263.2969"/><text fill="#000000" font-family="'Helvetica Neue, Helvetica, Arial, sans-serif'" font-size="12" font-weight="700" lengthAdjust="spacing" textLength="66.1758" x="249.9121" y="276.4355">Functions</text></g><!--entity FNC_lLdx12--><g class="entity" data-qualified-name="Processes.PRC_GHVpDA.FNC_lLdx12" data-source-line="74" id="ent0004"><rect fill="#E0D8CC" height="42.1538" rx="2" ry="2" style="stroke:#8C7E6A;stroke-width:0.5;" width="425.5738" x="397" y="141.2969"/><path d="M411.0154,167.4969 L411.0154,158.7738 L418.0769,155.5892 L425.1385,158.7738 L425.1385,167.4969 L418.0769,164.0353" fill="#252327" style="stroke:none;stroke-width:0.5;"/><text fill="#000000" font-family="'Helvetica Neue, Helvetica, Arial, sans-serif'" font-size="12" lengthAdjust="spacing" textLength="379.6055" x="432.9683" y="170.6206">Discover Relevant Architecture Content &#171;Application Function&#187;</text></g><!--entity FNC_4LZhtI--><g class="entity" data-qualified-name="Functions.FNC_4LZhtI" data-source-line="79" id="ent0006"><rect fill="#E0D8CC" height="42.1538" rx="2" ry="2" style="stroke:#8C7E6A;stroke-width:0.5;" width="311.105" x="158.5" y="295.2969"/><path d="M172.5154,321.4969 L172.5154,312.7738 L179.5769,309.5892 L186.6385,312.7738 L186.6385,321.4969 L179.5769,318.0353" fill="#252327" style="stroke:none;stroke-width:0.5;"/><text fill="#000000" font-family="'Helvetica Neue, Helvetica, Arial, sans-serif'" font-size="12" lengthAdjust="spacing" textLength="265.1367" x="194.4683" y="324.6206">Implement the Change &#171;Business Function&#187;</text></g><!--entity FNC_4ce2Qt--><g class="entity" data-qualified-name="Functions.FNC_4ce2Qt" data-source-line="80" id="ent0007"><rect fill="#E0D8CC" height="42.1538" rx="2" ry="2" style="stroke:#8C7E6A;stroke-width:0.5;" width="457.5835" x="85" y="417.2969"/><path d="M99.0154,443.4969 L99.0154,434.7738 L106.0769,431.5892 L113.1385,434.7738 L113.1385,443.4969 L106.0769,440.0353" fill="#252327" style="stroke:none;stroke-width:0.5;"/><text fill="#000000" font-family="'Helvetica Neue, Helvetica, Arial, sans-serif'" font-size="12" lengthAdjust="spacing" textLength="411.6152" x="120.9683" y="446.6206">Synthesize &amp; Deliver Implementation Guidance &#171;Business Function&#187;</text></g><!--entity FNC_LxeSn1--><g class="entity" data-qualified-name="Functions.FNC_LxeSn1" data-source-line="81" id="ent0008"><rect fill="#E0D8CC" height="42.1538" rx="2" ry="2" style="stroke:#8C7E6A;stroke-width:0.5;" width="375.3589" x="23.5" y="539.2969"/><path d="M37.5154,565.4969 L37.5154,556.7738 L44.5769,553.5892 L51.6385,556.7738 L51.6385,565.4969 L44.5769,562.0353" fill="#252327" style="stroke:none;stroke-width:0.5;"/><text fill="#000000" font-family="'Helvetica Neue, Helvetica, Arial, sans-serif'" font-size="12" lengthAdjust="spacing" textLength="329.3906" x="59.4683" y="568.6206">Record Implementation Decisions &#171;Business Function&#187;</text></g><!--entity FNC_TSs7wk--><g class="entity" data-qualified-name="Functions.FNC_TSs7wk" data-source-line="82" id="ent0009"><rect fill="#E0D8CC" height="42.1538" rx="2" ry="2" style="stroke:#8C7E6A;stroke-width:0.5;" width="358.6128" x="183.5" y="661.2969"/><path d="M197.5154,687.4969 L197.5154,678.7738 L204.5769,675.5892 L211.6385,678.7738 L211.6385,687.4969 L204.5769,684.0353" fill="#252327" style="stroke:none;stroke-width:0.5;"/><text fill="#000000" font-family="'Helvetica Neue, Helvetica, Arial, sans-serif'" font-size="12" lengthAdjust="spacing" textLength="312.6445" x="219.4683" y="690.6206">Plan Implementation Approach &#171;Business Function&#187;</text></g><!--entity FNC_fCdnJ2--><g class="entity" data-qualified-name="Functions.FNC_fCdnJ2" data-source-line="83" id="ent0010"><rect fill="#E0D8CC" height="42.1538" rx="2" ry="2" style="stroke:#8C7E6A;stroke-width:0.5;" width="472.021" x="47" y="783.2969"/><path d="M61.0154,809.4969 L61.0154,800.7738 L68.0769,797.5892 L75.1385,800.7738 L75.1385,809.4969 L68.0769,806.0353" fill="#252327" style="stroke:none;stroke-width:0.5;"/><text fill="#000000" font-family="'Helvetica Neue, Helvetica, Arial, sans-serif'" font-size="12" lengthAdjust="spacing" textLength="426.0527" x="82.9683" y="812.6206">Refine Architecture Content after Implementation &#171;Business Function&#187;</text></g><!--link FNC_4LZhtI to FNC_4ce2Qt--><!--link FNC_4ce2Qt to FNC_4LZhtI--><g class="link" data-entity-1="ent0007" data-entity-2="ent0006" data-link-type="dependency" data-source-line="95" id="lnk19"><path d="M365.83,417.0469 C365.83,394.6569 365.83,365.6069 365.83,343.3069" fill="none" id="FNC_4ce2Qt-to-FNC_4LZhtI" style="stroke:#181818;stroke-width:1;"/><polygon fill="#181818" points="365.83,337.3069,361.83,346.3069,365.83,342.3069,369.83,346.3069,365.83,337.3069" style="stroke:#181818;stroke-width:1;"/></g><!--link FNC_4ce2Qt to FNC_LxeSn1--><!--link FNC_LxeSn1 to FNC_TSs7wk--><!--link FNC_TSs7wk to FNC_fCdnJ2--><!--link PRC_GHVpDA to FNC_4LZhtI--><!--link FNC_lLdx12 to FNC_TSs7wk--><g class="link" data-entity-1="ent0004" data-entity-2="ent0009" data-link-type="dependency" data-source-line="92" id="lnk16"><path d="M683,183.3269 C683,280.6069 683,682.2969 683,682.2969 C683,682.2969 621.59,682.2969 548.64,682.2969" fill="none" id="FNC_lLdx12-to-FNC_TSs7wk" style="stroke:#181818;stroke-width:1;"/><polygon fill="#181818" points="542.64,682.2969,551.64,686.2969,547.64,682.2969,551.64,678.2969,542.64,682.2969" style="stroke:#181818;stroke-width:1;"/></g><!--link FNC_4LZhtI to FNC_LxeSn1--><g class="link" data-entity-1="ent0006" data-entity-2="ent0008" data-link-type="dependency" data-source-line="93" id="lnk17"><path d="M158.4,316.2969 C103.08,316.2969 54.25,316.2969 54.25,316.2969 C54.25,316.2969 54.25,473.7069 54.25,533.0669" fill="none" id="FNC_4LZhtI-to-FNC_LxeSn1" style="stroke:#181818;stroke-width:1;"/><polygon fill="#181818" points="54.25,539.0669,58.25,530.0669,54.25,534.0669,50.25,530.0669,54.25,539.0669" style="stroke:#181818;stroke-width:1;"/></g><!--link FNC_TSs7wk to FNC_4ce2Qt--><g class="link" data-entity-1="ent0009" data-entity-2="ent0007" data-link-type="dependency" data-source-line="94" id="lnk18"><path d="M470.5,661.0669 C470.5,614.8069 470.5,511.3569 470.5,465.2969" fill="none" id="FNC_TSs7wk-to-FNC_4ce2Qt" style="stroke:#181818;stroke-width:1;"/><polygon fill="#181818" points="470.5,459.2969,466.5,468.2969,470.5,464.2969,474.5,468.2969,470.5,459.2969" style="stroke:#181818;stroke-width:1;"/></g><!--link FNC_LxeSn1 to FNC_fCdnJ2--><g class="link" data-entity-1="ent0008" data-entity-2="ent0010" data-link-type="dependency" data-source-line="96" id="lnk20"><path d="M115.25,581.5269 C115.25,627.7869 115.25,731.2369 115.25,777.2969" fill="none" id="FNC_LxeSn1-to-FNC_fCdnJ2" style="stroke:#181818;stroke-width:1;"/><polygon fill="#181818" points="115.25,783.2969,119.25,774.2969,115.25,778.2969,111.25,774.2969,115.25,783.2969" style="stroke:#181818;stroke-width:1;"/></g><?plantuml-src xLRTRk965BxdAKwzLRkLm63p4xO290BvgsYqXMqkMbLeOX_mACECDJD0DhjveZv2x_R9UWmcE0HelUfT8v0mvsU-xtnppemZ7Y8OYngL_HXZeM3kk8oPPZC8SSBcmfuhQQ_P3C6vHB50omC6rpZ78ZpzBq9NSoQAO9Wq9OEQJvpz2utu0uBdPvmcOg5QSZc52HC6CnwjvZ8Cb9QeePQntxBWRhfozfHG6jwSTvDFbhhW4fDoG6aRgOn3gX0Dnj2eP86Ol4kCpKhX6-9AkJ14CVwW-NHAjSZfsubMio9OLGJ1Rb7y08a1IgKEsPxb3949_i0iL_90akj-FfOr_ZNEaJX2lSZ5hskC2lWnVgNIaPpn02VsgnA7V1hbo0m2DEQW42_Akf8JCKSPuF6Kp9PZO9cS2corUcesK_A26YecAJiT-5G0EDtjiRF-MVFCIpnAXwXJQxDtSjRe5XxthpoPoo0f_k2QbNwpryktPgnL8irNBXczJllhjBzE-_zasasikKNubkaWuZDcSRpX22spcCBzJ4ZJTY9hun_BvULowIwhhjBJib-fLCeKuS22u_9KtRUT2bJ0Qz3NwRHYPYC8syxFlliEFCyzkQcxjK4Jggudwgu7lbjTDDmgMTwv_eC3CE52j9qtVjsl-YSE7K1QtM7RaKgYK-wq4gZE7hPfzVyPsGRKN2yYPZU-snGrjmvrro-blukIvrOlAUXV4ovO5LEVmQsobhekvCd6aRZau5OWdP9KY2NRN2DSpMA1CvIMhKEUDXcSz-ioqJXme3ypmQsN-dmo0HFOzjpwO-SOA7pvytHkQ8X8qXJpory9vhRB67c6lV75vKtSxwwW3u9lMkaPUf-RG2te1ASnnGMJzZcV7jq9n8Q8TEDOq5MoedMUhhGcanaZOdD-tHkBGNXFbmZ08_LqLhXDOcxXzd9_4WjiH5GZoiEiPFz4ipRuBR9NEK577oMXcUIU_0xwA7WYtiwsNSnvoEYqoqKcGFyNcvFC4Ed-3NVX-nXmawYS1tzmZoFfvSH_BvZSHQT6qOe5KHxm3oDpihpBNVpgVjdRhsnYNsvB3aAJNYX_ygbxjtq2fT_fPIn4-GUz3ybITjEsZ_k2KcMtZ_k2KWMsZ_k2KbQPWT_7QTtLXUyJCUJwW3E5xLYkNZjs83SLffuCumsPrBEdu8rd3PkjClMahFy6?></g></svg>