<svg xmlns="http://www.w3.org/2000/svg" xmlns:xlink="http://www.w3.org/1999/xlink" contentStyleType="text/css" data-diagram-type="DESCRIPTION" height="717px" preserveAspectRatio="none" style="width:1661px;height:717px;background:#FAFAFA;" version="1.1" viewBox="0 0 1661 717" width="1661px" zoomAndPan="magnify"><?plantuml 1.2026.3?><defs/><g><rect fill="#FAFAFA" height="717" style="stroke:none;stroke-width:1;" width="1661" x="0" y="0"/><g class="title" data-source-line="70"><text fill="#000000" font-family="'Helvetica Neue, Helvetica, Arial, sans-serif'" font-size="14" font-weight="700" lengthAdjust="spacing" textLength="271.8584" x="691.0708" y="22.9951">Architecture Modelling &amp; Planning</text></g><!--cluster Processes--><g class="cluster" data-qualified-name="Processes" data-source-line="72" id="ent0002"><rect fill="#EDE8E1" height="659" rx="2" ry="2" style="stroke:#8C7E6A;stroke-width:1;" width="1184" x="7" y="44.2969"/><text fill="#000000" font-family="'Helvetica Neue, Helvetica, Arial, sans-serif'" font-size="12" font-weight="700" lengthAdjust="spacing" textLength="67.7754" x="565.1123" y="57.4355">Processes</text></g><!--cluster PRC_U4aAdh--><g class="cluster" data-qualified-name="Processes.PRC_U4aAdh" data-source-line="73" id="ent0003"><rect fill="#E0D8CC" height="579" rx="2" ry="2" style="stroke:#8C7E6A;stroke-width:1;" width="1120" x="39" y="92.2969"/><path d="M404.7907,99.9738 L413.5137,99.9738 L413.5137,98.1738 L419.7445,105.3738 L413.5137,112.5738 L413.5137,110.7738 L404.7907,110.7738" fill="#252327" style="stroke:none;stroke-width:1;"/><text fill="#000000" font-family="'Helvetica Neue, Helvetica, Arial, sans-serif'" font-size="12" font-weight="700" lengthAdjust="spacing" textLength="369.2871" x="427.5222" y="113.6206">Architecture Modelling &amp; Planning &#171;Business Process&#187;</text></g><!--cluster Functions--><g class="cluster" data-qualified-name="Functions" data-source-line="93" id="ent0020"><rect fill="#EDE8E1" height="212" rx="2" ry="2" style="stroke:#8C7E6A;stroke-width:1;" width="432" x="1215" y="109.2969"/><text fill="#000000" font-family="'Helvetica Neue, Helvetica, Arial, sans-serif'" font-size="12" font-weight="700" lengthAdjust="spacing" textLength="66.1758" x="1397.9121" y="122.4355">Functions</text></g><!--entity FNC_NGjUCa--><g class="entity" data-qualified-name="Processes.PRC_U4aAdh.FNC_NGjUCa" data-source-line="74" id="ent0004"><rect fill="#E0D8CC" height="42.1538" rx="2" ry="2" style="stroke:#8C7E6A;stroke-width:0.5;" width="406.4253" x="578" y="605.2969"/><path d="M592.0154,631.4969 L592.0154,622.7738 L599.0769,619.5892 L606.1385,622.7738 L606.1385,631.4969 L599.0769,628.0353" fill="#252327" style="stroke:none;stroke-width:0.5;"/><text fill="#000000" font-family="'Helvetica Neue, Helvetica, Arial, sans-serif'" font-size="12" lengthAdjust="spacing" textLength="360.457" x="613.9683" y="634.6206">Verify Artifact Integrity &amp; Coherence &#171;Application Function&#187;</text></g><!--entity FNC_lLdx12--><g class="entity" data-qualified-name="Processes.PRC_U4aAdh.FNC_lLdx12" data-source-line="75" id="ent0005"><rect fill="#E0D8CC" height="42.1538" rx="2" ry="2" style="stroke:#8C7E6A;stroke-width:0.5;" width="425.5738" x="709" y="141.2969"/><path d="M723.0154,167.4969 L723.0154,158.7738 L730.0769,155.5892 L737.1385,158.7738 L737.1385,167.4969 L730.0769,164.0353" fill="#252327" style="stroke:none;stroke-width:0.5;"/><text fill="#000000" font-family="'Helvetica Neue, Helvetica, Arial, sans-serif'" font-size="12" lengthAdjust="spacing" textLength="379.6055" x="744.9683" y="170.6206">Discover Relevant Architecture Content &#171;Application Function&#187;</text></g><!--entity FNC_rkx32U--><g class="entity" data-qualified-name="Processes.PRC_U4aAdh.FNC_rkx32U" data-source-line="76" id="ent0006"><rect fill="#E0D8CC" height="42.1538" rx="2" ry="2" style="stroke:#8C7E6A;stroke-width:0.5;" width="495.7925" x="511" y="263.2969"/><path d="M525.0154,289.4969 L525.0154,280.7738 L532.0769,277.5892 L539.1385,280.7738 L539.1385,289.4969 L532.0769,286.0353" fill="#252327" style="stroke:none;stroke-width:0.5;"/><text fill="#000000" font-family="'Helvetica Neue, Helvetica, Arial, sans-serif'" font-size="12" lengthAdjust="spacing" textLength="449.8242" x="546.9683" y="292.6206">Determine Required Changes to Architecture Content &#171;Business Function&#187;</text></g><!--entity FNC_saMRQ0--><g class="entity" data-qualified-name="Processes.PRC_U4aAdh.FNC_saMRQ0" data-source-line="77" id="ent0007"><rect fill="#E0D8CC" height="42.1538" rx="2" ry="2" style="stroke:#8C7E6A;stroke-width:0.5;" width="363.3355" x="70.5" y="483.2969"/><path d="M84.5154,509.4969 L84.5154,500.7738 L91.5769,497.5892 L98.6385,500.7738 L98.6385,509.4969 L91.5769,506.0353" fill="#252327" style="stroke:none;stroke-width:0.5;"/><text fill="#000000" font-family="'Helvetica Neue, Helvetica, Arial, sans-serif'" font-size="12" lengthAdjust="spacing" textLength="317.3672" x="106.4683" y="512.6206">Author Architecture Documents &#171;Business Function&#187;</text></g><!--entity FNC_uzJGYp--><g class="entity" data-qualified-name="Processes.PRC_U4aAdh.FNC_uzJGYp" data-source-line="78" id="ent0008"><rect fill="#E0D8CC" height="42.1538" rx="2" ry="2" style="stroke:#8C7E6A;stroke-width:0.5;" width="274.8824" x="493.5" y="483.2969"/><path d="M507.5154,509.4969 L507.5154,500.7738 L514.5769,497.5892 L521.6385,500.7738 L521.6385,509.4969 L514.5769,506.0353" fill="#252327" style="stroke:none;stroke-width:0.5;"/><text fill="#000000" font-family="'Helvetica Neue, Helvetica, Arial, sans-serif'" font-size="12" lengthAdjust="spacing" textLength="228.9141" x="529.4683" y="512.6206">Author Diagrams &#171;Business Function&#187;</text></g><!--entity FNC_yuFXVJ--><g class="entity" data-qualified-name="Processes.PRC_U4aAdh.FNC_yuFXVJ" data-source-line="79" id="ent0009"><rect fill="#E0D8CC" height="42.1538" rx="2" ry="2" style="stroke:#8C7E6A;stroke-width:0.5;" width="307.2671" x="828.5" y="483.2969"/><path d="M842.5154,509.4969 L842.5154,500.7738 L849.5769,497.5892 L856.6385,500.7738 L856.6385,509.4969 L849.5769,506.0353" fill="#252327" style="stroke:none;stroke-width:0.5;"/><text fill="#000000" font-family="'Helvetica Neue, Helvetica, Arial, sans-serif'" font-size="12" lengthAdjust="spacing" textLength="261.2988" x="864.4683" y="512.6206">Author Model Artifacts &#171;Business Function&#187;</text></g><!--entity JNO_chqH1_--><g class="entity" data-qualified-name="Processes.PRC_U4aAdh.JNO_chqH1_" data-source-line="80" id="ent0010"><ellipse cx="631" cy="394.2969" fill="#F1F1F1" rx="8" ry="8" style="stroke:#181818;stroke-width:0.5;"/></g><!--entity FNC_ErTqVT--><g class="entity" data-qualified-name="Functions.FNC_ErTqVT" data-source-line="94" id="ent0021"><rect fill="#E0D8CC" height="42.1538" rx="2" ry="2" style="stroke:#8C7E6A;stroke-width:0.5;" width="381.1187" x="1230.5" y="141.2969"/><path d="M1244.5154,167.4969 L1244.5154,158.7738 L1251.5769,155.5892 L1258.6385,158.7738 L1258.6385,167.4969 L1251.5769,164.0353" fill="#252327" style="stroke:none;stroke-width:0.5;"/><text fill="#000000" font-family="'Helvetica Neue, Helvetica, Arial, sans-serif'" font-size="12" lengthAdjust="spacing" textLength="335.1504" x="1266.4683" y="170.6206">Scope &amp; Formulate Modelling Task &#171;Business Function&#187;</text></g><!--entity FNC_HgWMdN--><g class="entity" data-qualified-name="Functions.FNC_HgWMdN" data-source-line="95" id="ent0022"><rect fill="#E0D8CC" height="42.1538" rx="2" ry="2" style="stroke:#8C7E6A;stroke-width:0.5;" width="400.5132" x="1230.5" y="263.2969"/><path d="M1244.5154,289.4969 L1244.5154,280.7738 L1251.5769,277.5892 L1258.6385,280.7738 L1258.6385,289.4969 L1251.5769,286.0353" fill="#252327" style="stroke:none;stroke-width:0.5;"/><text fill="#000000" font-family="'Helvetica Neue, Helvetica, Arial, sans-serif'" font-size="12" lengthAdjust="spacing" textLength="354.5449" x="1266.4683" y="292.6206">Decide Changes to Plan or Implement &#171;Business Function&#187;</text></g><!--link FNC_lLdx12 to FNC_rkx32U--><!--link FNC_rkx32U to JNO_chqH1_--><!--link FNC_rkx32U to JNO_chqH1_--><g class="link" data-entity-1="ent0006" data-entity-2="ent0010" data-link-type="dependency" data-source-line="107" id="lnk31"><path d="M634,305.5069 C634,329.6069 634,361.8369 634,379.1869" fill="none" id="FNC_rkx32U-to-JNO_chqH1_" style="stroke:#181818;stroke-width:1;"/><polygon fill="#181818" points="634,385.1869,638,376.1869,634,380.1869,630,376.1869,634,385.1869" style="stroke:#181818;stroke-width:1;"/></g><!--link JNO_chqH1_ to FNC_saMRQ0--><!--link JNO_chqH1_ to FNC_saMRQ0--><!--link JNO_chqH1_ to FNC_saMRQ0--><g class="link" data-entity-1="ent0010" data-entity-2="ent0007" data-link-type="dependency" data-source-line="110" id="lnk34"><path d="M621.74,399.2969 C572.4,399.2969 342.75,399.2969 342.75,399.2969 C342.75,399.2969 342.75,446.3669 342.75,477.0469" fill="none" id="JNO_chqH1_-to-FNC_saMRQ0" style="stroke:#181818;stroke-width:1;"/><polygon fill="#181818" points="342.75,483.0469,346.75,474.0469,342.75,478.0469,338.75,474.0469,342.75,483.0469" style="stroke:#181818;stroke-width:1;"/></g><!--link FNC_saMRQ0 to FNC_uzJGYp--><!--link FNC_uzJGYp to FNC_yuFXVJ--><!--link FNC_yuFXVJ to FNC_NGjUCa--><!--link FNC_yuFXVJ to FNC_NGjUCa--><g class="link" data-entity-1="ent0009" data-entity-2="ent0004" data-link-type="dependency" data-source-line="104" id="lnk28"><path d="M932.17,525.5469 C932.17,547.9369 932.17,576.9869 932.17,599.2869" fill="none" id="FNC_yuFXVJ-to-FNC_NGjUCa" style="stroke:#181818;stroke-width:1;"/><polygon fill="#181818" points="932.17,605.2869,936.17,596.2869,932.17,600.2869,928.17,596.2869,932.17,605.2869" style="stroke:#181818;stroke-width:1;"/></g><!--link JNO_chqH1_ to FNC_uzJGYp--><!--link JNO_chqH1_ to FNC_uzJGYp--><g class="link" data-entity-1="ent0010" data-entity-2="ent0008" data-link-type="dependency" data-source-line="109" id="lnk33"><path d="M634,403.2969 C634,420.6369 634,453.1069 634,477.2369" fill="none" id="JNO_chqH1_-to-FNC_uzJGYp" style="stroke:#181818;stroke-width:1;"/><polygon fill="#181818" points="634,483.2369,638,474.2369,634,478.2369,630,474.2369,634,483.2369" style="stroke:#181818;stroke-width:1;"/></g><!--link JNO_chqH1_ to FNC_yuFXVJ--><!--link JNO_chqH1_ to FNC_yuFXVJ--><g class="link" data-entity-1="ent0010" data-entity-2="ent0009" data-link-type="dependency" data-source-line="108" id="lnk32"><path d="M640.15,397.2969 C685.93,397.2969 888,397.2969 888,397.2969 C888,397.2969 888,445.9769 888,477.1569" fill="none" id="JNO_chqH1_-to-FNC_yuFXVJ" style="stroke:#181818;stroke-width:1;"/><polygon fill="#181818" points="888,483.1569,892,474.1569,888,478.1569,884,474.1569,888,483.1569" style="stroke:#181818;stroke-width:1;"/></g><!--link FNC_ErTqVT to FNC_HgWMdN--><!--link PRC_U4aAdh to FNC_ErTqVT--><!--link FNC_HgWMdN to FNC_rkx32U--><g class="link" data-entity-1="ent0022" data-entity-2="ent0006" data-link-type="dependency" data-source-line="101" id="lnk25"><path d="M1230.29,291.2969 C1160.19,291.2969 1086.66,291.2969 1013.16,291.2969" fill="none" id="FNC_HgWMdN-to-FNC_rkx32U" style="stroke:#181818;stroke-width:1;"/><polygon fill="#181818" points="1007.16,291.2969,1016.16,295.2969,1012.16,291.2969,1016.16,287.2969,1007.16,291.2969" style="stroke:#181818;stroke-width:1;"/></g><!--link FNC_lLdx12 to FNC_HgWMdN--><g class="link" data-entity-1="ent0005" data-entity-2="ent0022" data-link-type="dependency" data-source-line="102" id="lnk26"><path d="M1071,183.3869 C1071,216.5869 1071,277.2969 1071,277.2969 C1071,277.2969 1141.81,277.2969 1224.47,277.2969" fill="none" id="FNC_lLdx12-to-FNC_HgWMdN" style="stroke:#181818;stroke-width:1;"/><polygon fill="#181818" points="1230.47,277.2969,1221.47,273.2969,1225.47,277.2969,1221.47,281.2969,1230.47,277.2969" style="stroke:#181818;stroke-width:1;"/></g><!--link FNC_ErTqVT to FNC_lLdx12--><g class="link" data-entity-1="ent0021" data-entity-2="ent0005" data-link-type="dependency" data-source-line="103" id="lnk27"><path d="M1230.21,162.2969 C1199.12,162.2969 1172.74,162.2969 1141.16,162.2969" fill="none" id="FNC_ErTqVT-to-FNC_lLdx12" style="stroke:#181818;stroke-width:1;"/><polygon fill="#181818" points="1135.16,162.2969,1144.16,166.2969,1140.16,162.2969,1144.16,158.2969,1135.16,162.2969" style="stroke:#181818;stroke-width:1;"/></g><!--link FNC_uzJGYp to FNC_NGjUCa--><g class="link" data-entity-1="ent0008" data-entity-2="ent0004" data-link-type="dependency" data-source-line="105" id="lnk29"><path d="M673.25,525.5469 C673.25,547.9369 673.25,576.9869 673.25,599.2869" fill="none" id="FNC_uzJGYp-to-FNC_NGjUCa" style="stroke:#181818;stroke-width:1;"/><polygon fill="#181818" points="673.25,605.2869,677.25,596.2869,673.25,600.2869,669.25,596.2869,673.25,605.2869" style="stroke:#181818;stroke-width:1;"/></g><!--link FNC_saMRQ0 to FNC_NGjUCa--><g class="link" data-entity-1="ent0007" data-entity-2="ent0004" data-link-type="dependency" data-source-line="106" id="lnk30"><path d="M252,525.5469 C252,560.4969 252,626.2969 252,626.2969 C252,626.2969 422.81,626.2969 571.99,626.2969" fill="none" id="FNC_saMRQ0-to-FNC_NGjUCa" style="stroke:#181818;stroke-width:1;"/><polygon fill="#181818" points="577.99,626.2969,568.99,622.2969,572.99,626.2969,568.99,630.2969,577.99,626.2969" style="stroke:#181818;stroke-width:1;"/></g><?plantuml-src xLRRRkCs47tNLqornRO5OiMNEF4MjW77YND1ucvpQukYC1Y9bbXJf49ITf9jlgYVqBVzieuS9MOIsRiA-jR01cnoPZXdXcTc6B60WZPKKMbk4keuUi94GXI98Q1Zad8paC8CIKp1tQTyIWtp2GnfIjVWSRq6FSK8NmDDXAvegjZOBJxebDrIgDKjeOv886TCX30cN5DBecGg0bygGHLiMFkNn9-4Ss5VSgdWtQ2NVMped0cQXGDIcKXQ0Y43gca2crNR4H6JRBDLTRv1h6WB9vIFpXGBGun5XD-FbOpNmCWruEIIyXyWsu1AfOjxJsnEAE7ibXWcnH8Zp_jhbTNeF2bXU4hLj1I-djRIPwlmLIehR4P7T6nUPNZ2mgY4fUzJhPScuaLO1sBCKofykjh4kdBg6o92JjljlenZAVQGK0ccijk5Jmx0zdEExUxijdPhcKIgWAfyjzNVsjtiENV59uzJuMV1BpspkjFgzykTcIYPfUQLHqPlrVvMxM_L_Z-fTfqePYXyIvGViPWOEdh026qz3U4wva9ttCYOvCVrzTbiviqQdbJXUhrQhQwZXWjJHcVRyhhZLg4AjKtykjrsGam4GSSzhdiVe5RpjYwQtiPH2nfUZJUz6jIzndJJQ-3E1wz-wmAC6USTzrszMM_KjrniG4fEQCSLKb1tlTlEN7KBqERH_sTWDs73gqM8xABkjVY6ruIcLw_alzDApMliez9N0tQCJ91dS2cDGTO5BBiuJ2uAcE4KkoG6Od0lLHIEiHLndZM-z_2H4o7mh-CyNZMu7--3fTg59IorbDili_H9-uJJJirhtdM_x1e-_xsTQYmeJ6_k-VC_cUS5umXAJlgZymtI2w8vWAKG7cZr1CD5DXXk48fXO-8RE126XdZ5DmYZBoESGLZ1YAEN91odofoMW_oWUonMHI6OmR0_6kxzUTudfQ7iCEtBAGuMx1vqIeHvcg0-ZYgAc-MmyAFW6cTRQImKnszytygkKkHC0Fq8ZQdEkBG4r-DTVGcKcbmtwkUbGVLI79pggVSTwQSnkjTb_6joVF9pzRN-TnW9iGEMyfZU7kxzbhpMuxms7ZbQol5DElZrud3ks6VApxpY1uM7mvz6VdIrNnlDXGkkGELtV805LFo1Ro1HUNvXY-LpnMSdBfP59rfNi5Wk55KscYlFKxTO5cfQiIwMHSwj0lrgbAiLBP2h5Hyntk7eiplhmqMMxgo5n3dr9RuqtyD0gZZbg6RrrpEY9sKejAlEhYxEdB8DnCzUyLRJo9ewldtX84uuZKjsZFtmb-DWY2bR02hARgvcJOG2fJmUvxkiTOdxQQYTXVdyZMgntYwDN9BxiS7aahpVslpB9JdfR0w_b3pKmKl9GysXn2eqcsovJSwm0abEqW99plD_0G00?></g></svg>