<svg xmlns="http://www.w3.org/2000/svg" xmlns:xlink="http://www.w3.org/1999/xlink" contentStyleType="text/css" data-diagram-type="DESCRIPTION" height="392px" preserveAspectRatio="none" style="width:1063px;height:392px;background:#FAFAFA;" version="1.1" viewBox="0 0 1063 392" width="1063px" zoomAndPan="magnify"><?plantuml 1.2026.3?><defs/><g><rect fill="#FAFAFA" height="392" style="stroke:none;stroke-width:1;" width="1063" x="0" y="0"/><g class="title" data-source-line="96"><text fill="#000000" font-family="'Helvetica Neue, Helvetica, Arial, sans-serif'" font-size="14" font-weight="700" lengthAdjust="spacing" textLength="356.2891" x="349.8555" y="22.9951">Repository Synchronization &amp; Git Integration</text></g><!--cluster Common--><g class="cluster" data-qualified-name="Common" data-source-line="98" id="ent0002"><rect fill="#EDE8E1" height="212" rx="2" ry="2" style="stroke:#8C7E6A;stroke-width:1;" width="1042" x="7" y="44.2969"/><text fill="#000000" font-family="'Helvetica Neue, Helvetica, Arial, sans-serif'" font-size="12" font-weight="700" lengthAdjust="spacing" textLength="58.8457" x="498.5771" y="57.4355">Common</text></g><!--cluster Application--><g class="cluster" data-qualified-name="Application" data-source-line="107" id="ent0009"><rect fill="#E8F8FF" height="90" rx="2" ry="2" style="stroke:#0078A0;stroke-width:1;" width="396" x="590" y="288.2969"/><text fill="#000000" font-family="'Helvetica Neue, Helvetica, Arial, sans-serif'" font-size="12" font-weight="700" lengthAdjust="spacing" textLength="76.541" x="749.7295" y="301.4355">Application</text></g><!--entity EVT_UCrh3V--><g class="entity" data-qualified-name="Common.EVT_UCrh3V" data-source-line="99" id="ent0003"><rect fill="#E0D8CC" height="42.1538" rx="2" ry="2" style="stroke:#8C7E6A;stroke-width:0.5;" width="296.7085" x="535.5" y="76.2969"/><path d="M549.7923,91.8353 L557.5462,91.8353 A5.2615,5.2615 0 0 1 557.5462,102.9123 L549.7923,102.9123 L552.7,97.3738" fill="#252327" style="stroke:none;stroke-width:0.5;"/><text fill="#000000" font-family="'Helvetica Neue, Helvetica, Arial, sans-serif'" font-size="12" lengthAdjust="spacing" textLength="250.7402" x="571.4683" y="105.6206">Architecture Repository Change Detected</text></g><!--entity FNC_91ddSi--><g class="entity" data-qualified-name="Common.FNC_91ddSi" data-source-line="100" id="ent0004"><rect fill="#E0D8CC" height="42.1538" rx="2" ry="2" style="stroke:#8C7E6A;stroke-width:0.5;" width="263.2046" x="212.5" y="76.2969"/><path d="M226.5154,102.4969 L226.5154,93.7738 L233.5769,90.5892 L240.6385,93.7738 L240.6385,102.4969 L233.5769,99.0353" fill="#252327" style="stroke:none;stroke-width:0.5;"/><text fill="#000000" font-family="'Helvetica Neue, Helvetica, Arial, sans-serif'" font-size="12" lengthAdjust="spacing" textLength="217.2363" x="248.4683" y="105.6206">Check Repository Workspace Status</text></g><!--entity FNC_dxb6ru--><g class="entity" data-qualified-name="Common.FNC_dxb6ru" data-source-line="101" id="ent0005"><rect fill="#E0D8CC" height="42.1538" rx="2" ry="2" style="stroke:#8C7E6A;stroke-width:0.5;" width="147.3765" x="555.5" y="198.2969"/><path d="M569.5154,224.4969 L569.5154,215.7738 L576.5769,212.5892 L583.6385,215.7738 L583.6385,224.4969 L576.5769,221.0353" fill="#252327" style="stroke:none;stroke-width:0.5;"/><text fill="#000000" font-family="'Helvetica Neue, Helvetica, Arial, sans-serif'" font-size="12" lengthAdjust="spacing" textLength="101.4082" x="591.4683" y="227.6206">Index Repository</text></g><!--entity FNC_DGBZ9H--><g class="entity" data-qualified-name="Common.FNC_DGBZ9H" data-source-line="102" id="ent0006"><rect fill="#E0D8CC" height="42.1538" rx="2" ry="2" style="stroke:#8C7E6A;stroke-width:0.5;" width="191.6499" x="303" y="198.2969"/><path d="M317.0154,224.4969 L317.0154,215.7738 L324.0769,212.5892 L331.1385,215.7738 L331.1385,224.4969 L324.0769,221.0353" fill="#252327" style="stroke:none;stroke-width:0.5;"/><text fill="#000000" font-family="'Helvetica Neue, Helvetica, Arial, sans-serif'" font-size="12" lengthAdjust="spacing" textLength="145.6816" x="338.9683" y="227.6206">Pull Repository Changes</text></g><!--entity PRC_tEdRzw--><g class="entity" data-qualified-name="Common.PRC_tEdRzw" data-source-line="103" id="ent0007"><rect fill="#E0D8CC" height="42.1538" rx="2" ry="2" style="stroke:#8C7E6A;stroke-width:0.5;" width="269.5328" x="763" y="198.2969"/><path d="M776.6,213.9738 L785.3231,213.9738 L785.3231,212.1738 L791.5538,219.3738 L785.3231,226.5738 L785.3231,224.7738 L776.6,224.7738" fill="#252327" style="stroke:none;stroke-width:0.5;"/><text fill="#000000" font-family="'Helvetica Neue, Helvetica, Arial, sans-serif'" font-size="12" lengthAdjust="spacing" textLength="223.5645" x="798.9683" y="227.6206">Synchronize With Remote Repository</text></g><!--entity EVT_iqz9jG--><g class="entity" data-qualified-name="Common.EVT_iqz9jG" data-source-line="104" id="ent0008"><rect fill="#E0D8CC" height="42.1538" rx="2" ry="2" style="stroke:#8C7E6A;stroke-width:0.5;" width="220.4253" x="23" y="198.2969"/><path d="M37.2923,213.8353 L45.0462,213.8353 A5.2615,5.2615 0 0 1 45.0462,224.9123 L37.2923,224.9123 L40.2,219.3738" fill="#252327" style="stroke:none;stroke-width:0.5;"/><text fill="#000000" font-family="'Helvetica Neue, Helvetica, Arial, sans-serif'" font-size="12" lengthAdjust="spacing" textLength="174.457" x="58.9683" y="227.6206">Workspace Conflict Detected</text></g><!--entity APP_lmO0mp--><g class="entity" data-qualified-name="Application.APP_lmO0mp" data-source-line="108" id="ent0010"><rect fill="#CCF2FF" height="42.1538" rx="2" ry="2" style="stroke:#0078A0;stroke-width:0.5;" width="159.523" x="606" y="320.2969"/><path d="M621.5385,336.1123 L631.7846,336.1123 L631.7846,346.6353 L621.5385,346.6353" fill="#252327" style="stroke:none;stroke-width:0.5;"/><path d="M619.1846,337.1507 L621.5385,337.1507 L621.5385,338.9507 L619.1846,338.9507" fill="#252327"/><path d="M619.1846,340.4738 L621.5385,340.4738 L621.5385,342.2738 L619.1846,342.2738" fill="#252327"/><path d="M619.1846,343.7969 L621.5385,343.7969 L621.5385,345.5969 L619.1846,345.5969" fill="#252327"/><path d="M631.7846,337.1507 L633.7231,337.1507 L633.7231,338.9507 L631.7846,338.9507" fill="#252327"/><path d="M631.7846,340.4738 L633.7231,340.4738 L633.7231,342.2738 L631.7846,342.2738" fill="#252327"/><path d="M631.7846,343.7969 L633.7231,343.7969 L633.7231,345.5969 L631.7846,345.5969" fill="#252327"/><text fill="#000000" font-family="'Helvetica Neue, Helvetica, Arial, sans-serif'" font-size="12" lengthAdjust="spacing" textLength="113.5547" x="641.9683" y="349.6206">GUI Authoring Tool</text></g><!--entity APP_tY3JIK--><g class="entity" data-qualified-name="Application.APP_tY3JIK" data-source-line="109" id="ent0011"><rect fill="#CCF2FF" height="42.1538" rx="2" ry="2" style="stroke:#0078A0;stroke-width:0.5;" width="144.2066" x="826" y="320.2969"/><path d="M841.5385,336.1123 L851.7846,336.1123 L851.7846,346.6353 L841.5385,346.6353" fill="#252327" style="stroke:none;stroke-width:0.5;"/><path d="M839.1846,337.1507 L841.5385,337.1507 L841.5385,338.9507 L839.1846,338.9507" fill="#252327"/><path d="M839.1846,340.4738 L841.5385,340.4738 L841.5385,342.2738 L839.1846,342.2738" fill="#252327"/><path d="M839.1846,343.7969 L841.5385,343.7969 L841.5385,345.5969 L839.1846,345.5969" fill="#252327"/><path d="M851.7846,337.1507 L853.7231,337.1507 L853.7231,338.9507 L851.7846,338.9507" fill="#252327"/><path d="M851.7846,340.4738 L853.7231,340.4738 L853.7231,342.2738 L851.7846,342.2738" fill="#252327"/><path d="M851.7846,343.7969 L853.7231,343.7969 L853.7231,345.5969 L851.7846,345.5969" fill="#252327"/><text fill="#000000" font-family="'Helvetica Neue, Helvetica, Arial, sans-serif'" font-size="12" lengthAdjust="spacing" textLength="98.2383" x="861.9683" y="349.6206">Git Sync Service</text></g><!--link EVT_UCrh3V to FNC_91ddSi--><!--link FNC_91ddSi to FNC_dxb6ru--><!--link FNC_dxb6ru to FNC_DGBZ9H--><!--link FNC_DGBZ9H to PRC_tEdRzw--><!--link PRC_tEdRzw to EVT_iqz9jG--><!--link APP_lmO0mp to APP_tY3JIK--><!--link EVT_UCrh3V to APP_tY3JIK--><g class="link" data-entity-1="ent0003" data-entity-2="ent0011" data-link-type="association" data-source-line="122" id="lnk19"><path d="M732.75,118.6469 C732.75,166.9169 732.75,280.2969 732.75,280.2969 C732.75,280.2969 874,280.2969 874,280.2969 C874,280.2969 874,302.3669 874,319.9669" fill="none" id="EVT_UCrh3V-APP_tY3JIK" style="stroke:#181818;stroke-width:1;"/></g><!--link PRC_tEdRzw to APP_tY3JIK--><g class="link" data-entity-1="ent0007" data-entity-2="ent0011" data-link-type="association" data-source-line="123" id="lnk21"><path d="M922,240.5469 C922,262.9369 922,297.9869 922,320.2869" fill="none" id="PRC_tEdRzw-APP_tY3JIK" style="stroke:#181818;stroke-width:1;"/></g><!--link EVT_UCrh3V to FNC_dxb6ru--><g class="link" data-entity-1="ent0003" data-entity-2="ent0005" data-link-type="dependency" data-source-line="124" id="lnk22"><path d="M629,118.5469 C629,140.9369 629,169.9869 629,192.2869" fill="none" id="EVT_UCrh3V-to-FNC_dxb6ru" style="stroke:#181818;stroke-width:1;"/><polygon fill="#181818" points="629,198.2869,633,189.2869,629,193.2869,625,189.2869,629,198.2869" style="stroke:#181818;stroke-width:1;"/></g><!--link EVT_iqz9jG to APP_lmO0mp--><g class="link" data-entity-1="ent0008" data-entity-2="ent0010" data-link-type="association" data-source-line="125" id="lnk23"><path d="M133,240.5469 C133,275.4969 133,341.2969 133,341.2969 C133,341.2969 452.63,341.2969 605.88,341.2969" fill="none" id="EVT_iqz9jG-APP_lmO0mp" style="stroke:#181818;stroke-width:1;"/></g><!--link FNC_91ddSi to EVT_iqz9jG--><g class="link" data-entity-1="ent0004" data-entity-2="ent0008" data-link-type="dependency" data-source-line="126" id="lnk24"><path d="M222.67,118.5469 C222.67,140.9369 222.67,169.9869 222.67,192.2869" fill="none" id="FNC_91ddSi-to-EVT_iqz9jG" style="stroke:#181818;stroke-width:1;"/><polygon fill="#181818" points="222.67,198.2869,226.67,189.2869,222.67,193.2869,218.67,189.2869,222.67,198.2869" style="stroke:#181818;stroke-width:1;"/></g><!--link FNC_91ddSi to FNC_DGBZ9H--><g class="link" data-entity-1="ent0004" data-entity-2="ent0006" data-link-type="dependency" data-source-line="127" id="lnk25"><path d="M389.25,118.5469 C389.25,140.9369 389.25,169.9869 389.25,192.2869" fill="none" id="FNC_91ddSi-to-FNC_DGBZ9H" style="stroke:#181818;stroke-width:1;"/><polygon fill="#181818" points="389.25,198.2869,393.25,189.2869,389.25,193.2869,385.25,189.2869,389.25,198.2869" style="stroke:#181818;stroke-width:1;"/></g><!--link FNC_DGBZ9H to EVT_UCrh3V--><g class="link" data-entity-1="ent0006" data-entity-2="ent0003" data-link-type="dependency" data-source-line="128" id="lnk26"><path d="M488.5,198.0469 C488.5,163.0969 488.5,97.2969 488.5,97.2969 C488.5,97.2969 502.31,97.2969 529.33,97.2969" fill="none" id="FNC_DGBZ9H-to-EVT_UCrh3V" style="stroke:#181818;stroke-width:1;"/><polygon fill="#181818" points="535.33,97.2969,526.33,93.2969,530.33,97.2969,526.33,101.2969,535.33,97.2969" style="stroke:#181818;stroke-width:1;"/></g><?plantuml-src xLTjK-Cs4FwUNx7rTVeoWutjlDy0CpcJ0EsLCk7bfkrqCiBUn6eKoPML1BZUVw_46QAGE2LtV2i3cJXQFRkFTX-lrobD47A54eMwpR1IoSUKPqII2IGu95EcUeAhKp91S8wHpL3HcC0fJd477d_lG4TImdOW9pntSvHqwAntT4xl48BGCkOfISISyX4C2SlHiaWnvKai94S9DMlzciJZqRqn4an8UDFhc3-REgCSpN50I9KAoy15WZbcqF3jG8IFpMBBhtoZkMeiz94DBYGTZVHP-EY7eHIJ7L1Y1nYvHlOZc0LmtGEzjeJf8s7qZYWgU0d8y_xPX1fSPbi0pr7EjkBNoNCHqqtyN7S3Pl0UX-gBW7qwIhT0nZ7cUMaYLevrmeTiYZp6pH2hv1WhmaSCz_OwMSQqXWtB8wsgJEVpu00-LW3UFHLQjzLhzNh68cI2ibZr_MQhurS-hNSVYSda6PuFkwrkyDHpAsfs6vqopsH1V12BIIOuSbKM88fwuRRKSRR1OTS_R4NHTeo7KnuRkY_fCvF2QEKBNLQKoBGou5eefNMIKEDPCwoahttnjI--ziNNllZ_x8jv9gb2-9R8EAKJed2mDgkmbyz6S3DXFDztKgMojxkxy_dScrSz8KUxeU_xktg70pEAytVYPj_nmOUWeV-TWxsCg1IIVUUN6jIyC6rwjLdJQnpNxXo08MLittaJriDgs7Hq9vPYZFiErs6TNGiQUbLVezlrDF2Q_YpGFu_DclQnx685rFIgsuFQNdChK11ujKT-jG9rl_WCMC5mMrZ1yJzXfZ87QofzB-yNgcpL2w2Mrhq6gNejC9_xRVhJEjOs5dg1-vnwbt5zk7DUY6xejK7dgtbLzshl3T-0rVK9T9bd3Q-gLzfU-1LiYtlonSWsjBA2L3Ex2hqMgtbrg7kXMtpFN5r-hT36imbN55NCF3WoaLCbv2sSt_8ubO8N3s7u3eweWXEkS2JlLogLnvO3pkUMxa19SxTsxZsLsySy9Wpt0w_-wK0FJTgczEwfN68JfHgES8Z6Xea9zD2AIGxTgul1PIJJwbLvh0UvB8MBKep7TfmFGexpZCG8vugeQMu2MIrQn-gTHeDsa2JdTCjO9pp16olMUjV9pNL3JhTqVJPbR3LR9UGFZzxztZukZr0eTId0GWm87wWMOHydGk6JqooUEphKMJyQg6xIlvjlK_z5_YEX1nWQgqqrft_VjVywChEy5S0QNWoaV9Of8RNsQRT4ykZo13fJFKMRGHWkX60cKDdieRbspiu6RFAhFyc-Ago-_qmXu7x4ZV4PGTLlrPzEVZO9-bwFbAvXBLn6RiLKlGNTf90aW0md6fJ3N1UMSXWLMSeDehAujS3zGxyP9SZ_b6PmTUqxON6vTbSXwiNbsbs5C1UNAxiiJIqkLtPPobWaVcMNbHwJ7Iqt_ldzBwyiJE1ECzTkBqzD5YCxK_ejmphtWX2u-iMEkxOWxDHfc4N-YQKaHGMcuFSl?></g></svg>