<svg xmlns="http://www.w3.org/2000/svg" xmlns:xlink="http://www.w3.org/1999/xlink" contentStyleType="text/css" data-diagram-type="DESCRIPTION" height="661px" preserveAspectRatio="none" style="width:691px;height:661px;background:#FAFAFA;" version="1.1" viewBox="0 0 691 661" width="691px" zoomAndPan="magnify"><?plantuml 1.2026.3?><defs/><g><rect fill="#FAFAFA" height="661" style="stroke:none;stroke-width:1;" width="691" x="0" y="0"/><g class="title" data-source-line="95"><text fill="#000000" font-family="'Helvetica Neue, Helvetica, Arial, sans-serif'" font-size="14" font-weight="700" lengthAdjust="spacing" textLength="356.2891" x="163.8555" y="22.9951">Repository Synchronization &amp; Git Integration</text></g><!--cluster Application--><g class="cluster" data-qualified-name="Application" data-source-line="97" id="ent0002"><rect fill="#E8F8FF" height="90" rx="2" ry="2" style="stroke:#0078A0;stroke-width:1;" width="176" x="359" y="44.2969"/><text fill="#000000" font-family="'Helvetica Neue, Helvetica, Arial, sans-serif'" font-size="12" font-weight="700" lengthAdjust="spacing" textLength="76.541" x="408.7295" y="57.4355">Application</text></g><!--cluster PRC_tEdRzw--><g class="cluster" data-qualified-name="PRC_tEdRzw" data-source-line="101" id="ent0004"><rect fill="#E0D8CC" height="237" rx="2" ry="2" style="stroke:#8C7E6A;stroke-width:1;" width="356" x="99" y="166.2969"/><path d="M141.4547,173.9738 L150.1778,173.9738 L150.1778,172.1738 L156.4086,179.3738 L150.1778,186.5738 L150.1778,184.7738 L141.4547,184.7738" fill="#252327" style="stroke:none;stroke-width:1;"/><text fill="#000000" font-family="'Helvetica Neue, Helvetica, Arial, sans-serif'" font-size="12" font-weight="700" lengthAdjust="spacing" textLength="251.959" x="164.1863" y="187.6206">Synchronize With Remote Repository</text></g><!--cluster GRP_EVTS--><g class="cluster" data-qualified-name="GRP_EVTS" data-source-line="107" id="ent0008"><rect fill="#EDE8E1" height="106" rx="2" ry="2" style="stroke:#8C7E6A;stroke-width:1;" width="670" x="7" y="443.2969"/><text fill="#000000" font-family="'Helvetica Neue, Helvetica, Arial, sans-serif'" font-size="12" font-weight="700" lengthAdjust="spacing" textLength="67.623" x="308.1885" y="456.4355">Outcomes</text></g><!--entity APP_tY3JIK--><g class="entity" data-qualified-name="Application.APP_tY3JIK" data-source-line="98" id="ent0003"><rect fill="#CCF2FF" height="42.1538" rx="2" ry="2" style="stroke:#0078A0;stroke-width:0.5;" width="144.2066" x="375" y="76.2969"/><path d="M390.5385,92.1123 L400.7846,92.1123 L400.7846,102.6353 L390.5385,102.6353" fill="#252327" style="stroke:none;stroke-width:0.5;"/><path d="M388.1846,93.1507 L390.5385,93.1507 L390.5385,94.9507 L388.1846,94.9507" fill="#252327"/><path d="M388.1846,96.4738 L390.5385,96.4738 L390.5385,98.2738 L388.1846,98.2738" fill="#252327"/><path d="M388.1846,99.7969 L390.5385,99.7969 L390.5385,101.5969 L388.1846,101.5969" fill="#252327"/><path d="M400.7846,93.1507 L402.7231,93.1507 L402.7231,94.9507 L400.7846,94.9507" fill="#252327"/><path d="M400.7846,96.4738 L402.7231,96.4738 L402.7231,98.2738 L400.7846,98.2738" fill="#252327"/><path d="M400.7846,99.7969 L402.7231,99.7969 L402.7231,101.5969 L400.7846,101.5969" fill="#252327"/><text fill="#000000" font-family="'Helvetica Neue, Helvetica, Arial, sans-serif'" font-size="12" lengthAdjust="spacing" textLength="98.2383" x="410.9683" y="105.6206">Git Sync Service</text></g><!--entity FNC_91ddSi--><g class="entity" data-qualified-name="PRC_tEdRzw.FNC_91ddSi" data-source-line="102" id="ent0005"><rect fill="#E0D8CC" height="42.1538" rx="2" ry="2" style="stroke:#8C7E6A;stroke-width:0.5;" width="263.2046" x="123.5" y="215.2969"/><path d="M137.5154,241.4969 L137.5154,232.7738 L144.5769,229.5892 L151.6385,232.7738 L151.6385,241.4969 L144.5769,238.0353" fill="#252327" style="stroke:none;stroke-width:0.5;"/><text fill="#000000" font-family="'Helvetica Neue, Helvetica, Arial, sans-serif'" font-size="12" lengthAdjust="spacing" textLength="217.2363" x="159.4683" y="244.6206">Check Repository Workspace Status</text></g><!--entity FNC_DGBZ9H--><g class="entity" data-qualified-name="PRC_tEdRzw.FNC_DGBZ9H" data-source-line="103" id="ent0006"><rect fill="#E0D8CC" height="42.1538" rx="2" ry="2" style="stroke:#8C7E6A;stroke-width:0.5;" width="191.6499" x="123" y="337.2969"/><path d="M137.0154,363.4969 L137.0154,354.7738 L144.0769,351.5892 L151.1385,354.7738 L151.1385,363.4969 L144.0769,360.0353" fill="#252327" style="stroke:none;stroke-width:0.5;"/><text fill="#000000" font-family="'Helvetica Neue, Helvetica, Arial, sans-serif'" font-size="12" lengthAdjust="spacing" textLength="145.6816" x="158.9683" y="366.6206">Pull Repository Changes</text></g><!--entity EVT_UCrh3V--><g class="entity" data-qualified-name="GRP_EVTS.EVT_UCrh3V" data-source-line="108" id="ent0009"><rect fill="#E0D8CC" height="42.1538" rx="2" ry="2" style="stroke:#8C7E6A;stroke-width:0.5;" width="296.7085" x="311.5" y="483.2969"/><path d="M325.7923,498.8353 L333.5462,498.8353 A5.2615,5.2615 0 0 1 333.5462,509.9123 L325.7923,509.9123 L328.7,504.3738" fill="#252327" style="stroke:none;stroke-width:0.5;"/><text fill="#000000" font-family="'Helvetica Neue, Helvetica, Arial, sans-serif'" font-size="12" lengthAdjust="spacing" textLength="250.7402" x="347.4683" y="512.6206">Architecture Repository Change Detected</text></g><!--entity EVT_iqz9jG--><g class="entity" data-qualified-name="GRP_EVTS.EVT_iqz9jG" data-source-line="109" id="ent0010"><rect fill="#E0D8CC" height="42.1538" rx="2" ry="2" style="stroke:#8C7E6A;stroke-width:0.5;" width="220.4253" x="31" y="483.2969"/><path d="M45.2923,498.8353 L53.0462,498.8353 A5.2615,5.2615 0 0 1 53.0462,509.9123 L45.2923,509.9123 L48.2,504.3738" fill="#252327" style="stroke:none;stroke-width:0.5;"/><text fill="#000000" font-family="'Helvetica Neue, Helvetica, Arial, sans-serif'" font-size="12" lengthAdjust="spacing" textLength="174.457" x="66.9683" y="512.6206">Workspace Conflict Detected</text></g><!--entity FNC_dxb6ru--><g class="entity" data-qualified-name="FNC_dxb6ru" data-source-line="113" id="ent0012"><rect fill="#E0D8CC" height="42.1538" rx="2" ry="2" style="stroke:#8C7E6A;stroke-width:0.5;" width="147.3765" x="386.5" y="605.2969"/><path d="M400.5154,631.4969 L400.5154,622.7738 L407.5769,619.5892 L414.6385,622.7738 L414.6385,631.4969 L407.5769,628.0353" fill="#252327" style="stroke:none;stroke-width:0.5;"/><text fill="#000000" font-family="'Helvetica Neue, Helvetica, Arial, sans-serif'" font-size="12" lengthAdjust="spacing" textLength="101.4082" x="422.4683" y="634.6206">Index Repository</text></g><!--entity APP_lmO0mp--><g class="entity" data-qualified-name="APP_lmO0mp" data-source-line="115" id="ent0013"><rect fill="#CCF2FF" height="42.1538" rx="2" ry="2" style="stroke:#0078A0;stroke-width:0.5;" width="159.523" x="61" y="605.2969"/><path d="M76.5385,621.1123 L86.7846,621.1123 L86.7846,631.6353 L76.5385,631.6353" fill="#252327" style="stroke:none;stroke-width:0.5;"/><path d="M74.1846,622.1507 L76.5385,622.1507 L76.5385,623.9507 L74.1846,623.9507" fill="#252327"/><path d="M74.1846,625.4738 L76.5385,625.4738 L76.5385,627.2738 L74.1846,627.2738" fill="#252327"/><path d="M74.1846,628.7969 L76.5385,628.7969 L76.5385,630.5969 L74.1846,630.5969" fill="#252327"/><path d="M86.7846,622.1507 L88.7231,622.1507 L88.7231,623.9507 L86.7846,623.9507" fill="#252327"/><path d="M86.7846,625.4738 L88.7231,625.4738 L88.7231,627.2738 L86.7846,627.2738" fill="#252327"/><path d="M86.7846,628.7969 L88.7231,628.7969 L88.7231,630.5969 L86.7846,630.5969" fill="#252327"/><text fill="#000000" font-family="'Helvetica Neue, Helvetica, Arial, sans-serif'" font-size="12" lengthAdjust="spacing" textLength="113.5547" x="96.9683" y="634.6206">GUI Authoring Tool</text></g><!--link FNC_91ddSi to FNC_DGBZ9H--><!--link FNC_91ddSi to FNC_DGBZ9H--><g class="link" data-entity-1="ent0005" data-entity-2="ent0006" data-link-type="dependency" data-source-line="130" id="lnk20"><path d="M251.17,257.5469 C251.17,279.9369 251.17,308.9869 251.17,331.2869" fill="none" id="FNC_91ddSi-to-FNC_DGBZ9H" style="stroke:#181818;stroke-width:1;"/><polygon fill="#181818" points="251.17,337.2869,255.17,328.2869,251.17,332.2869,247.17,328.2869,251.17,337.2869" style="stroke:#181818;stroke-width:1;"/></g><!--link EVT_UCrh3V to EVT_iqz9jG--><!--link APP_tY3JIK to PRC_tEdRzw--><!--link APP_tY3JIK to PRC_tEdRzw--><g class="link" data-entity-1="ent0003" data-entity-2="ent0004" data-link-type="association" data-source-line="124" id="lnk18"><path d="M426.17,118.4069 C426.17,128.1294 426.17,140.3588 426.17,153.2339 C426.17,156.4527 426.17,159.7118 426.17,162.9823 C426.17,163.7999 426.17,164.6182 426.17,165.4368 C426.17,165.6414 426.17,165.8461 426.17,166.0507" fill="none" id="APP_tY3JIK-PRC_tEdRzw-1" style="stroke:#181818;stroke-width:1;"/></g><!--link PRC_tEdRzw to GRP_EVTS--><!--link EVT_UCrh3V to FNC_dxb6ru--><!--link EVT_UCrh3V to FNC_dxb6ru--><g class="link" data-entity-1="ent0009" data-entity-2="ent0012" data-link-type="dependency" data-source-line="135" id="lnk23"><path d="M484.5,525.5469 C484.5,547.9369 484.5,576.9869 484.5,599.2869" fill="none" id="EVT_UCrh3V-to-FNC_dxb6ru" style="stroke:#181818;stroke-width:1;"/><polygon fill="#181818" points="484.5,605.2869,488.5,596.2869,484.5,600.2869,480.5,596.2869,484.5,605.2869" style="stroke:#181818;stroke-width:1;"/></g><!--link EVT_iqz9jG to APP_lmO0mp--><!--link EVT_iqz9jG to APP_lmO0mp--><g class="link" data-entity-1="ent0010" data-entity-2="ent0013" data-link-type="association" data-source-line="136" id="lnk24"><path d="M167.67,525.5469 C167.67,547.9369 167.67,582.9869 167.67,605.2869" fill="none" id="EVT_iqz9jG-APP_lmO0mp-1" style="stroke:#181818;stroke-width:1;"/></g><!--link APP_tY3JIK to EVT_UCrh3V--><g class="link" data-entity-1="ent0003" data-entity-2="ent0009" data-link-type="association" data-source-line="127" id="lnk19"><path d="M406.33,118.3269 C406.33,188.3169 406.33,412.9869 406.33,483.1569" fill="none" id="APP_tY3JIK-EVT_UCrh3V" style="stroke:#181818;stroke-width:1;"/></g><!--link FNC_91ddSi to EVT_iqz9jG--><g class="link" data-entity-1="ent0005" data-entity-2="ent0010" data-link-type="dependency" data-source-line="131" id="lnk21"><path d="M123.3,236.2969 C96.86,236.2969 77,236.2969 77,236.2969 C77,236.2969 77,414.0869 77,477.2669" fill="none" id="FNC_91ddSi-to-EVT_iqz9jG" style="stroke:#181818;stroke-width:1;"/><polygon fill="#181818" points="77,483.2669,81,474.2669,77,478.2669,73,474.2669,77,483.2669" style="stroke:#181818;stroke-width:1;"/></g><!--link FNC_DGBZ9H to EVT_UCrh3V--><g class="link" data-entity-1="ent0006" data-entity-2="ent0009" data-link-type="dependency" data-source-line="132" id="lnk22"><path d="M281.25,379.4069 C281.25,418.2969 281.25,497.2969 281.25,497.2969 C281.25,497.2969 287.31,497.2969 305.17,497.2969" fill="none" id="FNC_DGBZ9H-to-EVT_UCrh3V" style="stroke:#181818;stroke-width:1;"/><polygon fill="#181818" points="311.17,497.2969,302.17,493.2969,306.17,497.2969,302.17,501.2969,311.17,497.2969" style="stroke:#181818;stroke-width:1;"/></g><?plantuml-src xLTjRzis4FwkNt5JXwq1R4MItuiaWAlOIRQk3PoNOXi6Wv5eYmqbQYHj9-dwttUqdKf-RTpbsuB4C4pUtVFS2-_8c4KKbAQI2dsVKSjIjopDY2G9H7H0HbntHQhVauI2VKhvc6eM4dXFHxG4Nt-Ne2qPuILG95LbHIKRsEiDNR072fvVs5GnYSI4fKCO4AveOKUAKHg5GgPKGhMmVaF2s-5qCn1SI7ZLRPk_8dNEKchS0I5rB0eRgOYeeXdKtI8GIM_DOjErVa2kg0izolkNaWs7w4iwV3sG8Yc15YNWv8RoFJ0BK2uVuTg2JeyIpXw8PYBTeEGu_spJwbzbEoXUK3dUYLzRAH6oRVpAvIqw_NTqeBzBiSU6yGwQOKYLsXY85RVEqW4VqJIasrKAAQUX9kcGquE3TfPnh673yWIhAiDu7Xt1PmlWxNAXTPhTPhThTeICg9olkcwZsNQjB-lD1o99dc3vkDFiUCkMcq6ZKszlianoulrG99b8QQet0GH1rz-LEXrlCTXnZvj1i1lZmIWD3Ttdj9b9OMhbEqt6B-tlfVszjB-NzlV_R7ygaqnJ-978C6O9qRI_DgfmeCP3k4jugWxjMElipVx-P39n9XL7oE6-xxhkFahOC6PqybRS7TekkE3LyTy-EiY8ZY4wj7-hGjNnuuPJ7JUS-cdrmGOOCCuFxLT-pQ_u3HixiHItzD1E4TRUBwZwJiL5xLOjzfo6E_RmvwbPGnkB9bQK6avbTwMMqzX9oVESwbT-rRdMTF49QdE6kwhDENvJpMJcQ4scf-NzJ9cjE1vKuvfJ9nMd2UOp5SDFynJtkEzuvQVaUnFNnvFpJ7HzfmKOhyPrpQc-CtmzNaCFCCtZkbF1bPRZ_mUsypFvR6JhM5bUZCokVQV9gquDQevVdd-FovX-hD3wambhaU4qW1kXDSw6Y9bkWh6rBCqqDmCb4uff8U_XuZuDOodI-N26d-24QJXBDHrACjFvseh0BamI6xODbeBEmRTQpsSL4auFFQVsvMYARZZ1TF27rC1i6WD4GVlylAz_h_nozYksEci3wZnP2pYvtnG-Cin3ZoP25qDZaFFMYrZdlQ2lEr7lORBDnSSwNa0BOXhU5iF-KSXRbP6GmeKcUgGCM65s85htVT1lUL5qmNR4EXznNeGAOjIa6n2EJzx-qJf5X1mEod_YbJcYwL_It6ZAHRd567yOQKp7pFJA9G01Jdhd_SxrvSMsS4rRr0B_jjdJA3sITDKFEAPcZqO6z75y8nRYzAy26LUkTy7Aqn08l62nK6-pp_v-Q7qwGVivs4gm2dAR2t9jtixIYDujrTzgmgAxcxeSRRJyX0DsTGRj4RuPpBKVBeNWJpXYFFdW9fbb_Jpj3BBCoJq-MGWU8I6LbH_2F1puuadBXIDZ5KxFaj1ZcLZhmZeJANYU1tXPQ95euMh-PgMhG4RbGCX4WOxnSMXsvaVTMdv3vCwL2kwKmBRt3CnhiWTTngcwnoTc0XEYmnXCOty3QeuLJIjA0HUO1WXdPJphoVn-AruUa1plPk-nLSreJw72QNzHqrPICZwba9asW3T1IPYY4CxBsrfwzkN7lbGuvpEqBQ9v4ZQAFbfQuyCnfWld5iLhhfYta6KBHQqy-JbOCM95CdaDp6J_1G00?></g></svg>