<svg xmlns="http://www.w3.org/2000/svg" xmlns:xlink="http://www.w3.org/1999/xlink" contentStyleType="text/css" data-diagram-type="DESCRIPTION" height="757px" preserveAspectRatio="none" style="width:516px;height:757px;background:#FAFAFA;" version="1.1" viewBox="0 0 516 757" width="516px" zoomAndPan="magnify"><?plantuml 1.2026.3?><defs/><g><rect fill="#FAFAFA" height="757" style="stroke:none;stroke-width:1;" width="516" x="0" y="0"/><g class="title" data-source-line="70"><text fill="#000000" font-family="'Helvetica Neue, Helvetica, Arial, sans-serif'" font-size="14" font-weight="700" lengthAdjust="spacing" textLength="179.7715" x="164.6143" y="22.9951">Querying &amp; Navigation</text></g><!--cluster Services--><g class="cluster" data-qualified-name="Services" data-source-line="72" id="ent0002"><rect fill="#EDE8E1" height="90" rx="2" ry="2" style="stroke:#8C7E6A;stroke-width:1;" width="296" x="206" y="44.2969"/><text fill="#000000" font-family="'Helvetica Neue, Helvetica, Arial, sans-serif'" font-size="12" font-weight="700" lengthAdjust="spacing" textLength="57.0293" x="325.4854" y="57.4355">Services</text></g><!--cluster Functions--><g class="cluster" data-qualified-name="Functions" data-source-line="76" id="ent0004"><rect fill="#EDE8E1" height="576.72" rx="2" ry="2" style="stroke:#8C7E6A;stroke-width:1;" width="375" x="7" y="166.2969"/><text fill="#000000" font-family="'Helvetica Neue, Helvetica, Arial, sans-serif'" font-size="12" font-weight="700" lengthAdjust="spacing" textLength="66.1758" x="161.4121" y="179.4355">Functions</text></g><!--cluster FNC_lLdx12--><g class="cluster" data-qualified-name="Functions.FNC_lLdx12" data-source-line="78" id="ent0006"><rect fill="#E0D8CC" height="423.72" rx="2" ry="2" style="stroke:#8C7E6A;stroke-width:1;" width="311" x="39" y="287.2969"/><path d="M50.918,305.4969 L50.918,296.7738 L57.9795,293.5892 L65.041,296.7738 L65.041,305.4969 L57.9795,302.0353" fill="#252327" style="stroke:none;stroke-width:1;"/><text fill="#000000" font-family="'Helvetica Neue, Helvetica, Arial, sans-serif'" font-size="12" font-weight="700" lengthAdjust="spacing" textLength="268.8633" x="73.2341" y="308.6206">Discover Relevant Architecture Content</text></g><!--entity SRV_Qr8St8--><g class="entity" data-qualified-name="Services.SRV_Qr8St8" data-source-line="73" id="ent0003"><rect fill="#E0D8CC" height="42.1538" rx="2" ry="2" style="stroke:#8C7E6A;stroke-width:0.5;" width="263.691" x="222" y="76.2969"/><path d="M236.4308,91.9738 L246.4,91.9738 A3.8769,3.8769 0 0 1 246.4,102.7738 L236.4308,102.7738 A3.8769,3.8769 0 0 1 236.4308,91.9738" fill="#252327" style="stroke:none;stroke-width:0.5;"/><text fill="#000000" font-family="'Helvetica Neue, Helvetica, Arial, sans-serif'" font-size="12" lengthAdjust="spacing" textLength="217.7227" x="257.9683" y="105.6206">Discovery, Querying &amp; Stats Service</text></g><!--entity FNC_3seqIw--><g class="entity" data-qualified-name="Functions.FNC_3seqIw" data-source-line="77" id="ent0005"><rect fill="#E0D8CC" height="42.1538" rx="2" ry="2" style="stroke:#8C7E6A;stroke-width:0.5;" width="228.6753" x="136.5" y="198.2969"/><path d="M150.5154,224.4969 L150.5154,215.7738 L157.5769,212.5892 L164.6385,215.7738 L164.6385,224.4969 L157.5769,221.0353" fill="#252327" style="stroke:none;stroke-width:0.5;"/><text fill="#000000" font-family="'Helvetica Neue, Helvetica, Arial, sans-serif'" font-size="12" lengthAdjust="spacing" textLength="182.707" x="172.4683" y="227.6206">Retrieve Architectural Context</text></g><!--entity FNC_BdEMPx--><g class="entity" data-qualified-name="Functions.FNC_lLdx12.FNC_BdEMPx" data-source-line="79" id="ent0007"><rect fill="#E0D8CC" height="42.1538" rx="2" ry="2" style="stroke:#8C7E6A;stroke-width:0.5;" width="142.566" x="63.5" y="401.0169"/><path d="M77.5154,427.2169 L77.5154,418.4938 L84.5769,415.3092 L91.6385,418.4938 L91.6385,427.2169 L84.5769,423.7553" fill="#252327" style="stroke:none;stroke-width:0.5;"/><text fill="#000000" font-family="'Helvetica Neue, Helvetica, Arial, sans-serif'" font-size="12" lengthAdjust="spacing" textLength="96.5977" x="99.4683" y="430.3406">Graph Traversal</text></g><!--entity FNC_bFY40B--><g class="entity" data-qualified-name="Functions.FNC_lLdx12.FNC_bFY40B" data-source-line="80" id="ent0008"><rect fill="#E0D8CC" height="42.1538" rx="2" ry="2" style="stroke:#8C7E6A;stroke-width:0.5;" width="143.2984" x="63.5" y="523.0169"/><path d="M77.5154,549.2169 L77.5154,540.4938 L84.5769,537.3092 L91.6385,540.4938 L91.6385,549.2169 L84.5769,545.7553" fill="#252327" style="stroke:none;stroke-width:0.5;"/><text fill="#000000" font-family="'Helvetica Neue, Helvetica, Arial, sans-serif'" font-size="12" lengthAdjust="spacing" textLength="97.3301" x="99.4683" y="552.3406">Full-Text Search</text></g><!--entity FNC_3jpc7O--><g class="entity" data-qualified-name="Functions.FNC_lLdx12.FNC_3jpc7O" data-source-line="81" id="ent0009"><rect fill="#E0D8CC" height="42.1538" rx="2" ry="2" style="stroke:#8C7E6A;stroke-width:0.5;" width="137.1988" x="67.5" y="645.0169"/><path d="M81.5154,671.2169 L81.5154,662.4938 L88.5769,659.3092 L95.6385,662.4938 L95.6385,671.2169 L88.5769,667.7553" fill="#252327" style="stroke:none;stroke-width:0.5;"/><text fill="#000000" font-family="'Helvetica Neue, Helvetica, Arial, sans-serif'" font-size="12" lengthAdjust="spacing" textLength="91.2305" x="103.4683" y="674.3406">Metadata Filter</text></g><!--link FNC_BdEMPx to FNC_bFY40B--><!--link FNC_bFY40B to FNC_3jpc7O--><!--link FNC_3seqIw to FNC_lLdx12--><!--link FNC_3seqIw to FNC_lLdx12--><g class="link" data-entity-1="ent0005" data-entity-2="ent0006" data-link-type="dependency" data-source-line="93" id="lnk17"><path d="M232.25,240.3769 C232.25,247.8244 232.25,256.5881 232.25,265.5445 C232.25,270.0227 232.25,274.5491 232.25,278.9832 C232.25,281.2002 232.25,283.3942 232.25,285.5475 C232.25,286.0859 232.25,280.6217 232.25,281.1547" fill="none" id="FNC_3seqIw-to-FNC_lLdx12" style="stroke:#181818;stroke-width:1;"/><polygon fill="#181818" points="232.25,287.1547,236.25,278.1547,232.25,282.1547,228.25,278.1547,232.25,287.1547" style="stroke:#181818;stroke-width:1;"/></g><!--link SRV_Qr8St8 to FNC_3seqIw--><!--link FNC_lLdx12 to FNC_BdEMPx--><g class="link" data-entity-1="ent0006" data-entity-2="ent0007" data-link-type="dependency" data-source-line="90" id="lnk14"><path d="M258.67,320.9469 C258.67,326.8969 258.67,422.0169 258.67,422.0169 C258.67,422.0169 239.93,422.0169 212.58,422.0169" fill="none" id="FNC_lLdx12-to-FNC_BdEMPx" style="stroke:#181818;stroke-width:1;"/><polygon fill="#181818" points="206.58,422.0169,215.58,426.0169,211.58,422.0169,215.58,418.0169,206.58,422.0169" style="stroke:#181818;stroke-width:1;"/></g><!--link FNC_lLdx12 to FNC_bFY40B--><g class="link" data-entity-1="ent0006" data-entity-2="ent0008" data-link-type="dependency" data-source-line="91" id="lnk15"><path d="M258.85,321.0169 C252.38,321.0169 45.5,321.0169 45.5,321.0169 C45.5,321.0169 45.5,544.0169 45.5,544.0169 C45.5,544.0169 46.78,544.0169 57.18,544.0169" fill="none" id="FNC_lLdx12-to-FNC_bFY40B" style="stroke:#181818;stroke-width:1;"/><polygon fill="#181818" points="63.18,544.0169,54.18,540.0169,58.18,544.0169,54.18,548.0169,63.18,544.0169" style="stroke:#181818;stroke-width:1;"/></g><!--link FNC_lLdx12 to FNC_3jpc7O--><g class="link" data-entity-1="ent0006" data-entity-2="ent0009" data-link-type="dependency" data-source-line="92" id="lnk16"><path d="M259.33,320.9069 C259.33,331.3669 259.33,666.0169 259.33,666.0169 C259.33,666.0169 238.91,666.0169 210.52,666.0169" fill="none" id="FNC_lLdx12-to-FNC_3jpc7O" style="stroke:#181818;stroke-width:1;"/><polygon fill="#181818" points="204.52,666.0169,213.52,670.0169,209.52,666.0169,213.52,662.0169,204.52,666.0169" style="stroke:#181818;stroke-width:1;"/></g><!--reverse link SRV_Qr8St8 to FNC_lLdx12--><g class="link" data-entity-1="ent0003" data-entity-2="ent0006" data-link-type="extension" data-source-line="94" id="lnk19"><path d="M425.75,136.3469 C425.75,192.0369 425.75,321.0169 425.75,321.0169 C425.75,321.0169 415.6513,321.0169 400.4242,321.0169 C392.8107,321.0169 383.9151,321.0169 374.3588,321.0169 C369.5806,321.0169 364.6372,321.0169 359.6063,321.0169 C357.0909,321.0169 354.5536,321.0169 352.0041,321.0169 C351.3667,321.0169 350.7286,321.0169 350.0898,321.0169" fill="none" id="SRV_Qr8St8-backto-FNC_lLdx12" style="stroke:#181818;stroke-width:1;stroke-dasharray:7,7;"/><polygon fill="none" points="425.75,118.3469,419.75,136.3469,431.75,136.3469,425.75,118.3469" style="stroke:#181818;stroke-width:1;"/></g><?plantuml-src xLPRRzis57xthpXJXsq5B5gIarWTR0E9OxS5agorqmB3C1YCT2nneKcDf6GtNVxxgDY9rKOEgc9l2smzwDo-xzn8fIn6q0OLIlCfmrPBNpEHKKMN4EE2vjnCf30NT8dWl45Ue64HXGlCiGqFxsquLepoDcWgjAjHiOLJ7sZ6RX3yeABKAOtbYea45fHhh6YKp4KSIILGmK55VaMZw-HEEP9SAdWnEIv_LUgS2IpJ0QbCAYiA8MFKcC6HLmMYuheKXbxh1ylL-i8K-VnIiIInkOZabuMIopOOsGPEhv2_X580hZkqiYzyfaWvkw66IR77YP1_dlAQVyWQECvG5Otu7Mij8_OKFzTzmcT-XWlpNOvJbgGDFAC8jTvRY4TflHKBdgE8y6cNIiinCbGa7FlzaLmkfNXj1ogpfHmEuNCBuEJh6HkVZiEnNsgaYb5jfU6eDpuwRjtMHrxa8YgJtnlJEmr7esOnTTdn2BypPFgyxS_R_hpj_vDjrvbY1k57ggAKBQd1-Jr7wEiYWVMI2prmKcEoNpkTrMf5LbqYLT89FC_hM0i72eQh4xaUE1vuu1_PlpFiPzIa40-Syu2y0jydlO-7vE0iX2xn-I7n8I3TueXqhUGL2MuSW0NZVE2y20w3Rj1px06av3KE7245EfrXluGQrh3TPlyVaUsI00w8d_P8G0CIGldS6TgdHy8ttSToryg_cN_BoCoE7Ln9O-mGngpiewsrLJ334Txdg3wL9zzFS44Bbj2Dyg7RuCms-Me7zinfnRR_k4wVTKGv3dnoU3k4KwOZMLZ4TXLuPgZHiCKfONO3Hgry-d7-NeKp4zhXgHARRCUcCRFxUVk2sXIDObYWlKQidR6UkQ8SHlR2mBKf8IghP6bDBaRphiQ_twuQ0jtNe3mqiA32L15n0oZs0FApUEq7Txar0tsjQ9R2fQ8MM5DU7_qa7f-_MpUEFSavTozjaMmBIzFwu5UJtm-yayR1pz7Gc1eA4yRj5yAUFloLHRtVxcBlyW3t3_jX4QFuqzxjmlsQnEwrpl0XugqTkbshwqmtFMdjnhGstcPIMZ-N_HMR5TIjIalBUxBIWnhDbdkDPaksIdEhsNAh-90yA-_mobBz2m00?></g></svg>