<svg xmlns="http://www.w3.org/2000/svg" xmlns:xlink="http://www.w3.org/1999/xlink" contentStyleType="text/css" data-diagram-type="DESCRIPTION" height="929px" preserveAspectRatio="none" style="width:1897px;height:929px;background:#FAFAFA;" version="1.1" viewBox="0 0 1897 929" width="1897px" zoomAndPan="magnify"><?plantuml 1.2026.3?><defs/><g><rect fill="#FAFAFA" height="929" style="stroke:none;stroke-width:1;" width="1897" x="0" y="0"/><g class="title" data-source-line="70"><text fill="#000000" font-family="'Helvetica Neue, Helvetica, Arial, sans-serif'" font-size="14" font-weight="700" lengthAdjust="spacing" textLength="166.8516" x="861.5742" y="22.9951">Reverse Architecture</text></g><!--cluster Processes--><g class="cluster" data-qualified-name="Processes" data-source-line="72" id="ent0002"><rect fill="#EDE8E1" height="659" rx="2" ry="2" style="stroke:#8C7E6A;stroke-width:1;" width="1184" x="699" y="256.2969"/><text fill="#000000" font-family="'Helvetica Neue, Helvetica, Arial, sans-serif'" font-size="12" font-weight="700" lengthAdjust="spacing" textLength="67.7754" x="1257.1123" y="269.4355">Processes</text></g><!--cluster PRC_CYgU64--><g class="cluster" data-qualified-name="Processes.PRC_CYgU64" data-source-line="73" id="ent0003"><rect fill="#E0D8CC" height="579" rx="2" ry="2" style="stroke:#8C7E6A;stroke-width:1;" width="1120" x="731" y="304.2969"/><path d="M1141.7936,311.9738 L1150.5167,311.9738 L1150.5167,310.1738 L1156.7474,317.3738 L1150.5167,324.5738 L1150.5167,322.7738 L1141.7936,322.7738" fill="#252327" style="stroke:none;stroke-width:1;"/><text fill="#000000" font-family="'Helvetica Neue, Helvetica, Arial, sans-serif'" font-size="12" font-weight="700" lengthAdjust="spacing" textLength="279.2813" x="1164.5252" y="325.6206">Reverse Architecture &#171;Business Process&#187;</text></g><!--cluster Functions--><g class="cluster" data-qualified-name="Functions" data-source-line="93" id="ent0020"><rect fill="#EDE8E1" height="367" rx="2" ry="2" style="stroke:#8C7E6A;stroke-width:1;" width="444" x="7" y="44.2969"/><text fill="#000000" font-family="'Helvetica Neue, Helvetica, Arial, sans-serif'" font-size="12" font-weight="700" lengthAdjust="spacing" textLength="66.1758" x="195.9121" y="57.4355">Functions</text></g><!--cluster And Junctions--><g class="cluster" data-qualified-name="And Junctions" data-source-line="102" id="ent0027"><rect fill="#EDE8E1" height="66" rx="2" ry="2" style="stroke:#8C7E6A;stroke-width:1;" width="128" x="423" y="455.2969"/><text fill="#000000" font-family="'Helvetica Neue, Helvetica, Arial, sans-serif'" font-size="12" font-weight="700" lengthAdjust="spacing" textLength="93.041" x="440.4795" y="468.4355">And Junctions</text></g><!--entity FNC_NGjUCa--><g class="entity" data-qualified-name="Processes.PRC_CYgU64.FNC_NGjUCa" data-source-line="74" id="ent0004"><rect fill="#E0D8CC" height="42.1538" rx="2" ry="2" style="stroke:#8C7E6A;stroke-width:0.5;" width="406.4253" x="1270" y="817.2969"/><path d="M1284.0154,843.4969 L1284.0154,834.7738 L1291.0769,831.5892 L1298.1385,834.7738 L1298.1385,843.4969 L1291.0769,840.0353" fill="#252327" style="stroke:none;stroke-width:0.5;"/><text fill="#000000" font-family="'Helvetica Neue, Helvetica, Arial, sans-serif'" font-size="12" lengthAdjust="spacing" textLength="360.457" x="1305.9683" y="846.6206">Verify Artifact Integrity &amp; Coherence &#171;Application Function&#187;</text></g><!--entity FNC_lLdx12--><g class="entity" data-qualified-name="Processes.PRC_CYgU64.FNC_lLdx12" data-source-line="75" id="ent0005"><rect fill="#E0D8CC" height="42.1538" rx="2" ry="2" style="stroke:#8C7E6A;stroke-width:0.5;" width="425.5738" x="799" y="353.2969"/><path d="M813.0154,379.4969 L813.0154,370.7738 L820.0769,367.5892 L827.1385,370.7738 L827.1385,379.4969 L820.0769,376.0353" fill="#252327" style="stroke:none;stroke-width:0.5;"/><text fill="#000000" font-family="'Helvetica Neue, Helvetica, Arial, sans-serif'" font-size="12" lengthAdjust="spacing" textLength="379.6055" x="834.9683" y="382.6206">Discover Relevant Architecture Content &#171;Application Function&#187;</text></g><!--entity FNC_rkx32U--><g class="entity" data-qualified-name="Processes.PRC_CYgU64.FNC_rkx32U" data-source-line="76" id="ent0006"><rect fill="#E0D8CC" height="42.1538" rx="2" ry="2" style="stroke:#8C7E6A;stroke-width:0.5;" width="495.7925" x="1068" y="475.2969"/><path d="M1082.0154,501.4969 L1082.0154,492.7738 L1089.0769,489.5892 L1096.1385,492.7738 L1096.1385,501.4969 L1089.0769,498.0353" fill="#252327" style="stroke:none;stroke-width:0.5;"/><text fill="#000000" font-family="'Helvetica Neue, Helvetica, Arial, sans-serif'" font-size="12" lengthAdjust="spacing" textLength="449.8242" x="1103.9683" y="504.6206">Determine Required Changes to Architecture Content &#171;Business Function&#187;</text></g><!--entity FNC_saMRQ0--><g class="entity" data-qualified-name="Processes.PRC_CYgU64.FNC_saMRQ0" data-source-line="77" id="ent0007"><rect fill="#E0D8CC" height="42.1538" rx="2" ry="2" style="stroke:#8C7E6A;stroke-width:0.5;" width="363.3355" x="762.5" y="695.2969"/><path d="M776.5154,721.4969 L776.5154,712.7738 L783.5769,709.5892 L790.6385,712.7738 L790.6385,721.4969 L783.5769,718.0353" fill="#252327" style="stroke:none;stroke-width:0.5;"/><text fill="#000000" font-family="'Helvetica Neue, Helvetica, Arial, sans-serif'" font-size="12" lengthAdjust="spacing" textLength="317.3672" x="798.4683" y="724.6206">Author Architecture Documents &#171;Business Function&#187;</text></g><!--entity FNC_uzJGYp--><g class="entity" data-qualified-name="Processes.PRC_CYgU64.FNC_uzJGYp" data-source-line="78" id="ent0008"><rect fill="#E0D8CC" height="42.1538" rx="2" ry="2" style="stroke:#8C7E6A;stroke-width:0.5;" width="274.8824" x="1185.5" y="695.2969"/><path d="M1199.5154,721.4969 L1199.5154,712.7738 L1206.5769,709.5892 L1213.6385,712.7738 L1213.6385,721.4969 L1206.5769,718.0353" fill="#252327" style="stroke:none;stroke-width:0.5;"/><text fill="#000000" font-family="'Helvetica Neue, Helvetica, Arial, sans-serif'" font-size="12" lengthAdjust="spacing" textLength="228.9141" x="1221.4683" y="724.6206">Author Diagrams &#171;Business Function&#187;</text></g><!--entity FNC_yuFXVJ--><g class="entity" data-qualified-name="Processes.PRC_CYgU64.FNC_yuFXVJ" data-source-line="79" id="ent0009"><rect fill="#E0D8CC" height="42.1538" rx="2" ry="2" style="stroke:#8C7E6A;stroke-width:0.5;" width="307.2671" x="1520.5" y="695.2969"/><path d="M1534.5154,721.4969 L1534.5154,712.7738 L1541.5769,709.5892 L1548.6385,712.7738 L1548.6385,721.4969 L1541.5769,718.0353" fill="#252327" style="stroke:none;stroke-width:0.5;"/><text fill="#000000" font-family="'Helvetica Neue, Helvetica, Arial, sans-serif'" font-size="12" lengthAdjust="spacing" textLength="261.2988" x="1556.4683" y="724.6206">Author Model Artifacts &#171;Business Function&#187;</text></g><!--entity JNO_chqH1_--><g class="entity" data-qualified-name="Processes.PRC_CYgU64.JNO_chqH1_" data-source-line="80" id="ent0010"><ellipse cx="1316" cy="606.2969" fill="#F1F1F1" rx="8" ry="8" style="stroke:#181818;stroke-width:0.5;"/></g><!--entity FNC_SXt2mM--><g class="entity" data-qualified-name="Functions.FNC_SXt2mM" data-source-line="94" id="ent0021"><rect fill="#E0D8CC" height="42.1538" rx="2" ry="2" style="stroke:#8C7E6A;stroke-width:0.5;" width="325.0913" x="110.5" y="76.2969"/><path d="M124.5154,102.4969 L124.5154,93.7738 L131.5769,90.5892 L138.6385,93.7738 L138.6385,102.4969 L131.5769,99.0353" fill="#252327" style="stroke:none;stroke-width:0.5;"/><text fill="#000000" font-family="'Helvetica Neue, Helvetica, Arial, sans-serif'" font-size="12" lengthAdjust="spacing" textLength="279.123" x="146.4683" y="105.6206">Check Model Coverage &#171;Application Function&#187;</text></g><!--entity FNC_erPw5B--><g class="entity" data-qualified-name="Functions.FNC_erPw5B" data-source-line="95" id="ent0022"><rect fill="#E0D8CC" height="42.1538" rx="2" ry="2" style="stroke:#8C7E6A;stroke-width:0.5;" width="340.7828" x="93.5" y="198.2969"/><path d="M107.5154,224.4969 L107.5154,215.7738 L114.5769,212.5892 L121.6385,215.7738 L121.6385,224.4969 L114.5769,221.0353" fill="#252327" style="stroke:none;stroke-width:0.5;"/><text fill="#000000" font-family="'Helvetica Neue, Helvetica, Arial, sans-serif'" font-size="12" lengthAdjust="spacing" textLength="294.8145" x="129.4683" y="227.6206">Explore System Structure &#171;Application Function&#187;</text></g><!--entity FNC_oRz6Qe--><g class="entity" data-qualified-name="Functions.FNC_oRz6Qe" data-source-line="96" id="ent0023"><rect fill="#E0D8CC" height="42.1538" rx="2" ry="2" style="stroke:#8C7E6A;stroke-width:0.5;" width="411.3296" x="23.5" y="353.2969"/><path d="M37.5154,379.4969 L37.5154,370.7738 L44.5769,367.5892 L51.6385,370.7738 L51.6385,379.4969 L44.5769,376.0353" fill="#252327" style="stroke:none;stroke-width:0.5;"/><text fill="#000000" font-family="'Helvetica Neue, Helvetica, Arial, sans-serif'" font-size="12" lengthAdjust="spacing" textLength="365.3613" x="59.4683" y="382.6206">Map Elements to Architecture Concepts &#171;Business Function&#187;</text></g><!--entity JNA_Ps7rVy--><g class="entity" data-qualified-name="And Junctions.JNA_Ps7rVy" data-source-line="103" id="ent0028"><ellipse cx="448" cy="496.2969" fill="#F1F1F1" rx="8" ry="8" style="stroke:#181818;stroke-width:0.5;"/></g><!--entity JNA_zGOowi--><g class="entity" data-qualified-name="And Junctions.JNA_zGOowi" data-source-line="104" id="ent0029"><ellipse cx="526" cy="496.2969" fill="#F1F1F1" rx="8" ry="8" style="stroke:#181818;stroke-width:0.5;"/></g><!--link FNC_lLdx12 to FNC_rkx32U--><!--link FNC_rkx32U to JNO_chqH1_--><!--link FNC_rkx32U to JNO_chqH1_--><g class="link" data-entity-1="ent0006" data-entity-2="ent0010" data-link-type="dependency" data-source-line="121" id="lnk45"><path d="M1319,517.5069 C1319,541.6069 1319,573.8369 1319,591.1869" fill="none" id="FNC_rkx32U-to-JNO_chqH1_" style="stroke:#181818;stroke-width:1;"/><polygon fill="#181818" points="1319,597.1869,1323,588.1869,1319,592.1869,1315,588.1869,1319,597.1869" style="stroke:#181818;stroke-width:1;"/></g><!--link JNO_chqH1_ to FNC_saMRQ0--><!--link JNO_chqH1_ to FNC_saMRQ0--><!--link JNO_chqH1_ to FNC_saMRQ0--><g class="link" data-entity-1="ent0010" data-entity-2="ent0007" data-link-type="dependency" data-source-line="124" id="lnk48"><path d="M1306.93,611.2969 C1267.28,611.2969 1111.12,611.2969 1111.12,611.2969 C1111.12,611.2969 1111.12,658.3669 1111.12,689.0469" fill="none" id="JNO_chqH1_-to-FNC_saMRQ0" style="stroke:#181818;stroke-width:1;"/><polygon fill="#181818" points="1111.12,695.0469,1115.12,686.0469,1111.12,690.0469,1107.12,686.0469,1111.12,695.0469" style="stroke:#181818;stroke-width:1;"/></g><!--link FNC_saMRQ0 to FNC_uzJGYp--><!--link FNC_uzJGYp to FNC_yuFXVJ--><!--link FNC_yuFXVJ to FNC_NGjUCa--><!--link FNC_yuFXVJ to FNC_NGjUCa--><g class="link" data-entity-1="ent0009" data-entity-2="ent0004" data-link-type="dependency" data-source-line="112" id="lnk34"><path d="M1624.17,737.5469 C1624.17,759.9369 1624.17,788.9869 1624.17,811.2869" fill="none" id="FNC_yuFXVJ-to-FNC_NGjUCa" style="stroke:#181818;stroke-width:1;"/><polygon fill="#181818" points="1624.17,817.2869,1628.17,808.2869,1624.17,812.2869,1620.17,808.2869,1624.17,817.2869" style="stroke:#181818;stroke-width:1;"/></g><!--link JNO_chqH1_ to FNC_uzJGYp--><!--link JNO_chqH1_ to FNC_uzJGYp--><g class="link" data-entity-1="ent0010" data-entity-2="ent0008" data-link-type="dependency" data-source-line="123" id="lnk47"><path d="M1319,615.2969 C1319,632.6369 1319,665.1069 1319,689.2369" fill="none" id="JNO_chqH1_-to-FNC_uzJGYp" style="stroke:#181818;stroke-width:1;"/><polygon fill="#181818" points="1319,695.2369,1323,686.2369,1319,690.2369,1315,686.2369,1319,695.2369" style="stroke:#181818;stroke-width:1;"/></g><!--link JNO_chqH1_ to FNC_yuFXVJ--><!--link JNO_chqH1_ to FNC_yuFXVJ--><g class="link" data-entity-1="ent0010" data-entity-2="ent0009" data-link-type="dependency" data-source-line="122" id="lnk46"><path d="M1325.13,609.2969 C1366.58,609.2969 1535,609.2969 1535,609.2969 C1535,609.2969 1535,657.9769 1535,689.1569" fill="none" id="JNO_chqH1_-to-FNC_yuFXVJ" style="stroke:#181818;stroke-width:1;"/><polygon fill="#181818" points="1535,695.1569,1539,686.1569,1535,690.1569,1531,686.1569,1535,695.1569" style="stroke:#181818;stroke-width:1;"/></g><!--link FNC_SXt2mM to FNC_erPw5B--><!--link FNC_erPw5B to FNC_oRz6Qe--><!--link PRC_CYgU64 to FNC_SXt2mM--><!--link JNA_Ps7rVy to JNA_zGOowi--><!--link FNC_oRz6Qe to JNA_Ps7rVy--><!--link FNC_oRz6Qe to JNA_Ps7rVy--><g class="link" data-entity-1="ent0023" data-entity-2="ent0028" data-link-type="dependency" data-source-line="119" id="lnk42"><path d="M434.74,393.2969 C439.76,393.2969 442.6,393.2969 442.6,393.2969 C442.6,393.2969 442.6,455.9469 442.6,481.1569" fill="none" id="FNC_oRz6Qe-to-JNA_Ps7rVy" style="stroke:#181818;stroke-width:1;"/><polygon fill="#181818" points="442.6,487.1569,446.6,478.1569,442.6,482.1569,438.6,478.1569,442.6,487.1569" style="stroke:#181818;stroke-width:1;"/></g><!--link FNC_SXt2mM to FNC_rkx32U--><g class="link" data-entity-1="ent0021" data-entity-2="ent0006" data-link-type="dependency" data-source-line="110" id="lnk32"><path d="M435.78,87.2969 C746.7,87.2969 1394.5,87.2969 1394.5,87.2969 C1394.5,87.2969 1394.5,385.4169 1394.5,469.1669" fill="none" id="FNC_SXt2mM-to-FNC_rkx32U" style="stroke:#181818;stroke-width:1;"/><polygon fill="#181818" points="1394.5,475.1669,1398.5,466.1669,1394.5,470.1669,1390.5,466.1669,1394.5,475.1669" style="stroke:#181818;stroke-width:1;"/></g><!--link FNC_oRz6Qe to FNC_lLdx12--><g class="link" data-entity-1="ent0023" data-entity-2="ent0005" data-link-type="association" data-source-line="111" id="lnk33"><path d="M434.72,378.2969 C546.87,378.2969 685.49,378.2969 798.78,378.2969" fill="none" id="FNC_oRz6Qe-FNC_lLdx12" style="stroke:#181818;stroke-width:1;"/></g><!--link FNC_uzJGYp to FNC_NGjUCa--><g class="link" data-entity-1="ent0008" data-entity-2="ent0004" data-link-type="dependency" data-source-line="113" id="lnk35"><path d="M1365.25,737.5469 C1365.25,759.9369 1365.25,788.9869 1365.25,811.2869" fill="none" id="FNC_uzJGYp-to-FNC_NGjUCa" style="stroke:#181818;stroke-width:1;"/><polygon fill="#181818" points="1365.25,817.2869,1369.25,808.2869,1365.25,812.2869,1361.25,808.2869,1365.25,817.2869" style="stroke:#181818;stroke-width:1;"/></g><!--link FNC_saMRQ0 to FNC_NGjUCa--><g class="link" data-entity-1="ent0007" data-entity-2="ent0004" data-link-type="dependency" data-source-line="114" id="lnk36"><path d="M944,737.5469 C944,772.4969 944,838.2969 944,838.2969 C944,838.2969 1114.81,838.2969 1263.99,838.2969" fill="none" id="FNC_saMRQ0-to-FNC_NGjUCa" style="stroke:#181818;stroke-width:1;"/><polygon fill="#181818" points="1269.99,838.2969,1260.99,834.2969,1264.99,838.2969,1260.99,842.2969,1269.99,838.2969" style="stroke:#181818;stroke-width:1;"/></g><!--link FNC_erPw5B to JNA_zGOowi--><g class="link" data-entity-1="ent0022" data-entity-2="ent0029" data-link-type="dependency" data-source-line="115" id="lnk37"><path d="M434.73,219.2969 C484.61,219.2969 526,219.2969 526,219.2969 C526,219.2969 526,433.0169 526,481.0769" fill="none" id="FNC_erPw5B-to-JNA_zGOowi" style="stroke:#181818;stroke-width:1;"/><polygon fill="#181818" points="526,487.0769,530,478.0769,526,482.0769,522,478.0769,526,487.0769" style="stroke:#181818;stroke-width:1;"/></g><!--link JNA_zGOowi to FNC_lLdx12--><g class="link" data-entity-1="ent0029" data-entity-2="ent0005" data-link-type="dependency" data-source-line="116" id="lnk38"><path d="M530.5,487.1269 C530.5,460.3869 530.5,384.2969 530.5,384.2969 C530.5,384.2969 663.91,384.2969 792.7,384.2969" fill="none" id="JNA_zGOowi-to-FNC_lLdx12" style="stroke:#181818;stroke-width:1;"/><polygon fill="#181818" points="798.7,384.2969,789.7,380.2969,793.7,384.2969,789.7,388.2969,798.7,384.2969" style="stroke:#181818;stroke-width:1;"/></g><!--reverse link FNC_oRz6Qe to JNA_zGOowi--><g class="link" data-entity-1="ent0023" data-entity-2="ent0029" data-link-type="dependency" data-source-line="117" id="lnk40"><path d="M440.53,387.2969 C489.31,387.2969 521.5,387.2969 521.5,387.2969 C521.5,387.2969 521.5,460.6469 521.5,487.0069" fill="none" id="FNC_oRz6Qe-backto-JNA_zGOowi" style="stroke:#181818;stroke-width:1;"/><polygon fill="#181818" points="434.53,387.2969,443.53,391.2969,439.53,387.2969,443.53,383.2969,434.53,387.2969" style="stroke:#181818;stroke-width:1;"/></g><!--link FNC_lLdx12 to JNA_Ps7rVy--><g class="link" data-entity-1="ent0005" data-entity-2="ent0028" data-link-type="dependency" data-source-line="118" id="lnk41"><path d="M798.83,381.2969 C641.05,381.2969 453.4,381.2969 453.4,381.2969 C453.4,381.2969 453.4,454.1669 453.4,481.2769" fill="none" id="FNC_lLdx12-to-JNA_Ps7rVy" style="stroke:#181818;stroke-width:1;"/><polygon fill="#181818" points="453.4,487.2769,457.4,478.2769,453.4,482.2769,449.4,478.2769,453.4,487.2769" style="stroke:#181818;stroke-width:1;"/></g><!--reverse link FNC_SXt2mM to JNA_Ps7rVy--><g class="link" data-entity-1="ent0021" data-entity-2="ent0028" data-link-type="dependency" data-source-line="120" id="lnk44"><path d="M441.63,108.2969 C450.46,108.2969 449.8,108.2969 449.8,108.2969 C449.8,108.2969 449.8,428.3369 449.8,487.0869" fill="none" id="FNC_SXt2mM-backto-JNA_Ps7rVy" style="stroke:#181818;stroke-width:1;"/><polygon fill="#181818" points="435.63,108.2969,444.63,112.2969,440.63,108.2969,444.63,104.2969,435.63,108.2969" style="stroke:#181818;stroke-width:1;"/></g><?plantuml-src xLVTRjf85BxdAMRTrVv8mG4J25q14d58qYX9KxA9MgrMQ6eVR1SpuywC8T3D4-qZx5sVR8-9mHCmj8xsRYCYXPbppdpV-Pt13rmWKe40hcOHb4fo5B282ZecBWnf7AeJpjGL7GCnpY2SW0eSIguWXZsoMk-HhWXek4SaPR8iGGH38_-Wcs0Ef6ffGkbJbqy3vf4X3ILe4i5ZvZfSC13aGDl_I9sHjn3QFEI2l3hf9X-TUXWmIDmXN2YVQmB6NP0GaKP51w9ib6msAwKVa2lQaZw4Wzz5u7de2_D-6Ge-tYEAxv6GVeJmLv9ia7AvWtjFRFf0ms1ELS3P5YFJ_6kNrU0sAc1u0s9IY5zNIku4k_YLopji1XSmLCyox0UUNy3ISK3AhO7OSEiD6uOnC0TscsWf1qTHveNGQjbyFERi50igmb1sEkHBYP2ZzHhh7VUQlMeYuS85aUusxSDUerjwo3zv63CdSNxhcPNZfcqNEpCIF0dDCu_qNxhzfTjVklr_qkqo4e42yYCLZX-CgOB1aYDfoOb7xiSXast3LohwRNz_EfsQqvh9XRTlLIgLVTGmo2I0wH6_RniLKY7L1luPdLP4bK_Sjd5fcQz9jMeUtjNDWuicgPdLi6vMYMNM9WspXZklJMjk438Cmh1jlBBgLiqwD7002Jw2ji4u0sE_qqgWEZbiK-__Cx8DSc1MVMHsPvdDyC2iaxffbTF_atBLh9sXqdSJBYaUOPsHZrmfh3etI1A7mKL1eCAaL2SW9E2qH8SKocA14tULNM9SF_e7qY1R2bDJRcq6vejqQ0Zjgbb_wEIYaQz_7yKIsmQ3c89z_IS1o-gAegHl3-mFtctZO86v5NLPF4zWxvBnFqDK5GofeyWRfi33HCx8JyJcFjuqsAV8enj58TuTY-8xIGzwvABr3P8vkR87LwUVRcrQcCfn81sEGKXc14meKqzZOUE51BXPZ4juuTxZ3LQO2-0bEtuSM9zZh0oNs3uQWqmgPWklLQw-HKgCxclMRM5ItHYlH_4K_PWxyHZXPH5yII_xxohFnJyEg8TphX1YF3y__H0z5_4Itm7XgaOB0S_Ya_TtvmjW9n1EWeeV59vVlHqu_kUpwc0Xp6g5bF_0PvOBx4zywR3oUiAovRhYsedPCkz4BGNPCbCKoGLSNWzTjipLr7pDbddWMeD-DylTYXh9tOehZWzumUd3T9d8miCqjt1i7vnHMZTsCbIeLtIAtRnNrlYo86xlFi8x7CZD35_fOtAZHBoSv4MmGLnFwqS5iIzfH7eXF4w3d2dbG5IiTtX_tdW7cASi77afJSbcN_EKqhEqkof7AGsvNXPTvfBpRvR6Ucjt1zVoKDpDSaNpqxVu4mRTolGssadJozXlDlmAf_Hp4c7s-82GJmA6ptfjXEYdbVKRIk_Or2HjKxthDoNBoR4fMIPZGRQZkvHzNTcbB7H97AMoD7VwY4pFIxtNdTBGKgaUvjMPQQhrQRgmMerGVOoaDkdio96auoT7aawmVm40?></g></svg>