<svg xmlns="http://www.w3.org/2000/svg" xmlns:xlink="http://www.w3.org/1999/xlink" contentStyleType="text/css" data-diagram-type="DESCRIPTION" height="1247px" preserveAspectRatio="none" style="width:785px;height:1247px;background:#FAFAFA;" version="1.1" viewBox="0 0 785 1247" width="785px" zoomAndPan="magnify"><?plantuml 1.2026.3?><defs/><g><rect fill="#FAFAFA" height="1247" style="stroke:none;stroke-width:1;" width="785" x="0" y="0"/><g class="title" data-source-line="70"><text fill="#000000" font-family="'Helvetica Neue, Helvetica, Arial, sans-serif'" font-size="14" font-weight="700" lengthAdjust="spacing" textLength="166.8516" x="305.5742" y="22.9951">Reverse Architecture</text></g><!--cluster Processes--><g class="cluster" data-qualified-name="Processes" data-source-line="72" id="ent0002"><rect fill="#EDE8E1" height="1189" rx="2" ry="2" style="stroke:#8C7E6A;stroke-width:1;" width="764" x="7" y="44.2969"/><text fill="#000000" font-family="'Helvetica Neue, Helvetica, Arial, sans-serif'" font-size="12" font-weight="700" lengthAdjust="spacing" textLength="67.7754" x="355.1123" y="57.4355">Processes</text></g><!--cluster PRC_CYgU64--><g class="cluster" data-qualified-name="Processes.PRC_CYgU64" data-source-line="73" id="ent0003"><rect fill="#E0D8CC" height="1125" rx="2" ry="2" style="stroke:#8C7E6A;stroke-width:1;" width="716" x="31" y="84.2969"/><path d="M307.9264,91.9738 L316.6495,91.9738 L316.6495,90.1738 L322.8802,97.3738 L316.6495,104.5738 L316.6495,102.7738 L307.9264,102.7738" fill="#252327" style="stroke:none;stroke-width:1;"/><text fill="#000000" font-family="'Helvetica Neue, Helvetica, Arial, sans-serif'" font-size="12" font-weight="700" lengthAdjust="spacing" textLength="143.0156" x="330.658" y="105.6206">Reverse Architecture</text></g><!--entity FNC_saMRQ0--><g class="entity" data-qualified-name="Processes.PRC_CYgU64.FNC_saMRQ0" data-source-line="74" id="ent0004"><rect fill="#E0D8CC" height="42.1538" rx="2" ry="2" style="stroke:#8C7E6A;stroke-width:0.5;" width="236.4097" x="47" y="1029.2969"/><path d="M61.0154,1055.4969 L61.0154,1046.7738 L68.0769,1043.5892 L75.1385,1046.7738 L75.1385,1055.4969 L68.0769,1052.0353" fill="#252327" style="stroke:none;stroke-width:0.5;"/><text fill="#000000" font-family="'Helvetica Neue, Helvetica, Arial, sans-serif'" font-size="12" lengthAdjust="spacing" textLength="190.4414" x="82.9683" y="1058.6206">Author Architecture Documents</text></g><!--entity FNC_uzJGYp--><g class="entity" data-qualified-name="Processes.PRC_CYgU64.FNC_uzJGYp" data-source-line="75" id="ent0005"><rect fill="#E0D8CC" height="42.1538" rx="2" ry="2" style="stroke:#8C7E6A;stroke-width:0.5;" width="147.9566" x="343" y="1029.2969"/><path d="M357.0154,1055.4969 L357.0154,1046.7738 L364.0769,1043.5892 L371.1385,1046.7738 L371.1385,1055.4969 L364.0769,1052.0353" fill="#252327" style="stroke:none;stroke-width:0.5;"/><text fill="#000000" font-family="'Helvetica Neue, Helvetica, Arial, sans-serif'" font-size="12" lengthAdjust="spacing" textLength="101.9883" x="378.9683" y="1058.6206">Author Diagrams</text></g><!--entity FNC_yuFXVJ--><g class="entity" data-qualified-name="Processes.PRC_CYgU64.FNC_yuFXVJ" data-source-line="76" id="ent0006"><rect fill="#E0D8CC" height="42.1538" rx="2" ry="2" style="stroke:#8C7E6A;stroke-width:0.5;" width="180.3413" x="551" y="1029.2969"/><path d="M565.0154,1055.4969 L565.0154,1046.7738 L572.0769,1043.5892 L579.1385,1046.7738 L579.1385,1055.4969 L572.0769,1052.0353" fill="#252327" style="stroke:none;stroke-width:0.5;"/><text fill="#000000" font-family="'Helvetica Neue, Helvetica, Arial, sans-serif'" font-size="12" lengthAdjust="spacing" textLength="134.373" x="586.9683" y="1058.6206">Author Model Artifacts</text></g><!--entity FNC_SXt2mM--><g class="entity" data-qualified-name="Processes.PRC_CYgU64.FNC_SXt2mM" data-source-line="77" id="ent0007"><rect fill="#E0D8CC" height="42.1538" rx="2" ry="2" style="stroke:#8C7E6A;stroke-width:0.5;" width="184.0328" x="325" y="687.2969"/><path d="M339.0154,713.4969 L339.0154,704.7738 L346.0769,701.5892 L353.1385,704.7738 L353.1385,713.4969 L346.0769,710.0353" fill="#252327" style="stroke:none;stroke-width:0.5;"/><text fill="#000000" font-family="'Helvetica Neue, Helvetica, Arial, sans-serif'" font-size="12" lengthAdjust="spacing" textLength="138.0645" x="360.9683" y="716.6206">Check Model Coverage</text></g><!--entity FNC_rkx32U--><g class="entity" data-qualified-name="Processes.PRC_CYgU64.FNC_rkx32U" data-source-line="78" id="ent0008"><rect fill="#E0D8CC" height="42.1538" rx="2" ry="2" style="stroke:#8C7E6A;stroke-width:0.5;" width="368.8667" x="232.5" y="809.2969"/><path d="M246.5154,835.4969 L246.5154,826.7738 L253.5769,823.5892 L260.6385,826.7738 L260.6385,835.4969 L253.5769,832.0353" fill="#252327" style="stroke:none;stroke-width:0.5;"/><text fill="#000000" font-family="'Helvetica Neue, Helvetica, Arial, sans-serif'" font-size="12" lengthAdjust="spacing" textLength="322.8984" x="268.4683" y="838.6206">Determine Required Changes to Architecture Content</text></g><!--entity FNC_lLdx12--><g class="entity" data-qualified-name="Processes.PRC_CYgU64.FNC_lLdx12" data-source-line="79" id="ent0009"><rect fill="#E0D8CC" height="42.1538" rx="2" ry="2" style="stroke:#8C7E6A;stroke-width:0.5;" width="284.5152" x="71.5" y="345.2969"/><path d="M85.5154,371.4969 L85.5154,362.7738 L92.5769,359.5892 L99.6385,362.7738 L99.6385,371.4969 L92.5769,368.0353" fill="#252327" style="stroke:none;stroke-width:0.5;"/><text fill="#000000" font-family="'Helvetica Neue, Helvetica, Arial, sans-serif'" font-size="12" lengthAdjust="spacing" textLength="238.5469" x="107.4683" y="374.6206">Discover Relevant Architecture Content</text></g><!--entity FNC_erPw5B--><g class="entity" data-qualified-name="Processes.PRC_CYgU64.FNC_erPw5B" data-source-line="80" id="ent0010"><rect fill="#E0D8CC" height="42.1538" rx="2" ry="2" style="stroke:#8C7E6A;stroke-width:0.5;" width="199.7242" x="114" y="125.2969"/><path d="M128.0154,151.4969 L128.0154,142.7738 L135.0769,139.5892 L142.1385,142.7738 L142.1385,151.4969 L135.0769,148.0353" fill="#252327" style="stroke:none;stroke-width:0.5;"/><text fill="#000000" font-family="'Helvetica Neue, Helvetica, Arial, sans-serif'" font-size="12" lengthAdjust="spacing" textLength="153.7559" x="149.9683" y="154.6206">Explore System Structure</text></g><!--entity JNO_chqH1_--><g class="entity" data-qualified-name="Processes.PRC_CYgU64.JNO_chqH1_" data-source-line="81" id="ent0011"><ellipse cx="417" cy="940.2969" fill="#F1F1F1" rx="8" ry="8" style="stroke:#181818;stroke-width:0.5;"/></g><!--entity FNC_oRz6Qe--><g class="entity" data-qualified-name="Processes.PRC_CYgU64.FNC_oRz6Qe" data-source-line="82" id="ent0012"><rect fill="#E0D8CC" height="42.1538" rx="2" ry="2" style="stroke:#8C7E6A;stroke-width:0.5;" width="284.4038" x="275" y="467.2969"/><path d="M289.0154,493.4969 L289.0154,484.7738 L296.0769,481.5892 L303.1385,484.7738 L303.1385,493.4969 L296.0769,490.0353" fill="#252327" style="stroke:none;stroke-width:0.5;"/><text fill="#000000" font-family="'Helvetica Neue, Helvetica, Arial, sans-serif'" font-size="12" lengthAdjust="spacing" textLength="238.4355" x="310.9683" y="496.6206">Map Elements to Architecture Concepts</text></g><!--entity FNC_NGjUCa--><g class="entity" data-qualified-name="Processes.PRC_CYgU64.FNC_NGjUCa" data-source-line="83" id="ent0013"><rect fill="#E0D8CC" height="42.1538" rx="2" ry="2" style="stroke:#8C7E6A;stroke-width:0.5;" width="265.3667" x="374.5" y="1151.2969"/><path d="M388.5154,1177.4969 L388.5154,1168.7738 L395.5769,1165.5892 L402.6385,1168.7738 L402.6385,1177.4969 L395.5769,1174.0353" fill="#252327" style="stroke:none;stroke-width:0.5;"/><text fill="#000000" font-family="'Helvetica Neue, Helvetica, Arial, sans-serif'" font-size="12" lengthAdjust="spacing" textLength="219.3984" x="410.4683" y="1180.6206">Verify Artifact Integrity &amp; Coherence</text></g><!--entity JNA_zGOowi--><g class="entity" data-qualified-name="Processes.PRC_CYgU64.JNA_zGOowi" data-source-line="84" id="ent0014"><ellipse cx="214" cy="256.2969" fill="#F1F1F1" rx="8" ry="8" style="stroke:#181818;stroke-width:0.5;"/></g><!--entity JNA_Ps7rVy--><g class="entity" data-qualified-name="Processes.PRC_CYgU64.JNA_Ps7rVy" data-source-line="85" id="ent0015"><ellipse cx="417" cy="598.2969" fill="#F1F1F1" rx="8" ry="8" style="stroke:#181818;stroke-width:0.5;"/></g><!--link FNC_erPw5B to JNA_zGOowi--><!--link FNC_erPw5B to JNA_zGOowi--><g class="link" data-entity-1="ent0010" data-entity-2="ent0014" data-link-type="dependency" data-source-line="113" id="lnk39"><path d="M217,167.5069 C217,191.6069 217,223.8369 217,241.1869" fill="none" id="FNC_erPw5B-to-JNA_zGOowi" style="stroke:#181818;stroke-width:1;"/><polygon fill="#181818" points="217,247.1869,221,238.1869,217,242.1869,213,238.1869,217,247.1869" style="stroke:#181818;stroke-width:1;"/></g><!--link JNA_zGOowi to FNC_lLdx12--><!--link JNA_zGOowi to FNC_lLdx12--><!--link JNA_zGOowi to FNC_lLdx12--><g class="link" data-entity-1="ent0014" data-entity-2="ent0009" data-link-type="dependency" data-source-line="114" id="lnk40"><path d="M218.5,265.2969 C218.5,282.6369 218.5,315.1069 218.5,339.2369" fill="none" id="JNA_zGOowi-to-FNC_lLdx12" style="stroke:#181818;stroke-width:1;"/><polygon fill="#181818" points="218.5,345.2369,222.5,336.2369,218.5,340.2369,214.5,336.2369,218.5,345.2369" style="stroke:#181818;stroke-width:1;"/></g><!--link FNC_lLdx12 to FNC_oRz6Qe--><!--link FNC_oRz6Qe to FNC_lLdx12--><g class="link" data-entity-1="ent0012" data-entity-2="ent0009" data-link-type="association" data-source-line="109" id="lnk35"><path d="M329.33,467.0469 C329.33,444.6569 329.33,409.6069 329.33,387.3069" fill="none" id="FNC_oRz6Qe-FNC_lLdx12" style="stroke:#181818;stroke-width:1;"/></g><!--link FNC_oRz6Qe to JNA_Ps7rVy--><!--link FNC_oRz6Qe to JNA_Ps7rVy--><!--link FNC_oRz6Qe to JNA_Ps7rVy--><g class="link" data-entity-1="ent0012" data-entity-2="ent0015" data-link-type="dependency" data-source-line="117" id="lnk43"><path d="M421.5,509.5069 C421.5,533.6069 421.5,565.8369 421.5,583.1869" fill="none" id="FNC_oRz6Qe-to-JNA_Ps7rVy" style="stroke:#181818;stroke-width:1;"/><polygon fill="#181818" points="421.5,589.1869,425.5,580.1869,421.5,584.1869,417.5,580.1869,421.5,589.1869" style="stroke:#181818;stroke-width:1;"/></g><!--link JNA_Ps7rVy to FNC_SXt2mM--><!--link JNA_Ps7rVy to FNC_SXt2mM--><g class="link" data-entity-1="ent0015" data-entity-2="ent0007" data-link-type="dependency" data-source-line="118" id="lnk44"><path d="M420,607.2969 C420,624.6369 420,657.1069 420,681.2369" fill="none" id="JNA_Ps7rVy-to-FNC_SXt2mM" style="stroke:#181818;stroke-width:1;"/><polygon fill="#181818" points="420,687.2369,424,678.2369,420,682.2369,416,678.2369,420,687.2369" style="stroke:#181818;stroke-width:1;"/></g><!--link FNC_SXt2mM to FNC_rkx32U--><!--link FNC_SXt2mM to FNC_rkx32U--><g class="link" data-entity-1="ent0007" data-entity-2="ent0008" data-link-type="dependency" data-source-line="108" id="lnk34"><path d="M447.67,729.5469 C447.67,751.9369 447.67,780.9869 447.67,803.2869" fill="none" id="FNC_SXt2mM-to-FNC_rkx32U" style="stroke:#181818;stroke-width:1;"/><polygon fill="#181818" points="447.67,809.2869,451.67,800.2869,447.67,804.2869,443.67,800.2869,447.67,809.2869" style="stroke:#181818;stroke-width:1;"/></g><!--link FNC_rkx32U to JNO_chqH1_--><!--link FNC_rkx32U to JNO_chqH1_--><g class="link" data-entity-1="ent0008" data-entity-2="ent0011" data-link-type="dependency" data-source-line="119" id="lnk45"><path d="M420,851.5069 C420,875.6069 420,907.8369 420,925.1869" fill="none" id="FNC_rkx32U-to-JNO_chqH1_" style="stroke:#181818;stroke-width:1;"/><polygon fill="#181818" points="420,931.1869,424,922.1869,420,926.1869,416,922.1869,420,931.1869" style="stroke:#181818;stroke-width:1;"/></g><!--link JNO_chqH1_ to FNC_saMRQ0--><!--link JNO_chqH1_ to FNC_saMRQ0--><!--link JNO_chqH1_ to FNC_saMRQ0--><g class="link" data-entity-1="ent0011" data-entity-2="ent0004" data-link-type="dependency" data-source-line="122" id="lnk48"><path d="M407.83,945.2969 C375.73,945.2969 270.38,945.2969 270.38,945.2969 C270.38,945.2969 270.38,992.3669 270.38,1023.0469" fill="none" id="JNO_chqH1_-to-FNC_saMRQ0" style="stroke:#181818;stroke-width:1;"/><polygon fill="#181818" points="270.38,1029.0469,274.38,1020.0469,270.38,1024.0469,266.38,1020.0469,270.38,1029.0469" style="stroke:#181818;stroke-width:1;"/></g><!--link FNC_saMRQ0 to FNC_uzJGYp--><!--link FNC_uzJGYp to FNC_yuFXVJ--><!--link FNC_yuFXVJ to FNC_NGjUCa--><!--link FNC_yuFXVJ to FNC_NGjUCa--><g class="link" data-entity-1="ent0006" data-entity-2="ent0013" data-link-type="dependency" data-source-line="110" id="lnk36"><path d="M610,1071.5469 C610,1093.9369 610,1122.9869 610,1145.2869" fill="none" id="FNC_yuFXVJ-to-FNC_NGjUCa" style="stroke:#181818;stroke-width:1;"/><polygon fill="#181818" points="610,1151.2869,614,1142.2869,610,1146.2869,606,1142.2869,610,1151.2869" style="stroke:#181818;stroke-width:1;"/></g><!--link JNA_zGOowi to FNC_oRz6Qe--><!--link JNA_zGOowi to FNC_oRz6Qe--><g class="link" data-entity-1="ent0014" data-entity-2="ent0012" data-link-type="dependency" data-source-line="115" id="lnk41"><path d="M223.02,259.2969 C263.22,259.2969 424,259.2969 424,259.2969 C424,259.2969 424,404.4769 424,461.1669" fill="none" id="JNA_zGOowi-to-FNC_oRz6Qe" style="stroke:#181818;stroke-width:1;"/><polygon fill="#181818" points="424,467.1669,428,458.1669,424,462.1669,420,458.1669,424,467.1669" style="stroke:#181818;stroke-width:1;"/></g><!--link FNC_lLdx12 to JNA_Ps7rVy--><!--link FNC_lLdx12 to JNA_Ps7rVy--><g class="link" data-entity-1="ent0009" data-entity-2="ent0015" data-link-type="dependency" data-source-line="116" id="lnk42"><path d="M246.67,387.5669 C246.67,445.4169 246.67,601.2969 246.67,601.2969 C246.67,601.2969 366.46,601.2969 401.84,601.2969" fill="none" id="FNC_lLdx12-to-JNA_Ps7rVy" style="stroke:#181818;stroke-width:1;"/><polygon fill="#181818" points="407.84,601.2969,398.84,597.2969,402.84,601.2969,398.84,605.2969,407.84,601.2969" style="stroke:#181818;stroke-width:1;"/></g><!--link JNO_chqH1_ to FNC_uzJGYp--><!--link JNO_chqH1_ to FNC_uzJGYp--><g class="link" data-entity-1="ent0011" data-entity-2="ent0005" data-link-type="dependency" data-source-line="121" id="lnk47"><path d="M420,949.2969 C420,966.6369 420,999.1069 420,1023.2369" fill="none" id="JNO_chqH1_-to-FNC_uzJGYp" style="stroke:#181818;stroke-width:1;"/><polygon fill="#181818" points="420,1029.2369,424,1020.2369,420,1024.2369,416,1020.2369,420,1029.2369" style="stroke:#181818;stroke-width:1;"/></g><!--link JNO_chqH1_ to FNC_yuFXVJ--><!--link JNO_chqH1_ to FNC_yuFXVJ--><g class="link" data-entity-1="ent0011" data-entity-2="ent0006" data-link-type="dependency" data-source-line="120" id="lnk46"><path d="M426.44,943.2969 C459.46,943.2969 567.83,943.2969 567.83,943.2969 C567.83,943.2969 567.83,991.9769 567.83,1023.1569" fill="none" id="JNO_chqH1_-to-FNC_yuFXVJ" style="stroke:#181818;stroke-width:1;"/><polygon fill="#181818" points="567.83,1029.1569,571.83,1020.1569,567.83,1024.1569,563.83,1020.1569,567.83,1029.1569" style="stroke:#181818;stroke-width:1;"/></g><!--link FNC_uzJGYp to FNC_NGjUCa--><g class="link" data-entity-1="ent0005" data-entity-2="ent0013" data-link-type="dependency" data-source-line="111" id="lnk37"><path d="M432.75,1071.5469 C432.75,1093.9369 432.75,1122.9869 432.75,1145.2869" fill="none" id="FNC_uzJGYp-to-FNC_NGjUCa" style="stroke:#181818;stroke-width:1;"/><polygon fill="#181818" points="432.75,1151.2869,436.75,1142.2869,432.75,1146.2869,428.75,1142.2869,432.75,1151.2869" style="stroke:#181818;stroke-width:1;"/></g><!--link FNC_saMRQ0 to FNC_NGjUCa--><g class="link" data-entity-1="ent0004" data-entity-2="ent0013" data-link-type="dependency" data-source-line="112" id="lnk38"><path d="M165,1071.5469 C165,1106.4969 165,1172.2969 165,1172.2969 C165,1172.2969 272.15,1172.2969 368.28,1172.2969" fill="none" id="FNC_saMRQ0-to-FNC_NGjUCa" style="stroke:#181818;stroke-width:1;"/><polygon fill="#181818" points="374.28,1172.2969,365.28,1168.2969,369.28,1172.2969,365.28,1176.2969,374.28,1172.2969" style="stroke:#181818;stroke-width:1;"/></g><?plantuml-src xLV_J-985F-Tl-9Tzt9tcq2bHP2z00bMr3NgkdYQtLmkP2oFjaUPwSvCGTZpVxyfY1snPQcvtyveOjwyBv_tlKy_6288YHoPd4TOAebnG2F2oGI6E29nA8yPbPTaWc2SOZX56RW4BZ76CZpHPUZoW8Hb48IAYa0UZ8niGzV10i6oDQRmoP3D0kh1Y8G2DGvdCHswZ5FaiA-ztn5tx2sP3WiPXtV7tUH7TpqCA2RX0EFIPng3iY4AZA1HrO487IUFpMhf9-MhqeK-XeC_UE1vAXRg_JRYR586oSeGaZiCtqFo09LAHxqzq-aZ2OC5aG6ZEKgc-SyshS5DL43n6lcqa7zT8PWRRFElKjcYCpZ7aNoLOZ_m_0AQhej2v2RYHLWVwIYCaRguNKKhERgIK2_4LijXamcZ9wgX8fNAJWU-bm0EDtkiTzHhzgo4m_WG-UDhqpdeDRgbXspBevYwIV2vDgj7JSSfPZFYB4dDAqtwRzF-Dkrlq_u_cNOHyK0Y_4ouwmSJ8d6mzX5QOkh1_IIaectuKaQ_x-tDPZDpLZCPz_RiQhMwfoGCc0OuEsJtRQCALR0QwjVej28YVHYsZGlR_02MPHxSritzyoRKJ2kicnROPctQC6lgvODfBmo0KH26RUETNRThze6X5X1dOsmRb54qzZgj1AgJuUrZzF-PimtODorVUNPhcyrmtwn3tRGhZt-d5SkidIgXdHqkIHQfFeCx9gNgkc6G54ubLp426IQjEaKkK6rB5P1Kl9YhZVjKNJ2kLl6XC22dCJNXril4V1Sk2R5jcVM7JYPQOZTj8IBWgkyCdA_UJMD_QJuNODqdpn2wiTgk_1a0734tdY2Lon2q2L1OnvVEG92B_kVgQv6E0kAfWSYn7I_EJhv6hxLzeJuDeOf51YFYvha_Zu-_t9uLXd1yTCUF20vJPI4UPWDSVv7svA8mm16gJ_XajGw_nQhlXWfJAQD8-l5PWHpr6LRroORdu_kQVLCSFX1k4bQoZ75Ag2m06PuFxzL5K1IoTn-ftOPmFLVNomIk9O-VElmb2FAhMVrm2U86t4qGr8zYdbr-6hZ-jrDhKDY32n91ByHbisTbsSKehurOVz7uZ8KHRvFBQlxKe_1HfTLJEt8EloX0Nnrn2ZGRyVBaxnk7P2QWErYSV58dM0xpIXpms_cIcMOIAd-got68z2zrlD7AffMKt1JSg7XAfe8yEHKgctbAoInipScKpCBMvYibimIrIKZ9bz3FkYSbionggoybCyFM5bbAPafg-oWbiy2r-kzSdEs26xNPh69cRGeKSSTCRXVK4hbTy2cF3-fAAlsQZ2zTVRj5QUD_WRHjobfdbC4mtfSop-KqwBAMgLHXm_RAbR9MjLpHLNWxYQvIjfFeQiBBMlapHNNs3yBQ55rd8yU1jQMq9t95rvP-8AgpzVhbM5sNDEsP7AifMw_S3gBhokqWkgvS8lel?></g></svg>