<svg xmlns="http://www.w3.org/2000/svg" xmlns:xlink="http://www.w3.org/1999/xlink" contentStyleType="text/css" data-diagram-type="SEQUENCE" height="424px" preserveAspectRatio="none" style="width:1001px;height:424px;background:#FFFFFF;" version="1.1" viewBox="0 0 1001 424" width="1001px" zoomAndPan="magnify"><?plantuml 1.2026.3?><defs/><g><g class="title" data-source-line="1"><text fill="#000000" font-family="sans-serif" font-size="14" font-weight="700" lengthAdjust="spacing" textLength="364.6631" x="314.7837" y="27.9951">From a Write to a Consistent, Broadcast State</text></g><g class="participant-lifeline" data-entity-uid="part1" data-qualified-name="author" data-source-line="3" id="part1-lifeline"><g><title>Author or AI Agent</title><rect fill="#000000" fill-opacity="0.00000" height="223.9297" width="8" x="68.9756" y="118.5938"/><line style="stroke:#181818;stroke-width:0.5;stroke-dasharray:5,5;" x1="72" x2="72" y1="118.5938" y2="342.5234"/></g></g><g class="participant-lifeline" data-entity-uid="part2" data-qualified-name="mcp" data-source-line="4" id="part2-lifeline"><g><title>MCP . REST Write Surface</title><rect fill="#000000" fill-opacity="0.00000" height="223.9297" width="8" x="239.8267" y="118.5938"/><line style="stroke:#181818;stroke-width:0.5;stroke-dasharray:5,5;" x1="242.9512" x2="242.9512" y1="118.5938" y2="342.5234"/></g></g><g class="participant-lifeline" data-entity-uid="part3" data-qualified-name="queue" data-source-line="5" id="part3-lifeline"><g><title>Write Request Queue</title><rect fill="#000000" fill-opacity="0.00000" height="223.9297" width="8" x="427.6924" y="118.5938"/><line style="stroke:#181818;stroke-width:0.5;stroke-dasharray:5,5;" x1="430.7021" x2="430.7021" y1="118.5938" y2="342.5234"/></g></g><g class="participant-lifeline" data-entity-uid="part4" data-qualified-name="verifier" data-source-line="6" id="part4-lifeline"><g><title>Model Verifier</title><rect fill="#000000" fill-opacity="0.00000" height="223.9297" width="8" x="735.5088" y="118.5938"/><line style="stroke:#181818;stroke-width:0.5;stroke-dasharray:5,5;" x1="738.7549" x2="738.7549" y1="118.5938" y2="342.5234"/></g></g><g class="participant-lifeline" data-entity-uid="part5" data-qualified-name="git" data-source-line="7" id="part5-lifeline"><g><title>Git Repository</title><rect fill="#000000" fill-opacity="0.00000" height="223.9297" width="8" x="850.1377" y="118.5938"/><line style="stroke:#181818;stroke-width:0.5;stroke-dasharray:5,5;" x1="853.2627" x2="853.2627" y1="118.5938" y2="342.5234"/></g></g><g class="participant-lifeline" data-entity-uid="part6" data-qualified-name="gui" data-source-line="8" id="part6-lifeline"><g><title>GUI .SSE.</title><rect fill="#000000" fill-opacity="0.00000" height="223.9297" width="8" x="949.6216" y="118.5938"/><line style="stroke:#181818;stroke-width:0.5;stroke-dasharray:5,5;" x1="953.0127" x2="953.0127" y1="118.5938" y2="342.5234"/></g></g><g class="participant participant-head" data-entity-uid="part1" data-qualified-name="author" data-source-line="3" id="part1-head"><text fill="#000000" font-family="sans-serif" font-size="14" lengthAdjust="spacing" textLength="129.9512" x="5" y="115.292">Author or AI Agent</text><ellipse cx="72.9756" cy="50.7969" fill="#E2E2F0" rx="8" ry="8" style="stroke:#181818;stroke-width:0.5;"/><path d="M72.9756,58.7969 L72.9756,85.7969 M59.9756,66.7969 L85.9756,66.7969 M72.9756,85.7969 L59.9756,100.7969 M72.9756,85.7969 L85.9756,100.7969" fill="none" style="stroke:#181818;stroke-width:0.5;"/></g><g class="participant participant-tail" data-entity-uid="part1" data-qualified-name="author" data-source-line="3" id="part1-tail"><text fill="#000000" font-family="sans-serif" font-size="14" lengthAdjust="spacing" textLength="129.9512" x="5" y="354.5186">Author or AI Agent</text><ellipse cx="72.9756" cy="366.3203" fill="#E2E2F0" rx="8" ry="8" style="stroke:#181818;stroke-width:0.5;"/><path d="M72.9756,374.3203 L72.9756,401.3203 M59.9756,382.3203 L85.9756,382.3203 M72.9756,401.3203 L59.9756,416.3203 M72.9756,401.3203 L85.9756,416.3203" fill="none" style="stroke:#181818;stroke-width:0.5;"/></g><g class="participant participant-head" data-entity-uid="part2" data-qualified-name="mcp" data-source-line="4" id="part2-head"><text fill="#000000" font-family="sans-serif" font-size="14" lengthAdjust="spacing" textLength="179.751" x="150.9512" y="115.292">MCP / REST Write Surface</text><path d="M223.3267,74.2969 L223.3267,98.2969 M223.3267,86.2969 L240.3267,86.2969" fill="none" style="stroke:#181818;stroke-width:0.5;"/><ellipse cx="252.3267" cy="86.2969" fill="#E2E2F0" rx="12" ry="12" style="stroke:#181818;stroke-width:0.5;"/></g><g class="participant participant-tail" data-entity-uid="part2" data-qualified-name="mcp" data-source-line="4" id="part2-tail"><text fill="#000000" font-family="sans-serif" font-size="14" lengthAdjust="spacing" textLength="179.751" x="150.9512" y="354.5186">MCP / REST Write Surface</text><path d="M223.3267,361.8203 L223.3267,385.8203 M223.3267,373.8203 L240.3267,373.8203" fill="none" style="stroke:#181818;stroke-width:0.5;"/><ellipse cx="252.3267" cy="373.8203" fill="#E2E2F0" rx="12" ry="12" style="stroke:#181818;stroke-width:0.5;"/></g><g class="participant participant-head" data-entity-uid="part3" data-qualified-name="queue" data-source-line="5" id="part3-head"><path d="M351.7021,92.2969 L511.6826,92.2969 C516.6826,92.2969 516.6826,105.4453 516.6826,105.4453 C516.6826,105.4453 516.6826,118.5938 511.6826,118.5938 L351.7021,118.5938 C346.7021,118.5938 346.7021,105.4453 346.7021,105.4453 C346.7021,105.4453 346.7021,92.2969 351.7021,92.2969" fill="#E2E2F0" style="stroke:#181818;stroke-width:0.5;"/><path d="M511.6826,92.2969 C506.6826,92.2969 506.6826,105.4453 506.6826,105.4453 C506.6826,118.5938 511.6826,118.5938 511.6826,118.5938" fill="none" style="stroke:#181818;stroke-width:0.5;"/><text fill="#000000" font-family="sans-serif" font-size="14" lengthAdjust="spacing" textLength="149.9805" x="351.7021" y="110.292">Write Request Queue</text></g><g class="participant participant-tail" data-entity-uid="part3" data-qualified-name="queue" data-source-line="5" id="part3-tail"><path d="M351.7021,341.5234 L511.6826,341.5234 C516.6826,341.5234 516.6826,354.6719 516.6826,354.6719 C516.6826,354.6719 516.6826,367.8203 511.6826,367.8203 L351.7021,367.8203 C346.7021,367.8203 346.7021,354.6719 346.7021,354.6719 C346.7021,354.6719 346.7021,341.5234 351.7021,341.5234" fill="#E2E2F0" style="stroke:#181818;stroke-width:0.5;"/><path d="M511.6826,341.5234 C506.6826,341.5234 506.6826,354.6719 506.6826,354.6719 C506.6826,367.8203 511.6826,367.8203 511.6826,367.8203" fill="none" style="stroke:#181818;stroke-width:0.5;"/><text fill="#000000" font-family="sans-serif" font-size="14" lengthAdjust="spacing" textLength="149.9805" x="351.7021" y="359.5186">Write Request Queue</text></g><g class="participant participant-head" data-entity-uid="part4" data-qualified-name="verifier" data-source-line="6" id="part4-head"><text fill="#000000" font-family="sans-serif" font-size="14" lengthAdjust="spacing" textLength="97.5078" x="687.7549" y="115.292">Model Verifier</text><ellipse cx="739.5088" cy="86.2969" fill="#E2E2F0" rx="12" ry="12" style="stroke:#181818;stroke-width:0.5;"/><polygon fill="#181818" points="735.5088,74.2969,741.5088,69.2969,739.5088,74.2969,741.5088,79.2969,735.5088,74.2969" style="stroke:#181818;stroke-width:1;"/></g><g class="participant participant-tail" data-entity-uid="part4" data-qualified-name="verifier" data-source-line="6" id="part4-tail"><text fill="#000000" font-family="sans-serif" font-size="14" lengthAdjust="spacing" textLength="97.5078" x="687.7549" y="354.5186">Model Verifier</text><ellipse cx="739.5088" cy="373.8203" fill="#E2E2F0" rx="12" ry="12" style="stroke:#181818;stroke-width:0.5;"/><polygon fill="#181818" points="735.5088,361.8203,741.5088,356.8203,739.5088,361.8203,741.5088,366.8203,735.5088,361.8203" style="stroke:#181818;stroke-width:1;"/></g><g class="participant participant-head" data-entity-uid="part5" data-qualified-name="git" data-source-line="7" id="part5-head"><text fill="#000000" font-family="sans-serif" font-size="14" lengthAdjust="spacing" textLength="99.75" x="801.2627" y="115.292">Git Repository</text><path d="M836.1377,66.2969 C836.1377,56.2969 854.1377,56.2969 854.1377,56.2969 C854.1377,56.2969 872.1377,56.2969 872.1377,66.2969 L872.1377,92.2969 C872.1377,102.2969 854.1377,102.2969 854.1377,102.2969 C854.1377,102.2969 836.1377,102.2969 836.1377,92.2969 L836.1377,66.2969" fill="#E2E2F0" style="stroke:#181818;stroke-width:0.5;"/><path d="M836.1377,66.2969 C836.1377,76.2969 854.1377,76.2969 854.1377,76.2969 C854.1377,76.2969 872.1377,76.2969 872.1377,66.2969" fill="none" style="stroke:#181818;stroke-width:0.5;"/></g><g class="participant participant-tail" data-entity-uid="part5" data-qualified-name="git" data-source-line="7" id="part5-tail"><text fill="#000000" font-family="sans-serif" font-size="14" lengthAdjust="spacing" textLength="99.75" x="801.2627" y="354.5186">Git Repository</text><path d="M836.1377,367.8203 C836.1377,357.8203 854.1377,357.8203 854.1377,357.8203 C854.1377,357.8203 872.1377,357.8203 872.1377,367.8203 L872.1377,393.8203 C872.1377,403.8203 854.1377,403.8203 854.1377,403.8203 C854.1377,403.8203 836.1377,403.8203 836.1377,393.8203 L836.1377,367.8203" fill="#E2E2F0" style="stroke:#181818;stroke-width:0.5;"/><path d="M836.1377,367.8203 C836.1377,377.8203 854.1377,377.8203 854.1377,377.8203 C854.1377,377.8203 872.1377,377.8203 872.1377,367.8203" fill="none" style="stroke:#181818;stroke-width:0.5;"/></g><g class="participant participant-head" data-entity-uid="part6" data-qualified-name="gui" data-source-line="8" id="part6-head"><text fill="#000000" font-family="sans-serif" font-size="14" lengthAdjust="spacing" textLength="67.2178" x="917.0127" y="115.292">GUI (SSE)</text><path d="M933.1216,74.2969 L933.1216,98.2969 M933.1216,86.2969 L950.1216,86.2969" fill="none" style="stroke:#181818;stroke-width:0.5;"/><ellipse cx="962.1216" cy="86.2969" fill="#E2E2F0" rx="12" ry="12" style="stroke:#181818;stroke-width:0.5;"/></g><g class="participant participant-tail" data-entity-uid="part6" data-qualified-name="gui" data-source-line="8" id="part6-tail"><text fill="#000000" font-family="sans-serif" font-size="14" lengthAdjust="spacing" textLength="67.2178" x="917.0127" y="354.5186">GUI (SSE)</text><path d="M933.1216,361.8203 L933.1216,385.8203 M933.1216,373.8203 L950.1216,373.8203" fill="none" style="stroke:#181818;stroke-width:0.5;"/><ellipse cx="962.1216" cy="373.8203" fill="#E2E2F0" rx="12" ry="12" style="stroke:#181818;stroke-width:0.5;"/></g><g class="message" data-entity-1="part1" data-entity-2="part2" data-source-line="10" id="msg1"><polygon fill="#181818" points="231.8267,145.7266,241.8267,149.7266,231.8267,153.7266,235.8267,149.7266" style="stroke:#181818;stroke-width:1;"/><line style="stroke:#181818;stroke-width:1;" x1="72.9756" x2="237.8267" y1="149.7266" y2="149.7266"/><text fill="#000000" font-family="sans-serif" font-size="13" lengthAdjust="spacing" textLength="130.0952" x="79.9756" y="144.6606">create / edit artifact</text></g><g class="message" data-entity-1="part2" data-entity-2="part3" data-source-line="11" id="msg2"><polygon fill="#181818" points="419.6924,174.8594,429.6924,178.8594,419.6924,182.8594,423.6924,178.8594" style="stroke:#181818;stroke-width:1;"/><line style="stroke:#181818;stroke-width:1;" x1="243.8267" x2="425.6924" y1="178.8594" y2="178.8594"/><text fill="#000000" font-family="sans-serif" font-size="13" lengthAdjust="spacing" textLength="93.7803" x="250.8267" y="173.7935">enqueue write</text></g><g class="message" data-entity-1="part3" data-entity-2="part4" data-source-line="12" id="msg3"><polygon fill="#181818" points="727.5088,203.9922,737.5088,207.9922,727.5088,211.9922,731.5088,207.9922" style="stroke:#181818;stroke-width:1;"/><line style="stroke:#181818;stroke-width:1;" x1="431.6924" x2="733.5088" y1="207.9922" y2="207.9922"/><text fill="#000000" font-family="sans-serif" font-size="13" lengthAdjust="spacing" textLength="283.8164" x="438.6924" y="202.9263">verify: schema, references, diagram syntax</text></g><g class="message" data-entity-1="part4" data-entity-2="part3" data-source-line="13" id="msg4"><polygon fill="#181818" points="442.6924,233.125,432.6924,237.125,442.6924,241.125,438.6924,237.125" style="stroke:#181818;stroke-width:1;"/><line style="stroke:#181818;stroke-width:1;stroke-dasharray:2,2;" x1="436.6924" x2="738.5088" y1="237.125" y2="237.125"/><text fill="#000000" font-family="sans-serif" font-size="13" lengthAdjust="spacing" textLength="31.1353" x="448.6924" y="232.0591">valid</text></g><g class="message" data-entity-1="part3" data-entity-2="part5" data-source-line="14" id="msg5"><polygon fill="#181818" points="842.1377,262.2578,852.1377,266.2578,842.1377,270.2578,846.1377,266.2578" style="stroke:#181818;stroke-width:1;"/><line style="stroke:#181818;stroke-width:1;" x1="431.6924" x2="848.1377" y1="266.2578" y2="266.2578"/><text fill="#000000" font-family="sans-serif" font-size="13" lengthAdjust="spacing" textLength="154.4956" x="438.6924" y="261.1919">commit + refresh index</text></g><g class="message" data-entity-1="part3" data-entity-2="part6" data-source-line="15" id="msg6"><line style="stroke:#181818;stroke-width:1;" x1="951.6216" x2="941.6216" y1="295.3906" y2="291.3906"/><line style="stroke:#181818;stroke-width:1;" x1="951.6216" x2="941.6216" y1="295.3906" y2="299.3906"/><line style="stroke:#181818;stroke-width:1;" x1="431.6924" x2="952.6216" y1="295.3906" y2="295.3906"/><text fill="#000000" font-family="sans-serif" font-size="13" lengthAdjust="spacing" textLength="159.3008" x="438.6924" y="290.3247">broadcast model update</text></g><g class="message" data-entity-1="part2" data-entity-2="part1" data-source-line="16" id="msg7"><polygon fill="#181818" points="83.9756,320.5234,73.9756,324.5234,83.9756,328.5234,79.9756,324.5234" style="stroke:#181818;stroke-width:1;"/><line style="stroke:#181818;stroke-width:1;stroke-dasharray:2,2;" x1="77.9756" x2="242.8267" y1="324.5234" y2="324.5234"/><text fill="#000000" font-family="sans-serif" font-size="13" lengthAdjust="spacing" textLength="125.7979" x="89.9756" y="319.4575">artifact ids + result</text></g><?plantuml-src JP5BRyCW48Jl_8gLJwsQg7SV8gLH6-LGgOtxE6zWao3Pa2vB6l_xhd4UbP0Cp7Zu1iHBI_32iGE4R_P2856dYnYIJq919l344Pt59D082Xc3LY93DS-orw-E-GhcE_LMW0cmR9jDpC4Xzr2zBjxW4TRFpSVvX2Rp5YqLTsSFvYTJ9gX6SKswrBFUXyrYARAnCGZ7LkEYenQ-YFtM4nV7yRmm3WKtc3HiwKMZ3Z5vPUsBQ-Vb7zNoSmLtJVDyFshPQw-nq7GsKDLWcRIkefFJC6JnIYr6jS5Ig6gWCDB_3l3d9gfUYEfnrjUGx9uwd03JbfY2fJG1vt77s47gW-39N7w2wIt_YArtjrpje62nwvJeOSXYIdlmmT7fQfeDRMhON9-jApUM3svulOAlIMFP-jeBl4ibCkLMp1y0?></g></svg>